<svg class="main-svg" xmlns="http://www.w3.org/2000/svg" xmlns:xlink="http://www.w3.org/1999/xlink" width="800" height="400" style="" viewBox="0 0 800 400"><rect x="0" y="0" width="800" height="400" style="fill: rgb(255, 255, 255); fill-opacity: 1;"/><defs id="defs-e27365"><g class="clips"><clipPath id="clipe27365xyplot" class="plotclip"><rect width="640" height="220"/></clipPath><clipPath class="axesclip" id="clipe27365x"><rect x="80" y="0" width="640" height="400"/></clipPath><clipPath class="axesclip" id="clipe27365y"><rect x="0" y="100" width="800" height="220"/></clipPath><clipPath class="axesclip" id="clipe27365xy"><rect x="80" y="100" width="640" height="220"/></clipPath></g><g class="gradients"/><g class="patterns"/></defs><g class="bglayer"/><g class="layer-below"><g class="imagelayer"/><g class="shapelayer"/></g><g class="cartesianlayer"><g class="subplot xy"><g class="layer-subplot"><g class="shapelayer"/><g class="imagelayer"/></g><g class="minor-gridlayer"><g class="x"/><g class="y"/></g><g class="gridlayer"><g class="x"/><g class="y"><path class="ygrid crisp" transform="translate(0,269.37)" d="M80,0h640" style="stroke: rgb(238, 238, 238); stroke-opacity: 1; stroke-width: 1px;"/><path class="ygrid crisp" transform="translate(0,218.73000000000002)" d="M80,0h640" style="stroke: rgb(238, 238, 238); stroke-opacity: 1; stroke-width: 1px;"/><path class="ygrid crisp" transform="translate(0,168.1)" d="M80,0h640" style="stroke: rgb(238, 238, 238); stroke-opacity: 1; stroke-width: 1px;"/><path class="ygrid crisp" transform="translate(0,117.46000000000001)" d="M80,0h640" style="stroke: rgb(238, 238, 238); stroke-opacity: 1; stroke-width: 1px;"/></g></g><g class="zerolinelayer"><path class="yzl zl crisp" transform="translate(0,320)" d="M80,0h640" style="stroke: rgb(68, 68, 68); stroke-opacity: 1; stroke-width: 1px;"/></g><path class="xlines-below"/><path class="ylines-below"/><g class="overlines-below"/><g class="xaxislayer-below"/><g class="yaxislayer-below"/><g class="overaxes-below"/><g class="plot" transform="translate(80,100)" clip-path="url(#clipe27365xyplot)"><g class="barlayer mlayer"><g class="trace bars" style="opacity: 1;"><g class="points"><g class="point"><path d="M8,220V35.6H20.8V220Z" style="vector-effect: none; opacity: 1; stroke-width: 0px; fill: rgb(31, 119, 180); fill-opacity: 1;"/></g><g class="point"><path d="M88,220V40.84H100.8V220Z" style="vector-effect: none; opacity: 1; stroke-width: 0px; fill: rgb(31, 119, 180); fill-opacity: 1;"/></g><g class="point"><path d="M168,220V47.51H180.8V220Z" style="vector-effect: none; opacity: 1; stroke-width: 0px; fill: rgb(31, 119, 180); fill-opacity: 1;"/></g><g class="point"><path d="M248,220V34.33H260.8V220Z" style="vector-effect: none; opacity: 1; stroke-width: 0px; fill: rgb(31, 119, 180); fill-opacity: 1;"/></g><g class="point"><path d="M328,220V37.44H340.8V220Z" style="vector-effect: none; opacity: 1; stroke-width: 0px; fill: rgb(31, 119, 180); fill-opacity: 1;"/></g><g class="point"><path d="M408,220V24.14H420.8V220Z" style="vector-effect: none; opacity: 1; stroke-width: 0px; fill: rgb(31, 119, 180); fill-opacity: 1;"/></g><g class="point"><path d="M488,220V26.16H500.8V220Z" style="vector-effect: none; opacity: 1; stroke-width: 0px; fill: rgb(31, 119, 180); fill-opacity: 1;"/></g><g class="point"><path d="M568,220V20.02H580.8V220Z" style="vector-effect: none; opacity: 1; stroke-width: 0px; fill: rgb(31, 119, 180); fill-opacity: 1;"/></g></g><g class="errorbar"><path class="yerror" d="M10.4,20.29h8m-4,0V50.91m-4,0h8" style="vector-effect: none; stroke-width: 2px; stroke: rgb(68, 68, 68); stroke-opacity: 1;"/></g><g class="errorbar"><path class="yerror" d="M90.4,23.46h8m-4,0V58.23m-4,0h8" style="vector-effect: none; stroke-width: 2px; stroke: rgb(68, 68, 68); stroke-opacity: 1;"/></g><g class="errorbar"><path class="yerror" d="M170.4,21.23h8m-4,0V73.79m-4,0h8" style="vector-effect: none; stroke-width: 2px; stroke: rgb(68, 68, 68); stroke-opacity: 1;"/></g><g class="errorbar"><path class="yerror" d="M250.4,22.54h8m-4,0V46.11m-4,0h8" style="vector-effect: none; stroke-width: 2px; stroke: rgb(68, 68, 68); stroke-opacity: 1;"/></g><g class="errorbar"><path class="yerror" d="M330.4,22.9h8m-4,0V51.98m-4,0h8" style="vector-effect: none; stroke-width: 2px; stroke: rgb(68, 68, 68); stroke-opacity: 1;"/></g><g class="errorbar"><path class="yerror" d="M410.4,14.3h8m-4,0V33.99m-4,0h8" style="vector-effect: none; stroke-width: 2px; stroke: rgb(68, 68, 68); stroke-opacity: 1;"/></g><g class="errorbar"><path class="yerror" d="M490.4,12.4h8m-4,0V39.92m-4,0h8" style="vector-effect: none; stroke-width: 2px; stroke: rgb(68, 68, 68); stroke-opacity: 1;"/></g><g class="errorbar"><path class="yerror" d="M570.4,11h8m-4,0V29.05m-4,0h8" style="vector-effect: none; stroke-width: 2px; stroke: rgb(68, 68, 68); stroke-opacity: 1;"/></g></g><g class="trace bars" style="opacity: 1;"><g class="points"><g class="point"><path d="M20.8,220V39.35H33.6V220Z" style="vector-effect: none; opacity: 1; stroke-width: 0px; fill: rgb(255, 127, 14); fill-opacity: 1;"/></g><g class="point"><path d="M100.8,220V37.58H113.6V220Z" style="vector-effect: none; opacity: 1; stroke-width: 0px; fill: rgb(255, 127, 14); fill-opacity: 1;"/></g><g class="point"><path d="M180.8,220V32.55H193.6V220Z" style="vector-effect: none; opacity: 1; stroke-width: 0px; fill: rgb(255, 127, 14); fill-opacity: 1;"/></g><g class="point"><path d="M260.8,220V39.67H273.6V220Z" style="vector-effect: none; opacity: 1; stroke-width: 0px; fill: rgb(255, 127, 14); fill-opacity: 1;"/></g><g class="point"><path d="M340.8,220V38.76H353.6V220Z" style="vector-effect: none; opacity: 1; stroke-width: 0px; fill: rgb(255, 127, 14); fill-opacity: 1;"/></g><g class="point"><path d="M420.8,220V23.5H433.6V220Z" style="vector-effect: none; opacity: 1; stroke-width: 0px; fill: rgb(255, 127, 14); fill-opacity: 1;"/></g><g class="point"><path d="M500.8,220V24.19H513.6V220Z" style="vector-effect: none; opacity: 1; stroke-width: 0px; fill: rgb(255, 127, 14); fill-opacity: 1;"/></g><g class="point"><path d="M580.8,220V21.41H593.6V220Z" style="vector-effect: none; opacity: 1; stroke-width: 0px; fill: rgb(255, 127, 14); fill-opacity: 1;"/></g></g><g class="errorbar"><path class="yerror" d="M23.2,17.63h8m-4,0V61.08m-4,0h8" style="vector-effect: none; stroke-width: 2px; stroke: rgb(68, 68, 68); stroke-opacity: 1;"/></g><g class="errorbar"><path class="yerror" d="M103.2,21.73h8m-4,0V53.42m-4,0h8" style="vector-effect: none; stroke-width: 2px; stroke: rgb(68, 68, 68); stroke-opacity: 1;"/></g><g class="errorbar"><path class="yerror" d="M183.2,17.85h8m-4,0V47.25m-4,0h8" style="vector-effect: none; stroke-width: 2px; stroke: rgb(68, 68, 68); stroke-opacity: 1;"/></g><g class="errorbar"><path class="yerror" d="M263.2,24.84h8m-4,0V54.51m-4,0h8" style="vector-effect: none; stroke-width: 2px; stroke: rgb(68, 68, 68); stroke-opacity: 1;"/></g><g class="errorbar"><path class="yerror" d="M343.2,16.64h8m-4,0V60.88m-4,0h8" style="vector-effect: none; stroke-width: 2px; stroke: rgb(68, 68, 68); stroke-opacity: 1;"/></g><g class="errorbar"><path class="yerror" d="M423.2,16.46h8m-4,0V30.55m-4,0h8" style="vector-effect: none; stroke-width: 2px; stroke: rgb(68, 68, 68); stroke-opacity: 1;"/></g><g class="errorbar"><path class="yerror" d="M503.2,16.16h8m-4,0V32.22m-4,0h8" style="vector-effect: none; stroke-width: 2px; stroke: rgb(68, 68, 68); stroke-opacity: 1;"/></g><g class="errorbar"><path class="yerror" d="M583.2,13.5h8m-4,0V29.32m-4,0h8" style="vector-effect: none; stroke-width: 2px; stroke: rgb(68, 68, 68); stroke-opacity: 1;"/></g></g><g class="trace bars" style="opacity: 1;"><g class="points"><g class="point"><path d="M33.6,220V34.46H46.4V220Z" style="vector-effect: none; opacity: 1; stroke-width: 0px; fill: rgb(44, 160, 44); fill-opacity: 1;"/></g><g class="point"><path d="M113.6,220V36.39H126.4V220Z" style="vector-effect: none; opacity: 1; stroke-width: 0px; fill: rgb(44, 160, 44); fill-opacity: 1;"/></g><g class="point"><path d="M193.6,220V41.21H206.4V220Z" style="vector-effect: none; opacity: 1; stroke-width: 0px; fill: rgb(44, 160, 44); fill-opacity: 1;"/></g><g class="point"><path d="M273.6,220V36.36H286.4V220Z" style="vector-effect: none; opacity: 1; stroke-width: 0px; fill: rgb(44, 160, 44); fill-opacity: 1;"/></g><g class="point"><path d="M353.6,220V30.74H366.4V220Z" style="vector-effect: none; opacity: 1; stroke-width: 0px; fill: rgb(44, 160, 44); fill-opacity: 1;"/></g><g class="point"><path d="M433.6,220V35.96H446.4V220Z" style="vector-effect: none; opacity: 1; stroke-width: 0px; fill: rgb(44, 160, 44); fill-opacity: 1;"/></g><g class="point"><path d="M513.6,220V38.15H526.4V220Z" style="vector-effect: none; opacity: 1; stroke-width: 0px; fill: rgb(44, 160, 44); fill-opacity: 1;"/></g><g class="point"><path d="M593.6,220V19.89H606.4V220Z" style="vector-effect: none; opacity: 1; stroke-width: 0px; fill: rgb(44, 160, 44); fill-opacity: 1;"/></g></g><g class="errorbar"><path class="yerror" d="M36,18.76h8m-4,0V50.16m-4,0h8" style="vector-effect: none; stroke-width: 2px; stroke: rgb(68, 68, 68); stroke-opacity: 1;"/></g><g class="errorbar"><path class="yerror" d="M116,17.06h8m-4,0V55.72m-4,0h8" style="vector-effect: none; stroke-width: 2px; stroke: rgb(68, 68, 68); stroke-opacity: 1;"/></g><g class="errorbar"><path class="yerror" d="M196,19.07h8m-4,0V63.36m-4,0h8" style="vector-effect: none; stroke-width: 2px; stroke: rgb(68, 68, 68); stroke-opacity: 1;"/></g><g class="errorbar"><path class="yerror" d="M276,22.55h8m-4,0V50.17m-4,0h8" style="vector-effect: none; stroke-width: 2px; stroke: rgb(68, 68, 68); stroke-opacity: 1;"/></g><g class="errorbar"><path class="yerror" d="M356,15.14h8m-4,0V46.35m-4,0h8" style="vector-effect: none; stroke-width: 2px; stroke: rgb(68, 68, 68); stroke-opacity: 1;"/></g><g class="errorbar"><path class="yerror" d="M436,20.24h8m-4,0V51.67m-4,0h8" style="vector-effect: none; stroke-width: 2px; stroke: rgb(68, 68, 68); stroke-opacity: 1;"/></g><g class="errorbar"><path class="yerror" d="M516,21.86h8m-4,0V54.44m-4,0h8" style="vector-effect: none; stroke-width: 2px; stroke: rgb(68, 68, 68); stroke-opacity: 1;"/></g><g class="errorbar"><path class="yerror" d="M596,13.31h8m-4,0V26.48m-4,0h8" style="vector-effect: none; stroke-width: 2px; stroke: rgb(68, 68, 68); stroke-opacity: 1;"/></g></g><g class="trace bars" style="opacity: 1;"><g class="points"><g class="point"><path d="M46.4,220V48.7H59.2V220Z" style="vector-effect: none; opacity: 1; stroke-width: 0px; fill: rgb(214, 39, 40); fill-opacity: 1;"/></g><g class="point"><path d="M126.4,220V38.27H139.2V220Z" style="vector-effect: none; opacity: 1; stroke-width: 0px; fill: rgb(214, 39, 40); fill-opacity: 1;"/></g><g class="point"><path d="M206.4,220V29.69H219.2V220Z" style="vector-effect: none; opacity: 1; stroke-width: 0px; fill: rgb(214, 39, 40); fill-opacity: 1;"/></g><g class="point"><path d="M286.4,220V39.98H299.2V220Z" style="vector-effect: none; opacity: 1; stroke-width: 0px; fill: rgb(214, 39, 40); fill-opacity: 1;"/></g><g class="point"><path d="M366.4,220V31.9H379.2V220Z" style="vector-effect: none; opacity: 1; stroke-width: 0px; fill: rgb(214, 39, 40); fill-opacity: 1;"/></g><g class="point"><path d="M446.4,220V33.78H459.2V220Z" style="vector-effect: none; opacity: 1; stroke-width: 0px; fill: rgb(214, 39, 40); fill-opacity: 1;"/></g><g class="point"><path d="M526.4,220V29.96H539.2V220Z" style="vector-effect: none; opacity: 1; stroke-width: 0px; fill: rgb(214, 39, 40); fill-opacity: 1;"/></g><g class="point"><path d="M606.4,220V20.95H619.2V220Z" style="vector-effect: none; opacity: 1; stroke-width: 0px; fill: rgb(214, 39, 40); fill-opacity: 1;"/></g></g><g class="errorbar"><path class="yerror" d="M48.8,28.06h8m-4,0V69.33m-4,0h8" style="vector-effect: none; stroke-width: 2px; stroke: rgb(68, 68, 68); stroke-opacity: 1;"/></g><g class="errorbar"><path class="yerror" d="M128.8,23.27h8m-4,0V53.27m-4,0h8" style="vector-effect: none; stroke-width: 2px; stroke: rgb(68, 68, 68); stroke-opacity: 1;"/></g><g class="errorbar"><path class="yerror" d="M208.8,17.96h8m-4,0V41.41m-4,0h8" style="vector-effect: none; stroke-width: 2px; stroke: rgb(68, 68, 68); stroke-opacity: 1;"/></g><g class="errorbar"><path class="yerror" d="M288.8,26.32h8m-4,0V53.64m-4,0h8" style="vector-effect: none; stroke-width: 2px; stroke: rgb(68, 68, 68); stroke-opacity: 1;"/></g><g class="errorbar"><path class="yerror" d="M368.8,12.75h8m-4,0V51.05m-4,0h8" style="vector-effect: none; stroke-width: 2px; stroke: rgb(68, 68, 68); stroke-opacity: 1;"/></g><g class="errorbar"><path class="yerror" d="M448.8,19.74h8m-4,0V47.82m-4,0h8" style="vector-effect: none; stroke-width: 2px; stroke: rgb(68, 68, 68); stroke-opacity: 1;"/></g><g class="errorbar"><path class="yerror" d="M528.8,16.26h8m-4,0V43.65m-4,0h8" style="vector-effect: none; stroke-width: 2px; stroke: rgb(68, 68, 68); stroke-opacity: 1;"/></g><g class="errorbar"><path class="yerror" d="M608.8,13.63h8m-4,0V28.27m-4,0h8" style="vector-effect: none; stroke-width: 2px; stroke: rgb(68, 68, 68); stroke-opacity: 1;"/></g></g><g class="trace bars" style="opacity: 1;"><g class="points"><g class="point"><path d="M59.2,220V39.53H72V220Z" style="vector-effect: none; opacity: 1; stroke-width: 0px; fill: rgb(148, 103, 189); fill-opacity: 1;"/></g><g class="point"><path d="M139.2,220V38.27H152V220Z" style="vector-effect: none; opacity: 1; stroke-width: 0px; fill: rgb(148, 103, 189); fill-opacity: 1;"/></g><g class="point"><path d="M219.2,220V37.74H232V220Z" style="vector-effect: none; opacity: 1; stroke-width: 0px; fill: rgb(148, 103, 189); fill-opacity: 1;"/></g><g class="point"><path d="M299.2,220V37.58H312V220Z" style="vector-effect: none; opacity: 1; stroke-width: 0px; fill: rgb(148, 103, 189); fill-opacity: 1;"/></g><g class="point"><path d="M379.2,220V34.71H392V220Z" style="vector-effect: none; opacity: 1; stroke-width: 0px; fill: rgb(148, 103, 189); fill-opacity: 1;"/></g><g class="point"><path d="M459.2,220V32.75H472V220Z" style="vector-effect: none; opacity: 1; stroke-width: 0px; fill: rgb(148, 103, 189); fill-opacity: 1;"/></g><g class="point"><path d="M539.2,220V29.61H552V220Z" style="vector-effect: none; opacity: 1; stroke-width: 0px; fill: rgb(148, 103, 189); fill-opacity: 1;"/></g><g class="point"><path d="M619.2,220V20.57H632V220Z" style="vector-effect: none; opacity: 1; stroke-width: 0px; fill: rgb(148, 103, 189); fill-opacity: 1;"/></g></g><g class="errorbar"><path class="yerror" d="M61.599999999999994,33.07h8m-4,0V45.99m-4,0h8" style="vector-effect: none; stroke-width: 2px; stroke: rgb(68, 68, 68); stroke-opacity: 1;"/></g><g class="errorbar"><path class="yerror" d="M141.6,36.39h8m-4,0V40.15m-4,0h8" style="vector-effect: none; stroke-width: 2px; stroke: rgb(68, 68, 68); stroke-opacity: 1;"/></g><g class="errorbar"><path class="yerror" d="M221.6,29.59h8m-4,0V45.89m-4,0h8" style="vector-effect: none; stroke-width: 2px; stroke: rgb(68, 68, 68); stroke-opacity: 1;"/></g><g class="errorbar"><path class="yerror" d="M301.6,34.86h8m-4,0V40.31m-4,0h8" style="vector-effect: none; stroke-width: 2px; stroke: rgb(68, 68, 68); stroke-opacity: 1;"/></g><g class="errorbar"><path class="yerror" d="M381.6,30.73h8m-4,0V38.69m-4,0h8" style="vector-effect: none; stroke-width: 2px; stroke: rgb(68, 68, 68); stroke-opacity: 1;"/></g><g class="errorbar"><path class="yerror" d="M461.6,26.28h8m-4,0V39.23m-4,0h8" style="vector-effect: none; stroke-width: 2px; stroke: rgb(68, 68, 68); stroke-opacity: 1;"/></g><g class="errorbar"><path class="yerror" d="M541.6,23.44h8m-4,0V35.79m-4,0h8" style="vector-effect: none; stroke-width: 2px; stroke: rgb(68, 68, 68); stroke-opacity: 1;"/></g><g class="errorbar"><path class="yerror" d="M621.6,19.84h8m-4,0V21.3m-4,0h8" style="vector-effect: none; stroke-width: 2px; stroke: rgb(68, 68, 68); stroke-opacity: 1;"/></g></g></g></g><g class="overplot"/><path class="xlines-above crisp" d="M0,0" style="fill: none;"/><path class="ylines-above crisp" d="M0,0" style="fill: none;"/><g class="overlines-above"/><g class="xaxislayer-above"><g class="xtick"><text text-anchor="start" x="0" y="333" transform="translate(120,0) rotate(30,0,327)" style="font-family: 'Open Sans', verdana, arial, sans-serif; font-size: 12px; fill: rgb(68, 68, 68); fill-opacity: 1; white-space: pre; opacity: 1;">Fixed clip</text></g><g class="xtick"><text text-anchor="start" x="0" y="333" transform="translate(200,0) rotate(30,0,327)" style="font-family: 'Open Sans', verdana, arial, sans-serif; font-size: 12px; fill: rgb(68, 68, 68); fill-opacity: 1; white-space: pre; opacity: 1;">Median</text></g><g class="xtick"><text text-anchor="start" x="0" y="333" transform="translate(280,0) rotate(30,0,327)" style="font-family: 'Open Sans', verdana, arial, sans-serif; font-size: 12px; fill: rgb(68, 68, 68); fill-opacity: 1; white-space: pre; opacity: 1;">Punish updates</text></g><g class="xtick"><text text-anchor="start" x="0" y="333" transform="translate(360,0) rotate(30,0,327)" style="font-family: 'Open Sans', verdana, arial, sans-serif; font-size: 12px; fill: rgb(68, 68, 68); fill-opacity: 1; white-space: pre; opacity: 1;">Simple average</text></g><g class="xtick"><text text-anchor="start" x="0" y="333" transform="translate(440,0) rotate(30,0,327)" style="font-family: 'Open Sans', verdana, arial, sans-serif; font-size: 12px; fill: rgb(68, 68, 68); fill-opacity: 1; white-space: pre; opacity: 1;">Dynamic clip</text></g><g class="xtick"><text text-anchor="start" x="0" y="333" transform="translate(520,0) rotate(30,0,327)" style="font-family: 'Open Sans', verdana, arial, sans-serif; font-size: 12px; fill: rgb(68, 68, 68); fill-opacity: 1; white-space: pre; opacity: 1;">Performance weighted</text></g><g class="xtick"><text text-anchor="start" x="0" y="333" transform="translate(600,0) rotate(30,0,327)" style="font-family: 'Open Sans', verdana, arial, sans-serif; font-size: 12px; fill: rgb(68, 68, 68); fill-opacity: 1; white-space: pre; opacity: 1;">Receny weighted</text></g><g class="xtick"><text text-anchor="start" x="0" y="333" transform="translate(680,0) rotate(30,0,327)" style="font-family: 'Open Sans', verdana, arial, sans-serif; font-size: 12px; fill: rgb(68, 68, 68); fill-opacity: 1; white-space: pre; opacity: 1;">No FL</text></g></g><g class="yaxislayer-above"><g class="ytick"><text text-anchor="end" x="79" y="4.199999999999999" transform="translate(0,320)" style="font-family: 'Open Sans', verdana, arial, sans-serif; font-size: 12px; fill: rgb(68, 68, 68); fill-opacity: 1; white-space: pre; opacity: 1;">0</text></g><g class="ytick"><text text-anchor="end" x="79" y="4.199999999999999" style="font-family: 'Open Sans', verdana, arial, sans-serif; font-size: 12px; fill: rgb(68, 68, 68); fill-opacity: 1; white-space: pre; opacity: 1;" transform="translate(0,269.37)">0.2</text></g><g class="ytick"><text text-anchor="end" x="79" y="4.199999999999999" style="font-family: 'Open Sans', verdana, arial, sans-serif; font-size: 12px; fill: rgb(68, 68, 68); fill-opacity: 1; white-space: pre; opacity: 1;" transform="translate(0,218.73000000000002)">0.4</text></g><g class="ytick"><text text-anchor="end" x="79" y="4.199999999999999" style="font-family: 'Open Sans', verdana, arial, sans-serif; font-size: 12px; fill: rgb(68, 68, 68); fill-opacity: 1; white-space: pre; opacity: 1;" transform="translate(0,168.1)">0.6</text></g><g class="ytick"><text text-anchor="end" x="79" y="4.199999999999999" style="font-family: 'Open Sans', verdana, arial, sans-serif; font-size: 12px; fill: rgb(68, 68, 68); fill-opacity: 1; white-space: pre; opacity: 1;" transform="translate(0,117.46000000000001)">0.8</text></g></g><g class="overaxes-above"/></g></g><g class="polarlayer"/><g class="smithlayer"/><g class="ternarylayer"/><g class="geolayer"/><g class="funnelarealayer"/><g class="pielayer"/><g class="iciclelayer"/><g class="treemaplayer"/><g class="sunburstlayer"/><g class="glimages"/><defs id="topdefs-e27365"><g class="clips"/><clipPath id="legende27365"><rect width="446" height="29" x="0" y="0"/></clipPath></defs><g class="layer-above"><g class="imagelayer"/><g class="shapelayer"/></g><g class="infolayer"><g class="legend" pointer-events="all" transform="translate(80,56.00000000000001)"><rect class="bg" shape-rendering="crispEdges" width="446" height="29" x="0" y="0" style="stroke: rgb(68, 68, 68); stroke-opacity: 1; fill: rgb(255, 255, 255); fill-opacity: 1; stroke-width: 0px;"/><g class="scrollbox" transform="" clip-path="url(#legende27365)"><g class="groups"><g class="traces" transform="translate(0,14.5)" style="opacity: 1;"><text class="legendtext" text-anchor="start" x="40" y="4.680000000000001" style="font-family: 'Open Sans', verdana, arial, sans-serif; font-size: 12px; fill: rgb(68, 68, 68); fill-opacity: 1; white-space: pre;">Node 0</text><g class="layers" style="opacity: 1;"><g class="legendfill"/><g class="legendlines"/><g class="legendsymbols"><g class="legendpoints"><path class="legendundefined" d="M6,6H-6V-6H6Z" transform="translate(20,0)" style="stroke-width: 0px; fill: rgb(31, 119, 180); fill-opacity: 1;"/></g></g></g><rect class="legendtoggle" x="0" y="-9.5" width="85.28125" height="19" style="fill: rgb(0, 0, 0); fill-opacity: 0;"/></g><g class="traces" transform="translate(87.78125,14.5)" style="opacity: 1;"><text class="legendtext" text-anchor="start" x="40" y="4.680000000000001" style="font-family: 'Open Sans', verdana, arial, sans-serif; font-size: 12px; fill: rgb(68, 68, 68); fill-opacity: 1; white-space: pre;">Node 1</text><g class="layers" style="opacity: 1;"><g class="legendfill"/><g class="legendlines"/><g class="legendsymbols"><g class="legendpoints"><path class="legendundefined" d="M6,6H-6V-6H6Z" transform="translate(20,0)" style="stroke-width: 0px; fill: rgb(255, 127, 14); fill-opacity: 1;"/></g></g></g><rect class="legendtoggle" x="0" y="-9.5" width="85.28125" height="19" style="fill: rgb(0, 0, 0); fill-opacity: 0;"/></g><g class="traces" transform="translate(175.5625,14.5)" style="opacity: 1;"><text class="legendtext" text-anchor="start" x="40" y="4.680000000000001" style="font-family: 'Open Sans', verdana, arial, sans-serif; font-size: 12px; fill: rgb(68, 68, 68); fill-opacity: 1; white-space: pre;">Node 2</text><g class="layers" style="opacity: 1;"><g class="legendfill"/><g class="legendlines"/><g class="legendsymbols"><g class="legendpoints"><path class="legendundefined" d="M6,6H-6V-6H6Z" transform="translate(20,0)" style="stroke-width: 0px; fill: rgb(44, 160, 44); fill-opacity: 1;"/></g></g></g><rect class="legendtoggle" x="0" y="-9.5" width="85.28125" height="19" style="fill: rgb(0, 0, 0); fill-opacity: 0;"/></g><g class="traces" transform="translate(263.34375,14.5)" style="opacity: 1;"><text class="legendtext" text-anchor="start" x="40" y="4.680000000000001" style="font-family: 'Open Sans', verdana, arial, sans-serif; font-size: 12px; fill: rgb(68, 68, 68); fill-opacity: 1; white-space: pre;">Node 3</text><g class="layers" style="opacity: 1;"><g class="legendfill"/><g class="legendlines"/><g class="legendsymbols"><g class="legendpoints"><path class="legendundefined" d="M6,6H-6V-6H6Z" transform="translate(20,0)" style="stroke-width: 0px; fill: rgb(214, 39, 40); fill-opacity: 1;"/></g></g></g><rect class="legendtoggle" x="0" y="-9.5" width="85.28125" height="19" style="fill: rgb(0, 0, 0); fill-opacity: 0;"/></g><g class="traces" transform="translate(351.125,14.5)" style="opacity: 1;"><text class="legendtext" text-anchor="start" x="40" y="4.680000000000001" style="font-family: 'Open Sans', verdana, arial, sans-serif; font-size: 12px; fill: rgb(68, 68, 68); fill-opacity: 1; white-space: pre;">Average</text><g class="layers" style="opacity: 1;"><g class="legendfill"/><g class="legendlines"/><g class="legendsymbols"><g class="legendpoints"><path class="legendundefined" d="M6,6H-6V-6H6Z" transform="translate(20,0)" style="stroke-width: 0px; fill: rgb(148, 103, 189); fill-opacity: 1;"/></g></g></g><rect class="legendtoggle" x="0" y="-9.5" width="91.78125" height="19" style="fill: rgb(0, 0, 0); fill-opacity: 0;"/></g></g></g><rect class="scrollbar" rx="20" ry="3" width="0" height="0" x="0" y="0" style="fill: rgb(128, 139, 164); fill-opacity: 1;"/></g><g class="g-gtitle"><text class="gtitle" x="400" y="50" text-anchor="middle" dy="0em" style="font-family: 'Open Sans', verdana, arial, sans-serif; font-size: 17px; fill: rgb(68, 68, 68); opacity: 1; font-weight: normal; white-space: pre;">Accuracy score by FL method for 4 nodes</text></g><g class="g-xtitle" transform="translate(0,24.7548828125)"><text class="xtitle" x="400" y="372" text-anchor="middle" style="font-family: 'Open Sans', verdana, arial, sans-serif; font-size: 14px; fill: rgb(68, 68, 68); opacity: 1; font-weight: normal; white-space: pre;">Aggregation methods</text></g><g class="g-ytitle"><text class="ytitle" transform="rotate(-90,42,210)" x="42" y="210" text-anchor="middle" style="font-family: 'Open Sans', verdana, arial, sans-serif; font-size: 14px; fill: rgb(68, 68, 68); opacity: 1; font-weight: normal; white-space: pre;">Accuracy score</text></g></g></svg>