<svg class="main-svg" xmlns="http://www.w3.org/2000/svg" xmlns:xlink="http://www.w3.org/1999/xlink" width="800" height="400" style="" viewBox="0 0 800 400"><rect x="0" y="0" width="800" height="400" style="fill: rgb(255, 255, 255); fill-opacity: 1;"/><defs id="defs-ef6249"><g class="clips"><clipPath id="clipef6249xyplot" class="plotclip"><rect width="640" height="220"/></clipPath><clipPath class="axesclip" id="clipef6249x"><rect x="80" y="0" width="640" height="400"/></clipPath><clipPath class="axesclip" id="clipef6249y"><rect x="0" y="100" width="800" height="220"/></clipPath><clipPath class="axesclip" id="clipef6249xy"><rect x="80" y="100" width="640" height="220"/></clipPath></g><g class="gradients"/><g class="patterns"/></defs><g class="bglayer"/><g class="layer-below"><g class="imagelayer"/><g class="shapelayer"/></g><g class="cartesianlayer"><g class="subplot xy"><g class="layer-subplot"><g class="shapelayer"/><g class="imagelayer"/></g><g class="minor-gridlayer"><g class="x"/><g class="y"/></g><g class="gridlayer"><g class="x"/><g class="y"><path class="ygrid crisp" transform="translate(0,271.01)" d="M80,0h640" style="stroke: rgb(238, 238, 238); stroke-opacity: 1; stroke-width: 1px;"/><path class="ygrid crisp" transform="translate(0,222.03)" d="M80,0h640" style="stroke: rgb(238, 238, 238); stroke-opacity: 1; stroke-width: 1px;"/><path class="ygrid crisp" transform="translate(0,173.04000000000002)" d="M80,0h640" style="stroke: rgb(238, 238, 238); stroke-opacity: 1; stroke-width: 1px;"/><path class="ygrid crisp" transform="translate(0,124.05)" d="M80,0h640" style="stroke: rgb(238, 238, 238); stroke-opacity: 1; stroke-width: 1px;"/></g></g><g class="zerolinelayer"><path class="yzl zl crisp" transform="translate(0,320)" d="M80,0h640" style="stroke: rgb(68, 68, 68); stroke-opacity: 1; stroke-width: 1px;"/></g><path class="xlines-below"/><path class="ylines-below"/><g class="overlines-below"/><g class="xaxislayer-below"/><g class="yaxislayer-below"/><g class="overaxes-below"/><g class="plot" transform="translate(80,100)" clip-path="url(#clipef6249xyplot)"><g class="barlayer mlayer"><g class="trace bars" style="opacity: 1;"><g class="points"><g class="point"><path d="M8,220V41.24H29.33V220Z" style="vector-effect: none; opacity: 1; stroke-width: 0px; fill: rgb(31, 119, 180); fill-opacity: 1;"/></g><g class="point"><path d="M88,220V36.7H109.33V220Z" style="vector-effect: none; opacity: 1; stroke-width: 0px; fill: rgb(31, 119, 180); fill-opacity: 1;"/></g><g class="point"><path d="M168,220V29.18H189.33V220Z" style="vector-effect: none; opacity: 1; stroke-width: 0px; fill: rgb(31, 119, 180); fill-opacity: 1;"/></g><g class="point"><path d="M248,220V34.69H269.33V220Z" style="vector-effect: none; opacity: 1; stroke-width: 0px; fill: rgb(31, 119, 180); fill-opacity: 1;"/></g><g class="point"><path d="M328,220V31.86H349.33V220Z" style="vector-effect: none; opacity: 1; stroke-width: 0px; fill: rgb(31, 119, 180); fill-opacity: 1;"/></g><g class="point"><path d="M408,220V25.11H429.33V220Z" style="vector-effect: none; opacity: 1; stroke-width: 0px; fill: rgb(31, 119, 180); fill-opacity: 1;"/></g><g class="point"><path d="M488,220V23.11H509.33V220Z" style="vector-effect: none; opacity: 1; stroke-width: 0px; fill: rgb(31, 119, 180); fill-opacity: 1;"/></g><g class="point"><path d="M568,220V31.61H589.33V220Z" style="vector-effect: none; opacity: 1; stroke-width: 0px; fill: rgb(31, 119, 180); fill-opacity: 1;"/></g></g><g class="errorbar"><path class="yerror" d="M14.670000000000002,29.58h8m-4,0V52.9m-4,0h8" style="vector-effect: none; stroke-width: 2px; stroke: rgb(68, 68, 68); stroke-opacity: 1;"/></g><g class="errorbar"><path class="yerror" d="M94.67,24.63h8m-4,0V48.78m-4,0h8" style="vector-effect: none; stroke-width: 2px; stroke: rgb(68, 68, 68); stroke-opacity: 1;"/></g><g class="errorbar"><path class="yerror" d="M174.67,20.56h8m-4,0V37.79m-4,0h8" style="vector-effect: none; stroke-width: 2px; stroke: rgb(68, 68, 68); stroke-opacity: 1;"/></g><g class="errorbar"><path class="yerror" d="M254.67000000000002,24.33h8m-4,0V45.05m-4,0h8" style="vector-effect: none; stroke-width: 2px; stroke: rgb(68, 68, 68); stroke-opacity: 1;"/></g><g class="errorbar"><path class="yerror" d="M334.67,22.1h8m-4,0V41.63m-4,0h8" style="vector-effect: none; stroke-width: 2px; stroke: rgb(68, 68, 68); stroke-opacity: 1;"/></g><g class="errorbar"><path class="yerror" d="M414.67,17.18h8m-4,0V33.04m-4,0h8" style="vector-effect: none; stroke-width: 2px; stroke: rgb(68, 68, 68); stroke-opacity: 1;"/></g><g class="errorbar"><path class="yerror" d="M494.67,13.15h8m-4,0V33.07m-4,0h8" style="vector-effect: none; stroke-width: 2px; stroke: rgb(68, 68, 68); stroke-opacity: 1;"/></g><g class="errorbar"><path class="yerror" d="M574.67,23.9h8m-4,0V39.33m-4,0h8" style="vector-effect: none; stroke-width: 2px; stroke: rgb(68, 68, 68); stroke-opacity: 1;"/></g></g><g class="trace bars" style="opacity: 1;"><g class="points"><g class="point"><path d="M29.33,220V42.91H50.67V220Z" style="vector-effect: none; opacity: 1; stroke-width: 0px; fill: rgb(255, 127, 14); fill-opacity: 1;"/></g><g class="point"><path d="M109.33,220V38.4H130.67V220Z" style="vector-effect: none; opacity: 1; stroke-width: 0px; fill: rgb(255, 127, 14); fill-opacity: 1;"/></g><g class="point"><path d="M189.33,220V36.86H210.67V220Z" style="vector-effect: none; opacity: 1; stroke-width: 0px; fill: rgb(255, 127, 14); fill-opacity: 1;"/></g><g class="point"><path d="M269.33,220V30.43H290.67V220Z" style="vector-effect: none; opacity: 1; stroke-width: 0px; fill: rgb(255, 127, 14); fill-opacity: 1;"/></g><g class="point"><path d="M349.33,220V28.42H370.67V220Z" style="vector-effect: none; opacity: 1; stroke-width: 0px; fill: rgb(255, 127, 14); fill-opacity: 1;"/></g><g class="point"><path d="M429.33,220V33.36H450.67V220Z" style="vector-effect: none; opacity: 1; stroke-width: 0px; fill: rgb(255, 127, 14); fill-opacity: 1;"/></g><g class="point"><path d="M509.33,220V29.1H530.67V220Z" style="vector-effect: none; opacity: 1; stroke-width: 0px; fill: rgb(255, 127, 14); fill-opacity: 1;"/></g><g class="point"><path d="M589.33,220V20.46H610.67V220Z" style="vector-effect: none; opacity: 1; stroke-width: 0px; fill: rgb(255, 127, 14); fill-opacity: 1;"/></g></g><g class="errorbar"><path class="yerror" d="M36,26.95h8m-4,0V58.87m-4,0h8" style="vector-effect: none; stroke-width: 2px; stroke: rgb(68, 68, 68); stroke-opacity: 1;"/></g><g class="errorbar"><path class="yerror" d="M116,28.47h8m-4,0V48.33m-4,0h8" style="vector-effect: none; stroke-width: 2px; stroke: rgb(68, 68, 68); stroke-opacity: 1;"/></g><g class="errorbar"><path class="yerror" d="M196,24.06h8m-4,0V49.66m-4,0h8" style="vector-effect: none; stroke-width: 2px; stroke: rgb(68, 68, 68); stroke-opacity: 1;"/></g><g class="errorbar"><path class="yerror" d="M276,22.47h8m-4,0V38.38m-4,0h8" style="vector-effect: none; stroke-width: 2px; stroke: rgb(68, 68, 68); stroke-opacity: 1;"/></g><g class="errorbar"><path class="yerror" d="M356,20.53h8m-4,0V36.31m-4,0h8" style="vector-effect: none; stroke-width: 2px; stroke: rgb(68, 68, 68); stroke-opacity: 1;"/></g><g class="errorbar"><path class="yerror" d="M436,21.37h8m-4,0V45.35m-4,0h8" style="vector-effect: none; stroke-width: 2px; stroke: rgb(68, 68, 68); stroke-opacity: 1;"/></g><g class="errorbar"><path class="yerror" d="M516,22.24h8m-4,0V35.95m-4,0h8" style="vector-effect: none; stroke-width: 2px; stroke: rgb(68, 68, 68); stroke-opacity: 1;"/></g><g class="errorbar"><path class="yerror" d="M596,11h8m-4,0V29.92m-4,0h8" style="vector-effect: none; stroke-width: 2px; stroke: rgb(68, 68, 68); stroke-opacity: 1;"/></g></g><g class="trace bars" style="opacity: 1;"><g class="points"><g class="point"><path d="M50.67,220V42.08H72V220Z" style="vector-effect: none; opacity: 1; stroke-width: 0px; fill: rgb(44, 160, 44); fill-opacity: 1;"/></g><g class="point"><path d="M130.67,220V37.55H152V220Z" style="vector-effect: none; opacity: 1; stroke-width: 0px; fill: rgb(44, 160, 44); fill-opacity: 1;"/></g><g class="point"><path d="M210.67,220V33.02H232V220Z" style="vector-effect: none; opacity: 1; stroke-width: 0px; fill: rgb(44, 160, 44); fill-opacity: 1;"/></g><g class="point"><path d="M290.67,220V32.56H312V220Z" style="vector-effect: none; opacity: 1; stroke-width: 0px; fill: rgb(44, 160, 44); fill-opacity: 1;"/></g><g class="point"><path d="M370.67,220V30.14H392V220Z" style="vector-effect: none; opacity: 1; stroke-width: 0px; fill: rgb(44, 160, 44); fill-opacity: 1;"/></g><g class="point"><path d="M450.67,220V29.24H472V220Z" style="vector-effect: none; opacity: 1; stroke-width: 0px; fill: rgb(44, 160, 44); fill-opacity: 1;"/></g><g class="point"><path d="M530.67,220V26.1H552V220Z" style="vector-effect: none; opacity: 1; stroke-width: 0px; fill: rgb(44, 160, 44); fill-opacity: 1;"/></g><g class="point"><path d="M610.67,220V26.04H632V220Z" style="vector-effect: none; opacity: 1; stroke-width: 0px; fill: rgb(44, 160, 44); fill-opacity: 1;"/></g></g><g class="errorbar"><path class="yerror" d="M57.33,40.89h8m-4,0V43.26m-4,0h8" style="vector-effect: none; stroke-width: 2px; stroke: rgb(68, 68, 68); stroke-opacity: 1;"/></g><g class="errorbar"><path class="yerror" d="M137.33,36.35h8m-4,0V38.75m-4,0h8" style="vector-effect: none; stroke-width: 2px; stroke: rgb(68, 68, 68); stroke-opacity: 1;"/></g><g class="errorbar"><path class="yerror" d="M217.33,27.59h8m-4,0V38.45m-4,0h8" style="vector-effect: none; stroke-width: 2px; stroke: rgb(68, 68, 68); stroke-opacity: 1;"/></g><g class="errorbar"><path class="yerror" d="M297.33,29.54h8m-4,0V35.57m-4,0h8" style="vector-effect: none; stroke-width: 2px; stroke: rgb(68, 68, 68); stroke-opacity: 1;"/></g><g class="errorbar"><path class="yerror" d="M377.33,27.71h8m-4,0V32.57m-4,0h8" style="vector-effect: none; stroke-width: 2px; stroke: rgb(68, 68, 68); stroke-opacity: 1;"/></g><g class="errorbar"><path class="yerror" d="M457.33,23.4h8m-4,0V35.07m-4,0h8" style="vector-effect: none; stroke-width: 2px; stroke: rgb(68, 68, 68); stroke-opacity: 1;"/></g><g class="errorbar"><path class="yerror" d="M537.33,21.87h8m-4,0V30.34m-4,0h8" style="vector-effect: none; stroke-width: 2px; stroke: rgb(68, 68, 68); stroke-opacity: 1;"/></g><g class="errorbar"><path class="yerror" d="M617.33,18.15h8m-4,0V33.92m-4,0h8" style="vector-effect: none; stroke-width: 2px; stroke: rgb(68, 68, 68); stroke-opacity: 1;"/></g></g></g></g><g class="overplot"/><path class="xlines-above crisp" d="M0,0" style="fill: none;"/><path class="ylines-above crisp" d="M0,0" style="fill: none;"/><g class="overlines-above"/><g class="xaxislayer-above"><g class="xtick"><text text-anchor="start" x="0" y="333" transform="translate(120,0) rotate(30,0,327)" style="font-family: 'Open Sans', verdana, arial, sans-serif; font-size: 12px; fill: rgb(68, 68, 68); fill-opacity: 1; white-space: pre; opacity: 1;">Median</text></g><g class="xtick"><text text-anchor="start" x="0" y="333" transform="translate(200,0) rotate(30,0,327)" style="font-family: 'Open Sans', verdana, arial, sans-serif; font-size: 12px; fill: rgb(68, 68, 68); fill-opacity: 1; white-space: pre; opacity: 1;">Dynamic clip</text></g><g class="xtick"><text text-anchor="start" x="0" y="333" transform="translate(280,0) rotate(30,0,327)" style="font-family: 'Open Sans', verdana, arial, sans-serif; font-size: 12px; fill: rgb(68, 68, 68); fill-opacity: 1; white-space: pre; opacity: 1;">Punish updates</text></g><g class="xtick"><text text-anchor="start" x="0" y="333" transform="translate(360,0) rotate(30,0,327)" style="font-family: 'Open Sans', verdana, arial, sans-serif; font-size: 12px; fill: rgb(68, 68, 68); fill-opacity: 1; white-space: pre; opacity: 1;">Fixed clip</text></g><g class="xtick"><text text-anchor="start" x="0" y="333" transform="translate(440,0) rotate(30,0,327)" style="font-family: 'Open Sans', verdana, arial, sans-serif; font-size: 12px; fill: rgb(68, 68, 68); fill-opacity: 1; white-space: pre; opacity: 1;">Performance weighted</text></g><g class="xtick"><text text-anchor="start" x="0" y="333" transform="translate(520,0) rotate(30,0,327)" style="font-family: 'Open Sans', verdana, arial, sans-serif; font-size: 12px; fill: rgb(68, 68, 68); fill-opacity: 1; white-space: pre; opacity: 1;">Simple average</text></g><g class="xtick"><text text-anchor="start" x="0" y="333" transform="translate(600,0) rotate(30,0,327)" style="font-family: 'Open Sans', verdana, arial, sans-serif; font-size: 12px; fill: rgb(68, 68, 68); fill-opacity: 1; white-space: pre; opacity: 1;">Receny weighted</text></g><g class="xtick"><text text-anchor="start" x="0" y="333" transform="translate(680,0) rotate(30,0,327)" style="font-family: 'Open Sans', verdana, arial, sans-serif; font-size: 12px; fill: rgb(68, 68, 68); fill-opacity: 1; white-space: pre; opacity: 1;">No FL</text></g></g><g class="yaxislayer-above"><g class="ytick"><text text-anchor="end" x="79" y="4.199999999999999" transform="translate(0,320)" style="font-family: 'Open Sans', verdana, arial, sans-serif; font-size: 12px; fill: rgb(68, 68, 68); fill-opacity: 1; white-space: pre; opacity: 1;">0</text></g><g class="ytick"><text text-anchor="end" x="79" y="4.199999999999999" style="font-family: 'Open Sans', verdana, arial, sans-serif; font-size: 12px; fill: rgb(68, 68, 68); fill-opacity: 1; white-space: pre; opacity: 1;" transform="translate(0,271.01)">0.2</text></g><g class="ytick"><text text-anchor="end" x="79" y="4.199999999999999" style="font-family: 'Open Sans', verdana, arial, sans-serif; font-size: 12px; fill: rgb(68, 68, 68); fill-opacity: 1; white-space: pre; opacity: 1;" transform="translate(0,222.03)">0.4</text></g><g class="ytick"><text text-anchor="end" x="79" y="4.199999999999999" style="font-family: 'Open Sans', verdana, arial, sans-serif; font-size: 12px; fill: rgb(68, 68, 68); fill-opacity: 1; white-space: pre; opacity: 1;" transform="translate(0,173.04000000000002)">0.6</text></g><g class="ytick"><text text-anchor="end" x="79" y="4.199999999999999" style="font-family: 'Open Sans', verdana, arial, sans-serif; font-size: 12px; fill: rgb(68, 68, 68); fill-opacity: 1; white-space: pre; opacity: 1;" transform="translate(0,124.05)">0.8</text></g></g><g class="overaxes-above"/></g></g><g class="polarlayer"/><g class="smithlayer"/><g class="ternarylayer"/><g class="geolayer"/><g class="funnelarealayer"/><g class="pielayer"/><g class="iciclelayer"/><g class="treemaplayer"/><g class="sunburstlayer"/><g class="glimages"/><defs id="topdefs-ef6249"><g class="clips"/><clipPath id="legendef6249"><rect width="270" height="29" x="0" y="0"/></clipPath></defs><g class="layer-above"><g class="imagelayer"/><g class="shapelayer"/></g><g class="infolayer"><g class="legend" pointer-events="all" transform="translate(80,56.00000000000001)"><rect class="bg" shape-rendering="crispEdges" width="270" height="29" x="0" y="0" style="stroke: rgb(68, 68, 68); stroke-opacity: 1; fill: rgb(255, 255, 255); fill-opacity: 1; stroke-width: 0px;"/><g class="scrollbox" transform="" clip-path="url(#legendef6249)"><g class="groups"><g class="traces" transform="translate(0,14.5)" style="opacity: 1;"><text class="legendtext" text-anchor="start" x="40" y="4.680000000000001" style="font-family: 'Open Sans', verdana, arial, sans-serif; font-size: 12px; fill: rgb(68, 68, 68); fill-opacity: 1; white-space: pre;">Node 0</text><g class="layers" style="opacity: 1;"><g class="legendfill"/><g class="legendlines"/><g class="legendsymbols"><g class="legendpoints"><path class="legendundefined" d="M6,6H-6V-6H6Z" transform="translate(20,0)" style="stroke-width: 0px; fill: rgb(31, 119, 180); fill-opacity: 1;"/></g></g></g><rect class="legendtoggle" x="0" y="-9.5" width="85.28125" height="19" style="fill: rgb(0, 0, 0); fill-opacity: 0;"/></g><g class="traces" transform="translate(87.78125,14.5)" style="opacity: 1;"><text class="legendtext" text-anchor="start" x="40" y="4.680000000000001" style="font-family: 'Open Sans', verdana, arial, sans-serif; font-size: 12px; fill: rgb(68, 68, 68); fill-opacity: 1; white-space: pre;">Node 1</text><g class="layers" style="opacity: 1;"><g class="legendfill"/><g class="legendlines"/><g class="legendsymbols"><g class="legendpoints"><path class="legendundefined" d="M6,6H-6V-6H6Z" transform="translate(20,0)" style="stroke-width: 0px; fill: rgb(255, 127, 14); fill-opacity: 1;"/></g></g></g><rect class="legendtoggle" x="0" y="-9.5" width="85.28125" height="19" style="fill: rgb(0, 0, 0); fill-opacity: 0;"/></g><g class="traces" transform="translate(175.5625,14.5)" style="opacity: 1;"><text class="legendtext" text-anchor="start" x="40" y="4.680000000000001" style="font-family: 'Open Sans', verdana, arial, sans-serif; font-size: 12px; fill: rgb(68, 68, 68); fill-opacity: 1; white-space: pre;">Average</text><g class="layers" style="opacity: 1;"><g class="legendfill"/><g class="legendlines"/><g class="legendsymbols"><g class="legendpoints"><path class="legendundefined" d="M6,6H-6V-6H6Z" transform="translate(20,0)" style="stroke-width: 0px; fill: rgb(44, 160, 44); fill-opacity: 1;"/></g></g></g><rect class="legendtoggle" x="0" y="-9.5" width="91.78125" height="19" style="fill: rgb(0, 0, 0); fill-opacity: 0;"/></g></g></g><rect class="scrollbar" rx="20" ry="3" width="0" height="0" x="0" y="0" style="fill: rgb(128, 139, 164); fill-opacity: 1;"/></g><g class="g-gtitle"><text class="gtitle" x="400" y="50" text-anchor="middle" dy="0em" style="font-family: 'Open Sans', verdana, arial, sans-serif; font-size: 17px; fill: rgb(68, 68, 68); opacity: 1; font-weight: normal; white-space: pre;">Accuracy score by FL method for 2 nodes</text></g><g class="g-xtitle" transform="translate(0,25)"><text class="xtitle" x="400" y="372" text-anchor="middle" style="font-family: 'Open Sans', verdana, arial, sans-serif; font-size: 14px; fill: rgb(68, 68, 68); opacity: 1; font-weight: normal; white-space: pre;">Aggregation methods</text></g><g class="g-ytitle"><text class="ytitle" transform="rotate(-90,42,210)" x="42" y="210" text-anchor="middle" style="font-family: 'Open Sans', verdana, arial, sans-serif; font-size: 14px; fill: rgb(68, 68, 68); opacity: 1; font-weight: normal; white-space: pre;">Accuracy score</text></g></g></svg>