<svg class="main-svg" xmlns="http://www.w3.org/2000/svg" xmlns:xlink="http://www.w3.org/1999/xlink" width="800" height="400" style="" viewBox="0 0 800 400"><rect x="0" y="0" width="800" height="400" style="fill: rgb(255, 255, 255); fill-opacity: 1;"/><defs id="defs-a414e7"><g class="clips"><clipPath id="clipa414e7xyplot" class="plotclip"><rect width="640" height="220"/></clipPath><clipPath class="axesclip" id="clipa414e7x"><rect x="80" y="0" width="640" height="400"/></clipPath><clipPath class="axesclip" id="clipa414e7y"><rect x="0" y="100" width="800" height="220"/></clipPath><clipPath class="axesclip" id="clipa414e7xy"><rect x="80" y="100" width="640" height="220"/></clipPath></g><g class="gradients"/><g class="patterns"/></defs><g class="bglayer"/><g class="layer-below"><g class="imagelayer"/><g class="shapelayer"/></g><g class="cartesianlayer"><g class="subplot xy"><g class="layer-subplot"><g class="shapelayer"/><g class="imagelayer"/></g><g class="minor-gridlayer"><g class="x"/><g class="y"/></g><g class="gridlayer"><g class="x"/><g class="y"><path class="ygrid crisp" transform="translate(0,268.81)" d="M80,0h640" style="stroke: rgb(238, 238, 238); stroke-opacity: 1; stroke-width: 1px;"/><path class="ygrid crisp" transform="translate(0,217.63)" d="M80,0h640" style="stroke: rgb(238, 238, 238); stroke-opacity: 1; stroke-width: 1px;"/><path class="ygrid crisp" transform="translate(0,166.44)" d="M80,0h640" style="stroke: rgb(238, 238, 238); stroke-opacity: 1; stroke-width: 1px;"/><path class="ygrid crisp" transform="translate(0,115.25)" d="M80,0h640" style="stroke: rgb(238, 238, 238); stroke-opacity: 1; stroke-width: 1px;"/></g></g><g class="zerolinelayer"><path class="yzl zl crisp" transform="translate(0,320)" d="M80,0h640" style="stroke: rgb(68, 68, 68); stroke-opacity: 1; stroke-width: 1px;"/></g><path class="xlines-below"/><path class="ylines-below"/><g class="overlines-below"/><g class="xaxislayer-below"/><g class="yaxislayer-below"/><g class="overaxes-below"/><g class="plot" transform="translate(80,100)" clip-path="url(#clipa414e7xyplot)"><g class="barlayer mlayer"><g class="trace bars" style="opacity: 1;"><g class="points"><g class="point"><path d="M9.14,220V28.27H23.77V220Z" style="vector-effect: none; opacity: 1; stroke-width: 0px; fill: rgb(31, 119, 180); fill-opacity: 1;"/></g><g class="point"><path d="M100.57,220V23.23H115.2V220Z" style="vector-effect: none; opacity: 1; stroke-width: 0px; fill: rgb(31, 119, 180); fill-opacity: 1;"/></g><g class="point"><path d="M192,220V20.08H206.63V220Z" style="vector-effect: none; opacity: 1; stroke-width: 0px; fill: rgb(31, 119, 180); fill-opacity: 1;"/></g><g class="point"><path d="M283.43,220V34.67H298.06V220Z" style="vector-effect: none; opacity: 1; stroke-width: 0px; fill: rgb(31, 119, 180); fill-opacity: 1;"/></g><g class="point"><path d="M374.86,220V34.23H389.49V220Z" style="vector-effect: none; opacity: 1; stroke-width: 0px; fill: rgb(31, 119, 180); fill-opacity: 1;"/></g><g class="point"><path d="M466.29,220V20.19H480.91V220Z" style="vector-effect: none; opacity: 1; stroke-width: 0px; fill: rgb(31, 119, 180); fill-opacity: 1;"/></g><g class="point"><path d="M557.71,220V21.54H572.34V220Z" style="vector-effect: none; opacity: 1; stroke-width: 0px; fill: rgb(31, 119, 180); fill-opacity: 1;"/></g></g><g class="errorbar"><path class="yerror" d="M12.46,13.36h8m-4,0V43.17m-4,0h8" style="vector-effect: none; stroke-width: 2px; stroke: rgb(68, 68, 68); stroke-opacity: 1;"/></g><g class="errorbar"><path class="yerror" d="M103.89,13.16h8m-4,0V33.3m-4,0h8" style="vector-effect: none; stroke-width: 2px; stroke: rgb(68, 68, 68); stroke-opacity: 1;"/></g><g class="errorbar"><path class="yerror" d="M195.31,12.87h8m-4,0V27.29m-4,0h8" style="vector-effect: none; stroke-width: 2px; stroke: rgb(68, 68, 68); stroke-opacity: 1;"/></g><g class="errorbar"><path class="yerror" d="M286.74,18.37h8m-4,0V50.97m-4,0h8" style="vector-effect: none; stroke-width: 2px; stroke: rgb(68, 68, 68); stroke-opacity: 1;"/></g><g class="errorbar"><path class="yerror" d="M378.17,17.79h8m-4,0V50.66m-4,0h8" style="vector-effect: none; stroke-width: 2px; stroke: rgb(68, 68, 68); stroke-opacity: 1;"/></g><g class="errorbar"><path class="yerror" d="M469.6,12.61h8m-4,0V27.77m-4,0h8" style="vector-effect: none; stroke-width: 2px; stroke: rgb(68, 68, 68); stroke-opacity: 1;"/></g><g class="errorbar"><path class="yerror" d="M561.03,11.57h8m-4,0V31.5m-4,0h8" style="vector-effect: none; stroke-width: 2px; stroke: rgb(68, 68, 68); stroke-opacity: 1;"/></g></g><g class="trace bars" style="opacity: 1;"><g class="points"><g class="point"><path d="M23.77,220V36.48H38.4V220Z" style="vector-effect: none; opacity: 1; stroke-width: 0px; fill: rgb(255, 127, 14); fill-opacity: 1;"/></g><g class="point"><path d="M115.2,220V34.11H129.83V220Z" style="vector-effect: none; opacity: 1; stroke-width: 0px; fill: rgb(255, 127, 14); fill-opacity: 1;"/></g><g class="point"><path d="M206.63,220V33.82H221.26V220Z" style="vector-effect: none; opacity: 1; stroke-width: 0px; fill: rgb(255, 127, 14); fill-opacity: 1;"/></g><g class="point"><path d="M298.06,220V18.71H312.69V220Z" style="vector-effect: none; opacity: 1; stroke-width: 0px; fill: rgb(255, 127, 14); fill-opacity: 1;"/></g><g class="point"><path d="M389.49,220V29.45H404.11V220Z" style="vector-effect: none; opacity: 1; stroke-width: 0px; fill: rgb(255, 127, 14); fill-opacity: 1;"/></g><g class="point"><path d="M480.91,220V22.95H495.54V220Z" style="vector-effect: none; opacity: 1; stroke-width: 0px; fill: rgb(255, 127, 14); fill-opacity: 1;"/></g><g class="point"><path d="M572.34,220V19.62H586.97V220Z" style="vector-effect: none; opacity: 1; stroke-width: 0px; fill: rgb(255, 127, 14); fill-opacity: 1;"/></g></g><g class="errorbar"><path class="yerror" d="M27.09,21.09h8m-4,0V51.86m-4,0h8" style="vector-effect: none; stroke-width: 2px; stroke: rgb(68, 68, 68); stroke-opacity: 1;"/></g><g class="errorbar"><path class="yerror" d="M118.51,18.5h8m-4,0V49.71m-4,0h8" style="vector-effect: none; stroke-width: 2px; stroke: rgb(68, 68, 68); stroke-opacity: 1;"/></g><g class="errorbar"><path class="yerror" d="M209.94,16.63h8m-4,0V51.01m-4,0h8" style="vector-effect: none; stroke-width: 2px; stroke: rgb(68, 68, 68); stroke-opacity: 1;"/></g><g class="errorbar"><path class="yerror" d="M301.37,11h8m-4,0V26.42m-4,0h8" style="vector-effect: none; stroke-width: 2px; stroke: rgb(68, 68, 68); stroke-opacity: 1;"/></g><g class="errorbar"><path class="yerror" d="M392.8,14.84h8m-4,0V44.05m-4,0h8" style="vector-effect: none; stroke-width: 2px; stroke: rgb(68, 68, 68); stroke-opacity: 1;"/></g><g class="errorbar"><path class="yerror" d="M484.23,14.33h8m-4,0V31.57m-4,0h8" style="vector-effect: none; stroke-width: 2px; stroke: rgb(68, 68, 68); stroke-opacity: 1;"/></g><g class="errorbar"><path class="yerror" d="M575.66,12.26h8m-4,0V26.98m-4,0h8" style="vector-effect: none; stroke-width: 2px; stroke: rgb(68, 68, 68); stroke-opacity: 1;"/></g></g><g class="trace bars" style="opacity: 1;"><g class="points"><g class="point"><path d="M38.4,220V22.95H53.03V220Z" style="vector-effect: none; opacity: 1; stroke-width: 0px; fill: rgb(44, 160, 44); fill-opacity: 1;"/></g><g class="point"><path d="M129.83,220V29.33H144.46V220Z" style="vector-effect: none; opacity: 1; stroke-width: 0px; fill: rgb(44, 160, 44); fill-opacity: 1;"/></g><g class="point"><path d="M221.26,220V28.26H235.89V220Z" style="vector-effect: none; opacity: 1; stroke-width: 0px; fill: rgb(44, 160, 44); fill-opacity: 1;"/></g><g class="point"><path d="M312.69,220V32.05H327.31V220Z" style="vector-effect: none; opacity: 1; stroke-width: 0px; fill: rgb(44, 160, 44); fill-opacity: 1;"/></g><g class="point"><path d="M404.11,220V20.02H418.74V220Z" style="vector-effect: none; opacity: 1; stroke-width: 0px; fill: rgb(44, 160, 44); fill-opacity: 1;"/></g><g class="point"><path d="M495.54,220V32.86H510.17V220Z" style="vector-effect: none; opacity: 1; stroke-width: 0px; fill: rgb(44, 160, 44); fill-opacity: 1;"/></g><g class="point"><path d="M586.97,220V22.16H601.6V220Z" style="vector-effect: none; opacity: 1; stroke-width: 0px; fill: rgb(44, 160, 44); fill-opacity: 1;"/></g></g><g class="errorbar"><path class="yerror" d="M41.71,12.85h8m-4,0V33.06m-4,0h8" style="vector-effect: none; stroke-width: 2px; stroke: rgb(68, 68, 68); stroke-opacity: 1;"/></g><g class="errorbar"><path class="yerror" d="M133.14,14.74h8m-4,0V43.93m-4,0h8" style="vector-effect: none; stroke-width: 2px; stroke: rgb(68, 68, 68); stroke-opacity: 1;"/></g><g class="errorbar"><path class="yerror" d="M224.57,12.99h8m-4,0V43.52m-4,0h8" style="vector-effect: none; stroke-width: 2px; stroke: rgb(68, 68, 68); stroke-opacity: 1;"/></g><g class="errorbar"><path class="yerror" d="M316,16.05h8m-4,0V48.04m-4,0h8" style="vector-effect: none; stroke-width: 2px; stroke: rgb(68, 68, 68); stroke-opacity: 1;"/></g><g class="errorbar"><path class="yerror" d="M407.43,12.83h8m-4,0V27.21m-4,0h8" style="vector-effect: none; stroke-width: 2px; stroke: rgb(68, 68, 68); stroke-opacity: 1;"/></g><g class="errorbar"><path class="yerror" d="M498.86,18.22h8m-4,0V47.51m-4,0h8" style="vector-effect: none; stroke-width: 2px; stroke: rgb(68, 68, 68); stroke-opacity: 1;"/></g><g class="errorbar"><path class="yerror" d="M590.29,13.49h8m-4,0V30.83m-4,0h8" style="vector-effect: none; stroke-width: 2px; stroke: rgb(68, 68, 68); stroke-opacity: 1;"/></g></g><g class="trace bars" style="opacity: 1;"><g class="points"><g class="point"><path d="M53.03,220V32.94H67.66V220Z" style="vector-effect: none; opacity: 1; stroke-width: 0px; fill: rgb(214, 39, 40); fill-opacity: 1;"/></g><g class="point"><path d="M144.46,220V31.46H159.09V220Z" style="vector-effect: none; opacity: 1; stroke-width: 0px; fill: rgb(214, 39, 40); fill-opacity: 1;"/></g><g class="point"><path d="M235.89,220V31.55H250.51V220Z" style="vector-effect: none; opacity: 1; stroke-width: 0px; fill: rgb(214, 39, 40); fill-opacity: 1;"/></g><g class="point"><path d="M327.31,220V27.6H341.94V220Z" style="vector-effect: none; opacity: 1; stroke-width: 0px; fill: rgb(214, 39, 40); fill-opacity: 1;"/></g><g class="point"><path d="M418.74,220V28.85H433.37V220Z" style="vector-effect: none; opacity: 1; stroke-width: 0px; fill: rgb(214, 39, 40); fill-opacity: 1;"/></g><g class="point"><path d="M510.17,220V33.56H524.8V220Z" style="vector-effect: none; opacity: 1; stroke-width: 0px; fill: rgb(214, 39, 40); fill-opacity: 1;"/></g><g class="point"><path d="M601.6,220V21.17H616.23V220Z" style="vector-effect: none; opacity: 1; stroke-width: 0px; fill: rgb(214, 39, 40); fill-opacity: 1;"/></g></g><g class="errorbar"><path class="yerror" d="M56.34,16.98h8m-4,0V48.9m-4,0h8" style="vector-effect: none; stroke-width: 2px; stroke: rgb(68, 68, 68); stroke-opacity: 1;"/></g><g class="errorbar"><path class="yerror" d="M147.77,16.46h8m-4,0V46.45m-4,0h8" style="vector-effect: none; stroke-width: 2px; stroke: rgb(68, 68, 68); stroke-opacity: 1;"/></g><g class="errorbar"><path class="yerror" d="M239.2,15.52h8m-4,0V47.58m-4,0h8" style="vector-effect: none; stroke-width: 2px; stroke: rgb(68, 68, 68); stroke-opacity: 1;"/></g><g class="errorbar"><path class="yerror" d="M330.63,13.3h8m-4,0V41.89m-4,0h8" style="vector-effect: none; stroke-width: 2px; stroke: rgb(68, 68, 68); stroke-opacity: 1;"/></g><g class="errorbar"><path class="yerror" d="M422.06,14.05h8m-4,0V43.65m-4,0h8" style="vector-effect: none; stroke-width: 2px; stroke: rgb(68, 68, 68); stroke-opacity: 1;"/></g><g class="errorbar"><path class="yerror" d="M513.49,20.13h8m-4,0V46.99m-4,0h8" style="vector-effect: none; stroke-width: 2px; stroke: rgb(68, 68, 68); stroke-opacity: 1;"/></g><g class="errorbar"><path class="yerror" d="M604.91,13.41h8m-4,0V28.93m-4,0h8" style="vector-effect: none; stroke-width: 2px; stroke: rgb(68, 68, 68); stroke-opacity: 1;"/></g></g><g class="trace bars" style="opacity: 1;"><g class="points"><g class="point"><path d="M67.66,220V30.16H82.29V220Z" style="vector-effect: none; opacity: 1; stroke-width: 0px; fill: rgb(148, 103, 189); fill-opacity: 1;"/></g><g class="point"><path d="M159.09,220V29.53H173.71V220Z" style="vector-effect: none; opacity: 1; stroke-width: 0px; fill: rgb(148, 103, 189); fill-opacity: 1;"/></g><g class="point"><path d="M250.51,220V28.43H265.14V220Z" style="vector-effect: none; opacity: 1; stroke-width: 0px; fill: rgb(148, 103, 189); fill-opacity: 1;"/></g><g class="point"><path d="M341.94,220V28.26H356.57V220Z" style="vector-effect: none; opacity: 1; stroke-width: 0px; fill: rgb(148, 103, 189); fill-opacity: 1;"/></g><g class="point"><path d="M433.37,220V28.14H448V220Z" style="vector-effect: none; opacity: 1; stroke-width: 0px; fill: rgb(148, 103, 189); fill-opacity: 1;"/></g><g class="point"><path d="M524.8,220V26.21H539.43V220Z" style="vector-effect: none; opacity: 1; stroke-width: 0px; fill: rgb(148, 103, 189); fill-opacity: 1;"/></g><g class="point"><path d="M616.23,220V21.12H630.86V220Z" style="vector-effect: none; opacity: 1; stroke-width: 0px; fill: rgb(148, 103, 189); fill-opacity: 1;"/></g></g><g class="errorbar"><path class="yerror" d="M70.97,24.29h8m-4,0V36.02m-4,0h8" style="vector-effect: none; stroke-width: 2px; stroke: rgb(68, 68, 68); stroke-opacity: 1;"/></g><g class="errorbar"><path class="yerror" d="M162.4,24.9h8m-4,0V34.17m-4,0h8" style="vector-effect: none; stroke-width: 2px; stroke: rgb(68, 68, 68); stroke-opacity: 1;"/></g><g class="errorbar"><path class="yerror" d="M253.82999999999998,22.41h8m-4,0V34.44m-4,0h8" style="vector-effect: none; stroke-width: 2px; stroke: rgb(68, 68, 68); stroke-opacity: 1;"/></g><g class="errorbar"><path class="yerror" d="M345.26,21.25h8m-4,0V35.26m-4,0h8" style="vector-effect: none; stroke-width: 2px; stroke: rgb(68, 68, 68); stroke-opacity: 1;"/></g><g class="errorbar"><path class="yerror" d="M436.69,22.22h8m-4,0V34.06m-4,0h8" style="vector-effect: none; stroke-width: 2px; stroke: rgb(68, 68, 68); stroke-opacity: 1;"/></g><g class="errorbar"><path class="yerror" d="M528.11,20.71h8m-4,0V31.71m-4,0h8" style="vector-effect: none; stroke-width: 2px; stroke: rgb(68, 68, 68); stroke-opacity: 1;"/></g><g class="errorbar"><path class="yerror" d="M619.54,20.04h8m-4,0V22.2m-4,0h8" style="vector-effect: none; stroke-width: 2px; stroke: rgb(68, 68, 68); stroke-opacity: 1;"/></g></g></g></g><g class="overplot"/><path class="xlines-above crisp" d="M0,0" style="fill: none;"/><path class="ylines-above crisp" d="M0,0" style="fill: none;"/><g class="overlines-above"/><g class="xaxislayer-above"><g class="xtick"><text text-anchor="start" x="0" y="333" transform="translate(125.71000000000001,0) rotate(30,0,327)" style="font-family: 'Open Sans', verdana, arial, sans-serif; font-size: 12px; fill: rgb(68, 68, 68); fill-opacity: 1; white-space: pre; opacity: 1;">Direct weighted</text></g><g class="xtick"><text text-anchor="start" x="0" y="333" transform="translate(217.14,0) rotate(30,0,327)" style="font-family: 'Open Sans', verdana, arial, sans-serif; font-size: 12px; fill: rgb(68, 68, 68); fill-opacity: 1; white-space: pre; opacity: 1;">Direct sampled</text></g><g class="xtick"><text text-anchor="start" x="0" y="333" transform="translate(308.57,0) rotate(30,0,327)" style="font-family: 'Open Sans', verdana, arial, sans-serif; font-size: 12px; fill: rgb(68, 68, 68); fill-opacity: 1; white-space: pre; opacity: 1;">Gradual weighted</text></g><g class="xtick"><text text-anchor="start" x="0" y="333" transform="translate(400,0) rotate(30,0,327)" style="font-family: 'Open Sans', verdana, arial, sans-serif; font-size: 12px; fill: rgb(68, 68, 68); fill-opacity: 1; white-space: pre; opacity: 1;">Gradual regular</text></g><g class="xtick"><text text-anchor="start" x="0" y="333" transform="translate(491.43,0) rotate(30,0,327)" style="font-family: 'Open Sans', verdana, arial, sans-serif; font-size: 12px; fill: rgb(68, 68, 68); fill-opacity: 1; white-space: pre; opacity: 1;">Gradual sampled</text></g><g class="xtick"><text text-anchor="start" x="0" y="333" transform="translate(582.86,0) rotate(30,0,327)" style="font-family: 'Open Sans', verdana, arial, sans-serif; font-size: 12px; fill: rgb(68, 68, 68); fill-opacity: 1; white-space: pre; opacity: 1;">Direct regular</text></g><g class="xtick"><text text-anchor="start" x="0" y="333" transform="translate(674.29,0) rotate(30,0,327)" style="font-family: 'Open Sans', verdana, arial, sans-serif; font-size: 12px; fill: rgb(68, 68, 68); fill-opacity: 1; white-space: pre; opacity: 1;">No MetaL</text></g></g><g class="yaxislayer-above"><g class="ytick"><text text-anchor="end" x="79" y="4.199999999999999" transform="translate(0,320)" style="font-family: 'Open Sans', verdana, arial, sans-serif; font-size: 12px; fill: rgb(68, 68, 68); fill-opacity: 1; white-space: pre; opacity: 1;">0</text></g><g class="ytick"><text text-anchor="end" x="79" y="4.199999999999999" style="font-family: 'Open Sans', verdana, arial, sans-serif; font-size: 12px; fill: rgb(68, 68, 68); fill-opacity: 1; white-space: pre; opacity: 1;" transform="translate(0,268.81)">0.2</text></g><g class="ytick"><text text-anchor="end" x="79" y="4.199999999999999" style="font-family: 'Open Sans', verdana, arial, sans-serif; font-size: 12px; fill: rgb(68, 68, 68); fill-opacity: 1; white-space: pre; opacity: 1;" transform="translate(0,217.63)">0.4</text></g><g class="ytick"><text text-anchor="end" x="79" y="4.199999999999999" style="font-family: 'Open Sans', verdana, arial, sans-serif; font-size: 12px; fill: rgb(68, 68, 68); fill-opacity: 1; white-space: pre; opacity: 1;" transform="translate(0,166.44)">0.6</text></g><g class="ytick"><text text-anchor="end" x="79" y="4.199999999999999" style="font-family: 'Open Sans', verdana, arial, sans-serif; font-size: 12px; fill: rgb(68, 68, 68); fill-opacity: 1; white-space: pre; opacity: 1;" transform="translate(0,115.25)">0.8</text></g></g><g class="overaxes-above"/></g></g><g class="polarlayer"/><g class="smithlayer"/><g class="ternarylayer"/><g class="geolayer"/><g class="funnelarealayer"/><g class="pielayer"/><g class="iciclelayer"/><g class="treemaplayer"/><g class="sunburstlayer"/><g class="glimages"/><defs id="topdefs-a414e7"><g class="clips"/><clipPath id="legenda414e7"><rect width="446" height="29" x="0" y="0"/></clipPath></defs><g class="layer-above"><g class="imagelayer"/><g class="shapelayer"/></g><g class="infolayer"><g class="legend" pointer-events="all" transform="translate(80,56.00000000000001)"><rect class="bg" shape-rendering="crispEdges" width="446" height="29" x="0" y="0" style="stroke: rgb(68, 68, 68); stroke-opacity: 1; fill: rgb(255, 255, 255); fill-opacity: 1; stroke-width: 0px;"/><g class="scrollbox" transform="" clip-path="url(#legenda414e7)"><g class="groups"><g class="traces" transform="translate(0,14.5)" style="opacity: 1;"><text class="legendtext" text-anchor="start" x="40" y="4.680000000000001" style="font-family: 'Open Sans', verdana, arial, sans-serif; font-size: 12px; fill: rgb(68, 68, 68); fill-opacity: 1; white-space: pre;">Node 0</text><g class="layers" style="opacity: 1;"><g class="legendfill"/><g class="legendlines"/><g class="legendsymbols"><g class="legendpoints"><path class="legendundefined" d="M6,6H-6V-6H6Z" transform="translate(20,0)" style="stroke-width: 0px; fill: rgb(31, 119, 180); fill-opacity: 1;"/></g></g></g><rect class="legendtoggle" x="0" y="-9.5" width="85.28125" height="19" style="fill: rgb(0, 0, 0); fill-opacity: 0;"/></g><g class="traces" transform="translate(87.78125,14.5)" style="opacity: 1;"><text class="legendtext" text-anchor="start" x="40" y="4.680000000000001" style="font-family: 'Open Sans', verdana, arial, sans-serif; font-size: 12px; fill: rgb(68, 68, 68); fill-opacity: 1; white-space: pre;">Node 1</text><g class="layers" style="opacity: 1;"><g class="legendfill"/><g class="legendlines"/><g class="legendsymbols"><g class="legendpoints"><path class="legendundefined" d="M6,6H-6V-6H6Z" transform="translate(20,0)" style="stroke-width: 0px; fill: rgb(255, 127, 14); fill-opacity: 1;"/></g></g></g><rect class="legendtoggle" x="0" y="-9.5" width="85.28125" height="19" style="fill: rgb(0, 0, 0); fill-opacity: 0;"/></g><g class="traces" transform="translate(175.5625,14.5)" style="opacity: 1;"><text class="legendtext" text-anchor="start" x="40" y="4.680000000000001" style="font-family: 'Open Sans', verdana, arial, sans-serif; font-size: 12px; fill: rgb(68, 68, 68); fill-opacity: 1; white-space: pre;">Node 2</text><g class="layers" style="opacity: 1;"><g class="legendfill"/><g class="legendlines"/><g class="legendsymbols"><g class="legendpoints"><path class="legendundefined" d="M6,6H-6V-6H6Z" transform="translate(20,0)" style="stroke-width: 0px; fill: rgb(44, 160, 44); fill-opacity: 1;"/></g></g></g><rect class="legendtoggle" x="0" y="-9.5" width="85.28125" height="19" style="fill: rgb(0, 0, 0); fill-opacity: 0;"/></g><g class="traces" transform="translate(263.34375,14.5)" style="opacity: 1;"><text class="legendtext" text-anchor="start" x="40" y="4.680000000000001" style="font-family: 'Open Sans', verdana, arial, sans-serif; font-size: 12px; fill: rgb(68, 68, 68); fill-opacity: 1; white-space: pre;">Node 3</text><g class="layers" style="opacity: 1;"><g class="legendfill"/><g class="legendlines"/><g class="legendsymbols"><g class="legendpoints"><path class="legendundefined" d="M6,6H-6V-6H6Z" transform="translate(20,0)" style="stroke-width: 0px; fill: rgb(214, 39, 40); fill-opacity: 1;"/></g></g></g><rect class="legendtoggle" x="0" y="-9.5" width="85.28125" height="19" style="fill: rgb(0, 0, 0); fill-opacity: 0;"/></g><g class="traces" transform="translate(351.125,14.5)" style="opacity: 1;"><text class="legendtext" text-anchor="start" x="40" y="4.680000000000001" style="font-family: 'Open Sans', verdana, arial, sans-serif; font-size: 12px; fill: rgb(68, 68, 68); fill-opacity: 1; white-space: pre;">Average</text><g class="layers" style="opacity: 1;"><g class="legendfill"/><g class="legendlines"/><g class="legendsymbols"><g class="legendpoints"><path class="legendundefined" d="M6,6H-6V-6H6Z" transform="translate(20,0)" style="stroke-width: 0px; fill: rgb(148, 103, 189); fill-opacity: 1;"/></g></g></g><rect class="legendtoggle" x="0" y="-9.5" width="91.78125" height="19" style="fill: rgb(0, 0, 0); fill-opacity: 0;"/></g></g></g><rect class="scrollbar" rx="20" ry="3" width="0" height="0" x="0" y="0" style="fill: rgb(128, 139, 164); fill-opacity: 1;"/></g><g class="g-gtitle"><text class="gtitle" x="400" y="50" text-anchor="middle" dy="0em" style="font-family: 'Open Sans', verdana, arial, sans-serif; font-size: 17px; fill: rgb(68, 68, 68); opacity: 1; font-weight: normal; white-space: pre;">Accuracy score by MetaL method for 4 nodes</text></g><g class="g-xtitle" transform="translate(0,25)"><text class="xtitle" x="400" y="372" text-anchor="middle" style="font-family: 'Open Sans', verdana, arial, sans-serif; font-size: 14px; fill: rgb(68, 68, 68); opacity: 1; font-weight: normal; white-space: pre;">Aggregation methods</text></g><g class="g-ytitle"><text class="ytitle" transform="rotate(-90,42,210)" x="42" y="210" text-anchor="middle" style="font-family: 'Open Sans', verdana, arial, sans-serif; font-size: 14px; fill: rgb(68, 68, 68); opacity: 1; font-weight: normal; white-space: pre;">Accuracy score</text></g></g></svg>