<svg class="main-svg" xmlns="http://www.w3.org/2000/svg" xmlns:xlink="http://www.w3.org/1999/xlink" width="800" height="600" style="" viewBox="0 0 800 600"><rect x="0" y="0" width="800" height="600" style="fill: rgb(255, 255, 255); fill-opacity: 1;"/><defs id="defs-1e632e"><g class="clips"><clipPath id="clip1e632exyplot" class="plotclip"><rect width="710" height="370"/></clipPath><clipPath class="axesclip" id="clip1e632ex"><rect x="80" y="0" width="710" height="600"/></clipPath><clipPath class="axesclip" id="clip1e632ey"><rect x="0" y="150" width="800" height="370"/></clipPath><clipPath class="axesclip" id="clip1e632exy"><rect x="80" y="150" width="710" height="370"/></clipPath></g><g class="gradients"/><g class="patterns"/></defs><g class="bglayer"/><g class="layer-below"><g class="imagelayer"/><g class="shapelayer"/></g><g class="cartesianlayer"><g class="subplot xy"><g class="layer-subplot"><g class="shapelayer"/><g class="imagelayer"/></g><g class="minor-gridlayer"><g class="x"/><g class="y"/></g><g class="gridlayer"><g class="x"><path class="xgrid crisp" transform="translate(222.28,0)" d="M0,150v370" style="stroke: rgb(238, 238, 238); stroke-opacity: 1; stroke-width: 1px;"/><path class="xgrid crisp" transform="translate(364.57,0)" d="M0,150v370" style="stroke: rgb(238, 238, 238); stroke-opacity: 1; stroke-width: 1px;"/><path class="xgrid crisp" transform="translate(506.85,0)" d="M0,150v370" style="stroke: rgb(238, 238, 238); stroke-opacity: 1; stroke-width: 1px;"/><path class="xgrid crisp" transform="translate(649.14,0)" d="M0,150v370" style="stroke: rgb(238, 238, 238); stroke-opacity: 1; stroke-width: 1px;"/></g><g class="y"><path class="ygrid crisp" transform="translate(0,515.21)" d="M80,0h710" style="stroke: rgb(238, 238, 238); stroke-opacity: 1; stroke-width: 1px;"/><path class="ygrid crisp" transform="translate(0,476.49)" d="M80,0h710" style="stroke: rgb(238, 238, 238); stroke-opacity: 1; stroke-width: 1px;"/><path class="ygrid crisp" transform="translate(0,437.77)" d="M80,0h710" style="stroke: rgb(238, 238, 238); stroke-opacity: 1; stroke-width: 1px;"/><path class="ygrid crisp" transform="translate(0,399.05)" d="M80,0h710" style="stroke: rgb(238, 238, 238); stroke-opacity: 1; stroke-width: 1px;"/><path class="ygrid crisp" transform="translate(0,360.33000000000004)" d="M80,0h710" style="stroke: rgb(238, 238, 238); stroke-opacity: 1; stroke-width: 1px;"/><path class="ygrid crisp" transform="translate(0,321.61)" d="M80,0h710" style="stroke: rgb(238, 238, 238); stroke-opacity: 1; stroke-width: 1px;"/><path class="ygrid crisp" transform="translate(0,282.89)" d="M80,0h710" style="stroke: rgb(238, 238, 238); stroke-opacity: 1; stroke-width: 1px;"/><path class="ygrid crisp" transform="translate(0,244.17000000000002)" d="M80,0h710" style="stroke: rgb(238, 238, 238); stroke-opacity: 1; stroke-width: 1px;"/><path class="ygrid crisp" transform="translate(0,205.45)" d="M80,0h710" style="stroke: rgb(238, 238, 238); stroke-opacity: 1; stroke-width: 1px;"/><path class="ygrid crisp" transform="translate(0,166.73)" d="M80,0h710" style="stroke: rgb(238, 238, 238); stroke-opacity: 1; stroke-width: 1px;"/></g></g><g class="zerolinelayer"><path class="xzl zl crisp" transform="translate(80,0)" d="M0,150v370" style="stroke: rgb(68, 68, 68); stroke-opacity: 1; stroke-width: 1px;"/></g><path class="xlines-below"/><path class="ylines-below"/><g class="overlines-below"/><g class="xaxislayer-below"/><g class="yaxislayer-below"/><g class="overaxes-below"/><g class="plot" transform="translate(80,150)" clip-path="url(#clip1e632exyplot)"><g class="scatterlayer mlayer"><g class="trace scatter trace9589d6" style="stroke-miterlimit: 2; opacity: 1;"><g class="fills"/><g class="errorbars"/><g class="lines"><path class="js-line" d="M0,54.8L1.42,59.32L2.13,55.93L4.98,87.55L5.69,84.97L6.4,91.42L7.11,50.44L9.96,65.93L10.67,73.84L12.09,95.46L12.81,112.08L13.52,48.19L14.23,68.03L14.94,78.68L15.65,102.56L16.36,102.88L17.07,99.01L19.92,120.14L20.63,146.76L21.34,143.05L22.05,147.09L22.77,167.58L23.48,124.66L24.19,138.53L24.9,115.3L25.61,69.32L26.32,82.55L27.75,105.46L28.46,103.69L29.88,131.11L30.59,134.34L32.01,183.06L32.73,132.4L34.15,137.08L34.86,146.28L36.99,176.61L37.71,178.39L38.42,176.13L39.13,187.26L41.26,117.08L41.97,121.43L44.11,150.8L44.82,100.62L45.53,99.81L46.24,101.27L46.95,97.39L47.67,100.94L50.51,140.15L51.22,158.06L51.93,161.61L52.65,170.96L53.36,170.64L54.07,183.39L54.78,162.41L55.49,46.09L56.2,45.12L56.91,50.61L58.34,62.55L59.05,79.97L59.76,79L60.47,89.49L61.18,92.07L61.89,121.92L62.61,22.69L63.32,28.18L64.03,32.86L66.16,47.06L66.87,56.41L69.01,72.23L69.72,67.06L71.14,101.27L71.85,47.22L73.99,70.13L74.7,75.29L76.83,88.52L77.55,87.88L78.26,111.91L78.97,49.96L80.39,69.48L81.1,67.71L83.24,103.2L83.95,104.65L84.66,122.4L85.37,100.78L86.79,115.95L87.51,80.61L88.22,96.26L88.93,60.13L90.35,78.19L91.06,38.18L91.77,47.7L92.48,46.41L93.2,47.54L93.91,52.86L94.62,52.38L95.33,59.64L96.04,63.19L96.75,80.13L98.18,113.2L98.89,63.35L101.02,83.68L101.73,85.45L102.44,93.2L103.16,111.75L103.87,110.46L104.58,111.11L105.29,124.66L106,99.98L107.42,58.67L108.14,69L108.85,68.35L109.56,73.68L110.27,89.65L110.98,83.2L111.69,87.39L112.4,97.07L113.12,100.62L113.83,116.59L115.25,141.92L115.96,107.88L118.1,111.43L118.81,112.88L119.52,127.89L120.23,87.39L120.94,85.29L121.65,91.1L122.36,92.88L123.08,100.46L123.79,102.72L124.5,117.08L125.21,80.45L125.92,94.81L126.63,93.68L127.34,97.07L128.77,116.92L129.48,129.98L130.19,82.23L130.9,84.65L131.61,87.87L133.04,111.27L133.75,89L134.46,96.91L135.17,92.55L135.88,93.2L136.59,100.46L137.3,100.94L138.02,110.62L139.44,78.68L140.15,84.65L141.57,100.78L142.28,82.87L143.71,79.16L144.42,85.29L145.13,86.1L145.84,91.42L146.55,95.46L147.26,94.17L147.98,113.53L148.69,112.4L152.24,178.55L152.96,144.18L153.67,145.31L154.38,161.12L155.09,166.12L155.8,176.77L156.51,182.74L157.22,217.75L157.94,203.07L158.65,116.43L159.36,134.02L160.07,85.45L160.78,81.74L161.49,93.52L162.92,98.68L163.63,105.3L164.34,126.6L165.05,103.85L166.47,107.24L167.18,107.4L169.32,97.56L170.03,96.43L170.74,96.75L171.45,92.39L172.16,93.04L172.88,99.65L176.43,148.54L177.14,150.47L177.86,163.38L178.57,191.13L179.28,219.53L179.99,160.48L180.7,157.9L181.41,160.32L182.84,168.38L183.55,165.48L184.26,176.45L184.97,175L185.68,175.32L186.39,185.48L187.82,131.11L188.53,142.73L189.24,142.25L189.95,149.34L190.66,167.41L191.37,128.37L192.08,129.66L192.8,126.11L194.22,119.01L194.93,124.34L195.64,138.7L196.35,136.11L197.06,138.53L197.78,147.57L198.49,159.67L199.2,115.79L199.91,115.79L200.62,116.92L201.33,108.53L202.04,114.66L202.76,113.69L203.47,114.66L204.89,118.21L205.6,121.11L206.31,123.05L207.02,120.79L207.74,121.92L208.45,119.17L211.29,146.44L212,144.83L212.72,145.47L213.43,148.54L214.14,145.31L214.85,148.54L215.56,151.6L216.27,162.25L219.12,180L219.83,182.26L220.54,177.26L221.25,194.2L221.96,149.02L222.68,150.47L223.39,151.12L224.1,148.38L224.81,156.44L225.52,135.31L226.23,136.76L226.94,133.53L227.66,143.54L229.08,166.61L229.79,119.66L230.5,118.05L231.21,123.53L232.64,116.59L233.35,118.05L234.77,122.89L235.48,124.5L236.9,121.76L237.62,122.24L238.33,124.82L239.04,124.01L241.17,138.86L241.88,143.05L243.31,124.98L244.02,134.5L245.44,156.28L246.15,166.77L247.58,195.97L248.29,167.25L249,169.35L249.71,168.38L251.13,185.65L251.84,153.22L252.56,153.06L253.27,164.35L253.98,177.09L254.69,115.79L255.4,117.24L256.11,121.11L258.25,146.76L258.96,144.67L259.67,156.93L260.38,124.82L261.09,128.69L261.8,141.92L264.65,178.39L265.36,118.37L266.78,133.21L267.49,132.57L268.21,133.05L268.92,136.92L269.63,140.31L270.34,157.57L271.05,124.34L271.76,134.34L273.19,141.6L273.9,153.7L275.32,167.09L276.03,126.43L277.45,141.6L278.17,141.44L278.88,151.93L279.59,147.41L280.3,165.64L281.01,122.56L283.15,140.15L283.86,135.15L284.57,152.89L285.28,149.51L286.7,170L287.41,170.48L288.84,179.19L289.55,185.97L290.26,234.85L290.97,131.76L291.68,129.02L292.39,88.04L293.11,89.65L293.82,85.94L295.24,94.01L295.95,93.84L296.66,112.08L297.37,117.56L298.09,148.22L300.22,196.62L300.93,195.81L301.64,200.33L302.35,156.6L303.07,161.77L303.78,161.61L304.49,159.67L305.2,165.8L305.91,129.82L306.62,124.01L307.33,125.95L308.05,128.05L308.76,134.18L309.47,133.86L310.18,141.92L311.6,144.99L312.31,143.21L313.03,143.38L313.74,146.12L315.16,142.25L315.87,150.64L316.58,151.6L317.29,165.32L318.01,161.12L318.72,167.74L319.43,165.16L320.14,172.42L322.99,186.94L323.7,161.61L325.12,111.75L325.83,113.37L326.54,113.53L327.25,124.82L327.97,126.92L328.68,133.21L329.39,152.41L330.1,120.14L332.23,138.05L332.95,159.83L333.66,165.32L334.37,188.55L335.08,170.32L335.79,179.19L336.5,183.23L337.21,178.22L338.64,182.58L339.35,190.32L340.06,190.97L340.77,132.73L341.48,134.5L342.19,138.53L343.62,154.51L344.33,153.54L345.75,159.67L346.46,158.54L347.89,175.64L348.6,165.96L350.02,215.65L350.73,142.41L351.44,154.18L352.15,150.47L352.87,164.99L353.58,127.56L354.29,133.53L355,128.85L356.42,139.5L357.13,142.25L357.85,144.67L358.56,150.96L359.27,145.31L359.98,156.12L360.69,153.06L361.4,175.48L362.11,177.74L362.83,185.65L363.54,187.1L364.25,215.17L364.96,167.74L365.67,169.83L366.38,169.19L369.23,226.3L369.94,189.68L370.65,186.29L371.36,190.16L372.07,188.39L372.79,201.78L373.5,205.49L374.21,170L374.92,167.74L375.63,171.61L376.34,166.61L377.05,174.67L378.48,178.55L379.19,173.87L379.9,187.26L380.61,158.54L382.03,163.06L382.75,168.87L383.46,169.51L384.17,167.09L384.88,170L385.59,132.57L387.01,141.28L387.73,171.61L388.44,193.07L389.15,109.01L389.86,129.98L390.57,92.88L391.99,99.33L392.71,118.85L393.42,65.29L394.13,78.03L394.84,83.68L395.55,67.39L396.97,68.68L397.69,77.39L399.82,78.19L400.53,75.29L403.38,108.69L404.09,109.82L404.8,116.43L405.51,136.76L406.93,72.71L407.65,74.81L408.36,72.23L409.07,81.42L409.78,79.49L410.49,90.13L411.2,89.17L411.91,97.88L412.63,63.67L413.34,67.06L414.05,74.48L414.76,74L416.18,87.23L416.89,100.14L419.03,147.73L419.74,120.95L420.45,129.02L421.16,128.37L421.87,127.73L422.59,137.89L423.3,137.41L424.01,147.89L425.43,151.76L426.14,158.22L427.57,180.48L428.28,188.55L428.99,207.26L429.7,151.6L430.41,151.76L431.12,159.99L433.26,188.39L433.97,188.07L436.81,247.92L437.53,194.68L438.95,192.58L439.66,205.65L441.08,154.99L441.79,171.45L442.51,144.34L443.22,154.99L445.35,178.22L446.06,188.39L446.77,152.57L447.48,154.67L448.2,166.93L448.91,129.18L449.62,129.82L450.33,128.37L452.46,143.86L453.18,153.22L453.89,154.02L454.6,168.06L455.31,127.73L456.02,130.15L457.44,144.5L458.16,144.99L459.58,154.67L460.29,157.09L461,159.67L461.71,158.22L462.42,157.41L463.14,164.67L463.85,175.32L464.56,170.32L467.4,214.85L468.12,150.96L469.54,159.02L470.25,157.73L470.96,169.67L471.67,134.02L473.1,135.47L473.81,143.38L475.23,149.83L475.94,158.86L477.36,177.42L478.08,148.54L479.5,153.86L480.21,151.93L480.92,153.86L481.63,160.48L483.06,164.19L483.77,177.9L485.9,207.91L486.61,210.01L487.32,210.81L488.04,210.33L488.75,248.57L489.46,128.53L490.88,137.41L491.59,136.28L494.44,157.57L495.15,155.8L495.86,161.93L496.57,179.68L497.28,137.57L498,138.53L498.71,146.92L500.13,145.96L500.84,148.54L501.55,150.15L502.26,154.67L503.69,182.9L504.4,193.71L505.11,195.65L505.82,202.91L506.53,227.92L507.24,149.99L508.67,155.64L509.38,153.7L510.09,152.41L510.8,164.35L511.51,167.09L512.22,165.32L512.94,172.74L513.65,168.87L514.36,189.52L515.07,145.31L516.49,145.96L517.2,148.86L517.92,150.8L518.63,155.64L519.34,154.67L520.05,168.06L520.76,170.32L521.47,177.09L523.61,198.88L524.32,151.44L525.03,147.73L525.74,156.12L527.16,178.87L527.88,176.29L528.59,177.42L529.3,184.84L530.01,234.05L530.72,198.23L532.86,167.41L533.57,164.67L534.28,164.19L534.99,155.48L536.41,163.54L537.12,159.51L539.97,177.9L540.68,176.13L543.53,214.52L544.24,230.17L545.66,250.18L546.37,275.19L547.8,235.01L548.51,250.18L549.93,282.77L550.64,281L552.06,306.49L552.78,308.91L553.49,306L554.2,317.94L554.91,317.94L555.62,320.52L556.33,318.1L557.04,320.2L559.18,316.81L559.89,320.68L560.6,323.59L561.31,321.33L562.02,320.52L562.74,324.4L563.45,321.49L564.16,331.98L564.87,292.93L565.58,297.94L566.29,296.81L567,298.9L568.43,205.33L569.14,211.3L571.98,239.69L572.7,257.12L573.41,205.33L574.12,205.81L574.83,205.33L575.54,213.72L576.25,213.07L576.96,217.75L577.68,236.79L579.1,250.99L579.81,269.86L581.23,226.46L581.94,226.14L583.37,230.5L584.08,230.34L586.21,247.44L586.92,268.41L588.35,197.58L589.06,198.07L589.77,204.84L591.9,229.05L592.62,211.14L593.33,215.49L594.04,225.5L595.46,248.73L596.17,210.33L599.73,252.6L600.44,254.54L601.15,268.25L601.86,232.27L602.58,200.97L603.29,201.3L604,204.04L605.42,216.78L606.13,223.72L606.84,222.75L607.56,231.95L609.69,263.73L610.4,266.64L611.82,270.83L612.54,271.15L613.25,271.15L613.96,270.02L614.67,270.19L615.38,277.12L616.8,282.45L617.52,281.96L618.94,291.16L619.65,290.03L620.36,291.16L621.07,290.35L622.49,293.1L623.21,299.39L623.92,295.84L624.63,302.61L625.34,300.03L626.05,301.32L627.47,308.58L628.19,307.45L628.9,308.91L629.61,302.78L631.03,306.49L631.74,308.42L632.45,315.84L633.17,315.04L633.88,324.07L634.59,281.48L635.3,276.8L636.01,282.61L636.72,286L637.43,278.74L638.15,278.58L638.86,280.03L640.99,274.54L641.7,273.9L642.41,271.64L643.13,273.25L644.55,271.8L645.26,269.86L645.97,274.86L646.68,271.48L648.11,267.28L648.82,271.96L649.53,266.48L650.24,270.67L650.95,268.09L651.66,270.19L653.09,274.38L653.8,273.74L654.51,272.93L655.22,278.58L656.64,278.25L657.35,287.29L658.07,286.8L658.78,284.38L659.49,285.35L660.2,282.29L660.91,289.55L661.62,322.14L663.76,320.04L664.47,317.78L665.18,316.97L665.89,321.01L667.31,317.3L668.03,317.62L669.45,320.36L670.16,318.26L670.87,317.94L671.58,316.49L673.01,316.97L673.72,318.59L675.14,316.97L675.85,318.75L676.56,319.56L677.27,315.84L677.99,317.94L678.7,315.2L680.12,316.97L680.83,314.88L681.54,312.94L682.25,321.33L682.97,321.01L683.68,328.27L684.39,329.4L685.1,332.95L686.52,277.12L687.23,276.96L688.66,277.28L689.37,278.09L690.79,281.16L691.5,281.32L692.93,284.06L693.64,282.29L695.06,283.42L695.77,289.55L696.48,286.32L697.19,292.61L697.91,293.58L698.62,300.36L699.33,299.39L700.04,303.91L701.46,321.98L702.17,293.1L702.89,292.45L703.6,289.71L704.31,291.64L705.02,289.06L706.44,291.64L707.15,291.48L707.87,290.19L708.58,296.48L709.29,296L710,299.23" style="vector-effect: none; fill: none; stroke: rgb(31, 119, 180); stroke-opacity: 1; stroke-width: 2px; opacity: 1;"/></g><g class="points"/><g class="text"/></g><g class="trace scatter traceba0b5b" style="stroke-miterlimit: 2; opacity: 1;"><g class="fills"/><g class="errorbars"/><g class="lines"><path class="js-line" d="M0,54.8L1.42,59.32L2.13,55.93L4.98,87.55L5.69,84.97L6.4,91.42L7.11,50.44L9.96,65.93L10.67,73.84L12.09,95.46L12.81,112.08L13.52,44.8L14.23,61.25L15.65,96.26L16.36,94.33L17.07,91.42L17.79,100.46L19.92,108.04L20.63,134.66L22.05,131.44L22.77,147.25L24.19,175.16L24.9,150.15L25.61,105.14L26.32,133.05L27.03,155.96L27.75,92.23L28.46,90.62L29.17,105.3L30.59,117.08L31.3,139.5L32.73,169.35L33.44,119.66L34.15,118.85L34.86,130.79L36.99,147.09L37.71,146.92L38.42,147.89L39.13,155.8L40.55,170.32L41.26,170.8L41.97,195.97L42.69,153.54L43.4,105.14L44.11,117.4L44.82,115.79L45.53,110.3L46.24,117.24L46.95,116.27L47.67,122.24L48.38,82.71L51.22,115.79L51.93,111.59L52.65,117.72L53.36,116.59L54.78,138.53L55.49,86.1L56.2,50.61L56.91,58.03L57.63,66.09L58.34,61.42L60.47,74L61.18,73.68L63.32,106.75L64.03,105.78L65.45,150.64L66.16,117.88L67.59,81.26L68.3,89.65L69.01,88.52L69.72,89.65L72.57,129.5L73.28,64.16L76.83,139.5L77.55,82.07L78.26,99.49L78.97,51.74L81.1,65.13L81.81,74.48L83.24,92.23L83.95,89.81L85.37,107.56L86.08,115.46L86.79,124.18L87.51,85.13L88.22,106.43L88.93,68.51L89.64,18.5L90.35,25.44L92.48,32.86L93.2,45.12L93.91,54.16L94.62,52.22L95.33,60.45L96.04,84L96.75,41.89L97.46,43.83L98.18,44.96L98.89,41.41L99.6,57.87L101.02,75.77L101.73,84.97L106.71,134.02L107.42,155.15L108.85,82.39L109.56,89.33L110.27,105.46L110.98,103.85L113.12,116.92L113.83,135.47L114.54,135.31L115.25,158.06L115.96,110.62L116.67,119.5L117.38,118.21L118.1,131.92L118.81,81.74L119.52,94.65L120.94,52.54L121.65,54.16L122.36,54.16L123.08,61.42L123.79,64.32L124.5,63.67L125.92,84.97L126.63,86.26L128.06,117.24L128.77,56.09L130.19,67.55L130.9,66.74L131.61,61.9L132.32,86.1L133.04,40.93L133.75,46.57L135.17,55.12L135.88,53.35L136.59,64.16L137.3,63.51L138.73,90.3L139.44,63.35L140.15,61.9L140.86,70.29L141.57,71.9L142.28,79.16L143,86.91L143.71,86.58L144.42,103.85L145.13,38.99L145.84,50.61L146.55,61.09L147.26,58.19L148.69,73.19L149.4,75.61L150.11,82.87L150.82,102.07L152.24,124.98L152.96,78.52L153.67,78.03L154.38,89.97L156.51,106.59L157.22,128.85L158.65,175L159.36,148.7L160.07,107.24L160.78,119.5L161.49,136.92L162.2,102.56L162.92,108.69L163.63,104.33L164.34,114.98L165.05,111.27L165.76,111.43L166.47,129.02L167.18,84.65L167.9,84.81L168.61,103.69L169.32,99.49L170.03,106.91L171.45,132.24L172.16,69.81L175.72,135.15L176.43,101.43L177.14,104.82L177.86,114.01L178.57,139.02L179.28,93.52L179.99,92.88L180.7,95.62L182.84,105.78L183.55,104.33L184.97,112.88L185.68,125.14L186.39,126.92L187.1,137.41L187.82,148.05L188.53,112.24L189.24,109.66L189.95,118.21L190.66,139.34L191.37,67.71L192.08,75.94L192.8,74.48L194.93,87.88L195.64,101.43L197.06,101.75L197.78,110.46L199.91,130.63L200.62,152.89L201.33,84.33L202.04,86.58L202.76,95.14L203.47,98.36L204.18,116.59L204.89,97.07L205.6,109.82L206.31,115.3L207.02,99.17L207.74,94.81L208.45,95.94L209.16,101.91L209.87,100.78L211.29,112.08L212,109.98L212.72,115.63L213.43,114.01L214.14,113.85L214.85,122.72L215.56,124.18L216.27,94.65L216.98,51.9L217.7,63.67L219.83,81.26L220.54,103.04L221.96,106.59L222.68,103.52L223.39,102.23L224.1,111.43L224.81,115.63L225.52,113.04L227.66,134.82L228.37,139.83L229.08,144.67L229.79,159.51L230.5,170L231.21,167.09L231.92,206.14L232.64,109.82L233.35,111.91L234.06,107.24L234.77,109.01L235.48,113.37L236.9,119.98L237.62,118.05L239.75,130.15L240.46,142.89L241.17,164.35L241.88,106.27L242.6,115.95L243.31,114.01L245.44,148.22L246.15,179.35L247.58,217.91L248.29,108.53L249.71,106.43L250.42,107.07L252.56,117.72L253.27,132.08L254.69,100.78L255.4,115.95L256.11,118.21L256.82,129.98L257.54,193.87L258.25,165.16L258.96,165.96L259.67,171.13L260.38,168.06L261.09,169.35L261.8,175.32L262.52,168.06L263.23,171.77L263.94,180.97L264.65,176.13L265.36,176.93L266.78,197.75L267.49,196.62L268.92,197.58L269.63,206.46L271.76,233.08L272.47,255.02L273.19,151.6L273.9,164.83L274.61,175.97L275.32,128.21L276.03,124.18L276.74,132.08L277.45,103.52L278.17,104.65L278.88,101.91L279.59,104.82L280.3,102.56L282.43,96.26L283.15,110.62L283.86,109.01L284.57,114.01L285.28,113.69L285.99,118.05L287.41,122.08L288.13,129.18L288.84,130.31L289.55,144.02L290.26,98.68L290.97,108.2L291.68,111.75L292.39,120.79L293.11,120.14L293.82,135.47L294.53,137.89L295.24,147.73L295.95,151.6L296.66,176.29L298.09,204.84L298.8,147.09L301.64,163.22L302.35,157.73L303.78,161.93L304.49,169.19L305.2,175.48L305.91,174.35L307.33,182.26L308.05,200.65L308.76,205.65L309.47,225.98L310.89,124.01L311.6,128.53L312.31,126.76L313.03,135.95L313.74,130.95L314.45,150.8L315.16,158.38L315.87,188.71L316.58,154.99L317.29,165.96L318.01,161.93L318.72,165.16L319.43,160.48L320.14,126.76L322.27,130.79L322.99,128.69L323.7,132.89L324.41,143.86L325.83,134.18L326.54,137.57L327.97,141.6L328.68,149.67L329.39,158.86L330.1,139.99L332.23,149.34L332.95,147.57L333.66,144.02L334.37,155.31L335.79,180L336.5,123.21L339.35,138.21L340.06,136.44L341.48,134.18L342.19,135.79L344.33,160.64L345.04,166.12L346.46,104.01L347.17,112.24L348.6,122.08L349.31,139.18L350.02,130.63L350.73,139.99L351.44,156.6L352.15,123.69L353.58,136.92L354.29,157.9L356.42,190.97L357.13,198.55L358.56,224.85L359.27,175L359.98,175.32L360.69,173.06L361.4,189.19L362.11,130.31L363.54,137.08L364.25,147.41L364.96,148.54L365.67,158.54L366.38,167.58L367.09,122.56L368.52,133.86L369.23,141.92L369.94,148.22L370.65,161.28L372.79,187.74L373.5,185.48L374.21,187.74L374.92,195.65L375.63,194.84L376.34,192.1L377.05,192.1L377.77,193.07L380.61,204.84L381.32,162.25L382.75,169.83L383.46,167.09L384.17,167.41L384.88,173.22L385.59,169.51L386.3,174.51L387.73,189.84L388.44,187.42L389.15,183.55L389.86,193.55L391.28,196.62L391.99,209.36L392.71,207.1L393.42,218.56L394.84,223.88L395.55,236.63L396.26,234.37L396.97,242.76L398.4,250.5L399.11,249.05L401.95,277.61L402.67,226.46L404.09,234.21L404.8,232.59L406.22,241.31L406.93,245.82L407.65,167.74L408.36,178.22L409.07,172.42L409.78,174.51L410.49,172.09L411.2,183.23L411.91,185.16L412.63,181.61L415.47,196.78L416.18,193.23L416.89,192.74L417.61,201.13L418.32,164.19L419.03,167.58L419.74,166.28L420.45,172.9L421.87,171.29L422.59,167.41L423.3,167.58L424.01,175.16L424.72,178.71L425.43,176.29L426.14,177.58L426.85,180.64L427.57,184.52L428.28,184.19L428.99,186.94L429.7,196.94L432.55,234.37L433.26,230.82L433.97,232.43L434.68,251.15L435.39,201.3L436.1,205.49L437.53,219.53L438.24,217.91L438.95,216.78L439.66,219.69L440.37,218.24L441.08,227.11L441.79,195.33L442.51,197.26L444.64,205.49L445.35,129.82L446.06,132.4L446.77,139.02L447.48,136.11L448.2,149.83L448.91,149.51L449.62,147.57L450.33,145.47L451.04,155.15L453.18,181.77L453.89,192.1L454.6,217.11L455.31,136.11L456.02,136.76L456.73,139.02L457.44,136.6L458.16,139.99L459.58,148.7L460.29,144.99L461,146.92L461.71,144.83L462.42,142.41L463.14,151.28L465.27,169.19L465.98,170L466.69,173.38L467.4,180.81L468.12,178.87L468.83,186.45L469.54,200.81L470.25,196.62L471.67,202.42L472.38,224.85L473.1,175.64L473.81,180.48L474.52,192.91L475.23,163.38L478.08,192.1L478.79,191.13L479.5,203.55L480.21,162.25L480.92,163.06L481.63,176.61L482.34,127.24L483.06,131.92L484.48,144.5L485.19,146.44L487.32,165.32L488.04,165.64L488.75,183.06L489.46,153.86L490.88,165.96L491.59,172.09L493.73,205.17L494.44,163.06L495.86,159.67L496.57,155.48L497.28,164.35L498,160.96L498.71,174.51L499.42,137.24L500.13,134.5L500.84,139.83L501.55,139.34L502.26,144.99L503.69,169.83L504.4,168.54L505.82,174.35L506.53,185.97L507.96,225.5L508.67,186.77L509.38,187.42L510.09,185.16L510.8,195.16L511.51,194.52L512.22,193.23L512.94,205.17L513.65,203.39L514.36,234.85L515.78,235.18L516.49,245.5L517.92,192.91L518.63,197.58L519.34,198.88L520.05,216.14L520.76,217.27L521.47,225.66L522.18,242.92L522.9,194.84L524.32,200.97L525.03,196.94L526.45,210.49L527.16,227.59L527.88,220.98L528.59,222.43L530.01,240.98L530.72,221.62L532.14,240.66L532.86,246.79L533.57,255.99L534.28,254.54L534.99,267.93L535.7,225.17L536.41,229.05L537.12,227.11L537.84,226.14L538.55,234.21L539.26,160.64L539.97,160.8L540.68,163.7L541.39,163.22L542.1,167.41L544.95,199.84L545.66,216.78L546.37,165.16L547.08,168.87L547.8,167.25L548.51,171.61L549.22,186.45L549.93,185.48L550.64,184.68L551.35,190.16L554.91,238.89L555.62,186.45L557.76,196.29L558.47,196.13L559.18,195L559.89,205.17L560.6,206.3L561.31,224.69L562.74,194.2L563.45,200.33L565.58,252.6L566.29,203.72L567,215.49L567.72,178.39L569.85,189.36L570.56,192.91L573.41,221.14L574.12,183.71L576.25,189.84L576.96,193.55L581.23,228.88L581.94,225.5L582.66,244.37L583.37,216.62L584.08,212.59L584.79,223.08L585.5,190.81L586.21,196.94L587.64,223.4L588.35,176.61L589.77,180.97L590.48,189.36L592.62,214.36L593.33,226.3L594.04,200.33L594.75,214.2L595.46,209.68L596.17,212.91L596.88,230.82L597.6,180.32L599.02,195.49L599.73,200.17L601.86,223.24L602.58,165.48L603.29,167.41L604,165.16L606.13,183.23L606.84,179.84L607.56,185.81L608.27,201.62L609.69,226.14L610.4,226.3L611.11,222.91L611.82,226.63L612.54,226.46L613.25,228.24L613.96,226.46L614.67,227.92L615.38,226.3L616.09,233.56L616.8,235.66L617.52,243.73L618.23,243.4L618.94,247.11L620.36,244.53L621.07,248.08L621.78,249.7L622.49,249.21L623.21,249.86L623.92,253.08L625.34,261.47L626.05,260.99L626.76,273.57L627.47,229.05L628.19,233.56L628.9,230.66L630.32,235.98L631.03,245.5L631.74,245.02L632.45,241.47L633.88,239.69L634.59,236.14L635.3,240.98L636.01,239.05L637.43,241.79L638.15,238.89L639.57,239.69L640.28,235.98L640.99,238.08L641.7,233.4L643.13,235.82L643.84,237.11L645.26,230.82L645.97,232.59L646.68,234.21L647.39,231.79L648.82,234.53L649.53,233.24L650.24,231.47L650.95,234.21L652.37,236.63L653.09,237.76L653.8,246.31L654.51,238.73L655.93,246.15L656.64,245.02L657.35,257.76L658.07,253.73L658.78,252.44L659.49,253.73L660.2,254.54L660.91,277.45L662.33,287.77L663.05,286.64L663.76,283.25L664.47,284.87L665.89,282.93L666.6,280.67L667.31,276.48L668.03,280.51L668.74,279.38L669.45,276.32L670.16,275.35L670.87,277.61L671.58,277.28L672.29,275.51L673.01,275.99L673.72,277.45L675.14,276.8L675.85,270.83L676.56,272.28L677.27,270.83L677.99,275.35L678.7,273.57L679.41,271.48L680.12,274.38L680.83,271.96L681.54,274.38L683.68,296.32L684.39,292.45L686.52,309.39L687.23,307.45L688.66,314.88L689.37,321.81L690.08,324.23L690.79,322.78L691.5,321.17L692.21,325.2L692.93,321.98L693.64,323.27L694.35,320.68L695.06,321.81L695.77,315.84L696.48,316.33L697.91,313.1L698.62,308.75L700.04,305.68L700.75,299.23L703.6,276.96L704.31,275.99L705.02,281.64L705.73,277.77L706.44,279.22L707.15,276.96L709.29,286L710,293.26" style="vector-effect: none; fill: none; stroke: rgb(255, 127, 14); stroke-opacity: 1; stroke-width: 2px; opacity: 1;"/></g><g class="points"/><g class="text"/></g><g class="trace scatter tracec6f9ea" style="stroke-miterlimit: 2; opacity: 1;"><g class="fills"/><g class="errorbars"/><g class="lines"><path class="js-line" d="M0,54.8L1.42,59.32L2.13,55.93L4.98,87.55L5.69,84.97L6.4,91.42L7.11,50.44L9.96,65.93L10.67,73.84L12.09,95.46L12.81,112.08L13.52,47.22L14.23,62.06L15.65,89.17L16.36,86.75L17.07,86.42L17.79,93.52L19.92,100.78L20.63,127.89L21.34,126.92L22.05,127.24L24.19,168.87L24.9,139.02L25.61,83.2L26.32,102.4L27.03,120.47L27.75,68.19L28.46,70.45L29.17,82.55L29.88,83.2L30.59,87.07L32.01,123.05L32.73,127.56L34.15,136.44L34.86,144.34L36.28,112.4L36.99,124.82L37.71,127.08L38.42,124.82L39.13,133.37L39.84,106.11L40.55,104.65L41.26,111.27L41.97,108.85L42.69,127.24L44.11,144.34L44.82,140.31L45.53,141.12L46.24,143.38L46.95,143.21L47.67,157.41L48.38,188.55L49.09,153.06L49.8,164.99L50.51,113.69L51.93,128.05L52.65,129.34L53.36,125.63L54.07,134.66L54.78,141.92L55.49,36.73L56.91,50.77L57.63,48.51L58.34,55.93L59.05,34.47L59.76,28.66L60.47,30.28L61.18,27.86L61.89,35.92L64.74,61.42L65.45,78.03L66.16,89.17L66.87,43.99L67.59,53.83L68.3,52.7L69.01,58.51L69.72,35.6L71.14,37.05L71.85,32.21L73.99,54.96L74.7,70.77L76.12,102.88L76.83,59.32L77.55,55.45L78.26,72.23L78.97,93.04L79.68,51.09L81.1,59.32L81.81,64.32L83.24,75.77L83.95,67.22L85.37,89L86.08,89L86.79,98.68L87.51,62.71L89.64,91.75L90.35,58.67L91.77,56.25L92.48,56.9L93.2,64.16L93.91,60.13L94.62,61.58L95.33,71.58L96.04,68.84L96.75,80.61L99.6,134.99L100.31,97.07L101.02,91.75L101.73,92.23L103.87,114.01L104.58,112.24L105.29,114.5L106,124.5L106.71,90.78L107.42,99.01L109.56,129.66L110.27,107.72L110.98,106.91L111.69,121.27L113.83,23.99L114.54,23.34L115.25,28.5L115.96,26.24L116.67,32.54L117.38,26.41L118.81,33.02L119.52,47.22L120.23,59.48L120.94,58.35L121.65,74.48L122.36,70.13L124.5,102.56L125.21,68.51L128.06,93.52L128.77,101.27L130.19,123.37L130.9,121.27L131.61,119.34L132.32,148.22L133.04,121.92L133.75,66.9L134.46,62.22L135.17,65.13L135.88,69.16L136.59,65.45L137.3,68.68L138.02,77.39L139.44,97.39L140.15,65.13L142.28,108.85L143,95.94L145.84,106.91L146.55,104.49L147.26,105.78L147.98,113.69L148.69,116.75L149.4,123.37L150.11,111.59L150.82,111.75L151.53,131.27L152.24,143.38L152.96,92.23L153.67,90.13L154.38,95.94L155.09,94.01L155.8,96.26L157.94,126.11L158.65,146.12L160.07,193.55L160.78,141.6L161.49,92.88L162.2,94.17L162.92,94.97L163.63,95.78L164.34,102.56L165.05,99.65L165.76,104.98L166.47,118.69L167.18,117.4L167.9,130.95L168.61,98.04L169.32,97.56L170.03,112.88L170.74,127.56L171.45,80.94L172.16,82.71L172.88,93.68L173.59,106.59L174.3,71.1L175.01,77.39L175.72,94.65L176.43,113.2L177.14,74.81L178.57,86.1L179.28,85.45L180.7,90.3L181.41,104.98L182.12,109.49L182.84,119.82L183.55,123.21L184.26,101.27L184.97,109.82L185.68,80.78L187.82,90.78L188.53,103.85L189.24,103.04L189.95,113.53L192.08,142.73L192.8,119.34L193.51,133.21L194.22,55.61L194.93,68.19L195.64,35.28L197.06,37.54L197.78,43.35L199.2,58.35L199.91,60.93L202.04,95.94L202.76,68.35L203.47,66.9L204.18,88.52L206.31,129.02L207.02,132.4L207.74,140.47L208.45,104.33L209.87,121.76L210.58,140.63L211.29,157.41L212,102.72L212.72,103.69L213.43,110.14L214.14,110.95L214.85,110.14L215.56,128.85L216.27,79.97L217.7,92.39L218.41,98.68L219.12,103.36L219.83,118.21L220.54,57.54L221.25,58.19L221.96,57.87L222.68,53.51L223.39,56.58L224.1,59.32L224.81,78.19L225.52,85.78L226.23,55.77L226.94,61.42L227.66,54.96L231.21,126.11L231.92,129.82L233.35,136.6L234.06,135.63L235.48,143.54L236.19,141.76L238.33,150.47L239.04,150.31L239.75,149.99L240.46,154.99L241.88,151.12L242.6,157.9L244.02,172.42L244.73,173.38L246.15,199.84L246.86,164.99L247.58,161.28L248.29,166.12L249,163.54L249.71,164.67L251.13,168.06L251.84,170.32L253.27,177.58L253.98,196.45L254.69,193.71L255.4,202.1L256.11,154.99L256.82,165.16L257.54,167.25L258.25,178.55L258.96,175.64L259.67,186.77L260.38,168.87L261.09,173.87L261.8,144.99L262.52,155.15L263.23,155.64L263.94,174.03L265.36,179.51L266.07,200L266.78,161.28L267.49,162.09L268.21,159.02L268.92,170.48L269.63,169.67L271.05,196.94L271.76,207.91L273.19,128.37L273.9,144.18L274.61,111.75L275.32,121.27L276.03,121.27L276.74,130.79L277.45,136.11L278.17,134.34L278.88,144.02L279.59,140.63L282.43,199.36L283.15,225.17L283.86,193.07L284.57,196.62L285.28,197.75L285.99,194.03L287.41,197.91L288.13,204.04L289.55,206.14L290.26,209.36L290.97,217.43L291.68,235.34L293.11,224.53L293.82,234.85L295.24,257.92L295.95,269.54L298.09,351.5L298.8,210.49L299.51,202.1L300.22,204.04L300.93,199.36L301.64,199.52L302.35,206.46L303.07,205.49L303.78,207.75L304.49,207.26L305.2,212.75L305.91,212.75L306.62,217.11L307.33,207.26L308.05,217.59L308.76,221.14L309.47,236.47L310.18,248.89L310.89,225.33L312.31,226.79L313.03,224.2L313.74,221.78L314.45,239.69L315.16,239.69L315.87,262.6L316.58,260.83L317.29,275.35L318.72,284.55L319.43,238.56L320.14,237.76L320.85,241.15L322.27,244.37L322.99,262.44L324.41,189.19L325.12,191.61L325.83,191.29L326.54,189.84L327.97,189.19L328.68,195.16L329.39,195.65L330.1,205.33L331.52,227.92L332.23,225.01L334.37,274.7L335.08,217.27L336.5,223.24L337.21,220.98L337.93,220.98L338.64,224.69L339.35,236.79L340.06,181.13L342.19,189.36L342.91,186.77L343.62,192.91L344.33,191.94L345.75,210.01L346.46,209.36L347.17,212.91L347.89,211.46L348.6,210.17L349.31,219.36L350.02,238.08L350.73,202.91L351.44,204.68L352.15,203.55L352.87,213.56L353.58,211.3L356.42,246.47L357.13,246.79L358.56,259.7L359.27,224.2L359.98,220.98L360.69,221.46L361.4,235.5L362.11,191.29L363.54,189.84L364.25,192.1L364.96,198.39L365.67,194.03L366.38,195L367.09,198.07L367.81,196.45L368.52,204.84L369.94,222.43L370.65,231.95L371.36,239.85L372.07,192.91L372.79,200.49L373.5,199.04L374.21,200.49L374.92,207.75L375.63,206.3L376.34,206.94L377.05,205.01L377.77,205.65L378.48,213.72L379.19,179.35L379.9,182.1L380.61,179.84L381.32,176.61L382.03,177.42L383.46,180.16L384.17,181.61L385.59,180.16L386.3,179.84L387.73,183.23L388.44,188.23L389.15,185.97L389.86,193.07L391.28,209.36L391.99,213.07L394.13,239.05L394.84,235.82L395.55,241.63L396.26,238.89L397.69,263.73L398.4,262.76L399.11,264.7L399.82,275.51L400.53,236.47L401.24,239.05L401.95,241.95L402.67,238.89L403.38,245.02L404.09,241.63L405.51,245.66L406.22,250.34L406.93,249.53L407.65,250.66L408.36,252.76L409.07,260.51L409.78,256.63L410.49,258.57L411.91,264.38L412.63,262.6L414.76,268.09L415.47,263.73L416.18,262.93L416.89,266.31L417.61,276.8L418.32,273.41L419.03,271.15L419.74,276.8L421.16,266.64L421.87,268.73L423.3,275.35L424.01,270.99L424.72,274.54L425.43,270.83L426.14,268.57L426.85,278.09L427.57,279.87L428.28,277.77L428.99,275.19L429.7,279.54L431.12,275.03L431.83,274.7L432.55,288.09L433.26,240.18L434.68,236.79L435.39,238.89L436.81,238.89L437.53,242.11L438.95,247.28L439.66,244.69L441.08,247.92L441.79,247.11L442.51,248.08L443.22,245.5L444.64,240.66L445.35,242.44L446.06,246.31L446.77,242.27L447.48,241.63L448.2,247.28L448.91,246.47L449.62,247.44L451.04,258.41L451.75,259.54L452.46,260.51L453.18,266.96L453.89,265.35L454.6,278.09L455.31,278.09L456.02,273.9L456.73,277.28L457.44,276.32L458.16,277.28L458.87,276.64L459.58,278.25L460.29,276.16L461,277.77L461.71,274.06L462.42,275.67L463.14,281.32L463.85,288.09L464.56,251.63L465.98,254.21L466.69,251.47L468.12,251.63L468.83,249.21L469.54,249.7L470.25,246.63L471.67,249.86L472.38,249.05L473.81,242.76L474.52,247.11L475.94,251.31L476.65,251.15L477.36,255.02L478.08,263.25L480.92,274.7L481.63,200.65L482.34,195.81L483.06,207.75L484.48,226.3L485.19,225.98L485.9,110.78L488.04,122.56L488.75,135.79L489.46,141.12L490.17,162.57L491.59,121.27L492.3,136.11L493.02,136.76L493.73,145.63L494.44,159.99L495.15,157.09L496.57,182.42L497.28,152.73L498,151.12L498.71,156.93L499.42,156.12L500.13,157.09L500.84,166.45L501.55,163.54L502.98,183.55L503.69,209.36L504.4,197.42L505.11,156.6L505.82,153.7L506.53,157.57L507.24,160.64L507.96,175.32L509.38,141.76L510.09,149.34L510.8,147.25L511.51,154.67L512.22,154.67L512.94,161.93L513.65,159.02L514.36,175.64L515.07,176.45L515.78,188.07L516.49,142.57L517.2,143.54L517.92,144.67L520.05,173.87L520.76,131.44L521.47,129.82L522.18,151.76L522.9,149.51L523.61,156.6L524.32,172.25L525.03,106.11L525.74,106.91L526.45,116.75L527.16,131.6L527.88,130.63L530.72,163.06L531.43,171.45L532.86,212.75L533.57,161.77L535.7,166.28L536.41,175.32L537.12,89.49L537.84,96.59L540.68,118.37L541.39,129.5L542.82,154.51L543.53,194.84L544.24,77.39L544.95,89.49L546.37,119.34L547.08,70.13L547.8,70.29L548.51,87.23L549.93,101.91L550.64,107.4L551.35,129.5L552.06,101.43L553.49,51.41L554.2,58.19L555.62,66.26L556.33,62.55L557.76,79.16L558.47,81.74L559.18,79L559.89,92.88L561.31,115.63L562.02,79.32L562.74,77.71L563.45,79.49L564.16,73.84L564.87,98.04L565.58,102.72L566.29,112.72L567.72,137.89L568.43,136.44L569.14,154.99L569.85,133.53L570.56,139.83L571.27,160.15L571.98,114.66L572.7,129.98L574.12,145.47L574.83,108.85L576.96,127.4L577.68,152.25L578.39,154.02L579.1,159.51L580.52,175.48L581.23,175.97L581.94,173.22L582.66,192.26L583.37,200.81L584.08,157.25L585.5,158.54L586.21,165.8L586.92,183.39L587.64,160.15L589.06,175.64L589.77,203.88L590.48,147.57L591.19,157.41L592.62,112.24L593.33,122.4L594.75,137.73L595.46,146.76L596.17,158.38L596.88,113.04L597.6,108.04L598.31,115.79L599.02,114.66L599.73,122.08L603.29,165.8L604,190.49L604.71,165.64L605.42,180.64L606.13,123.69L606.84,126.27L607.56,130.79L608.98,141.92L609.69,147.09L611.11,166.28L611.82,164.99L614.67,199.36L615.38,150.96L616.09,160.64L616.8,132.08L617.52,130.31L618.23,148.54L618.94,149.02L619.65,154.35L620.36,156.93L621.07,166.93L621.78,181.13L622.49,130.95L623.92,153.86L624.63,110.95L625.34,110.14L626.05,114.98L628.19,134.99L628.9,139.18L629.61,140.63L630.32,147.41L631.03,153.86L631.74,169.67L632.45,127.08L633.17,135.15L633.88,143.38L634.59,142.41L636.01,153.22L636.72,167.41L637.43,181.61L638.15,178.71L638.86,177.09L639.57,186.29L640.28,206.3L640.99,166.77L641.7,177.42L642.41,172.25L643.13,179.19L643.84,174.03L644.55,178.39L645.26,177.58L647.39,184.35L648.11,187.9L648.82,190.32L649.53,197.91L650.24,198.55L650.95,206.3L651.66,239.05L652.37,141.44L653.09,160.32L653.8,106.59L654.51,106.75L655.22,116.43L655.93,122.24L656.64,121.92L657.35,122.56L658.78,123.37L659.49,134.99L661.62,149.18L662.33,166.28L663.05,138.37L663.76,144.99L664.47,142.41L665.18,157.9L667.31,175.97L668.03,178.71L669.45,186.13L670.16,185.81L670.87,192.74L671.58,222.43L673.01,124.82L673.72,119.66L674.43,131.92L675.14,129.34L675.85,131.27L676.56,129.02L678.7,147.25L679.41,148.7L681.54,183.87L682.25,165.48L682.97,141.28L683.68,142.57L684.39,140.63L685.1,142.41L685.81,147.09L686.52,155.96L687.23,152.73L689.37,183.71L690.08,189.84L694.35,238.08L695.06,205.81L695.77,153.54L696.48,154.67L697.19,161.28L697.91,164.83L698.62,178.22L700.04,209.85L700.75,149.34L701.46,147.73L702.17,151.93L704.31,179.51L705.02,190.65L705.73,188.39L706.44,213.4L707.15,169.35L707.87,170.32L708.58,181.61L709.29,181.13L710,187.1" style="vector-effect: none; fill: none; stroke: rgb(44, 160, 44); stroke-opacity: 1; stroke-width: 2px; opacity: 1;"/></g><g class="points"/><g class="text"/></g><g class="trace scatter trace91dc0d" style="stroke-miterlimit: 2; opacity: 1;"><g class="fills"/><g class="errorbars"/><g class="lines"><path class="js-line" d="M0,54.8L1.42,59.32L2.13,55.93L4.98,87.55L5.69,84.97L6.4,91.42L7.11,50.44L9.96,65.93L10.67,73.84L12.09,95.46L12.81,112.08L13.52,40.6L14.23,55.77L15.65,88.2L16.36,85.78L17.07,83.52L17.79,92.72L19.92,99.49L20.63,126.43L21.34,127.08L22.05,124.5L24.19,166.12L24.9,140.95L25.61,85.94L26.32,104.98L27.03,66.58L27.75,74.48L28.46,75.29L29.17,89.33L29.88,86.58L30.59,96.43L32.01,142.73L32.73,149.51L34.15,158.06L34.86,174.35L36.28,121.27L36.99,136.6L38.42,137.73L39.13,147.09L40.55,106.91L41.26,112.88L41.97,109.01L42.69,130.63L43.4,136.6L44.11,150.96L45.53,111.43L46.24,117.24L46.95,120.47L47.67,132.57L48.38,155.8L49.09,121.43L49.8,117.24L50.51,117.56L51.93,130.95L52.65,127.24L53.36,128.21L54.07,139.18L54.78,148.05L55.49,51.9L56.91,60.45L57.63,61.58L59.05,86.58L59.76,44.31L61.18,43.67L61.89,54.48L62.61,58.83L63.32,58.19L65.45,91.42L66.16,105.3L66.87,59.64L67.59,66.9L68.3,64.16L69.01,77.87L69.72,75.94L70.43,76.9L71.85,81.91L72.57,97.39L73.28,53.51L73.99,62.87L75.41,105.3L76.12,59.8L76.83,63.03L77.55,20.76L78.97,34.47L79.68,28.83L83.24,67.87L83.95,63.67L85.37,88.68L86.08,94.17L86.79,107.07L87.51,80.29L88.22,100.3L88.93,62.06L89.64,69.97L90.35,69L91.77,79.32L92.48,79L93.91,93.36L94.62,54.96L95.33,52.54L96.04,55.93L97.46,72.87L98.18,76.1L100.31,107.72L101.02,118.53L101.73,122.56L102.44,92.07L103.16,106.91L103.87,76.1L105.29,77.23L106,88.52L106.71,37.7L107.42,42.22L108.85,65.45L109.56,73.19L110.27,37.7L110.98,38.83L111.69,47.38L113.12,44.64L113.83,45.6L115.96,66.09L116.67,69.81L117.38,66.58L118.1,71.9L118.81,74.65L119.52,89.97L120.23,111.27L120.94,83.03L121.65,82.55L122.36,84.97L123.08,79.49L123.79,91.1L125.21,104.98L125.92,124.66L126.63,126.11L127.34,131.11L128.77,151.44L129.48,145.63L130.9,80.13L131.61,79.65L133.04,100.62L133.75,73.35L134.46,73.19L135.17,70.77L135.88,70.61L136.59,81.74L137.3,81.1L138.02,87.23L139.44,100.62L140.15,102.07L140.86,119.01L141.57,67.39L143,90.94L143.71,97.72L145.13,109.66L145.84,112.72L147.98,143.21L148.69,150.15L150.11,173.71L150.82,186.61L151.53,195.49L152.24,175.32L152.96,192.58L153.67,128.21L155.09,129.18L155.8,133.86L156.51,141.28L157.22,167.9L158.65,82.87L159.36,89L160.07,88.36L160.78,99.98L161.49,115.3L162.2,113.85L165.05,124.01L165.76,138.05L166.47,94.17L167.18,95.94L167.9,98.04L170.03,118.05L170.74,144.02L171.45,89.97L172.16,96.59L172.88,93.68L173.59,100.94L175.01,136.6L175.72,97.39L176.43,105.62L177.14,84L177.86,84.81L178.57,92.88L181.41,127.73L182.12,78.52L183.55,95.14L184.26,108.36L184.97,112.08L185.68,134.34L186.39,96.1L187.1,97.88L187.82,99.01L190.66,116.92L191.37,125.47L192.08,129.18L192.8,146.44L193.51,169.19L194.22,134.5L194.93,97.56L195.64,124.18L196.35,78.52L197.06,81.26L197.78,90.78L198.49,112.08L199.91,106.59L200.62,125.14L201.33,70.13L202.04,78.68L202.76,83.84L203.47,63.35L205.6,83.84L206.31,91.1L207.02,90.13L207.74,96.43L208.45,95.3L209.16,99.98L210.58,140.95L211.29,101.27L212,106.11L212.72,103.85L213.43,100.62L214.14,105.94L214.85,103.04L215.56,117.08L216.27,84.65L216.98,86.42L217.7,94.17L218.41,94.17L219.12,99.33L219.83,108.04L220.54,103.69L222.68,151.28L223.39,148.22L225.52,169.03L226.23,134.66L226.94,135.47L227.66,146.6L229.08,155.15L229.79,168.54L231.21,172.58L231.92,175L233.35,189.68L234.06,180.97L234.77,184.52L235.48,196.94L236.19,195.49L236.9,197.91L237.62,191.13L238.33,195.65L239.04,199.04L239.75,211.14L240.46,154.02L241.17,155.8L241.88,154.02L243.31,164.99L244.02,159.67L245.44,184.03L246.15,206.14L247.58,216.46L248.29,133.37L249,133.53L249.71,127.08L250.42,132.73L251.13,152.09L251.84,104.65L252.56,119.5L253.27,67.87L253.98,78.36L254.69,78.36L255.4,92.39L256.11,94.65L256.82,106.11L257.54,100.62L258.25,120.3L258.96,119.34L259.67,141.76L260.38,146.6L261.09,164.67L263.23,111.75L263.94,135.95L264.65,139.34L265.36,136.11L266.07,154.02L266.78,109.49L267.49,110.62L268.21,108.2L268.92,115.3L269.63,114.5L271.76,149.67L272.47,149.83L273.19,129.82L273.9,143.7L274.61,106.91L275.32,109.17L277.45,120.95L278.17,122.24L278.88,122.56L279.59,124.01L282.43,166.93L283.15,116.75L283.86,58.83L284.57,79.32L285.28,76.58L285.99,103.69L286.7,111.11L287.41,107.56L288.84,120.14L289.55,120.3L292.39,143.21L293.11,142.89L293.82,146.12L294.53,126.76L295.24,125.79L295.95,126.27L296.66,128.53L297.37,137.57L298.09,143.7L298.8,159.51L299.51,177.26L300.22,149.34L300.93,150.31L301.64,147.25L303.07,172.74L303.78,120.95L304.49,119.34L305.2,129.66L306.62,132.57L307.33,143.38L308.76,149.99L309.47,146.6L310.89,156.6L311.6,153.7L312.31,152.25L313.03,155.31L313.74,155.31L314.45,160.8L315.16,160.64L315.87,168.87L316.58,160.8L317.29,178.71L318.01,146.6L318.72,148.05L319.43,148.38L321.56,146.6L322.27,149.34L324.41,159.67L325.12,156.28L325.83,156.77L326.54,158.54L327.97,170.16L328.68,146.28L329.39,161.44L330.1,157.09L330.81,158.7L331.52,170.48L332.23,169.83L332.95,177.9L333.66,184.19L334.37,197.58L335.08,204.2L335.79,163.86L336.5,167.74L337.21,166.28L337.93,177.42L338.64,172.74L339.35,171.61L340.06,179.35L340.77,177.74L341.48,207.43L342.19,116.59L342.91,117.72L343.62,121.92L344.33,128.37L345.04,125.79L346.46,139.5L347.17,132.24L347.89,145.8L348.6,138.86L349.31,158.86L350.02,127.89L350.73,136.92L351.44,114.82L352.87,117.08L353.58,116.27L354.29,118.21L355,127.4L357.13,142.57L357.85,147.25L359.98,164.19L360.69,163.06L361.4,183.39L362.11,144.18L362.83,144.83L363.54,149.02L364.25,166.28L364.96,165.16L366.38,192.58L367.09,126.27L368.52,135.63L369.23,146.44L371.36,166.93L372.07,161.12L374.21,189.52L374.92,229.85L376.34,230.01L377.05,226.79L377.77,230.34L378.48,250.83L379.9,193.23L380.61,199.04L381.32,195.97L382.03,199.68L382.75,200.17L383.46,202.75L384.17,197.26L384.88,204.04L388.44,234.53L389.15,201.3L390.57,234.85L391.28,190.97L394.13,220.01L394.84,224.37L395.55,242.76L396.26,239.85L396.97,243.89L397.69,260.99L399.11,206.62L399.82,222.43L400.53,219.36L401.24,222.43L401.95,233.4L402.67,167.25L403.38,169.35L404.09,169.03L404.8,170.48L405.51,177.42L406.22,180.64L406.93,187.9L407.65,185.48L408.36,205.17L409.78,219.36L410.49,215.98L411.2,244.05L411.91,193.39L413.34,196.62L414.05,204.52L415.47,232.76L416.18,171.61L416.89,170.64L417.61,177.9L418.32,145.31L419.03,151.93L419.74,145.47L420.45,147.41L422.59,163.7L423.3,163.54L424.01,176.45L424.72,176.61L425.43,181.29L426.85,200.33L427.57,216.78L428.28,167.58L428.99,171.93L431.83,200.49L432.55,224.85L433.26,237.6L433.97,157.25L435.39,166.61L436.1,196.45L436.81,152.57L437.53,157.25L439.66,162.25L440.37,172.58L441.79,195.33L442.51,186.61L443.93,164.83L444.64,159.51L446.06,169.83L446.77,165.8L447.48,169.19L448.2,177.9L449.62,177.26L450.33,174.03L451.75,198.39L452.46,168.7L453.89,184.52L454.6,219.2L455.31,200L456.02,202.42L456.73,218.07L457.44,139.5L458.87,138.37L459.58,143.05L460.29,148.22L461,141.44L461.71,147.89L462.42,144.5L463.85,159.83L464.56,116.75L466.69,138.86L467.4,149.51L468.12,87.39L468.83,92.88L469.54,84.49L470.25,91.26L473.1,113.04L473.81,110.3L476.65,148.22L477.36,157.9L478.08,120.63L478.79,124.66L479.5,126.11L480.21,125.47L481.63,141.12L482.34,141.76L483.77,176.29L484.48,152.73L485.19,162.41L485.9,132.24L487.32,138.86L488.04,132.24L488.75,154.51L489.46,114.17L490.88,120.79L491.59,94.81L494.44,109.17L495.15,109.98L495.86,115.46L496.57,128.69L497.28,129.98L498,146.6L499.42,98.52L500.13,99.33L500.84,105.62L501.55,104.82L503.69,126.43L504.4,136.6L505.11,137.41L505.82,150.96L506.53,174.35L507.24,141.92L507.96,89.81L508.67,97.23L509.38,98.04L510.09,100.78L512.22,105.46L512.94,107.07L513.65,104.82L514.36,129.5L515.78,137.08L516.49,168.7L517.92,145.63L518.63,156.77L519.34,155.64L520.05,170.96L521.47,134.02L522.18,136.92L522.9,137.08L523.61,139.66L525.74,154.02L526.45,173.55L527.16,184.52L527.88,140.63L528.59,139.83L529.3,146.12L530.72,173.38L531.43,130.79L533.57,150.96L534.28,151.76L535.7,161.12L536.41,157.25L537.12,170.64L537.84,119.5L539.26,121.59L539.97,120.14L543.53,160.8L544.24,174.51L544.95,192.74L545.66,148.38L546.37,164.35L547.08,162.74L547.8,156.44L548.51,158.86L549.93,184.84L550.64,189.52L552.06,204.84L552.78,206.14L553.49,214.04L554.2,243.08L554.91,202.91L555.62,204.2L556.33,167.58L557.76,199.04L558.47,202.42L559.18,201.3L559.89,206.94L560.6,209.04L561.31,214.69L562.74,216.14L563.45,226.14L564.16,233.89L564.87,210.98L566.29,220.66L567,224.2L569.14,232.27L569.85,240.82L571.27,269.86L571.98,216.78L573.41,225.98L574.12,229.69L574.83,229.05L575.54,234.53L576.25,235.18L576.96,248.24L577.68,217.43L578.39,222.27L579.1,225.17L579.81,234.21L580.52,246.15L581.23,193.23L581.94,194.03L582.66,196.78L584.79,206.78L585.5,219.36L586.21,177.74L586.92,185.81L587.64,197.42L588.35,194.03L589.77,216.3L590.48,238.4L591.19,202.26L591.9,202.91L592.62,211.3L593.33,209.52L594.04,214.85L596.88,260.99L597.6,219.53L598.31,225.17L599.02,223.24L599.73,236.14L600.44,235.18L601.15,248.41L601.86,194.84L602.58,194.84L603.29,200.17L604.71,210.98L605.42,221.3L606.84,182.9L607.56,182.42L608.98,181.13L609.69,182.58L610.4,187.26L611.11,185.16L611.82,183.87L612.54,188.39L614.67,213.56L615.38,174.84L616.8,190L617.52,199.68L618.23,207.26L618.94,205.17L619.65,215.17L620.36,184.19L621.07,183.06L621.78,186.13L622.49,187.9L623.21,184.68L623.92,186.77L624.63,192.91L625.34,191.94L626.05,196.62L628.19,230.17L628.9,193.71L631.74,206.62L632.45,216.62L633.17,222.59L633.88,235.5L634.59,192.26L635.3,202.26L636.01,208.23L636.72,222.11L637.43,235.18L638.15,180.16L638.86,179.35L639.57,183.23L640.28,182.9L640.99,181.61L641.7,185L642.41,182.9L643.13,186.29L643.84,183.71L645.97,199.68L646.68,197.1L647.39,202.75L648.11,217.43L648.82,217.27L649.53,221.46L650.24,220.33L650.95,230.5L652.37,265.99L653.09,270.19L653.8,266.96L654.51,267.77L655.22,282.93L655.93,279.38L656.64,284.38L657.35,299.23L658.07,261.64L658.78,262.28L659.49,260.67L660.2,261.47L660.91,266.64L661.62,263.73L662.33,269.54L663.05,272.61L663.76,279.54L664.47,281.16L665.18,278.9L665.89,285.51L666.6,284.71L667.31,290.03L668.03,288.42L668.74,283.25L669.45,284.87L671.58,287.77L672.29,291.97L673.01,292.45L673.72,270.67L675.14,277.93L675.85,277.28L676.56,276.8L677.27,273.41L677.99,280.19L678.7,279.22L679.41,280.35L680.12,288.74L681.54,256.96L682.25,258.89L683.68,257.6L684.39,254.21L687.23,255.67L687.95,250.99L689.37,259.22L690.08,258.57L691.5,263.09L692.21,259.54L692.93,258.41L693.64,258.89L695.77,256.31L696.48,255.99L697.19,255.34L697.91,256.15L698.62,261.15L699.33,258.73L700.75,260.83L701.46,256.63L702.89,262.12L703.6,254.54L705.02,265.35L705.73,263.25L707.15,275.03L707.87,274.86L708.58,285.35L709.29,285.03L710,291.32" style="vector-effect: none; fill: none; stroke: rgb(214, 39, 40); stroke-opacity: 1; stroke-width: 2px; opacity: 1;"/></g><g class="points"/><g class="text"/></g><g class="trace scatter tracedf995f" style="stroke-miterlimit: 2; opacity: 1;"><g class="fills"/><g class="errorbars"/><g class="lines"><path class="js-line" d="M0,54.8L1.42,59.32L2.13,55.93L4.98,87.55L5.69,84.97L6.4,91.42L7.11,50.44L9.96,65.93L10.67,73.84L12.09,95.46L12.81,112.08L13.52,40.6L14.23,55.77L15.65,88.2L16.36,85.78L17.07,83.52L17.79,92.72L19.92,99.49L20.63,126.43L21.34,127.08L22.05,124.5L24.19,166.12L24.9,140.95L25.61,85.94L26.32,104.98L27.03,61.25L27.75,68.68L28.46,70.77L29.17,82.39L29.88,80.78L30.59,88.68L32.01,135.95L32.73,144.5L34.15,151.12L34.86,170.8L36.28,121.27L36.99,135.79L38.42,137.41L39.13,146.44L40.55,106.59L41.26,112.4L41.97,109.01L42.69,130.95L43.4,137.57L44.11,151.44L45.53,112.4L46.24,116.75L46.95,118.85L47.67,131.11L48.38,154.18L49.09,119.98L49.8,118.37L50.51,118.85L51.93,129.5L52.65,128.53L53.36,125.79L54.07,136.11L54.78,144.99L55.49,41.89L56.91,55.61L57.63,59L58.34,64.48L59.05,83.68L59.76,40.44L60.47,43.02L61.18,39.8L61.89,49.32L64.74,79.97L65.45,97.72L66.16,69.97L66.87,76.58L69.01,99.01L69.72,52.86L71.14,59.96L71.85,59.48L73.28,75.13L73.99,88.36L74.7,111.27L75.41,66.42L76.12,81.26L76.83,26.41L77.55,23.5L78.26,37.22L78.97,56.09L79.68,53.67L81.1,62.22L81.81,81.58L82.53,68.03L83.24,75.61L83.95,68.19L84.66,79.16L86.79,110.3L87.51,82.39L88.22,65.61L88.93,65.77L89.64,75.45L90.35,78.84L91.06,86.1L92.48,83.84L93.2,91.59L94.62,98.2L95.33,68.19L96.04,69.16L96.75,73.19L101.02,123.37L101.73,83.2L102.44,87.07L103.16,104.33L104.58,59.48L105.29,63.35L107.42,89.81L108.14,107.24L109.56,62.38L110.27,65.13L111.69,61.74L112.4,63.84L113.12,60.93L113.83,63.67L114.54,58.35L115.25,75.94L116.67,79.32L117.38,78.52L120.23,102.4L120.94,100.46L122.36,113.2L123.08,114.82L123.79,127.56L124.5,88.04L128.77,156.28L129.48,173.38L130.9,67.06L131.61,70.61L132.32,86.58L133.04,59.8L133.75,60.45L134.46,76.26L135.17,69.48L135.88,74.65L137.3,82.55L138.02,94.49L139.44,112.72L140.15,112.24L140.86,123.37L141.57,106.43L143,51.57L143.71,53.51L144.42,47.54L145.13,51.57L145.84,55.12L146.55,67.06L147.26,65.93L147.98,75.29L149.4,81.42L150.11,79.49L150.82,93.2L151.53,49.32L153.67,76.42L154.38,91.42L155.8,63.35L156.51,76.9L157.22,83.2L157.94,112.4L158.65,82.39L159.36,94.01L160.78,117.88L161.49,139.02L162.2,136.76L162.92,144.67L164.34,162.9L165.05,161.93L165.76,114.5L166.47,135.31L167.18,89.81L167.9,92.23L168.61,101.91L169.32,46.25L170.03,48.83L170.74,61.25L172.16,76.42L172.88,71.74L173.59,78.52L174.3,102.56L175.01,64.48L175.72,69.81L177.86,75.13L178.57,58.19L179.28,58.67L179.99,64.8L180.7,67.39L181.41,76.9L182.84,89.17L183.55,92.72L184.97,121.11L185.68,93.68L186.39,90.46L187.1,103.52L188.53,64.97L189.24,65.13L189.95,68.51L190.66,79.16L191.37,81.1L192.08,78.36L192.8,82.71L193.51,94.17L194.22,96.26L194.93,109.17L196.35,131.11L197.06,130.47L197.78,144.18L198.49,116.27L199.91,141.28L200.62,142.08L201.33,151.28L202.04,150.64L202.76,150.8L203.47,152.41L204.89,173.55L205.6,186.29L207.74,181.61L208.45,180.97L209.16,199.68L209.87,139.18L211.29,151.76L212,153.86L212.72,150.8L213.43,158.38L214.14,157.25L214.85,150.47L215.56,161.61L216.27,118.37L216.98,120.47L217.7,118.85L219.12,128.05L219.83,123.21L220.54,124.66L221.25,134.99L221.96,103.04L222.68,112.24L223.39,111.91L224.1,107.72L224.81,105.46L225.52,114.01L226.94,117.4L227.66,134.66L228.37,137.73L229.08,148.22L229.79,151.93L230.5,160.64L231.21,150.96L231.92,157.57L232.64,167.74L233.35,139.18L234.06,146.76L234.77,146.6L235.48,145.8L236.19,151.44L236.9,149.67L238.33,152.41L239.04,152.09L240.46,163.06L241.17,167.09L241.88,160.64L242.6,169.03L244.73,189.84L245.44,148.54L246.86,182.26L247.58,175L249,180.48L249.71,175.32L250.42,188.07L251.13,135.31L251.84,135.15L252.56,141.12L253.27,138.86L253.98,159.19L254.69,162.74L255.4,173.87L256.11,100.62L256.82,118.53L258.25,133.21L258.96,134.66L261.09,166.93L261.8,143.21L262.52,161.12L263.23,159.02L263.94,190.16L264.65,129.82L265.36,84.49L266.07,86.91L266.78,89.33L267.49,85.29L268.21,85.45L268.92,92.72L269.63,86.26L270.34,93.2L271.76,102.4L272.47,112.08L274.61,130.31L275.32,142.89L276.03,154.83L276.74,123.05L277.45,117.56L278.17,124.5L278.88,123.21L279.59,130.31L281.01,146.12L281.72,145.8L282.43,160.32L283.86,144.83L284.57,158.22L285.99,97.23L286.7,95.78L287.41,92.88L288.13,94.33L290.26,109.98L290.97,110.14L291.68,110.62L292.39,108.2L293.11,106.11L293.82,110.3L294.53,114.82L295.24,109.33L295.95,110.3L296.66,125.79L297.37,83.52L298.09,89.17L299.51,108.04L300.22,111.27L300.93,116.92L301.64,78.84L303.78,95.3L304.49,98.85L305.2,95.94L305.91,97.39L306.62,96.59L307.33,97.23L309.47,121.27L310.18,128.69L311.6,93.68L312.31,90.94L313.03,95.94L313.74,92.07L315.16,105.3L315.87,149.02L316.58,149.51L317.29,155.96L318.72,151.44L319.43,148.54L320.14,152.41L320.85,149.67L321.56,152.41L322.27,150.31L325.12,191.61L325.83,197.75L326.54,204.2L327.25,225.01L327.97,197.42L328.68,104.98L329.39,108.2L330.1,115.14L330.81,124.98L331.52,83.84L332.23,80.78L332.95,90.3L334.37,107.56L335.08,104.98L335.79,109.17L336.5,108.53L337.21,105.14L337.93,105.62L338.64,106.91L339.35,125.14L340.06,80.78L340.77,82.23L341.48,106.91L342.19,107.72L342.91,120.63L345.04,190.49L345.75,151.28L346.46,149.83L347.17,153.7L347.89,159.99L348.6,159.02L350.02,189.68L350.73,133.05L351.44,137.41L352.15,130.63L352.87,134.99L353.58,131.44L356.42,149.83L357.13,148.86L357.85,150.8L358.56,156.44L359.27,156.28L359.98,166.28L360.69,166.77L361.4,183.87L362.11,132.24L362.83,144.34L363.54,144.34L364.25,150.15L366.38,169.19L367.09,139.18L368.52,146.12L369.23,159.83L370.65,178.06L371.36,200.81L372.07,200L372.79,203.55L373.5,204.68L374.21,202.75L374.92,213.72L375.63,212.43L376.34,210.33L377.05,210.65L377.77,212.75L378.48,218.56L379.19,217.75L379.9,219.69L380.61,227.27L381.32,227.11L382.03,226.79L382.75,227.43L383.46,225.98L384.17,225.5L384.88,226.63L385.59,235.5L386.3,233.4L387.01,238.4L387.73,257.44L389.15,215.98L389.86,227.75L390.57,188.39L391.28,190.16L391.99,191.94L392.71,194.52L393.42,201.3L394.13,220.98L394.84,213.72L395.55,220.66L396.26,219.85L396.97,218.4L397.69,223.56L398.4,227.27L399.11,225.5L400.53,230.98L401.24,232.11L402.67,242.6L403.38,237.43L404.8,246.31L405.51,245.34L406.22,255.99L406.93,211.78L407.65,213.88L408.36,225.82L409.07,227.11L409.78,230.01L410.49,229.85L411.2,238.56L411.91,234.85L412.63,237.92L413.34,236.31L414.05,243.89L414.76,245.99L415.47,255.83L417.61,287.45L418.32,233.72L419.03,232.43L419.74,229.05L420.45,235.01L421.16,230.01L422.59,219.69L423.3,225.01L424.01,217.27L424.72,221.78L426.85,209.36L427.57,206.46L428.28,203.07L428.99,210.33L429.7,212.75L430.41,192.26L431.83,194.52L432.55,198.71L433.26,206.78L433.97,204.84L434.68,214.85L435.39,210.49L436.81,231.95L437.53,238.89L438.24,237.27L438.95,238.4L440.37,253.73L441.08,124.98L442.51,132.73L443.22,145.96L443.93,150.31L444.64,159.51L446.06,129.5L446.77,134.5L447.48,137.57L448.2,144.83L448.91,152.25L449.62,147.73L452.46,179.19L453.18,144.83L453.89,157.09L454.6,140.47L455.31,119.82L456.02,125.95L458.87,151.6L459.58,109.98L460.29,117.24L461,114.98L461.71,115.79L462.42,109.17L465.27,129.82L465.98,133.37L467.4,146.92L468.12,144.5L468.83,143.21L469.54,143.7L470.25,145.31L470.96,149.02L471.67,154.02L472.38,169.35L473.1,180.48L473.81,146.92L474.52,165.64L475.23,110.95L475.94,116.11L476.65,113.53L478.79,122.08L479.5,122.08L480.21,122.89L480.92,131.44L483.06,141.12L483.77,154.18L484.48,169.19L485.19,168.87L485.9,181.29L486.61,154.99L487.32,158.22L488.04,159.51L488.75,177.42L489.46,177.74L490.17,194.68L490.88,158.54L491.59,164.35L493.02,182.42L493.73,187.9L494.44,207.75L495.15,147.89L495.86,142.57L496.57,144.34L498.71,160.15L499.42,160.48L501.55,162.41L502.26,166.45L502.98,169.19L503.69,187.26L504.4,139.66L505.11,140.31L505.82,144.5L508.67,181.93L509.38,183.39L511.51,204.36L512.22,202.91L512.94,213.4L513.65,213.23L514.36,250.18L515.07,132.57L515.78,137.08L516.49,143.86L517.2,156.44L517.92,154.99L520.05,180.97L520.76,139.83L521.47,139.34L522.18,148.38L522.9,148.22L523.61,153.38L527.16,194.52L527.88,149.34L528.59,157.9L529.3,156.12L531.43,173.22L532.14,187.74L534.99,243.4L535.7,244.53L536.41,243.4L537.12,249.05L537.84,225.5L538.55,229.37L539.26,236.95L539.97,236.14L542.1,266.15L542.82,236.95L544.24,265.83L544.95,201.3L545.66,202.91L546.37,216.78L547.08,224.04L547.8,162.09L548.51,161.93L549.22,171.45L549.93,175L550.64,171.77L552.06,187.1L552.78,184.68L553.49,190.49L554.2,203.39L554.91,217.11L555.62,183.23L556.33,182.42L557.04,190L558.47,187.1L559.18,187.74L562.02,209.36L562.74,209.2L563.45,219.53L564.16,176.61L566.29,198.23L567,197.26L569.14,217.27L569.85,233.08L571.27,263.25L571.98,227.92L572.7,244.53L573.41,192.58L574.12,211.46L574.83,210.98L575.54,210.33L576.25,221.14L576.96,160.15L579.1,186.29L579.81,169.83L580.52,169.51L581.23,166.93L583.37,173.87L584.08,173.06L585.5,193.07L586.21,148.05L586.92,156.77L587.64,155.48L589.77,168.22L590.48,178.06L591.9,199.68L592.62,176.61L593.33,174.35L594.04,182.9L594.75,156.6L595.46,163.86L596.88,188.23L597.6,152.73L598.31,151.76L599.02,149.34L600.44,155.31L601.15,159.99L602.58,163.38L603.29,173.71L604,176.29L604.71,192.91L605.42,202.26L606.13,223.4L606.84,178.22L607.56,184.68L608.98,195.16L609.69,193.87L610.4,198.39L611.11,196.13L612.54,201.94L613.25,209.85L614.67,226.14L615.38,190.65L616.09,202.91L616.8,200.97L618.23,227.92L618.94,230.01L619.65,242.6L620.36,206.14L621.07,218.24L621.78,243.24L623.21,237.11L623.92,245.18L625.34,247.6L626.05,246.63L626.76,250.99L627.47,209.85L628.19,210.17L628.9,213.56L630.32,210.49L631.03,205.01L632.45,213.07L633.17,212.59L634.59,215.98L635.3,213.4L636.72,226.3L637.43,221.62L638.86,225.33L639.57,225.01L640.28,220.49L640.99,220.66L641.7,218.24L642.41,220.98L643.13,218.56L643.84,222.27L644.55,216.62L645.26,217.27L645.97,220.17L648.11,218.4L648.82,218.72L650.24,219.36L650.95,216.62L652.37,238.56L653.09,196.29L653.8,194.68L654.51,202.75L655.93,208.88L656.64,211.78L657.35,212.1L658.07,215.17L658.78,214.52L659.49,218.88L660.2,217.75L660.91,222.91L663.05,237.11L663.76,236.47L666.6,255.5L667.31,263.25L668.03,264.06L668.74,261.47L669.45,260.99L670.16,266.64L670.87,269.38L671.58,268.57L672.29,269.7L673.01,268.57L673.72,268.73L674.43,278.58L675.14,286.16L675.85,208.39L677.27,215.98L677.99,223.72L678.7,182.74L679.41,183.71L680.12,182.74L682.25,191.29L682.97,188.87L684.39,202.26L685.1,205.17L685.81,207.43L686.52,212.27L687.23,213.72L687.95,219.69L690.08,242.76L690.79,244.37L691.5,245.99L692.21,249.7L693.64,220.01L694.35,222.27L695.77,221.14L696.48,223.24L697.19,218.4L697.91,219.85L698.62,225.33L699.33,224.85L700.04,227.75L700.75,223.88L702.17,237.6L702.89,233.24L703.6,233.89L704.31,246.15L705.02,245.99L705.73,241.15L706.44,256.96L707.15,222.11L707.87,222.91L708.58,232.59L709.29,219.53L710,237.11" style="vector-effect: none; fill: none; stroke: rgb(148, 103, 189); stroke-opacity: 1; stroke-width: 2px; opacity: 1;"/></g><g class="points"/><g class="text"/></g><g class="trace scatter traceb11483" style="stroke-miterlimit: 2; opacity: 1;"><g class="fills"/><g class="errorbars"/><g class="lines"><path class="js-line" d="M0,54.8L1.42,59.32L2.13,55.93L4.98,87.55L5.69,84.97L6.4,91.42L7.11,50.44L9.96,65.93L10.67,73.84L12.09,95.46L12.81,112.08L13.52,48.75L14.23,63.19L15.65,95.86L16.36,93.44L17.07,91.91L17.79,100.3L18.5,100.94L19.21,105.62L19.92,107.24L20.63,133.78L22.05,130.71L22.77,146.12L24.19,173.79L24.9,144.91L25.61,101.91L26.32,129.02L27.03,150.07L27.75,85.21L28.46,85.78L29.17,100.38L30.59,106.35L31.3,124.26L32.73,147.57L33.44,151.93L34.15,152.73L34.86,178.79L36.28,136.68L36.99,144.83L37.71,148.13L38.42,145.55L40.55,167.01L41.26,166.2L41.97,186.21L42.69,152.73L43.4,94.97L44.11,105.62L45.53,86.26L46.24,95.7L46.95,93.84L47.67,95.46L50.51,126.11L51.22,145.88L51.93,143.46L52.65,156.36L53.36,126.6L54.07,132.48L54.78,122.72L55.49,63.19L57.63,80.53L58.34,80.61L59.76,93.12L60.47,101.35L61.18,100.86L61.89,120.47L62.61,104.33L63.32,115.95L64.03,88.36L64.74,96.35L66.16,131.27L66.87,126.92L67.59,139.83L68.3,93.52L69.01,90.78L69.72,91.75L70.43,104.9L71.14,88.6L71.85,89.73L72.57,66.82L73.28,65.37L73.99,74.97L74.7,62.79L75.41,67.71L76.12,59.72L76.83,60.04L77.55,58.43L78.97,90.94L79.68,90.62L80.39,99.57L81.1,95.54L83.24,133.37L83.95,132.48L84.66,164.27L85.37,119.82L86.08,99.57L86.79,107.07L87.51,91.02L88.22,101.19L90.35,129.02L91.06,120.38L91.77,124.01L92.48,101.43L93.2,108.69L93.91,90.78L94.62,89.57L95.33,99.25L96.04,103.28L96.75,93.93L98.89,116.19L99.6,134.34L100.31,115.22L101.02,124.18L101.73,102.88L102.44,118.61L103.87,63.84L104.58,67.14L106,72.31L106.71,77.95L107.42,89.49L108.14,68.19L109.56,77.31L110.27,95.05L111.69,74.89L112.4,74.65L113.83,84.81L114.54,91.51L115.25,111.99L115.96,109.82L118.1,132.65L118.81,97.8L120.23,126.92L120.94,76.9L122.36,81.74L123.08,86.34L123.79,92.31L124.5,108.61L125.21,110.06L125.92,123.45L126.63,107.96L127.34,114.5L128.06,95.54L128.77,100.62L130.9,105.46L131.61,106.03L132.32,129.58L133.04,99.81L134.46,115.87L135.17,117.48L135.88,127.32L136.59,109.33L137.3,91.42L138.02,95.46L138.73,80.7L139.44,84.97L140.15,86.5L140.86,95.14L141.57,75.05L142.28,79.24L143,82.95L143.71,92.39L145.84,105.94L146.55,125.31L147.26,81.66L147.98,85.7L149.4,92.72L150.11,104.33L150.82,97.56L151.53,78.52L153.67,101.1L154.38,120.47L155.09,108.69L155.8,62.06L156.51,62.87L157.22,73.27L159.36,122L160.07,112.16L161.49,93.52L162.2,92.31L162.92,91.51L163.63,95.05L164.34,94.41L165.05,92.39L166.47,107.96L167.18,90.38L169.32,102.64L170.03,82.95L170.74,97.96L171.45,87.71L173.59,108.69L174.3,88.44L175.01,100.3L175.72,97.07L177.14,78.03L177.86,83.68L178.57,89.89L179.28,107.15L179.99,118.05L180.7,102.64L181.41,117.56L182.12,103.12L182.84,113.53L183.55,93.2L185.68,113.45L186.39,107.15L187.1,116.84L187.82,87.55L188.53,92.47L189.24,90.38L191.37,109.01L192.08,92.72L194.22,125.71L194.93,95.7L196.35,115.3L197.06,116.11L198.49,140.63L199.2,139.91L199.91,139.99L200.62,155.07L202.76,121.84L203.47,127.89L204.18,108.04L204.89,125.79L206.31,141.2L207.02,144.5L208.45,148.7L209.16,155.72L209.87,134.26L210.58,150.15L212,160.23L212.72,158.86L213.43,162.74L214.14,161.85L215.56,171.93L216.27,184.6L216.98,156.12L217.7,162.65L219.12,171.93L219.83,147.09L220.54,146.84L221.25,158.78L221.96,164.03L222.68,160.32L225.52,206.78L226.23,196.29L226.94,200.17L227.66,190.49L229.08,151.2L229.79,157.49L230.5,136.84L231.21,140.63L234.77,162.49L235.48,173.55L236.9,126.27L237.62,127.24L238.33,126.6L239.04,128.53L239.75,131.84L240.46,91.91L243.31,98.36L244.02,100.22L245.44,116.43L246.15,111.19L248.29,123.69L249,127.89L249.71,121.84L250.42,129.74L251.13,137.49L251.84,117.56L252.56,122.56L253.27,113.45L255.4,148.13L256.11,133.29L256.82,146.2L257.54,100.46L259.67,109.9L260.38,111.91L261.09,120.3L261.8,114.5L263.94,142.81L264.65,99.33L265.36,81.1L266.07,89.41L267.49,96.26L268.21,96.43L268.92,97.07L269.63,103.61L271.76,133.61L272.47,139.58L273.19,138.7L273.9,164.59L274.61,151.52L275.32,166.85L276.03,159.75L276.74,163.7L278.17,118.85L278.88,123.85L279.59,121.76L280.3,102.56L281.01,88.92L281.72,90.13L282.43,94.73L283.15,105.46L283.86,94.33L284.57,105.06L285.28,79.65L285.99,89.97L286.7,89.09L287.41,76.58L289.55,90.38L290.26,94.09L292.39,121.76L293.11,119.74L293.82,140.39L294.53,119.09L295.95,137.16L296.66,158.86L297.37,142.57L298.09,160.15L298.8,160.4L299.51,148.38L300.22,152.65L300.93,151.76L302.35,161.2L303.07,179.51L303.78,132.65L304.49,138.45L305.2,145.47L305.91,122.16L307.33,131.19L308.05,132.32L310.18,151.52L310.89,117.64L312.31,125.22L313.03,120.71L313.74,122.24L314.45,132.89L315.16,138.53L315.87,155.8L317.29,115.38L318.01,121.68L319.43,104.41L320.14,106.51L321.56,105.54L322.27,113.61L323.7,123.37L324.41,133.53L325.12,130.39L325.83,134.66L326.54,135.15L327.25,142.89L327.97,153.22L328.68,137.49L330.1,160.07L330.81,145.07L333.66,183.55L334.37,150.96L335.08,130.71L335.79,135.79L336.5,133.13L337.21,140.07L337.93,154.02L338.64,133.86L339.35,109.66L340.06,122.24L340.77,121.92L341.48,129.18L342.91,115.38L343.62,125.71L344.33,124.58L345.04,136.03L347.89,175.64L348.6,177.01L350.02,209.77L350.73,175.4L352.15,199.36L352.87,171.85L353.58,172.34L354.29,178.79L355,191.94L355.71,175.24L357.13,182.82L357.85,195L358.56,170.32L359.27,171.04L359.98,179.43L360.69,181.45L361.4,172.42L362.11,144.34L362.83,155.23L363.54,164.67L364.25,151.12L364.96,152.65L365.67,157.17L367.81,171.53L368.52,155.72L370.65,183.63L371.36,167.33L372.07,171.13L372.79,181.45L374.21,192.91L374.92,205.89L376.34,154.02L377.05,156.36L377.77,158.54L378.48,166.37L379.19,166.37L379.9,179.68L380.61,140.55L381.32,141.28L382.03,140.15L382.75,142.49L383.46,140.23L384.88,140.23L385.59,151.44L387.01,155.39L387.73,172.01L388.44,156.6L389.15,158.94L390.57,194.28L391.28,150.8L391.99,130.63L392.71,135.71L393.42,139.99L394.13,105.14L394.84,107.8L395.55,118.29L396.26,113.69L396.97,122.8L399.11,135.47L399.82,135.15L401.24,146.12L401.95,157.98L402.67,161.53L403.38,169.43L404.09,150.96L404.8,165.56L405.51,129.9L406.22,138.86L406.93,125.14L407.65,126.43L408.36,137.24L409.07,124.42L409.78,125.55L410.49,131.44L411.2,134.18L411.91,147.97L412.63,147.33L413.34,143.78L414.05,155.39L414.76,131.36L416.18,143.78L416.89,108.04L419.03,130.23L419.74,132.08L423.3,156.69L424.01,171.37L424.72,172.01L425.43,180.72L427.57,131.36L428.28,135.07L429.7,147.25L430.41,141.04L431.83,153.7L432.55,148.94L433.26,101.75L433.97,104.09L434.68,106.75L435.39,104.33L436.1,116.35L436.81,115.87L437.53,119.9L438.24,120.63L438.95,117.64L441.08,143.7L441.79,132.89L443.22,157.98L443.93,110.3L445.35,122.24L446.06,130.55L447.48,137.89L448.2,157.09L449.62,122.48L450.33,130.55L451.04,133.69L451.75,120.06L452.46,128.29L453.18,146.6L454.6,117.08L455.31,122.48L456.02,115.06L456.73,122L458.87,129.18L459.58,120.14L461,119.09L461.71,121.27L462.42,118.21L463.14,126.19L463.85,134.9L464.56,132.4L466.69,160.15L467.4,134.9L468.12,118.93L468.83,123.45L469.54,111.35L470.25,113.37L470.96,123.13L471.67,118.21L472.38,138.13L473.1,110.38L474.52,124.01L475.23,129.98L476.65,143.62L477.36,125.14L478.08,132.4L478.79,131.52L480.92,143.7L481.63,129.82L482.34,129.98L483.06,113.53L484.48,134.42L485.19,120.14L487.32,138.05L488.04,139.02L488.75,160.32L489.46,142.25L490.17,157.01L490.88,153.22L492.3,177.01L493.02,151.76L494.44,161.36L495.15,158.86L496.57,181.53L497.28,165.24L498,168.22L498.71,177.66L499.42,161.2L500.13,164.83L500.84,171.93L501.55,152.33L502.26,152.89L502.98,160.96L503.69,176.93L504.4,160.88L505.11,161.04L505.82,163.95L507.96,206.46L508.67,187.26L509.38,167.58L510.09,181.05L511.51,140.55L512.22,145.63L513.65,122.32L514.36,133.37L515.78,136.84L516.49,146.12L517.2,154.35L517.92,129.42L518.63,138.45L519.34,136.03L522.18,169.83L522.9,151.04L523.61,151.6L524.32,157.09L525.03,153.78L525.74,161.04L526.45,142.73L527.16,144.67L527.88,143.05L528.59,151.76L529.3,151.12L530.01,161.36L533.57,218.32L534.28,197.75L534.99,199.04L535.7,203.31L536.41,202.91L537.12,208.31L537.84,208.07L538.55,220.9L539.26,205.25L539.97,167.33L540.68,165.8L541.39,173.95L542.1,161.53L542.82,133.69L544.95,171.04L545.66,131.76L546.37,143.94L547.08,142.65L547.8,140.23L548.51,148.86L549.22,138.86L549.93,142.25L550.64,139.26L551.35,149.99L552.06,122.89L552.78,124.58L553.49,127L554.2,143.29L554.91,149.26L555.62,148.46L556.33,149.75L557.04,166.53L558.47,127.56L559.18,126.52L561.31,153.22L562.02,154.75L562.74,154.1L563.45,165.48L564.16,179.19L564.87,150.47L565.58,163.95L566.29,146.92L567,149.67L567.72,161.77L568.43,109.66L569.14,116.59L570.56,133.21L571.27,152.09L571.98,138.13L572.7,156.28L573.41,134.1L574.12,136.84L574.83,121.68L575.54,130.23L576.25,126.35L576.96,132.32L578.39,153.22L579.1,158.3L580.52,178.06L581.23,177.9L581.94,175.48L582.66,193.47L583.37,171.85L584.08,148.05L584.79,153.62L585.5,154.1L586.21,156.12L586.92,168.3L587.64,150.8L588.35,155.48L589.06,144.91L589.77,151.2L590.48,169.67L591.19,118.53L591.9,125.14L592.62,136.76L593.33,120.06L595.46,151.12L596.17,136.03L596.88,115.79L597.6,116.59L598.31,121.76L599.02,124.1L599.73,131.76L601.15,158.06L601.86,151.68L602.58,157.01L603.29,169.27L604,189.68L604.71,181.85L606.13,149.99L606.84,155.31L608.27,185.56L608.98,165.96L610.4,174.76L611.11,182.26L611.82,178.71L612.54,186.77L613.25,159.99L613.96,161.2L614.67,161.36L615.38,166.61L616.09,180.89L616.8,165.88L617.52,174.27L618.23,183.23L618.94,167.74L623.21,188.63L623.92,167.66L625.34,172.5L626.05,176.37L626.76,193.31L627.47,184.44L628.9,137.65L629.61,137.24L630.32,138.78L631.03,144.42L631.74,140.31L632.45,147.57L633.17,146.68L633.88,155.31L634.59,154.99L635.3,165.07L636.01,170.48L636.72,182.82L637.43,188.23L638.15,161.28L643.13,182.9L643.84,183.95L644.55,189.68L645.26,177.09L646.68,174.27L647.39,178.22L648.11,181.37L648.82,211.94L649.53,222.59L650.24,220.9L650.95,224.04L651.66,243.73L652.37,233L653.09,233.72L653.8,238.89L654.51,255.99L655.93,200.65L656.64,204.2L657.35,166.85L658.07,167.66L658.78,166.2L659.49,170.64L660.2,166.53L661.62,173.3L662.33,180.97L663.76,190.97L664.47,191.86L665.89,210.09L666.6,217.91L668.03,193.07L668.74,197.42L669.45,194.44L670.16,197.99L670.87,202.34L671.58,193.95L672.29,192.26L673.01,193.95L673.72,193.47L674.43,197.99L675.85,206.05L676.56,208.8L677.27,213.8L677.99,225.82L678.7,223.88L679.41,234.29L680.83,185.32L681.54,192.1L682.97,200.41L683.68,212.91L684.39,177.66L685.1,181.53L687.95,194.44L688.66,207.1L689.37,192.42L690.08,197.83L691.5,201.13L692.21,205.17L693.64,209.2L694.35,218.64L695.77,236.22L696.48,214.69L697.19,214.69L697.91,224.29L698.62,245.9L699.33,156.85L702.17,171.93L702.89,202.51L704.31,214.12L705.02,199.2L707.15,207.59L707.87,207.91L708.58,216.38L709.29,206.62L710,205.65" style="vector-effect: none; fill: none; stroke: rgb(140, 86, 75); stroke-opacity: 1; stroke-width: 2px; opacity: 1;"/></g><g class="points"/><g class="text"/></g><g class="trace scatter trace349d01" style="stroke-miterlimit: 2; opacity: 1;"><g class="fills"/><g class="errorbars"/><g class="lines"><path class="js-line" d="M0,61.25L0.71,63.03L1.42,69.16L2.13,65.13L2.85,73.52L4.98,90.3L5.69,86.58L7.11,93.36L7.83,102.23L8.54,120.95L9.25,88.2L9.96,80.78L10.67,82.07L11.38,94.65L12.09,47.38L12.81,53.51L13.52,47.86L15.65,78.68L16.36,76.42L18.5,91.1L19.21,90.62L19.92,95.94L20.63,124.18L21.34,124.5L22.05,129.5L24.19,192.26L24.9,125.31L25.61,68.35L26.32,75.29L27.03,86.91L27.75,48.35L29.17,41.73L29.88,43.18L30.59,39.96L31.3,57.06L32.01,62.55L32.73,59.32L34.15,81.26L34.86,90.13L36.28,132.89L36.99,113.53L37.71,112.72L38.42,113.85L41.26,147.09L41.97,166.28L42.69,86.75L43.4,104.98L44.82,67.87L45.53,64.97L46.24,58.83L46.95,64.16L47.67,65.93L48.38,80.61L49.8,103.04L50.51,114.66L52.65,162.25L53.36,88.36L54.07,92.72L54.78,113.69L55.49,125.14L56.2,67.71L57.63,79.32L58.34,82.39L59.05,84.49L59.76,109.82L61.89,142.89L62.61,120.79L63.32,71.9L64.03,83.03L65.45,92.23L66.16,104.49L67.59,126.92L68.3,83.36L71.14,96.43L71.85,111.75L72.57,65.45L73.28,78.19L75.41,102.88L76.12,94.81L76.83,119.66L77.55,66.9L78.26,67.22L78.97,66.26L79.68,80.94L80.39,79.16L81.81,88.04L82.53,84.65L83.24,102.4L83.95,100.14L86.08,154.67L86.79,102.23L87.51,103.36L88.22,129.34L88.93,78.68L89.64,89.97L90.35,53.19L91.06,57.06L93.2,78.84L93.91,81.42L94.62,96.26L95.33,44.8L97.46,71.42L98.18,78.84L98.89,71.58L99.6,98.68L100.31,59.32L101.02,73.19L101.73,72.87L102.44,86.91L103.16,93.52L103.87,93.36L104.58,96.1L105.29,93.52L106,113.69L107.42,55.93L108.14,58.51L108.85,59.96L109.56,58.67L110.27,66.09L110.98,59.32L112.4,105.46L113.12,53.51L113.83,59.32L114.54,55.12L115.25,51.74L115.96,58.03L116.67,63.35L117.38,74.65L118.1,63.19L118.81,88.84L119.52,89L120.23,98.36L122.36,135.31L123.08,92.39L123.79,51.74L124.5,55.12L125.21,68.19L125.92,54.8L127.34,70.77L128.06,65.13L129.48,70.61L130.19,72.39L131.61,75.13L132.32,101.91L133.75,116.59L134.46,140.15L135.17,138.7L135.88,145.96L136.59,160.32L137.3,154.67L138.02,187.42L138.73,93.04L139.44,94.65L140.15,98.36L140.86,113.37L141.57,75.77L142.28,76.42L143,82.55L144.42,44.31L145.13,43.35L145.84,52.86L146.55,49.48L147.26,45.12L147.98,49.8L149.4,71.9L150.11,92.39L150.82,70.45L151.53,88.68L152.96,60.93L153.67,63.35L155.09,77.55L155.8,81.42L156.51,83.68L157.22,94.49L158.65,119.17L159.36,64.32L160.78,71.58L161.49,88.2L162.2,91.75L162.92,101.27L165.05,115.46L165.76,130.79L166.47,121.76L167.18,94.49L167.9,105.94L168.61,64.32L169.32,67.71L170.03,65.77L170.74,68.68L171.45,76.26L174.3,113.04L175.01,122.08L175.72,137.24L176.43,136.11L177.14,112.72L177.86,119.01L178.57,85.62L179.28,87.39L179.99,87.23L182.12,108.53L182.84,74.32L183.55,77.71L184.26,76.74L184.97,83.36L185.68,81.74L188.53,111.11L189.24,75.45L189.95,76.9L190.66,86.42L193.51,115.95L194.22,127.4L194.93,141.6L195.64,119.66L196.35,119.5L197.06,127.56L199.2,145.63L199.91,108.04L201.33,137.41L202.04,114.33L202.76,115.79L203.47,121.27L204.89,143.7L205.6,156.28L207.02,90.3L207.74,90.46L208.45,85.94L209.16,86.42L210.58,98.2L211.29,110.78L212.72,83.03L213.43,87.39L214.14,85.78L214.85,86.91L216.27,98.85L216.98,98.68L217.7,99.49L219.83,106.59L220.54,111.11L221.25,113.85L221.96,106.75L224.1,120.79L224.81,136.92L227.66,185.32L228.37,159.35L229.08,103.85L229.79,119.66L230.5,126.6L231.21,75.29L232.64,80.94L233.35,75.61L234.77,87.23L235.48,86.26L236.19,87.55L236.9,91.26L239.04,120.47L239.75,130.95L240.46,129.34L241.17,141.92L241.88,92.55L242.6,110.14L243.31,111.43L244.02,117.72L245.44,187.74L246.15,208.72L246.86,181.45L247.58,189.84L248.29,183.55L249,183.71L249.71,186.61L250.42,193.55L251.13,193.23L251.84,193.07L253.27,211.46L253.98,102.88L254.69,101.59L255.4,112.24L258.25,156.77L258.96,116.75L260.38,123.05L261.09,79L262.52,96.43L263.23,98.52L264.65,111.27L265.36,111.11L267.49,133.37L268.21,94.33L268.92,93.36L269.63,108.04L270.34,110.3L271.05,116.92L271.76,120.63L272.47,116.92L275.32,135.95L276.03,99.81L276.74,118.37L277.45,83.2L278.17,84.65L278.88,83.84L281.01,88.2L281.72,86.58L283.15,109.01L283.86,109.17L287.41,141.6L288.13,158.38L288.84,121.59L289.55,143.54L290.97,91.42L291.68,94.81L293.11,116.11L293.82,81.42L294.53,81.26L295.24,93.04L295.95,93.68L296.66,109.33L297.37,113.2L298.09,125.95L298.8,125.14L299.51,138.05L300.22,155.64L300.93,128.21L301.64,141.6L302.35,135.95L303.07,147.41L303.78,146.28L304.49,144.02L305.2,150.15L308.05,184.68L308.76,140.79L309.47,97.39L310.18,101.27L311.6,98.68L312.31,100.62L313.03,102.4L313.74,102.07L315.87,129.66L316.58,94.01L317.29,98.2L318.01,95.14L320.85,113.69L321.56,129.18L322.27,135.31L322.99,99.98L324.41,115.79L325.12,125.31L325.83,128.05L326.54,136.28L327.97,93.04L328.68,109.98L329.39,122.24L330.1,81.91L331.52,91.59L332.23,92.72L333.66,114.98L334.37,95.3L335.08,101.27L335.79,98.68L336.5,101.27L337.21,100.3L338.64,108.36L339.35,117.24L340.77,90.3L341.48,89.33L342.91,98.04L343.62,103.04L344.33,112.88L345.04,107.07L345.75,130.63L346.46,88.84L347.17,105.62L347.89,59L348.6,52.7L349.31,65.29L350.02,81.58L350.73,78.03L351.44,79L352.15,84.81L352.87,101.43L353.58,100.94L354.29,109.66L355,126.92L355.71,97.39L356.42,114.5L357.13,60.45L358.56,81.74L359.27,74.97L359.98,82.71L360.69,81.58L362.83,111.91L363.54,113.85L364.96,148.54L365.67,86.58L366.38,62.22L367.09,70.45L367.81,89.97L368.52,78.19L369.94,98.2L370.65,56.25L371.36,59.16L372.07,67.06L372.79,64.97L373.5,66.58L374.92,96.1L375.63,93.52L376.34,93.84L377.05,108.04L379.19,139.5L379.9,114.17L380.61,145.15L381.32,126.6L382.75,129.5L383.46,142.41L384.17,79.49L384.88,92.72L385.59,115.95L386.3,20.11L388.44,31.73L389.15,30.6L389.86,31.25L390.57,48.99L391.28,54.64L391.99,54.32L392.71,67.22L393.42,85.13L394.13,81.1L394.84,94.01L395.55,91.75L396.97,104.82L397.69,81.58L398.4,87.07L399.11,84.81L400.53,114.98L401.24,114.66L401.95,125.31L402.67,123.21L404.09,147.41L404.8,116.59L406.22,68.03L406.93,78.84L407.65,98.04L408.36,54.8L409.07,58.03L409.78,55.93L410.49,62.22L411.2,60.93L412.63,82.55L413.34,94.49L414.05,102.56L414.76,99.81L416.18,130.63L416.89,87.71L417.61,98.52L418.32,60.77L419.03,65.77L419.74,61.58L421.16,72.23L421.87,74.65L422.59,89.65L423.3,53.83L424.01,63.03L424.72,59.32L426.14,68.51L426.85,74.48L429.7,119.17L430.41,115.79L431.12,124.34L431.83,108.85L432.55,123.37L433.26,84.16L433.97,91.26L434.68,109.82L435.39,68.03L436.1,83.36L436.81,86.58L437.53,106.43L438.24,106.27L438.95,117.24L439.66,121.92L440.37,121.11L441.08,154.35L441.79,112.08L442.51,119.01L443.22,134.02L444.64,147.57L445.35,162.74L446.77,56.25L447.48,48.51L448.2,58.51L448.91,51.9L450.33,47.86L451.04,46.57L451.75,55.12L452.46,50.28L456.02,97.39L456.73,99.01L458.16,132.89L458.87,102.88L459.58,113.2L460.29,84.33L461,72.06L461.71,79.16L462.42,89.33L463.14,85.62L464.56,103.2L465.27,104.49L466.69,139.99L467.4,107.72L468.12,112.24L468.83,123.85L469.54,128.21L470.25,111.91L470.96,123.05L471.67,82.87L473.1,61.09L473.81,65.13L474.52,64.8L475.23,81.42L475.94,84.65L476.65,96.91L478.08,103.04L478.79,121.27L479.5,85.13L480.21,88.04L480.92,89.33L481.63,78.19L482.34,86.91L483.06,84.16L484.48,126.6L485.19,93.04L485.9,90.78L486.61,103.36L488.04,111.43L488.75,137.24L489.46,141.92L490.17,120.3L490.88,121.27L491.59,124.18L492.3,126.76L493.02,126.27L494.44,139.5L495.15,145.63L497.28,176.45L498,150.8L498.71,153.86L499.42,148.54L500.13,166.12L500.84,124.18L502.26,144.5L502.98,105.78L503.69,121.59L504.4,74.48L506.53,85.62L507.24,82.55L508.67,84.49L509.38,93.84L510.09,78.19L510.8,84.65L511.51,79.65L512.22,85.94L512.94,87.71L513.65,85.45L516.49,118.05L517.2,115.14L518.63,139.83L519.34,94.33L520.05,89L520.76,107.56L521.47,106.11L522.18,114.17L522.9,116.75L523.61,89.97L524.32,93.04L525.03,99.49L525.74,104.17L526.45,125.63L528.59,167.41L529.3,142.08L530.72,139.99L531.43,146.92L532.14,160.48L532.86,103.2L534.99,112.72L535.7,114.82L536.41,118.53L537.12,126.76L537.84,131.76L538.55,146.6L539.97,184.35L540.68,180.16L541.39,194.2L542.1,142.25L542.82,161.93L543.53,92.72L544.24,41.25L544.95,59.48L545.66,61.09L546.37,71.26L547.08,30.76L547.8,35.12L552.06,72.06L552.78,72.87L554.2,111.91L554.91,78.03L555.62,89.81L556.33,89.33L557.04,95.62L557.76,104.33L558.47,74.16L559.89,84.16L560.6,81.1L561.31,107.88L562.02,69.16L562.74,69.81L563.45,72.39L566.29,110.78L567,64.32L569.14,85.29L569.85,99.65L570.56,107.07L571.27,139.02L571.98,135.47L572.7,95.46L573.41,96.43L574.12,63.51L574.83,58.67L575.54,70.77L577.68,112.88L578.39,59.8L579.1,58.35L579.81,61.09L580.52,64.8L581.23,79.97L584.08,127.4L584.79,108.53L585.5,73.35L586.21,73.68L586.92,81.74L587.64,84.16L588.35,93.84L590.48,150.96L591.19,182.1L591.9,142.89L592.62,169.51L593.33,61.74L594.04,70.13L595.46,78.19L596.17,71.9L596.88,71.9L597.6,77.55L598.31,87.39L599.02,81.42L601.15,100.62L601.86,67.39L602.58,75.13L603.29,72.55L604,72.55L604.71,85.78L605.42,85.94L606.13,99.49L606.84,110.46L607.56,77.55L608.98,97.88L609.69,96.91L610.4,101.43L611.11,113.04L611.82,123.53L612.54,84L613.25,85.94L613.96,95.14L614.67,92.55L615.38,124.34L616.09,140.63L616.8,95.94L618.23,126.92L618.94,127.89L619.65,154.51L620.36,102.56L621.07,102.23L621.78,116.92L622.49,86.1L623.21,88.36L624.63,110.14L625.34,121.59L626.05,120.14L626.76,132.89L628.19,158.54L628.9,82.39L631.74,97.39L632.45,94.01L633.17,95.14L633.88,104.17L634.59,59.16L635.3,69.97L636.72,87.71L637.43,90.78L638.86,89.49L639.57,92.07L640.99,113.2L641.7,107.24L643.13,148.22L643.84,92.55L644.55,88.2L645.26,94.81L646.68,108.69L647.39,105.14L648.11,136.76L648.82,100.62L649.53,59.8L650.24,68.03L650.95,65.13L651.66,78.36L653.09,89L653.8,98.68L654.51,98.36L655.22,118.37L655.93,126.92L656.64,68.35L657.35,71.58L658.07,83.36L660.2,112.72L660.91,80.94L663.76,138.7L664.47,100.62L666.6,120.79L667.31,121.92L668.74,134.66L669.45,146.6L670.16,100.3L670.87,105.62L671.58,110.46L672.29,126.76L673.01,144.18L673.72,142.41L674.43,163.22L675.14,136.6L675.85,140.31L676.56,117.56L678.7,46.41L679.41,47.38L680.83,44.48L681.54,45.44L682.25,41.41L682.97,46.73L683.68,48.35L684.39,63.67L685.1,65.61L685.81,78.36L686.52,75.61L687.23,87.71L687.95,104.33L688.66,67.06L689.37,68.51L690.08,74.16L691.5,79.81L692.21,106.91L692.93,107.4L693.64,118.69L694.35,117.56L695.06,113.04L695.77,136.76L696.48,109.33L697.91,132.57L698.62,106.91L699.33,111.91L700.04,131.76L700.75,131.76L701.46,151.93L702.89,90.46L703.6,93.2L704.31,91.1L705.02,92.55L706.44,98.52L707.15,105.62L707.87,105.14L708.58,119.34L710,135.63" style="vector-effect: none; fill: none; stroke: rgb(227, 119, 194); stroke-opacity: 1; stroke-width: 2px; opacity: 1;"/></g><g class="points"/><g class="text"/></g></g></g><g class="overplot"/><path class="xlines-above crisp" d="M0,0" style="fill: none;"/><path class="ylines-above crisp" d="M0,0" style="fill: none;"/><g class="overlines-above"/><g class="xaxislayer-above"><g class="xtick"><text text-anchor="middle" x="0" y="533" transform="translate(80,0)" style="font-family: 'Open Sans', verdana, arial, sans-serif; font-size: 12px; fill: rgb(68, 68, 68); fill-opacity: 1; white-space: pre; opacity: 1;">0</text></g><g class="xtick"><text text-anchor="middle" x="0" y="533" style="font-family: 'Open Sans', verdana, arial, sans-serif; font-size: 12px; fill: rgb(68, 68, 68); fill-opacity: 1; white-space: pre; opacity: 1;" transform="translate(222.28,0)">200</text></g><g class="xtick"><text text-anchor="middle" x="0" y="533" style="font-family: 'Open Sans', verdana, arial, sans-serif; font-size: 12px; fill: rgb(68, 68, 68); fill-opacity: 1; white-space: pre; opacity: 1;" transform="translate(364.57,0)">400</text></g><g class="xtick"><text text-anchor="middle" x="0" y="533" style="font-family: 'Open Sans', verdana, arial, sans-serif; font-size: 12px; fill: rgb(68, 68, 68); fill-opacity: 1; white-space: pre; opacity: 1;" transform="translate(506.85,0)">600</text></g><g class="xtick"><text text-anchor="middle" x="0" y="533" style="font-family: 'Open Sans', verdana, arial, sans-serif; font-size: 12px; fill: rgb(68, 68, 68); fill-opacity: 1; white-space: pre; opacity: 1;" transform="translate(649.14,0)">800</text></g></g><g class="yaxislayer-above"><g class="ytick"><text text-anchor="end" x="79" y="4.199999999999999" transform="translate(0,515.21)" style="font-family: 'Open Sans', verdana, arial, sans-serif; font-size: 12px; fill: rgb(68, 68, 68); fill-opacity: 1; white-space: pre; opacity: 1;">0.64</text></g><g class="ytick"><text text-anchor="end" x="79" y="4.199999999999999" style="font-family: 'Open Sans', verdana, arial, sans-serif; font-size: 12px; fill: rgb(68, 68, 68); fill-opacity: 1; white-space: pre; opacity: 1;" transform="translate(0,476.49)">0.66</text></g><g class="ytick"><text text-anchor="end" x="79" y="4.199999999999999" style="font-family: 'Open Sans', verdana, arial, sans-serif; font-size: 12px; fill: rgb(68, 68, 68); fill-opacity: 1; white-space: pre; opacity: 1;" transform="translate(0,437.77)">0.68</text></g><g class="ytick"><text text-anchor="end" x="79" y="4.199999999999999" style="font-family: 'Open Sans', verdana, arial, sans-serif; font-size: 12px; fill: rgb(68, 68, 68); fill-opacity: 1; white-space: pre; opacity: 1;" transform="translate(0,399.05)">0.7</text></g><g class="ytick"><text text-anchor="end" x="79" y="4.199999999999999" style="font-family: 'Open Sans', verdana, arial, sans-serif; font-size: 12px; fill: rgb(68, 68, 68); fill-opacity: 1; white-space: pre; opacity: 1;" transform="translate(0,360.33000000000004)">0.72</text></g><g class="ytick"><text text-anchor="end" x="79" y="4.199999999999999" style="font-family: 'Open Sans', verdana, arial, sans-serif; font-size: 12px; fill: rgb(68, 68, 68); fill-opacity: 1; white-space: pre; opacity: 1;" transform="translate(0,321.61)">0.74</text></g><g class="ytick"><text text-anchor="end" x="79" y="4.199999999999999" style="font-family: 'Open Sans', verdana, arial, sans-serif; font-size: 12px; fill: rgb(68, 68, 68); fill-opacity: 1; white-space: pre; opacity: 1;" transform="translate(0,282.89)">0.76</text></g><g class="ytick"><text text-anchor="end" x="79" y="4.199999999999999" style="font-family: 'Open Sans', verdana, arial, sans-serif; font-size: 12px; fill: rgb(68, 68, 68); fill-opacity: 1; white-space: pre; opacity: 1;" transform="translate(0,244.17000000000002)">0.78</text></g><g class="ytick"><text text-anchor="end" x="79" y="4.199999999999999" style="font-family: 'Open Sans', verdana, arial, sans-serif; font-size: 12px; fill: rgb(68, 68, 68); fill-opacity: 1; white-space: pre; opacity: 1;" transform="translate(0,205.45)">0.8</text></g><g class="ytick"><text text-anchor="end" x="79" y="4.199999999999999" style="font-family: 'Open Sans', verdana, arial, sans-serif; font-size: 12px; fill: rgb(68, 68, 68); fill-opacity: 1; white-space: pre; opacity: 1;" transform="translate(0,166.73)">0.82</text></g></g><g class="overaxes-above"/></g></g><g class="polarlayer"/><g class="smithlayer"/><g class="ternarylayer"/><g class="geolayer"/><g class="funnelarealayer"/><g class="pielayer"/><g class="iciclelayer"/><g class="treemaplayer"/><g class="sunburstlayer"/><g class="glimages"/><defs id="topdefs-1e632e"><g class="clips"/><clipPath id="legend1e632e"><rect width="595" height="48" x="0" y="0"/></clipPath></defs><g class="layer-above"><g class="imagelayer"/><g class="shapelayer"/></g><g class="infolayer"><g class="legend" pointer-events="all" transform="translate(80,76.00000000000001)"><rect class="bg" shape-rendering="crispEdges" width="595" height="48" x="0" y="0" style="stroke: rgb(68, 68, 68); stroke-opacity: 1; fill: rgb(255, 255, 255); fill-opacity: 1; stroke-width: 0px;"/><g class="scrollbox" transform="" clip-path="url(#legend1e632e)"><g class="groups"><g class="traces" transform="translate(0,14.5)" style="opacity: 1;"><text class="legendtext" text-anchor="start" x="40" y="4.680000000000001" style="font-family: 'Open Sans', verdana, arial, sans-serif; font-size: 12px; fill: rgb(68, 68, 68); fill-opacity: 1; white-space: pre;">Direct weighted</text><g class="layers" style="opacity: 1;"><g class="legendfill"/><g class="legendlines"><path class="js-line" d="M5,0h30" style="fill: none; stroke: rgb(31, 119, 180); stroke-opacity: 1; stroke-width: 2px;"/></g><g class="legendsymbols"><g class="legendpoints"/></g></g><rect class="legendtoggle" x="0" y="-9.5" width="137.703125" height="19" style="fill: rgb(0, 0, 0); fill-opacity: 0;"/></g><g class="traces" transform="translate(151.78125,14.5)" style="opacity: 1;"><text class="legendtext" text-anchor="start" x="40" y="4.680000000000001" style="font-family: 'Open Sans', verdana, arial, sans-serif; font-size: 12px; fill: rgb(68, 68, 68); fill-opacity: 1; white-space: pre;">Direct sampled</text><g class="layers" style="opacity: 1;"><g class="legendfill"/><g class="legendlines"><path class="js-line" d="M5,0h30" style="fill: none; stroke: rgb(255, 127, 14); stroke-opacity: 1; stroke-width: 2px;"/></g><g class="legendsymbols"><g class="legendpoints"/></g></g><rect class="legendtoggle" x="0" y="-9.5" width="133.5" height="19" style="fill: rgb(0, 0, 0); fill-opacity: 0;"/></g><g class="traces" transform="translate(303.5625,14.5)" style="opacity: 1;"><text class="legendtext" text-anchor="start" x="40" y="4.680000000000001" style="font-family: 'Open Sans', verdana, arial, sans-serif; font-size: 12px; fill: rgb(68, 68, 68); fill-opacity: 1; white-space: pre;">Gradual weighted</text><g class="layers" style="opacity: 1;"><g class="legendfill"/><g class="legendlines"><path class="js-line" d="M5,0h30" style="fill: none; stroke: rgb(44, 160, 44); stroke-opacity: 1; stroke-width: 2px;"/></g><g class="legendsymbols"><g class="legendpoints"/></g></g><rect class="legendtoggle" x="0" y="-9.5" width="149.28125" height="19" style="fill: rgb(0, 0, 0); fill-opacity: 0;"/></g><g class="traces" transform="translate(455.34375,14.5)" style="opacity: 1;"><text class="legendtext" text-anchor="start" x="40" y="4.680000000000001" style="font-family: 'Open Sans', verdana, arial, sans-serif; font-size: 12px; fill: rgb(68, 68, 68); fill-opacity: 1; white-space: pre;">Gradual regular</text><g class="layers" style="opacity: 1;"><g class="legendfill"/><g class="legendlines"><path class="js-line" d="M5,0h30" style="fill: none; stroke: rgb(214, 39, 40); stroke-opacity: 1; stroke-width: 2px;"/></g><g class="legendsymbols"><g class="legendpoints"/></g></g><rect class="legendtoggle" x="0" y="-9.5" width="136.78125" height="19" style="fill: rgb(0, 0, 0); fill-opacity: 0;"/></g><g class="traces" transform="translate(0,33.5)" style="opacity: 1;"><text class="legendtext" text-anchor="start" x="40" y="4.680000000000001" style="font-family: 'Open Sans', verdana, arial, sans-serif; font-size: 12px; fill: rgb(68, 68, 68); fill-opacity: 1; white-space: pre;">Gradual sampled</text><g class="layers" style="opacity: 1;"><g class="legendfill"/><g class="legendlines"><path class="js-line" d="M5,0h30" style="fill: none; stroke: rgb(148, 103, 189); stroke-opacity: 1; stroke-width: 2px;"/></g><g class="legendsymbols"><g class="legendpoints"/></g></g><rect class="legendtoggle" x="0" y="-9.5" width="145.0625" height="19" style="fill: rgb(0, 0, 0); fill-opacity: 0;"/></g><g class="traces" transform="translate(151.78125,33.5)" style="opacity: 1;"><text class="legendtext" text-anchor="start" x="40" y="4.680000000000001" style="font-family: 'Open Sans', verdana, arial, sans-serif; font-size: 12px; fill: rgb(68, 68, 68); fill-opacity: 1; white-space: pre;">Direct regular</text><g class="layers" style="opacity: 1;"><g class="legendfill"/><g class="legendlines"><path class="js-line" d="M5,0h30" style="fill: none; stroke: rgb(140, 86, 75); stroke-opacity: 1; stroke-width: 2px;"/></g><g class="legendsymbols"><g class="legendpoints"/></g></g><rect class="legendtoggle" x="0" y="-9.5" width="125.21875" height="19" style="fill: rgb(0, 0, 0); fill-opacity: 0;"/></g><g class="traces" transform="translate(303.5625,33.5)" style="opacity: 1;"><text class="legendtext" text-anchor="start" x="40" y="4.680000000000001" style="font-family: 'Open Sans', verdana, arial, sans-serif; font-size: 12px; fill: rgb(68, 68, 68); fill-opacity: 1; white-space: pre;">No MetaL</text><g class="layers" style="opacity: 1;"><g class="legendfill"/><g class="legendlines"><path class="js-line" d="M5,0h30" style="fill: none; stroke: rgb(227, 119, 194); stroke-opacity: 1; stroke-width: 2px;"/></g><g class="legendsymbols"><g class="legendpoints"/></g></g><rect class="legendtoggle" x="0" y="-9.5" width="99.4375" height="19" style="fill: rgb(0, 0, 0); fill-opacity: 0;"/></g></g></g><rect class="scrollbar" rx="20" ry="3" width="0" height="0" x="0" y="0" style="fill: rgb(128, 139, 164); fill-opacity: 1;"/></g><g class="g-gtitle"><text class="gtitle" x="400" y="75" text-anchor="middle" dy="0em" style="font-family: 'Open Sans', verdana, arial, sans-serif; font-size: 17px; fill: rgb(68, 68, 68); opacity: 1; font-weight: normal; white-space: pre;">Accuracy score by MetaL method for 4 nodes</text></g><g class="g-xtitle"><text class="xtitle" x="435" y="572" text-anchor="middle" style="font-family: 'Open Sans', verdana, arial, sans-serif; font-size: 14px; fill: rgb(68, 68, 68); opacity: 1; font-weight: normal; white-space: pre;">Aggregation methods</text></g><g class="g-ytitle"><text class="ytitle" transform="rotate(-90,42,335)" x="42" y="335" text-anchor="middle" style="font-family: 'Open Sans', verdana, arial, sans-serif; font-size: 14px; fill: rgb(68, 68, 68); opacity: 1; font-weight: normal; white-space: pre;">Accuracy score</text></g></g></svg>