<svg class="main-svg" xmlns="http://www.w3.org/2000/svg" xmlns:xlink="http://www.w3.org/1999/xlink" width="800" height="600" style="" viewBox="0 0 800 600"><rect x="0" y="0" width="800" height="600" style="fill: rgb(255, 255, 255); fill-opacity: 1;"/><defs id="defs-a929ee"><g class="clips"><clipPath id="clipa929eexyplot" class="plotclip"><rect width="710" height="370"/></clipPath><clipPath class="axesclip" id="clipa929eex"><rect x="80" y="0" width="710" height="600"/></clipPath><clipPath class="axesclip" id="clipa929eey"><rect x="0" y="150" width="800" height="370"/></clipPath><clipPath class="axesclip" id="clipa929eexy"><rect x="80" y="150" width="710" height="370"/></clipPath></g><g class="gradients"/><g class="patterns"/></defs><g class="bglayer"/><g class="layer-below"><g class="imagelayer"/><g class="shapelayer"/></g><g class="cartesianlayer"><g class="subplot xy"><g class="layer-subplot"><g class="shapelayer"/><g class="imagelayer"/></g><g class="minor-gridlayer"><g class="x"/><g class="y"/></g><g class="gridlayer"><g class="x"><path class="xgrid crisp" transform="translate(222.28,0)" d="M0,150v370" style="stroke: rgb(238, 238, 238); stroke-opacity: 1; stroke-width: 1px;"/><path class="xgrid crisp" transform="translate(364.57,0)" d="M0,150v370" style="stroke: rgb(238, 238, 238); stroke-opacity: 1; stroke-width: 1px;"/><path class="xgrid crisp" transform="translate(506.85,0)" d="M0,150v370" style="stroke: rgb(238, 238, 238); stroke-opacity: 1; stroke-width: 1px;"/><path class="xgrid crisp" transform="translate(649.14,0)" d="M0,150v370" style="stroke: rgb(238, 238, 238); stroke-opacity: 1; stroke-width: 1px;"/></g><g class="y"><path class="ygrid crisp" transform="translate(0,462.4)" d="M80,0h710" style="stroke: rgb(238, 238, 238); stroke-opacity: 1; stroke-width: 1px;"/><path class="ygrid crisp" transform="translate(0,385.73)" d="M80,0h710" style="stroke: rgb(238, 238, 238); stroke-opacity: 1; stroke-width: 1px;"/><path class="ygrid crisp" transform="translate(0,309.06)" d="M80,0h710" style="stroke: rgb(238, 238, 238); stroke-opacity: 1; stroke-width: 1px;"/><path class="ygrid crisp" transform="translate(0,232.39)" d="M80,0h710" style="stroke: rgb(238, 238, 238); stroke-opacity: 1; stroke-width: 1px;"/><path class="ygrid crisp" transform="translate(0,155.72)" d="M80,0h710" style="stroke: rgb(238, 238, 238); stroke-opacity: 1; stroke-width: 1px;"/></g></g><g class="zerolinelayer"><path class="xzl zl crisp" transform="translate(80,0)" d="M0,150v370" style="stroke: rgb(68, 68, 68); stroke-opacity: 1; stroke-width: 1px;"/></g><path class="xlines-below"/><path class="ylines-below"/><g class="overlines-below"/><g class="xaxislayer-below"/><g class="yaxislayer-below"/><g class="overaxes-below"/><g class="plot" transform="translate(80,150)" clip-path="url(#clipa929eexyplot)"><g class="scatterlayer mlayer"><g class="trace scatter trace035d95" style="stroke-miterlimit: 2; opacity: 1;"><g class="fills"/><g class="errorbars"/><g class="lines"><path class="js-line" d="M0,95.42L0.71,94.91L1.42,100.79L2.13,99L2.85,112.8L3.56,116.64L4.27,129.67L4.98,146.79L5.69,139.64L6.4,154.2L7.11,133.25L10.67,162.89L11.38,173.63L12.09,188.71L12.81,130.69L13.52,130.69L14.23,134.27L14.94,142.45L15.65,161.36L16.36,159.06L17.07,161.87L17.79,159.83L18.5,163.15L19.21,175.42L19.92,173.88L20.63,174.65L21.34,181.81L22.05,177.72L22.77,184.62L23.48,195.61L24.19,164.43L24.9,167.75L25.61,164.43L26.32,178.99L27.03,174.14L28.46,174.65L29.17,192.54L29.88,191.52L30.59,194.84L32.01,213.24L32.73,209.41L33.44,212.98L34.15,210.43L34.86,210.94L35.57,217.33L36.99,222.18L37.71,226.53L39.84,219.63L40.55,223.72L41.26,224.48L41.97,229.08L42.69,226.53L43.4,228.57L44.82,238.8L45.53,237.01L46.24,240.59L46.95,239.31L48.38,281.22L49.09,165.45L49.8,166.22L50.51,163.66L51.93,163.66L52.65,167.75L54.78,183.85L55.49,132.74L56.91,149.6L57.63,147.3L59.05,183.85L59.76,111.53L60.47,114.34L61.18,111.53L61.89,109.74L62.61,103.6L63.32,106.67L64.03,113.83L65.45,123.79L66.16,137.34L68.3,165.7L69.01,131.46L69.72,130.44L70.43,132.23L71.14,143.47L71.85,141.17L73.28,148.84L73.99,157.27L76.12,184.36L76.83,193.56L77.55,192.28L78.26,219.12L78.97,145.77L79.68,148.33L80.39,159.32L81.1,165.45L81.81,185.13L82.53,215.28L83.24,102.58L84.66,106.16L85.37,113.06L88.22,149.35L88.93,169.28L89.64,195.35L90.35,103.35L91.06,99.77L91.77,101.05L92.48,110.76L93.2,105.9L93.91,102.58L94.62,105.9L95.33,106.67L96.04,102.07L97.46,110.76L98.18,124.56L98.89,127.11L99.6,135.8L101.02,160.34L101.73,189.22L103.16,168L103.87,178.48L104.58,181.55L105.29,179.25L106,179.25L106.71,175.67L107.42,168L108.14,179.25L109.56,106.41L110.27,114.34L110.98,109.23L111.69,113.57L113.12,116.13L113.83,108.46L114.54,110.76L115.25,119.45L118.1,119.19L118.81,117.66L119.52,122.77L120.23,138.1L121.65,125.33L122.36,129.67L123.08,135.55L123.79,126.86L125.92,151.9L126.63,148.07L128.06,173.88L128.77,176.95L130.19,187.43L130.9,186.66L131.61,186.92L132.32,194.58L133.75,191.77L134.46,195.86L135.88,195.86L136.59,192.28L137.3,191.77L138.02,193.56L139.44,210.94L140.15,209.41L140.86,211.45L141.57,210.94L142.28,210.68L143,215.28L143.71,213.75L144.42,216.82L145.84,231.13L146.55,175.67L147.26,176.95L147.98,184.62L149.4,188.19L150.11,185.64L151.53,194.07L152.24,196.63L152.96,194.07L153.67,195.61L154.38,196.63L155.09,196.12L155.8,196.37L156.51,193.05L157.22,204.55L157.94,204.04L158.65,207.87L159.36,218.1L160.07,235.73L160.78,204.55L162.2,197.39L162.92,220.4L163.63,82.9L164.34,91.34L165.05,95.94L165.76,91.34L167.18,103.09L167.9,104.11L170.03,128.14L170.74,152.42L171.45,96.96L172.16,104.11L172.88,103.35L173.59,111.27L175.72,183.08L176.43,122.26L177.14,123.28L177.86,145L179.99,188.45L180.7,219.88L181.41,111.53L182.12,111.78L182.84,109.23L184.97,119.96L185.68,121.75L186.39,116.64L187.1,137.08L188.53,186.66L189.24,182.57L189.95,209.15L190.66,128.9L191.37,147.05L192.08,90.31L192.8,92.61L193.51,111.27L194.22,111.78L194.93,119.7L196.35,133.76L197.06,131.46L197.78,133.5L198.49,148.33L199.2,177.21L199.91,112.04L200.62,113.06L201.33,130.69L203.47,160.59L204.18,155.23L205.6,219.63L206.31,135.29L207.02,137.08L207.74,142.19L208.45,141.68L209.16,160.85L209.87,72.17L210.58,78.56L213.43,132.23L214.14,128.39L214.85,129.93L215.56,127.37L216.27,147.05L216.98,73.96L217.7,76.77L218.41,85.2L219.12,82.39L219.83,92.87L220.54,97.72L221.25,114.59L221.96,126.86L222.68,72.68L223.39,77.54L224.1,75.49L225.52,85.71L226.23,109.23L226.94,114.59L227.66,131.2L229.08,155.48L229.79,194.33L230.5,123.03L231.21,126.35L231.92,119.96L232.64,122.26L233.35,118.94L234.06,121.49L234.77,126.86L236.19,147.82L236.9,143.73L238.33,154.97L239.04,172.35L240.46,217.07L241.17,182.57L241.88,71.66L242.6,71.91L243.31,72.68L244.02,62.71L244.73,64.25L245.44,59.9L246.15,67.82L247.58,97.47L248.29,96.45L250.42,89.55L251.13,94.15L251.84,107.44L252.56,106.16L253.27,110.5L253.98,138.87L254.69,130.95L255.4,144.24L256.82,139.38L257.54,141.17L258.25,143.47L258.96,138.36L259.67,154.72L260.38,149.86L261.09,151.14L261.8,149.6L263.23,154.2L263.94,172.35L265.36,178.99L266.07,197.14L266.78,139.64L267.49,143.73L268.92,140.4L269.63,138.87L270.34,147.56L271.05,144.24L272.47,153.95L273.19,154.72L275.32,224.23L276.03,138.62L277.45,158.04L278.17,155.74L278.88,187.17L279.59,115.87L280.3,113.83L281.01,117.91L282.43,115.87L283.15,117.15L283.86,110.5L284.57,117.15L285.99,115.87L286.7,112.55L287.41,116.89L288.13,115.61L288.84,117.15L289.55,120.98L290.26,117.15L290.97,123.54L293.11,154.72L293.82,172.35L294.53,179.25L295.24,208.9L295.95,239.31L296.66,129.67L298.09,133.76L298.8,158.29L300.22,214.26L300.93,216.82L301.64,217.33L302.35,230.11L303.07,240.07L303.78,271L305.2,194.07L305.91,194.33L306.62,192.79L307.33,193.05L308.05,194.07L308.76,193.56L310.18,188.71L310.89,189.73L312.31,189.47L313.03,194.33L313.74,194.07L314.45,203.53L316.58,225.51L317.29,245.95L318.01,271L318.72,189.22L319.43,193.31L320.14,202.76L320.85,198.93L321.56,203.78L323.7,235.73L324.41,252.34L325.12,175.93L325.83,178.23L326.54,175.42L327.25,172.86L327.97,174.14L329.39,178.74L330.1,184.62L330.81,195.09L331.52,193.82L332.23,196.63L332.95,206.08L333.66,209.92L334.37,207.62L335.08,224.48L335.79,221.16L336.5,222.44L337.21,238.54L337.93,237.01L338.64,267.42L340.06,196.37L340.77,197.39L342.19,195.09L342.91,196.37L343.62,198.42L344.33,205.57L346.46,222.18L347.17,236.5L347.89,252.09L348.6,192.03L349.31,192.28L350.02,189.98L351.44,196.12L352.15,203.78L355,234.96L355.71,231.13L356.42,233.68L357.13,231.38L357.85,250.55L358.56,182.32L359.27,183.08L359.98,181.55L360.69,182.57L361.4,185.38L363.54,192.03L364.25,187.68L364.96,197.39L365.67,195.35L368.52,240.59L369.23,262.82L369.94,291.19L370.65,181.29L371.36,182.57L372.07,185.89L372.79,186.92L373.5,190.24L374.21,192.03L374.92,191.52L375.63,197.39L376.34,196.63L377.05,195.86L377.77,202L382.03,245.19L382.75,262.05L384.17,173.37L384.88,174.91L387.73,203.78L388.44,218.61L389.15,214.77L389.86,233.43L390.57,261.29L391.28,176.69L391.99,180.27L392.71,178.74L393.42,181.29L394.13,175.93L394.84,178.48L395.55,186.92L396.26,183.34L396.97,196.12L398.4,195.09L399.11,197.65L399.82,192.54L400.53,193.56L401.95,220.91L402.67,221.67L404.09,237.26L404.8,235.47L406.93,298.6L407.65,185.89L408.36,185.13L409.07,190.24L409.78,187.94L410.49,191.01L411.2,190.75L411.91,202L414.76,212.47L415.47,214.77L416.18,223.21L416.89,222.18L417.61,235.99L418.32,188.45L419.03,193.82L419.74,187.43L420.45,183.34L421.16,197.65L421.87,196.63L422.59,197.65L423.3,194.07L424.01,202.25L424.72,197.65L425.43,211.71L426.85,238.54L427.57,182.57L428.28,185.64L428.99,194.58L429.7,186.41L430.41,202.76L432.55,239.05L433.26,258.47L434.68,180.02L435.39,180.27L436.1,184.87L436.81,177.72L437.53,186.92L438.24,185.89L438.95,186.15L439.66,182.83L443.22,251.83L443.93,189.47L446.77,213.24L447.48,210.43L448.91,239.82L449.62,181.55L450.33,186.15L451.04,183.85L451.75,184.11L452.46,189.47L453.18,201.74L453.89,201.48L454.6,209.92L456.02,248.25L456.73,175.67L457.44,180.27L458.16,177.21L458.87,176.18L459.58,182.83L460.29,181.04L461,183.59L461.71,176.69L462.42,183.85L463.14,188.71L463.85,188.45L464.56,187.94L465.98,199.69L466.69,204.55L467.4,221.16L468.12,182.32L469.54,185.13L470.25,186.92L470.96,188.96L471.67,184.87L472.38,182.83L473.1,183.85L474.52,185.38L475.23,182.57L478.79,197.91L479.5,207.36L480.92,216.05L481.63,220.14L482.34,218.1L483.06,231.13L483.77,244.93L484.48,180.53L485.19,177.46L485.9,182.32L486.61,180.78L487.32,184.11L488.04,182.57L488.75,192.28L491.59,223.21L492.3,168.52L493.73,169.54L494.44,163.4L495.15,165.19L495.86,164.43L496.57,168.77L497.28,166.98L498,178.23L498.71,177.72L499.42,188.45L500.13,188.71L500.84,199.69L501.55,194.58L502.26,209.15L503.69,237.01L504.4,168.77L505.82,167.49L506.53,162.89L507.96,168.77L508.67,163.4L510.8,176.44L511.51,184.11L512.22,188.96L512.94,184.62L513.65,180.02L514.36,193.56L515.07,196.12L515.78,202.25L517.2,236.5L517.92,158.8L520.05,166.98L520.76,164.68L522.18,175.42L522.9,177.97L525.74,206.08L526.45,225L527.16,256.69L527.88,147.3L528.59,149.35L529.3,162.38L532.86,227.55L533.57,192.28L534.28,188.19L534.99,193.82L536.41,195.35L537.12,200.21L537.84,201.23L538.55,212.73L540.68,235.22L541.39,227.81L542.1,227.3L542.82,236.5L544.24,275.85L544.95,208.13L546.37,219.88L547.08,220.14L547.8,222.18L548.51,228.06L549.22,247.23L549.93,241.61L551.35,263.33L552.06,206.85L552.78,207.11L553.49,211.96L554.2,216.05L554.91,212.98L555.62,216.31L556.33,211.96L557.76,229.08L558.47,227.04L559.18,231.9L559.89,248.76L560.6,255.92L561.31,275.85L562.02,272.28L562.74,273.04L563.45,289.14L564.16,229.85L564.87,235.47L565.58,233.68L566.29,237.52L567,254.13L567.72,257.96L568.43,257.45L569.85,282.24L570.56,316.49L571.27,252.09L571.98,257.71L572.7,258.47L573.41,263.07L574.12,275.85L574.83,310.61L576.25,169.54L576.96,168.52L579.1,164.94L579.81,168.26L580.52,168.77L581.23,166.73L581.94,165.19L582.66,176.95L583.37,174.39L584.08,177.97L584.79,178.48L585.5,176.18L586.21,175.16L586.92,177.97L587.64,175.42L588.35,183.08L589.06,177.97L589.77,191.77L590.48,188.71L591.19,199.69L591.9,203.27L592.62,199.69L593.33,198.42L594.04,194.84L594.75,213.5L595.46,138.62L596.88,140.92L597.6,138.87L599.02,135.04L599.73,138.1L600.44,132.99L601.15,133.5L601.86,139.38L602.58,139.13L603.29,140.4L604.71,136.57L605.42,136.83L606.13,139.38L606.84,138.87L607.56,146.54L608.27,142.96L608.98,145.52L609.69,143.22L611.11,165.7L611.82,166.22L612.54,162.64L613.25,167.24L615.38,216.56L616.09,216.82L618.23,253.87L618.94,251.83L619.65,257.45L620.36,215.8L622.49,210.17L623.21,209.41L624.63,217.84L625.34,218.61L626.05,212.22L626.76,214.26L627.47,223.97L628.19,221.67L628.9,222.95L629.61,213.24L631.74,206.85L632.45,208.38L633.17,205.32L633.88,210.17L634.59,206.08L635.3,208.64L636.01,204.55L636.72,207.36L638.15,217.33L638.86,219.37L639.57,218.86L640.28,233.17L641.7,178.48L642.41,175.42L643.13,177.46L643.84,174.91L644.55,173.63L645.26,177.21L645.97,173.12L646.68,174.39L648.82,181.55L649.53,179.76L650.24,180.02L650.95,184.87L651.66,184.11L652.37,190.24L653.09,188.71L653.8,191.26L654.51,191.26L655.22,189.98L656.64,188.19L657.35,191.52L658.07,184.87L658.78,187.68L659.49,192.28L660.2,204.81L660.91,205.57L661.62,201.48L662.33,204.81L663.05,222.7L665.18,274.32L665.89,205.83L666.6,204.81L667.31,205.83L668.03,208.13L668.74,214.01L670.16,211.2L670.87,225.51L671.58,237.01L672.29,105.14L673.01,104.11L673.72,106.67L675.85,99.51L676.56,100.54L677.27,104.63L677.99,102.33L679.41,108.71L680.12,118.43L681.54,142.45L682.25,154.46L682.97,156.25L683.68,185.89L684.39,112.29L685.1,119.96L686.52,137.34L687.23,135.29L687.95,158.55L688.66,99.26L692.21,144.75L692.93,96.7L693.64,100.54L694.35,96.45L695.77,94.91L696.48,97.98L697.19,96.19L697.91,102.33L698.62,109.23L699.33,123.54L700.75,146.03L701.46,167.75L702.17,169.03L702.89,197.39L703.6,84.69L704.31,90.57L705.02,90.31L705.73,91.85L706.44,97.72L707.15,93.12L707.87,94.91L708.58,94.91L709.29,94.15L710,107.18" style="vector-effect: none; fill: none; stroke: rgb(31, 119, 180); stroke-opacity: 1; stroke-width: 2px; opacity: 1;"/></g><g class="points"/><g class="text"/></g><g class="trace scatter trace919627" style="stroke-miterlimit: 2; opacity: 1;"><g class="fills"/><g class="errorbars"/><g class="lines"><path class="js-line" d="M0,95.42L0.71,94.91L1.42,100.79L2.13,99L2.85,112.8L3.56,116.64L4.27,129.67L4.98,146.79L5.69,139.64L6.4,154.2L7.11,133.25L10.67,162.89L11.38,173.63L12.09,188.71L12.81,130.69L13.52,130.69L14.23,134.27L14.94,142.45L15.65,161.36L16.36,159.06L17.07,161.87L17.79,159.83L18.5,163.15L19.21,175.42L19.92,173.88L20.63,174.65L21.34,181.81L22.05,177.72L22.77,184.62L23.48,195.61L24.19,164.43L24.9,167.75L25.61,164.43L26.32,178.99L27.03,174.14L28.46,174.65L29.17,192.54L29.88,191.52L30.59,194.84L32.01,213.24L32.73,209.41L33.44,212.98L34.15,210.43L34.86,210.94L35.57,217.33L36.99,222.18L37.71,226.53L39.84,219.63L40.55,223.72L41.26,224.48L41.97,229.08L42.69,226.53L43.4,228.57L44.82,238.8L45.53,237.01L46.24,240.59L46.95,239.31L48.38,281.22L49.09,189.47L50.51,187.94L51.22,187.43L51.93,187.17L52.65,184.62L54.78,190.75L55.49,132.23L56.2,136.57L56.91,131.97L57.63,134.27L58.34,141.94L59.76,155.48L60.47,166.73L61.18,165.7L61.89,181.81L62.61,214.77L63.32,124.05L64.03,125.58L64.74,123.28L69.01,162.64L69.72,163.4L71.14,208.13L71.85,138.87L73.99,136.06L74.7,140.4L75.41,138.62L76.12,144.49L76.83,152.42L77.55,149.09L78.97,177.46L79.68,172.09L81.1,187.94L81.81,222.95L83.24,284.29L83.95,283.52L86.08,277.9L86.79,299.88L88.22,197.65L88.93,195.86L89.64,197.65L90.35,195.35L92.48,186.92L93.2,185.89L93.91,181.55L94.62,185.13L96.04,176.18L96.75,177.97L97.46,176.69L98.18,172.09L98.89,175.42L99.6,170.56L100.31,174.39L101.02,169.54L103.16,163.4L103.87,167.49L106,160.08L106.71,159.06L108.14,156.25L108.85,157.78L109.56,151.9L110.27,153.44L110.98,152.93L111.69,157.53L113.83,155.23L114.54,149.6L115.96,157.78L116.67,159.57L117.38,161.62L118.1,160.08L118.81,163.15L119.52,162.64L120.23,174.14L120.94,172.61L121.65,176.95L122.36,175.93L123.08,177.97L123.79,177.46L124.5,182.06L125.21,204.81L126.63,235.99L127.34,244.67L128.77,262.31L129.48,283.78L130.9,294L131.61,293.23L132.32,315.21L133.04,240.33L134.46,245.7L135.17,246.21L136.59,253.11L137.3,255.15L138.02,256.17L138.73,255.66L139.44,254.13L140.15,255.66L143,227.55L143.71,213.24L145.13,216.82L145.84,212.47L147.26,192.03L147.98,195.09L148.69,197.14L149.4,193.31L150.11,196.63L150.82,207.87L151.53,208.13L152.24,215.54L154.38,241.1L155.09,259.24L157.22,311.38L157.94,161.1L158.65,159.32L159.36,171.58L160.07,187.43L160.78,187.17L161.49,189.73L162.2,185.89L162.92,190.24L163.63,193.05L164.34,201.23L165.05,201.48L165.76,194.84L167.18,214.01L167.9,242.89L168.61,180.27L169.32,184.11L170.74,211.2L171.45,124.3L172.16,121.24L172.88,124.3L174.3,129.93L175.01,132.48L176.43,153.44L177.14,154.97L179.28,214.52L179.99,132.48L180.7,131.46L181.41,137.08L182.12,137.59L182.84,139.89L183.55,139.13L184.26,141.94L185.68,150.88L186.39,148.33L187.82,170.56L188.53,185.64L189.24,179.76L189.95,187.43L191.37,221.93L192.08,157.53L192.8,155.74L193.51,173.12L194.22,171.84L194.93,175.16L195.64,179.51L196.35,177.72L197.06,178.74L197.78,182.06L198.49,191.01L199.2,185.13L200.62,199.95L201.33,234.2L202.04,188.71L202.76,200.46L204.18,252.34L204.89,247.23L205.6,240.33L206.31,246.21L207.02,243.91L207.74,254.13L208.45,244.67L209.16,244.93L209.87,246.97L210.58,249.53L211.29,246.72L213.43,270.74L214.14,264.1L216.27,289.65L216.98,304.99L218.41,257.45L219.12,257.45L220.54,258.73L221.25,258.22L221.96,253.36L222.68,260.77L224.1,254.39L224.81,272.02L225.52,285.05L226.23,314.7L226.94,320.07L227.66,351.5L228.37,292.98L229.08,315.21L229.79,349.46L230.5,318.02L231.21,329.78L231.92,303.97L232.64,305.5L233.35,266.4L234.77,289.14L235.48,284.8L236.19,283.26L236.9,285.82L237.62,293.74L238.33,291.19L240.46,295.79L241.17,293.23L241.88,295.02L242.6,292.98L243.31,287.61L244.02,289.65L245.44,282.75L246.15,281.22L247.58,269.21L248.29,270.23L249,270.74L249.71,273.3L250.42,268.7L251.13,276.11L252.56,287.35L253.27,281.99L254.69,300.39L255.4,296.3L256.82,301.41L257.54,300.64L258.96,317.77L259.67,148.84L260.38,153.18L261.09,149.6L262.52,167.24L263.23,164.43L264.65,200.72L265.36,199.95L266.07,221.16L266.78,218.86L267.49,217.58L268.21,219.12L270.34,254.9L271.05,190.24L273.19,197.91L273.9,230.36L274.61,162.13L275.32,170.82L276.03,182.57L276.74,179.25L277.45,199.18L278.17,195.61L278.88,196.12L279.59,192.03L280.3,227.3L281.01,131.71L282.43,139.89L283.15,138.62L283.86,139.38L284.57,141.68L285.28,140.66L285.99,157.78L286.7,163.92L287.41,179.51L288.13,170.82L288.84,174.39L289.55,198.16L290.26,138.36L291.68,146.03L292.39,145.52L293.82,164.17L294.53,162.38L295.95,193.82L296.66,219.88L297.37,122.51L298.09,127.11L298.8,129.41L299.51,136.32L300.22,133.25L300.93,137.85L301.64,131.97L302.35,134.78L304.49,168L305.2,165.7L305.91,165.19L306.62,167.49L307.33,167.75L308.05,164.43L310.18,217.84L310.89,126.09L312.31,125.84L313.03,127.88L313.74,132.23L314.45,131.2L315.16,136.06L315.87,151.14L316.58,151.14L317.29,165.19L318.72,196.63L319.43,220.14L320.85,159.06L321.56,157.53L322.99,166.98L323.7,186.41L325.83,212.98L326.54,242.37L327.25,158.04L327.97,158.29L328.68,163.4L329.39,183.59L330.1,113.57L330.81,114.34L331.52,111.53L332.95,118.68L333.66,120.21L334.37,124.3L335.08,135.8L336.5,128.39L337.21,143.47L337.93,141.68L338.64,153.18L340.06,172.09L340.77,169.03L342.19,160.34L342.91,183.34L344.33,103.09L345.04,109.99L345.75,108.2L346.46,111.01L350.02,166.47L350.73,165.19L351.44,181.29L352.15,226.27L352.87,234.2L353.58,227.81L354.29,229.34L355,260.77L355.71,259.75L356.42,261.8L357.13,274.83L357.85,225L358.56,225.51L359.27,223.21L360.69,221.42L361.4,221.16L362.11,224.74L362.83,220.65L364.96,223.97L365.67,220.14L366.38,222.95L367.09,229.85L367.81,226.02L368.52,227.3L369.23,229.85L369.94,229.6L371.36,235.99L372.07,231.13L372.79,229.85L373.5,238.8L374.92,175.67L375.63,176.95L376.34,175.42L377.05,171.58L377.77,173.37L378.48,172.09L379.19,174.65L379.9,173.12L380.61,175.67L381.32,173.12L382.75,166.73L383.46,169.79L384.17,166.98L384.88,168.52L385.59,164.43L386.3,167.24L387.01,160.85L387.73,171.33L388.44,169.79L389.15,174.39L391.99,199.44L392.71,201.48L394.84,246.46L395.55,193.82L396.97,193.82L397.69,195.86L398.4,197.39L399.11,195.86L400.53,195.09L401.24,195.86L401.95,202L402.67,197.39L404.09,204.55L404.8,201.48L407.65,215.54L408.36,226.78L410.49,265.63L411.2,263.59L411.91,264.61L412.63,263.84L413.34,262.82L414.05,263.33L414.76,265.12L415.47,269.21L416.89,269.98L417.61,269.46L419.03,263.59L419.74,265.89L421.16,272.53L421.87,273.04L423.3,269.72L424.01,277.64L424.72,195.09L425.43,195.61L426.14,192.54L427.57,195.09L428.28,194.84L430.41,192.54L431.12,194.58L433.26,212.22L433.97,112.04L435.39,118.68L436.1,115.1L437.53,118.17L438.24,119.7L438.95,115.87L439.66,117.4L441.08,119.7L441.79,125.84L443.93,171.07L444.64,198.16L445.35,106.41L446.06,109.74L446.77,109.48L447.48,108.71L448.2,118.68L448.91,125.84L449.62,124.81L451.04,135.29L451.75,152.42L453.18,194.58L453.89,119.7L455.31,128.39L456.02,129.16L457.44,157.27L458.16,157.53L460.29,182.57L461,180.53L461.71,180.53L462.42,174.65L463.14,200.46L463.85,166.98L464.56,167.24L465.27,164.68L465.98,192.03L466.69,107.18L467.4,116.64L468.12,115.1L468.83,114.59L469.54,115.87L470.96,110.5L471.67,117.4L473.1,135.55L473.81,149.35L474.52,151.39L475.23,142.7L475.94,169.28L476.65,112.04L477.36,114.85L478.08,112.55L478.79,108.71L479.5,109.99L480.92,111.78L481.63,110.25L482.34,111.78L483.06,118.17L486.61,181.55L487.32,113.31L488.75,119.7L489.46,117.91L490.88,117.4L491.59,126.86L494.44,193.56L495.15,132.23L495.86,128.14L496.57,130.69L498.71,168.26L499.42,121.49L500.13,119.7L500.84,132.48L501.55,134.53L502.26,141.94L503.69,180.02L504.4,116.38L505.82,114.34L506.53,108.2L507.96,112.8L508.67,118.43L509.38,115.36L510.09,120.73L510.8,119.96L511.51,123.54L512.22,123.03L512.94,130.69L513.65,129.41L514.36,156.76L515.07,155.48L515.78,165.96L516.49,173.63L517.2,192.28L517.92,191.01L518.63,219.12L519.34,127.11L520.05,142.45L523.61,162.13L524.32,180.78L525.03,174.65L525.74,191.77L526.45,232.41L527.16,160.85L529.3,159.83L530.01,190.75L530.72,115.1L531.43,115.87L532.14,127.88L532.86,135.29L533.57,151.14L534.28,152.16L534.99,161.87L536.41,166.98L537.12,194.33L538.55,93.64L539.26,92.36L539.97,97.72L540.68,95.42L541.39,95.68L542.1,91.59L544.24,128.9L544.95,145.77L545.66,166.98L546.37,130.44L547.08,135.55L547.8,128.9L550.64,166.47L551.35,190.49L552.06,216.31L552.78,213.5L553.49,236.5L554.2,145.26L555.62,147.56L556.33,145.77L557.04,177.46L557.76,118.94L558.47,109.74L559.18,115.87L562.02,148.58L562.74,149.35L564.16,185.64L564.87,104.88L566.29,106.16L567,109.48L567.72,114.34L568.43,111.53L570.56,141.17L571.27,155.23L571.98,153.95L572.7,182.57L573.41,82.65L574.12,83.92L574.83,95.17L575.54,112.8L576.25,111.01L576.96,114.59L577.68,137.08L579.1,164.94L579.81,108.97L581.23,118.94L581.94,113.83L583.37,152.93L584.08,153.44L585.5,194.84L586.21,117.15L587.64,125.33L588.35,140.4L589.06,150.88L589.77,184.62L590.48,120.73L591.19,123.28L591.9,141.68L592.62,78.81L593.33,82.39L596.17,129.41L596.88,75.24L598.31,92.87L599.02,101.81L599.73,104.37L600.44,112.8L601.15,109.48L601.86,128.39L602.58,127.63L603.29,148.33L604,69.87L604.71,71.15L605.42,95.42L606.84,105.65L607.56,148.07L608.98,98.75L609.69,118.68L611.11,138.1L611.82,135.55L612.54,161.1L613.25,94.66L615.38,106.41L616.09,106.67L618.23,149.86L618.94,147.82L619.65,168L620.36,94.15L621.78,101.81L622.49,101.81L624.63,131.2L625.34,129.41L626.05,134.53L626.76,169.03L627.47,214.77L628.19,135.29L628.9,133.5L629.61,164.17L630.32,71.4L631.03,75.75L631.74,78.05L632.45,81.11L633.17,88.78L635.3,114.08L636.01,118.43L636.72,131.2L637.43,79.07L638.15,77.28L638.86,81.88L640.28,78.3L640.99,84.18L641.7,91.59L642.41,83.92L644.55,99.77L645.26,97.21L645.97,111.27L646.68,108.97L648.11,138.36L648.82,139.13L650.24,148.33L650.95,173.88L652.37,84.95L653.09,89.55L653.8,99.51L654.51,120.47L655.22,161.87L655.93,121.24L656.64,121.75L657.35,119.19L658.07,118.43L658.78,124.81L659.49,138.62L660.2,80.6L660.91,80.6L661.62,78.05L663.05,89.8L663.76,97.72L664.47,101.05L665.18,111.27L668.74,174.91L669.45,104.63L670.16,106.41L670.87,105.9L672.29,125.58L673.01,124.56L673.72,125.58L674.43,120.98L675.85,123.79L676.56,119.96L677.99,147.05L678.7,142.7L680.83,204.81L681.54,159.57L682.25,165.19L682.97,199.69L684.39,108.97L685.1,114.59L685.81,118.94L686.52,133.5L687.23,133.25L687.95,155.99L689.37,186.66L690.08,214.26L691.5,137.08L692.21,147.82L693.64,160.59L694.35,166.22L695.77,214.01L696.48,212.73L697.19,233.94L697.91,169.28L698.62,94.91L699.33,97.47L700.04,105.14L701.46,125.84L702.17,123.28L703.6,162.38L704.31,103.35L705.02,96.45L705.73,105.39L706.44,112.55L707.15,110.25L707.87,116.38L708.58,112.55L709.29,114.85L710,125.33" style="vector-effect: none; fill: none; stroke: rgb(255, 127, 14); stroke-opacity: 1; stroke-width: 2px; opacity: 1;"/></g><g class="points"/><g class="text"/></g><g class="trace scatter tracecced67" style="stroke-miterlimit: 2; opacity: 1;"><g class="fills"/><g class="errorbars"/><g class="lines"><path class="js-line" d="M0,95.42L0.71,94.91L1.42,100.79L2.13,99L2.85,112.8L3.56,116.64L4.27,129.67L4.98,146.79L5.69,139.64L6.4,154.2L7.11,133.25L10.67,162.89L11.38,173.63L12.09,188.71L12.81,130.69L13.52,130.69L14.23,134.27L14.94,142.45L15.65,161.36L16.36,159.06L17.07,161.87L17.79,159.83L18.5,163.15L19.21,175.42L19.92,173.88L20.63,174.65L21.34,181.81L22.05,177.72L22.77,184.62L23.48,195.61L24.19,164.43L24.9,167.75L25.61,164.43L26.32,178.99L27.03,174.14L28.46,174.65L29.17,192.54L29.88,191.52L30.59,194.84L32.01,213.24L32.73,209.41L33.44,212.98L34.15,210.43L34.86,210.94L35.57,217.33L36.99,222.18L37.71,226.53L39.84,219.63L40.55,223.72L41.26,224.48L41.97,229.08L42.69,226.53L43.4,228.57L44.82,238.8L45.53,237.01L46.24,240.59L46.95,239.31L48.38,281.22L49.09,161.62L50.51,168.77L51.22,170.56L51.93,169.03L52.65,174.39L54.78,190.49L55.49,130.69L56.2,143.47L56.91,142.45L57.63,142.7L58.34,158.29L59.76,113.31L60.47,116.13L61.18,108.97L61.89,115.1L63.32,121.49L64.03,131.2L66.16,174.39L66.87,112.04L67.59,105.14L68.3,113.06L69.01,112.55L69.72,110.5L71.14,131.71L71.85,127.88L72.57,129.93L73.28,127.11L75.41,172.61L76.12,170.56L76.83,198.16L77.55,119.45L79.68,115.36L80.39,117.4L81.1,119.45L81.81,126.86L82.53,134.78L83.24,133.76L83.95,133.25L84.66,145.26L85.37,151.39L86.08,166.73L88.22,212.73L88.93,237.52L89.64,129.41L90.35,132.48L91.06,143.73L91.77,169.03L92.48,94.4L93.91,90.82L94.62,90.31L95.33,91.59L96.04,108.97L98.89,147.56L99.6,176.69L101.02,109.48L101.73,110.5L102.44,109.48L103.16,116.38L103.87,116.64L104.58,114.59L105.29,125.33L106,123.03L108.14,165.7L108.85,199.95L110.27,107.18L110.98,110.76L111.69,108.2L112.4,113.83L113.12,112.55L113.83,117.91L115.25,138.62L115.96,136.32L116.67,151.9L117.38,149.35L119.52,197.14L120.23,115.61L120.94,109.99L121.65,118.17L122.36,119.96L123.08,127.37L123.79,129.41L124.5,140.4L125.21,151.39L125.92,185.38L127.34,100.79L128.06,101.05L128.77,102.84L129.48,116.13L130.19,117.66L130.9,116.64L131.61,120.73L132.32,133.76L133.04,136.32L133.75,146.03L134.46,145.52L135.17,142.7L136.59,169.28L137.3,162.38L138.02,180.53L138.73,159.83L140.15,87.76L140.86,91.85L144.42,140.66L145.13,137.85L145.84,141.17L146.55,172.61L147.26,77.79L147.98,89.29L148.69,91.34L149.4,88.27L150.11,91.08L150.82,103.86L153.67,175.67L154.38,97.98L155.8,94.91L156.51,99.51L159.36,179.25L160.07,152.67L160.78,173.12L161.49,82.39L162.2,80.09L162.92,81.62L164.34,78.3L165.05,78.05L165.76,74.98L166.47,83.16L167.18,78.3L167.9,81.11L168.61,91.34L169.32,89.55L172.16,134.78L172.88,97.21L174.3,95.94L175.01,98.24L176.43,115.36L177.14,119.96L179.99,193.05L180.7,102.07L181.41,111.53L182.12,104.11L184.26,124.05L184.97,125.84L186.39,137.34L187.1,159.06L187.82,179.25L188.53,108.46L189.24,110.25L189.95,125.58L190.66,151.39L191.37,92.1L193.51,123.28L194.22,122.77L194.93,131.2L196.35,148.33L197.06,148.33L197.78,149.35L198.49,166.73L199.2,90.06L199.91,91.08L200.62,93.89L201.33,99.51L202.04,111.53L203.47,138.87L204.18,137.08L204.89,154.2L205.6,102.07L206.31,101.81L207.02,105.39L207.74,106.16L208.45,108.71L209.16,107.95L209.87,116.64L211.29,140.4L212,142.7L213.43,177.46L214.14,124.05L214.85,121.75L215.56,125.58L216.27,133.5L216.98,129.93L217.7,129.67L218.41,132.23L219.12,128.65L219.83,129.16L220.54,127.63L221.25,131.71L222.68,141.94L223.39,155.99L224.1,170.56L224.81,203.27L225.52,144.75L226.23,162.64L226.94,164.68L227.66,180.53L229.79,168.77L230.5,173.12L231.21,176.95L231.92,186.92L233.35,190.24L234.06,200.46L235.48,227.55L236.19,251.83L236.9,197.65L237.62,197.91L238.33,193.56L239.04,194.84L239.75,193.05L241.17,189.47L241.88,189.47L242.6,190.49L243.31,189.22L244.73,182.57L245.44,191.01L248.29,225.25L249,222.95L249.71,224.74L250.42,221.67L251.13,224.74L251.84,243.4L252.56,245.95L253.27,200.97L253.98,200.21L254.69,203.53L255.4,206.6L256.11,202L256.82,206.34L257.54,203.27L258.25,200.97L258.96,203.27L259.67,205.32L260.38,203.53L261.09,204.81L261.8,200.46L262.52,200.21L263.23,200.97L263.94,203.02L264.65,202.51L265.36,200.97L266.07,202.25L266.78,93.89L267.49,94.4L268.21,95.94L268.92,100.79L269.63,94.91L271.76,107.18L272.47,105.39L273.19,107.69L273.9,113.06L274.61,109.74L275.32,117.4L277.45,141.43L278.17,138.62L278.88,149.35L279.59,145L280.3,149.35L281.01,148.84L282.43,163.92L283.15,163.15L283.86,162.89L284.57,161.36L285.28,155.23L285.99,162.89L286.7,166.98L287.41,165.7L288.13,173.12L288.84,171.07L289.55,172.09L290.26,169.28L290.97,175.16L291.68,103.6L292.39,118.17L293.11,111.01L293.82,105.9L294.53,126.35L295.24,125.07L295.95,120.47L297.37,126.35L298.09,138.62L298.8,166.73L299.51,224.74L300.22,228.06L300.93,222.7L301.64,224.23L302.35,240.59L303.07,269.21L303.78,200.72L305.2,202.51L305.91,200.97L306.62,200.72L307.33,203.02L308.76,205.32L309.47,206.85L312.31,235.99L313.03,250.3L313.74,250.81L314.45,270.49L315.87,184.62L316.58,187.68L317.29,182.83L318.01,185.38L320.85,199.44L321.56,200.97L322.27,206.08L322.99,219.63L324.41,249.53L325.12,178.23L325.83,179.25L326.54,176.95L327.97,178.23L328.68,177.72L329.39,178.23L330.1,174.91L330.81,185.64L331.52,181.04L332.95,185.13L333.66,188.45L334.37,187.68L335.08,192.03L335.79,199.95L336.5,196.88L338.64,221.67L339.35,188.45L340.77,190.75L341.48,191.52L342.19,190.24L342.91,194.58L344.33,206.34L345.04,221.67L345.75,221.93L346.46,238.54L347.17,257.71L347.89,170.82L348.6,169.28L349.31,170.05L350.02,173.12L350.73,171.58L351.44,168.52L352.15,171.33L354.29,190.24L355,186.41L355.71,186.92L356.42,184.87L358.56,197.91L359.27,197.65L360.69,222.95L361.4,220.14L362.11,225L362.83,238.29L363.54,164.68L364.25,168.52L364.96,171.07L365.67,171.84L366.38,182.57L368.52,215.28L369.23,228.32L369.94,165.96L370.65,168L371.36,171.07L373.5,201.74L374.21,200.21L374.92,203.27L375.63,212.73L377.05,218.61L377.77,228.57L378.48,241.61L379.19,171.07L379.9,169.54L380.61,172.86L381.32,178.23L382.03,177.72L382.75,182.06L383.46,176.69L386.3,200.97L387.01,217.84L388.44,243.65L389.15,191.77L389.86,194.07L390.57,200.21L391.28,198.42L391.99,201.48L392.71,200.21L393.42,203.53L394.84,211.45L395.55,218.35L396.26,217.84L396.97,231.38L397.69,231.64L398.4,230.62L400.53,232.92L401.24,240.33L402.67,219.63L403.38,227.3L404.09,229.34L404.8,228.83L406.93,273.04L407.65,213.24L408.36,212.98L409.07,208.9L409.78,207.11L410.49,203.27L411.2,208.13L411.91,203.27L412.63,211.45L413.34,202.51L414.05,211.96L414.76,211.2L415.47,209.92L416.18,212.73L416.89,212.98L417.61,222.95L419.74,243.91L420.45,246.72L421.16,259.24L421.87,289.91L423.3,183.08L424.01,188.45L424.72,185.64L425.43,195.09L426.14,200.97L426.85,215.03L427.57,231.64L428.28,189.98L428.99,193.31L429.7,190.24L431.83,209.15L432.55,224.48L433.26,234.2L433.97,233.17L434.68,246.97L435.39,245.44L436.1,263.59L436.81,191.52L437.53,190.75L438.24,186.41L441.08,200.46L441.79,207.87L442.51,212.22L443.22,228.32L444.64,254.64L445.35,281.22L446.06,200.46L446.77,201.74L447.48,198.93L448.2,201.23L448.91,197.65L449.62,196.88L450.33,197.65L451.75,199.44L452.46,203.78L453.89,216.56L454.6,221.16L456.02,256.17L456.73,228.57L457.44,226.02L458.16,229.34L458.87,224.23L459.58,228.06L460.29,229.34L461,225L461.71,224.23L462.42,228.06L463.14,225.76L463.85,227.04L465.27,225.51L465.98,222.18L466.69,226.27L467.4,220.65L468.12,228.32L468.83,223.21L470.25,225.51L470.96,223.97L471.67,227.04L472.38,225.76L473.1,220.4L473.81,224.74L474.52,221.42L475.23,224.23L478.08,247.23L478.79,245.44L480.92,262.31L481.63,262.82L482.34,265.37L483.06,273.55L483.77,199.95L484.48,201.23L485.19,201.48L486.61,196.37L487.32,199.95L488.04,197.14L488.75,203.02L489.46,207.87L490.17,223.21L490.88,222.18L491.59,236.24L492.3,249.27L493.02,204.04L493.73,201.48L494.44,202.25L495.15,201.48L495.86,197.65L497.28,197.65L498,203.53L498.71,206.85L499.42,214.26L500.13,219.63L500.84,231.38L501.55,224.23L502.26,243.14L503.69,290.68L504.4,185.89L505.82,187.94L506.53,184.11L507.96,188.96L508.67,183.85L509.38,184.11L510.09,187.43L511.51,198.67L512.22,200.97L512.94,197.65L513.65,200.21L515.78,220.4L516.49,244.93L517.2,185.64L517.92,189.22L518.63,193.82L519.34,191.01L520.05,205.83L520.76,204.04L522.18,231.13L522.9,230.36L523.61,253.36L524.32,192.79L525.03,188.71L525.74,193.31L527.88,218.86L528.59,215.28L531.43,267.42L532.14,166.98L532.86,169.54L533.57,166.47L534.28,162.89L534.99,171.33L535.7,168.52L536.41,171.07L538.55,180.53L539.26,186.92L539.97,185.89L540.68,194.58L543.53,234.96L544.24,257.71L544.95,195.86L545.66,199.44L546.37,202.25L547.08,201.23L547.8,199.95L548.51,208.9L549.93,219.88L550.64,215.03L552.06,246.97L552.78,246.21L554.2,294.76L554.91,218.86L555.62,218.1L556.33,220.65L557.76,228.06L558.47,221.42L561.31,257.96L562.02,254.9L562.74,258.47L563.45,269.21L564.87,302.69L565.58,223.46L566.29,217.33L567,231.13L567.72,225L568.43,226.78L569.85,236.24L570.56,248.51L571.27,276.88L571.98,128.9L572.7,142.19L573.41,171.07L574.12,97.98L574.83,104.37L575.54,112.04L576.25,111.53L576.96,107.69L577.68,123.03L578.39,130.44L579.1,148.33L580.52,189.98L581.23,66.29L581.94,71.66L582.66,68.33L583.37,79.07L584.08,78.3L586.92,134.01L587.64,158.8L588.35,72.68L589.06,77.54L590.48,90.57L591.19,108.97L593.33,162.13L594.04,112.55L598.31,164.43L599.02,182.83L599.73,194.33L600.44,222.95L601.15,118.94L601.86,128.9L602.58,133.5L603.29,154.72L604,43.55L604.71,50.7L606.13,85.2L606.84,83.92L609.69,157.78L610.4,88.01L611.82,100.02L612.54,96.96L614.67,99.77L615.38,115.36L617.52,138.62L618.23,163.15L618.94,161.36L619.65,175.16L621.07,220.14L621.78,120.98L622.49,118.68L623.21,137.59L623.92,77.79L624.63,83.67L626.76,92.36L627.47,103.35L628.9,123.03L629.61,132.23L631.03,51.21L631.74,61.18L632.45,61.69L633.17,74.72L633.88,79.32L634.59,76.77L635.3,92.1L636.01,89.04L637.43,130.18L638.15,122.51L638.86,126.09L639.57,152.67L640.99,88.52L641.7,93.89L643.13,103.86L643.84,100.28L646.68,116.64L647.39,129.41L648.11,140.4L648.82,71.4L649.53,81.37L650.24,79.84L650.95,74.72L651.66,91.08L653.09,103.6L653.8,109.48L655.22,169.79L655.93,131.71L656.64,95.17L657.35,100.02L658.78,93.89L659.49,95.68L660.2,97.21L660.91,96.19L661.62,99L662.33,105.14L663.76,120.21L664.47,117.4L665.89,150.63L666.6,158.04L667.31,177.46L668.03,105.39L668.74,102.07L669.45,103.35L670.16,93.38L670.87,99L671.58,115.61L672.29,113.31L673.01,112.8L673.72,111.27L675.85,126.86L676.56,125.84L680.12,171.07L680.83,115.61L682.97,165.19L683.68,194.07L684.39,102.33L685.1,110.25L686.52,165.96L687.23,80.35L689.37,126.6L690.08,139.64L690.79,157.78L691.5,100.02L692.21,104.88L692.93,115.36L693.64,114.08L694.35,118.43L695.77,150.88L696.48,148.58L697.91,172.35L698.62,202L700.04,74.21L700.75,91.59L701.46,103.35L702.17,92.87L704.31,151.39L705.02,50.7L705.73,43.8L706.44,52.23L707.15,47.38L707.87,48.66L708.58,50.7L709.29,49.17L710,51.72" style="vector-effect: none; fill: none; stroke: rgb(44, 160, 44); stroke-opacity: 1; stroke-width: 2px; opacity: 1;"/></g><g class="points"/><g class="text"/></g><g class="trace scatter traceacb753" style="stroke-miterlimit: 2; opacity: 1;"><g class="fills"/><g class="errorbars"/><g class="lines"><path class="js-line" d="M0,95.42L0.71,94.91L1.42,100.79L2.13,99L2.85,112.8L3.56,116.64L4.27,129.67L4.98,146.79L5.69,139.64L6.4,154.2L7.11,133.25L10.67,162.89L11.38,173.63L12.09,188.71L12.81,130.69L13.52,130.69L14.23,134.27L14.94,142.45L15.65,161.36L16.36,159.06L17.07,161.87L17.79,159.83L18.5,163.15L19.21,175.42L19.92,173.88L20.63,174.65L21.34,181.81L22.05,177.72L22.77,184.62L23.48,195.61L24.19,164.43L24.9,167.75L25.61,164.43L26.32,178.99L27.03,174.14L28.46,174.65L29.17,192.54L29.88,191.52L30.59,194.84L32.01,213.24L32.73,209.41L33.44,212.98L34.15,210.43L34.86,210.94L35.57,217.33L36.99,222.18L37.71,226.53L39.84,219.63L40.55,223.72L41.26,224.48L41.97,229.08L42.69,226.53L43.4,228.57L44.82,238.8L45.53,237.01L46.24,240.59L46.95,239.31L48.38,281.22L49.09,161.62L50.51,168.77L51.22,170.56L51.93,169.03L52.65,174.39L54.78,190.49L55.49,129.16L56.2,142.96L56.91,141.94L57.63,141.68L58.34,155.99L59.05,89.8L59.76,92.61L60.47,94.4L62.61,99.51L63.32,105.39L66.16,142.45L66.87,153.18L67.59,153.44L68.3,172.86L69.72,105.65L70.43,110.76L71.14,106.67L71.85,107.95L72.57,106.67L73.28,103.6L75.41,116.64L76.12,112.29L76.83,127.88L77.55,127.63L78.26,141.17L78.97,156.5L79.68,150.12L81.1,152.93L81.81,178.48L82.53,219.12L83.24,133.25L83.95,130.18L84.66,132.74L88.93,220.4L89.64,140.4L90.35,142.96L91.06,158.29L91.77,183.59L92.48,91.34L93.2,91.08L93.91,83.41L94.62,89.55L95.33,89.04L96.04,89.29L96.75,97.98L99.6,130.69L100.31,126.86L101.73,174.65L102.44,134.01L103.16,131.71L103.87,138.36L105.29,134.78L106,137.85L106.71,138.36L107.42,137.85L108.14,137.85L108.85,139.38L110.27,141.17L110.98,139.13L111.69,142.19L112.4,136.83L113.12,145L113.83,140.4L114.54,142.19L115.25,146.79L116.67,144.24L117.38,148.33L118.1,145.77L118.81,146.79L119.52,140.92L120.23,158.04L121.65,149.86L122.36,150.12L123.08,146.79L123.79,149.6L124.5,146.28L125.21,140.66L125.92,157.78L127.34,163.4L128.06,163.66L128.77,164.17L129.48,176.18L131.61,181.55L132.32,200.97L133.04,141.94L133.75,143.98L134.46,148.84L135.88,147.3L136.59,151.9L137.3,153.69L138.02,162.13L138.73,185.89L139.44,175.67L140.15,179.25L140.86,197.14L141.57,196.88L142.28,195.09L143,200.21L143.71,199.18L144.42,198.93L145.13,201.74L145.84,197.91L146.55,198.67L147.26,198.16L147.98,202.76L148.69,200.21L149.4,203.78L150.11,203.02L150.82,210.68L152.24,211.2L152.96,218.61L154.38,254.9L155.09,112.04L156.51,107.95L157.22,121.49L158.65,135.8L159.36,161.1L160.78,205.32L161.49,203.02L162.2,201.48L162.92,226.02L163.63,166.98L164.34,167.24L165.05,167.75L165.76,165.96L166.47,170.82L167.18,162.13L167.9,194.07L168.61,100.28L169.32,102.84L170.03,97.72L171.45,103.35L172.16,112.04L172.88,118.43L173.59,139.64L174.3,155.74L175.01,86.74L175.72,92.87L176.43,88.78L177.14,93.64L177.86,105.39L178.57,111.01L179.28,123.54L180.7,153.18L181.41,170.56L182.12,93.64L182.84,95.17L183.55,97.47L184.26,98.75L184.97,101.81L185.68,93.64L186.39,94.4L187.82,123.03L188.53,129.41L189.24,125.07L189.95,153.69L190.66,100.02L191.37,117.91L192.8,153.18L193.51,92.36L194.22,86.22L194.93,103.6L195.64,118.43L196.35,114.59L197.78,115.87L198.49,132.23L199.2,89.29L199.91,89.8L200.62,86.99L202.76,99L203.47,111.78L204.18,114.59L204.89,134.27L206.31,181.04L207.02,117.15L207.74,117.4L208.45,119.19L209.16,132.74L209.87,130.69L211.29,160.08L212,156.5L213.43,176.18L214.14,179.51L214.85,180.78L215.56,178.99L216.27,211.2L216.98,104.63L218.41,99L219.12,105.39L221.25,97.21L221.96,100.02L222.68,99.26L223.39,94.4L224.81,115.36L225.52,107.69L229.08,173.63L229.79,126.09L231.21,126.35L231.92,128.65L232.64,126.09L233.35,130.95L234.77,146.54L235.48,157.78L236.9,174.39L237.62,172.35L238.33,196.88L239.04,124.05L240.46,137.85L241.17,139.13L242.6,142.45L243.31,139.38L244.73,197.14L245.44,103.6L246.86,129.16L247.58,85.46L248.29,89.29L249,82.39L250.42,86.99L251.13,82.39L251.84,84.18L252.56,81.62L253.98,109.99L254.69,107.18L256.11,136.32L256.82,137.08L257.54,130.95L258.25,135.8L258.96,142.45L259.67,160.85L260.38,135.8L261.09,147.3L261.8,155.23L262.52,174.65L263.23,170.31L263.94,195.09L265.36,96.96L266.07,96.96L266.78,96.45L267.49,91.59L268.21,90.31L268.92,97.98L269.63,93.38L270.34,94.15L271.05,95.17L271.76,100.02L273.19,105.14L273.9,116.38L277.45,189.22L278.17,187.68L278.88,212.73L279.59,118.43L281.01,163.92L281.72,94.4L283.15,102.33L283.86,99.77L284.57,105.65L285.28,95.68L287.41,103.09L288.13,97.21L288.84,103.6L289.55,98.49L290.26,103.35L290.97,101.81L292.39,115.36L293.11,113.06L294.53,116.38L295.24,124.81L295.95,130.69L296.66,149.86L297.37,165.45L298.09,90.31L298.8,95.94L299.51,109.48L300.22,109.48L300.93,110.5L301.64,107.18L302.35,118.68L304.49,162.38L305.2,108.97L305.91,106.41L306.62,109.23L307.33,111.27L308.05,110.25L309.47,106.41L310.18,108.46L310.89,118.94L311.6,118.17L312.31,121.75L313.03,137.85L313.74,137.85L314.45,146.79L315.16,171.33L315.87,120.21L316.58,123.03L317.29,130.44L318.01,132.48L318.72,131.97L320.14,137.08L320.85,139.38L322.99,157.78L323.7,176.69L324.41,188.96L325.12,136.83L327.25,165.7L327.97,141.17L330.1,155.74L330.81,164.68L332.23,168L332.95,180.53L334.37,175.67L335.08,192.79L336.5,157.27L337.21,154.2L337.93,160.85L338.64,158.04L339.35,162.13L340.06,155.23L340.77,161.36L341.48,157.27L342.19,158.04L342.91,165.7L343.62,165.7L344.33,176.44L345.04,189.47L345.75,188.71L347.17,212.98L347.89,245.44L349.31,142.45L350.02,142.45L350.73,142.96L351.44,145.52L352.15,141.94L352.87,142.19L353.58,141.17L354.29,151.65L355,141.94L355.71,144.24L356.42,145.77L357.13,144.75L357.85,147.05L358.56,144.75L361.4,166.22L362.11,167.75L363.54,202.76L364.25,149.35L364.96,164.94L365.67,161.36L368.52,228.32L369.23,142.45L370.65,149.35L371.36,155.74L373.5,187.43L374.21,186.66L374.92,191.77L375.63,208.9L376.34,115.87L377.05,124.56L377.77,127.37L378.48,143.22L379.19,143.22L379.9,157.02L381.32,186.66L382.03,185.38L382.75,220.4L383.46,128.39L384.88,134.78L385.59,141.94L387.73,168.52L388.44,190.24L389.15,130.18L389.86,139.38L390.57,137.59L391.28,139.64L392.71,172.86L393.42,184.87L394.84,205.57L395.55,234.2L396.97,195.61L397.69,205.32L399.11,91.85L399.82,93.64L400.53,90.57L401.24,92.1L401.95,87.76L402.67,89.29L403.38,89.04L404.09,92.36L404.8,85.71L405.51,91.08L406.93,108.71L407.65,106.41L410.49,164.43L411.2,124.81L414.76,175.93L415.47,193.82L416.18,220.14L416.89,125.84L418.32,119.19L419.03,121.49L419.74,121.75L420.45,136.06L421.16,83.92L421.87,87.5L422.59,88.78L423.3,84.69L424.72,101.3L425.43,115.61L426.14,148.07L426.85,90.57L427.57,90.06L428.28,86.99L428.99,99.51L429.7,92.36L432.55,142.19L433.26,173.37L433.97,90.82L434.68,97.47L435.39,100.02L436.1,113.57L436.81,116.13L437.53,115.36L438.24,111.78L438.95,116.89L441.08,148.33L441.79,171.84L442.51,189.22L443.22,118.94L443.93,121.24L444.64,126.35L446.06,129.67L446.77,146.54L447.48,145L448.2,175.67L449.62,109.48L450.33,109.23L453.18,158.29L453.89,78.56L454.6,79.07L455.31,90.06L458.87,134.53L459.58,76.26L461,81.62L461.71,74.47L463.85,83.92L464.56,81.62L465.27,84.69L465.98,92.61L466.69,95.94L467.4,103.86L468.83,100.54L469.54,103.35L470.25,103.09L470.96,112.55L471.67,114.08L472.38,129.41L474.52,166.73L475.23,163.15L476.65,191.77L477.36,229.34L478.79,92.61L479.5,102.07L480.21,102.84L480.92,114.85L481.63,112.8L482.34,113.83L485.9,192.54L486.61,74.98L487.32,81.37L488.04,76.51L490.17,90.06L490.88,87.76L491.59,96.96L492.3,116.38L493.73,142.96L494.44,127.11L495.15,130.95L495.86,128.9L496.57,128.9L497.28,135.04L498,137.08L498.71,151.14L500.84,167.49L501.55,165.45L502.98,192.03L503.69,225.51L504.4,249.53L505.11,178.48L505.82,178.74L506.53,203.78L507.24,80.6L507.96,83.67L508.67,88.27L509.38,91.08L510.09,98.24L510.8,97.21L511.51,114.85L512.94,110.76L513.65,111.01L514.36,140.92L515.07,138.1L515.78,159.06L516.49,118.17L517.92,115.1L518.63,119.96L519.34,116.64L520.05,133.5L520.76,132.48L521.47,144.75L525.03,183.85L525.74,216.82L526.45,232.92L527.16,230.11L527.88,230.62L528.59,232.41L529.3,231.64L530.01,245.95L530.72,271.25L531.43,200.97L532.14,200.21L532.86,200.72L534.28,202.76L534.99,203.02L535.7,203.78L536.41,202.51L537.12,199.44L537.84,200.72L539.26,197.65L539.97,196.88L540.68,199.18L541.39,196.63L542.1,204.3L542.82,202L544.24,221.67L544.95,224.48L546.37,222.7L547.08,224.23L547.8,226.27L548.51,223.97L549.22,223.46L549.93,237.01L550.64,239.56L551.35,255.41L552.06,194.07L552.78,197.91L553.49,195.86L554.2,190.75L554.91,193.82L555.62,193.31L556.33,193.05L557.04,198.16L557.76,197.91L558.47,195.35L559.18,195.09L559.89,197.91L560.6,196.88L561.31,200.97L563.45,195.61L564.16,198.67L564.87,199.44L565.58,194.58L566.29,200.46L567,199.44L569.14,216.31L569.85,212.98L570.56,215.54L571.27,231.38L573.41,237.77L574.12,231.38L575.54,267.42L576.25,257.71L576.96,263.07L577.68,277.9L579.1,266.65L579.81,253.36L580.52,256.69L581.23,251.32L581.94,254.39L582.66,265.37L584.08,154.46L584.79,151.14L585.5,153.95L586.21,162.38L586.92,168L587.64,181.55L588.35,172.09L589.06,188.71L589.77,213.5L590.48,272.53L591.19,63.22L591.9,65.52L592.62,66.03L596.17,120.47L596.88,143.73L597.6,79.58L598.31,81.37L599.02,84.44L601.15,94.66L601.86,105.39L602.58,103.09L603.29,122.77L604.71,172.09L605.42,143.98L606.13,141.43L606.84,145.77L608.98,211.45L609.69,220.91L610.4,232.92L611.11,184.62L611.82,186.15L612.54,185.89L613.25,185.89L613.96,189.47L614.67,200.97L615.38,197.14L617.52,235.47L618.23,252.6L618.94,180.27L619.65,185.38L621.07,190.49L621.78,198.93L622.49,201.23L623.21,198.93L623.92,195.61L624.63,197.39L625.34,196.12L626.05,210.43L626.76,216.56L627.47,239.05L628.19,183.08L628.9,183.59L629.61,182.06L631.03,192.54L631.74,193.56L632.45,194.84L633.17,204.04L633.88,216.82L634.59,216.56L635.3,228.57L636.01,225.25L636.72,240.59L637.43,264.86L638.15,195.35L638.86,192.03L639.57,193.56L640.28,204.04L640.99,202.51L641.7,211.2L642.41,204.04L644.55,212.98L645.26,210.68L645.97,209.41L646.68,212.22L649.53,217.58L650.24,218.86L653.09,229.6L653.8,245.7L655.22,266.4L655.93,229.08L656.64,231.9L657.35,230.62L658.07,229.08L658.78,231.13L659.49,232.15L660.2,230.11L660.91,231.9L661.62,230.62L662.33,229.85L663.05,227.81L664.47,232.66L665.18,230.36L665.89,224.23L666.6,228.57L667.31,221.16L668.03,223.72L669.45,223.46L670.16,225.51L670.87,223.21L671.58,217.84L672.29,216.82L673.01,222.18L673.72,218.35L674.43,220.4L675.85,212.22L676.56,211.71L677.27,216.82L677.99,215.8L678.7,215.8L679.41,221.67L682.25,237.26L682.97,234.2L684.39,246.97L685.1,264.86L686.52,212.73L687.23,216.56L687.95,214.52L688.66,218.86L689.37,222.7L690.08,234.2L690.79,249.79L691.5,248.51L692.21,271.76L692.93,213.24L694.35,215.03L695.06,209.41L695.77,208.64L696.48,211.96L697.91,209.92L698.62,209.15L700.04,208.13L700.75,210.43L701.46,209.15L702.17,209.92L702.89,210.68L703.6,208.13L705.02,207.87L705.73,209.66L706.44,203.53L707.15,204.04L707.87,206.85L708.58,204.04L709.29,206.34L710,200.72" style="vector-effect: none; fill: none; stroke: rgb(214, 39, 40); stroke-opacity: 1; stroke-width: 2px; opacity: 1;"/></g><g class="points"/><g class="text"/></g><g class="trace scatter trace2cf539" style="stroke-miterlimit: 2; opacity: 1;"><g class="fills"/><g class="errorbars"/><g class="lines"><path class="js-line" d="M0,95.42L0.71,94.91L1.42,100.79L2.13,99L2.85,112.8L3.56,116.64L4.27,129.67L4.98,146.79L5.69,139.64L6.4,154.2L7.11,133.25L10.67,162.89L11.38,173.63L12.09,188.71L12.81,130.69L13.52,130.69L14.23,134.27L14.94,142.45L15.65,161.36L16.36,159.06L17.07,161.87L17.79,159.83L18.5,163.15L19.21,175.42L19.92,173.88L20.63,174.65L21.34,181.81L22.05,177.72L22.77,184.62L23.48,195.61L24.19,164.43L24.9,167.75L25.61,164.43L26.32,178.99L27.03,174.14L28.46,174.65L29.17,192.54L29.88,191.52L30.59,194.84L32.01,213.24L32.73,209.41L33.44,212.98L34.15,210.43L34.86,210.94L35.57,217.33L36.99,222.18L37.71,226.53L39.84,219.63L40.55,223.72L41.26,224.48L41.97,229.08L42.69,226.53L43.4,228.57L44.82,238.8L45.53,237.01L46.24,240.59L46.95,239.31L48.38,281.22L49.09,177.97L49.8,181.04L50.51,179.76L51.93,175.93L52.65,176.44L53.36,178.99L54.07,186.41L54.78,185.89L55.49,119.45L56.91,130.18L57.63,130.95L59.05,152.42L59.76,151.14L60.47,169.54L61.18,164.43L61.89,202L62.61,103.86L63.32,103.6L64.03,105.14L64.74,109.48L65.45,119.45L66.87,141.17L67.59,138.36L68.3,154.97L69.01,154.46L69.72,153.69L70.43,175.67L71.14,115.87L71.85,111.27L72.57,115.36L73.28,116.64L73.99,113.57L75.41,117.66L76.12,116.13L76.83,119.45L77.55,114.85L78.97,140.92L79.68,132.74L80.39,138.1L81.1,137.08L83.24,191.26L83.95,187.17L84.66,224.23L85.37,124.56L86.08,126.86L86.79,139.38L87.51,142.45L88.22,152.16L91.06,206.08L91.77,234.96L92.48,160.08L93.2,189.22L93.91,108.97L94.62,109.99L95.33,111.78L96.75,107.69L97.46,103.86L98.89,109.99L99.6,118.43L100.31,117.15L101.02,121.75L103.16,166.47L103.87,208.9L105.29,207.87L106,208.64L106.71,207.36L107.42,208.9L108.14,207.36L108.85,208.64L110.98,216.56L111.69,212.22L112.4,210.68L113.12,213.24L114.54,220.4L115.25,219.12L115.96,221.93L116.67,217.07L118.1,218.86L118.81,215.54L119.52,211.45L120.23,212.73L121.65,205.83L122.36,208.38L123.08,204.55L123.79,208.64L125.21,204.3L125.92,210.68L127.34,212.73L128.06,207.87L128.77,211.96L129.48,220.91L130.9,221.42L131.61,220.4L132.32,231.13L133.04,230.87L133.75,228.83L135.17,229.08L135.88,232.92L136.59,228.32L137.3,229.08L138.02,230.87L138.73,237.01L139.44,264.86L140.15,182.06L140.86,177.21L141.57,177.46L142.28,177.21L143,175.16L143.71,176.95L144.42,175.93L145.13,177.97L145.84,170.56L146.55,172.61L147.26,169.79L147.98,181.81L148.69,179.51L149.4,182.57L150.11,180.53L150.82,185.13L152.96,196.37L153.67,198.42L154.38,200.21L155.09,199.95L156.51,198.93L157.22,222.7L160.07,279.69L160.78,225L161.49,228.57L162.2,226.53L163.63,230.87L164.34,236.24L165.05,232.66L165.76,235.22L166.47,235.22L167.18,232.92L167.9,233.94L168.61,226.27L169.32,229.85L170.03,222.95L172.16,205.32L172.88,206.34L174.3,198.67L175.01,191.52L175.72,177.21L176.43,182.32L177.14,180.78L177.86,196.37L179.28,213.5L179.99,235.99L182.84,273.3L183.55,113.83L185.68,128.14L186.39,125.58L188.53,189.98L189.24,183.85L189.95,200.21L190.66,158.8L191.37,189.73L192.08,74.98L192.8,71.91L193.51,79.07L195.64,95.94L196.35,91.59L197.06,101.56L197.78,99.51L200.62,149.86L201.33,186.66L202.04,118.94L202.76,121.49L203.47,127.11L204.18,124.56L204.89,146.79L205.6,188.96L206.31,114.85L207.02,117.66L207.74,130.44L208.45,131.2L209.16,128.39L210.58,169.28L211.29,83.41L212,82.39L212.72,87.76L214.14,81.37L214.85,79.58L215.56,79.07L216.27,89.55L216.98,83.67L217.7,87.76L219.83,102.84L220.54,103.86L222.68,137.59L223.39,158.55L224.1,100.02L224.81,108.46L226.23,139.13L226.94,138.1L229.08,173.63L229.79,208.38L230.5,143.73L231.21,157.53L231.92,189.47L232.64,83.16L233.35,90.06L234.06,88.01L234.77,89.29L235.48,93.12L236.19,103.6L236.9,99.26L237.62,99.26L238.33,108.46L239.04,123.79L239.75,122.77L241.17,151.9L241.88,109.74L242.6,108.97L243.31,109.48L244.73,117.15L245.44,122L248.29,161.36L249,163.92L249.71,158.55L250.42,162.13L251.13,161.1L251.84,176.18L253.27,188.19L253.98,224.48L254.69,152.67L255.4,167.49L256.11,165.19L256.82,165.45L257.54,164.17L258.25,168.77L258.96,166.73L259.67,187.68L260.38,88.78L261.09,90.06L261.8,96.45L262.52,106.67L263.23,100.28L264.65,131.71L265.36,131.71L266.07,136.57L266.78,130.44L267.49,135.8L268.21,131.97L268.92,158.8L269.63,84.69L270.34,80.35L271.05,80.6L271.76,80.09L272.47,78.56L273.19,82.9L276.03,121.24L276.74,136.32L277.45,140.66L278.17,137.85L279.59,159.32L280.3,163.92L281.01,166.73L281.72,176.95L282.43,200.46L283.15,132.99L283.86,128.65L284.57,145L285.28,135.29L285.99,167.24L287.41,102.84L288.13,105.65L288.84,109.48L289.55,100.02L290.26,105.14L290.97,104.37L291.68,96.96L292.39,104.88L293.11,102.07L293.82,111.27L295.24,119.7L295.95,132.99L298.09,189.47L298.8,88.78L300.22,111.01L300.93,107.44L302.35,111.53L303.07,123.28L303.78,130.69L304.49,148.84L305.2,149.6L305.91,148.33L306.62,147.82L307.33,144.75L308.05,148.33L308.76,162.89L309.47,177.46L310.18,114.85L311.6,109.99L312.31,110.76L313.03,112.55L313.74,109.99L314.45,118.94L315.16,115.61L317.29,176.44L318.01,187.68L320.14,246.46L320.85,165.45L321.56,168.26L322.27,167.24L322.99,170.56L323.7,111.27L324.41,109.48L325.12,111.27L326.54,107.18L327.25,106.16L327.97,108.71L328.68,114.34L329.39,113.31L330.1,124.3L330.81,134.27L331.52,134.01L332.23,133.76L332.95,146.54L333.66,142.96L334.37,141.43L335.08,161.62L335.79,159.57L336.5,160.59L337.21,189.22L337.93,97.21L338.64,95.42L339.35,100.02L340.06,98.49L340.77,100.28L342.19,114.59L342.91,135.04L345.04,163.15L345.75,163.15L347.17,192.28L347.89,232.92L348.6,98.75L349.31,102.58L350.02,99L351.44,96.96L352.15,105.14L352.87,109.99L353.58,108.46L355,115.1L355.71,113.83L356.42,116.13L357.13,125.07L358.56,143.47L359.27,141.43L363.54,207.36L364.25,177.21L365.67,165.96L366.38,168.77L367.81,181.04L368.52,191.01L370.65,235.73L371.36,259.5L372.79,156.5L373.5,151.65L374.21,149.09L374.92,150.63L375.63,156.76L376.34,155.99L379.19,165.45L379.9,171.33L382.75,223.97L383.46,162.89L384.17,160.59L384.88,162.64L385.59,159.83L386.3,162.38L387.73,166.73L388.44,165.45L389.86,170.56L390.57,168.26L391.28,173.37L391.99,187.43L392.71,187.68L393.42,196.63L394.13,195.61L394.84,208.9L396.26,218.86L396.97,233.94L398.4,226.78L399.11,230.11L399.82,232.41L400.53,226.53L401.24,251.32L401.95,184.11L402.67,188.19L403.38,186.66L406.22,174.65L406.93,175.42L407.65,175.93L408.36,182.83L409.07,184.11L409.78,187.17L410.49,198.67L411.2,197.14L412.63,233.68L413.34,232.15L414.05,252.34L414.76,154.46L415.47,154.72L416.18,158.8L416.89,157.53L417.61,151.9L419.03,175.16L419.74,174.91L420.45,171.33L421.87,204.81L422.59,204.55L423.3,205.32L424.01,230.36L424.72,234.2L425.43,250.55L426.14,181.81L426.85,185.64L427.57,203.27L428.99,250.3L429.7,141.68L430.41,142.19L431.12,144.49L434.68,187.43L435.39,186.66L436.1,206.6L436.81,161.62L438.24,164.43L438.95,161.62L440.37,160.34L441.08,161.36L444.64,254.9L445.35,283.52L446.06,198.16L446.77,212.73L447.48,207.36L448.2,216.56L448.91,217.58L449.62,215.54L450.33,215.28L451.04,216.82L451.75,219.12L452.46,229.34L454.6,268.95L455.31,171.33L456.02,94.66L456.73,97.47L457.44,100.02L458.87,96.45L459.58,103.35L460.29,101.05L461,101.81L461.71,101.3L462.42,103.35L463.14,105.39L463.85,102.07L464.56,104.37L465.27,112.29L465.98,111.78L466.69,124.3L468.12,135.8L468.83,134.53L469.54,134.27L470.25,137.08L470.96,138.1L471.67,133.76L473.1,170.56L473.81,93.89L474.52,105.65L475.23,100.02L477.36,122.26L478.08,149.09L478.79,147.56L479.5,158.04L480.21,156.76L480.92,175.42L482.34,104.37L483.06,99L483.77,105.14L484.48,133.76L485.19,153.95L485.9,75.49L486.61,86.22L487.32,82.9L488.75,94.15L489.46,107.44L490.17,117.15L490.88,46.1L491.59,59.65L492.3,58.37L495.86,117.15L496.57,85.71L499.42,108.97L500.13,109.23L502.26,142.7L502.98,48.91L504.4,63.22L505.11,57.86L505.82,62.71L506.53,74.21L507.24,80.09L507.96,102.07L510.09,126.86L510.8,124.81L512.94,157.27L513.65,77.54L514.36,95.17L515.07,89.55L515.78,103.86L516.49,47.12L517.2,51.47L517.92,51.21L518.63,58.37L519.34,51.21L522.18,91.59L522.9,91.34L524.32,121.75L525.03,180.02L525.74,176.95L526.45,187.94L527.88,194.33L528.59,187.68L529.3,184.36L530.01,205.57L531.43,214.01L532.14,214.77L533.57,254.13L534.28,182.83L534.99,177.72L535.7,180.78L536.41,177.21L537.12,181.55L537.84,182.32L538.55,180.02L539.26,179.76L539.97,185.64L540.68,182.83L541.39,189.22L542.1,185.64L542.82,190.49L544.95,219.37L545.66,222.18L546.37,222.18L547.08,217.58L547.8,221.67L548.51,215.54L549.22,212.73L549.93,223.46L550.64,226.02L551.35,241.86L552.06,235.99L552.78,237.01L554.2,233.94L554.91,231.13L555.62,232.15L556.33,230.87L557.04,250.81L557.76,202L558.47,202.51L559.18,199.69L559.89,197.65L560.6,198.93L562.74,201.23L563.45,200.97L564.16,202L564.87,198.93L567,195.35L567.72,195.61L568.43,197.14L569.14,195.86L569.85,193.31L570.56,194.84L571.27,202.51L571.98,198.42L572.7,200.46L573.41,196.63L574.12,194.33L574.83,200.46L575.54,214.26L576.25,209.15L576.96,210.17L577.68,225L579.1,231.13L579.81,230.62L580.52,229.85L581.23,232.66L581.94,230.36L582.66,254.9L583.37,191.52L584.08,192.79L584.79,192.03L585.5,191.52L586.21,192.79L586.92,192.03L587.64,192.79L589.06,192.03L589.77,192.79L591.9,195.86L592.62,196.37L593.33,196.63L594.04,198.16L595.46,202.76L596.17,203.53L596.88,202.76L597.6,203.53L598.31,203.78L599.02,201.48L600.44,211.2L601.15,213.24L601.86,226.27L602.58,223.97L604,265.12L604.71,303.71L605.42,226.27L606.13,248.76L606.84,249.27L607.56,280.45L608.27,64.5L608.98,67.31L609.69,68.85L611.11,92.61L611.82,90.57L612.54,96.7L613.25,113.31L615.38,161.87L616.09,183.59L617.52,123.54L618.23,159.32L618.94,87.5L619.65,94.66L621.07,110.25L621.78,123.28L622.49,121.49L623.21,123.54L623.92,121.24L624.63,124.05L625.34,126.09L626.05,135.29L626.76,147.82L627.47,87.5L629.61,110.25L630.32,124.3L631.74,174.39L632.45,97.72L633.17,103.6L633.88,124.56L634.59,124.05L635.3,149.09L636.01,81.88L636.72,85.71L638.15,84.44L638.86,79.84L640.28,89.8L640.99,86.48L643.13,112.04L643.84,112.29L644.55,122.77L645.26,59.13L645.97,58.62L646.68,56.07L647.39,50.7L648.11,57.6L650.24,67.82L650.95,66.8L653.09,112.29L653.8,128.9L655.22,196.12L655.93,100.28L656.64,95.94L657.35,96.96L658.07,100.54L658.78,94.15L659.49,106.16L660.2,102.33L661.62,110.76L662.33,125.84L663.76,134.27L664.47,133.5L665.89,170.05L666.6,105.39L667.31,106.16L668.03,108.2L668.74,103.6L669.45,104.63L670.16,104.37L670.87,111.01L673.01,122.26L673.72,120.73L674.43,119.7L675.14,130.44L677.27,158.8L677.99,175.42L678.7,179.51L679.41,199.44L680.12,124.05L680.83,137.34L682.25,181.04L682.97,131.2L685.1,159.57L685.81,145.77L687.23,147.56L687.95,151.65L689.37,170.82L690.08,186.92L690.79,201.23L691.5,153.44L692.93,145.26L693.64,146.54L697.19,122.77L697.91,123.28L699.33,135.29L700.04,148.33L703.6,230.62L704.31,151.9L707.15,149.09L707.87,152.16L708.58,148.58L709.29,152.42L710,157.53" style="vector-effect: none; fill: none; stroke: rgb(148, 103, 189); stroke-opacity: 1; stroke-width: 2px; opacity: 1;"/></g><g class="points"/><g class="text"/></g><g class="trace scatter trace1423ae" style="stroke-miterlimit: 2; opacity: 1;"><g class="fills"/><g class="errorbars"/><g class="lines"><path class="js-line" d="M0,95.42L0.71,94.91L1.42,100.79L2.13,99L2.85,112.8L3.56,116.64L4.27,129.67L4.98,146.79L5.69,139.64L6.4,154.2L7.11,133.25L10.67,162.89L11.38,173.63L12.09,188.71L12.81,130.69L13.52,130.69L14.23,134.27L14.94,142.45L15.65,161.36L16.36,159.06L17.07,161.87L17.79,159.83L18.5,163.15L19.21,175.42L19.92,173.88L20.63,174.65L21.34,181.81L22.05,177.72L22.77,184.62L23.48,195.61L24.19,164.43L24.9,167.75L25.61,164.43L26.32,178.99L27.03,174.14L28.46,174.65L29.17,192.54L29.88,191.52L30.59,194.84L32.01,213.24L32.73,209.41L33.44,212.98L34.15,210.43L34.86,210.94L35.57,217.33L36.99,222.18L37.71,226.53L39.84,219.63L40.55,223.72L41.26,224.48L41.97,229.08L42.69,226.53L43.4,228.57L44.82,238.8L45.53,237.01L46.24,240.59L46.95,239.31L48.38,281.22L49.09,161.36L49.8,168.77L50.51,168.26L51.22,168.52L51.93,165.45L54.07,183.59L54.78,186.15L55.49,117.91L56.2,130.44L56.91,128.9L57.63,131.2L59.76,154.2L60.47,174.39L61.18,93.38L61.89,93.64L62.61,88.27L65.45,110.5L66.16,130.18L66.87,140.92L67.59,137.59L68.3,160.85L69.01,112.55L70.43,118.17L71.14,115.87L71.85,117.15L72.57,108.2L74.7,115.61L75.41,122.51L76.12,126.09L76.83,135.8L77.55,135.29L78.26,148.58L78.97,163.15L79.68,158.8L80.39,163.66L81.1,163.4L81.81,210.94L83.24,136.57L83.95,142.19L85.37,155.74L86.08,170.05L88.22,221.42L88.93,159.06L89.64,157.53L90.35,149.6L91.77,198.93L92.48,120.73L93.2,121.24L93.91,131.46L94.62,131.2L95.33,139.38L97.46,192.03L98.18,129.16L99.6,123.54L100.31,126.86L101.02,122.26L101.73,125.84L102.44,121.49L103.16,124.56L103.87,130.44L104.58,129.41L105.29,141.43L106,140.4L107.42,159.57L108.14,175.93L108.85,200.97L109.56,121.49L110.98,123.79L111.69,122L112.4,120.47L113.12,121.75L113.83,123.28L114.54,128.14L115.25,137.08L115.96,132.74L118.1,155.74L118.81,155.23L120.23,198.16L120.94,194.33L121.65,206.08L122.36,120.47L123.79,117.66L124.5,120.73L125.21,120.21L125.92,124.81L126.63,125.84L127.34,122.51L128.06,120.47L128.77,121.49L130.19,130.44L130.9,128.65L131.61,128.9L132.32,144.75L133.04,142.45L133.75,145.52L134.46,143.47L135.17,144.49L136.59,164.68L137.3,160.08L138.02,175.42L138.73,207.62L139.44,172.61L140.15,88.78L140.86,92.1L141.57,89.8L142.28,95.17L143,106.41L144.42,118.17L145.13,118.17L145.84,122L146.55,130.95L147.26,133.5L147.98,131.97L148.69,154.72L149.4,147.05L150.11,180.02L150.82,88.52L153.67,124.56L154.38,138.87L155.09,158.04L155.8,89.8L159.36,128.39L160.07,152.93L160.78,84.69L161.49,89.29L162.2,92.61L162.92,86.22L163.63,83.92L164.34,87.76L165.76,84.95L166.47,83.67L167.18,85.46L167.9,91.59L168.61,102.33L169.32,95.94L170.03,102.33L170.74,121.24L172.16,147.56L172.88,145.52L173.59,159.06L174.3,200.46L175.72,105.39L176.43,110.5L177.14,109.23L177.86,112.04L180.7,161.62L181.41,190.75L182.12,99L182.84,99.26L183.55,100.28L184.26,104.11L184.97,102.33L186.39,111.01L187.1,117.15L188.53,151.14L189.24,149.35L190.66,167.75L191.37,183.34L192.08,138.62L192.8,147.3L193.51,167.49L194.22,165.45L196.35,195.35L197.06,194.84L197.78,195.35L198.49,211.45L199.2,143.47L199.91,144.75L200.62,153.44L202.76,203.27L203.47,219.12L204.18,149.86L204.89,176.44L205.6,97.47L206.31,104.11L207.02,102.07L207.74,110.25L208.45,107.95L209.16,115.36L209.87,124.56L210.58,145L212.72,172.61L213.43,195.35L214.85,115.87L215.56,115.61L216.27,128.65L216.98,125.84L219.12,122.51L219.83,123.03L220.54,124.3L221.25,127.37L221.96,130.69L222.68,143.98L223.39,149.6L224.1,162.64L225.52,209.15L226.23,170.56L227.66,115.1L228.37,126.86L230.5,162.13L231.21,190.75L231.92,112.29L232.64,117.91L233.35,113.31L234.06,118.17L236.9,165.19L237.62,161.36L238.33,162.89L239.04,170.56L240.46,172.86L241.17,177.21L241.88,174.65L242.6,178.48L243.31,179.76L244.02,192.79L245.44,220.65L246.15,226.27L246.86,227.81L247.58,239.05L249,240.59L249.71,244.16L250.42,240.33L251.13,240.59L251.84,239.31L252.56,239.56L253.27,254.13L254.69,186.41L255.4,180.27L256.11,182.57L256.82,182.06L257.54,181.55L258.25,179.51L258.96,181.55L259.67,181.04L260.38,185.13L261.09,178.23L262.52,181.04L263.23,181.55L263.94,183.59L264.65,190.24L265.36,188.96L266.07,202.51L267.49,201.74L268.21,202L268.92,207.87L269.63,205.06L270.34,205.06L271.05,201.74L271.76,203.78L272.47,203.53L273.19,205.83L273.9,219.63L275.32,249.79L276.03,170.05L277.45,176.69L278.17,174.65L278.88,177.21L279.59,176.95L281.72,184.11L282.43,183.34L283.15,196.63L283.86,190.49L284.57,187.17L285.28,187.94L285.99,184.36L286.7,195.86L288.13,89.8L288.84,92.1L289.55,88.52L290.26,94.66L290.97,90.31L291.68,94.91L292.39,103.6L293.11,103.35L293.82,94.91L294.53,113.31L295.24,106.16L296.66,109.74L297.37,108.71L298.09,113.31L298.8,139.89L300.22,128.39L300.93,129.67L301.64,133.76L302.35,149.35L303.78,196.37L304.49,120.73L305.2,117.66L305.91,118.17L306.62,115.87L307.33,118.43L308.05,115.61L308.76,116.89L309.47,117.66L310.18,113.06L310.89,116.13L311.6,113.31L312.31,117.4L313.03,113.57L313.74,114.59L314.45,122L316.58,145L317.29,167.24L318.72,117.4L319.43,116.38L320.14,118.94L320.85,116.64L321.56,115.87L322.27,119.7L322.99,121.49L323.7,131.97L326.54,185.89L327.25,143.47L328.68,136.57L329.39,157.02L330.1,158.55L330.81,164.43L331.52,186.92L332.23,119.7L333.66,134.78L334.37,133.76L335.79,142.7L336.5,144.49L337.21,160.34L337.93,157.02L339.35,198.67L340.06,129.67L340.77,129.67L341.48,128.39L342.19,125.84L342.91,127.88L343.62,123.03L344.33,126.09L345.04,127.37L345.75,123.28L350.02,191.52L350.73,191.52L351.44,219.63L352.15,132.99L352.87,143.98L353.58,142.45L354.29,135.55L355,153.69L356.42,159.83L357.13,184.36L357.85,122.77L358.56,126.6L359.27,125.33L359.98,129.67L361.4,147.56L362.11,146.03L364.25,197.39L364.96,209.15L365.67,88.27L366.38,93.64L367.09,97.72L367.81,97.98L368.52,111.01L369.23,113.83L369.94,126.86L371.36,152.16L372.07,181.29L372.79,176.18L373.5,179.76L374.21,183.34L374.92,179.51L376.34,188.96L377.05,185.89L377.77,196.12L378.48,195.35L379.19,196.88L379.9,201.48L380.61,199.44L381.32,204.55L382.03,203.53L382.75,206.34L383.46,202.51L384.17,203.02L386.3,210.68L387.01,210.68L387.73,209.66L388.44,211.45L389.15,209.15L389.86,209.66L390.57,211.45L391.28,215.54L391.99,214.01L392.71,214.26L393.42,217.33L394.13,227.3L394.84,223.72L395.55,238.8L396.97,243.14L397.69,254.39L398.4,252.6L399.11,252.85L400.53,254.13L401.24,254.9L402.67,287.86L403.38,291.44L404.09,290.42L404.8,306.52L405.51,220.91L406.22,226.53L406.93,226.78L407.65,228.83L408.36,233.43L409.07,100.28L409.78,101.05L410.49,100.02L411.2,95.94L411.91,97.21L412.63,93.64L413.34,95.17L414.05,101.05L414.76,96.45L415.47,94.91L416.18,97.98L416.89,97.47L417.61,103.09L419.74,126.09L420.45,125.33L421.16,135.04L421.87,158.55L423.3,103.35L424.01,105.9L424.72,110.76L425.43,105.14L426.14,108.46L426.85,105.14L428.28,113.57L428.99,124.05L431.83,174.14L432.55,206.08L433.97,114.08L434.68,129.41L435.39,127.88L436.1,150.12L437.53,155.48L438.24,154.46L438.95,153.95L439.66,165.7L441.08,188.19L441.79,142.96L442.51,149.09L443.22,186.41L443.93,114.08L444.64,128.14L445.35,145.77L446.06,84.18L447.48,82.14L448.2,82.14L448.91,86.74L449.62,85.71L451.04,86.74L451.75,87.5L456.02,156.76L456.73,184.87L457.44,208.38L458.16,99.26L459.58,118.43L460.29,110.76L461,110.5L461.71,108.2L462.42,108.2L463.14,116.64L464.56,137.34L465.27,143.73L465.98,176.69L466.69,108.97L467.4,128.65L468.12,65.52L468.83,68.08L469.54,65.01L470.25,65.78L470.96,64.5L471.67,65.52L472.38,63.22L474.52,88.52L475.23,81.88L477.36,124.81L478.08,154.2L479.5,78.3L480.21,81.11L482.34,88.27L483.06,97.47L483.77,103.6L484.48,130.95L486.61,182.83L487.32,178.74L488.04,177.21L488.75,218.86L490.17,67.31L490.88,70.12L492.3,75.24L493.02,91.85L494.44,122L495.15,117.66L496.57,151.9L497.28,71.66L498,65.27L498.71,71.66L499.42,77.02L500.13,75.75L500.84,80.6L501.55,78.05L504.4,117.66L505.11,117.4L505.82,123.79L507.24,164.43L507.96,103.6L508.67,131.46L509.38,71.66L510.09,70.64L510.8,73.19L512.22,87.76L512.94,85.46L513.65,87.5L514.36,95.94L515.07,95.42L515.78,111.27L517.2,132.23L517.92,137.85L519.34,77.02L520.05,78.3L520.76,83.16L521.47,81.37L525.03,117.66L525.74,131.97L527.16,188.71L527.88,86.74L528.59,86.22L529.3,78.3L530.72,94.66L531.43,91.85L532.14,93.64L532.86,112.29L533.57,135.55L534.28,135.29L534.99,146.03L535.7,146.03L536.41,149.09L538.55,191.52L539.26,215.54L540.68,134.78L541.39,132.74L542.1,156.25L542.82,96.45L545.66,158.55L546.37,101.81L547.8,102.58L548.51,102.84L549.22,100.28L549.93,100.79L550.64,101.3L551.35,108.97L553.49,124.05L554.2,134.01L554.91,149.35L555.62,147.82L556.33,149.86L557.04,174.14L557.76,173.88L558.47,175.67L559.18,176.69L559.89,213.75L560.6,104.11L561.31,106.93L562.02,100.02L562.74,108.97L563.45,105.65L567,155.99L567.72,127.88L568.43,128.65L569.14,125.58L570.56,125.07L571.27,143.22L571.98,143.22L572.7,148.07L574.12,169.03L574.83,194.84L575.54,238.03L576.25,159.32L576.96,158.04L577.68,182.06L579.1,103.6L579.81,104.37L581.94,105.14L582.66,111.01L585.5,143.47L586.21,161.1L586.92,190.24L587.64,91.59L588.35,91.08L589.06,86.99L590.48,97.21L591.19,115.61L593.33,144.49L594.04,159.06L594.75,189.73L595.46,120.73L598.31,143.73L599.02,156.76L600.44,182.83L601.15,139.89L601.86,169.79L602.58,168.77L603.29,196.37L604,115.1L604.71,119.7L606.13,153.44L606.84,150.88L607.56,189.22L608.27,122L608.98,122L609.69,127.11L611.11,162.89L611.82,158.55L613.96,205.06L614.67,116.89L615.38,132.48L616.09,131.46L616.8,134.01L617.52,128.65L618.23,159.83L618.94,93.12L619.65,95.68L620.36,106.16L621.78,132.23L622.49,134.27L623.21,132.99L623.92,125.07L624.63,131.97L625.34,129.67L626.05,150.63L626.76,98.75L628.19,107.95L628.9,107.44L632.45,147.56L633.17,165.19L633.88,192.79L634.59,99.26L635.3,92.36L636.01,94.15L637.43,91.34L638.15,94.91L638.86,95.17L639.57,103.6L640.28,112.8L640.99,111.01L642.41,138.36L643.13,156.5L643.84,154.97L644.55,177.21L645.26,100.28L645.97,107.18L646.68,106.67L647.39,108.71L648.11,116.64L648.82,114.85L649.53,128.14L650.24,127.63L650.95,137.08L652.37,172.86L653.09,183.08L653.8,200.46L654.51,162.38L655.22,94.15L655.93,114.34L656.64,112.55L657.35,104.88L658.07,112.8L658.78,112.29L660.2,154.46L660.91,151.65L661.62,172.35L662.33,105.65L663.76,143.73L664.47,145.26L665.18,178.23L665.89,146.54L666.6,88.78L667.31,89.55L668.03,90.82L669.45,100.28L670.16,94.66L672.29,114.85L673.01,116.89L673.72,118.68L674.43,113.31L675.85,144.24L676.56,143.47L677.27,157.27L677.99,190.49L678.7,90.31L679.41,92.87L680.12,97.72L682.25,144.49L682.97,96.96L684.39,91.85L685.1,100.02L685.81,102.33L686.52,116.89L687.23,119.45L687.95,140.66L690.08,191.77L690.79,226.53L691.5,142.45L692.21,151.14L694.35,181.81L695.06,225.76L695.77,234.2L696.48,186.66L697.91,153.44L698.62,153.44L699.33,151.65L700.04,153.18L701.46,152.42L702.17,153.44L704.31,168.26L705.02,181.29L705.73,182.06L706.44,197.39L707.15,195.61L707.87,200.72L708.58,198.42L709.29,201.48L710,222.7" style="vector-effect: none; fill: none; stroke: rgb(140, 86, 75); stroke-opacity: 1; stroke-width: 2px; opacity: 1;"/></g><g class="points"/><g class="text"/></g><g class="trace scatter trace226632" style="stroke-miterlimit: 2; opacity: 1;"><g class="fills"/><g class="errorbars"/><g class="lines"><path class="js-line" d="M0,83.67L0.71,80.86L1.42,84.69L2.85,78.05L3.56,81.62L4.27,78.81L4.98,81.62L5.69,77.02L6.4,85.46L7.83,89.04L8.54,93.38L9.96,141.68L10.67,139.38L11.38,157.02L12.09,96.19L12.81,99.26L13.52,92.36L14.23,93.89L14.94,97.72L15.65,96.19L16.36,99.26L17.79,104.11L18.5,110.5L19.21,112.04L19.92,116.38L20.63,115.1L21.34,130.69L22.05,140.66L22.77,139.89L25.61,192.03L26.32,210.94L27.75,118.43L28.46,123.54L29.88,141.43L30.59,153.44L31.3,146.03L32.01,171.33L32.73,49.93L33.44,54.02L34.15,66.03L34.86,68.59L35.57,83.41L36.28,81.11L36.99,102.84L37.71,102.33L38.42,114.85L39.13,128.39L39.84,86.74L40.55,87.25L41.26,97.98L42.69,96.45L43.4,97.47L45.53,157.27L46.24,149.35L46.95,148.58L47.67,181.29L49.09,105.9L49.8,121.75L50.51,141.43L51.22,70.89L52.65,75.24L53.36,80.09L54.07,76.26L54.78,79.58L56.2,111.78L56.91,107.95L57.63,108.71L58.34,130.44L59.76,161.36L60.47,163.66L61.18,183.85L61.89,96.96L62.61,101.81L63.32,124.56L64.03,53L64.74,57.35L66.16,68.08L66.87,69.61L68.3,72.17L69.01,70.12L70.43,97.72L71.14,101.81L72.57,108.71L73.28,106.93L75.41,134.78L76.12,143.22L76.83,146.54L77.55,161.36L78.26,136.83L78.97,138.1L79.68,140.92L80.39,151.65L81.1,143.73L81.81,142.19L82.53,157.27L83.24,159.83L83.95,180.78L84.66,115.61L85.37,130.18L86.08,128.39L86.79,131.46L88.22,140.66L88.93,133.76L90.35,163.4L91.06,161.1L91.77,177.72L92.48,289.14L93.2,189.73L93.91,191.01L94.62,201.48L95.33,208.64L96.04,205.57L97.46,223.97L98.18,223.72L98.89,231.64L99.6,228.06L101.02,244.42L101.73,263.33L102.44,178.74L103.16,183.85L103.87,200.97L104.58,199.95L105.29,204.81L106,198.93L109.56,255.41L110.27,197.39L110.98,202.25L111.69,199.18L112.4,197.65L113.12,201.23L113.83,200.46L114.54,208.9L116.67,228.57L117.38,248.25L118.1,172.86L118.81,174.91L119.52,177.72L120.23,184.87L120.94,181.29L121.65,195.86L122.36,194.33L123.79,217.58L124.5,218.1L126.63,242.12L127.34,171.58L128.06,175.42L128.77,173.88L129.48,189.22L130.19,188.96L130.9,185.64L131.61,183.34L132.32,196.37L133.04,211.71L133.75,206.85L134.46,208.9L135.17,206.34L136.59,207.62L137.3,205.83L138.02,201.48L138.73,216.56L140.15,213.75L140.86,215.54L141.57,217.07L142.28,224.48L143,160.08L143.71,162.89L144.42,161.87L145.13,163.4L145.84,161.36L146.55,160.34L147.26,173.63L147.98,185.89L148.69,184.87L150.82,193.56L151.53,205.83L153.67,230.62L154.38,229.6L155.09,232.15L155.8,231.38L156.51,253.62L157.22,190.24L158.65,195.09L159.36,195.09L160.07,192.79L160.78,193.05L161.49,192.54L162.2,196.37L162.92,197.14L163.63,194.07L164.34,195.35L165.05,192.54L167.9,207.11L168.61,220.65L171.45,262.05L172.16,270.74L172.88,269.46L173.59,273.81L175.01,151.14L175.72,145.52L176.43,150.63L177.14,145.77L177.86,175.42L178.57,80.6L179.99,92.36L180.7,84.69L184.26,125.33L184.97,123.79L186.39,126.86L187.1,147.56L187.82,142.96L188.53,149.09L189.24,185.13L189.95,93.89L191.37,91.08L192.08,93.89L192.8,95.17L193.51,90.06L195.64,109.48L196.35,121.24L197.06,161.1L197.78,70.12L199.2,88.78L199.91,107.95L200.62,102.07L201.33,106.93L202.04,109.99L202.76,126.86L203.47,73.96L204.18,95.94L204.89,96.19L205.6,109.23L206.31,110.5L207.02,118.94L207.74,132.23L208.45,60.41L210.58,84.69L211.29,102.33L212,55.56L212.72,72.42L213.43,64.25L214.14,71.91L215.56,62.71L216.27,71.91L216.98,73.45L217.7,81.62L219.12,91.34L219.83,107.69L221.25,138.87L221.96,88.27L223.39,124.56L224.1,92.61L225.52,120.47L226.23,54.79L226.94,58.37L227.66,56.83L228.37,64.25L229.08,79.58L229.79,79.07L230.5,84.44L231.92,116.38L232.64,121.49L233.35,150.12L234.06,104.11L234.77,124.56L235.48,70.12L236.19,57.6L236.9,61.18L238.33,62.71L239.04,59.39L239.75,55.3L240.46,66.55L244.02,122L244.73,142.45L246.15,172.61L246.86,185.64L248.29,48.91L249,48.15L249.71,59.65L250.42,58.62L251.13,71.15L251.84,65.01L253.27,68.85L253.98,71.4L256.11,111.53L256.82,102.07L258.25,149.35L258.96,111.53L259.67,115.36L260.38,114.34L261.09,122.51L261.8,142.7L262.52,96.45L263.23,119.96L263.94,135.8L264.65,132.23L265.36,153.44L266.07,107.69L266.78,119.96L267.49,117.91L268.21,120.47L268.92,68.59L269.63,66.8L270.34,70.38L271.05,72.17L271.76,77.54L274.61,100.02L275.32,111.27L276.03,124.05L276.74,117.15L278.88,183.59L279.59,193.56L281.01,207.87L281.72,145.77L282.43,144.75L283.15,153.69L283.86,65.52L284.57,70.89L287.41,110.5L288.13,122.77L288.84,128.65L289.55,148.84L290.26,147.56L290.97,142.19L291.68,159.32L292.39,95.68L293.11,99.77L293.82,112.04L295.24,142.45L295.95,35.37L297.37,27.44L298.09,37.16L298.8,50.96L299.51,50.19L300.22,54.02L303.07,136.57L303.78,64.5L305.2,93.64L305.91,94.91L307.33,119.19L308.05,133.5L308.76,59.65L309.47,61.69L310.18,70.89L311.6,77.54L312.31,92.87L316.58,178.48L317.29,102.33L318.72,110.5L319.43,113.83L320.85,111.53L321.56,107.18L323.7,132.48L324.41,163.92L325.83,115.61L326.54,137.59L327.97,92.87L328.68,93.12L330.1,88.27L330.81,89.55L331.52,93.12L332.23,91.08L334.37,94.15L335.08,98.49L337.21,118.68L337.93,119.7L338.64,118.17L339.35,111.53L342.91,173.63L343.62,173.12L344.33,209.41L345.04,151.65L345.75,172.35L346.46,109.74L347.89,105.65L348.6,106.41L349.31,113.57L350.02,112.29L350.73,111.01L351.44,116.38L352.15,112.55L352.87,120.21L355,142.96L355.71,157.78L358.56,203.53L359.27,100.02L360.69,116.13L361.4,113.31L362.11,112.8L362.83,114.59L364.25,111.78L364.96,120.47L366.38,127.11L367.09,142.45L368.52,146.79L369.23,141.43L369.94,176.69L370.65,80.86L372.07,87.5L372.79,111.53L373.5,110.76L374.21,148.07L374.92,163.15L375.63,95.68L376.34,117.4L377.05,46.87L377.77,40.22L378.48,49.68L382.03,64.25L382.75,72.17L384.88,79.58L385.59,96.19L386.3,111.01L387.01,110.76L387.73,108.2L388.44,105.14L389.15,126.09L390.57,74.47L391.28,76L392.71,105.65L393.42,97.98L395.55,132.74L396.26,131.2L397.69,147.3L398.4,155.23L399.11,136.83L399.82,71.66L400.53,82.9L401.24,81.11L401.95,78.56L402.67,89.55L405.51,120.73L406.22,139.89L407.65,148.58L408.36,150.12L409.07,150.37L409.78,173.12L410.49,78.3L411.2,84.95L411.91,97.72L412.63,95.68L413.34,93.12L414.05,93.64L416.89,154.72L417.61,153.44L418.32,150.63L419.03,151.39L419.74,151.65L420.45,182.83L421.87,102.84L422.59,114.08L423.3,62.2L424.01,68.59L426.14,67.06L426.85,64.25L427.57,69.61L428.28,63.48L429.7,87.76L430.41,82.39L431.83,128.14L432.55,69.1L434.68,90.82L435.39,100.79L436.81,133.76L437.53,67.06L438.24,68.85L438.95,84.69L440.37,90.06L441.08,97.98L441.79,131.97L442.51,126.35L443.93,155.48L444.64,109.48L445.35,109.23L446.06,110.5L446.77,109.99L447.48,115.61L448.2,116.64L448.91,138.87L449.62,90.31L450.33,92.1L451.04,100.79L451.75,101.05L452.46,112.55L453.18,109.48L453.89,111.01L456.02,129.93L456.73,146.28L458.16,185.64L458.87,122L459.58,121.75L460.29,117.15L461.71,112.55L462.42,121.75L463.14,118.43L463.85,123.03L465.27,142.19L465.98,148.07L467.4,182.83L468.12,75.75L468.83,74.72L469.54,79.58L470.25,81.37L470.96,108.71L471.67,99.77L472.38,100.79L475.23,146.03L475.94,161.1L476.65,97.98L477.36,100.79L478.08,96.7L479.5,113.06L480.21,106.41L480.92,129.67L481.63,85.71L483.06,103.09L483.77,47.12L484.48,52.23L485.19,51.98L485.9,52.49L487.32,59.39L488.04,61.43L488.75,73.96L489.46,72.94L491.59,128.65L492.3,46.36L495.15,84.95L495.86,79.58L499.42,126.6L500.13,84.18L502.26,108.97L502.98,105.14L503.69,126.6L504.4,61.43L505.11,63.22L505.82,71.15L507.96,112.04L508.67,135.04L510.09,45.85L510.8,54.02L511.51,48.4L512.22,60.41L513.65,83.41L514.36,32.56L515.78,50.96L516.49,44.82L517.2,49.42L517.92,45.08L518.63,56.58L519.34,49.68L520.05,45.33L520.76,45.85L522.18,77.02L522.9,73.19L523.61,80.6L524.32,78.81L525.74,92.87L526.45,37.41L527.16,50.7L527.88,46.1L528.59,50.19L529.3,59.39L530.01,54.28L530.72,64.76L531.43,87.76L532.14,86.74L532.86,99.26L533.57,112.04L534.28,107.44L534.99,128.14L535.7,84.18L537.12,29.23L537.84,53.51L539.26,56.58L539.97,56.07L540.68,57.86L541.39,71.91L542.1,70.64L542.82,99.26L543.53,103.86L544.24,119.96L545.66,162.13L546.37,94.15L547.08,84.18L547.8,114.59L548.51,44.31L549.22,50.96L549.93,49.17L550.64,53.26L552.06,83.92L552.78,81.11L554.2,75.75L554.91,95.42L555.62,94.66L556.33,110.5L557.04,117.4L557.76,131.97L559.18,126.09L559.89,126.6L560.6,147.82L561.31,65.01L562.02,61.18L562.74,73.19L563.45,72.17L564.16,76.26L564.87,72.42L565.58,77.79L566.29,75.49L567,89.55L569.14,122L569.85,135.04L570.56,152.67L571.27,96.96L571.98,24.89L572.7,33.83L573.41,53.26L574.12,50.96L574.83,67.82L575.54,35.62L576.25,30.26L576.96,31.02L577.68,34.6L578.39,33.07L579.81,69.36L580.52,93.38L581.94,115.87L582.66,72.94L583.37,69.87L584.08,89.8L584.79,90.31L585.5,100.28L586.21,115.61L586.92,154.97L588.35,107.69L589.06,109.48L589.77,146.28L590.48,72.17L591.19,68.85L591.9,86.48L592.62,81.88L593.33,89.55L594.04,118.68L594.75,52.49L595.46,58.88L596.17,54.28L599.02,126.86L599.73,62.46L600.44,57.35L601.15,67.06L603.29,88.01L604,90.31L604.71,94.4L605.42,113.83L606.13,84.69L606.84,97.72L607.56,97.72L608.27,112.29L609.69,145.77L610.4,85.71L611.11,89.29L611.82,108.2L612.54,111.27L613.25,110.25L613.96,114.34L614.67,140.15L615.38,68.33L616.09,76L616.8,96.19L617.52,91.08L618.23,96.96L618.94,94.15L619.65,92.87L620.36,123.03L621.07,133.76L621.78,129.67L623.21,151.9L623.92,152.16L624.63,163.4L625.34,74.21L626.05,72.42L626.76,79.58L628.19,94.91L628.9,95.17L631.74,124.56L632.45,141.94L633.17,152.93L633.88,123.28L635.3,155.74L636.01,89.55L636.72,97.47L637.43,97.21L638.15,98.75L639.57,123.03L640.28,122L641.7,137.59L642.41,141.94L643.84,150.37L644.55,170.56L645.26,193.56L645.97,94.66L647.39,105.9L648.11,104.37L649.53,114.59L650.24,124.81L650.95,126.86L651.66,156.5L652.37,165.96L653.09,101.05L655.22,132.99L655.93,128.65L657.35,132.48L658.07,144.75L658.78,172.86L659.49,68.85L660.2,85.46L660.91,19.27L661.62,21.82L662.33,18.5L664.47,57.09L665.18,81.88L665.89,80.09L666.6,87.5L667.31,81.37L668.03,90.57L668.74,91.08L669.45,101.05L670.16,104.88L670.87,126.86L672.29,64.25L673.01,76.51L673.72,82.9L674.43,43.03L675.14,46.87L675.85,40.99L677.27,49.68L677.99,64.5L680.83,113.83L681.54,54.53L682.25,73.7L682.97,66.8L683.68,77.79L684.39,77.54L685.1,104.11L685.81,102.58L686.52,102.84L687.23,131.46L687.95,58.88L688.66,65.52L689.37,63.22L690.08,83.16L690.79,82.39L691.5,77.54L693.64,118.94L694.35,124.56L695.06,120.21L695.77,129.41L696.48,145.77L697.19,63.22L697.91,74.47L698.62,63.48L699.33,60.41L700.04,63.22L702.17,67.06L702.89,77.28L704.31,120.73L705.02,89.04L705.73,105.14L706.44,59.9L708.58,94.66L709.29,94.15L710,91.85" style="vector-effect: none; fill: none; stroke: rgb(227, 119, 194); stroke-opacity: 1; stroke-width: 2px; opacity: 1;"/></g><g class="points"/><g class="text"/></g></g></g><g class="overplot"/><path class="xlines-above crisp" d="M0,0" style="fill: none;"/><path class="ylines-above crisp" d="M0,0" style="fill: none;"/><g class="overlines-above"/><g class="xaxislayer-above"><g class="xtick"><text text-anchor="middle" x="0" y="533" transform="translate(80,0)" style="font-family: 'Open Sans', verdana, arial, sans-serif; font-size: 12px; fill: rgb(68, 68, 68); fill-opacity: 1; white-space: pre; opacity: 1;">0</text></g><g class="xtick"><text text-anchor="middle" x="0" y="533" style="font-family: 'Open Sans', verdana, arial, sans-serif; font-size: 12px; fill: rgb(68, 68, 68); fill-opacity: 1; white-space: pre; opacity: 1;" transform="translate(222.28,0)">200</text></g><g class="xtick"><text text-anchor="middle" x="0" y="533" style="font-family: 'Open Sans', verdana, arial, sans-serif; font-size: 12px; fill: rgb(68, 68, 68); fill-opacity: 1; white-space: pre; opacity: 1;" transform="translate(364.57,0)">400</text></g><g class="xtick"><text text-anchor="middle" x="0" y="533" style="font-family: 'Open Sans', verdana, arial, sans-serif; font-size: 12px; fill: rgb(68, 68, 68); fill-opacity: 1; white-space: pre; opacity: 1;" transform="translate(506.85,0)">600</text></g><g class="xtick"><text text-anchor="middle" x="0" y="533" style="font-family: 'Open Sans', verdana, arial, sans-serif; font-size: 12px; fill: rgb(68, 68, 68); fill-opacity: 1; white-space: pre; opacity: 1;" transform="translate(649.14,0)">800</text></g></g><g class="yaxislayer-above"><g class="ytick"><text text-anchor="end" x="79" y="4.199999999999999" transform="translate(0,462.4)" style="font-family: 'Open Sans', verdana, arial, sans-serif; font-size: 12px; fill: rgb(68, 68, 68); fill-opacity: 1; white-space: pre; opacity: 1;">0.65</text></g><g class="ytick"><text text-anchor="end" x="79" y="4.199999999999999" style="font-family: 'Open Sans', verdana, arial, sans-serif; font-size: 12px; fill: rgb(68, 68, 68); fill-opacity: 1; white-space: pre; opacity: 1;" transform="translate(0,385.73)">0.7</text></g><g class="ytick"><text text-anchor="end" x="79" y="4.199999999999999" style="font-family: 'Open Sans', verdana, arial, sans-serif; font-size: 12px; fill: rgb(68, 68, 68); fill-opacity: 1; white-space: pre; opacity: 1;" transform="translate(0,309.06)">0.75</text></g><g class="ytick"><text text-anchor="end" x="79" y="4.199999999999999" style="font-family: 'Open Sans', verdana, arial, sans-serif; font-size: 12px; fill: rgb(68, 68, 68); fill-opacity: 1; white-space: pre; opacity: 1;" transform="translate(0,232.39)">0.8</text></g><g class="ytick"><text text-anchor="end" x="79" y="4.199999999999999" style="font-family: 'Open Sans', verdana, arial, sans-serif; font-size: 12px; fill: rgb(68, 68, 68); fill-opacity: 1; white-space: pre; opacity: 1;" transform="translate(0,155.72)">0.85</text></g></g><g class="overaxes-above"/></g></g><g class="polarlayer"/><g class="smithlayer"/><g class="ternarylayer"/><g class="geolayer"/><g class="funnelarealayer"/><g class="pielayer"/><g class="iciclelayer"/><g class="treemaplayer"/><g class="sunburstlayer"/><g class="glimages"/><defs id="topdefs-a929ee"><g class="clips"/><clipPath id="legenda929ee"><rect width="608" height="48" x="0" y="0"/></clipPath></defs><g class="layer-above"><g class="imagelayer"/><g class="shapelayer"/></g><g class="infolayer"><g class="legend" pointer-events="all" transform="translate(80,76.00000000000001)"><rect class="bg" shape-rendering="crispEdges" width="608" height="48" x="0" y="0" style="stroke: rgb(68, 68, 68); stroke-opacity: 1; fill: rgb(255, 255, 255); fill-opacity: 1; stroke-width: 0px;"/><g class="scrollbox" transform="" clip-path="url(#legenda929ee)"><g class="groups"><g class="traces" transform="translate(0,14.5)" style="opacity: 1;"><text class="legendtext" text-anchor="start" x="40" y="4.680000000000001" style="font-family: 'Open Sans', verdana, arial, sans-serif; font-size: 12px; fill: rgb(68, 68, 68); fill-opacity: 1; white-space: pre;">Gradual regular</text><g class="layers" style="opacity: 1;"><g class="legendfill"/><g class="legendlines"><path class="js-line" d="M5,0h30" style="fill: none; stroke: rgb(31, 119, 180); stroke-opacity: 1; stroke-width: 2px;"/></g><g class="legendsymbols"><g class="legendpoints"/></g></g><rect class="legendtoggle" x="0" y="-9.5" width="136.78125" height="19" style="fill: rgb(0, 0, 0); fill-opacity: 0;"/></g><g class="traces" transform="translate(151.78125,14.5)" style="opacity: 1;"><text class="legendtext" text-anchor="start" x="40" y="4.680000000000001" style="font-family: 'Open Sans', verdana, arial, sans-serif; font-size: 12px; fill: rgb(68, 68, 68); fill-opacity: 1; white-space: pre;">Direct weighted</text><g class="layers" style="opacity: 1;"><g class="legendfill"/><g class="legendlines"><path class="js-line" d="M5,0h30" style="fill: none; stroke: rgb(255, 127, 14); stroke-opacity: 1; stroke-width: 2px;"/></g><g class="legendsymbols"><g class="legendpoints"/></g></g><rect class="legendtoggle" x="0" y="-9.5" width="137.703125" height="19" style="fill: rgb(0, 0, 0); fill-opacity: 0;"/></g><g class="traces" transform="translate(303.5625,14.5)" style="opacity: 1;"><text class="legendtext" text-anchor="start" x="40" y="4.680000000000001" style="font-family: 'Open Sans', verdana, arial, sans-serif; font-size: 12px; fill: rgb(68, 68, 68); fill-opacity: 1; white-space: pre;">Gradual sampled</text><g class="layers" style="opacity: 1;"><g class="legendfill"/><g class="legendlines"><path class="js-line" d="M5,0h30" style="fill: none; stroke: rgb(44, 160, 44); stroke-opacity: 1; stroke-width: 2px;"/></g><g class="legendsymbols"><g class="legendpoints"/></g></g><rect class="legendtoggle" x="0" y="-9.5" width="145.0625" height="19" style="fill: rgb(0, 0, 0); fill-opacity: 0;"/></g><g class="traces" transform="translate(455.34375,14.5)" style="opacity: 1;"><text class="legendtext" text-anchor="start" x="40" y="4.680000000000001" style="font-family: 'Open Sans', verdana, arial, sans-serif; font-size: 12px; fill: rgb(68, 68, 68); fill-opacity: 1; white-space: pre;">Gradual weighted</text><g class="layers" style="opacity: 1;"><g class="legendfill"/><g class="legendlines"><path class="js-line" d="M5,0h30" style="fill: none; stroke: rgb(214, 39, 40); stroke-opacity: 1; stroke-width: 2px;"/></g><g class="legendsymbols"><g class="legendpoints"/></g></g><rect class="legendtoggle" x="0" y="-9.5" width="149.28125" height="19" style="fill: rgb(0, 0, 0); fill-opacity: 0;"/></g><g class="traces" transform="translate(0,33.5)" style="opacity: 1;"><text class="legendtext" text-anchor="start" x="40" y="4.680000000000001" style="font-family: 'Open Sans', verdana, arial, sans-serif; font-size: 12px; fill: rgb(68, 68, 68); fill-opacity: 1; white-space: pre;">Direct sampled</text><g class="layers" style="opacity: 1;"><g class="legendfill"/><g class="legendlines"><path class="js-line" d="M5,0h30" style="fill: none; stroke: rgb(148, 103, 189); stroke-opacity: 1; stroke-width: 2px;"/></g><g class="legendsymbols"><g class="legendpoints"/></g></g><rect class="legendtoggle" x="0" y="-9.5" width="133.5" height="19" style="fill: rgb(0, 0, 0); fill-opacity: 0;"/></g><g class="traces" transform="translate(151.78125,33.5)" style="opacity: 1;"><text class="legendtext" text-anchor="start" x="40" y="4.680000000000001" style="font-family: 'Open Sans', verdana, arial, sans-serif; font-size: 12px; fill: rgb(68, 68, 68); fill-opacity: 1; white-space: pre;">Direct regular</text><g class="layers" style="opacity: 1;"><g class="legendfill"/><g class="legendlines"><path class="js-line" d="M5,0h30" style="fill: none; stroke: rgb(140, 86, 75); stroke-opacity: 1; stroke-width: 2px;"/></g><g class="legendsymbols"><g class="legendpoints"/></g></g><rect class="legendtoggle" x="0" y="-9.5" width="125.21875" height="19" style="fill: rgb(0, 0, 0); fill-opacity: 0;"/></g><g class="traces" transform="translate(303.5625,33.5)" style="opacity: 1;"><text class="legendtext" text-anchor="start" x="40" y="4.680000000000001" style="font-family: 'Open Sans', verdana, arial, sans-serif; font-size: 12px; fill: rgb(68, 68, 68); fill-opacity: 1; white-space: pre;">No MetaL</text><g class="layers" style="opacity: 1;"><g class="legendfill"/><g class="legendlines"><path class="js-line" d="M5,0h30" style="fill: none; stroke: rgb(227, 119, 194); stroke-opacity: 1; stroke-width: 2px;"/></g><g class="legendsymbols"><g class="legendpoints"/></g></g><rect class="legendtoggle" x="0" y="-9.5" width="99.4375" height="19" style="fill: rgb(0, 0, 0); fill-opacity: 0;"/></g></g></g><rect class="scrollbar" rx="20" ry="3" width="0" height="0" x="0" y="0" style="fill: rgb(128, 139, 164); fill-opacity: 1;"/></g><g class="g-gtitle"><text class="gtitle" x="400" y="75" text-anchor="middle" dy="0em" style="font-family: 'Open Sans', verdana, arial, sans-serif; font-size: 17px; fill: rgb(68, 68, 68); opacity: 1; font-weight: normal; white-space: pre;">Accuracy score by MetaL method for 2 nodes</text></g><g class="g-xtitle"><text class="xtitle" x="435" y="572" text-anchor="middle" style="font-family: 'Open Sans', verdana, arial, sans-serif; font-size: 14px; fill: rgb(68, 68, 68); opacity: 1; font-weight: normal; white-space: pre;">Aggregation methods</text></g><g class="g-ytitle"><text class="ytitle" transform="rotate(-90,42,335)" x="42" y="335" text-anchor="middle" style="font-family: 'Open Sans', verdana, arial, sans-serif; font-size: 14px; fill: rgb(68, 68, 68); opacity: 1; font-weight: normal; white-space: pre;">Accuracy score</text></g></g></svg>