<svg class="main-svg" xmlns="http://www.w3.org/2000/svg" xmlns:xlink="http://www.w3.org/1999/xlink" width="800" height="600" style="" viewBox="0 0 800 600"><rect x="0" y="0" width="800" height="600" style="fill: rgb(255, 255, 255); fill-opacity: 1;"/><defs id="defs-d3a3e7"><g class="clips"><clipPath id="clipd3a3e7xyplot" class="plotclip"><rect width="710" height="370"/></clipPath><clipPath class="axesclip" id="clipd3a3e7x"><rect x="80" y="0" width="710" height="600"/></clipPath><clipPath class="axesclip" id="clipd3a3e7y"><rect x="0" y="150" width="800" height="370"/></clipPath><clipPath class="axesclip" id="clipd3a3e7xy"><rect x="80" y="150" width="710" height="370"/></clipPath></g><g class="gradients"/><g class="patterns"/></defs><g class="bglayer"/><g class="layer-below"><g class="imagelayer"/><g class="shapelayer"/></g><g class="cartesianlayer"><g class="subplot xy"><g class="layer-subplot"><g class="shapelayer"/><g class="imagelayer"/></g><g class="minor-gridlayer"><g class="x"/><g class="y"/></g><g class="gridlayer"><g class="x"><path class="xgrid crisp" transform="translate(222.28,0)" d="M0,150v370" style="stroke: rgb(238, 238, 238); stroke-opacity: 1; stroke-width: 1px;"/><path class="xgrid crisp" transform="translate(364.57,0)" d="M0,150v370" style="stroke: rgb(238, 238, 238); stroke-opacity: 1; stroke-width: 1px;"/><path class="xgrid crisp" transform="translate(506.85,0)" d="M0,150v370" style="stroke: rgb(238, 238, 238); stroke-opacity: 1; stroke-width: 1px;"/><path class="xgrid crisp" transform="translate(649.14,0)" d="M0,150v370" style="stroke: rgb(238, 238, 238); stroke-opacity: 1; stroke-width: 1px;"/></g><g class="y"><path class="ygrid crisp" transform="translate(0,461.67)" d="M80,0h710" style="stroke: rgb(238, 238, 238); stroke-opacity: 1; stroke-width: 1px;"/><path class="ygrid crisp" transform="translate(0,396.9)" d="M80,0h710" style="stroke: rgb(238, 238, 238); stroke-opacity: 1; stroke-width: 1px;"/><path class="ygrid crisp" transform="translate(0,332.14)" d="M80,0h710" style="stroke: rgb(238, 238, 238); stroke-opacity: 1; stroke-width: 1px;"/><path class="ygrid crisp" transform="translate(0,267.37)" d="M80,0h710" style="stroke: rgb(238, 238, 238); stroke-opacity: 1; stroke-width: 1px;"/><path class="ygrid crisp" transform="translate(0,202.61)" d="M80,0h710" style="stroke: rgb(238, 238, 238); stroke-opacity: 1; stroke-width: 1px;"/></g></g><g class="zerolinelayer"><path class="xzl zl crisp" transform="translate(80,0)" d="M0,150v370" style="stroke: rgb(68, 68, 68); stroke-opacity: 1; stroke-width: 1px;"/></g><path class="xlines-below"/><path class="ylines-below"/><g class="overlines-below"/><g class="xaxislayer-below"/><g class="yaxislayer-below"/><g class="overaxes-below"/><g class="plot" transform="translate(80,150)" clip-path="url(#clipd3a3e7xyplot)"><g class="scatterlayer mlayer"><g class="trace scatter traceff6b4c" style="stroke-miterlimit: 2; opacity: 1;"><g class="fills"/><g class="errorbars"/><g class="lines"><path class="js-line" d="M0,87.91L0.71,90.17L1.42,77.11L3.56,73.55L4.27,70.64L5.69,67.18L6.4,68.37L7.83,75.28L8.54,73.33L9.25,75.92L9.96,85.1L11.38,106.04L12.09,119.1L13.52,159.69L14.23,136.26L16.36,151.05L17.07,151.16L17.79,151.7L18.5,149.22L19.21,153.1L19.92,151.05L21.34,167.57L22.05,170.27L22.77,169.83L23.48,177.5L24.19,188.83L24.9,216.25L25.61,210.42L26.32,217.33L27.03,213.55L27.75,214.41L28.46,214.74L29.17,219.38L29.88,218.41L30.59,215.17L32.01,226.72L32.73,226.4L33.44,242.59L34.15,242.05L34.86,249.93L36.28,251.01L36.99,249.17L37.71,249.93L38.42,252.09L39.13,249.93L39.84,257.91L40.55,259.43L41.26,258.56L41.97,261.15L42.69,270.11L43.4,272.49L44.11,269.68L44.82,231.47L45.53,234.28L46.24,233.41L46.95,231.04L47.67,236L48.38,235.03L49.8,235.14L50.51,232.22L51.93,234.71L52.65,232.01L53.36,234.28L54.07,230.17L55.49,232.87L56.2,230.61L56.91,229.74L57.63,232.22L59.05,227.91L59.76,228.34L61.18,229.96L61.89,228.45L62.61,229.53L63.32,233.2L64.03,233.95L64.74,237.3L65.45,237.19L66.16,241.08L66.87,243.34L67.59,238.27L68.3,245.61L69.01,244.42L70.43,245.61L71.14,248.42L71.85,246.04L72.57,247.12L73.28,247.01L73.99,247.98L76.12,255.43L76.83,253.49L78.26,256.62L78.97,262.56L80.39,262.02L81.1,261.37L82.53,270.76L83.24,273.24L84.66,274.43L85.37,191.96L86.08,191.31L86.79,193.37L88.93,207.18L89.64,300.01L91.06,186.67L91.77,188.94L92.48,185.38L93.2,189.91L93.91,191.42L94.62,189.7L97.46,208.05L98.18,186.24L98.89,183.22L99.6,184.41L100.31,181.6L101.02,186.67L101.73,186.46L102.44,190.56L103.87,194.01L104.58,190.88L108.14,217.44L108.85,187.86L110.27,195.63L110.98,197.04L113.12,194.34L113.83,197.79L115.25,207.61L115.96,208.15L116.67,183.22L117.38,184.62L118.1,183.33L118.81,183.97L119.52,186.24L120.23,189.26L120.94,186.13L121.65,195.63L122.36,193.15L125.21,214.95L125.92,231.79L126.63,234.6L127.34,228.23L128.77,221.75L129.48,217.87L130.19,217.11L130.9,214.31L133.75,219.27L134.46,217.98L135.17,221.54L135.88,221.21L136.59,228.66L137.3,225.64L138.73,246.9L139.44,247.34L140.15,244.64L140.86,249.17L142.28,254.46L143,256.84L143.71,258.89L144.42,184.3L145.84,184.41L146.55,183.76L147.26,183L147.98,183.97L148.69,185.59L149.4,184.08L150.11,185.27L150.82,188.4L152.24,201.14L152.96,210.64L153.67,177.82L154.38,177.93L155.09,183.43L155.8,185.7L156.51,192.39L157.22,196.5L157.94,190.24L159.36,190.02L160.07,194.34L161.49,198.87L162.2,194.66L164.34,213.01L165.05,182.03L165.76,184.08L166.47,183.11L167.18,182.03L167.9,184.08L168.61,184.3L169.32,187.21L170.03,188.18L170.74,192.93L172.16,200.17L172.88,206.64L173.59,215.06L174.3,238.49L175.01,150.51L175.72,151.16L176.43,150.3L177.14,153.1L177.86,152.24L179.99,167.68L180.7,182.03L181.41,153.1L182.12,153.97L182.84,156.67L183.55,157.74L184.26,161.31L184.97,161.52L185.68,164.44L188.53,183.33L189.24,160.55L189.95,158.28L190.66,159.58L191.37,158.61L192.08,163.9L194.93,181.17L195.64,194.44L196.35,155.15L197.06,155.59L197.78,152.13L199.2,172.1L199.91,131.95L201.33,130.98L202.04,132.05L203.47,137.88L204.18,136.37L204.89,144.14L205.6,142.09L207.02,169.4L207.74,164.22L208.45,170.05L209.16,169.73L209.87,169.29L211.29,160.44L212,162.17L212.72,160.23L213.43,161.31L214.14,158.5L214.85,163.03L216.27,160.34L216.98,162.93L217.7,166.81L218.41,165.95L219.83,166.38L220.54,167.89L221.25,165.84L221.96,170.16L223.39,169.83L224.1,172.32L226.94,183.22L227.66,182.36L228.37,183.87L229.08,189.26L231.92,202.86L232.64,140.8L234.06,142.85L234.77,147.17L235.48,146.73L236.19,151.92L236.9,153.54L237.62,151.7L239.04,167.89L239.75,167.03L241.17,171.56L241.88,176.09L244.02,194.88L244.73,186.13L245.44,185.49L246.15,190.34L246.86,193.04L247.58,189.8L249,188.83L249.71,190.13L250.42,192.72L251.13,199.52L251.84,198.11L252.56,199.95L253.27,201.25L253.98,204.92L254.69,209.99L255.4,206.53L256.11,208.37L256.82,218.08L258.25,194.55L258.96,191.96L260.38,196.93L261.09,194.88L262.52,193.8L263.23,195.96L267.49,207.72L268.21,202.22L268.92,206.86L269.63,203.62L270.34,206.75L271.05,206.32L273.19,204.27L273.9,210.96L274.61,220.46L275.32,142.09L276.03,143.5L276.74,149.43L277.45,149.65L278.17,145.01L278.88,157.21L279.59,153L280.3,154.83L281.01,154.4L281.72,152.78L282.43,163.36L283.86,162.39L284.57,165.41L285.28,166.81L285.99,171.89L286.7,172.64L287.41,174.69L289.55,181.6L290.26,180.74L291.68,198.22L292.39,172.32L293.11,171.99L293.82,178.69L294.53,141.23L295.24,143.93L295.95,142.42L296.66,144.58L297.37,142.63L298.09,147.49L299.51,163.03L300.22,161.52L300.93,161.74L301.64,163.03L302.35,161.63L303.07,163.03L303.78,164.11L304.49,163.03L305.2,168.32L305.91,166.16L306.62,168L307.33,166.27L308.76,173.29L309.47,173.83L310.18,173.61L310.89,177.39L313.03,183.97L313.74,122.02L315.16,130.65L315.87,144.47L316.58,147.06L317.29,158.93L318.01,130.33L318.72,139.93L319.43,153.97L320.14,153.1L320.85,153L321.56,153.86L322.27,150.62L322.99,157.53L324.41,158.61L325.12,156.56L325.83,158.28L326.54,157.21L327.25,158.39L327.97,164.87L329.39,133.78L330.1,136.91L331.52,144.47L332.23,143.39L333.66,147.6L334.37,146.09L335.79,160.77L336.5,159.58L337.21,161.09L337.93,167.03L338.64,163.9L339.35,167.14L340.06,176.85L340.77,139.5L342.91,163.36L343.62,145.98L347.17,180.2L347.89,187.1L348.6,191.96L349.31,226.83L350.73,173.61L351.44,152.89L352.15,165.84L352.87,47.32L354.29,55.2L355,51.85L357.13,58.55L357.85,60.38L359.98,65.13L360.69,64.27L361.4,80.24L362.11,80.03L362.83,90.39L363.54,90.5L364.25,107.77L364.96,110.36L365.67,116.4L366.38,89.42L367.09,91.79L368.52,111.11L369.23,188.94L369.94,159.69L370.65,163.14L371.36,167.46L372.07,142.63L372.79,109.82L373.5,113.7L374.21,111.98L374.92,119.21L376.34,115.86L377.05,122.02L377.77,115.76L378.48,122.77L379.19,122.77L379.9,127.09L380.61,131.62L381.32,130.65L382.75,135.62L383.46,134.86L384.88,132.81L385.59,143.28L386.3,119.64L387.01,120.18L387.73,124.82L388.44,135.08L389.15,131.73L391.99,166.92L392.71,148.03L394.13,156.02L394.84,154.29L395.55,155.37L396.26,154.07L398.4,162.39L399.11,162.06L399.82,167.14L400.53,150.19L401.24,145.22L401.95,149L402.67,150.94L403.38,147.92L404.09,148.57L404.8,150.94L405.51,151.38L406.22,153.64L407.65,157.31L408.36,166.16L409.07,139.93L409.78,143.17L410.49,141.45L411.2,145.44L413.34,150.08L414.05,150.73L416.89,168.86L417.61,178.69L419.03,145.76L419.74,146.84L421.16,160.23L421.87,159.36L422.59,164.65L423.3,148.35L424.01,133.35L424.72,134.21L425.43,135.4L426.14,134.86L426.85,137.02L427.57,137.24L428.28,139.61L428.99,141.34L429.7,138.64L430.41,144.04L431.12,143.39L431.83,150.51L432.55,170.91L433.26,169.73L433.97,160.98L434.68,147.81L435.39,180.84L438.24,198.44L438.95,198.11L440.37,199.95L441.08,209.77L442.51,212.36L443.22,222.94L445.35,239.89L446.06,237.3L446.77,237.51L447.48,157.31L448.2,158.39L448.91,157.42L449.62,156.56L450.33,162.17L451.04,134.43L451.75,143.06L452.46,141.88L453.18,138.21L454.6,140.69L455.31,137.88L456.02,139.39L456.73,146.63L457.44,145.87L458.16,147.49L458.87,148.03L459.58,150.3L461,157.42L461.71,156.02L462.42,155.8L463.14,154.07L463.85,161.95L464.56,160.98L465.27,161.74L465.98,173.72L466.69,185.81L467.4,151.05L468.12,153.21L468.83,152.35L469.54,155.37L470.25,152.89L471.67,160.12L472.38,175.77L473.1,143.6L473.81,156.13L475.23,157.96L475.94,156.02L477.36,65.45L478.08,74.74L479.5,77.98L480.21,77.76L481.63,84.45L482.34,83.16L483.77,101.08L484.48,119.86L488.04,149.33L488.75,167.14L490.17,113.81L490.88,114.78L491.59,116.94L492.3,112.63L493.02,113.16L493.73,112.3L494.44,116.73L495.15,113.6L495.86,116.19L496.57,114.24L497.28,119.1L498,116.19L500.13,120.07L500.84,119.53L501.55,119.64L502.26,125.15L502.98,128.92L503.69,137.56L505.11,146.63L505.82,153.43L506.53,124.93L507.24,125.36L507.96,127.95L508.67,126.66L509.38,129.25L510.09,129.9L510.8,132.92L512.22,140.58L512.94,138.32L513.65,138.96L514.36,154.07L515.07,121.26L515.78,121.8L516.49,126.33L517.2,129.14L517.92,103.34L518.63,106.47L519.34,104.42L520.05,109.49L520.76,108.2L521.47,107.66L522.18,109.93L522.9,107.98L523.61,108.74L524.32,109.71L525.03,108.31L526.45,116.08L527.16,120.07L527.88,121.58L528.59,120.4L529.3,121.04L530.01,126.77L532.86,150.19L533.57,160.23L534.99,161.2L535.7,165.41L536.41,170.16L537.12,167.68L537.84,178.04L538.55,147.71L539.97,156.13L540.68,156.99L542.1,170.37L542.82,175.56L544.24,65.13L544.95,68.8L545.66,69.88L546.37,76.68L548.51,92.01L549.22,104.31L550.64,102.69L551.35,111.55L552.78,157.42L553.49,163.79L554.91,181.28L555.62,159.36L556.33,159.58L557.04,171.24L557.76,172.42L558.47,171.35L559.89,171.02L560.6,169.51L562.02,137.88L562.74,138.21L564.16,153.1L564.87,172.1L565.58,188.94L566.29,154.83L567,164.44L567.72,162.49L568.43,166.92L569.14,166.16L569.85,166.92L570.56,170.27L571.27,173.61L571.98,173.4L572.7,176.2L573.41,177.5L574.12,212.69L574.83,209.45L575.54,136.59L576.25,134L576.96,137.13L577.68,142.09L578.39,139.5L579.1,141.01L579.81,140.69L581.23,142.31L581.94,143.6L584.08,159.04L584.79,163.36L585.5,165.19L586.21,182.36L586.92,236.76L587.64,233.74L588.35,243.56L589.06,208.48L589.77,208.59L590.48,177.71L591.19,174.91L591.9,178.15L593.33,180.95L594.04,179.55L594.75,185.05L595.46,180.84L596.88,185.92L597.6,185.16L598.31,185.81L599.02,188.4L600.44,201.35L601.15,206.1L603.29,223.91L604,210.42L605.42,229.31L606.13,208.59L608.98,223.59L609.69,225.1L610.4,225.64L611.11,228.23L611.82,229.31L612.54,232.12L615.38,255.54L616.09,198.22L616.8,139.29L617.52,141.55L618.23,145.55L618.94,144.79L619.65,147.06L620.36,149.43L621.07,146.63L621.78,154.61L622.49,154.4L623.21,160.55L625.34,210.85L626.05,210.2L626.76,209.77L627.47,207.61L628.9,208.37L629.61,206.53L631.03,207.51L631.74,206.53L633.17,206.75L633.88,213.12L634.59,213.12L635.3,216.9L636.01,219.16L636.72,230.5L637.43,234.17L638.15,233.95L638.86,234.82L639.57,247.12L640.28,168.97L640.99,167.35L641.7,178.47L642.41,177.07L643.13,183.43L643.84,185.27L644.55,189.48L645.97,136.91L646.68,137.88L647.39,137.56L648.11,141.99L648.82,142.96L649.53,152.67L650.24,143.82L650.95,145.66L652.37,173.5L653.09,178.9L654.51,211.5L655.22,201.03L655.93,142.85L656.64,151.81L657.35,145.98L658.07,150.73L658.78,152.56L659.49,158.61L660.2,165.62L660.91,161.85L662.33,177.71L663.05,159.8L663.76,158.61L664.47,132.38L665.18,149.11L665.89,143.93L666.6,67.61L667.31,69.77L668.03,71.82L669.45,78.95L670.16,79.7L670.87,83.16L671.58,96.97L672.29,60.71L673.01,63.08L673.72,62.32L674.43,70.96L677.27,81.32L677.99,88.99L679.41,89.96L680.12,103.56L681.54,130.11L682.25,92.55L682.97,91.9L683.68,104.53L684.39,69.66L685.1,84.56L685.81,85.21L686.52,93.2L687.95,122.02L688.66,109.28L689.37,79.92L690.08,91.68L691.5,58.65L692.21,62.11L692.93,67.4L693.64,65.45L695.77,82.19L696.48,76.9L697.91,90.28L698.62,107.98L699.33,75.92L700.04,77.44L700.75,82.62L702.17,104.1L702.89,166.49L704.31,193.69L705.02,153.54L705.73,154.51L706.44,146.63L707.15,149L707.87,164.55L708.58,105.93L709.29,111.44L710,195.52" style="vector-effect: none; fill: none; stroke: rgb(31, 119, 180); stroke-opacity: 1; stroke-width: 2px; opacity: 1;"/></g><g class="points"/><g class="text"/></g><g class="trace scatter trace66758b" style="stroke-miterlimit: 2; opacity: 1;"><g class="fills"/><g class="errorbars"/><g class="lines"><path class="js-line" d="M0,87.91L0.71,90.17L1.42,77.11L3.56,73.55L4.27,70.64L5.69,67.18L6.4,68.37L7.83,75.28L8.54,73.33L9.25,75.92L9.96,85.1L11.38,106.04L12.09,119.1L14.94,177.28L15.65,180.63L17.07,182.57L17.79,182.14L18.5,181.17L19.21,184.73L19.92,184.51L20.63,199.84L22.05,211.28L22.77,212.69L24.19,228.88L24.9,277.88L26.32,247.98L27.03,250.14L27.75,248.96L28.46,250.36L29.88,247.12L30.59,245.83L32.01,249.06L32.73,249.28L33.44,253.6L34.15,252.52L36.28,262.56L36.99,260.83L37.71,249.5L38.42,250.36L39.13,251.55L39.84,255.11L40.55,258.13L41.26,257.7L41.97,259.64L42.69,267.95L44.11,265.58L44.82,268.17L45.53,268.82L46.24,266.23L46.95,264.82L47.67,269.03L48.38,274.21L49.09,251.22L50.51,252.19L51.22,251.87L53.36,252.3L54.07,253.27L55.49,254.24L56.2,253.17L56.91,252.41L57.63,253.06L59.05,254.78L59.76,250.9L61.18,255.54L61.89,251.44L62.61,250.36L63.32,252.95L64.03,252.41L64.74,250.68L65.45,251.87L66.16,256.4L66.87,258.56L67.59,257.27L68.3,260.72L69.01,259.97L69.72,262.23L70.43,267.09L71.14,266.77L71.85,269.79L72.57,291.81L73.28,194.44L73.99,196.93L74.7,196.6L75.41,195.2L76.12,198.33L76.83,195.74L77.55,198.33L78.26,198.55L78.97,202.97L79.68,204.38L80.39,203.08L81.1,203.84L81.81,207.18L82.53,207.61L83.24,211.72L83.95,209.34L84.66,214.41L85.37,215.93L86.08,220.78L86.79,220.03L87.51,223.05L88.22,223.7L88.93,226.29L90.35,230.61L91.06,229.42L91.77,232.76L92.48,228.88L93.91,236.54L94.62,234.71L95.33,236.87L96.04,224.88L98.18,241.29L98.89,240.43L99.6,252.73L100.31,302.39L101.02,306.06L101.73,213.44L103.16,218.73L103.87,215.6L104.58,215.06L105.29,218.52L106.71,227.15L107.42,223.91L110.98,248.74L111.69,223.48L113.83,218.08L114.54,217L116.67,227.48L117.38,224.34L119.52,236.11L120.23,242.26L120.94,240.86L121.65,249.28L122.36,212.15L123.08,213.33L123.79,214.41L124.5,215.39L125.21,214.63L127.34,224.45L128.06,225.86L128.77,236.87L129.48,230.17L130.19,243.02L130.9,241.51L131.61,240.86L132.32,241.72L133.04,247.77L133.75,221.75L135.17,225.53L135.88,225.75L136.59,234.06L137.3,233.09L138.02,239.24L138.73,257.91L140.15,179.01L140.86,190.34L142.28,158.39L143,161.63L143.71,164.76L144.42,164.22L145.13,165.19L145.84,164.65L146.55,170.05L147.26,169.29L147.98,169.73L148.69,176.09L149.4,158.07L150.11,158.61L150.82,156.56L153.67,172.21L154.38,183.76L155.09,190.77L155.8,163.9L156.51,162.06L157.22,164.87L160.07,189.48L160.78,205.35L161.49,211.07L162.2,168.65L162.92,180.95L163.63,141.66L164.34,136.7L165.05,139.93L166.47,131.51L167.18,133.67L168.61,131.19L169.32,127.31L173.59,146.73L174.3,156.88L175.72,177.82L176.43,152.13L177.14,149.54L177.86,150.62L180.7,159.04L181.41,162.93L182.84,172.96L183.55,174.91L184.26,186.67L184.97,185.49L185.68,193.8L186.39,155.15L188.53,162.39L189.24,161.63L190.66,161.41L191.37,165.52L192.08,167.14L192.8,180.63L193.51,193.69L194.22,182.46L194.93,190.34L195.64,164.76L196.35,161.2L197.06,164.33L197.78,159.47L198.49,161.52L201.33,171.35L202.04,177.28L202.76,178.69L203.47,164.01L204.18,165.3L204.89,164.55L205.6,165.73L206.31,169.29L207.02,169.08L207.74,172.1L208.45,169.83L209.16,170.59L210.58,181.06L211.29,165.08L212.72,168.97L213.43,170.27L214.85,170.7L215.56,173.18L218.41,191.53L219.12,173.61L220.54,172.75L221.25,181.17L224.1,205.67L224.81,181.28L226.23,185.49L226.94,184.51L228.37,185.81L229.08,187.21L231.92,214.52L232.64,169.4L233.35,169.4L234.06,172.75L234.77,171.89L235.48,173.18L236.19,176.31L236.9,174.37L237.62,175.12L238.33,178.25L239.04,185.05L239.75,182.79L240.46,185.7L241.17,192.5L242.6,233.41L243.31,235.03L244.73,227.58L245.44,230.5L246.86,226.07L247.58,226.4L248.29,228.12L249,226.83L250.42,227.58L251.13,228.01L252.56,225.64L253.27,228.23L254.69,227.48L255.4,227.58L256.11,227.69L256.82,226.72L257.54,228.12L258.25,226.61L259.67,224.78L260.38,225.32L261.09,224.88L261.8,227.04L262.52,229.63L263.23,228.45L263.94,233.09L264.65,232.12L265.36,233.09L266.07,235.57L269.63,234.06L270.34,237.73L271.05,236.97L271.76,240.54L273.19,241.62L273.9,243.56L274.61,243.02L275.32,244.42L276.03,246.04L276.74,245.29L278.17,243.99L278.88,246.9L279.59,243.56L280.3,243.77L281.01,246.58L281.72,247.88L282.43,252.19L283.15,258.45L283.86,257.16L284.57,261.04L285.28,185.59L285.99,185.38L286.7,186.24L287.41,187L288.13,186.57L289.55,188.51L290.26,187.75L291.68,194.44L292.39,193.37L293.82,203.84L294.53,202.54L295.24,208.37L295.95,236L298.8,226.4L299.51,232.33L300.22,229.96L300.93,232.66L301.64,232.33L302.35,228.45L303.07,227.58L303.78,230.61L305.2,234.6L305.91,232.98L306.62,232.33L307.33,232.87L308.05,233.52L308.76,236.87L310.89,246.47L311.6,246.69L313.03,258.24L313.74,255.86L314.45,264.5L315.16,189.16L319.43,219.06L320.14,220.24L320.85,219.6L321.56,221.86L322.27,226.72L322.99,242.16L324.41,212.36L325.12,207.94L325.83,218.62L326.54,168.54L327.97,178.15L328.68,179.66L330.81,201.78L331.52,155.37L334.37,159.47L335.08,165.62L335.79,163.9L336.5,165.3L337.21,176.85L337.93,176.2L338.64,183.22L339.35,146.09L340.06,151.38L340.77,148.79L342.19,154.61L342.91,150.08L343.62,154.72L344.33,151.81L345.75,164.44L346.46,144.36L348.6,152.89L349.31,153.21L350.02,156.45L350.73,105.07L352.15,117.16L352.87,128.17L353.58,135.94L354.29,112.84L355,115.32L355.71,114.24L356.42,114.03L357.13,115.43L358.56,120.4L359.27,121.58L360.69,130.33L361.4,140.58L362.11,136.16L362.83,146.52L363.54,146.41L364.25,165.84L364.96,97.08L365.67,98.27L366.38,105.72L367.09,122.66L367.81,60.17L368.52,53.37L369.23,57.79L370.65,60.71L371.36,66.32L372.07,63.62L372.79,67.72L374.21,74.74L374.92,80.13L375.63,85.21L376.34,83.48L377.77,92.22L378.48,108.52L379.19,108.52L379.9,121.69L382.03,73.87L382.75,82.73L383.46,84.13L384.17,80.24L384.88,96L385.59,56.6L386.3,56.06L387.01,53.8L388.44,63.19L389.15,59.19L391.99,84.88L392.71,58.33L394.13,70.2L394.84,75.71L395.55,87.69L396.26,86.94L397.69,109.17L398.4,112.52L399.82,114.57L400.53,116.4L401.95,111.76L402.67,112.84L403.38,110.68L404.09,112.84L404.8,124.5L405.51,86.72L406.22,87.04L406.93,85.64L409.07,97.08L409.78,100.1L410.49,107.55L411.2,106.69L412.63,120.4L413.34,123.42L416.89,163.79L417.61,246.8L418.32,135.62L419.03,143.39L419.74,137.34L420.45,145.55L421.16,148.25L421.87,145.87L422.59,152.46L423.3,127.41L424.01,137.34L424.72,105.07L425.43,111.65L426.14,111.33L426.85,114.89L427.57,112.52L428.28,114.89L428.99,110.36L429.7,119.43L431.12,116.83L431.83,122.56L433.97,140.37L434.68,133.13L435.39,130.87L436.1,136.8L436.81,142.52L437.53,155.48L438.24,156.56L438.95,156.02L440.37,155.37L441.08,169.08L441.79,172.21L442.51,129.46L443.22,135.94L443.93,132.16L444.64,134L445.35,132.81L446.06,132.38L446.77,138.21L448.2,141.23L448.91,146.84L449.62,150.51L450.33,167.46L451.04,142.96L451.75,152.13L452.46,117.16L453.18,119.32L453.89,123.53L454.6,138.64L456.02,126.87L456.73,133.89L458.16,133.35L458.87,129.25L460.29,132.05L461,129.25L462.42,132.05L463.14,129.46L463.85,144.68L464.56,143.82L465.27,144.14L466.69,164.01L467.4,166.49L468.12,168.65L468.83,175.02L469.54,251.11L470.25,185.81L470.96,84.24L471.67,87.91L472.38,86.5L473.81,91.14L474.52,90.71L475.94,93.52L476.65,95.79L477.36,96.54L478.08,101.94L478.79,99.24L479.5,99.46L480.21,101.51L480.92,103.56L481.63,103.13L482.34,101.18L483.06,105.82L484.48,110.57L485.19,115.86L485.9,118.67L486.61,117.91L488.04,125.36L488.75,143.39L489.46,140.26L490.17,153L490.88,151.92L491.59,154.51L493.02,164.76L493.73,165.73L495.15,170.59L495.86,181.6L498,123.85L498.71,126.66L499.42,124.82L500.13,126.01L501.55,131.84L502.26,134.54L502.98,137.88L503.69,147.92L504.4,93.3L505.11,96.65L507.96,118.02L508.67,87.91L511.51,96.11L512.22,96.33L513.65,100.21L514.36,123.31L515.07,120.18L515.78,127.63L516.49,151.05L517.2,108.96L517.92,107.88L518.63,115.65L519.34,107.44L520.05,113.38L521.47,108.2L522.18,106.58L522.9,109.06L523.61,107.23L524.32,111.55L525.03,111.11L525.74,107.88L526.45,113.06L527.88,112.73L528.59,116.83L529.3,113.81L530.01,120.07L532.86,138.75L533.57,94.06L534.28,97.19L534.99,92.33L536.41,95.79L537.12,96.97L538.55,95.57L539.26,96.65L540.68,99.78L541.39,103.02L542.1,114.35L542.82,112.63L544.95,130.65L545.66,131.51L546.37,151.7L547.08,126.01L547.8,124.61L548.51,135.18L549.22,152.02L549.93,109.93L550.64,109.06L551.35,115.22L552.06,115.65L552.78,112.73L554.2,118.78L554.91,118.89L555.62,116.73L556.33,119.64L557.04,125.58L557.76,110.79L559.18,111.76L559.89,118.35L560.6,119.32L561.31,122.99L562.02,119.75L562.74,121.26L563.45,120.5L564.16,124.82L564.87,135.18L565.58,113.6L566.29,113.81L567,115.86L569.14,120.4L569.85,124.5L570.56,126.01L571.27,140.47L571.98,97.62L572.7,98.48L573.41,105.18L574.12,109.49L574.83,107.44L575.54,109.49L576.25,116.4L576.96,90.61L577.68,96.54L578.39,94.81L579.1,98.92L579.81,102.26L580.52,98.92L581.23,100.43L581.94,99.89L583.37,110.14L584.08,109.49L586.21,119.86L586.92,119.53L587.64,118.35L588.35,126.12L589.06,125.25L589.77,133.03L590.48,133.35L591.19,140.91L591.9,146.73L592.62,159.47L593.33,228.23L594.04,138.32L594.75,146.84L595.46,143.93L596.17,147.81L596.88,158.39L597.6,162.71L598.31,141.01L599.73,144.9L600.44,147.49L601.15,147.71L601.86,155.15L602.58,155.15L603.29,162.71L604.71,178.25L605.42,107.01L606.13,109.49L606.84,118.35L607.56,128.38L608.27,200.06L608.98,120.29L609.69,124.28L610.4,133.89L611.11,133.46L611.82,134.43L613.25,153L613.96,132.7L616.8,158.93L617.52,110.57L618.23,114.89L618.94,111.87L619.65,113.27L620.36,117.27L621.07,113.6L621.78,124.07L622.49,120.4L623.21,123.96L623.92,134.32L624.63,133.46L625.34,133.35L626.05,136.48L626.76,154.72L627.47,106.26L630.32,127.74L631.03,95.03L631.74,98.05L632.45,104.42L636.01,138.21L636.72,150.51L637.43,160.23L638.15,138.75L638.86,140.47L639.57,140.04L640.28,144.04L640.99,143.5L642.41,151.27L643.13,156.77L643.84,154.51L644.55,160.23L645.26,161.2L645.97,166.16L646.68,150.51L647.39,151.05L648.11,154.83L648.82,155.69L649.53,161.09L650.24,212.69L650.95,124.82L652.37,142.09L653.09,125.9L654.51,140.47L655.22,165.95L656.64,135.72L657.35,150.62L658.07,75.39L658.78,78.52L659.49,85.42L660.2,91.79L660.91,90.82L662.33,98.05L663.05,111.01L663.76,62.65L664.47,64.27L665.18,69.99L665.89,78.41L666.6,51.85L668.74,47.64L669.45,47.64L670.16,48.08L670.87,49.48L672.29,59.63L673.01,58.98L673.72,58.22L674.43,63.3L675.14,64.05L675.85,70.53L676.56,71.82L677.27,79.38L678.7,87.04L679.41,90.82L680.12,101.18L680.83,70.1L682.25,82.73L682.97,79.38L683.68,96.76L684.39,75.06L685.81,93.09L686.52,82.73L687.23,56.28L687.95,61.89L689.37,72.69L690.08,79.92L692.21,90.07L692.93,90.5L693.64,91.25L694.35,103.02L695.06,75.39L695.77,75.82L696.48,73.55L703.6,155.37L704.31,123.42L705.73,94.49L706.44,108.74L707.87,72.15L708.58,72.9L709.29,76.14L710,92.66" style="vector-effect: none; fill: none; stroke: rgb(255, 127, 14); stroke-opacity: 1; stroke-width: 2px; opacity: 1;"/></g><g class="points"/><g class="text"/></g><g class="trace scatter trace34b5f6" style="stroke-miterlimit: 2; opacity: 1;"><g class="fills"/><g class="errorbars"/><g class="lines"><path class="js-line" d="M0,87.91L0.71,90.17L1.42,77.11L3.56,73.55L4.27,70.64L5.69,67.18L6.4,68.37L7.83,75.28L8.54,73.33L9.25,75.92L9.96,85.1L11.38,106.04L12.09,119.1L13.52,140.04L14.23,125.36L15.65,139.83L16.36,139.93L17.07,139.29L17.79,139.93L19.21,144.58L19.92,146.73L20.63,159.36L21.34,139.72L22.05,138.96L22.77,145.76L24.19,160.55L24.9,158.18L25.61,163.14L26.32,178.15L27.03,181.92L27.75,142.74L28.46,142.96L29.17,146.41L30.59,147.38L31.3,153.43L32.73,149L33.44,158.07L34.15,159.36L34.86,168.65L35.57,128.28L36.28,130.33L36.99,129.9L37.71,138.64L38.42,137.99L39.13,136.05L39.84,136.59L41.26,132.7L41.97,133.35L43.4,126.55L44.11,127.74L44.82,129.79L45.53,141.45L46.95,103.02L47.67,105.72L49.09,110.25L49.8,110.9L50.51,111.11L51.22,120.07L51.93,121.15L52.65,125.04L53.36,122.12L54.07,122.45L55.49,139.39L56.2,136.8L58.34,149.11L59.05,148.46L59.76,151.38L60.47,150.19L61.89,153.1L62.61,155.8L63.32,151.48L64.03,152.13L65.45,163.36L66.16,180.2L66.87,151.48L67.59,158.39L68.3,125.69L69.01,125.79L69.72,123.42L70.43,123.64L71.14,125.58L72.57,135.51L73.28,109.49L76.83,132.27L77.55,131.41L78.26,139.29L78.97,110.68L79.68,113.81L80.39,112.41L82.53,122.45L83.24,118.02L84.66,124.07L85.37,121.37L86.08,121.15L86.79,127.41L87.51,128.06L88.22,135.18L89.64,136.59L90.35,143.39L92.48,171.35L93.2,136.59L93.91,143.5L94.62,139.29L97.46,163.03L98.18,87.58L98.89,96.87L99.6,78.3L101.73,84.34L102.44,84.99L103.16,88.12L103.87,86.94L104.58,86.4L105.29,93.41L108.14,124.28L108.85,135.51L109.56,137.67L110.27,143.71L110.98,140.91L111.69,143.6L112.4,144.47L113.12,142.2L113.83,147.92L114.54,105.5L115.96,108.52L116.67,107.55L117.38,108.96L118.1,107.88L118.81,109.39L119.52,118.35L120.23,95.35L120.94,97.19L122.36,95.46L123.08,95.14L124.5,102.15L125.21,115.32L125.92,124.71L126.63,124.28L127.34,128.17L128.77,152.78L129.48,179.66L130.19,144.58L130.9,146.73L131.61,147.27L132.32,156.56L133.04,133.57L133.75,135.18L135.17,141.55L135.88,137.78L136.59,142.63L137.3,139.29L138.02,149.54L138.73,120.29L139.44,123.31L140.15,122.56L140.86,122.23L141.57,123.85L144.42,146.84L145.13,148.46L145.84,145.76L146.55,152.46L148.69,165.84L149.4,88.12L150.82,100.86L151.53,75.82L152.24,77.33L152.96,86.5L153.67,86.5L154.38,94.38L155.8,110.57L156.51,62.65L157.22,69.45L157.94,67.72L158.65,69.23L159.36,78.62L161.49,99.35L162.2,102.26L164.34,121.15L165.05,82.94L165.76,89.42L166.47,88.88L167.18,86.18L167.9,97.19L168.61,69.66L169.32,72.58L172.16,83.8L172.88,91.79L173.59,87.47L174.3,93.84L175.01,81.97L175.72,82.83L176.43,85.86L177.14,83.26L179.28,109.71L179.99,116.62L181.41,140.15L182.12,139.18L183.55,135.29L184.26,135.62L184.97,142.31L185.68,142.2L186.39,141.77L187.1,144.68L187.82,142.63L188.53,148.25L189.24,147.71L189.95,156.77L190.66,145.98L191.37,131.41L192.08,135.51L192.8,134.11L193.51,135.08L194.93,134.32L195.64,136.16L197.06,139.07L197.78,136.8L198.49,135.83L199.2,137.45L199.91,135.08L200.62,139.39L201.33,134.97L202.04,135.72L203.47,136.26L204.18,133.78L205.6,134.65L206.31,134.11L207.02,131.73L207.74,133.03L208.45,131.62L209.16,134.86L209.87,131.51L210.58,137.02L211.29,133.89L212,134.86L212.72,136.7L213.43,134.21L214.14,134L214.85,135.62L215.56,134L216.27,136.05L216.98,133.57L217.7,135.94L218.41,133.89L219.12,134.32L220.54,134L221.25,138.64L221.96,137.45L222.68,139.39L223.39,140.58L224.1,145.98L226.94,183.97L227.66,165.08L228.37,169.83L229.08,134.54L230.5,136.59L231.21,136.26L232.64,137.24L233.35,139.07L234.77,136.16L235.48,137.56L236.19,133.89L236.9,135.08L238.33,134.11L239.04,136.7L239.75,130.33L240.46,136.16L241.88,131.95L242.6,140.15L244.02,146.73L244.73,147.92L246.15,168.75L246.86,126.44L247.58,127.31L248.29,126.66L249,127.84L249.71,126.01L250.42,128.82L251.13,128.06L251.84,127.31L252.56,129.68L253.27,128.71L253.98,131.84L254.69,129.79L255.4,132.16L256.82,131.95L257.54,133.57L258.25,134.43L258.96,132.49L259.67,136.8L260.38,134.65L261.09,134.11L261.8,132.16L263.94,144.04L264.65,142.63L265.36,141.12L266.07,157.53L266.78,155.37L267.49,156.23L268.21,152.35L268.92,153.64L269.63,155.26L270.34,161.41L271.05,166.38L271.76,165.08L272.47,162.39L273.19,166.49L274.61,184.19L275.32,152.78L276.03,152.78L276.74,157.1L278.17,155.05L278.88,155.48L279.59,155.37L280.3,167.14L282.43,185.92L283.15,154.18L284.57,161.41L285.28,160.23L285.99,166.38L286.7,113.16L287.41,110.9L288.13,112.41L288.84,112.09L289.55,114.68L290.26,115.76L290.97,123.31L292.39,124.17L293.11,129.68L295.24,150.4L295.95,113.16L297.37,117.91L298.09,140.91L300.22,162.39L300.93,163.14L301.64,162.82L302.35,169.51L303.07,173.5L303.78,183.65L304.49,198.22L305.2,180.95L305.91,179.87L306.62,186.24L308.05,194.44L308.76,169.62L310.18,170.37L310.89,175.88L311.6,174.69L312.31,183L313.03,187.43L313.74,136.8L315.16,137.99L315.87,149.65L316.58,147.38L317.29,159.15L318.01,119.86L318.72,126.33L320.14,141.55L320.85,129.9L321.56,132.05L322.27,144.68L322.99,204.7L323.7,116.3L325.12,106.69L325.83,103.67L326.54,102.8L327.25,107.98L327.97,108.31L328.68,102.59L329.39,99.89L330.1,104.1L331.52,112.95L332.23,113.7L334.37,128.6L335.08,138.1L338.64,160.12L339.35,127.95L340.77,134L341.48,146.41L342.19,117.59L342.91,123.53L343.62,133.89L344.33,103.23L347.17,115.32L347.89,123.42L348.6,131.41L349.31,102.91L353.58,114.78L354.29,121.48L355,122.77L355.71,128.82L356.42,129.25L357.13,131.62L357.85,132.7L358.56,130.11L359.98,138.21L360.69,145.22L362.83,166.38L363.54,149.11L364.25,122.88L364.96,124.39L366.38,128.38L367.09,141.12L367.81,146.84L368.52,159.04L369.23,230.82L369.94,120.5L371.36,134.43L372.07,146.84L372.79,99.46L373.5,108.31L374.92,112.95L375.63,111.76L376.34,112.09L377.05,120.94L377.77,123.64L378.48,177.93L379.19,176.53L379.9,190.24L380.61,198.11L381.32,183.54L382.03,185.27L382.75,191.75L383.46,167.57L384.17,168.32L384.88,168.22L385.59,167.35L386.3,168.86L387.01,167.78L387.73,168.97L388.44,182.03L389.15,176.63L390.57,202L391.28,183.11L391.99,182.79L392.71,192.5L393.42,202.65L394.13,196.5L397.69,211.18L398.4,207.07L401.24,224.24L401.95,236.54L402.67,234.49L403.38,242.8L404.09,245.29L404.8,252.84L405.51,259.53L406.22,242.59L407.65,251.33L408.36,289.54L409.78,151.48L410.49,149.54L411.2,149.54L411.91,154.07L412.63,85.64L413.34,90.17L414.76,94.81L415.47,92.87L417.61,121.8L418.32,67.94L419.03,74.09L419.74,72.58L422.59,89.53L423.3,90.82L424.72,91.47L425.43,101.94L426.85,109.71L427.57,99.02L428.99,106.04L429.7,115.97L430.41,84.78L431.12,89.96L431.83,102.15L432.55,70.2L433.26,69.88L433.97,75.06L434.68,75.39L435.39,77.54L436.1,79.59L436.81,85.42L438.24,98.92L438.95,96.65L439.66,99.56L440.37,106.47L441.08,121.37L441.79,101.51L442.51,103.23L443.22,112.3L445.35,128.6L446.06,128.92L448.2,150.08L448.91,135.83L449.62,110.03L450.33,116.62L451.04,100.21L451.75,106.26L452.46,105.5L453.18,111.11L453.89,122.99L454.6,95.35L456.02,110.68L456.73,120.83L457.44,81.65L458.16,81.97L458.87,82.19L460.29,95.14L461,94.92L461.71,93.2L462.42,95.14L463.85,105.07L464.56,102.8L465.98,112.3L466.69,122.88L468.12,72.9L468.83,80.89L470.96,81.75L471.67,83.7L472.38,81.97L473.1,90.07L473.81,104.1L474.52,103.56L475.23,106.58L476.65,118.24L477.36,93.41L478.08,93.41L478.79,96.87L479.5,92.22L480.21,96.54L480.92,95.89L481.63,101.62L482.34,73.12L483.06,79.92L483.77,84.67L484.48,96.97L485.19,100.97L485.9,110.03L486.61,89.31L487.32,92.87L488.04,90.71L488.75,100.1L489.46,105.39L490.17,116.94L490.88,114.46L491.59,122.66L493.02,143.6L493.73,113.06L495.86,118.02L496.57,123.96L498.71,147.6L499.42,126.55L500.13,131.62L500.84,142.52L501.55,101.29L502.26,102.91L502.98,107.23L503.69,115.86L504.4,115.22L505.11,114.46L505.82,119.75L506.53,121.58L507.24,129.79L508.67,150.62L509.38,150.08L511.51,167.89L512.22,167.24L513.65,177.82L514.36,166.49L515.07,105.5L515.78,106.58L516.49,109.28L517.2,111.87L517.92,119.21L518.63,121.58L519.34,118.35L520.05,126.33L520.76,125.69L521.47,130.98L522.18,115.54L522.9,116.3L523.61,120.61L524.32,117.91L525.03,118.45L525.74,118.89L526.45,124.5L527.16,129.36L527.88,129.25L528.59,130.98L530.01,146.63L530.72,144.25L531.43,153.1L532.14,133.24L533.57,139.18L534.28,138.75L534.99,138.32L535.7,144.9L536.41,138.96L537.12,145.87L537.84,147.92L538.55,160.98L539.97,163.57L540.68,170.27L541.39,139.29L542.1,145.55L542.82,143.82L543.53,156.23L544.24,123.74L544.95,133.78L545.66,136.59L546.37,150.62L547.8,118.24L548.51,126.33L549.22,133.57L549.93,110.68L550.64,109.06L551.35,113.6L552.06,111.44L552.78,112.09L553.49,109.49L554.2,112.52L554.91,110.9L555.62,113.16L556.33,112.19L557.04,119.43L557.76,126.33L558.47,119.64L559.18,120.5L559.89,132.92L560.6,137.56L561.31,150.73L562.74,149.54L563.45,161.41L564.16,122.12L564.87,129.9L565.58,117.91L566.29,120.4L569.85,145.12L570.56,129.9L571.27,136.26L571.98,106.36L572.7,105.93L573.41,108.2L574.83,112.52L575.54,111.22L576.25,115.54L576.96,125.04L579.1,153L579.81,156.99L581.23,222.94L581.94,220.89L582.66,223.81L583.37,222.83L584.79,226.07L585.5,225.32L586.21,227.69L586.92,239.56L587.64,194.88L588.35,199.73L589.06,198.55L589.77,205.02L591.19,203.94L591.9,207.07L592.62,204.16L593.33,205.89L594.75,210.74L595.46,209.99L596.17,213.77L596.88,211.82L597.6,208.26L598.31,214.85L599.02,210.64L599.73,220.35L601.15,264.93L601.86,266.44L602.58,267.85L603.29,271.41L606.13,300.12L606.84,224.02L607.56,228.45L608.27,267.63L608.98,264.07L609.69,253.92L612.54,270.44L613.25,267.52L614.67,211.07L615.38,215.82L616.09,226.61L616.8,189.16L617.52,190.02L618.23,193.04L618.94,193.69L619.65,198.55L621.07,195.42L621.78,197.04L622.49,195.85L623.21,204.59L624.63,220.24L625.34,219.49L626.05,219.6L626.76,224.34L627.47,229.85L628.19,229.09L629.61,228.55L630.32,231.79L632.45,239.13L633.17,238.7L633.88,242.37L634.59,241.94L636.72,268.71L637.43,239.24L638.15,238.81L638.86,239.89L639.57,237.51L640.28,241.62L641.7,239.02L642.41,239.89L643.13,241.4L643.84,238.38L644.55,241.51L645.26,237.84L645.97,240L646.68,237.62L647.39,239.02L648.11,246.04L648.82,283.93L649.53,283.5L650.24,283.39L650.95,284.58L651.66,281.66L652.37,281.55L653.09,280.58L653.8,280.26L654.51,280.91L655.22,284.25L655.93,283.71L656.64,284.04L657.35,285.76L659.49,286.41L660.2,285.55L662.33,294.72L663.05,292.46L663.76,294.29L664.47,292.67L665.18,295.15L665.89,303.36L667.31,301.85L668.03,303.79L668.74,303.68L669.45,304.65L670.16,304.76L670.87,303.79L672.29,303.57L673.01,304.65L673.72,304.76L674.43,317.71L676.56,314.91L677.27,317.28L679.41,351.5L680.12,341.68L680.83,339.09L681.54,339.95L682.97,344.38L683.68,346.21L684.39,343.84L685.1,334.23L686.52,337.68L687.23,329.48L687.95,331.75L688.66,330.78L690.08,336.93L690.79,335.85L691.5,334.45L692.21,335.85L693.64,335.74L694.35,335.85L695.77,334.23L696.48,334.01L697.19,332.72L697.91,333.69L699.33,338.87L700.04,339.84L700.75,336.93L701.46,338.65L702.17,339.73L702.89,337.68L703.6,337.9L704.31,339.95L705.02,339.3L705.73,342.11L707.15,340.38L707.87,341.57L708.58,339.19L709.29,339.84L710,339.09" style="vector-effect: none; fill: none; stroke: rgb(44, 160, 44); stroke-opacity: 1; stroke-width: 2px; opacity: 1;"/></g><g class="points"/><g class="text"/></g><g class="trace scatter trace114425" style="stroke-miterlimit: 2; opacity: 1;"><g class="fills"/><g class="errorbars"/><g class="lines"><path class="js-line" d="M0,87.91L0.71,90.17L1.42,77.11L3.56,73.55L4.27,70.64L5.69,67.18L6.4,68.37L7.83,75.28L8.54,73.33L9.25,75.92L9.96,85.1L11.38,106.04L12.09,119.1L13.52,140.04L14.23,125.36L15.65,139.83L16.36,139.93L17.07,139.29L17.79,139.93L19.21,144.58L19.92,146.73L20.63,159.36L21.34,139.72L22.05,138.96L22.77,145.76L24.19,160.55L24.9,141.23L27.03,155.69L27.75,152.78L28.46,153.86L29.17,156.77L30.59,156.88L31.3,165.52L32.73,162.06L33.44,171.99L34.15,172.42L34.86,180.84L35.57,151.38L36.28,152.35L36.99,154.29L38.42,162.17L39.13,167.24L39.84,173.29L40.55,172.53L41.26,146.73L41.97,147.92L42.69,152.02L43.4,155.69L44.11,153.64L44.82,156.23L45.53,166.06L46.95,130.22L47.67,131.73L49.09,154.29L49.8,149.33L51.93,159.69L52.65,159.69L53.36,159.8L54.07,162.28L54.78,173.07L55.49,225.53L56.2,217.76L56.91,149.54L57.63,159.69L58.34,127.52L59.05,128.17L59.76,121.91L60.47,122.99L61.18,121.91L61.89,120.94L62.61,123.96L63.32,120.5L64.03,121.8L64.74,122.77L65.45,127.63L67.59,135.83L68.3,137.34L69.72,142.74L70.43,144.36L71.14,146.09L71.85,145.66L72.57,157.31L73.28,202.32L74.7,216.36L75.41,219.16L76.83,227.04L77.55,227.69L78.97,239.56L79.68,215.6L80.39,215.82L81.1,214.52L81.81,212.79L82.53,215.06L83.24,210.96L83.95,212.04L84.66,220.24L85.37,179.01L86.79,181.71L87.51,182.68L88.22,182.14L88.93,184.08L90.35,190.56L91.06,189.8L91.77,190.34L92.48,194.23L93.2,193.47L93.91,198.65L94.62,198.44L95.33,203.08L97.46,224.56L98.18,169.83L99.6,174.91L100.31,184.08L101.73,186.67L102.44,192.18L104.58,204.59L105.29,207.61L106,207.07L106.71,194.88L107.42,199.52L108.14,247.01L108.85,204.92L109.56,206.75L110.27,209.88L110.98,130.87L111.69,133.13L112.4,141.88L113.12,138.64L113.83,148.46L114.54,122.66L115.25,129.36L115.96,126.33L116.67,133.24L117.38,130.76L118.1,135.94L120.23,146.52L120.94,153.21L121.65,167.78L122.36,97.62L123.08,92.55L123.79,93.74L124.5,94.17L125.21,96.11L125.92,98.7L126.63,94.38L129.48,109.49L130.19,109.39L130.9,112.52L131.61,111.44L132.32,123.42L133.04,100.75L133.75,100.54L134.46,101.4L135.88,105.72L136.59,108.96L137.3,111.22L138.02,120.72L138.73,132.27L139.44,186.46L140.15,182.57L140.86,172.1L141.57,112.09L142.28,124.93L144.42,146.19L145.13,176.63L146.55,185.05L147.26,206.53L147.98,207.61L148.69,204.27L149.4,214.52L150.11,214.09L150.82,212.69L151.53,213.23L152.24,210.85L153.67,210.1L154.38,211.18L155.09,212.26L155.8,210.85L156.51,210.74L157.22,219.6L158.65,185.16L159.36,185.59L160.07,184.62L160.78,185.59L162.2,183.11L162.92,183.87L163.63,184.19L164.34,181.49L165.05,182.68L165.76,182.36L166.47,181.28L167.18,183L167.9,183.11L168.61,182.14L169.32,179.76L170.03,181.82L170.74,183.43L171.45,182.9L172.16,183.65L172.88,179.98L173.59,182.9L174.3,181.6L175.01,182.57L175.72,181.82L176.43,185.59L177.14,184.73L177.86,182.68L178.57,190.34L179.99,193.58L180.7,193.69L181.41,199.73L182.12,199.52L182.84,202.22L183.55,199.63L184.26,202.65L185.68,210.74L186.39,211.28L188.53,218.52L189.24,215.49L189.95,215.82L190.66,222.94L191.37,211.39L192.08,163.68L194.22,173.61L194.93,184.73L195.64,194.77L196.35,159.58L197.06,157.96L197.78,162.82L199.91,181.28L200.62,181.28L201.33,178.69L202.04,179.98L204.18,187.64L204.89,192.61L206.31,205.99L207.02,206.64L207.74,214.09L208.45,213.33L209.16,216.03L209.87,212.9L211.29,220.35L212,219.49L213.43,216.68L214.14,218.3L215.56,219.6L216.27,220.24L216.98,217.11L217.7,217.44L218.41,219.7L219.12,217.33L219.83,215.82L220.54,217.98L221.25,218.08L221.96,221.54L222.68,217.76L223.39,218.19L224.1,220.46L224.81,220.03L226.23,223.81L226.94,223.59L227.66,226.61L228.37,224.02L229.79,228.01L230.5,223.16L231.92,228.66L232.64,226.61L234.06,231.04L234.77,232.98L235.48,233.52L236.19,235.25L236.9,233.95L237.62,235.25L238.33,237.08L239.04,233.09L240.46,238.81L241.17,239.35L241.88,240.64L242.6,245.39L243.31,244.42L244.02,251.01L245.44,257.59L246.15,265.36L246.86,271.62L247.58,250.14L249.71,250.36L250.42,254.89L251.13,264.5L251.84,206.21L252.56,206.86L253.27,210.96L253.98,170.27L254.69,172.42L255.4,175.12L256.82,186.24L257.54,184.3L258.25,183.76L258.96,185.38L259.67,187.97L260.38,185.7L261.8,180.74L262.52,182.25L263.23,179.98L263.94,185.81L265.36,182.46L266.07,186.13L266.78,185.7L267.49,184.3L268.21,185.81L268.92,185.16L269.63,183.11L270.34,183.54L271.05,181.6L271.76,182.36L273.19,181.71L273.9,183.97L276.74,190.99L277.45,187.43L279.59,189.7L280.3,189.16L283.15,193.47L283.86,194.44L285.28,196.6L285.99,197.14L287.41,195.09L288.13,196.5L288.84,198.44L289.55,195.09L290.97,198.33L291.68,197.58L292.39,200.92L293.11,166.6L293.82,168.32L294.53,166.06L295.24,167.24L295.95,165.52L299.51,180.74L300.22,178.58L302.35,182.14L303.07,184.95L303.78,184.62L304.49,187.54L305.91,198.01L306.62,194.98L307.33,196.28L308.05,199.19L308.76,202.54L309.47,137.34L310.18,138.21L310.89,145.66L311.6,144.47L312.31,151.81L313.03,154.94L313.74,152.67L315.87,175.34L316.58,158.82L317.29,158.28L318.01,161.2L318.72,160.55L319.43,158.61L320.85,161.09L321.56,161.95L322.99,170.7L323.7,177.5L325.12,191.85L325.83,154.18L327.97,160.23L328.68,161.2L329.39,162.06L330.1,164.11L331.52,170.59L332.23,171.45L334.37,182.14L335.08,189.7L335.79,198.01L336.5,195.63L337.21,202.54L337.93,200.6L338.64,213.33L339.35,182.36L340.06,196.93L340.77,135.51L341.48,130.98L342.19,132.16L345.04,151.16L345.75,148.89L346.46,156.67L347.17,174.91L347.89,137.24L348.6,140.37L350.02,151.7L350.73,152.46L352.15,163.9L352.87,171.78L353.58,176.63L354.29,187.32L355,191.85L355.71,180.2L357.13,156.02L357.85,161.85L358.56,161.09L359.27,165.62L359.98,163.47L360.69,171.45L361.4,176.96L362.11,173.5L364.25,195.52L364.96,193.58L365.67,200.6L366.38,180.84L368.52,187.1L369.23,158.82L369.94,163.68L370.65,175.34L372.07,189.37L372.79,177.5L374.21,194.66L374.92,134.54L375.63,134.21L376.34,137.24L377.05,136.26L377.77,137.88L379.19,145.12L379.9,148.25L381.32,160.66L382.03,161.2L382.75,175.34L383.46,130.44L384.17,128.92L384.88,131.08L385.59,128.28L386.3,130.44L387.01,131.51L387.73,136.8L389.15,139.5L389.86,144.58L391.99,168.54L392.71,136.26L393.42,137.02L394.13,138.96L394.84,138.42L395.55,142.09L396.26,144.47L396.97,149.97L398.4,155.37L399.11,155.26L399.82,156.23L400.53,158.61L401.95,175.12L402.67,171.78L403.38,179.23L404.09,177.71L404.8,181.17L405.51,175.12L406.93,138.1L407.65,144.47L409.07,151.16L409.78,151.27L410.49,153.75L411.2,159.69L412.63,179.01L413.34,183.54L414.05,153.86L414.76,185.92L415.47,193.47L416.18,186.67L416.89,186.67L417.61,197.68L418.32,148.68L419.03,150.3L419.74,151.92L420.45,151.81L421.16,159.58L421.87,162.93L422.59,170.27L423.3,168.43L424.01,180.41L424.72,179.66L425.43,188.62L426.85,109.82L427.57,112.52L428.28,109.82L428.99,111.76L430.41,133.67L431.12,136.8L432.55,163.25L433.26,136.91L433.97,143.28L434.68,131.73L435.39,92.33L436.1,93.09L436.81,94.28L438.24,111.11L438.95,109.28L439.66,110.14L440.37,112.19L441.08,133.89L441.79,103.99L444.64,134.86L445.35,99.78L446.06,104.21L446.77,102.69L447.48,102.69L448.2,104.21L450.33,128.71L451.04,98.59L452.46,110.14L453.18,121.69L453.89,94.17L454.6,104.75L458.87,112.95L459.58,119.21L461,121.8L461.71,120.07L462.42,121.04L463.14,124.61L463.85,142.85L464.56,114.24L466.69,137.24L467.4,149.86L468.12,120.07L468.83,125.04L469.54,134.21L470.25,131.41L471.67,142.85L472.38,160.01L473.81,94.6L474.52,93.74L475.23,96.43L475.94,102.91L477.36,113.6L478.08,98.92L478.79,99.13L479.5,98.38L480.21,102.15L480.92,101.51L482.34,108.96L483.06,111.33L483.77,129.36L484.48,105.61L485.19,105.61L485.9,114.24L487.32,131.51L488.04,127.52L488.75,149.11L489.46,115.76L490.17,123.1L490.88,99.13L491.59,96L492.3,110.9L493.02,88.12L493.73,91.04L494.44,95.57L495.15,93.95L496.57,100.1L497.28,98.16L498,100L498.71,97.08L499.42,98.48L500.13,107.34L501.55,103.77L502.26,113.38L503.69,119.53L504.4,121.04L507.96,134.32L508.67,130.76L509.38,134.65L510.09,131.95L510.8,130.44L511.51,138.75L512.22,135.83L512.94,143.06L513.65,143.71L514.36,158.39L515.07,115.86L515.78,118.99L517.2,125.47L517.92,123.85L520.05,136.48L520.76,104.64L521.47,102.05L522.18,106.8L522.9,107.44L523.61,102.48L524.32,101.83L525.03,102.37L525.74,102.69L526.45,106.58L528.59,117.81L529.3,119.1L530.72,121.58L531.43,130.98L532.86,98.27L533.57,100.97L534.28,98.81L534.99,103.56L535.7,102.05L536.41,104.64L537.84,110.14L538.55,112.95L539.26,75.82L539.97,78.52L540.68,78.19L541.39,85.75L542.1,85.75L542.82,99.35L544.24,126.77L544.95,118.89L545.66,120.61L546.37,132.38L548.51,144.04L549.22,133.13L550.64,109.39L551.35,136.7L552.06,115.76L552.78,123.2L553.49,109.17L554.2,115.32L555.62,116.73L556.33,118.35L558.47,133.57L559.18,131.08L560.6,136.7L561.31,136.59L562.74,139.29L563.45,109.39L564.16,109.39L564.87,111.01L565.58,109.17L566.29,110.79L567.72,116.19L568.43,115.54L569.85,122.45L570.56,125.47L572.7,135.08L573.41,121.8L574.12,123.1L574.83,128.28L575.54,143.06L576.25,141.88L576.96,145.55L577.68,159.36L579.1,131.51L579.81,130.54L580.52,133.57L581.23,132.81L581.94,134.65L582.66,143.6L585.5,161.09L586.21,127.2L588.35,143.82L589.06,111.55L589.77,115.97L590.48,125.9L592.62,164.65L593.33,148.68L595.46,161.2L596.17,162.06L596.88,163.9L597.6,180.2L598.31,112.95L599.02,115.54L599.73,124.17L601.15,129.36L601.86,140.91L602.58,140.15L603.29,160.55L604,183L604.71,136.48L605.42,150.84L606.13,124.07L606.84,125.25L607.56,131.08L608.98,147.92L609.69,154.4L610.4,127.95L611.11,129.36L611.82,131.73L612.54,132.59L613.25,131.62L614.67,135.29L615.38,139.61L617.52,175.02L618.23,150.51L618.94,149.97L619.65,154.4L620.36,161.41L621.07,116.51L622.49,116.3L623.21,122.45L623.92,130.22L624.63,101.51L626.05,104.1L626.76,100.97L628.19,110.36L628.9,109.71L631.03,127.09L631.74,138.75L633.17,106.26L633.88,110.47L634.59,111.76L635.3,111.44L638.15,127.31L638.86,124.82L641.7,143.39L642.41,144.58L644.55,160.66L645.26,129.68L646.68,134.54L647.39,134.43L648.11,136.48L648.82,135.29L650.24,142.74L650.95,130.44L652.37,156.77L653.09,132.38L653.8,111.76L654.51,118.35L655.93,130.22L656.64,132.38L657.35,132.92L658.07,139.39L658.78,139.93L659.49,155.8L660.2,122.88L660.91,124.5L661.62,127.84L663.05,149.97L663.76,124.39L664.47,123.42L665.18,127.52L667.31,144.14L668.03,143.71L669.45,149.22L670.16,149.43L670.87,156.77L671.58,122.88L672.29,120.61L673.01,121.91L673.72,121.69L674.43,127.52L675.85,127.84L676.56,127.52L677.99,144.04L678.7,141.77L680.12,164.65L680.83,138.53L682.97,165.84L683.68,141.55L684.39,141.77L685.1,149.22L686.52,164.65L687.23,168.54L687.95,166.7L688.66,171.02L689.37,171.13L690.08,174.58L690.79,173.72L691.5,170.7L692.21,171.56L692.93,174.37L694.35,174.8L695.06,178.04L697.19,174.58L697.91,179.66L698.62,187.64L699.33,186.46L700.04,186.03L700.75,186.78L701.46,197.68L702.17,164.98L702.89,167.24L703.6,165.84L704.31,171.45L705.02,151.38L705.73,152.02L706.44,156.67L707.15,154.51L707.87,159.26L709.29,159.36L710,162.49" style="vector-effect: none; fill: none; stroke: rgb(214, 39, 40); stroke-opacity: 1; stroke-width: 2px; opacity: 1;"/></g><g class="points"/><g class="text"/></g><g class="trace scatter tracee209c8" style="stroke-miterlimit: 2; opacity: 1;"><g class="fills"/><g class="errorbars"/><g class="lines"><path class="js-line" d="M0,87.91L0.71,90.17L1.42,77.11L3.56,73.55L4.27,70.64L5.69,67.18L6.4,68.37L7.83,75.28L8.54,73.33L9.25,75.92L9.96,85.1L11.38,106.04L12.09,119.1L13.52,138.53L14.23,120.5L16.36,138.64L17.07,138.42L17.79,138.21L18.5,140.04L19.92,146.41L20.63,158.5L21.34,141.01L22.05,141.77L22.77,148.25L24.19,166.38L24.9,225.86L25.61,207.94L26.32,218.08L27.75,219.27L28.46,219.49L29.17,221.97L29.88,221L30.59,222.94L31.3,231.15L32.01,230.5L32.73,197.79L33.44,205.24L34.15,203.94L34.86,211.82L35.57,174.8L36.28,173.94L36.99,175.88L38.42,178.69L39.13,178.58L39.84,175.99L40.55,178.36L41.26,179.44L41.97,182.9L43.4,105.07L44.11,103.02L45.53,108.96L46.24,116.62L47.67,113.49L48.38,120.5L50.51,126.33L51.22,137.45L51.93,132.81L52.65,136.37L53.36,135.51L54.07,137.13L54.78,152.02L55.49,150.4L56.2,152.13L56.91,162.06L57.63,166.92L58.34,166.6L59.05,163.9L60.47,171.89L61.18,173.07L61.89,178.69L62.61,177.82L64.03,175.77L64.74,184.95L66.16,140.91L66.87,103.56L67.59,106.36L68.3,106.04L69.01,111.55L69.72,110.47L72.57,117.7L73.28,123.2L74.7,138.96L75.41,145.01L76.12,141.45L76.83,144.14L77.55,141.12L78.26,143.93L78.97,142.52L79.68,146.19L81.81,153.54L82.53,155.15L83.24,155.8L83.95,154.07L84.66,163.14L85.37,130.33L86.08,128.82L86.79,134.65L87.51,136.48L88.22,133.67L91.06,143.28L91.77,119.1L92.48,118.56L93.2,116.3L93.91,121.48L94.62,120.72L95.33,122.88L96.04,130L96.75,131.95L97.46,143.17L98.18,147.71L98.89,145.01L99.6,157.53L100.31,89.31L101.73,82.94L102.44,88.88L103.16,87.69L103.87,92.44L104.58,92.55L105.29,91.9L107.42,104.42L108.14,62L108.85,62.22L109.56,65.99L110.98,77.87L111.69,80.89L112.4,85.53L113.12,84.88L114.54,110.9L115.25,81.21L115.96,79.38L116.67,81.75L118.1,82.08L118.81,85.21L120.23,110.03L120.94,77L122.36,78.41L123.08,86.07L123.79,62.97L124.5,64.38L125.21,76.25L125.92,26.49L126.63,24.76L127.34,28.97L128.06,29.19L128.77,31.13L129.48,32.86L130.19,38.79L131.61,33.72L132.32,45.05L133.04,43.22L133.75,52.18L136.59,66.53L137.3,66.86L138.73,90.93L139.44,62.11L140.15,66.97L140.86,39.01L141.57,38.47L142.28,46.67L143.71,57.25L144.42,56.28L145.13,57.68L145.84,61.89L147.98,90.17L148.69,60.49L150.82,82.19L151.53,61.78L153.67,76.25L154.38,90.93L156.51,68.48L157.22,74.52L157.94,77.22L158.65,44.62L160.07,60.49L160.78,60.49L161.49,66.21L162.2,35.77L162.92,33.18L163.63,40.2L167.18,56.5L167.9,59.09L169.32,74.52L170.03,81.11L171.45,100.43L172.16,104.96L173.59,111.11L174.3,122.45L176.43,138.75L177.14,114.57L177.86,118.13L178.57,117.16L179.28,125.04L179.99,122.77L180.7,121.48L181.41,127.84L182.12,139.29L182.84,98.92L183.55,96.54L184.26,102.05L184.97,107.34L185.68,83.8L186.39,85.42L187.1,91.36L187.82,87.15L188.53,93.41L189.24,92.87L189.95,101.08L190.66,104.64L191.37,80.35L194.22,90.93L194.93,90.28L195.64,93.52L196.35,92.12L197.06,89.53L197.78,95.79L198.49,100L199.2,95.68L199.91,98.7L200.62,105.29L201.33,108.2L202.04,107.77L202.76,110.47L203.47,106.69L204.89,120.72L205.6,84.99L206.31,84.78L207.02,81.75L209.16,87.04L209.87,89.42L211.29,91.36L212,94.49L212.72,94.38L213.43,92.12L215.56,95.57L216.27,99.24L216.98,105.72L217.7,103.77L218.41,104.42L219.12,108.42L220.54,109.82L221.25,113.6L223.39,113.7L224.1,111.44L225.52,124.61L226.23,111.65L226.94,111.22L227.66,118.99L229.08,131.95L229.79,110.14L231.21,112.95L231.92,114.89L232.64,112.63L233.35,116.08L234.06,120.72L234.77,118.67L235.48,130.54L236.19,70.85L236.9,68.15L237.62,69.99L238.33,68.05L239.04,68.91L240.46,81L241.17,85.1L242.6,96.87L243.31,61.14L244.73,103.02L245.44,100.43L247.58,123.1L248.29,126.23L249,91.04L249.71,91.79L250.42,95.68L252.56,105.61L253.27,105.29L254.69,116.51L255.4,123.74L256.11,127.84L256.82,139.39L257.54,80.24L258.25,86.61L259.67,118.67L260.38,123.96L261.09,128.06L261.8,141.34L263.23,149.86L263.94,167.14L264.65,135.51L265.36,137.56L266.07,150.94L266.78,119.97L267.49,117.37L268.21,118.56L269.63,122.77L270.34,127.09L271.76,135.62L272.47,136.7L273.19,136.37L273.9,147.06L275.32,163.68L276.03,145.01L276.74,126.77L277.45,43.76L278.17,44.3L278.88,46.67L279.59,46.03L280.3,47.97L281.72,52.18L282.43,60.38L283.15,69.66L283.86,68.48L284.57,74.41L285.28,73.44L285.99,76.9L286.7,52.39L287.41,52.83L288.13,55.09L288.84,54.88L289.55,64.27L290.26,66.21L290.97,71.93L293.11,90.17L293.82,94.28L295.95,114.78L296.66,103.02L297.37,74.85L298.09,81.54L298.8,99.13L299.51,69.02L300.93,71.93L301.64,70.1L302.35,73.66L303.07,82.83L303.78,90.93L304.49,79.92L305.91,90.5L306.62,98.05L307.33,93.2L308.05,107.77L309.47,128.6L310.18,103.88L310.89,104.96L311.6,102.59L314.45,120.83L315.16,127.2L315.87,99.78L316.58,101.4L320.14,114.68L320.85,117.48L321.56,116.62L322.27,119.97L323.7,137.88L324.41,116.3L325.12,113.7L325.83,119.21L328.68,141.34L329.39,156.56L331.52,187.75L332.23,152.46L332.95,163.57L333.66,161.2L334.37,169.83L335.08,149.97L336.5,154.94L337.21,153.86L337.93,157.74L338.64,154.4L340.06,169.51L340.77,89.96L342.91,115L343.62,127.09L345.04,87.37L345.75,90.39L346.46,92.76L347.17,103.99L348.6,109.39L349.31,123.1L350.02,96.43L350.73,100.75L352.87,119.32L353.58,72.9L354.29,71.5L355,77.98L358.56,107.98L359.27,108.09L359.98,125.58L360.69,86.72L361.4,98.48L362.11,96.97L362.83,105.61L363.54,104.96L364.96,94.49L365.67,98.92L366.38,109.49L367.09,147.06L369.23,152.67L369.94,151.7L370.65,153L371.36,157.1L372.07,153.54L372.79,156.99L373.5,159.04L374.21,167.03L374.92,151.81L375.63,155.59L377.05,151.16L377.77,154.72L379.19,159.69L379.9,162.17L381.32,178.25L382.03,173.4L384.17,177.39L384.88,179.98L385.59,203.51L386.3,155.26L387.01,161.31L387.73,129.68L389.86,141.01L390.57,152.02L391.28,155.59L391.99,169.19L392.71,173.83L393.42,184.95L394.13,259.53L394.84,169.19L396.26,178.25L396.97,182.9L397.69,184.95L398.4,148.03L400.53,156.56L401.24,156.67L401.95,159.9L402.67,157.64L404.09,164.01L404.8,161.85L407.65,182.68L408.36,203.19L409.07,169.62L409.78,175.88L410.49,172.64L411.2,183.97L411.91,145.66L412.63,150.51L413.34,151.81L414.05,154.83L414.76,146.84L415.47,157.64L416.89,132.05L417.61,140.69L418.32,146.52L419.03,145.01L419.74,145.66L420.45,150.62L421.16,160.55L421.87,144.36L422.59,149.43L423.3,148.79L424.01,151.38L424.72,150.19L426.14,159.26L426.85,167.46L428.28,182.03L428.99,148.57L429.7,156.67L430.41,142.74L431.12,141.99L431.83,148.68L433.26,163.57L433.97,165.52L434.68,174.15L435.39,172.42L436.1,201.03L436.81,128.06L437.53,131.3L438.24,129.57L438.95,129.46L439.66,132.05L440.37,130L441.08,140.26L441.79,140.8L442.51,146.63L444.64,165.08L445.35,125.58L446.77,132.05L447.48,131.3L449.62,150.4L450.33,156.67L451.04,169.19L451.75,154.51L453.89,175.99L454.6,192.18L455.31,176.74L456.02,178.69L457.44,151.92L458.16,152.78L458.87,149.86L459.58,154.07L461,151.48L461.71,156.56L463.14,153.1L463.85,155.05L464.56,155.8L465.27,158.93L465.98,160.12L466.69,165.19L470.96,178.04L471.67,177.5L473.81,207.61L474.52,128.82L475.94,115.22L476.65,116.83L477.36,117.37L478.08,69.66L478.79,70.42L479.5,74.41L480.21,74.41L480.92,84.34L482.34,87.69L483.06,98.05L483.77,73.87L484.48,74.63L485.19,71.07L485.9,72.79L486.61,83.91L487.32,79.7L488.04,82.62L490.17,113.38L490.88,84.34L492.3,90.39L493.02,90.5L494.44,105.82L495.15,104.64L495.86,116.08L496.57,111.33L498,121.04L498.71,128.17L499.42,97.73L500.13,103.02L500.84,100.75L501.55,103.34L502.98,105.93L503.69,124.07L505.11,165.73L505.82,172.32L507.24,183.43L507.96,221.32L508.67,217.65L509.38,220.24L510.09,224.02L510.8,213.87L512.22,227.91L512.94,290.84L514.36,271.3L515.07,334.12L515.78,334.34L516.49,252.41L517.2,252.52L517.92,249.17L519.34,263.74L520.05,174.91L521.47,173.4L522.18,181.49L522.9,181.49L523.61,183.22L524.32,190.24L525.03,188.94L525.74,189.8L526.45,193.69L527.16,204.27L527.88,254.68L528.59,158.61L529.3,164.98L532.14,183.76L532.86,193.69L533.57,206.64L534.28,169.73L534.99,168.97L535.7,174.26L536.41,175.45L537.12,171.67L538.55,180.09L539.26,190.77L539.97,189.05L540.68,193.47L542.82,216.36L543.53,230.39L544.24,221.75L544.95,189.59L545.66,190.34L546.37,195.31L548.51,209.12L549.22,211.07L549.93,211.61L550.64,210.42L552.06,219.06L552.78,217.76L554.91,234.92L555.62,204.38L557.04,206.64L557.76,206.21L558.47,202.22L559.18,204.92L560.6,210.2L561.31,212.26L562.02,213.44L562.74,213.12L563.45,215.28L564.16,222.29L564.87,227.48L565.58,226.07L567,245.5L567.72,202.65L568.43,202.76L569.14,205.67L573.41,233.3L574.12,245.83L574.83,221.97L575.54,227.91L576.25,236.87L576.96,234.49L577.68,238.7L578.39,237.95L581.23,261.8L581.94,204.16L583.37,226.18L584.08,222.62L585.5,218.19L586.21,222.29L588.35,231.58L589.06,200.6L590.48,191.85L591.19,191.75L593.33,203.84L594.04,213.98L594.75,213.44L595.46,211.93L596.17,212.04L596.88,210.85L597.6,211.18L598.31,209.56L599.02,208.15L599.73,210.42L601.15,212.47L601.86,213.98L602.58,222.51L603.29,183.43L604,186.13L604.71,183.43L606.13,184.73L606.84,182.36L608.27,189.91L608.98,191.1L610.4,192.18L611.11,191.53L611.82,192.83L612.54,192.07L613.96,191.42L614.67,192.39L616.09,201.46L616.8,202.11L617.52,209.45L618.23,208.05L618.94,208.37L619.65,216.9L620.36,185.81L621.07,186.78L621.78,188.4L623.21,186.46L623.92,187.1L626.05,185.81L626.76,187.97L627.47,189.37L628.19,187.75L628.9,190.56L629.61,190.34L630.32,191.85L631.74,198.98L632.45,198.98L633.17,199.09L633.88,198.11L634.59,199.19L635.3,204.38L636.01,204.81L636.72,206.53L638.15,209.34L638.86,149L639.57,146.95L640.28,147.6L641.7,154.29L642.41,152.35L643.13,153.75L643.84,158.07L645.26,161.31L645.97,167.24L647.39,170.37L648.11,182.14L648.82,172.42L649.53,179.23L650.24,179.76L650.95,176.85L651.66,175.34L652.37,176.96L653.09,173.83L653.8,179.66L654.51,186.57L655.22,202.32L655.93,177.5L656.64,181.49L657.35,175.34L658.07,177.61L658.78,181.38L659.49,172.53L660.2,178.36L660.91,175.88L661.62,175.12L662.33,170.59L663.76,184.95L664.47,189.16L665.89,195.2L666.6,202.32L667.31,208.48L668.03,206.53L668.74,213.55L669.45,157.21L670.87,155.15L671.58,153.86L672.29,165.52L673.01,161.63L673.72,161.09L674.43,177.28L675.85,144.04L676.56,145.33L677.27,147.71L677.99,147.38L680.12,157.96L680.83,165.73L681.54,169.51L682.25,187.97L683.68,188.29L684.39,192.61L685.1,181.82L685.81,182.46L686.52,182.79L687.23,180.63L687.95,177.28L688.66,178.04L690.08,186.89L690.79,165.08L691.5,165.3L692.21,168L692.93,167.03L693.64,164.11L695.06,166.7L695.77,167.89L696.48,165.84L697.19,169.51L697.91,170.05L698.62,171.89L700.04,178.79L700.75,183.87L702.17,193.04L702.89,196.93L703.6,198.11L704.31,144.14L705.02,148.46L705.73,146.19L706.44,156.88L707.15,152.89L707.87,155.59L708.58,161.52L710,170.81" style="vector-effect: none; fill: none; stroke: rgb(148, 103, 189); stroke-opacity: 1; stroke-width: 2px; opacity: 1;"/></g><g class="points"/><g class="text"/></g><g class="trace scatter trace6878c6" style="stroke-miterlimit: 2; opacity: 1;"><g class="fills"/><g class="errorbars"/><g class="lines"><path class="js-line" d="M0,87.91L0.71,90.17L1.42,77.11L3.56,73.55L4.27,70.64L5.69,67.18L6.4,68.37L7.83,75.28L8.54,73.33L9.25,75.92L9.96,85.1L11.38,106.04L12.09,119.1L13.52,140.26L14.23,125.15L15.65,139.5L16.36,139.39L17.79,140.15L18.5,141.66L19.92,146.73L20.63,160.01L21.34,139.29L22.05,139.83L22.77,145.87L24.19,160.34L24.9,137.13L27.03,146.84L27.75,142.63L28.46,142.85L29.17,148.68L29.88,147.06L30.59,147.49L31.3,153.75L32.01,152.56L32.73,151.7L33.44,160.88L34.15,160.01L34.86,170.7L35.57,133.35L36.28,135.51L36.99,135.94L37.71,143.71L38.42,141.77L39.13,143.71L39.84,146.84L40.55,143.39L41.26,140.69L41.97,146.95L42.69,149.86L43.4,148.68L44.11,145.22L44.82,145.44L45.53,157.42L46.24,109.49L46.95,109.82L47.67,116.62L48.38,120.5L49.09,130.11L50.51,136.48L51.22,134.43L51.93,137.45L52.65,136.48L53.36,135.72L54.07,140.91L55.49,138.64L56.2,138.75L58.34,148.68L59.05,145.87L60.47,144.47L61.18,145.87L62.61,149.76L63.32,145.98L64.03,146.19L64.74,151.16L66.16,163.57L66.87,164.55L69.01,179.66L69.72,178.47L70.43,183.87L71.14,183.33L72.57,199.3L73.28,170.7L73.99,170.91L74.7,169.83L75.41,167.03L76.12,167.46L76.83,168.65L77.55,167.14L78.97,176.09L79.68,175.02L81.1,183.87L81.81,194.23L83.24,158.07L83.95,160.23L85.37,155.91L86.08,156.56L89.64,167.14L90.35,170.05L92.48,186.13L93.2,187.75L93.91,193.26L94.62,191.53L96.75,205.35L97.46,140.37L99.6,145.22L100.31,151.48L101.02,130.33L101.73,135.83L103.16,156.99L103.87,156.77L104.58,156.99L105.29,167.14L106,129.46L106.71,126.33L107.42,127.09L108.14,131.73L108.85,131.51L109.56,134.11L110.27,140.91L110.98,134.54L112.4,151.05L113.12,118.56L113.83,120.77L114.54,128.17L115.25,139.66L115.96,137.88L116.67,145.6L117.38,111.33L118.1,113.43L118.81,112.63L119.52,115L120.23,120.13L120.94,121.04L121.65,124.77L122.36,121.26L123.08,125.04L123.79,126.39L124.5,129.36L126.63,148.46L127.34,151.38L128.77,164.71L129.48,136.86L130.19,135.72L130.9,138.69L131.61,135.99L132.32,149.06L133.04,113.06L133.75,115.16L134.46,113.06L135.17,115.11L135.88,114.3L136.59,116.13L137.3,115.7L138.02,118.83L140.15,124.71L140.86,135.78L141.57,137.78L142.28,144.36L143.71,140.53L144.42,132.65L145.13,131.73L145.84,136.7L146.55,139.66L147.26,139.34L147.98,151.92L148.69,124.98L150.11,127.63L150.82,139.07L152.96,158.5L153.67,139.99L154.38,153.97L155.09,136.7L155.8,136.05L156.51,137.61L157.22,154.94L157.94,120.02L159.36,139.72L160.07,120.4L161.49,137.24L162.2,133.78L162.92,138.05L163.63,133.78L165.05,112.84L165.76,120.5L166.47,127.25L167.18,108.63L167.9,110.52L168.61,122.56L170.03,104.96L170.74,108.04L171.45,110.95L172.16,109.76L175.01,136.97L175.72,146.36L177.14,130.33L177.86,141.66L178.57,143.17L179.28,151.16L179.99,160.28L180.7,147L182.12,156.77L182.84,77.33L183.55,73.17L184.26,75.66L185.68,86.07L186.39,83.16L187.1,92.39L187.82,82.02L188.53,73.55L189.24,74.47L190.66,88.45L191.37,74.95L192.08,75.12L192.8,79.22L194.22,85.75L194.93,93.52L195.64,108.69L196.35,107.66L197.06,107.5L197.78,117.75L198.49,94.98L199.2,105.02L199.91,82.56L200.62,85.75L201.33,93.25L202.04,93.09L202.76,95.95L203.47,97.73L204.18,105.82L205.6,125.52L206.31,120.77L207.02,101.72L207.74,104.69L209.16,105.88L209.87,104.26L210.58,114.35L211.29,104.21L212,104.53L212.72,105.77L213.43,108.25L214.14,118.45L214.85,107.12L215.56,107.66L216.27,116.94L216.98,121.37L217.7,120.07L219.12,124.12L219.83,124.5L220.54,124.44L221.25,130L222.68,147.76L223.39,146.36L224.1,144.25L224.81,148.89L225.52,157.26L226.23,142.2L226.94,143.06L227.66,146.36L229.08,158.82L229.79,145.76L230.5,124.61L231.21,125.96L231.92,126.06L232.64,128.28L233.35,128.49L234.06,131.62L234.77,130.38L235.48,133.84L236.19,98.48L236.9,98.86L237.62,99.51L238.33,99.89L239.04,101.29L239.75,100.81L240.46,103.99L243.31,114.84L244.02,123.26L245.44,140.91L246.15,129.57L247.58,86.99L248.29,74.31L249,74.58L249.71,73.06L252.56,83.43L253.27,87.1L253.98,93.84L254.69,91.63L255.4,99.4L256.11,85.42L257.54,94.92L258.25,106.53L258.96,85.37L259.67,88.66L261.09,96.16L261.8,106.36L263.23,116.19L263.94,136.97L264.65,57.41L265.36,58.38L266.07,65.18L266.78,64.48L267.49,65.67L268.21,64.43L268.92,66.91L269.63,65.89L270.34,67.61L272.47,77.44L273.19,76.79L273.9,90.39L274.61,80.08L276.03,95.79L276.74,82.56L277.45,81.59L278.17,82.19L278.88,85.96L279.59,84.88L280.3,92.49L281.01,81.59L281.72,82.19L282.43,90.39L283.15,104.42L283.86,103.61L284.57,110.52L285.28,91.31L287.41,112.09L288.13,93.47L288.84,81.59L289.55,90.5L290.26,78.57L290.97,82.08L292.39,89.8L293.11,78.68L295.95,89.74L296.66,105.55L297.37,101.72L298.09,103.18L298.8,99.83L299.51,108.42L300.93,92.98L301.64,92.12L302.35,94.87L303.07,104.8L303.78,90.93L304.49,94.22L305.2,104.8L305.91,86.5L306.62,89.58L307.33,87.31L308.05,93.74L308.76,87.31L309.47,77L310.18,81.11L310.89,73.17L311.6,75.55L313.03,84.29L313.74,66.37L314.45,66.8L315.16,68.96L315.87,76.09L316.58,59.79L318.72,78.41L319.43,82.13L320.14,70.74L320.85,71.82L321.56,71.82L322.27,79.92L322.99,65.89L323.7,68.32L324.41,75.55L325.12,66.8L327.25,71.77L327.97,84.29L329.39,98.43L330.1,110.14L330.81,99.4L331.52,111.11L332.23,87.15L332.95,96.49L333.66,95.95L334.37,104.26L335.08,87.8L335.79,89.04L337.21,90.87L337.93,96.54L338.64,89.36L339.35,94.33L340.06,84.4L340.77,86.02L341.48,92.44L342.19,77.76L342.91,82.24L343.62,93.9L344.33,135.56L345.04,77.11L345.75,79.92L346.46,72.04L347.17,80.03L347.89,70.58L351.44,97.84L352.15,108.31L352.87,106.74L353.58,99.19L354.29,81.92L355,90.61L355.71,83.53L356.42,87.04L357.13,75.87L357.85,80.46L358.56,80.03L359.27,84.18L359.98,84.13L360.69,88.12L361.4,101.67L362.11,90.82L362.83,82.89L363.54,89.36L364.96,106.04L365.67,97.03L366.38,88.5L367.09,101.67L367.81,108.52L368.52,99.24L369.23,90.34L369.94,96L370.65,105.29L371.36,94.17L372.79,109.49L373.5,93.79L374.92,103.45L375.63,91.74L376.34,91.74L377.05,94.22L377.77,99.19L378.48,109.55L379.19,110.47L379.9,121.37L380.61,133.89L381.32,115.43L382.03,115.76L382.75,125.9L384.17,114.51L384.88,115.7L385.59,123.96L386.3,115.54L387.01,118.51L387.73,133.94L389.15,94.49L389.86,100.64L390.57,89.47L391.28,94.71L391.99,77.92L392.71,81.16L394.13,93.52L394.84,94.76L395.55,103.72L396.26,101.88L396.97,114.46L397.69,86.5L399.82,96.7L400.53,95.3L401.24,97.89L401.95,106.04L402.67,105.61L403.38,109.06L404.09,109.01L404.8,114.19L405.51,118.83L406.22,134.59L406.93,105.18L407.65,105.5L408.36,118.18L410.49,90.71L411.2,95.14L411.91,96.22L412.63,98.97L413.34,99.94L414.05,104.37L415.47,106.53L416.18,111.71L416.89,100.59L417.61,112.73L418.32,117.86L419.03,112.03L421.16,126.33L421.87,118.35L422.59,121.8L423.3,121.37L424.01,128.6L424.72,119.32L426.14,117.16L426.85,122.77L429.7,138.64L430.41,143.23L431.83,156.34L432.55,152.02L433.97,117.75L434.68,122.45L435.39,121.85L436.1,136.32L436.81,121.26L437.53,127.2L438.95,126.66L439.66,127.47L440.37,130.17L441.08,136.8L441.79,133.3L442.51,114.95L443.22,121.21L443.93,109.55L446.77,119.86L447.48,119.43L448.91,135.4L449.62,113.11L452.46,130.33L453.18,120.5L453.89,123.2L454.6,131.89L455.31,124.66L456.02,129.14L456.73,172.86L457.44,170.54L458.16,150.57L458.87,152.29L459.58,156.88L461,159.63L461.71,158.28L462.42,158.99L463.14,164.98L463.85,151.81L464.56,160.44L465.27,159.69L465.98,162.01L468.12,160.12L468.83,161.25L470.25,166.97L470.96,166.11L472.38,170.81L473.1,154.13L473.81,154.61L474.52,156.02L475.23,147.22L475.94,150.08L478.08,159.47L478.79,189.21L479.5,193.64L480.21,173.02L480.92,172.1L481.63,177.55L483.06,177.34L483.77,182.52L486.61,195.69L487.32,193.58L488.04,194.23L488.75,207.78L489.46,211.23L490.17,227.26L490.88,194.28L491.59,198.22L493.02,209.88L493.73,210.26L495.15,175.02L495.86,182.57L496.57,182.46L497.28,189.05L498,209.29L498.71,182.19L499.42,183.76L500.13,182.41L500.84,188.02L501.55,187.1L502.26,188.08L502.98,193.04L503.69,183.16L504.4,183.97L505.11,183.22L505.82,186.08L506.53,188.99L507.24,149.76L508.67,155.8L509.38,156.45L511.51,166.92L512.22,165.95L513.65,168.32L514.36,179.23L515.07,179.71L515.78,187.32L516.49,175.66L517.2,148.46L518.63,153.75L519.34,137.56L520.76,140.47L521.47,142.79L522.9,153L523.61,153.32L524.32,139.93L525.03,144.14L525.74,143.55L526.45,144.9L527.88,148.89L528.59,161.2L529.3,147.22L530.01,153.43L530.72,144.58L531.43,149.65L532.14,159.09L532.86,191.58L533.57,169.29L534.28,169.62L534.99,168.43L536.41,171.13L537.12,172.21L537.84,174.15L538.55,178.31L539.97,184.08L540.68,181.98L542.1,189.53L542.82,175.66L543.53,167.89L544.24,130.81L544.95,130.33L545.66,131.03L547.08,134L547.8,130.6L549.93,143.6L550.64,130.81L551.35,136.59L552.06,127.58L554.91,146.41L555.62,148.79L556.33,141.45L557.04,148.03L557.76,128.49L558.47,128.55L559.18,126.66L561.31,148.52L562.02,150.08L562.74,127.41L563.45,129.73L565.58,153.86L566.29,154.88L567,156.56L567.72,131.41L568.43,132.7L569.14,137.61L569.85,136.37L570.56,160.12L571.27,171.72L571.98,166.54L573.41,177.61L574.12,168.48L575.54,179.01L576.25,169.73L576.96,167.51L577.68,153.43L579.1,157.64L579.81,137.13L580.52,136.97L581.23,135.94L581.94,136.59L582.66,139.93L583.37,141.99L584.08,141.34L585.5,148.14L586.21,142.85L587.64,148.79L588.35,151L589.06,150.94L589.77,157.04L591.9,178.85L592.62,195.42L593.33,157.64L594.04,164.81L594.75,177.01L595.46,118.83L596.88,132.81L597.6,143.06L598.31,132.7L599.02,135.83L600.44,150.57L601.15,136.48L601.86,132.81L602.58,121.26L604,133.94L604.71,145.98L606.13,113.76L606.84,116.62L607.56,127.09L608.27,115.54L609.69,102.86L610.4,108.15L611.11,108.2L611.82,110.47L612.54,112.3L613.25,118.72L613.96,125.69L614.67,113.33L616.09,128.92L616.8,123.15L617.52,136.53L618.23,133.78L618.94,134.11L619.65,138.85L620.36,138.75L621.07,145.39L621.78,153.05L622.49,140.37L623.21,142.96L623.92,151.65L624.63,153.05L625.34,151.59L626.05,153L626.76,167.78L627.47,142.96L628.19,145.39L628.9,143.98L629.61,147.22L630.32,149.92L631.03,155.8L632.45,177.39L633.17,167.62L633.88,173.5L634.59,153.8L636.72,157.21L637.43,157.42L638.15,162.39L638.86,158.18L640.28,164.33L640.99,165.46L641.7,171.94L642.41,161.68L643.13,162.33L643.84,159.2L645.26,163.47L645.97,164.71L647.39,167.35L648.11,170.64L648.82,170.1L649.53,172.42L650.95,175.39L651.66,180.9L653.09,165.95L653.8,166.65L654.51,165.73L655.22,172.21L655.93,166.76L656.64,168.75L658.07,173.07L658.78,171.08L660.2,180.95L660.91,181.38L662.33,187.75L663.05,185.7L663.76,196.28L664.47,185.49L665.18,190.51L665.89,177.88L666.6,178.69L667.31,180.74L668.03,180.2L668.74,183.33L670.16,183.54L670.87,185.97L672.29,163.52L673.01,166.22L673.72,164.01L674.43,168.75L675.14,170.75L675.85,175.93L676.56,177.66L677.27,182.36L678.7,171.78L679.41,174.48L680.83,184.51L681.54,156.18L682.97,169.24L683.68,144.14L684.39,145.17L685.1,156.61L685.81,163.52L686.52,150.89L687.23,153.64L687.95,141.72L688.66,143.93L689.37,151.81L690.08,123.74L690.79,129.46L691.5,113.49L692.21,116.24L692.93,119.86L693.64,117.97L694.35,119.43L695.06,131.62L695.77,117.54L696.48,117.75L697.19,118.89L697.91,124.28L698.62,112.57L699.33,114.89L700.04,121.8L700.75,130L701.46,121.1L702.89,135.78L703.6,138.75L705.02,162.55L705.73,133.51L706.44,140.85L707.15,122.29L707.87,122.88L708.58,124.55L709.29,122.61L710,123.64" style="vector-effect: none; fill: none; stroke: rgb(140, 86, 75); stroke-opacity: 1; stroke-width: 2px; opacity: 1;"/></g><g class="points"/><g class="text"/></g><g class="trace scatter tracefd5be1" style="stroke-miterlimit: 2; opacity: 1;"><g class="fills"/><g class="errorbars"/><g class="lines"><path class="js-line" d="M0,87.91L0.71,90.17L1.42,77.11L3.56,73.55L4.27,70.64L5.69,67.18L6.4,68.37L7.83,75.28L8.54,73.33L9.25,75.92L9.96,85.1L11.38,106.04L12.09,119.1L12.81,135.4L13.52,131.08L14.23,113.49L14.94,119.86L15.65,128.49L16.36,126.66L17.79,129.25L18.5,129.36L19.92,135.72L20.63,147.49L22.05,127.2L22.77,131.3L24.19,145.33L24.9,183.11L27.03,207.94L27.75,129.57L28.46,128.17L29.17,130.65L29.88,129.79L30.59,125.58L31.3,128.49L32.01,125.79L32.73,126.98L33.44,132.59L34.15,133.78L34.86,143.28L36.28,109.17L36.99,109.82L39.13,118.67L39.84,118.24L41.26,118.89L41.97,126.23L43.4,133.89L44.11,135.62L44.82,133.78L45.53,137.56L47.67,147.81L48.38,162.71L49.8,132.05L50.51,132.16L51.22,133.03L51.93,135.94L53.36,133.89L54.07,132.38L54.78,145.22L55.49,140.04L57.63,159.26L58.34,158.07L59.05,160.01L59.76,166.16L60.47,127.63L61.18,128.49L61.89,125.58L63.32,126.01L64.03,125.69L65.45,94.81L66.16,95.46L67.59,101.4L68.3,97.84L70.43,112.19L71.14,103.13L73.99,149.43L74.7,86.5L76.12,85.75L76.83,89.85L77.55,89.31L78.26,93.95L78.97,94.49L79.68,96.22L80.39,98.27L81.1,97.95L82.53,105.61L83.24,104.1L83.95,105.18L84.66,109.17L85.37,109.39L86.08,107.88L86.79,115.54L87.51,113.7L88.22,119.86L88.93,118.78L89.64,117.27L90.35,122.99L91.77,138.96L92.48,117.37L93.2,118.02L93.91,121.48L94.62,119.75L95.33,124.17L96.04,122.12L96.75,127.63L97.46,136.8L98.18,81.97L99.6,102.05L100.31,64.81L101.73,73.77L102.44,92.12L103.16,62.11L103.87,65.45L104.58,65.13L105.29,69.45L106,73.98L106.71,83.37L108.14,103.99L108.85,99.46L110.27,115L110.98,108.31L111.69,108.2L112.4,116.08L113.12,111.11L113.83,119.43L115.25,129.36L115.96,130.54L116.67,128.49L117.38,131.08L118.1,131.62L118.81,130.44L120.23,144.04L120.94,118.35L123.08,117.37L123.79,121.04L125.21,128.92L125.92,128.71L127.34,130.44L128.06,135.29L128.77,137.02L129.48,132.05L130.9,136.59L131.61,134.11L132.32,145.98L133.04,120.5L134.46,95.35L135.17,93.84L136.59,95.89L137.3,94.38L138.02,93.95L138.73,97.84L139.44,92.98L140.15,94.81L140.86,94.17L141.57,98.81L142.28,103.02L143,100.75L143.71,103.02L144.42,117.37L145.13,93.95L145.84,96.87L147.26,94.28L147.98,98.05L148.69,95.03L149.4,97.84L150.11,98.48L150.82,104.75L152.24,106.9L152.96,109.6L155.09,113.81L155.8,114.57L158.65,140.91L159.36,123.2L161.49,145.55L162.2,144.9L162.92,143.5L163.63,145.12L165.05,142.2L165.76,149.76L167.18,131.73L167.9,141.55L168.61,102.05L169.32,103.99L170.03,101.29L170.74,102.15L171.45,101.29L172.88,106.36L173.59,114.24L175.72,130.44L176.43,111.44L177.14,110.68L177.86,111.87L179.28,129.14L179.99,126.77L180.7,127.41L181.41,136.7L182.12,105.39L182.84,106.9L184.26,107.44L184.97,106.36L186.39,107.66L187.1,113.7L189.95,125.04L190.66,135.18L192.8,144.58L193.51,158.5L194.22,125.04L194.93,134.21L195.64,112.63L196.35,113.06L197.06,110.79L198.49,142.63L199.2,100.86L199.91,107.55L200.62,105.82L201.33,112.95L202.04,110.03L202.76,112.41L203.47,111.44L205.6,118.45L206.31,114.24L207.02,113.92L207.74,115.43L210.58,124.71L211.29,106.9L212,110.57L212.72,109.93L213.43,111.11L214.14,109.71L214.85,107.34L215.56,113.81L216.27,116.3L216.98,127.95L217.7,124.61L218.41,128.28L219.12,139.83L219.83,99.67L220.54,99.89L221.25,101.94L221.96,101.83L222.68,100.1L223.39,98.38L224.1,100.21L224.81,100.54L225.52,107.55L227.66,118.45L228.37,100.54L229.08,101.62L229.79,109.71L230.5,107.12L231.21,111.76L231.92,111.33L232.64,117.59L234.06,125.79L234.77,122.77L235.48,125.25L236.19,124.07L236.9,125.25L237.62,128.17L238.33,123.85L239.04,128.49L239.75,131.84L240.46,131.08L241.17,129.14L241.88,132.27L242.6,80.67L243.31,82.94L244.02,83.7L244.73,84.78L245.44,87.91L246.15,108.85L246.86,101.94L248.29,106.04L249,106.04L249.71,107.23L250.42,114.68L251.13,82.29L251.84,85.32L253.27,88.99L253.98,105.72L254.69,102.05L255.4,119.1L256.11,82.62L256.82,83.26L257.54,85.75L258.25,91.04L258.96,90.71L259.67,94.06L260.38,95.79L261.09,103.67L262.52,121.91L263.23,120.29L263.94,131.19L264.65,217.33L265.36,85.53L266.07,92.98L266.78,98.16L267.49,96.54L268.21,100.43L268.92,97.95L271.05,127.52L271.76,80.46L272.47,81.32L273.19,80.13L273.9,103.34L274.61,69.66L277.45,100.21L278.17,82.51L278.88,93.52L279.59,49.16L281.72,57.25L282.43,57.9L283.15,66.64L283.86,65.35L285.28,73.55L285.99,79.81L287.41,100.97L288.13,64.16L289.55,71.18L290.26,77.98L290.97,79.49L291.68,84.02L293.11,89.31L293.82,102.37L294.53,79.38L295.24,87.04L295.95,86.94L296.66,111.55L297.37,196.39L298.09,74.85L300.22,99.56L300.93,100.32L301.64,99.89L302.35,107.77L303.07,77.65L303.78,80.24L304.49,81.32L305.2,94.06L305.91,93.2L306.62,98.16L307.33,101.18L308.05,114.35L308.76,85.64L309.47,93.2L310.18,94.06L310.89,104.75L311.6,76.25L312.31,77.33L313.03,77.44L314.45,86.94L315.16,69.23L315.87,81.32L316.58,128.6L318.01,145.01L318.72,148.89L320.14,170.05L320.85,123.53L322.99,132.92L323.7,141.23L325.12,161.52L325.83,161.52L327.97,177.39L328.68,193.8L329.39,154.07L330.1,169.73L330.81,132.49L331.52,139.72L332.23,139.83L332.95,143.5L333.66,135.83L334.37,136.7L335.79,146.73L336.5,147.71L337.93,151.16L338.64,159.9L339.35,172.53L340.06,168L340.77,147.92L341.48,156.56L342.19,154.83L342.91,160.44L343.62,91.47L344.33,92.76L345.04,105.29L345.75,74.09L346.46,74.52L347.17,80.13L347.89,89.09L348.6,55.2L349.31,56.93L350.02,56.06L352.87,76.9L353.58,83.05L355.71,104.1L356.42,73.23L357.13,77.98L357.85,90.61L358.56,86.83L359.27,88.88L360.69,100.54L361.4,93.52L363.54,101.62L364.25,122.12L364.96,175.99L365.67,89.53L366.38,93.09L367.09,102.15L367.81,107.88L368.52,95.14L372.07,142.42L372.79,158.82L373.5,169.51L374.21,127.41L374.92,138.32L375.63,109.49L376.34,107.88L377.05,111.55L377.77,114.14L378.48,121.37L379.9,120.29L380.61,129.36L381.32,124.93L382.03,126.66L383.46,134.32L384.17,133.03L385.59,132.81L386.3,134.65L387.01,131.95L387.73,140.8L388.44,149L389.15,131.08L390.57,155.26L391.28,155.69L391.99,165.84L392.71,149.97L393.42,112.73L394.13,117.16L394.84,118.35L395.55,114.89L396.26,117.48L396.97,116.08L397.69,118.56L398.4,124.82L399.11,128.82L399.82,127.41L401.24,146.52L401.95,145.44L402.67,148.14L403.38,143.93L404.09,144.14L404.8,149.65L405.51,149.22L406.22,152.35L406.93,152.78L407.65,152.13L409.07,159.15L409.78,164.01L410.49,143.5L411.2,146.73L411.91,149.33L412.63,146.41L413.34,149.43L414.05,148.57L414.76,148.46L415.47,151.27L416.18,154.07L416.89,152.78L418.32,162.28L419.03,161.85L421.87,167.35L422.59,173.72L423.3,172.86L424.01,177.07L425.43,178.9L426.14,181.92L427.57,190.56L428.28,195.2L428.99,141.45L429.7,146.73L431.12,150.19L431.83,154.61L432.55,163.14L433.26,139.18L433.97,142.96L434.68,160.01L435.39,160.88L436.1,174.69L437.53,199.3L438.24,130.11L438.95,129.03L439.66,134L440.37,102.05L441.08,109.06L443.93,115.76L444.64,116.51L446.77,126.44L447.48,121.8L448.91,142.09L449.62,145.33L450.33,152.35L451.04,132.27L453.18,152.46L453.89,152.67L456.02,186.57L456.73,137.88L457.44,137.78L458.16,135.72L459.58,130.87L460.29,141.88L462.42,134.65L463.14,133.35L463.85,141.55L464.56,138.42L465.27,136.26L465.98,157.53L467.4,88.55L468.12,88.23L469.54,95.89L470.25,96.22L472.38,115.65L473.1,91.58L475.23,106.58L475.94,78.62L476.65,75.28L477.36,80.89L478.08,90.07L478.79,89.63L479.5,91.68L480.21,92.55L480.92,102.15L481.63,101.08L482.34,106.47L483.06,107.98L483.77,112.09L485.19,123.42L485.9,120.4L486.61,128.28L487.32,124.82L488.04,124.07L488.75,139.5L489.46,142.52L490.17,153L490.88,156.13L491.59,151.48L492.3,157.1L493.02,135.51L493.73,133.67L494.44,134.32L495.15,132.81L495.86,141.66L496.57,95.79L497.28,99.02L498,95.25L498.71,99.56L499.42,100.64L500.13,99.13L500.84,101.4L501.55,99.46L502.26,99.56L502.98,102.59L504.4,113.92L505.11,113.92L505.82,121.58L506.53,103.23L507.24,103.45L507.96,112.63L508.67,117.48L509.38,115.43L510.09,117.37L510.8,126.01L512.22,126.55L512.94,131.41L513.65,133.35L514.36,147.06L515.07,127.63L515.78,131.51L517.2,132.59L517.92,131.08L520.05,149.43L520.76,208.59L521.47,124.71L522.18,130.54L522.9,130.98L523.61,134.43L524.32,141.77L525.03,87.04L525.74,88.23L526.45,98.92L527.88,82.29L528.59,86.94L529.3,91.68L530.01,103.99L531.43,119.1L532.14,96L532.86,96.43L533.57,100.32L534.28,102.26L534.99,100L535.7,101.94L536.41,97.84L537.12,101.94L537.84,111.22L539.26,118.99L539.97,115.54L541.39,122.34L542.1,84.13L544.24,108.31L544.95,120.4L545.66,90.07L546.37,107.77L547.8,111.98L548.51,116.51L550.64,58.98L551.35,73.55L552.06,56.28L552.78,58.98L554.91,74.09L555.62,74.95L556.33,75.92L557.04,89.53L558.47,94.81L559.18,94.71L559.89,109.93L560.6,86.5L561.31,97.62L562.02,95.35L562.74,97.73L563.45,104.75L564.16,116.73L564.87,102.37L565.58,122.77L566.29,87.26L567,90.17L567.72,100.1L568.43,94.81L569.14,104.96L569.85,113.92L570.56,92.98L571.27,120.61L571.98,79.92L573.41,98.16L574.12,81.32L575.54,114.57L576.25,78.41L576.96,79.92L577.68,88.55L579.1,103.67L579.81,73.77L580.52,70.85L581.23,75.28L581.94,74.52L582.66,89.2L584.08,77.87L584.79,89.09L586.92,119.97L587.64,83.26L589.77,111.01L590.48,84.13L591.19,83.91L591.9,95.68L593.33,119.75L594.04,91.14L594.75,96.65L595.46,76.79L597.6,100.75L598.31,70.85L599.02,67.72L599.73,77.22L601.86,95.03L602.58,112.52L603.29,116.08L604,124.71L604.71,139.93L605.42,132.27L607.56,144.79L608.27,125.25L608.98,123.31L609.69,128.38L612.54,140.37L613.25,144.25L614.67,160.44L615.38,129.36L618.94,160.44L619.65,164.01L621.07,177.93L621.78,149.54L622.49,150.08L623.21,157.21L623.92,164.11L624.63,131.95L626.05,99.56L626.76,105.61L628.19,117.27L628.9,116.19L629.61,118.99L630.32,129.36L631.03,138.85L631.74,101.4L633.88,116.94L634.59,116.83L636.01,125.47L636.72,136.26L637.43,142.85L638.15,120.94L639.57,120.18L640.28,129.14L640.99,124.17L641.7,131.19L642.41,130.76L643.13,134.75L643.84,136.26L644.55,143.06L645.26,142.63L645.97,149.33L646.68,122.12L647.39,126.66L648.11,126.33L648.82,123.31L649.53,129.9L650.24,127.31L650.95,133.24L651.66,151.7L652.37,116.08L653.09,118.13L653.8,127.2L654.51,105.61L655.22,84.67L655.93,87.58L656.64,85.96L657.35,91.68L658.07,93.3L658.78,89.63L660.2,101.94L660.91,112.63L661.62,115.32L662.33,98.92L663.76,111.98L664.47,111.87L665.18,116.08L667.31,136.59L668.03,138.75L668.74,143.6L669.45,109.71L670.16,112.95L670.87,109.6L671.58,124.82L672.29,122.66L673.01,121.91L673.72,122.45L674.43,133.46L675.14,108.85L675.85,115.76L676.56,115L677.99,131.51L678.7,132.92L679.41,135.94L680.12,98.16L681.54,117.7L682.25,120.83L682.97,123.64L683.68,108.42L684.39,113.49L685.1,53.58L685.81,55.96L686.52,31.88L689.37,66.21L690.08,81.75L690.79,41.17L691.5,43L692.21,45.05L692.93,50.88L693.64,49.37L697.91,89.31L698.62,107.12L699.33,50.34L700.04,57.04L702.89,74.2L703.6,63.84L704.31,69.12L705.02,68.26L705.73,68.48L706.44,80.24L707.87,77.54L708.58,85.42L709.29,84.99L710,95.14" style="vector-effect: none; fill: none; stroke: rgb(227, 119, 194); stroke-opacity: 1; stroke-width: 2px; opacity: 1;"/></g><g class="points"/><g class="text"/></g><g class="trace scatter trace9f89c4" style="stroke-miterlimit: 2; opacity: 1;"><g class="fills"/><g class="errorbars"/><g class="lines"><path class="js-line" d="M0,87.91L0.71,90.17L1.42,77.11L3.56,73.55L4.27,70.64L5.69,67.18L6.4,68.37L7.83,75.28L8.54,73.33L9.25,75.92L9.96,85.1L11.38,106.04L12.09,119.1L12.81,135.4L13.52,99.13L14.23,77.76L14.94,84.88L16.36,95.35L17.07,96.11L17.79,95.25L18.5,99.13L20.63,120.5L21.34,88.12L22.05,89.31L22.77,97.41L24.19,120.94L24.9,99.35L25.61,107.23L26.32,93.09L27.03,97.73L27.75,71.18L28.46,72.25L29.17,82.62L30.59,86.29L31.3,96.76L33.44,121.58L34.15,82.94L34.86,91.58L35.57,61.68L36.99,69.02L37.71,65.35L38.42,68.8L39.13,67.94L40.55,75.82L41.26,74.41L43.4,105.82L44.11,77.54L44.82,59.95L45.53,65.45L46.95,67.94L47.67,71.93L49.09,94.17L49.8,52.5L50.51,54.77L51.22,51.85L51.93,54.77L52.65,61.46L53.36,58.33L54.07,64.7L55.49,72.36L56.2,81.65L56.91,59.95L57.63,66.43L58.34,68.05L59.05,67.51L60.47,76.79L61.18,76.14L62.61,93.2L63.32,69.56L64.03,76.68L64.74,92.33L65.45,59.95L66.16,63.4L66.87,69.56L67.59,68.48L69.01,72.58L69.72,70.1L71.14,85.75L71.85,88.01L72.57,96L73.28,75.06L73.99,100.32L74.7,80.46L75.41,52.18L76.12,55.74L78.26,61.46L78.97,74.74L80.39,80.24L81.1,78.3L82.53,100.86L83.24,75.06L83.95,75.39L84.66,93.52L85.37,96.33L86.08,105.18L87.51,75.71L88.22,83.48L88.93,57.68L89.64,63.4L91.77,76.14L92.48,86.4L94.62,97.62L95.33,107.55L96.75,52.5L97.46,61.68L98.18,35.12L98.89,38.58L101.02,51.42L101.73,56.5L102.44,67.94L103.16,29.29L105.29,33.29L106,37.07L106.71,39.55L107.42,52.83L108.85,63.94L109.56,69.56L110.98,44.95L111.69,48.18L112.4,49.8L113.12,48.72L115.25,72.79L115.96,73.55L117.38,80.89L118.1,80.67L118.81,51.53L119.52,69.77L120.94,83.48L121.65,70.42L122.36,72.25L123.08,77.22L123.79,85.96L124.5,59.19L125.21,70.31L125.92,53.47L126.63,35.99L127.34,39.22L129.48,49.16L130.19,49.91L131.61,51.42L132.32,57.57L133.04,62.65L133.75,40.3L137.3,53.8L138.02,61.35L139.44,74.63L140.15,75.82L141.57,100.75L142.28,80.89L143.71,86.94L144.42,98.05L145.13,96.76L145.84,99.89L146.55,112.3L147.26,81.54L150.11,119.53L150.82,67.4L151.53,41.17L152.24,46.89L154.38,72.58L155.09,49.05L155.8,50.56L156.51,57.04L157.94,70.31L158.65,83.05L160.07,42.89L160.78,48.62L162.92,61.57L163.63,71.5L165.05,36.09L165.76,40.52L166.47,50.34L167.18,48.62L170.03,60.6L170.74,71.39L173.59,97.41L174.3,83.37L175.01,92.01L175.72,71.18L176.43,76.57L177.14,74.85L178.57,91.25L179.28,101.83L180.7,58.55L181.41,61.46L182.12,64.05L182.84,35.45L184.26,34.26L184.97,39.01L185.68,45.27L186.39,45.05L187.1,49.59L187.82,57.9L188.53,36.2L189.24,42.14L189.95,39.12L190.66,48.4L191.37,47.1L192.8,51.21L193.51,62.22L194.22,63.08L194.93,75.39L195.64,87.37L196.35,86.94L197.06,82.94L197.78,67.4L198.49,82.29L199.2,53.26L199.91,53.47L200.62,57.47L201.33,75.49L202.04,73.77L202.76,70.85L203.47,76.68L204.89,110.9L205.6,97.3L207.02,77.65L207.74,84.99L209.16,50.77L209.87,58.44L211.29,74.52L212,37.5L212.72,39.98L213.43,48.72L214.14,45.92L214.85,46.78L215.56,46.13L216.27,59.19L216.98,62.65L217.7,72.79L218.41,40.95L219.12,46.89L221.25,52.5L221.96,59.41L224.1,76.36L224.81,48.72L226.23,61.14L226.94,62.86L227.66,75.82L228.37,57.04L229.08,68.69L229.79,41.82L230.5,40.2L231.21,48.51L231.92,53.37L232.64,31.99L234.06,35.12L234.77,40.3L235.48,43.22L236.19,53.8L236.9,31.78L237.62,33.5L239.04,34.8L239.75,33.07L240.46,34.8L241.17,39.87L241.88,42.57L242.6,48.29L244.02,57.36L244.73,69.45L245.44,78.3L246.15,66.32L246.86,77.87L247.58,46.78L248.29,45.38L249,48.4L249.71,46.35L250.42,47.43L251.84,56.28L252.56,58.33L253.27,61.24L253.98,76.46L254.69,75.06L255.4,82.94L256.11,86.07L256.82,97.84L257.54,101.51L258.25,115.32L260.38,63.84L261.09,68.91L263.94,100.32L264.65,105.93L265.36,82.29L266.07,91.04L267.49,60.92L268.21,58.22L268.92,59.41L269.63,58.44L272.47,78.41L273.19,74.85L275.32,94.6L276.03,102.15L276.74,116.08L277.45,104.21L278.17,57.47L278.88,64.81L279.59,63.73L280.3,66.21L283.15,101.29L283.86,101.94L284.57,112.3L285.28,92.33L285.99,98.38L286.7,77L288.13,85.86L288.84,83.91L290.97,100.1L291.68,119.1L292.39,81.54L293.11,97.19L293.82,51.53L294.53,57.25L295.95,70.42L296.66,83.05L298.09,42.14L298.8,60.38L300.22,79.49L300.93,74.2L301.64,73.01L302.35,84.24L303.07,101.08L303.78,55.2L304.49,57.68L305.2,66.86L306.62,73.23L307.33,75.49L309.47,112.52L310.18,95.68L311.6,77.54L312.31,80.57L313.74,83.91L314.45,96.97L315.16,67.72L315.87,83.59L316.58,84.45L317.29,101.4L318.72,50.45L319.43,60.6L320.85,64.05L321.56,67.72L323.7,85.32L324.41,101.94L325.12,87.15L325.83,88.77L326.54,45.05L327.25,46.46L327.97,55.85L330.1,80.57L330.81,100.21L331.52,108.2L332.23,72.15L332.95,85.64L333.66,63.62L334.37,40.52L335.08,42.25L335.79,44.08L336.5,39.44L337.93,51.21L338.64,45.49L340.06,61.78L340.77,61.46L342.19,74.74L342.91,61.14L345.04,88.55L345.75,76.68L346.46,78.08L347.17,88.66L347.89,76.03L348.6,83.48L349.31,83.05L350.02,96.87L350.73,62.22L351.44,67.51L352.87,88.77L353.58,54.12L354.29,55.09L355,63.84L355.71,51.42L356.42,52.93L357.13,53.37L357.85,56.6L360.69,79.27L361.4,91.04L362.11,59.52L362.83,77.65L363.54,86.18L364.25,57.9L364.96,58.55L365.67,67.61L366.38,44.51L367.09,51.31L367.81,55.42L368.52,70.64L369.23,82.94L369.94,57.57L370.65,60.06L371.36,66.21L372.07,45.81L372.79,54.01L373.5,52.29L374.21,55.52L375.63,66.1L376.34,62.22L377.77,72.79L378.48,88.45L379.19,58.76L379.9,62.97L381.32,81.43L382.03,81.32L382.75,92.01L383.46,91.79L384.17,88.55L385.59,112.73L386.3,65.45L387.73,82.19L388.44,97.84L389.15,74.95L389.86,92.55L390.57,78.84L391.28,46.03L391.99,49.26L392.71,59.41L393.42,76.9L394.13,44.95L395.55,55.2L396.26,57.57L397.69,69.77L398.4,66.75L399.82,67.29L400.53,70.96L401.24,34.37L401.95,40.52L402.67,42.68L403.38,49.59L404.09,50.23L404.8,53.47L407.65,84.02L408.36,67.07L409.07,39.33L409.78,40.52L410.49,46.78L412.63,60.38L413.34,67.94L414.05,72.36L414.76,43.97L416.18,48.72L416.89,57.9L417.61,46.24L418.32,50.02L419.03,58.65L419.74,56.28L421.87,88.01L422.59,66.53L423.3,65.78L424.01,74.2L424.72,73.55L425.43,81.54L428.28,116.51L428.99,93.2L429.7,102.8L430.41,64.16L431.83,71.82L432.55,93.41L433.97,60.71L434.68,78.62L435.39,24.01L436.1,28.43L437.53,38.47L438.24,36.31L439.66,41.82L440.37,40.2L441.79,59.52L442.51,67.18L443.93,83.37L444.64,63.62L446.77,75.82L447.48,73.33L448.91,88.23L449.62,100.32L451.04,72.9L451.75,77.65L452.46,66.64L453.18,81.75L453.89,55.85L454.6,63.3L456.02,71.72L456.73,81L458.87,86.07L459.58,90.17L461.71,99.24L462.42,74.52L463.14,73.55L463.85,84.34L465.27,57.9L465.98,63.08L468.12,82.62L468.83,83.16L469.54,98.59L470.25,65.99L471.67,68.91L472.38,70.64L473.1,79.27L473.81,77.65L475.23,89.09L475.94,90.71L477.36,104.1L478.08,70.64L478.79,70.74L479.5,72.9L480.21,71.28L480.92,73.98L482.34,83.91L483.06,83.59L483.77,95.25L484.48,87.37L485.19,92.01L485.9,68.26L487.32,81.43L488.04,82.83L488.75,98.16L489.46,59.52L490.17,70.85L490.88,50.99L491.59,51.1L492.3,59.3L494.44,78.52L495.15,51.42L495.86,50.45L496.57,54.66L498.71,64.7L499.42,71.72L500.13,70.1L500.84,77.98L501.55,74.85L502.26,88.01L502.98,102.37L503.69,81.86L504.4,92.55L505.11,59.3L505.82,60.17L506.53,65.78L507.24,69.77L507.96,79.81L509.38,87.26L510.09,90.5L511.51,109.39L512.22,91.04L513.65,91.79L514.36,111.76L515.07,109.49L515.78,117.7L517.92,66.97L518.63,73.55L519.34,72.58L520.05,88.88L520.76,63.4L521.47,71.18L522.9,48.18L523.61,56.71L525.74,63.3L526.45,75.92L527.16,85.75L527.88,60.27L530.72,79.59L531.43,86.5L532.14,92.44L532.86,107.77L533.57,127.84L534.28,68.58L536.41,80.03L537.12,57.36L537.84,55.52L538.55,59.84L539.26,64.91L539.97,64.81L540.68,66.1L543.53,88.88L544.24,61.24L545.66,75.82L546.37,96.43L547.08,104.21L547.8,102.05L548.51,116.73L549.22,77L550.64,35.34L551.35,47.32L554.91,86.61L555.62,61.35L556.33,59.63L557.04,74.31L558.47,50.77L559.18,54.77L561.31,92.22L562.02,91.9L563.45,95.89L564.16,64.27L567.72,126.44L568.43,67.29L569.85,74.74L570.56,87.37L571.27,121.48L571.98,53.58L572.7,61.89L573.41,38.15L576.25,66.1L576.96,50.56L581.23,90.39L581.94,87.69L582.66,106.36L583.37,47.21L584.79,56.28L585.5,62L586.21,68.05L586.92,81L587.64,88.45L588.35,61.89L589.77,68.8L590.48,87.91L591.9,54.23L592.62,66.86L593.33,42.89L594.04,47.43L596.17,67.4L596.88,79.06L597.6,52.61L598.31,59.52L599.73,70.42L600.44,85.64L601.15,96L601.86,89.96L602.58,26.6L603.29,34.15L606.84,80.89L607.56,99.67L608.98,33.83L609.69,39.33L610.4,43.76L611.11,43.11L613.96,63.62L614.67,30.27L616.09,48.51L616.8,48.4L617.52,69.02L619.65,91.14L620.36,66.32L621.07,68.58L621.78,82.94L622.49,80.13L623.21,84.34L623.92,92.76L624.63,79.49L625.34,53.04L626.05,57.36L626.76,72.9L627.47,49.91L628.19,19.26L628.9,19.8L629.61,24.11L632.45,50.77L633.17,53.37L633.88,35.12L634.59,38.36L637.43,79.7L638.15,78.84L638.86,76.68L639.57,86.83L640.28,98.92L640.99,40.74L642.41,50.23L643.13,53.15L643.84,55.96L644.55,61.89L645.26,56.6L645.97,60.49L646.68,59.95L647.39,67.61L648.11,87.26L648.82,23.68L650.24,33.29L650.95,33.18L651.66,48.94L652.37,24.11L653.8,39.33L654.51,18.5L655.93,38.47L656.64,39.76L658.07,53.15L658.78,51.53L660.2,69.99L660.91,62.54L661.62,37.61L662.33,40.2L663.05,55.52L663.76,35.66L665.89,53.37L666.6,57.79L667.31,65.02L668.03,62.86L668.74,72.58L669.45,68.26L670.16,74.85L670.87,45.27L672.29,63.84L673.01,35.34L673.72,34.69L674.43,41.06L675.85,55.52L676.56,53.9L677.99,78.08L678.7,40.84L679.41,38.79L680.12,52.18L682.97,75.28L683.68,57.36L684.39,59.19L685.1,79.06L685.81,24.11L686.52,28.75L687.23,28.11L687.95,42.36L689.37,63.19L690.08,80.67L691.5,33.83L692.21,36.74L692.93,43L693.64,40.52L695.77,64.05L696.48,60.06L697.91,80.35L698.62,105.93L699.33,69.99L700.04,83.48L700.75,50.23L701.46,59.95L702.17,41.71L702.89,44.51L705.02,73.12L705.73,44.95L706.44,61.68L707.15,25.73L709.29,42.14L710,51.96" style="vector-effect: none; fill: none; stroke: rgb(127, 127, 127); stroke-opacity: 1; stroke-width: 2px; opacity: 1;"/></g><g class="points"/><g class="text"/></g></g></g><g class="overplot"/><path class="xlines-above crisp" d="M0,0" style="fill: none;"/><path class="ylines-above crisp" d="M0,0" style="fill: none;"/><g class="overlines-above"/><g class="xaxislayer-above"><g class="xtick"><text text-anchor="middle" x="0" y="533" transform="translate(80,0)" style="font-family: 'Open Sans', verdana, arial, sans-serif; font-size: 12px; fill: rgb(68, 68, 68); fill-opacity: 1; white-space: pre; opacity: 1;">0</text></g><g class="xtick"><text text-anchor="middle" x="0" y="533" style="font-family: 'Open Sans', verdana, arial, sans-serif; font-size: 12px; fill: rgb(68, 68, 68); fill-opacity: 1; white-space: pre; opacity: 1;" transform="translate(222.28,0)">200</text></g><g class="xtick"><text text-anchor="middle" x="0" y="533" style="font-family: 'Open Sans', verdana, arial, sans-serif; font-size: 12px; fill: rgb(68, 68, 68); fill-opacity: 1; white-space: pre; opacity: 1;" transform="translate(364.57,0)">400</text></g><g class="xtick"><text text-anchor="middle" x="0" y="533" style="font-family: 'Open Sans', verdana, arial, sans-serif; font-size: 12px; fill: rgb(68, 68, 68); fill-opacity: 1; white-space: pre; opacity: 1;" transform="translate(506.85,0)">600</text></g><g class="xtick"><text text-anchor="middle" x="0" y="533" style="font-family: 'Open Sans', verdana, arial, sans-serif; font-size: 12px; fill: rgb(68, 68, 68); fill-opacity: 1; white-space: pre; opacity: 1;" transform="translate(649.14,0)">800</text></g></g><g class="yaxislayer-above"><g class="ytick"><text text-anchor="end" x="79" y="4.199999999999999" transform="translate(0,461.67)" style="font-family: 'Open Sans', verdana, arial, sans-serif; font-size: 12px; fill: rgb(68, 68, 68); fill-opacity: 1; white-space: pre; opacity: 1;">0.6</text></g><g class="ytick"><text text-anchor="end" x="79" y="4.199999999999999" style="font-family: 'Open Sans', verdana, arial, sans-serif; font-size: 12px; fill: rgb(68, 68, 68); fill-opacity: 1; white-space: pre; opacity: 1;" transform="translate(0,396.9)">0.65</text></g><g class="ytick"><text text-anchor="end" x="79" y="4.199999999999999" style="font-family: 'Open Sans', verdana, arial, sans-serif; font-size: 12px; fill: rgb(68, 68, 68); fill-opacity: 1; white-space: pre; opacity: 1;" transform="translate(0,332.14)">0.7</text></g><g class="ytick"><text text-anchor="end" x="79" y="4.199999999999999" style="font-family: 'Open Sans', verdana, arial, sans-serif; font-size: 12px; fill: rgb(68, 68, 68); fill-opacity: 1; white-space: pre; opacity: 1;" transform="translate(0,267.37)">0.75</text></g><g class="ytick"><text text-anchor="end" x="79" y="4.199999999999999" style="font-family: 'Open Sans', verdana, arial, sans-serif; font-size: 12px; fill: rgb(68, 68, 68); fill-opacity: 1; white-space: pre; opacity: 1;" transform="translate(0,202.61)">0.8</text></g></g><g class="overaxes-above"/></g></g><g class="polarlayer"/><g class="smithlayer"/><g class="ternarylayer"/><g class="geolayer"/><g class="funnelarealayer"/><g class="pielayer"/><g class="iciclelayer"/><g class="treemaplayer"/><g class="sunburstlayer"/><g class="glimages"/><defs id="topdefs-d3a3e7"><g class="clips"/><clipPath id="legendd3a3e7"><rect width="541" height="67" x="0" y="0"/></clipPath></defs><g class="layer-above"><g class="imagelayer"/><g class="shapelayer"/></g><g class="infolayer"><g class="legend" pointer-events="all" transform="translate(80,76.00000000000001)"><rect class="bg" shape-rendering="crispEdges" width="541" height="67" x="0" y="0" style="stroke: rgb(68, 68, 68); stroke-opacity: 1; fill: rgb(255, 255, 255); fill-opacity: 1; stroke-width: 0px;"/><g class="scrollbox" transform="" clip-path="url(#legendd3a3e7)"><g class="groups"><g class="traces" transform="translate(0,14.5)" style="opacity: 1;"><text class="legendtext" text-anchor="start" x="40" y="4.680000000000001" style="font-family: 'Open Sans', verdana, arial, sans-serif; font-size: 12px; fill: rgb(68, 68, 68); fill-opacity: 1; white-space: pre;">Fixed clip</text><g class="layers" style="opacity: 1;"><g class="legendfill"/><g class="legendlines"><path class="js-line" d="M5,0h30" style="fill: none; stroke: rgb(31, 119, 180); stroke-opacity: 1; stroke-width: 2px;"/></g><g class="legendsymbols"><g class="legendpoints"/></g></g><rect class="legendtoggle" x="0" y="-9.5" width="98.296875" height="19" style="fill: rgb(0, 0, 0); fill-opacity: 0;"/></g><g class="traces" transform="translate(180.328125,14.5)" style="opacity: 1;"><text class="legendtext" text-anchor="start" x="40" y="4.680000000000001" style="font-family: 'Open Sans', verdana, arial, sans-serif; font-size: 12px; fill: rgb(68, 68, 68); fill-opacity: 1; white-space: pre;">Median</text><g class="layers" style="opacity: 1;"><g class="legendfill"/><g class="legendlines"><path class="js-line" d="M5,0h30" style="fill: none; stroke: rgb(255, 127, 14); stroke-opacity: 1; stroke-width: 2px;"/></g><g class="legendsymbols"><g class="legendpoints"/></g></g><rect class="legendtoggle" x="0" y="-9.5" width="86.15625" height="19" style="fill: rgb(0, 0, 0); fill-opacity: 0;"/></g><g class="traces" transform="translate(360.65625,14.5)" style="opacity: 1;"><text class="legendtext" text-anchor="start" x="40" y="4.680000000000001" style="font-family: 'Open Sans', verdana, arial, sans-serif; font-size: 12px; fill: rgb(68, 68, 68); fill-opacity: 1; white-space: pre;">Punish updates</text><g class="layers" style="opacity: 1;"><g class="legendfill"/><g class="legendlines"><path class="js-line" d="M5,0h30" style="fill: none; stroke: rgb(44, 160, 44); stroke-opacity: 1; stroke-width: 2px;"/></g><g class="legendsymbols"><g class="legendpoints"/></g></g><rect class="legendtoggle" x="0" y="-9.5" width="134.28125" height="19" style="fill: rgb(0, 0, 0); fill-opacity: 0;"/></g><g class="traces" transform="translate(0,33.5)" style="opacity: 1;"><text class="legendtext" text-anchor="start" x="40" y="4.680000000000001" style="font-family: 'Open Sans', verdana, arial, sans-serif; font-size: 12px; fill: rgb(68, 68, 68); fill-opacity: 1; white-space: pre;">Simple average</text><g class="layers" style="opacity: 1;"><g class="legendfill"/><g class="legendlines"><path class="js-line" d="M5,0h30" style="fill: none; stroke: rgb(214, 39, 40); stroke-opacity: 1; stroke-width: 2px;"/></g><g class="legendsymbols"><g class="legendpoints"/></g></g><rect class="legendtoggle" x="0" y="-9.5" width="136.421875" height="19" style="fill: rgb(0, 0, 0); fill-opacity: 0;"/></g><g class="traces" transform="translate(180.328125,33.5)" style="opacity: 1;"><text class="legendtext" text-anchor="start" x="40" y="4.680000000000001" style="font-family: 'Open Sans', verdana, arial, sans-serif; font-size: 12px; fill: rgb(68, 68, 68); fill-opacity: 1; white-space: pre;">Dynamic clip</text><g class="layers" style="opacity: 1;"><g class="legendfill"/><g class="legendlines"><path class="js-line" d="M5,0h30" style="fill: none; stroke: rgb(148, 103, 189); stroke-opacity: 1; stroke-width: 2px;"/></g><g class="legendsymbols"><g class="legendpoints"/></g></g><rect class="legendtoggle" x="0" y="-9.5" width="120.125" height="19" style="fill: rgb(0, 0, 0); fill-opacity: 0;"/></g><g class="traces" transform="translate(360.65625,33.5)" style="opacity: 1;"><text class="legendtext" text-anchor="start" x="40" y="4.680000000000001" style="font-family: 'Open Sans', verdana, arial, sans-serif; font-size: 12px; fill: rgb(68, 68, 68); fill-opacity: 1; white-space: pre;">Performance weighted</text><g class="layers" style="opacity: 1;"><g class="legendfill"/><g class="legendlines"><path class="js-line" d="M5,0h30" style="fill: none; stroke: rgb(140, 86, 75); stroke-opacity: 1; stroke-width: 2px;"/></g><g class="legendsymbols"><g class="legendpoints"/></g></g><rect class="legendtoggle" x="0" y="-9.5" width="177.828125" height="19" style="fill: rgb(0, 0, 0); fill-opacity: 0;"/></g><g class="traces" transform="translate(0,52.5)" style="opacity: 1;"><text class="legendtext" text-anchor="start" x="40" y="4.680000000000001" style="font-family: 'Open Sans', verdana, arial, sans-serif; font-size: 12px; fill: rgb(68, 68, 68); fill-opacity: 1; white-space: pre;">Receny weighted</text><g class="layers" style="opacity: 1;"><g class="legendfill"/><g class="legendlines"><path class="js-line" d="M5,0h30" style="fill: none; stroke: rgb(227, 119, 194); stroke-opacity: 1; stroke-width: 2px;"/></g><g class="legendsymbols"><g class="legendpoints"/></g></g><rect class="legendtoggle" x="0" y="-9.5" width="145.65625" height="19" style="fill: rgb(0, 0, 0); fill-opacity: 0;"/></g><g class="traces" transform="translate(180.328125,52.5)" style="opacity: 1;"><text class="legendtext" text-anchor="start" x="40" y="4.680000000000001" style="font-family: 'Open Sans', verdana, arial, sans-serif; font-size: 12px; fill: rgb(68, 68, 68); fill-opacity: 1; white-space: pre;">No FL</text><g class="layers" style="opacity: 1;"><g class="legendfill"/><g class="legendlines"><path class="js-line" d="M5,0h30" style="fill: none; stroke: rgb(127, 127, 127); stroke-opacity: 1; stroke-width: 2px;"/></g><g class="legendsymbols"><g class="legendpoints"/></g></g><rect class="legendtoggle" x="0" y="-9.5" width="76.546875" height="19" style="fill: rgb(0, 0, 0); fill-opacity: 0;"/></g></g></g><rect class="scrollbar" rx="20" ry="3" width="0" height="0" x="0" y="0" style="fill: rgb(128, 139, 164); fill-opacity: 1;"/></g><g class="g-gtitle"><text class="gtitle" x="400" y="75" text-anchor="middle" dy="0em" style="font-family: 'Open Sans', verdana, arial, sans-serif; font-size: 17px; fill: rgb(68, 68, 68); opacity: 1; font-weight: normal; white-space: pre;">Accuracy score by FL method for 4 nodes</text></g><g class="g-xtitle"><text class="xtitle" x="435" y="572" text-anchor="middle" style="font-family: 'Open Sans', verdana, arial, sans-serif; font-size: 14px; fill: rgb(68, 68, 68); opacity: 1; font-weight: normal; white-space: pre;">Data generation iteration</text></g><g class="g-ytitle"><text class="ytitle" transform="rotate(-90,42,335)" x="42" y="335" text-anchor="middle" style="font-family: 'Open Sans', verdana, arial, sans-serif; font-size: 14px; fill: rgb(68, 68, 68); opacity: 1; font-weight: normal; white-space: pre;">Accuracy score</text></g></g></svg>