<svg class="main-svg" xmlns="http://www.w3.org/2000/svg" xmlns:xlink="http://www.w3.org/1999/xlink" width="800" height="600" style="" viewBox="0 0 800 600"><rect x="0" y="0" width="800" height="600" style="fill: rgb(255, 255, 255); fill-opacity: 1;"/><defs id="defs-388fd1"><g class="clips"><clipPath id="clip388fd1xyplot" class="plotclip"><rect width="710" height="370"/></clipPath><clipPath class="axesclip" id="clip388fd1x"><rect x="80" y="0" width="710" height="600"/></clipPath><clipPath class="axesclip" id="clip388fd1y"><rect x="0" y="150" width="800" height="370"/></clipPath><clipPath class="axesclip" id="clip388fd1xy"><rect x="80" y="150" width="710" height="370"/></clipPath></g><g class="gradients"/><g class="patterns"/></defs><g class="bglayer"/><g class="layer-below"><g class="imagelayer"/><g class="shapelayer"/></g><g class="cartesianlayer"><g class="subplot xy"><g class="layer-subplot"><g class="shapelayer"/><g class="imagelayer"/></g><g class="minor-gridlayer"><g class="x"/><g class="y"/></g><g class="gridlayer"><g class="x"><path class="xgrid crisp" transform="translate(222.28,0)" d="M0,150v370" style="stroke: rgb(238, 238, 238); stroke-opacity: 1; stroke-width: 1px;"/><path class="xgrid crisp" transform="translate(364.57,0)" d="M0,150v370" style="stroke: rgb(238, 238, 238); stroke-opacity: 1; stroke-width: 1px;"/><path class="xgrid crisp" transform="translate(506.85,0)" d="M0,150v370" style="stroke: rgb(238, 238, 238); stroke-opacity: 1; stroke-width: 1px;"/><path class="xgrid crisp" transform="translate(649.14,0)" d="M0,150v370" style="stroke: rgb(238, 238, 238); stroke-opacity: 1; stroke-width: 1px;"/></g><g class="y"><path class="ygrid crisp" transform="translate(0,501.5)" d="M80,0h710" style="stroke: rgb(238, 238, 238); stroke-opacity: 1; stroke-width: 1px;"/><path class="ygrid crisp" transform="translate(0,455.46)" d="M80,0h710" style="stroke: rgb(238, 238, 238); stroke-opacity: 1; stroke-width: 1px;"/><path class="ygrid crisp" transform="translate(0,409.43)" d="M80,0h710" style="stroke: rgb(238, 238, 238); stroke-opacity: 1; stroke-width: 1px;"/><path class="ygrid crisp" transform="translate(0,363.39)" d="M80,0h710" style="stroke: rgb(238, 238, 238); stroke-opacity: 1; stroke-width: 1px;"/><path class="ygrid crisp" transform="translate(0,317.35)" d="M80,0h710" style="stroke: rgb(238, 238, 238); stroke-opacity: 1; stroke-width: 1px;"/><path class="ygrid crisp" transform="translate(0,271.32)" d="M80,0h710" style="stroke: rgb(238, 238, 238); stroke-opacity: 1; stroke-width: 1px;"/><path class="ygrid crisp" transform="translate(0,225.28)" d="M80,0h710" style="stroke: rgb(238, 238, 238); stroke-opacity: 1; stroke-width: 1px;"/><path class="ygrid crisp" transform="translate(0,179.24)" d="M80,0h710" style="stroke: rgb(238, 238, 238); stroke-opacity: 1; stroke-width: 1px;"/></g></g><g class="zerolinelayer"><path class="xzl zl crisp" transform="translate(80,0)" d="M0,150v370" style="stroke: rgb(68, 68, 68); stroke-opacity: 1; stroke-width: 1px;"/></g><path class="xlines-below"/><path class="ylines-below"/><g class="overlines-below"/><g class="xaxislayer-below"/><g class="yaxislayer-below"/><g class="overaxes-below"/><g class="plot" transform="translate(80,150)" clip-path="url(#clip388fd1xyplot)"><g class="scatterlayer mlayer"><g class="trace scatter trace775950" style="stroke-miterlimit: 2; opacity: 1;"><g class="fills"/><g class="errorbars"/><g class="lines"><path class="js-line" d="M0,82.8L1.42,82.18L2.13,84.49L2.85,83.41L3.56,85.41L4.98,88.02L5.69,87.71L7.83,103.36L8.54,102.29L10.67,131.44L11.38,234.57L12.09,235.49L12.81,241.63L13.52,240.24L14.23,248.22L15.65,257.12L16.36,258.35L17.79,257.12L18.5,256.97L19.21,257.43L19.92,255.59L20.63,258.97L21.34,257.74L22.05,258.05L22.77,267.25L23.48,351.5L24.19,268.48L24.9,270.48L25.61,267.56L27.03,270.63L27.75,271.7L28.46,270.48L29.17,267.71L29.88,269.55L30.59,274L31.3,272.78L32.01,278.61L33.44,280.6L34.15,279.53L34.86,287.97L35.57,286.59L36.28,288.89L36.99,286.59L38.42,288.12L39.13,287.51L39.84,297.94L40.55,296.72L41.26,297.64L41.97,297.02L42.69,295.34L43.4,296.41L44.11,297.02L44.82,294.87L45.53,216.92L46.24,264.64L47.67,271.24L48.38,271.4L49.09,272.78L49.8,272.16L50.51,272.47L51.22,195.13L51.93,192.98L52.65,193.59L53.36,197.28L54.07,196.66L54.78,196.97L55.49,198.96L56.2,200.35L56.91,203.57L57.63,209.4L58.34,208.33L59.05,218.3L59.76,274.77L64.03,274.77L64.74,190.83L65.45,190.83L66.16,193.59L66.87,189.6L67.59,192.37L68.3,188.99L69.01,192.37L71.85,193.13L72.57,193.9L74.7,195.74L75.41,195.59L76.83,197.12L77.55,198.04L78.26,198.5L78.97,197.89L80.39,198.66L81.1,199.42L82.53,199.58L83.24,201.57L83.95,201.42L84.66,206.48L85.37,205.87L86.08,207.25L87.51,205.72L88.22,216.61L88.93,223.52L89.64,274.77L93.91,274.77L94.62,199.73L95.33,199.42L96.04,200.04L96.75,198.96L97.46,200.35L98.89,199.27L99.6,196.66L100.31,198.2L101.02,197.89L101.73,199.89L102.44,199.27L103.87,196.66L104.58,197.74L105.29,196.82L106,198.2L108.85,195.13L109.56,195.74L110.27,195.59L110.98,196.82L112.4,195.59L113.12,197.12L115.25,197.43L115.96,195.74L118.1,194.51L118.81,195.44L119.52,197.28L120.23,195.28L120.94,195.9L121.65,194.51L122.36,195.9L123.08,195.28L123.79,196.82L124.5,193.75L125.21,196.66L125.92,193.75L126.63,198.81L127.34,209.4L128.77,208.17L129.48,238.86L130.9,273.54L131.61,273.24L132.32,273.54L133.04,271.4L134.46,274L135.17,194.05L136.59,199.42L137.3,198.5L138.02,200.5L138.73,207.56L139.44,207.71L140.15,217.38L140.86,221.68L141.57,272.16L142.28,272.93L143,270.63L145.13,272.16L145.84,271.7L146.55,271.4L147.26,272.47L147.98,272.01L148.69,255.9L150.11,271.55L150.82,271.7L152.24,270.78L152.96,271.09L153.67,271.24L154.38,270.48L155.8,271.24L156.51,271.24L157.22,272.16L157.94,270.63L158.65,269.71L159.36,270.32L160.07,269.25L160.78,270.78L162.2,270.32L162.92,269.71L165.05,266.95L165.76,268.48L166.47,267.71L167.18,269.4L169.32,265.87L170.03,266.33L170.74,266.95L171.45,264.8L172.16,260.96L172.88,261.88L174.3,262.5L175.01,260.96L175.72,262.65L176.43,262.04L177.86,190.37L178.57,191.29L179.28,192.67L179.99,191.6L180.7,190.37L181.41,191.6L182.12,190.68L182.84,191.14L184.26,197.28L184.97,198.81L187.1,201.57L187.82,202.03L188.53,201.11L189.24,201.88L189.95,200.19L190.66,200.5L191.37,204.34L192.08,201.88L192.8,198.5L193.51,200.5L194.22,197.74L194.93,199.73L196.35,199.42L197.06,200.81L198.49,199.42L199.2,198.81L200.62,198.5L201.33,200.65L202.04,200.65L202.76,198.96L203.47,200.65L204.18,198.81L204.89,197.43L205.6,198.66L207.02,197.43L207.74,197.58L208.45,195.74L209.16,197.74L209.87,196.51L210.58,199.58L212,196.2L212.72,196.97L214.14,196.36L214.85,197.28L215.56,196.05L216.27,197.43L216.98,197.58L217.7,196.2L219.12,195.44L219.83,196.82L220.54,197.28L221.25,194.97L222.68,195.44L223.39,198.04L224.81,195.59L225.52,196.82L226.23,211.85L226.94,209.55L227.66,209.09L228.37,206.02L229.79,267.87L230.5,267.56L231.21,268.63L231.92,267.1L232.64,268.33L233.35,267.1L234.77,267.1L235.48,188.99L236.9,188.07L237.62,188.99L238.33,187.15L239.04,188.99L239.75,188.68L240.46,187.46L241.17,187.76L241.88,189.76L242.6,188.84L243.31,190.06L244.73,192.21L245.44,191.45L246.15,190.52L246.86,192.06L247.58,191.45L248.29,192.83L249,192.98L249.71,191.6L250.42,192.83L251.13,191.75L251.84,192.21L252.56,190.98L253.27,191.91L253.98,190.83L254.69,192.98L255.4,192.37L256.82,189.6L257.54,190.22L258.96,191.14L259.67,188.68L262.52,194.21L263.23,191.75L265.36,202.03L266.07,196.36L266.78,198.04L267.49,212.93L268.21,208.33L268.92,228.43L270.34,266.02L271.05,266.33L273.19,274.46L273.9,222.29L274.61,223.98L275.32,231.19L276.03,230.42L276.74,233.19L277.45,230.58L278.17,232.88L279.59,229.2L280.3,234.87L281.01,231.65L281.72,241.63L282.43,243.01L283.15,251.91L284.57,274.77L285.28,274.77L286.7,192.98L287.41,190.83L288.84,193.59L289.55,192.21L291.68,190.06L292.39,190.98L293.11,190.68L293.82,193.44L295.95,190.22L296.66,191.75L297.37,191.14L298.09,193.75L299.51,191.45L300.22,191.75L302.35,189.91L303.07,190.68L304.49,192.37L305.2,190.98L305.91,193.59L306.62,191.6L308.05,189.45L308.76,193.29L309.47,190.83L310.18,191.75L310.89,192.67L311.6,191.45L312.31,192.83L313.03,191.29L313.74,191.6L314.45,190.68L315.16,189.91L315.87,192.52L317.29,196.2L318.01,194.21L319.43,197.58L320.14,201.73L322.27,200.5L322.99,212.78L323.7,210.01L324.41,210.32L325.83,238.25L326.54,274.77L327.97,274.77L328.68,205.72L331.52,205.1L332.23,205.26L332.95,204.18L333.66,205.72L335.08,203.88L335.79,205.72L337.21,203.41L337.93,202.34L338.64,205.41L339.35,202.8L340.06,204.34L340.77,202.03L341.48,202.34L342.19,200.5L344.33,202.65L345.04,200.04L345.75,202.34L346.46,201.42L347.17,200.19L347.89,200.65L349.31,200.65L350.02,197.74L350.73,200.65L351.44,199.73L352.15,200.5L352.87,199.27L355,200.81L355.71,199.73L356.42,198.66L357.13,201.88L357.85,198.66L358.56,200.65L359.98,215.54L360.69,216.77L362.11,276.15L362.83,274L363.54,199.27L364.25,200.5L364.96,198.81L366.38,196.66L367.09,197.58L367.81,197.12L368.52,197.89L369.94,200.19L370.65,197.28L371.36,199.27L372.07,198.5L374.21,198.5L374.92,197.28L375.63,210.17L376.34,209.09L377.77,211.09L378.48,210.93L380.61,273.7L381.32,275.39L382.03,273.08L382.75,274.16L383.46,273.08L384.17,273.54L385.59,271.09L386.3,270.94L387.01,272.62L387.73,270.78L388.44,269.86L389.15,271.09L389.86,268.79L390.57,271.24L392.71,268.48L393.42,268.48L394.13,269.25L394.84,267.56L395.55,266.95L396.26,193.44L396.97,191.91L397.69,192.21L398.4,193.29L399.11,192.98L400.53,193.75L401.24,195.13L401.95,196.2L402.67,195.59L403.38,196.2L404.09,195.74L404.8,195.74L405.51,194.51L406.22,195.28L406.93,197.28L408.36,196.51L409.07,199.89L409.78,199.12L410.49,195.74L411.2,202.19L411.91,200.5L413.34,212.01L414.05,211.09L414.76,210.47L415.47,219.07L416.18,218.45L416.89,221.68L418.32,218.61L419.03,230.73L420.45,276.61L421.16,274.93L421.87,276.15L422.59,275.85L423.3,276.15L424.01,275.23L425.43,276L426.14,275.23L426.85,275.23L427.57,276.46L428.28,275.54L428.99,276.31L430.41,275.39L431.12,276.61L431.83,186.99L432.55,187.15L433.26,195.74L433.97,198.04L434.68,196.66L436.1,199.12L436.81,198.5L437.53,198.5L438.24,199.73L439.66,198.35L440.37,198.96L441.79,197.43L442.51,198.96L444.64,197.43L445.35,198.2L448.91,197.74L449.62,198.2L452.46,197.28L453.18,198.04L453.89,197.28L454.6,198.5L456.02,197.12L456.73,197.43L457.44,196.36L458.16,198.04L458.87,198.04L459.58,196.66L462.42,196.97L463.14,196.66L464.56,197.28L465.27,197.43L466.69,195.59L467.4,196.82L470.25,196.51L470.96,195.9L472.38,196.51L473.1,195.28L474.52,195.59L475.23,196.05L475.94,194.82L476.65,195.13L478.79,194.51L479.5,195.28L480.21,193.59L480.92,194.67L483.77,194.21L484.48,193.75L485.19,194.67L485.9,194.05L488.04,194.97L488.75,194.36L489.46,194.67L490.17,193.75L490.88,194.36L491.59,193.44L492.3,194.67L493.02,193.75L493.73,195.28L494.44,194.05L495.15,195.13L495.86,194.05L496.57,194.21L497.28,192.67L498.71,193.59L499.42,192.98L500.84,194.51L501.55,192.67L502.98,194.67L503.69,192.98L504.4,193.59L505.11,192.98L505.82,192.21L506.53,193.59L507.24,191.75L507.96,192.06L509.38,188.68L510.09,187.76L510.8,189.45L511.51,189.14L512.22,190.52L512.94,190.06L513.65,188.07L514.36,190.06L515.07,262.34L515.78,262.19L516.49,261.73L517.2,260.96L517.92,262.34L518.63,262.8L519.34,261.73L520.05,264.03L520.76,262.34L522.9,265.1L523.61,264.95L524.32,265.72L525.03,263.88L526.45,264.8L527.16,268.02L527.88,267.25L528.59,268.02L529.3,268.33L530.01,270.48L532.14,273.85L532.86,273.85L533.57,273.39L534.28,274.31L535.7,274L536.41,274L537.84,273.54L538.55,273.7L539.97,274.46L540.68,274.77L541.39,274.31L542.1,274.77L549.93,274.77L550.64,274L552.06,274.77L552.78,274.77L574.12,274.77L574.83,263.42L576.25,274.77L576.96,274.77L577.68,274.77L578.39,269.25L579.81,274.77L580.52,274.77L581.23,274.77L581.94,138.96L582.66,142.49L583.37,141.26L584.08,141.11L584.79,142.65L586.92,147.56L587.64,152.47L589.06,159.83L589.77,159.53L591.19,158.45L591.9,166.28L592.62,167.2L593.33,164.13L594.75,174.72L595.46,175.64L596.88,175.49L597.6,186.23L598.31,233.34L599.02,232.42L599.73,240.09L600.44,247.61L601.15,265.87L602.58,283.83L603.29,282.44L604.71,283.67L605.42,282.14L606.13,281.22L606.84,283.06L608.27,319.73L608.98,317.43L611.11,351.5L611.82,270.94L612.54,269.55L613.25,270.94L613.96,271.24L614.67,270.32L615.38,270.48L616.09,267.25L616.8,268.94L617.52,268.33L618.94,268.79L619.65,266.79L621.07,263.88L621.78,264.18L623.21,262.8L623.92,230.27L624.63,230.42L625.34,232.11L626.76,251.91L627.47,264.34L628.19,263.88L628.9,264.49L629.61,264.34L630.32,272.93L631.74,220.6L632.45,218.61L634.59,210.78L635.3,213.39L636.01,215.54L636.72,211.7L638.15,212.47L638.86,210.47L639.57,211.55L640.28,210.93L640.99,210.17L641.7,212.93L643.13,209.25L643.84,209.25L645.26,212.01L645.97,202.19L646.68,203.41L647.39,201.57L648.82,204.49L649.53,202.65L650.24,201.88L650.95,202.95L651.66,202.95L652.37,200.65L653.09,206.18L653.8,201.11L654.51,203.11L655.22,208.02L656.64,204.8L657.35,205.41L658.07,204.03L658.78,206.33L659.49,205.56L660.2,206.94L660.91,208.17L661.62,207.56L662.33,208.02L663.05,204.8L663.76,203.41L664.47,204.34L665.18,202.65L665.89,204.34L666.6,205.41L667.31,202.19L669.45,198.2L670.16,198.81L671.58,198.66L672.29,198.2L674.43,198.81L675.14,198.96L676.56,198.35L677.27,198.2L680.12,198.5L680.83,198.04L710,198.04" style="vector-effect: none; fill: none; stroke: rgb(31, 119, 180); stroke-opacity: 1; stroke-width: 2px; opacity: 1;"/></g><g class="points"/><g class="text"/></g><g class="trace scatter trace2b1ac2" style="stroke-miterlimit: 2; opacity: 1;"><g class="fills"/><g class="errorbars"/><g class="lines"><path class="js-line" d="M0,77.12L0.71,73.74L1.42,75.43L2.13,77.27L2.85,75.59L4.27,77.43L4.98,80.19L5.69,82.64L6.4,88.63L9.25,112.42L9.96,111.8L10.67,112.26L11.38,122.08L12.81,147.25L13.52,117.63L14.94,119.78L15.65,119.17L17.07,130.83L17.79,129.91L19.21,149.4L19.92,104.59L21.34,124.08L22.05,85.56L22.77,84.33L23.48,87.09L27.03,103.51L27.75,111.03L28.46,111.95L29.17,119.63L29.88,119.17L30.59,132.06L31.3,87.71L32.01,91.24L32.73,99.06L33.44,98.14L34.86,102.9L35.57,101.83L36.99,116.71L37.71,131.75L38.42,135.59L39.13,143.87L41.26,162.75L41.97,123.46L42.69,123.92L43.4,129.14L44.82,142.19L45.53,156.15L46.24,106.43L46.95,108.43L47.67,109.19L49.09,117.63L49.8,116.87L50.51,117.79L51.22,120.09L51.93,120.55L52.65,123.31L54.07,139.12L54.78,154.16L55.49,154.77L56.2,152.93L56.91,153.85L57.63,159.83L58.34,157.38L59.05,162.29L59.76,160.45L60.47,171.96L61.18,172.42L61.89,174.72L64.03,178.86L64.74,176.87L65.45,177.48L66.16,181.32L66.87,178.71L67.59,182.08L68.3,177.63L69.01,180.09L71.85,191.14L72.57,201.73L73.99,159.07L74.7,158.61L76.12,156.46L76.83,159.68L77.55,159.07L78.26,160.14L78.97,165.05L79.68,161.98L80.39,163.06L81.1,165.66L81.81,166.12L82.53,163.82L83.24,164.59L83.95,163.82L86.08,172.88L86.79,172.72L88.93,177.48L89.64,175.79L90.35,174.72L91.06,175.79L92.48,175.03L93.2,179.32L94.62,174.56L95.33,173.03L96.75,164.28L97.46,162.75L98.89,175.95L99.6,137.89L100.31,137.28L101.02,133.9L101.73,134.67L102.44,132.36L103.16,138.04L103.87,137.43L104.58,134.51L105.29,136.35L108.14,127.3L108.85,129.14L109.56,128.53L110.27,124.69L110.98,129.91L111.69,128.53L112.4,129.3L113.12,125.61L114.54,131.9L115.25,130.37L115.96,131.6L116.67,127.45L118.1,129.6L118.81,130.06L119.52,134.97L120.23,133.59L120.94,133.9L121.65,132.67L122.36,132.82L123.08,131.14L123.79,131.9L124.5,129.91L125.21,130.98L125.92,136.05L126.63,135.59L127.34,133.29L128.06,142.65L128.77,141.11L130.19,137.58L130.9,146.79L132.32,146.64L133.04,160.6L134.46,165.82L135.17,166.28L135.88,167.05L136.59,166.28L137.3,168.12L138.02,166.43L140.15,158.76L140.86,159.37L141.57,159.99L142.28,158.91L143.71,165.66L144.42,170.11L145.13,172.26L145.84,169.5L146.55,171.19L147.26,170.42L147.98,170.88L148.69,169.65L149.4,168.58L150.11,169.5L151.53,170.27L152.24,168.12L155.09,171.5L155.8,173.18L157.22,174.26L157.94,177.63L158.65,176.1L159.36,183.62L160.78,181.62L161.49,182.54L162.2,183.31L162.92,182.54L164.34,185.61L165.05,191.14L165.76,192.06L166.47,190.22L167.18,189.3L167.9,190.37L168.61,187.92L169.32,198.66L170.74,222.29L171.45,220.14L172.16,219.68L172.88,229.2L174.3,223.06L175.01,233.19L175.72,234.72L176.43,234.41L177.86,235.03L178.57,232.72L179.28,243.93L179.99,239.02L181.41,242.7L182.12,242.09L182.84,242.24L183.55,247.76L184.26,245.15L184.97,245.92L186.39,246.23L187.1,245.62L188.53,247.61L189.24,243.77L189.95,241.32L190.66,242.85L191.37,242.7L192.08,243.62L193.51,238.86L194.22,239.78L194.93,240.09L195.64,239.17L196.35,242.55L197.06,238.86L197.78,240.24L198.49,239.48L201.33,234.57L202.04,233.65L203.47,231.5L204.18,234.26L204.89,230.73L205.6,232.11L206.31,231.96L207.02,230.88L209.16,225.82L209.87,223.98L210.58,223.21L211.29,226.43L212.72,222.29L213.43,225.21L214.14,224.44L214.85,224.9L215.56,223.21L216.27,224.75L216.98,225.67L217.7,224.59L219.12,229.2L219.83,228.74L221.96,229.04L222.68,230.73L224.1,237.02L224.81,243.16L225.52,246.23L226.23,244.85L226.94,248.84L227.66,148.32L228.37,152.31L229.08,149.71L229.79,150.32L230.5,149.86L231.92,152.77L232.64,150.01L233.35,149.24L234.06,153.69L235.48,150.63L236.19,150.63L236.9,149.4L237.62,149.86L238.33,150.93L239.04,149.71L240.46,149.55L241.17,150.78L242.6,152.16L243.31,151.24L244.73,152.62L245.44,152.16L246.15,152.31L246.86,149.4L247.58,150.63L248.29,155.69L249,155.23L249.71,158.91L250.42,159.53L251.13,167.51L253.27,199.27L253.98,144.49L255.4,149.86L256.11,156.15L257.54,165.82L258.25,165.51L259.67,184.23L260.38,184.08L261.09,184.39L261.8,184.85L262.52,195.74L263.23,145.1L263.94,152.77L265.36,150.63L266.07,156L266.78,155.08L267.49,155.54L268.21,156.61L268.92,154L270.34,154.46L271.05,150.47L272.47,162.14L273.19,159.53L273.9,161.67L274.61,161.37L275.32,158.91L276.03,159.99L278.17,181.16L278.88,141.88L279.59,141.42L280.3,136.97L281.72,139.73L282.43,138.81L283.15,144.49L283.86,141.42L285.99,165.51L286.7,174.87L287.41,184.23L288.13,133.59L288.84,132.52L289.55,132.82L290.26,131.14L290.97,132.98L291.68,129.3L292.39,130.22L293.11,130.83L293.82,139.12L294.53,143.72L295.24,142.8L295.95,142.03L296.66,150.17L298.8,167.81L299.51,126.69L300.22,126.23L300.93,123.92L301.64,125.92L302.35,125.61L303.07,130.83L303.78,127.76L304.49,129.76L305.2,134.82L305.91,133.59L306.62,139.12L307.33,140.19L308.05,146.33L308.76,145.72L309.47,143.87L310.18,147.86L310.89,144.03L312.31,145.41L313.03,144.64L315.16,158.3L315.87,127.91L316.58,124.23L317.29,129.76L318.72,127.61L319.43,129.3L320.14,129.76L320.85,134.51L322.27,134.21L322.99,135.89L323.7,133.44L324.41,141.88L325.12,141.26L325.83,139.42L327.97,160.75L328.68,124.08L329.39,125.46L330.1,125.15L330.81,122.7L331.52,125.15L332.23,123.16L332.95,124.54L334.37,130.52L335.08,130.06L335.79,134.51L336.5,131.6L337.21,129.14L337.93,130.22L339.35,136.66L340.06,140.96L340.77,144.64L341.48,154.77L342.19,122.85L342.91,124.69L343.62,124.38L344.33,122.7L346.46,126.84L347.17,129.3L348.6,125.92L349.31,125.61L351.44,138.35L352.15,145.72L352.87,146.79L353.58,156.92L355,118.86L355.71,119.32L356.42,117.33L357.13,119.01L357.85,118.86L358.56,120.24L359.27,119.17L359.98,119.78L361.4,120.7L362.11,125.46L362.83,129.3L363.54,126.53L365.67,136.97L366.38,136.97L367.09,136.35L367.81,143.11L368.52,143.26L369.23,153.39L369.94,115.02L370.65,115.64L371.36,112.11L372.07,108.58L372.79,113.49L373.5,109.5L374.21,111.65L374.92,110.11L375.63,111.65L376.34,110.11L377.05,115.18L377.77,115.33L378.48,113.8L379.19,113.49L379.9,121.16L380.61,119.32L381.32,125.61L382.03,123.77L382.75,132.21L383.46,134.21L384.17,141.57L384.88,153.08L385.59,111.03L386.3,111.19L387.01,109.5L387.73,109.35L388.44,110.42L389.15,113.49L389.86,110.57L390.57,112.57L391.28,117.17L391.99,127.3L392.71,126.38L393.42,129.3L394.13,128.68L395.55,138.35L396.26,104.13L396.97,98.91L397.69,101.67L398.4,98.14L399.11,98.45L399.82,96.92L400.53,93.54L401.24,96L401.95,94.61L402.67,90.16L403.38,91.08L404.09,90.16L404.8,93.85L406.93,103.67L407.65,112.26L409.07,131.75L409.78,132.06L410.49,130.22L411.2,142.03L411.91,153.39L412.63,108.12L414.05,108.89L414.76,107.96L415.47,108.12L416.18,107.35L416.89,108.12L417.61,110.73L418.32,110.27L419.03,112.11L420.45,111.95L421.16,112.88L421.87,115.48L422.59,114.26L424.01,116.41L424.72,113.95L425.43,116.41L426.14,115.64L426.85,116.87L427.57,115.33L428.28,121.78L428.99,120.39L429.7,122.54L430.41,127.3L431.12,134.51L431.83,132.52L432.55,135.13L433.26,144.49L433.97,144.03L434.68,145.41L436.1,170.88L436.81,172.42L437.53,170.88L438.24,176.25L439.66,181.16L440.37,180.4L441.79,187.61L442.51,187.46L443.22,189.3L443.93,187.76L444.64,187.76L445.35,189.76L446.06,189.76L446.77,188.53L448.2,191.75L448.91,188.99L451.04,192.21L451.75,192.21L452.46,191.75L453.18,198.2L454.6,194.82L455.31,196.66L456.73,202.19L457.44,201.57L458.16,209.25L458.87,208.79L459.58,209.86L460.29,209.86L461,209.09L461.71,209.55L462.42,206.94L463.85,220.91L464.56,220.6L465.27,219.53L465.98,221.22L468.12,231.19L468.83,227.2L469.54,225.05L470.25,228.43L471.67,221.52L472.38,223.82L473.1,223.21L473.81,224.75L474.52,223.67L475.23,232.11L475.94,237.64L476.65,132.52L477.36,132.82L478.08,135.13L479.5,138.2L480.21,141.88L481.63,127.91L482.34,130.83L483.77,141.73L484.48,138.04L485.19,137.12L485.9,139.88L486.61,137.58L487.32,140.5L488.04,135.13L488.75,147.25L489.46,142.95L490.17,145.41L491.59,149.4L492.3,111.03L493.02,109.04L493.73,110.88L494.44,110.42L495.15,111.19L496.57,111.34L497.28,109.81L498.71,107.96L499.42,104.28L500.13,109.04L500.84,104.9L501.55,107.81L502.26,104.9L503.69,104.74L504.4,102.44L505.11,101.67L505.82,105.51L506.53,112.26L507.24,111.8L509.38,130.68L510.09,146.18L511.51,123.92L512.22,126.69L512.94,126.69L513.65,133.44L514.36,128.68L515.07,129.14L515.78,126.38L516.49,127.91L517.2,122.54L517.92,123.31L520.05,119.63L520.76,130.06L521.47,132.06L522.18,137.12L522.9,132.67L523.61,137.58L525.74,149.86L526.45,147.56L527.16,158.3L527.88,157.68L529.3,161.21L530.01,157.84L530.72,160.45L531.43,159.53L532.86,158.45L533.57,162.14L534.28,160.29L534.99,162.9L535.7,162.75L536.41,159.37L537.12,160.45L537.84,168.89L538.55,95.69L539.26,98.6L539.97,98.14L540.68,95.07L541.39,97.84L542.82,109.5L543.53,108.58L544.24,106.28L544.95,108.58L545.66,113.18L546.37,109.96L547.08,110.88L547.8,120.55L548.51,118.25L549.22,119.93L549.93,127.45L550.64,113.8L551.35,111.34L552.06,114.1L552.78,115.64L553.49,113.34L554.91,118.25L555.62,117.94L557.04,125L557.76,133.59L558.47,135.74L559.18,143.57L559.89,142.03L560.6,156.46L562.02,168.89L562.74,169.35L563.45,166.89L564.16,176.71L565.58,184.85L566.29,102.59L567,98.6L567.72,100.14L568.43,99.22L569.14,111.8L569.85,112.26L570.56,114.41L571.27,112.72L571.98,113.49L572.7,111.65L573.41,130.98L574.12,138.35L574.83,102.59L575.54,113.8L576.25,79.88L576.96,86.48L577.68,82.8L579.81,89.4L580.52,96.46L581.23,114.87L581.94,112.26L582.66,113.49L583.37,112.72L584.79,120.09L585.5,133.59L586.92,100.6L587.64,99.83L588.35,106.43L589.06,103.67L589.77,112.11L590.48,110.73L591.19,116.41L591.9,114.87L592.62,115.94L593.33,114.26L594.04,113.64L594.75,123.31L596.17,96.92L596.88,98.3L599.73,105.2L600.44,107.66L601.15,108.58L601.86,107.5L603.29,112.57L604,110.73L604.71,117.17L605.42,117.02L606.13,130.68L607.56,145.72L608.27,112.88L608.98,110.57L609.69,115.18L611.11,139.58L611.82,91.24L613.96,95.07L614.67,98.6L617.52,112.42L618.23,112.11L618.94,119.93L619.65,117.17L620.36,135.59L621.07,93.08L623.21,108.27L623.92,110.88L624.63,115.94L625.34,131.6L626.05,105.97L626.76,108.73L628.19,127.45L628.9,83.11L630.32,84.64L631.03,83.87L631.74,86.02L632.45,83.57L633.17,81.88L633.88,91.08L637.43,102.59L638.15,102.29L638.86,101.52L639.57,104.13L640.28,112.42L640.99,109.96L641.7,107.96L642.41,114.26L643.13,114.26L643.84,117.63L644.55,120.55L645.26,129.14L646.68,99.83L647.39,98.76L648.11,97.22L648.82,101.21L649.53,101.83L650.24,99.83L650.95,99.52L651.66,105.2L653.09,103.67L653.8,113.18L654.51,114.1L655.22,113.64L655.93,114.26L656.64,113.34L657.35,128.37L658.07,81.57L658.78,80.19L659.49,80.65L660.2,79.73L660.91,84.95L663.05,86.94L663.76,86.17L664.47,85.25L665.18,90.78L666.6,103.05L667.31,99.83L668.03,101.21L668.74,99.52L670.87,127.15L671.58,93.39L673.01,93.85L673.72,98.91L674.43,98.3L675.14,102.29L675.85,100.6L676.56,112.57L677.27,109.81L677.99,113.95L678.7,117.63L679.41,133.29L680.83,94.92L681.54,100.45L682.25,99.52L682.97,110.42L685.1,130.06L685.81,88.02L687.23,93.54L687.95,91.08L689.37,93.69L690.08,100.75L691.5,102.13L692.21,119.17L693.64,132.67L694.35,132.52L695.06,109.35L695.77,109.96L696.48,108.58L698.62,109.19L699.33,108.12L700.04,107.81L700.75,112.42L701.46,110.88L702.17,111.49L703.6,112.72L704.31,121.78L705.02,124.23L705.73,90.62L706.44,89.7L707.15,91.85L707.87,90.47L708.58,92.62L710,97.99" style="vector-effect: none; fill: none; stroke: rgb(255, 127, 14); stroke-opacity: 1; stroke-width: 2px; opacity: 1;"/></g><g class="points"/><g class="text"/></g><g class="trace scatter trace4f26f6" style="stroke-miterlimit: 2; opacity: 1;"><g class="fills"/><g class="errorbars"/><g class="lines"><path class="js-line" d="M0,98.3L0.71,93.08L1.42,98.76L2.85,99.83L3.56,97.84L4.27,95.84L4.98,98.14L5.69,97.84L6.4,95.69L7.83,103.98L8.54,97.38L9.25,99.99L9.96,99.52L11.38,114.72L12.09,112.42L13.52,128.07L14.23,137.89L14.94,145.25L15.65,124.69L16.36,127.45L17.07,122.85L19.21,134.21L19.92,129.91L20.63,137.12L21.34,88.63L22.77,86.94L23.48,90.78L24.19,92.93L24.9,90.93L28.46,105.2L29.17,115.02L29.88,124.54L30.59,87.71L34.15,113.8L34.86,125.31L36.99,148.78L37.71,158.76L38.42,123.31L39.13,124.69L39.84,125.31L40.55,127.3L41.26,132.52L41.97,143.72L42.69,100.29L43.4,98.91L44.11,103.05L46.24,119.93L46.95,136.51L47.67,144.64L48.38,165.51L49.09,115.02L49.8,120.39L50.51,120.86L51.22,128.37L51.93,134.21L52.65,83.11L53.36,84.64L54.07,83.41L54.78,83.11L55.49,85.71L56.2,90.16L56.91,87.56L61.18,99.83L61.89,104.74L63.32,102.29L64.03,109.81L64.74,107.5L65.45,112.88L66.16,113.03L66.87,119.63L68.3,137.89L69.01,142.03L69.72,138.04L70.43,148.94L71.14,131.6L71.85,85.41L72.57,90.01L73.28,89.09L77.55,111.03L78.26,110.42L80.39,136.35L81.1,99.06L82.53,122.24L83.24,90.16L83.95,93.69L84.66,92.47L85.37,94.77L86.08,94.46L88.22,115.18L88.93,86.48L90.35,88.02L91.06,87.25L91.77,87.86L92.48,89.86L93.2,91.85L93.91,101.52L95.33,100.45L96.04,111.8L98.18,131.6L98.89,130.37L99.6,142.49L100.31,106.43L101.02,108.73L101.73,114.41L103.16,115.64L103.87,119.93L104.58,131.14L105.29,129.3L106,136.81L106.71,98.91L107.42,102.13L108.14,108.89L108.85,108.43L109.56,110.73L110.98,113.34L111.69,111.03L113.12,130.37L113.83,99.22L114.54,99.22L115.25,97.38L116.67,102.29L117.38,100.14L118.81,108.12L119.52,105.51L120.23,102.75L120.94,112.72L123.79,121.16L124.5,130.52L125.92,145.1L126.63,148.32L127.34,155.08L128.06,154L130.19,165.51L130.9,176.41L131.61,176.56L132.32,190.83L133.04,141.26L133.75,144.33L134.46,144.03L135.17,148.48L135.88,147.71L136.59,149.24L137.3,149.55L138.02,154.92L138.73,153.69L139.44,156.3L140.15,154L140.86,154.62L143.71,159.53L144.42,167.66L145.84,173.34L146.55,174.87L147.98,184.69L148.69,191.14L150.11,150.47L150.82,152.93L152.24,154.31L152.96,152.16L153.67,156.76L154.38,154.92L155.8,161.67L156.51,157.68L158.65,165.66L159.36,167.35L160.78,173.03L161.49,175.33L162.2,173.34L162.92,173.8L163.63,174.41L164.34,182.24L165.05,199.42L165.76,197.58L166.47,198.66L167.18,197.74L168.61,199.89L169.32,206.48L170.74,203.57L171.45,204.64L172.88,205.72L173.59,200.19L174.3,201.73L175.01,207.71L176.43,208.79L177.14,205.87L179.28,209.55L179.99,210.47L181.41,212.16L182.12,214.46L182.84,212.47L183.55,214.62L184.97,212.78L185.68,215.23L186.39,212.16L187.1,213.24L189.24,206.64L189.95,208.33L190.66,204.34L191.37,206.79L192.08,206.48L192.8,200.04L193.51,200.04L194.22,205.26L196.35,200.81L197.06,201.57L198.49,204.18L199.2,201.57L199.91,200.35L200.62,201.42L202.04,200.19L202.76,194.36L203.47,197.74L204.18,194.05L205.6,192.83L206.31,194.05L207.02,194.21L207.74,193.29L208.45,192.83L209.16,193.29L209.87,187.46L210.58,188.68L212.72,183.31L213.43,179.02L214.14,177.17L214.85,178.86L216.98,166.89L217.7,168.43L218.41,169.19L219.12,168.58L221.25,164.74L221.96,164.44L222.68,160.45L223.39,162.44L224.1,160.91L224.81,162.44L226.23,159.68L226.94,158.91L228.37,160.91L229.08,156.61L229.79,150.78L230.5,152.01L231.21,153.69L231.92,152.01L233.35,154.46L234.06,153.85L235.48,153.69L236.19,151.7L236.9,155.23L237.62,152.31L238.33,153.54L239.04,150.17L240.46,147.71L241.17,148.32L241.88,151.24L242.6,147.1L243.31,147.71L244.02,146.64L244.73,148.48L245.44,145.1L246.86,146.79L247.58,151.24L248.29,146.33L249,146.64L249.71,146.48L250.42,145.72L251.13,149.24L253.98,158.15L254.69,171.65L256.11,180.7L256.82,183.31L258.25,203.11L258.96,212.93L260.38,137.89L261.09,140.5L261.8,135.74L262.52,137.58L263.23,140.65L263.94,138.66L264.65,138.81L265.36,136.81L266.78,141.73L267.49,140.34L268.92,141.73L269.63,141.57L270.34,147.71L271.05,144.33L271.76,157.68L272.47,152.77L273.19,159.07L273.9,156.46L275.32,177.48L276.03,136.97L277.45,138.2L278.17,137.12L278.88,137.43L279.59,135.89L281.01,142.03L281.72,143.72L284.57,187.76L285.28,133.75L285.99,132.21L286.7,132.98L287.41,134.05L288.13,133.75L288.84,133.75L289.55,136.35L290.97,131.6L291.68,133.59L292.39,138.81L293.11,137.12L294.53,147.86L295.24,144.95L295.95,158.3L296.66,156.61L298.09,153.23L298.8,154.92L299.51,156.76L300.22,156L300.93,156.15L301.64,154L302.35,157.68L303.07,166.43L303.78,163.82L304.49,167.05L305.91,165.97L306.62,167.35L307.33,122.7L308.05,127.61L308.76,128.84L309.47,124.69L310.18,123.31L310.89,123.62L311.6,124.08L312.31,122.7L313.74,125.31L314.45,135.59L315.16,132.21L315.87,140.5L316.58,139.88L317.29,155.23L318.72,128.07L319.43,127.3L320.14,125L320.85,126.99L322.27,130.22L322.99,127.61L325.12,152.16L325.83,169.19L326.54,136.35L327.25,137.89L327.97,136.97L328.68,141.88L329.39,141.11L330.1,145.41L330.81,159.07L331.52,153.39L332.23,182.24L332.95,188.22L333.66,201.73L334.37,206.33L335.08,220.45L335.79,175.64L336.5,186.23L337.93,193.29L338.64,189.14L340.77,196.51L341.48,196.82L342.91,121.47L343.62,132.36L345.04,131.29L345.75,142.65L346.46,115.02L347.17,117.48L347.89,114.1L348.6,114.26L349.31,114.26L351.44,119.93L352.15,120.39L353.58,127.76L354.29,139.12L355.71,148.32L356.42,148.78L357.13,147.25L357.85,159.37L359.27,107.66L359.98,110.73L360.69,107.66L361.4,111.34L362.83,112.57L363.54,115.48L364.25,113.95L364.96,114.26L365.67,110.42L366.38,119.47L367.09,115.18L367.81,125.46L368.52,120.55L369.23,130.52L369.94,134.51L370.65,134.21L372.07,134.51L372.79,136.35L373.5,140.04L374.21,156.3L374.92,111.8L375.63,119.01L377.05,129.14L377.77,125.31L378.48,128.22L379.19,124.69L379.9,135.13L380.61,97.07L381.32,96L382.03,99.52L382.75,100.45L383.46,108.27L386.3,127.15L387.01,136.66L387.73,148.48L388.44,146.33L389.15,146.64L389.86,166.28L391.28,121.62L391.99,126.53L392.71,122.7L393.42,130.22L394.13,130.68L394.84,94L395.55,92.47L396.26,96.92L396.97,94.61L397.69,97.22L398.4,96.46L399.11,101.52L401.24,110.57L401.95,109.65L402.67,122.39L403.38,121.16L405.51,134.67L406.22,134.67L407.65,140.34L408.36,140.8L409.07,155.38L409.78,115.94L410.49,117.17L411.2,126.99L411.91,125.92L412.63,130.37L414.05,141.42L414.76,105.82L415.47,109.5L416.18,107.2L416.89,111.95L417.61,93.39L419.74,96.92L420.45,95.54L421.16,100.91L421.87,100.6L422.59,99.68L423.3,98.6L424.01,99.99L424.72,99.68L425.43,103.21L426.14,103.98L426.85,102.44L428.28,103.21L428.99,99.37L431.12,120.39L431.83,125.77L432.55,133.44L433.26,130.98L435.39,168.89L436.1,131.75L436.81,76.2L437.53,82.18L438.24,78.65L438.95,85.25L439.66,87.71L440.37,84.95L441.79,94.61L442.51,91.85L445.35,122.54L446.06,82.8L446.77,82.49L447.48,88.78L448.2,87.71L448.91,88.63L450.33,96.61L451.04,112.26L451.75,106.12L452.46,110.42L453.89,141.42L454.6,122.24L455.31,81.26L456.02,86.02L456.73,87.09L457.44,82.64L458.87,86.79L459.58,86.17L461.71,97.68L462.42,99.37L463.14,97.22L463.85,97.99L465.98,115.94L466.69,116.56L468.12,130.52L468.83,79.73L472.38,82.34L473.1,79.27L474.52,90.16L475.23,90.16L477.36,104.28L478.08,103.05L478.79,103.36L479.5,108.58L480.21,108.12L480.92,118.09L481.63,118.55L482.34,96.15L484.48,103.05L485.19,119.63L485.9,137.89L486.61,90.01L487.32,91.08L488.04,100.29L488.75,94.77L489.46,95.38L490.17,96.46L490.88,105.2L491.59,88.94L492.3,93.23L493.02,96L493.73,93.85L494.44,95.54L495.15,92.62L498,115.33L498.71,115.64L499.42,117.17L500.13,115.18L500.84,115.79L501.55,112.72L502.26,125.92L502.98,122.08L503.69,131.9L504.4,130.98L505.11,131.75L505.82,138.5L507.24,155.84L507.96,112.42L508.67,114.56L509.38,121.62L510.8,66.53L511.51,71.14L512.22,66.07L512.94,72.98L513.65,70.37L514.36,74.2L515.78,82.8L516.49,86.94L517.2,85.1L517.92,97.68L518.63,106.43L519.34,74.66L520.05,70.98L520.76,71.6L521.47,73.28L522.18,78.5L522.9,84.95L523.61,84.79L524.32,89.86L525.03,89.09L525.74,103.51L527.16,102.44L527.88,116.56L528.59,116.41L529.3,136.2L530.01,91.24L530.72,100.91L531.43,96.76L532.14,101.67L532.86,103.67L533.57,102.59L534.28,103.36L534.99,101.83L537.12,120.7L537.84,120.09L538.55,131.9L539.26,90.93L540.68,111.03L541.39,123.31L542.1,77.43L542.82,78.5L543.53,80.5L544.24,81.88L544.95,80.8L545.66,82.49L546.37,80.19L550.64,117.17L551.35,113.18L552.78,133.44L553.49,99.52L554.2,102.59L554.91,101.06L555.62,100.6L556.33,102.59L557.76,103.67L558.47,99.68L559.18,113.49L559.89,84.79L560.6,82.64L561.31,83.72L562.74,87.86L563.45,89.09L564.16,89.09L564.87,93.39L565.58,92.77L566.29,98.3L567,99.83L567.72,98.6L568.43,108.58L569.14,104.59L569.85,109.19L570.56,124.23L571.27,123.46L571.98,118.55L572.7,128.84L573.41,95.38L574.12,95.84L574.83,98.3L575.54,97.38L576.25,104.74L576.96,106.43L577.68,113.8L578.39,112.11L579.1,120.7L582.66,163.82L583.37,112.88L584.79,120.86L585.5,114.87L586.21,119.01L586.92,135.59L587.64,87.25L588.35,95.23L589.06,92.01L589.77,96.3L590.48,109.96L591.19,82.64L591.9,82.34L592.62,90.47L593.33,93.08L594.04,100.75L594.75,104.59L595.46,101.06L596.88,106.58L597.6,108.73L599.73,110.88L600.44,125L601.15,125.92L601.86,140.8L602.58,102.75L603.29,108.89L604.71,119.63L605.42,125.77L606.84,74.2L607.56,74.97L608.27,73.59L608.98,74.36L609.69,75.89L610.4,72.82L612.54,80.65L613.25,76.2L613.96,78.81L614.67,76.81L615.38,78.65L616.09,88.17L617.52,91.39L618.23,87.4L618.94,92.47L619.65,106.89L621.78,133.29L622.49,139.73L623.21,141.42L623.92,150.01L625.34,89.09L626.05,87.4L627.47,91.7L628.19,89.55L628.9,91.08L629.61,89.55L631.03,93.39L631.74,103.36L633.17,105.66L633.88,118.4L636.01,157.99L636.72,120.55L637.43,131.29L638.15,129.3L638.86,141.26L639.57,76.05L640.28,81.57L640.99,78.81L643.84,108.43L644.55,107.5L645.26,112.11L645.97,122.85L647.39,142.95L648.11,141.57L649.53,144.33L650.24,144.64L650.95,141.88L651.66,157.53L653.09,122.24L653.8,130.68L654.51,132.21L655.22,130.22L655.93,136.51L656.64,87.4L657.35,84.33L658.07,90.32L659.49,86.33L660.2,86.63L660.91,87.25L661.62,84.95L662.33,87.4L663.05,92.77L663.76,91.7L664.47,93.39L666.6,106.43L667.31,105.36L668.03,108.12L668.74,115.64L670.16,126.99L670.87,124.69L671.58,133.75L672.29,105.36L674.43,106.43L675.14,104.44L675.85,108.58L676.56,104.9L677.27,107.35L677.99,118.86L678.7,137.28L679.41,84.18L680.12,84.64L680.83,90.32L681.54,89.09L682.25,92.93L682.97,97.22L683.68,107.96L685.1,132.52L685.81,91.85L686.52,93.69L687.23,92.62L687.95,95.38L688.66,94L689.37,94.15L690.08,96.61L690.79,97.22L691.5,100.45L693.64,130.98L694.35,149.09L696.48,84.03L697.19,89.09L698.62,100.45L699.33,113.18L700.75,129.3L701.46,90.16L702.17,86.79L702.89,95.23L703.6,96.61L704.31,100.14L705.02,95.23L705.73,98.3L707.15,97.38L707.87,107.66L710,132.06" style="vector-effect: none; fill: none; stroke: rgb(44, 160, 44); stroke-opacity: 1; stroke-width: 2px; opacity: 1;"/></g><g class="points"/><g class="text"/></g><g class="trace scatter trace56d575" style="stroke-miterlimit: 2; opacity: 1;"><g class="fills"/><g class="errorbars"/><g class="lines"><path class="js-line" d="M0,90.32L0.71,86.63L1.42,94L2.13,97.99L2.85,94.77L3.56,95.84L4.27,107.81L5.69,132.67L6.4,87.4L7.11,92.01L7.83,103.82L8.54,105.82L9.25,115.48L9.96,129.3L10.67,90.47L12.09,97.38L12.81,111.49L13.52,120.55L14.23,142.49L16.36,80.5L17.07,86.79L19.92,112.11L20.63,107.81L21.34,129.6L22.05,128.84L22.77,146.79L23.48,95.84L24.19,107.66L24.9,110.73L25.61,126.69L27.03,85.25L27.75,90.93L28.46,100.75L29.17,96.15L32.01,109.81L32.73,127.3L33.44,107.35L34.15,116.1L34.86,114.26L35.57,116.1L36.28,123.31L36.99,79.88L38.42,93.69L39.13,106.43L41.26,168.89L41.97,93.85L42.69,93.23L43.4,95.54L44.11,92.31L44.82,93.69L46.24,96.76L46.95,97.84L47.67,102.29L48.38,112.57L50.51,141.73L51.22,166.74L51.93,130.52L52.65,148.48L54.07,90.47L54.78,94L55.49,90.62L56.2,92.93L56.91,92.01L57.63,93.08L58.34,93.23L59.05,95.54L61.18,114.72L61.89,112.88L64.03,149.71L64.74,104.13L66.16,112.11L66.87,127.3L67.59,147.86L68.3,79.88L69.01,79.58L69.72,80.5L70.43,80.34L71.14,88.48L73.28,110.57L73.99,127.91L74.7,102.44L75.41,111.03L76.12,127.76L76.83,82.18L78.26,86.02L78.97,84.33L80.39,92.77L81.1,98.91L81.81,112.57L82.53,111.8L83.95,144.95L84.66,111.49L86.08,111.34L86.79,123.62L88.93,146.18L89.64,150.78L90.35,159.53L91.06,111.95L93.91,144.79L94.62,167.05L95.33,144.95L96.04,88.94L96.75,91.24L97.46,89.86L98.18,91.55L98.89,96.15L99.6,96.92L100.31,94.61L101.02,95.23L101.73,98.14L103.16,98.45L103.87,102.75L106,113.34L106.71,124.08L107.42,121.47L108.14,142.95L108.85,106.74L109.56,118.09L110.27,115.02L110.98,119.93L111.69,130.37L112.4,91.7L113.12,93.23L113.83,101.83L114.54,108.12L115.25,105.05L115.96,105.66L116.67,115.18L118.1,85.56L118.81,88.94L119.52,87.56L120.23,90.32L120.94,102.44L121.65,99.06L123.79,114.26L124.5,112.42L126.63,140.96L127.34,139.12L128.06,135.89L128.77,151.09L130.9,99.83L131.61,102.75L135.17,130.83L135.88,150.32L137.3,113.64L138.02,114.72L140.15,130.52L140.86,126.84L142.28,137.12L143,159.37L145.13,82.95L145.84,82.18L146.55,81.72L147.26,86.33L147.98,94.15L148.69,91.85L149.4,92.01L150.11,98.6L150.82,98.6L151.53,100.29L152.24,105.05L152.96,116.1L153.67,129.91L154.38,94.15L155.09,99.22L155.8,109.81L156.51,110.73L157.22,114.87L160.07,132.06L160.78,131.14L161.49,150.78L162.2,124.54L163.63,90.16L164.34,88.63L165.05,90.01L165.76,94.46L167.18,112.72L167.9,122.39L168.61,132.21L169.32,131.75L170.03,138.04L170.74,165.2L171.45,140.96L172.16,138.5L172.88,140.65L174.3,94L175.01,91.85L175.72,92.31L176.43,99.68L177.14,105.05L177.86,117.02L178.57,118.09L179.28,122.54L179.99,133.13L180.7,130.68L181.41,137.43L182.12,135.59L183.55,165.36L184.26,127.61L184.97,91.08L185.68,92.62L186.39,98.76L187.1,94.31L187.82,105.97L189.24,116.87L189.95,115.18L190.66,129.6L191.37,94.31L193.51,112.88L194.22,123.92L194.93,121.47L195.64,137.58L196.35,138.81L197.06,138.5L198.49,150.93L199.2,168.12L200.62,111.19L201.33,119.32L202.04,131.6L202.76,83.72L203.47,83.72L204.18,84.79L204.89,86.48L205.6,91.08L207.74,103.98L208.45,118.71L209.16,120.24L209.87,137.12L210.58,103.21L211.29,110.11L212,110.88L212.72,119.17L214.85,125.61L215.56,134.21L216.27,151.39L216.98,109.65L217.7,118.71L218.41,89.4L219.12,90.78L219.83,94.46L221.25,115.02L221.96,131.75L222.68,97.38L223.39,105.05L224.1,104.9L224.81,106.28L225.52,113.95L226.23,113.34L226.94,129.45L227.66,96.76L229.08,102.75L229.79,122.39L231.21,153.23L231.92,121.32L233.35,91.55L234.06,103.67L236.19,133.44L236.9,106.58L237.62,115.33L238.33,113.95L239.04,115.33L239.75,129.76L241.17,84.79L241.88,82.95L242.6,82.64L243.31,88.78L244.02,89.7L244.73,93.85L246.86,117.33L247.58,122.85L249,128.84L249.71,141.57L250.42,149.4L251.13,116.87L251.84,69.45L252.56,73.9L253.98,77.12L254.69,84.49L255.4,82.64L256.11,89.4L258.25,112.26L258.96,127.3L260.38,161.83L261.09,117.02L261.8,71.14L262.52,71.6L263.23,72.67L263.94,67.76L264.65,73.13L266.78,84.03L267.49,102.44L268.21,123.31L268.92,119.78L269.63,127.61L270.34,145.41L271.76,74.66L272.47,80.8L273.19,82.03L273.9,94.92L274.61,94L275.32,100.45L276.03,123L276.74,84.64L278.88,104.9L279.59,67.3L280.3,75.74L281.01,72.06L282.43,73.13L283.15,69.75L284.57,65.92L285.28,71.9L285.99,76.05L286.7,74.66L289.55,107.96L290.26,134.36L290.97,103.21L291.68,121.01L293.11,117.63L293.82,127.91L295.24,85.1L295.95,87.86L298.09,95.38L298.8,103.21L299.51,102.59L300.22,107.35L302.35,142.03L303.07,138.66L303.78,137.74L304.49,147.56L306.62,179.32L307.33,133.59L308.05,142.49L308.76,86.79L309.47,82.34L310.18,88.94L310.89,92.47L311.6,92.16L312.31,92.47L313.03,105.82L313.74,101.98L314.45,112.88L315.16,122.54L315.87,73.13L316.58,71.29L317.29,79.58L318.72,75.28L319.43,77.73L320.14,79.12L320.85,82.95L321.56,87.09L322.27,86.48L323.7,103.21L324.41,102.13L326.54,119.93L327.25,109.35L327.97,109.5L328.68,123.46L330.1,71.14L330.81,78.81L331.52,79.27L332.23,81.72L332.95,90.16L333.66,88.32L335.08,92.47L335.79,109.96L336.5,121.01L337.21,84.03L337.93,86.79L338.64,98.14L339.35,118.4L340.06,66.22L340.77,65.46L341.48,66.22L342.91,74.51L343.62,72.67L345.75,80.8L346.46,91.39L347.17,91.08L347.89,95.38L348.6,93.85L349.31,98.14L351.44,114.26L352.15,95.07L352.87,95.38L353.58,105.66L354.29,71.9L355,72.67L355.71,72.36L356.42,69.6L357.13,75.89L357.85,72.36L358.56,75.43L360.69,91.55L361.4,95.84L362.11,91.7L362.83,104.44L363.54,105.36L364.25,114.26L364.96,135.28L365.67,100.6L366.38,116.71L367.09,60.85L369.23,66.53L369.94,75.89L371.36,101.52L372.07,75.89L372.79,73.28L373.5,78.96L374.92,81.72L375.63,86.33L376.34,89.55L377.05,99.52L377.77,100.45L378.48,108.89L379.9,142.34L380.61,104.9L381.32,117.79L382.03,82.8L382.75,84.49L383.46,82.8L384.17,86.94L384.88,86.02L387.01,104.9L387.73,104.74L389.15,131.6L389.86,78.96L391.28,96.3L391.99,112.11L392.71,69.91L393.42,80.96L394.13,79.42L394.84,87.56L395.55,101.06L396.26,66.22L396.97,64.54L397.69,69.6L398.4,72.21L399.11,83.72L401.24,111.95L401.95,74.66L403.38,90.93L404.09,95.54L405.51,117.79L406.22,83.72L409.07,109.35L409.78,123.77L410.49,121.32L411.2,130.22L411.91,135.89L412.63,159.99L414.05,94.46L414.76,107.35L415.47,63.46L416.18,65.61L416.89,71.9L418.32,95.07L419.03,110.42L419.74,121.01L420.45,143.72L421.87,67.61L422.59,69.45L423.3,64.69L424.01,68.83L424.72,69.6L425.43,68.68L428.28,116.25L428.99,69.45L429.7,67.3L430.41,72.82L431.12,74.05L431.83,82.64L433.97,118.09L434.68,132.67L435.39,98.6L436.1,106.28L437.53,63.16L438.24,67.15L439.66,68.83L440.37,73.13L441.08,73.28L441.79,71.14L444.64,138.81L445.35,100.14L446.06,112.42L446.77,82.03L447.48,80.19L448.2,84.03L449.62,87.86L450.33,97.38L451.04,102.29L451.75,117.17L453.18,135.28L453.89,88.32L454.6,93.85L455.31,105.36L456.73,124.23L457.44,69.91L459.58,78.5L460.29,88.48L461,88.63L461.71,89.86L462.42,94.46L463.14,107.5L463.85,51.95L464.56,53.18L465.27,56.71L466.69,64.08L467.4,74.97L468.12,84.64L468.83,58.4L469.54,60.09L470.25,59.32L471.67,68.07L472.38,75.89L473.1,74.97L473.81,88.63L474.52,85.25L475.23,98.6L476.65,60.39L477.36,67.91L478.79,87.25L479.5,86.17L480.21,95.84L480.92,62.7L481.63,64.84L482.34,60.09L484.48,92.16L485.19,62.24L486.61,65.15L487.32,62.85L488.75,72.82L489.46,85.41L490.17,94.92L490.88,92.16L492.3,122.24L493.02,62.24L493.73,64.23L494.44,70.06L495.15,70.83L495.86,65.92L496.57,76.66L497.28,73.13L498,87.71L498.71,87.25L499.42,86.48L500.84,106.43L501.55,68.83L502.26,70.21L502.98,69.45L503.69,69.6L504.4,70.68L505.11,69.91L505.82,72.67L506.53,73.44L507.24,78.35L509.38,90.47L510.09,102.29L510.8,99.68L511.51,106.12L512.94,110.57L513.65,106.89L514.36,113.49L515.07,128.37L515.78,72.98L516.49,79.58L517.92,78.19L518.63,79.88L519.34,79.58L520.05,82.95L520.76,90.01L521.47,85.56L522.9,92.77L523.61,113.18L524.32,72.67L525.03,77.73L525.74,87.71L526.45,48.88L527.16,50.11L527.88,49.81L530.72,79.88L531.43,79.12L532.14,80.8L532.86,79.27L533.57,86.94L534.28,64.23L534.99,66.38L535.7,64.84L536.41,70.68L537.12,70.52L537.84,68.99L539.26,72.67L539.97,79.42L542.1,98.3L542.82,118.86L543.53,131.14L544.24,99.68L544.95,109.65L545.66,63L546.37,61.31L547.08,63.77L549.22,71.29L549.93,69.45L550.64,70.52L551.35,70.06L552.06,75.28L552.78,74.66L553.49,72.21L554.2,78.65L557.04,110.88L557.76,131.75L558.47,164.74L559.18,109.19L559.89,125.77L560.6,53.03L563.45,82.34L564.16,109.19L564.87,71.75L565.58,72.82L566.29,77.58L567,75.13L567.72,76.51L568.43,89.24L569.14,85.56L569.85,83.72L570.56,86.17L572.7,107.2L573.41,109.65L574.83,140.04L575.54,140.34L576.25,140.04L576.96,141.42L577.68,139.58L578.39,141.88L579.1,139.58L579.81,143.72L580.52,153.85L581.23,152.62L582.66,155.38L583.37,162.9L584.08,164.28L584.79,161.52L586.21,165.82L586.92,176.25L588.35,141.88L589.06,142.49L590.48,141.57L591.19,143.26L592.62,143.11L593.33,141.26L594.04,142.34L594.75,147.1L595.46,148.32L596.17,156.76L596.88,161.37L597.6,171.34L598.31,182.39L599.02,132.52L599.73,132.52L600.44,131.29L601.15,133.29L601.86,142.49L603.29,143.57L604,148.63L604.71,152.93L605.42,164.28L606.13,163.82L606.84,165.82L607.56,174.72L608.27,132.67L608.98,136.2L609.69,133.59L611.11,140.04L611.82,138.5L613.25,151.24L613.96,153.39L615.38,175.49L616.09,150.78L616.8,150.32L617.52,150.93L618.23,147.56L618.94,150.01L620.36,157.99L621.07,156.15L621.78,159.53L622.49,157.53L623.21,155.08L623.92,163.36L624.63,159.83L625.34,164.9L626.76,161.67L627.47,171.04L628.19,178.09L628.9,143.11L629.61,139.27L630.32,143.72L631.74,139.88L632.45,141.42L633.17,141.26L633.88,139.73L634.59,140.8L635.3,140.34L636.01,141.88L636.72,149.55L637.43,158.15L638.15,155.08L638.86,165.66L639.57,160.91L641.7,193.75L642.41,192.37L643.13,192.98L643.84,191.75L644.55,191.6L645.26,190.22L645.97,190.37L646.68,205.1L648.11,121.78L648.82,124.69L649.53,122.24L650.24,128.22L651.66,123.31L652.37,128.99L653.8,132.82L654.51,130.98L655.22,133.75L655.93,129.6L656.64,141.73L657.35,140.04L658.78,144.79L659.49,145.25L660.2,142.34L660.91,146.02L661.62,153.54L662.33,151.7L663.76,170.73L664.47,140.96L665.18,142.95L665.89,141.11L666.6,139.58L667.31,141.26L668.03,141.42L668.74,142.95L669.45,142.95L670.16,144.33L671.58,156.61L672.29,154.31L673.01,163.21L673.72,160.6L675.85,181.32L676.56,129.45L677.27,128.68L677.99,129.6L678.7,132.06L679.41,131.6L680.12,131.75L680.83,136.05L681.54,133.9L682.25,140.04L684.39,150.93L685.1,163.98L686.52,138.04L687.23,139.12L689.37,137.12L690.08,138.66L690.79,138.81L691.5,141.73L692.21,142.49L692.93,149.4L693.64,148.17L694.35,154.16L695.06,155.23L695.77,166.59L696.48,165.36L697.19,167.05L699.33,189.76L700.04,142.34L700.75,144.79L701.46,142.03L702.17,147.1L702.89,146.33L703.6,152.01L704.31,149.86L705.02,151.09L705.73,162.29L706.44,80.8L707.15,82.03L707.87,84.95L708.58,91.39L709.29,105.2L710,108.43" style="vector-effect: none; fill: none; stroke: rgb(214, 39, 40); stroke-opacity: 1; stroke-width: 2px; opacity: 1;"/></g><g class="points"/><g class="text"/></g><g class="trace scatter trace2758fa" style="stroke-miterlimit: 2; opacity: 1;"><g class="fills"/><g class="errorbars"/><g class="lines"><path class="js-line" d="M0,83.11L0.71,82.8L1.42,86.33L2.13,85.25L2.85,93.54L3.56,95.84L4.27,103.67L4.98,113.95L5.69,109.65L6.4,118.4L7.11,117.02L8.54,115.64L9.25,117.94L9.96,119.01L10.67,122.54L11.38,123.46L12.09,130.06L15.65,168.27L16.36,115.94L17.07,117.17L17.79,116.71L18.5,114.26L19.21,114.87L19.92,111.65L20.63,112.42L21.34,115.18L22.05,112.88L22.77,112.42L23.48,114.1L25.61,123.77L26.32,136.05L27.75,133.9L28.46,138.2L29.17,148.94L29.88,148.78L30.59,149.09L32.01,164.9L32.73,165.05L33.44,166.59L34.15,163.98L36.28,159.68L36.99,162.14L37.71,160.29L38.42,162.9L39.13,157.99L39.84,158.45L40.55,159.07L41.26,158.45L44.11,151.7L44.82,152.01L46.95,154.92L47.67,153.54L48.38,153.08L49.09,150.93L50.51,157.07L51.22,155.54L51.93,153.54L52.65,154.92L54.07,157.84L54.78,157.99L56.2,116.87L56.91,117.48L57.63,115.02L58.34,117.02L59.05,116.87L59.76,119.63L60.47,123.16L61.18,121.47L62.61,123L63.32,125.77L66.16,131.75L66.87,135.89L67.59,134.51L68.3,139.12L69.01,137.58L69.72,138.5L70.43,150.47L71.14,89.55L71.85,92.62L72.57,89.24L73.99,90.01L74.7,96.15L76.12,97.07L76.83,104.59L77.55,104.74L78.26,111.03L78.97,121.16L79.68,120.24L80.39,120.7L81.1,119.01L81.81,138.5L82.53,86.02L83.24,85.56L83.95,82.03L85.37,87.4L86.08,88.32L88.22,108.43L88.93,112.57L91.77,148.17L92.48,164.13L93.91,77.89L94.62,78.96L96.04,77.58L96.75,78.35L97.46,79.27L98.18,83.72L98.89,85.25L99.6,91.24L100.31,88.17L101.02,97.07L102.44,117.02L103.16,115.48L104.58,121.32L105.29,116.56L106.71,119.63L107.42,119.93L108.85,124.85L109.56,125.46L110.27,124.85L110.98,127.76L111.69,126.99L112.4,127.76L113.83,126.99L114.54,126.53L115.25,131.75L115.96,131.6L116.67,130.68L117.38,131.44L118.1,130.37L118.81,129.45L119.52,129.91L120.23,136.51L120.94,135.89L121.65,136.35L122.36,135.13L123.08,134.36L123.79,134.97L125.21,134.05L125.92,141.11L126.63,140.8L127.34,142.03L128.06,144.33L128.77,143.41L130.19,154L130.9,153.85L131.61,152.93L132.32,164.44L133.04,121.16L133.75,124.38L134.46,126.07L135.17,121.62L136.59,134.67L137.3,134.51L138.02,139.58L138.73,147.25L139.44,146.79L140.15,147.4L141.57,157.22L142.28,91.55L144.42,104.74L145.13,103.67L145.84,103.82L146.55,110.73L147.26,111.8L147.98,115.79L148.69,120.55L149.4,119.78L150.11,134.97L150.82,87.71L151.53,88.17L152.24,90.32L152.96,88.94L153.67,92.62L154.38,96.46L155.09,105.2L155.8,109.81L156.51,87.25L157.22,90.62L157.94,88.32L158.65,89.4L159.36,97.84L160.78,116.1L161.49,118.55L162.2,114.1L162.92,122.85L163.63,135.13L164.34,103.98L165.05,105.05L165.76,103.21L167.18,104.9L167.9,113.49L168.61,81.88L169.32,85.41L170.03,83.26L170.74,88.17L171.45,91.39L172.16,99.52L172.88,101.98L173.59,111.8L174.3,125.15L175.01,82.03L175.72,82.64L176.43,80.5L177.14,80.96L177.86,84.95L179.28,78.81L179.99,82.18L180.7,84.18L181.41,93.54L182.12,91.08L182.84,96.61L183.55,99.99L184.26,109.81L184.97,109.04L185.68,126.84L186.39,67.61L187.1,71.29L187.82,71.29L188.53,77.73L189.24,76.05L189.95,84.49L191.37,97.53L192.08,99.52L192.8,104.28L193.51,127.76L194.22,80.04L194.93,85.41L195.64,96.92L196.35,67.61L197.06,66.38L197.78,68.22L199.91,72.67L200.62,70.68L203.47,97.84L204.18,98.45L204.89,105.51L205.6,122.85L207.02,67.15L207.74,72.52L208.45,70.52L209.16,71.9L212,83.11L212.72,80.65L213.43,87.25L214.14,85.41L215.56,86.17L216.27,100.6L218.41,130.37L219.12,79.12L221.25,87.25L221.96,82.95L224.1,106.89L224.81,134.82L225.52,123.92L226.23,88.17L227.66,93.85L228.37,93.08L229.08,93.85L229.79,100.75L230.5,99.37L231.21,99.83L231.92,105.97L232.64,104.9L233.35,103.67L234.06,108.12L234.77,110.73L235.48,121.01L236.19,130.83L236.9,129.3L238.33,139.73L239.04,101.21L240.46,110.11L241.17,111.34L242.6,108.89L243.31,108.27L244.02,116.25L244.73,82.8L246.15,88.94L246.86,94.61L248.29,107.2L249,109.65L250.42,106.74L251.13,109.19L253.27,124.38L253.98,148.48L254.69,102.75L255.4,116.71L256.11,116.56L256.82,111.03L257.54,111.34L258.25,115.79L258.96,109.35L259.67,131.44L260.38,84.33L261.09,86.94L261.8,100.45L262.52,117.17L263.23,80.34L263.94,81.88L264.65,80.65L266.07,83.26L266.78,83.57L268.21,83.87L268.92,82.8L269.63,84.33L270.34,87.71L271.05,86.48L271.76,93.23L272.47,104.44L273.19,102.44L275.32,138.35L276.03,94.15L276.74,101.52L277.45,100.75L278.17,100.75L278.88,106.43L279.59,109.04L280.3,107.5L281.72,105.36L282.43,114.1L283.86,69.6L284.57,67.61L286.7,78.81L287.41,87.09L288.13,85.41L288.84,87.09L289.55,97.53L290.26,95.38L290.97,114.1L291.68,72.67L292.39,72.82L293.11,74.82L293.82,78.96L294.53,78.04L298.09,111.19L298.8,83.11L300.22,88.02L300.93,86.94L301.64,87.56L302.35,89.86L304.49,101.67L305.2,101.06L306.62,101.98L307.33,102.29L308.05,101.67L308.76,107.35L310.18,124.54L310.89,79.42L311.6,78.35L312.31,78.65L315.16,105.2L315.87,121.78L316.58,98.91L317.29,101.67L318.01,106.89L318.72,86.63L320.14,90.32L320.85,89.7L321.56,90.16L322.27,95.54L324.41,115.02L325.12,129.45L325.83,81.57L326.54,83.57L327.25,84.03L327.97,86.79L328.68,94.15L329.39,94.46L330.1,99.37L330.81,106.43L331.52,105.82L332.23,108.12L332.95,118.09L333.66,117.02L334.37,72.52L335.08,71.75L335.79,73.74L336.5,72.82L337.21,73.44L338.64,83.26L339.35,84.18L341.48,92.93L342.19,97.68L344.33,147.25L345.04,123.62L345.75,125L346.46,128.68L347.17,136.66L347.89,156.92L348.6,103.67L349.31,105.2L350.02,103.21L350.73,102.44L351.44,113.95L352.15,79.42L352.87,90.78L354.29,97.22L355,95.84L356.42,100.14L357.13,100.29L357.85,115.02L358.56,112.42L359.27,113.49L359.98,127.45L360.69,71.75L361.4,77.27L362.11,76.35L362.83,79.27L363.54,79.27L364.25,88.63L366.38,99.37L367.09,116.56L368.52,140.04L369.23,114.56L369.94,84.18L370.65,93.69L372.07,107.66L372.79,82.64L374.21,81.26L374.92,82.64L375.63,86.79L376.34,83.87L377.05,84.03L377.77,86.79L378.48,94.31L379.19,92.31L382.03,116.71L382.75,133.9L383.46,86.17L384.17,89.86L385.59,89.24L386.3,95.07L387.73,97.99L388.44,101.52L389.15,102.75L389.86,107.04L390.57,114.1L391.28,74.66L392.71,68.99L393.42,73.13L394.13,75.43L394.84,72.98L395.55,77.89L396.26,77.43L397.69,88.94L398.4,92.62L399.11,91.55L399.82,87.25L400.53,90.32L401.24,98.45L401.95,115.79L402.67,115.18L403.38,128.53L404.09,74.82L404.8,82.34L405.51,82.49L406.22,91.39L406.93,55.79L407.65,55.94L408.36,62.39L410.49,84.95L411.2,82.64L411.91,93.23L412.63,45.51L413.34,43.36L414.05,44.43L416.18,62.39L416.89,62.7L417.61,68.22L418.32,81.72L419.03,94.92L419.74,93.39L420.45,97.99L421.16,112.26L422.59,70.37L423.3,69.14L424.01,84.03L424.72,57.94L429.7,88.32L430.41,95.54L431.12,105.51L431.83,76.05L432.55,76.97L433.26,82.34L433.97,81.57L434.68,88.02L436.1,102.13L436.81,99.37L438.24,103.67L438.95,101.83L440.37,115.79L441.08,123.62L441.79,146.48L442.51,93.54L443.22,104.9L443.93,92.01L444.64,91.7L445.35,98.14L446.06,106.74L446.77,102.29L448.2,110.42L448.91,83.11L450.33,81.42L451.04,84.49L451.75,86.02L452.46,94.61L455.31,129.3L456.02,76.81L457.44,85.71L458.16,88.63L459.58,101.67L460.29,100.14L461,99.99L461.71,101.21L462.42,99.52L463.14,107.96L463.85,115.48L464.56,113.03L465.27,125.31L465.98,93.85L466.69,92.01L467.4,99.06L468.12,98.3L468.83,101.37L470.25,97.07L470.96,106.12L471.67,110.11L472.38,130.06L473.1,73.74L473.81,83.41L474.52,88.32L475.23,85.41L476.65,109.81L477.36,71.14L478.08,74.97L478.79,72.82L479.5,77.58L480.21,74.82L480.92,73.9L481.63,76.66L482.34,78.35L483.06,77.58L485.9,110.42L486.61,80.19L488.04,77.12L488.75,85.25L490.17,91.39L490.88,91.7L491.59,94.15L492.3,107.81L494.44,130.83L495.15,89.24L495.86,91.85L496.57,90.16L497.28,103.51L498,65.46L498.71,64.23L499.42,72.52L500.13,70.98L500.84,77.27L501.55,80.34L502.26,89.4L503.69,104.74L504.4,64.08L505.11,64.69L505.82,72.82L507.96,93.54L508.67,57.78L510.09,58.71L510.8,61.16L511.51,69.75L512.22,68.83L512.94,76.66L513.65,76.2L514.36,94.92L515.07,93.85L515.78,102.9L517.2,78.5L517.92,73.44L518.63,81.11L519.34,76.81L520.76,90.32L521.47,84.79L522.9,87.09L523.61,92.31L524.32,100.6L525.03,96.3L526.45,125.77L527.16,109.04L528.59,54.87L529.3,52.87L530.01,49.04L530.72,55.64L531.43,55.64L532.14,62.24L533.57,77.58L534.28,76.81L534.99,87.4L535.7,86.33L537.12,92.77L537.84,97.84L538.55,110.57L539.26,76.2L540.68,71.75L541.39,72.52L542.82,80.5L543.53,86.33L545.66,116.25L546.37,124.69L547.8,84.18L548.51,87.71L549.22,84.18L549.93,93.85L550.64,92.93L551.35,102.9L552.06,69.91L552.78,72.52L554.91,75.59L555.62,75.13L556.33,76.05L557.04,82.49L558.47,77.58L559.18,79.58L561.31,105.36L562.02,82.64L562.74,83.72L563.45,79.12L564.16,80.19L564.87,83.87L565.58,81.26L566.29,90.32L567.72,104.13L568.43,102.44L569.85,129.14L570.56,88.63L571.98,93.23L572.7,98.45L574.12,129.76L574.83,80.65L577.68,95.54L578.39,104.9L581.23,128.53L581.94,84.18L582.66,88.63L583.37,86.02L584.08,84.64L584.79,87.4L587.64,119.78L588.35,133.29L589.06,142.8L589.77,178.86L590.48,51.95L591.19,53.03L591.9,57.94L594.75,94.15L595.46,108.73L596.17,56.4L596.88,61.31L599.02,84.33L599.73,68.07L600.44,72.67L601.15,69.45L604,105.66L604.71,125.15L605.42,105.36L606.13,63.62L606.84,61.62L607.56,69.75L608.27,73.74L608.98,72.36L609.69,76.97L610.4,92.31L611.11,99.06L611.82,98.3L613.25,120.7L613.96,71.44L614.67,69.29L615.38,77.58L617.52,89.24L618.23,107.04L618.94,63.31L619.65,73.74L621.07,81.11L621.78,92.93L623.21,46.89L623.92,52.26L624.63,53.33L625.34,51.03L626.05,46.28L626.76,56.25L628.19,68.83L628.9,67.3L633.17,105.2L633.88,51.19L636.01,54.56L636.72,61.16L638.15,68.68L638.86,69.75L640.28,85.41L640.99,83.87L641.7,99.52L642.41,69.6L643.13,70.68L643.84,74.82L645.26,70.83L645.97,74.2L646.68,76.66L647.39,82.8L650.95,103.36L651.66,118.71L653.8,149.24L654.51,92.47L655.22,45.51L655.93,55.64L657.35,53.49L658.07,54.72L659.49,68.37L660.2,79.73L660.91,79.88L661.62,89.7L662.33,94.31L663.05,115.79L664.47,43.67L665.18,52.41L668.03,81.42L668.74,90.62L669.45,46.89L670.16,48.58L670.87,52.72L672.29,71.29L673.01,70.37L673.72,71.9L674.43,68.37L675.85,88.48L676.56,86.63L677.27,92.31L677.99,63.31L678.7,65.92L679.41,65.3L680.83,76.97L681.54,94.46L682.97,113.8L683.68,138.35L684.39,85.41L685.1,97.38L685.81,68.83L686.52,70.21L687.23,71.29L687.95,74.36L688.66,69.14L689.37,71.9L690.08,81.42L690.79,85.87L691.5,85.25L692.93,103.21L693.64,102.75L694.35,111.34L695.06,137.43L695.77,87.86L696.48,88.94L697.19,84.03L698.62,99.68L699.33,101.52L700.04,103.05L700.75,110.42L701.46,127.45L702.17,78.04L704.31,115.02L705.02,78.96L706.44,78.96L707.15,77.89L707.87,80.19L708.58,76.51L709.29,77.27L710,83.11" style="vector-effect: none; fill: none; stroke: rgb(148, 103, 189); stroke-opacity: 1; stroke-width: 2px; opacity: 1;"/></g><g class="points"/><g class="text"/></g><g class="trace scatter trace7fe1b1" style="stroke-miterlimit: 2; opacity: 1;"><g class="fills"/><g class="errorbars"/><g class="lines"><path class="js-line" d="M0,76.05L0.71,74.36L1.42,76.66L2.85,72.67L3.56,74.82L4.27,73.13L4.98,74.82L5.69,72.06L6.4,77.12L7.83,79.27L8.54,81.88L9.96,110.88L10.67,109.5L11.38,120.09L12.09,83.57L12.81,85.41L13.52,81.26L14.23,82.18L14.94,84.49L15.65,83.57L16.36,85.41L17.79,88.32L18.5,92.16L19.21,93.08L19.92,95.69L20.63,94.92L21.34,104.28L22.05,110.27L22.77,109.81L25.61,141.11L26.32,152.47L27.75,96.92L28.46,99.99L29.88,110.73L30.59,117.94L31.3,113.49L32.01,128.68L32.73,55.79L33.44,58.25L34.15,65.46L34.86,66.99L35.57,75.89L36.28,74.51L36.99,87.56L37.71,87.25L38.42,94.77L39.13,102.9L39.84,77.89L40.55,78.19L41.26,84.64L42.69,83.72L43.4,84.33L45.53,120.24L46.24,115.48L46.95,115.02L47.67,134.67L49.09,89.4L49.8,98.91L50.51,110.73L51.22,68.37L52.65,70.98L53.36,73.9L54.07,71.6L54.78,73.59L56.2,92.93L56.91,90.62L57.63,91.08L58.34,104.13L59.76,122.7L60.47,124.08L61.18,136.2L61.89,84.03L62.61,86.94L63.32,100.6L64.03,57.63L64.74,60.24L66.16,66.69L66.87,67.61L68.3,69.14L69.01,67.91L70.43,84.49L71.14,86.94L72.57,91.08L73.28,90.01L75.41,106.74L76.12,111.8L76.83,113.8L77.55,122.7L78.26,107.96L78.97,108.73L79.68,110.42L80.39,116.87L81.1,112.11L81.81,111.19L82.53,120.24L83.24,121.78L83.95,134.36L84.66,95.23L85.37,103.98L86.08,102.9L86.79,104.74L88.22,110.27L88.93,106.12L90.35,123.92L91.06,122.54L91.77,132.52L92.48,199.42L93.2,139.73L93.91,140.5L94.62,146.79L95.33,151.09L96.04,149.24L97.46,160.29L98.18,160.14L98.89,164.9L99.6,162.75L101.02,172.57L101.73,183.93L102.44,133.13L103.16,136.2L103.87,146.48L104.58,145.87L105.29,148.78L106,145.25L109.56,179.17L110.27,144.33L110.98,147.25L111.69,145.41L112.4,144.49L113.12,146.64L113.83,146.18L114.54,151.24L116.67,163.06L117.38,174.87L118.1,129.6L118.81,130.83L119.52,132.52L120.23,136.81L120.94,134.67L121.65,143.41L122.36,142.49L123.79,156.46L124.5,156.76L126.63,171.19L127.34,128.84L128.06,131.14L128.77,130.22L129.48,139.42L130.19,139.27L130.9,137.28L131.61,135.89L132.32,143.72L133.04,152.93L133.75,150.01L134.46,151.24L135.17,149.71L136.59,150.47L137.3,149.4L138.02,146.79L138.73,155.84L140.15,154.16L140.86,155.23L141.57,156.15L142.28,160.6L143,121.93L143.71,123.62L144.42,123L145.13,123.92L145.84,122.7L146.55,122.08L147.26,130.06L147.98,137.43L148.69,136.81L150.82,142.03L151.53,149.4L153.67,164.28L154.38,163.67L155.09,165.2L155.8,164.74L156.51,178.09L157.22,140.04L158.65,142.95L159.36,142.95L160.78,141.73L161.49,141.42L162.92,144.18L163.63,142.34L164.34,143.11L165.05,141.42L167.9,150.17L168.61,158.3L171.45,183.16L172.16,188.38L172.88,187.61L173.59,190.22L175.01,116.56L175.72,113.18L176.43,116.25L177.14,113.34L177.86,131.14L178.57,74.2L179.99,81.26L180.7,76.66L184.26,101.06L184.97,100.14L186.39,101.98L187.1,114.41L187.82,111.65L188.53,115.33L189.24,136.97L189.95,82.18L191.37,80.5L192.08,82.18L192.8,82.95L193.51,79.88L195.64,91.55L196.35,98.6L197.06,122.54L197.78,67.91L199.2,79.12L199.91,90.62L200.62,87.09L201.33,90.01L202.04,91.85L202.76,101.98L203.47,70.21L204.18,83.41L204.89,83.57L205.6,91.39L206.31,92.16L207.02,97.22L207.74,105.2L208.45,62.08L210.58,76.66L211.29,87.25L212,59.17L212.72,69.29L213.43,64.38L214.14,68.99L215.56,63.46L216.27,68.99L216.98,69.91L217.7,74.82L219.12,80.65L219.83,90.47L221.25,109.19L221.96,78.81L223.39,100.6L224.1,81.42L225.52,98.14L226.23,58.71L226.94,60.85L227.66,59.93L229.08,73.59L229.79,73.28L230.5,76.51L231.92,95.69L232.64,98.76L233.35,115.94L234.06,88.32L234.77,100.6L235.48,67.91L236.19,60.39L236.9,62.54L238.33,63.46L239.04,61.47L239.75,59.01L240.46,65.76L244.02,99.06L244.73,111.34L246.15,129.45L246.86,137.28L248.29,55.18L249,54.72L249.71,61.62L250.42,61.01L251.13,68.53L251.84,64.84L253.27,67.15L253.98,68.68L256.11,92.77L256.82,87.09L258.25,115.48L258.96,92.77L259.67,95.07L260.38,94.46L261.09,99.37L261.8,111.49L262.52,83.72L263.23,97.84L263.94,107.35L264.65,105.2L265.36,117.94L266.07,90.47L266.78,97.84L267.49,96.61L268.21,98.14L268.92,66.99L269.63,65.92L270.34,68.07L271.05,69.14L271.76,72.36L274.61,85.87L275.32,92.62L276.03,100.29L276.74,96.15L278.88,136.05L279.59,142.03L281.01,150.63L281.72,113.34L282.43,112.72L283.15,118.09L283.86,65.15L284.57,68.37L287.41,92.16L288.13,99.52L288.84,103.05L289.55,115.18L290.26,114.41L290.97,111.19L291.68,121.47L292.39,83.26L293.11,85.71L293.82,93.08L295.24,111.34L295.95,47.04L297.37,42.29L298.09,48.12L298.8,56.4L299.51,55.94L300.22,58.25L303.07,107.81L303.78,64.54L305.2,82.03L305.91,82.8L307.33,97.38L308.05,105.97L308.76,61.62L309.47,62.85L310.18,68.37L311.6,72.36L312.31,81.57L316.58,132.98L317.29,87.25L318.72,92.16L319.43,94.15L321.56,90.16L322.27,96.15L323.7,105.36L324.41,124.23L325.83,95.23L326.54,108.43L327.97,81.57L328.68,81.72L330.1,78.81L330.81,79.58L331.52,81.72L332.23,80.5L334.37,82.34L335.08,84.95L337.21,97.07L337.93,97.68L338.64,96.76L339.35,92.77L342.91,130.06L343.62,129.76L344.33,151.55L345.04,116.87L345.75,129.3L346.46,91.7L347.89,89.24L348.6,89.7L349.31,94L350.02,93.23L350.73,92.47L351.44,95.69L352.15,93.39L352.87,97.99L355,111.65L355.71,120.55L358.56,148.02L359.27,85.87L360.69,95.54L361.4,93.85L362.11,93.54L362.83,94.61L364.25,92.93L364.96,98.14L366.38,102.13L367.09,111.34L368.52,113.95L369.23,110.73L369.94,131.9L370.65,74.36L372.07,78.35L372.79,92.77L373.5,92.31L374.21,114.72L374.92,123.77L375.63,83.26L376.34,96.3L377.05,53.95L377.77,49.96L378.48,55.64L382.03,64.38L382.75,69.14L384.88,73.59L385.59,83.57L386.3,92.47L387.01,92.31L387.73,90.78L388.44,88.94L389.15,101.52L390.57,70.52L391.28,71.44L392.71,89.24L393.42,84.64L395.55,105.51L396.26,104.59L397.69,114.26L398.4,119.01L399.11,107.96L399.82,68.83L400.53,75.59L401.24,74.51L401.95,72.98L402.67,79.58L405.51,98.3L406.22,109.81L407.65,115.02L408.36,115.94L409.07,116.1L409.78,129.76L410.49,72.82L411.2,76.81L411.91,84.49L412.63,83.26L413.34,81.72L414.05,82.03L416.89,118.71L417.61,117.94L418.32,116.25L419.03,116.71L419.74,116.87L420.45,135.59L421.87,87.56L422.59,94.31L423.3,63.16L424.01,66.99L426.14,66.07L426.85,64.38L427.57,67.61L428.28,63.92L429.7,78.5L430.41,75.28L431.83,102.75L432.55,67.3L434.68,80.34L435.39,86.33L436.81,106.12L437.53,66.07L438.24,67.15L438.95,76.66L440.37,79.88L441.08,84.64L441.79,105.05L442.51,101.67L443.93,119.17L444.64,91.55L445.35,91.39L446.06,92.16L446.77,91.85L447.48,95.23L448.2,95.84L448.91,109.19L449.62,80.04L450.33,81.11L451.04,86.33L451.75,86.48L452.46,93.39L453.18,91.55L453.89,92.47L456.02,103.82L456.73,113.64L458.16,137.28L458.87,99.06L459.58,98.91L460.29,96.15L461.71,93.39L462.42,98.91L463.14,96.92L463.85,99.68L465.27,111.19L465.98,114.72L467.4,135.59L468.12,71.29L468.83,70.68L469.54,73.59L470.25,74.66L470.96,91.08L471.67,85.71L472.38,86.33L475.23,113.49L475.94,122.54L476.65,84.64L477.36,86.33L478.08,83.87L479.5,93.69L480.21,89.7L480.92,103.67L481.63,77.27L483.06,87.71L483.77,54.1L485.19,57.02L485.9,57.32L487.32,61.47L488.04,62.7L488.75,70.21L489.46,69.6L491.59,103.05L492.3,53.64L495.15,76.81L495.86,73.59L499.42,101.83L500.13,76.35L502.26,91.24L502.98,88.94L503.69,101.83L504.4,62.7L505.11,63.77L505.82,68.53L507.96,93.08L508.67,106.89L510.09,53.33L510.8,58.25L511.51,54.87L512.22,62.08L513.65,75.89L514.36,45.35L515.78,56.4L516.49,52.72L517.2,55.48L517.92,52.87L518.63,59.78L519.34,55.64L520.05,53.03L520.76,53.33L522.18,72.06L522.9,69.75L523.61,74.2L524.32,73.13L525.74,81.57L526.45,48.27L527.16,56.25L527.88,53.49L528.59,55.94L529.3,61.47L530.01,58.4L530.72,64.69L531.43,78.5L532.14,77.89L532.86,85.41L533.57,93.08L534.28,90.32L534.99,102.75L535.7,76.35L537.12,43.36L537.84,57.94L540.68,60.55L541.39,68.99L542.1,68.22L542.82,85.41L543.53,88.17L544.24,97.84L545.66,123.16L546.37,82.34L547.08,76.35L547.8,94.61L548.51,52.41L549.22,56.4L549.93,55.33L550.64,57.78L552.06,76.2L552.78,74.51L554.2,71.29L554.91,83.11L555.62,82.64L556.33,92.16L557.04,96.3L557.76,105.05L559.18,101.52L559.89,101.83L560.6,114.56L561.31,64.84L562.02,62.54L562.74,69.75L563.45,69.14L564.16,71.6L564.87,69.29L565.58,72.52L566.29,71.14L567,79.58L569.14,99.06L569.85,106.89L570.56,117.48L571.27,84.03L571.98,40.75L572.7,46.12L573.41,57.78L574.12,56.4L574.83,66.53L575.54,47.2L576.25,43.97L576.96,44.43L577.68,46.58L578.39,45.66L579.81,67.45L580.52,81.88L581.94,95.38L582.66,69.6L583.37,67.76L584.08,79.73L584.79,80.04L585.5,86.02L586.21,95.23L586.92,118.86L588.35,90.47L589.06,91.55L589.77,113.64L590.48,69.14L591.19,67.15L591.9,77.73L592.62,74.97L593.33,79.58L594.04,97.07L594.75,57.32L595.46,61.16L596.17,58.4L599.02,101.98L599.73,63.31L600.44,60.24L601.15,66.07L603.29,78.65L604,80.04L604.71,82.49L605.42,94.15L606.13,76.66L606.84,84.49L607.56,84.49L608.27,93.23L609.69,113.34L610.4,77.27L611.11,79.42L611.82,90.78L612.54,92.62L613.25,92.01L613.96,94.46L614.67,109.96L615.38,66.84L616.09,71.44L616.8,83.57L617.52,80.5L618.23,84.03L618.94,82.34L619.65,81.57L620.36,99.68L621.07,106.12L621.78,103.67L623.21,117.02L623.92,117.17L624.63,123.92L625.34,70.37L626.05,69.29L626.76,73.59L628.19,82.8L628.9,82.95L631.74,100.6L632.45,111.03L633.17,117.63L633.88,99.83L635.3,119.32L636.01,79.58L636.72,84.33L637.43,84.18L638.15,85.1L639.57,99.68L640.28,99.06L641.7,108.43L642.41,111.03L643.84,116.1L644.55,128.22L645.26,142.03L645.97,82.64L647.39,89.4L648.11,88.48L649.53,94.61L650.24,100.75L650.95,101.98L651.66,119.78L652.37,125.46L653.09,86.48L655.22,105.66L655.93,103.05L657.35,105.36L658.07,112.72L658.78,129.6L659.49,67.15L660.2,77.12L660.91,37.38L661.62,38.91L662.33,36.91L664.47,60.09L665.18,74.97L665.89,73.9L666.6,78.35L667.31,74.66L668.03,80.19L668.74,80.5L669.45,86.48L670.16,88.78L670.87,101.98L672.29,64.38L673.01,71.75L673.72,75.59L674.43,51.65L675.14,53.95L675.85,50.42L677.27,55.64L677.99,64.54L680.83,94.15L681.54,58.55L682.25,70.06L682.97,65.92L683.68,72.52L684.39,72.36L685.1,88.32L686.52,87.56L687.23,104.74L687.95,61.16L688.66,65.15L689.37,63.77L690.08,75.74L690.79,75.28L691.5,72.36L693.64,97.22L694.35,100.6L695.06,97.99L695.77,103.51L696.48,113.34L697.19,63.77L697.91,70.52L698.62,63.92L699.33,62.08L700.04,63.77L702.17,66.07L702.89,72.21L704.31,98.3L705.02,79.27L705.73,88.94L706.44,61.77L708.58,82.64L709.29,82.34L710,80.96" style="vector-effect: none; fill: none; stroke: rgb(140, 86, 75); stroke-opacity: 1; stroke-width: 2px; opacity: 1;"/></g><g class="points"/><g class="text"/></g><g class="trace scatter traced6c795" style="stroke-miterlimit: 2; opacity: 1;"><g class="fills"/><g class="errorbars"/><g class="lines"><path class="js-line" d="M0,78.65L1.42,81.11L2.13,85.71L3.56,86.79L4.27,90.32L6.4,106.74L7.11,109.5L7.83,118.09L8.54,66.99L10.67,83.41L11.38,81.11L12.81,79.42L13.52,85.1L14.23,83.41L14.94,84.33L17.79,108.58L18.5,105.66L20.63,130.37L21.34,128.68L22.05,130.52L22.77,141.26L23.48,148.48L24.19,95.84L24.9,95.23L25.61,99.99L26.32,101.52L27.03,107.81L27.75,128.22L28.46,85.1L29.17,84.64L29.88,90.93L32.01,116.1L32.73,69.75L33.44,65.92L34.15,67.3L34.86,67.61L35.57,65.61L36.28,65.92L36.99,71.6L39.13,97.53L39.84,94.31L40.55,102.59L41.26,101.98L41.97,115.18L42.69,113.34L44.11,144.03L44.82,74.97L45.53,75.13L46.24,78.81L47.67,89.7L48.38,101.21L50.51,118.25L51.22,126.99L51.93,85.1L52.65,87.25L53.36,90.47L54.07,101.21L54.78,110.27L55.49,108.58L58.34,125.46L59.05,127.45L59.76,125.92L60.47,136.2L61.18,135.43L61.89,106.74L62.61,106.58L63.32,116.56L64.03,117.63L64.74,117.33L67.59,142.19L68.3,139.73L69.72,152.47L70.43,108.89L71.85,67.76L72.57,69.29L75.41,81.42L76.12,87.71L78.26,113.64L78.97,72.82L79.68,73.74L80.39,77.27L81.1,78.81L81.81,86.02L82.53,85.56L83.24,95.84L85.37,119.17L86.08,125.15L86.79,127.45L87.51,135.74L88.22,78.96L88.93,83.57L89.64,84.79L90.35,88.17L92.48,106.12L93.2,104.59L94.62,119.78L95.33,98.6L96.04,96.92L96.75,97.38L97.46,105.36L98.18,101.37L98.89,102.75L99.6,96.61L103.16,126.53L103.87,137.12L104.58,139.42L105.29,149.09L106,104.59L106.71,105.97L107.42,107.35L108.14,110.73L108.85,123.62L109.56,88.78L110.27,89.09L110.98,89.09L112.4,102.44L113.12,72.82L114.54,75.59L115.25,78.81L115.96,77.43L116.67,84.33L117.38,88.94L118.1,86.17L120.23,112.57L120.94,112.72L121.65,124.85L122.36,98.76L123.79,108.12L124.5,107.5L125.92,113.8L126.63,128.68L127.34,93.39L128.06,95.23L128.77,100.45L129.48,113.49L130.19,80.65L130.9,82.49L131.61,85.1L133.75,108.58L134.46,72.36L135.88,78.81L136.59,75.74L138.73,99.83L139.44,64.08L141.57,72.98L142.28,83.72L143,80.19L143.71,91.7L144.42,92.77L145.13,106.89L145.84,79.42L146.55,81.57L150.11,142.49L150.82,145.25L151.53,154L152.24,111.65L152.96,79.88L153.67,80.34L154.38,80.5L155.8,87.71L156.51,95.69L158.65,121.01L159.36,136.35L160.07,89.55L160.78,89.86L161.49,94L162.2,97.38L162.92,109.5L164.34,147.25L165.05,99.37L165.76,107.5L166.47,65.3L167.9,61.77L168.61,65.3L169.32,66.38L170.03,70.98L170.74,70.83L171.45,80.96L172.16,96.3L172.88,93.85L173.59,92.93L174.3,111.49L175.72,69.91L176.43,70.52L177.14,74.05L177.86,72.82L179.99,90.01L180.7,101.06L181.41,113.8L182.12,71.75L182.84,71.9L183.55,67.3L184.97,81.26L185.68,102.9L186.39,115.64L187.1,75.28L188.53,77.27L189.24,76.35L189.95,70.68L190.66,71.9L192.08,82.95L192.8,80.34L194.93,101.52L195.64,97.38L196.35,106.28L197.06,103.21L197.78,113.18L198.49,134.36L199.2,99.99L199.91,103.21L201.33,70.98L202.04,71.9L202.76,72.52L203.47,72.06L204.89,83.72L205.6,82.64L207.02,90.93L207.74,102.75L208.45,59.01L209.16,63.62L209.87,60.55L210.58,61.01L211.29,59.47L212,68.53L213.43,79.58L214.14,94.77L215.56,120.7L216.27,69.75L216.98,73.28L217.7,70.68L219.12,85.87L219.83,87.25L222.68,102.9L223.39,98.91L224.81,108.12L225.52,124.38L227.66,59.93L228.37,63.16L229.08,59.63L229.79,64.69L231.92,74.97L232.64,74.51L234.06,93.69L234.77,99.22L235.48,100.29L236.19,109.65L237.62,55.79L238.33,53.33L241.17,64.38L241.88,72.06L245.44,106.89L246.15,69.45L246.86,73.28L247.58,88.94L248.29,91.85L249,99.83L249.71,100.45L250.42,98.3L251.84,112.88L252.56,88.32L253.98,105.66L254.69,120.09L256.11,41.52L256.82,40.44L257.54,49.34L258.25,45.51L258.96,48.27L259.67,55.33L261.8,72.82L262.52,48.42L263.94,61.31L264.65,65.92L268.21,81.42L268.92,89.4L269.63,93.23L270.34,90.32L271.05,91.85L271.76,97.99L272.47,104.9L273.19,58.71L273.9,62.7L274.61,73.9L276.74,106.43L277.45,62.7L280.3,117.02L281.01,47.35L281.72,40.14L282.43,43.97L283.15,45.66L283.86,51.95L286.7,78.04L287.41,76.97L288.84,93.85L289.55,46.89L290.26,52.72L290.97,65.15L291.68,63.46L292.39,68.53L295.24,106.89L295.95,117.79L296.66,121.62L297.37,74.82L298.8,75.89L299.51,76.05L300.22,79.88L300.93,88.48L303.07,114.87L303.78,70.83L304.49,74.66L305.2,73.28L306.62,80.65L307.33,91.7L308.05,52.72L308.76,57.02L309.47,58.55L310.18,65.3L310.89,75.59L311.6,70.83L313.03,84.33L313.74,80.34L315.16,93.69L315.87,98.91L316.58,110.42L317.29,70.98L318.01,71.6L318.72,78.96L320.14,111.03L320.85,65.61L322.99,100.45L323.7,102.13L325.83,132.98L326.54,48.12L327.25,45.05L327.97,50.88L328.68,55.48L329.39,53.64L332.23,66.99L332.95,82.18L333.66,81.88L334.37,90.62L335.08,101.06L335.79,58.09L337.21,68.37L337.93,65.61L340.06,99.68L340.77,50.42L342.19,63L342.91,59.17L343.62,58.25L344.33,72.98L345.75,102.13L346.46,74.97L348.6,111.95L349.31,126.38L350.02,82.18L350.73,91.55L351.44,70.83L352.15,72.06L353.58,79.73L354.29,78.04L356.42,96.15L357.13,58.71L359.27,84.95L359.98,82.34L362.11,106.58L362.83,77.43L363.54,90.93L364.25,88.48L365.67,105.82L366.38,110.11L367.09,124.23L367.81,71.29L369.94,104.59L370.65,116.41L371.36,115.94L372.07,118.4L372.79,125.61L373.5,94L377.77,136.35L378.48,87.09L379.19,84.03L379.9,97.38L381.32,117.17L382.03,116.71L382.75,113.8L383.46,122.39L384.17,132.06L384.88,88.17L386.3,100.14L387.01,50.27L387.73,51.8L388.44,56.25L389.86,71.29L390.57,72.06L391.99,96.76L392.71,44.59L393.42,43.67L394.13,47.04L394.84,45.51L395.55,48.58L396.97,48.88L397.69,57.32L399.11,71.75L399.82,82.95L400.53,80.04L401.24,96.92L401.95,52.57L402.67,58.09L406.93,78.65L407.65,76.97L408.36,75.89L409.07,87.4L410.49,99.99L411.2,114.1L412.63,66.99L413.34,77.73L414.05,73.59L414.76,87.56L416.18,100.6L416.89,119.32L417.61,43.97L418.32,46.43L419.03,55.79L419.74,54.56L420.45,57.78L422.59,68.07L423.3,74.66L424.72,90.62L425.43,46.12L426.85,50.27L427.57,66.07L428.28,63.46L428.99,73.74L430.41,97.38L431.12,86.94L431.83,94.92L432.55,118.55L433.97,86.33L434.68,91.24L435.39,70.37L436.1,74.51L437.53,76.97L438.24,85.56L438.95,85.56L439.66,87.09L440.37,87.09L441.08,90.93L442.51,115.79L443.22,52.41L443.93,49.34L444.64,52.26L445.35,51.03L446.06,57.02L447.48,69.75L448.2,76.35L448.91,83.41L449.62,53.64L451.75,80.34L452.46,77.58L453.18,77.73L453.89,83.72L454.6,78.65L455.31,85.1L456.02,83.11L456.73,88.17L458.16,44.28L458.87,50.11L459.58,47.81L460.29,51.95L461,54.41L461.71,60.7L463.14,70.83L463.85,81.42L465.98,97.22L466.69,59.01L468.83,80.04L469.54,88.78L470.25,90.01L470.96,85.41L471.67,105.2L472.38,66.07L473.1,77.89L473.81,74.66L475.23,83.57L475.94,83.87L477.36,82.64L478.08,90.16L480.21,102.13L480.92,99.83L481.63,102.9L482.34,111.65L483.06,109.19L483.77,126.07L485.19,49.34L485.9,55.02L488.04,71.9L488.75,72.36L490.17,92.93L490.88,54.56L491.59,58.25L492.3,66.69L494.44,78.81L495.15,84.49L495.86,86.33L496.57,94L497.28,58.4L498,66.38L499.42,80.96L500.13,80.04L500.84,81.11L501.55,80.8L502.26,82.18L502.98,88.32L503.69,97.84L504.4,77.58L506.53,101.52L507.24,104.44L507.96,117.63L508.67,85.1L509.38,85.87L510.09,84.18L511.51,98.6L512.22,51.65L513.65,62.7L514.36,72.21L515.78,85.71L516.49,95.23L517.2,94.46L517.92,111.34L518.63,55.94L519.34,61.47L520.05,72.21L520.76,66.99L521.47,72.21L522.18,67.3L522.9,68.07L523.61,75.74L524.32,74.66L525.03,81.57L526.45,93.69L527.16,107.35L529.3,109.65L530.01,109.35L530.72,105.36L531.43,107.35L532.14,115.94L532.86,81.26L533.57,47.35L534.28,51.8L537.84,88.02L538.55,50.73L539.97,55.02L540.68,53.33L543.53,67.61L544.24,68.53L546.37,87.86L547.08,43.82L548.51,61.93L549.22,66.69L550.64,77.27L551.35,79.42L552.78,98.6L553.49,72.06L554.2,74.2L554.91,71.75L555.62,82.18L556.33,46.28L557.76,65.76L558.47,64.23L559.18,70.52L559.89,70.06L560.6,80.19L561.31,79.27L562.02,93.54L562.74,43.21L564.87,63.46L565.58,65.46L567,73.13L567.72,69.14L568.43,72.06L569.14,82.18L570.56,104.74L571.27,86.02L571.98,81.88L572.7,95.54L573.41,94.92L574.12,111.03L574.83,85.56L575.54,94.61L576.25,46.58L576.96,53.18L578.39,66.07L579.1,79.27L579.81,83.57L580.52,96.3L581.23,44.59L581.94,47.81L582.66,44.89L583.37,46.28L584.08,49.04L584.79,56.4L587.64,81.72L588.35,91.39L589.06,56.86L589.77,65.15L591.19,64.54L591.9,71.29L593.33,81.57L594.04,92.01L594.75,95.23L595.46,104.74L596.17,103.98L596.88,114.72L597.6,80.8L598.31,88.02L599.02,84.49L599.73,86.79L601.15,90.16L601.86,97.68L604,123.16L604.71,92.62L605.42,94.92L606.13,39.83L607.56,51.95L608.27,60.24L608.98,59.01L609.69,65.46L610.4,75.13L611.11,73.9L611.82,75.59L612.54,82.34L613.96,45.66L614.67,51.65L617.52,83.26L618.23,85.56L618.94,90.78L619.65,37.53L620.36,39.06L621.07,43.21L622.49,45.2L623.21,49.65L625.34,71.6L626.05,82.95L626.76,41.67L627.47,51.03L628.19,52.72L628.9,63.92L631.03,105.05L631.74,54.72L634.59,83.87L635.3,79.73L636.72,98.91L637.43,97.53L638.15,119.47L638.86,70.37L640.28,82.18L640.99,91.24L641.7,113.95L642.41,72.98L643.13,88.63L643.84,39.06L645.97,55.18L646.68,62.08L647.39,59.63L648.11,72.21L648.82,83.72L649.53,44.59L650.24,44.28L650.95,44.89L653.09,48.73L653.8,55.94L655.93,62.08L656.64,63.46L657.35,64.38L658.07,67.61L658.78,71.6L659.49,83.72L660.2,40.29L660.91,45.51L661.62,51.03L662.33,50.27L663.05,54.56L663.76,54.26L664.47,63.16L665.89,64.54L666.6,79.88L667.31,75.89L668.03,91.08L668.74,47.04L669.45,52.41L670.16,52.41L670.87,67.91L673.72,88.02L674.43,100.91L675.14,123.16L675.85,100.14L676.56,45.82L677.27,47.35L677.99,47.2L678.7,48.27L679.41,45.51L681.54,68.07L682.25,77.43L682.97,92.62L683.68,42.59L685.81,48.42L686.52,51.8L687.95,57.63L688.66,56.71L690.08,61.93L690.79,73.44L693.64,82.8L694.35,81.26L695.06,96.15L695.77,55.18L696.48,55.94L697.19,52.72L698.62,61.62L699.33,62.08L700.04,62.54L700.75,72.82L701.46,74.36L702.17,71.75L705.02,103.21L705.73,106.74L706.44,102.13L707.15,107.35L707.87,126.07L708.58,73.9L709.29,88.32L710,45.51" style="vector-effect: none; fill: none; stroke: rgb(227, 119, 194); stroke-opacity: 1; stroke-width: 2px; opacity: 1;"/></g><g class="points"/><g class="text"/></g><g class="trace scatter tracef4a3b5" style="stroke-miterlimit: 2; opacity: 1;"><g class="fills"/><g class="errorbars"/><g class="lines"><path class="js-line" d="M0,83.11L0.71,82.8L1.42,86.33L2.13,85.25L2.85,93.54L3.56,95.84L4.27,103.67L4.98,113.95L5.69,109.65L6.4,118.4L7.11,78.96L8.54,84.95L9.25,93.08L11.38,115.48L12.09,130.06L12.81,77.58L13.52,81.88L14.94,95.07L15.65,109.04L16.36,105.36L17.07,108.58L17.79,108.27L18.5,114.1L19.92,79.42L20.63,79.12L21.34,79.58L22.05,77.12L24.19,93.69L24.9,97.07L25.61,101.67L26.32,119.32L27.75,132.82L28.46,96L29.88,119.47L30.59,123.62L32.01,148.78L32.73,156.46L33.44,113.49L34.15,114.26L34.86,113.95L36.99,129.14L37.71,130.22L38.42,129.76L39.13,125.92L40.55,137.12L41.26,135.13L42.69,151.7L43.4,108.12L44.11,112.11L44.82,111.19L45.53,110.73L46.24,114.1L47.67,119.01L48.38,126.38L49.09,124.69L49.8,136.66L50.51,144.95L51.22,114.87L52.65,116.87L53.36,119.47L54.07,122.85L54.78,121.16L55.49,79.58L56.2,85.71L56.91,82.95L57.63,87.25L59.05,102.59L59.76,101.21L60.47,113.49L61.18,70.52L61.89,73.28L62.61,82.18L66.16,117.02L66.87,78.65L67.59,77.89L68.3,78.81L69.01,78.81L69.72,80.65L71.85,87.25L72.57,87.25L73.28,85.41L73.99,92.62L76.83,117.94L77.55,119.63L78.26,133.13L78.97,77.27L79.68,74.66L80.39,81.72L81.1,80.65L81.81,94L83.24,111.49L83.95,111.8L85.37,127.3L86.08,97.84L90.35,136.35L91.06,152.31L92.48,105.05L93.2,114.41L94.62,78.96L95.33,85.41L99.6,114.72L100.31,72.36L101.02,71.9L101.73,77.73L102.44,81.11L103.16,89.09L103.87,91.39L104.58,89.55L105.29,95.07L106,94L107.42,110.42L108.14,82.8L108.85,86.02L109.56,95.69L110.27,108.73L110.98,106.74L111.69,110.11L112.4,109.65L113.12,108.12L113.83,118.25L114.54,128.68L115.25,93.85L115.96,94.46L116.67,101.52L117.38,102.9L118.1,107.5L118.81,105.66L119.52,114.26L120.23,130.37L120.94,105.51L121.65,104.13L122.36,105.51L124.5,114.87L125.21,122.08L125.92,142.34L126.63,98.14L128.06,117.79L128.77,85.1L129.48,84.49L130.19,88.94L130.9,86.17L131.61,89.7L132.32,88.32L133.04,95.38L134.46,103.36L135.17,103.36L136.59,119.32L137.3,61.77L138.73,70.52L139.44,68.07L140.15,69.6L140.86,78.19L143.71,114.41L144.42,63.31L145.84,69.75L146.55,78.81L147.26,75.43L147.98,89.24L150.11,98.6L150.82,112.11L151.53,118.86L152.24,94.15L155.09,122.39L155.8,133.29L156.51,93.54L157.22,112.72L158.65,129.45L159.36,154L160.07,104.28L160.78,117.79L162.2,60.85L162.92,67.15L163.63,69.29L164.34,77.27L165.76,76.66L166.47,86.79L167.18,84.64L167.9,88.78L168.61,99.68L169.32,98.14L170.03,108.58L170.74,66.69L172.16,78.81L172.88,77.58L175.72,119.47L176.43,87.56L177.14,85.25L177.86,105.66L179.99,133.75L180.7,98.91L181.41,98.91L182.12,101.67L182.84,110.73L183.55,108.27L184.26,119.01L184.97,117.79L186.39,129.45L187.1,107.2L187.82,69.14L188.53,78.5L189.24,77.12L189.95,79.73L193.51,124.54L194.22,93.54L194.93,90.47L195.64,91.55L196.35,92.01L197.06,90.47L198.49,96.61L199.2,99.37L199.91,99.83L200.62,106.28L201.33,115.94L202.04,93.85L203.47,108.89L204.18,57.63L206.31,70.83L207.02,68.22L208.45,78.19L209.16,81.11L209.87,86.02L210.58,104.13L212,76.2L212.72,84.79L213.43,90.01L214.14,88.48L214.85,89.7L215.56,89.24L217.7,118.4L218.41,80.04L219.12,79.88L219.83,81.88L220.54,80.34L221.25,85.56L224.1,111.19L224.81,88.94L225.52,96.92L226.23,115.48L226.94,72.82L227.66,77.27L230.5,108.73L231.21,62.85L232.64,74.05L233.35,70.68L235.48,94.15L236.19,68.22L237.62,68.53L238.33,74.2L240.46,87.71L241.17,96.46L242.6,106.28L243.31,106.12L244.73,134.97L245.44,82.03L246.86,89.7L247.58,100.29L248.29,104.44L249,101.21L249.71,101.52L250.42,104.28L251.13,100.6L251.84,106.12L253.27,112.26L253.98,132.67L254.69,95.54L255.4,99.83L256.11,107.35L256.82,60.09L258.25,66.22L258.96,62.08L259.67,65.61L260.38,73.9L263.23,97.07L263.94,69.6L264.65,77.58L265.36,74.82L266.07,80.04L266.78,79.58L267.49,78.35L268.21,80.04L270.34,92.93L271.05,95.23L272.47,111.49L273.19,108.89L273.9,125.61L274.61,77.89L276.74,102.9L277.45,72.06L278.17,71.9L278.88,76.51L279.59,72.36L280.3,84.95L281.72,100.91L282.43,63.16L283.15,64.38L283.86,60.39L284.57,62.39L285.28,66.69L285.99,68.99L286.7,74.05L287.41,82.03L288.13,78.35L288.84,80.34L289.55,86.79L290.26,89.86L290.97,96.46L291.68,101.67L292.39,67.91L293.82,75.28L294.53,80.34L296.66,107.5L297.37,71.9L298.09,75.74L298.8,91.08L299.51,105.05L300.22,102.75L300.93,106.74L301.64,104.9L302.35,114.41L303.07,84.79L304.49,98.91L305.2,99.37L305.91,93.69L306.62,97.68L308.05,95.54L308.76,103.21L310.89,124.85L311.6,74.05L312.31,74.36L313.03,76.05L314.45,86.79L315.16,96L315.87,112.88L316.58,110.42L318.01,140.5L318.72,88.94L319.43,98.45L320.14,72.52L320.85,71.14L321.56,72.21L324.41,108.27L325.12,57.32L325.83,55.33L326.54,62.7L327.25,57.48L327.97,67.76L328.68,75.89L329.39,72.06L330.81,92.47L331.52,93.23L332.23,92.16L332.95,105.05L333.66,62.24L334.37,66.38L335.79,69.91L336.5,67.61L339.35,94.31L340.06,94.92L340.77,93.08L341.48,102.75L342.19,105.66L342.91,123.31L343.62,145.41L344.33,118.09L345.75,61.77L346.46,69.29L347.89,88.02L348.6,97.38L350.73,93.08L351.44,104.9L352.15,60.24L352.87,66.53L353.58,70.06L354.29,86.33L355,84.64L355.71,88.17L356.42,84.64L357.13,94.61L358.56,107.04L359.27,108.12L359.98,115.94L360.69,84.79L362.83,95.38L363.54,99.06L364.25,109.35L364.96,81.72L365.67,79.73L366.38,84.33L368.52,107.5L369.23,59.17L372.79,105.82L373.5,53.64L374.21,52.26L374.92,53.95L375.63,55.33L376.34,55.02L377.77,61.47L378.48,67.76L379.19,69.45L379.9,80.96L381.32,103.05L382.03,54.1L383.46,59.17L384.17,54.72L387.01,91.7L387.73,53.79L390.57,78.96L391.28,91.24L391.99,102.59L392.71,55.18L393.42,60.85L394.13,59.47L395.55,90.47L396.26,88.78L397.69,110.88L398.4,68.53L399.11,68.37L399.82,65.92L400.53,69.14L401.24,77.27L401.95,86.02L402.67,48.88L404.8,48.88L405.51,54.41L406.93,73.9L407.65,72.21L409.07,100.75L409.78,56.25L410.49,63.16L411.2,59.32L415.47,95.54L416.18,111.49L416.89,90.01L417.61,43.36L419.74,60.09L420.45,57.48L421.87,78.35L422.59,74.82L423.3,78.5L424.01,89.7L424.72,88.78L425.43,96.92L426.14,57.78L426.85,65L428.28,84.49L428.99,61.47L431.12,81.11L431.83,90.16L433.26,115.33L433.97,44.59L436.1,72.06L436.81,74.66L438.24,71.14L438.95,72.06L440.37,90.62L441.08,104.59L441.79,117.63L442.51,71.75L443.22,88.78L443.93,61.93L445.35,81.72L446.06,49.65L447.48,47.5L448.2,56.86L449.62,68.07L450.33,68.68L451.75,89.4L452.46,53.64L453.18,55.18L453.89,62.7L456.73,110.42L457.44,63.16L458.87,65.76L459.58,72.67L461,76.35L461.71,72.98L462.42,69.91L463.14,82.64L465.27,103.67L465.98,114.87L466.69,119.63L467.4,135.43L468.12,78.35L468.83,79.27L469.54,78.19L470.25,78.65L470.96,93.69L471.67,43.05L472.38,48.58L473.81,66.69L474.52,66.22L475.23,61.47L475.94,76.66L476.65,85.1L477.36,58.71L479.5,71.44L480.21,69.29L481.63,79.73L482.34,78.35L483.77,93.69L484.48,48.42L485.19,52.11L485.9,61.16L486.61,75.59L487.32,71.14L488.04,70.98L488.75,88.48L490.17,106.89L490.88,64.54L491.59,63.77L492.3,80.04L493.02,84.18L493.73,93.54L495.86,114.87L496.57,76.35L497.28,90.62L498,57.78L498.71,59.32L499.42,65.92L500.13,66.69L500.84,75.89L501.55,76.2L502.26,83.87L503.69,103.82L504.4,52.72L505.11,52.41L505.82,53.79L506.53,60.09L507.24,58.55L508.67,76.2L509.38,77.27L511.51,96.46L512.22,96.76L512.94,103.51L513.65,74.51L514.36,91.08L515.07,45.82L515.78,47.66L516.49,57.02L518.63,74.97L519.34,74.05L521.47,95.54L522.18,45.2L522.9,46.89L523.61,53.79L526.45,93.69L527.16,51.65L527.88,52.11L528.59,49.19L530.72,74.97L531.43,88.17L532.14,97.53L532.86,119.32L533.57,78.96L534.28,85.87L535.7,93.39L536.41,90.78L537.84,108.43L538.55,70.37L539.26,79.73L539.97,34.92L540.68,37.99L541.39,46.43L542.1,47.96L542.82,53.79L544.24,78.5L544.95,42.75L545.66,43.97L546.37,53.03L547.8,56.71L548.51,70.37L549.22,78.81L549.93,38.3L553.49,62.7L554.2,75.59L555.62,86.48L556.33,86.63L557.04,101.21L557.76,47.66L558.47,47.66L559.18,49.65L561.31,78.96L562.02,80.65L562.74,82.64L563.45,88.48L564.16,103.82L564.87,57.48L565.58,54.41L566.29,60.55L567,68.37L567.72,85.87L568.43,85.41L569.14,98.6L569.85,50.73L570.56,63L574.12,111.03L574.83,78.65L576.25,31.24L576.96,34.77L578.39,66.07L579.1,35.69L580.52,49.81L581.23,45.82L581.94,48.58L582.66,69.14L583.37,78.19L584.08,37.22L585.5,42.13L586.21,58.4L589.06,95.69L589.77,63.92L590.48,60.85L591.19,78.04L591.9,53.95L592.62,61.93L595.46,89.7L596.17,22.95L597.6,37.68L598.31,51.34L599.73,59.47L600.44,72.36L601.15,70.06L601.86,83.11L602.58,40.9L603.29,54.26L605.42,120.55L606.13,85.41L606.84,37.38L607.56,47.81L609.69,63.62L610.4,82.34L613.25,110.57L613.96,50.42L617.52,106.89L618.23,65.76L618.94,67.45L619.65,73.28L621.78,104.13L622.49,60.39L623.21,73.59L623.92,32.16L624.63,30.78L625.34,33.69L626.05,33.85L626.76,42.75L628.19,67.15L628.9,67.76L629.61,75.59L630.32,48.73L631.74,65.46L632.45,64.23L633.88,85.1L634.59,82.95L635.3,96L636.01,34.92L636.72,39.98L637.43,53.18L638.15,54.56L638.86,53.49L640.99,78.96L641.7,94.46L642.41,53.79L643.13,56.4L643.84,55.02L644.55,58.25L645.26,60.39L645.97,68.99L646.68,65.3L647.39,81.88L649.53,100.6L650.24,66.38L650.95,78.04L651.66,36.15L652.37,34.92L653.09,54.26L654.51,74.66L655.22,96.15L656.64,40.44L657.35,42.29L658.78,46.28L659.49,58.86L660.2,66.07L660.91,63.16L661.62,67.91L662.33,78.35L663.76,108.73L664.47,65.3L665.18,76.35L665.89,31.85L667.31,51.95L668.03,50.73L669.45,59.47L670.16,57.78L672.29,81.26L673.01,80.8L673.72,79.88L674.43,82.34L675.14,92.16L675.85,37.38L676.56,34.61L677.27,43.51L677.99,44.43L678.7,48.42L680.83,81.88L681.54,41.06L685.81,104.13L686.52,66.38L687.23,21.88L687.95,27.55L690.08,58.55L690.79,28.78L691.5,25.25L692.21,32.16L694.35,39.98L695.06,60.39L695.77,71.6L696.48,33.08L697.19,28.47L697.91,39.98L699.33,68.83L700.04,77.89L701.46,111.65L702.17,27.86L703.6,34.15L704.31,49.96L705.73,56.71L706.44,69.91L707.15,18.5L707.87,19.57L708.58,19.27L709.29,20.03L710,32" style="vector-effect: none; fill: none; stroke: rgb(127, 127, 127); stroke-opacity: 1; stroke-width: 2px; opacity: 1;"/></g><g class="points"/><g class="text"/></g></g></g><g class="overplot"/><path class="xlines-above crisp" d="M0,0" style="fill: none;"/><path class="ylines-above crisp" d="M0,0" style="fill: none;"/><g class="overlines-above"/><g class="xaxislayer-above"><g class="xtick"><text text-anchor="middle" x="0" y="533" transform="translate(80,0)" style="font-family: 'Open Sans', verdana, arial, sans-serif; font-size: 12px; fill: rgb(68, 68, 68); fill-opacity: 1; white-space: pre; opacity: 1;">0</text></g><g class="xtick"><text text-anchor="middle" x="0" y="533" style="font-family: 'Open Sans', verdana, arial, sans-serif; font-size: 12px; fill: rgb(68, 68, 68); fill-opacity: 1; white-space: pre; opacity: 1;" transform="translate(222.28,0)">200</text></g><g class="xtick"><text text-anchor="middle" x="0" y="533" style="font-family: 'Open Sans', verdana, arial, sans-serif; font-size: 12px; fill: rgb(68, 68, 68); fill-opacity: 1; white-space: pre; opacity: 1;" transform="translate(364.57,0)">400</text></g><g class="xtick"><text text-anchor="middle" x="0" y="533" style="font-family: 'Open Sans', verdana, arial, sans-serif; font-size: 12px; fill: rgb(68, 68, 68); fill-opacity: 1; white-space: pre; opacity: 1;" transform="translate(506.85,0)">600</text></g><g class="xtick"><text text-anchor="middle" x="0" y="533" style="font-family: 'Open Sans', verdana, arial, sans-serif; font-size: 12px; fill: rgb(68, 68, 68); fill-opacity: 1; white-space: pre; opacity: 1;" transform="translate(649.14,0)">800</text></g></g><g class="yaxislayer-above"><g class="ytick"><text text-anchor="end" x="79" y="4.199999999999999" transform="translate(0,501.5)" style="font-family: 'Open Sans', verdana, arial, sans-serif; font-size: 12px; fill: rgb(68, 68, 68); fill-opacity: 1; white-space: pre; opacity: 1;">0.5</text></g><g class="ytick"><text text-anchor="end" x="79" y="4.199999999999999" style="font-family: 'Open Sans', verdana, arial, sans-serif; font-size: 12px; fill: rgb(68, 68, 68); fill-opacity: 1; white-space: pre; opacity: 1;" transform="translate(0,455.46)">0.55</text></g><g class="ytick"><text text-anchor="end" x="79" y="4.199999999999999" style="font-family: 'Open Sans', verdana, arial, sans-serif; font-size: 12px; fill: rgb(68, 68, 68); fill-opacity: 1; white-space: pre; opacity: 1;" transform="translate(0,409.43)">0.6</text></g><g class="ytick"><text text-anchor="end" x="79" y="4.199999999999999" style="font-family: 'Open Sans', verdana, arial, sans-serif; font-size: 12px; fill: rgb(68, 68, 68); fill-opacity: 1; white-space: pre; opacity: 1;" transform="translate(0,363.39)">0.65</text></g><g class="ytick"><text text-anchor="end" x="79" y="4.199999999999999" style="font-family: 'Open Sans', verdana, arial, sans-serif; font-size: 12px; fill: rgb(68, 68, 68); fill-opacity: 1; white-space: pre; opacity: 1;" transform="translate(0,317.35)">0.7</text></g><g class="ytick"><text text-anchor="end" x="79" y="4.199999999999999" style="font-family: 'Open Sans', verdana, arial, sans-serif; font-size: 12px; fill: rgb(68, 68, 68); fill-opacity: 1; white-space: pre; opacity: 1;" transform="translate(0,271.32)">0.75</text></g><g class="ytick"><text text-anchor="end" x="79" y="4.199999999999999" style="font-family: 'Open Sans', verdana, arial, sans-serif; font-size: 12px; fill: rgb(68, 68, 68); fill-opacity: 1; white-space: pre; opacity: 1;" transform="translate(0,225.28)">0.8</text></g><g class="ytick"><text text-anchor="end" x="79" y="4.199999999999999" style="font-family: 'Open Sans', verdana, arial, sans-serif; font-size: 12px; fill: rgb(68, 68, 68); fill-opacity: 1; white-space: pre; opacity: 1;" transform="translate(0,179.24)">0.85</text></g></g><g class="overaxes-above"/></g></g><g class="polarlayer"/><g class="smithlayer"/><g class="ternarylayer"/><g class="geolayer"/><g class="funnelarealayer"/><g class="pielayer"/><g class="iciclelayer"/><g class="treemaplayer"/><g class="sunburstlayer"/><g class="glimages"/><defs id="topdefs-388fd1"><g class="clips"/><clipPath id="legend388fd1"><rect width="500" height="67" x="0" y="0"/></clipPath></defs><g class="layer-above"><g class="imagelayer"/><g class="shapelayer"/></g><g class="infolayer"><g class="legend" pointer-events="all" transform="translate(80,76.00000000000001)"><rect class="bg" shape-rendering="crispEdges" width="500" height="67" x="0" y="0" style="stroke: rgb(68, 68, 68); stroke-opacity: 1; fill: rgb(255, 255, 255); fill-opacity: 1; stroke-width: 0px;"/><g class="scrollbox" transform="" clip-path="url(#legend388fd1)"><g class="groups"><g class="traces" transform="translate(0,14.5)" style="opacity: 1;"><text class="legendtext" text-anchor="start" x="40" y="4.680000000000001" style="font-family: 'Open Sans', verdana, arial, sans-serif; font-size: 12px; fill: rgb(68, 68, 68); fill-opacity: 1; white-space: pre;">Fixed clip</text><g class="layers" style="opacity: 1;"><g class="legendfill"/><g class="legendlines"><path class="js-line" d="M5,0h30" style="fill: none; stroke: rgb(31, 119, 180); stroke-opacity: 1; stroke-width: 2px;"/></g><g class="legendsymbols"><g class="legendpoints"/></g></g><rect class="legendtoggle" x="0" y="-9.5" width="98.296875" height="19" style="fill: rgb(0, 0, 0); fill-opacity: 0;"/></g><g class="traces" transform="translate(180.328125,14.5)" style="opacity: 1;"><text class="legendtext" text-anchor="start" x="40" y="4.680000000000001" style="font-family: 'Open Sans', verdana, arial, sans-serif; font-size: 12px; fill: rgb(68, 68, 68); fill-opacity: 1; white-space: pre;">Median</text><g class="layers" style="opacity: 1;"><g class="legendfill"/><g class="legendlines"><path class="js-line" d="M5,0h30" style="fill: none; stroke: rgb(255, 127, 14); stroke-opacity: 1; stroke-width: 2px;"/></g><g class="legendsymbols"><g class="legendpoints"/></g></g><rect class="legendtoggle" x="0" y="-9.5" width="86.15625" height="19" style="fill: rgb(0, 0, 0); fill-opacity: 0;"/></g><g class="traces" transform="translate(360.65625,14.5)" style="opacity: 1;"><text class="legendtext" text-anchor="start" x="40" y="4.680000000000001" style="font-family: 'Open Sans', verdana, arial, sans-serif; font-size: 12px; fill: rgb(68, 68, 68); fill-opacity: 1; white-space: pre;">Dynamic clip</text><g class="layers" style="opacity: 1;"><g class="legendfill"/><g class="legendlines"><path class="js-line" d="M5,0h30" style="fill: none; stroke: rgb(44, 160, 44); stroke-opacity: 1; stroke-width: 2px;"/></g><g class="legendsymbols"><g class="legendpoints"/></g></g><rect class="legendtoggle" x="0" y="-9.5" width="120.125" height="19" style="fill: rgb(0, 0, 0); fill-opacity: 0;"/></g><g class="traces" transform="translate(0,33.5)" style="opacity: 1;"><text class="legendtext" text-anchor="start" x="40" y="4.680000000000001" style="font-family: 'Open Sans', verdana, arial, sans-serif; font-size: 12px; fill: rgb(68, 68, 68); fill-opacity: 1; white-space: pre;">Punish updates</text><g class="layers" style="opacity: 1;"><g class="legendfill"/><g class="legendlines"><path class="js-line" d="M5,0h30" style="fill: none; stroke: rgb(214, 39, 40); stroke-opacity: 1; stroke-width: 2px;"/></g><g class="legendsymbols"><g class="legendpoints"/></g></g><rect class="legendtoggle" x="0" y="-9.5" width="134.28125" height="19" style="fill: rgb(0, 0, 0); fill-opacity: 0;"/></g><g class="traces" transform="translate(180.328125,33.5)" style="opacity: 1;"><text class="legendtext" text-anchor="start" x="40" y="4.680000000000001" style="font-family: 'Open Sans', verdana, arial, sans-serif; font-size: 12px; fill: rgb(68, 68, 68); fill-opacity: 1; white-space: pre;">Performance weighted</text><g class="layers" style="opacity: 1;"><g class="legendfill"/><g class="legendlines"><path class="js-line" d="M5,0h30" style="fill: none; stroke: rgb(148, 103, 189); stroke-opacity: 1; stroke-width: 2px;"/></g><g class="legendsymbols"><g class="legendpoints"/></g></g><rect class="legendtoggle" x="0" y="-9.5" width="177.828125" height="19" style="fill: rgb(0, 0, 0); fill-opacity: 0;"/></g><g class="traces" transform="translate(360.65625,33.5)" style="opacity: 1;"><text class="legendtext" text-anchor="start" x="40" y="4.680000000000001" style="font-family: 'Open Sans', verdana, arial, sans-serif; font-size: 12px; fill: rgb(68, 68, 68); fill-opacity: 1; white-space: pre;">Simple average</text><g class="layers" style="opacity: 1;"><g class="legendfill"/><g class="legendlines"><path class="js-line" d="M5,0h30" style="fill: none; stroke: rgb(140, 86, 75); stroke-opacity: 1; stroke-width: 2px;"/></g><g class="legendsymbols"><g class="legendpoints"/></g></g><rect class="legendtoggle" x="0" y="-9.5" width="136.421875" height="19" style="fill: rgb(0, 0, 0); fill-opacity: 0;"/></g><g class="traces" transform="translate(0,52.5)" style="opacity: 1;"><text class="legendtext" text-anchor="start" x="40" y="4.680000000000001" style="font-family: 'Open Sans', verdana, arial, sans-serif; font-size: 12px; fill: rgb(68, 68, 68); fill-opacity: 1; white-space: pre;">Receny weighted</text><g class="layers" style="opacity: 1;"><g class="legendfill"/><g class="legendlines"><path class="js-line" d="M5,0h30" style="fill: none; stroke: rgb(227, 119, 194); stroke-opacity: 1; stroke-width: 2px;"/></g><g class="legendsymbols"><g class="legendpoints"/></g></g><rect class="legendtoggle" x="0" y="-9.5" width="145.65625" height="19" style="fill: rgb(0, 0, 0); fill-opacity: 0;"/></g><g class="traces" transform="translate(180.328125,52.5)" style="opacity: 1;"><text class="legendtext" text-anchor="start" x="40" y="4.680000000000001" style="font-family: 'Open Sans', verdana, arial, sans-serif; font-size: 12px; fill: rgb(68, 68, 68); fill-opacity: 1; white-space: pre;">No federated learning</text><g class="layers" style="opacity: 1;"><g class="legendfill"/><g class="legendlines"><path class="js-line" d="M5,0h30" style="fill: none; stroke: rgb(127, 127, 127); stroke-opacity: 1; stroke-width: 2px;"/></g><g class="legendsymbols"><g class="legendpoints"/></g></g><rect class="legendtoggle" x="0" y="-9.5" width="174.015625" height="19" style="fill: rgb(0, 0, 0); fill-opacity: 0;"/></g></g></g><rect class="scrollbar" rx="20" ry="3" width="0" height="0" x="0" y="0" style="fill: rgb(128, 139, 164); fill-opacity: 1;"/></g><g class="g-gtitle"><text class="gtitle" x="400" y="75" text-anchor="middle" dy="0em" style="font-family: 'Open Sans', verdana, arial, sans-serif; font-size: 17px; fill: rgb(68, 68, 68); opacity: 1; font-weight: normal; white-space: pre;">Accuracy score by aggregation methods for 2 nodes</text></g><g class="g-xtitle"><text class="xtitle" x="435" y="572" text-anchor="middle" style="font-family: 'Open Sans', verdana, arial, sans-serif; font-size: 14px; fill: rgb(68, 68, 68); opacity: 1; font-weight: normal; white-space: pre;">Aggregation methods</text></g><g class="g-ytitle"><text class="ytitle" transform="rotate(-90,42,335)" x="42" y="335" text-anchor="middle" style="font-family: 'Open Sans', verdana, arial, sans-serif; font-size: 14px; fill: rgb(68, 68, 68); opacity: 1; font-weight: normal; white-space: pre;">Accuracy score</text></g></g></svg>