<svg class="main-svg" xmlns="http://www.w3.org/2000/svg" xmlns:xlink="http://www.w3.org/1999/xlink" width="800" height="600" style="" viewBox="0 0 800 600"><rect x="0" y="0" width="800" height="600" style="fill: rgb(255, 255, 255); fill-opacity: 1;"/><defs id="defs-6fdb4d"><g class="clips"><clipPath id="clip6fdb4dxyplot" class="plotclip"><rect width="710" height="370"/></clipPath><clipPath class="axesclip" id="clip6fdb4dx"><rect x="80" y="0" width="710" height="600"/></clipPath><clipPath class="axesclip" id="clip6fdb4dy"><rect x="0" y="150" width="800" height="370"/></clipPath><clipPath class="axesclip" id="clip6fdb4dxy"><rect x="80" y="150" width="710" height="370"/></clipPath></g><g class="gradients"/><g class="patterns"/></defs><g class="bglayer"/><g class="layer-below"><g class="imagelayer"/><g class="shapelayer"/></g><g class="cartesianlayer"><g class="subplot xy"><g class="layer-subplot"><g class="shapelayer"/><g class="imagelayer"/></g><g class="minor-gridlayer"><g class="x"/><g class="y"/></g><g class="gridlayer"><g class="x"><path class="xgrid crisp" transform="translate(222.28,0)" d="M0,150v370" style="stroke: rgb(238, 238, 238); stroke-opacity: 1; stroke-width: 1px;"/><path class="xgrid crisp" transform="translate(364.57,0)" d="M0,150v370" style="stroke: rgb(238, 238, 238); stroke-opacity: 1; stroke-width: 1px;"/><path class="xgrid crisp" transform="translate(506.85,0)" d="M0,150v370" style="stroke: rgb(238, 238, 238); stroke-opacity: 1; stroke-width: 1px;"/><path class="xgrid crisp" transform="translate(649.14,0)" d="M0,150v370" style="stroke: rgb(238, 238, 238); stroke-opacity: 1; stroke-width: 1px;"/></g><g class="y"><path class="ygrid crisp" transform="translate(0,494.98)" d="M80,0h710" style="stroke: rgb(238, 238, 238); stroke-opacity: 1; stroke-width: 1px;"/><path class="ygrid crisp" transform="translate(0,442.14)" d="M80,0h710" style="stroke: rgb(238, 238, 238); stroke-opacity: 1; stroke-width: 1px;"/><path class="ygrid crisp" transform="translate(0,389.3)" d="M80,0h710" style="stroke: rgb(238, 238, 238); stroke-opacity: 1; stroke-width: 1px;"/><path class="ygrid crisp" transform="translate(0,336.45)" d="M80,0h710" style="stroke: rgb(238, 238, 238); stroke-opacity: 1; stroke-width: 1px;"/><path class="ygrid crisp" transform="translate(0,283.61)" d="M80,0h710" style="stroke: rgb(238, 238, 238); stroke-opacity: 1; stroke-width: 1px;"/><path class="ygrid crisp" transform="translate(0,230.76999999999998)" d="M80,0h710" style="stroke: rgb(238, 238, 238); stroke-opacity: 1; stroke-width: 1px;"/><path class="ygrid crisp" transform="translate(0,177.92000000000002)" d="M80,0h710" style="stroke: rgb(238, 238, 238); stroke-opacity: 1; stroke-width: 1px;"/></g></g><g class="zerolinelayer"><path class="xzl zl crisp" transform="translate(80,0)" d="M0,150v370" style="stroke: rgb(68, 68, 68); stroke-opacity: 1; stroke-width: 1px;"/></g><path class="xlines-below"/><path class="ylines-below"/><g class="overlines-below"/><g class="xaxislayer-below"/><g class="yaxislayer-below"/><g class="overaxes-below"/><g class="plot" transform="translate(80,150)" clip-path="url(#clip6fdb4dxyplot)"><g class="scatterlayer mlayer"><g class="trace scatter trace5025da" style="stroke-miterlimit: 2; opacity: 1;"><g class="fills"/><g class="errorbars"/><g class="lines"><path class="js-line" d="M0,78.39L2.13,82.88L2.85,85.96L3.56,86.76L4.27,92.3L5.69,110.09L6.4,157.83L7.11,156.07L7.83,161L9.96,174.3L10.67,234.72L11.38,233.92L12.09,235.25L12.81,238.59L13.52,234.72L15.65,252.07L16.36,251.63L17.07,250.48L17.79,254L19.21,252.51L19.92,253.74L20.63,267.74L21.34,266.6L22.05,266.42L22.77,223.36L23.48,227.94L24.19,204.86L25.61,324.2L26.32,322.96L27.75,325.17L28.46,324.81L29.88,325.69L30.59,325.34L31.3,327.72L32.01,326.31L33.44,326.58L34.15,328.87L34.86,328.07L35.57,328.87L36.28,330.27L36.99,333.62L39.13,337.58L39.84,341.9L41.26,326.93L41.97,327.72L43.4,329.75L44.11,328.34L46.24,329.13L46.95,284.48L48.38,287.21L49.09,291.52L50.51,290.03L51.22,291.26L51.93,292.49L52.65,291.7L54.07,293.2L54.78,294.96L56.2,309.75L56.91,309.23L57.63,308.7L58.34,238.59L59.05,237.18L59.76,237.89L60.47,239.12L61.18,238.42L61.89,241.32L62.61,240L64.03,241.5L64.74,240.97L66.16,249.34L66.87,248.98L67.59,254.44L68.3,252.24L69.01,260.43L69.72,309.23L70.43,308.61L71.14,310.02L72.57,311.43L73.28,314.95L73.99,315.3L74.7,316.54L76.83,328.07L77.55,296.19L78.97,295.31L79.68,304.91L80.39,303.5L81.1,303.94L82.53,304.91L83.24,307.82L85.37,316.54L86.08,318.65L87.51,318.91L88.22,321.38L88.93,321.29L89.64,323.49L91.06,324.55L91.77,328.6L92.48,316.8L93.2,318.47L94.62,328.34L95.33,328.07L96.04,327.19L96.75,326.75L97.46,290.47L99.6,313.54L100.31,312.75L101.02,313.45L101.73,312.22L102.44,312.66L103.16,312.04L103.87,311.43L104.58,312.22L105.29,310.63L106,312.4L107.42,311.69L108.14,311.6L108.85,311.52L109.56,309.58L110.27,311.69L110.98,310.72L111.69,310.19L112.4,310.9L113.12,297.25L113.83,297.42L114.54,312.4L115.25,313.45L115.96,312.92L116.67,314.25L117.38,311.69L118.81,313.54L119.52,316.54L120.23,316.89L120.94,351.5L121.65,293.55L122.36,293.81L123.08,293.81L124.5,291.26L125.21,234.36L125.92,232.96L126.63,235.33L127.34,233.31L128.06,211.55L130.19,232.96L130.9,235.25L131.61,233.31L132.32,243.17L133.75,242.56L134.46,246.69L135.17,245.11L135.88,245.99L136.59,246.34L137.3,245.29L138.73,252.24L139.44,251.1L140.15,251.36L140.86,256.38L142.28,262.81L143,263.6L143.71,262.37L144.42,264.22L147.26,264.48L147.98,266.51L150.11,265.72L150.82,266.42L152.24,266.86L152.96,267.48L153.67,268.45L154.38,271.71L155.09,274.97L155.8,271.71L156.51,272.68L157.22,232.25L157.94,234.8L158.65,233.66L160.07,243.96L160.78,243.17L161.49,242.73L162.2,248.54L162.92,253.48L163.63,266.07L164.34,267.22L165.05,266.77L167.18,266.25L167.9,266.6L168.61,265.89L169.32,266.42L170.74,265.37L171.45,266.25L174.3,266.42L175.01,266.86L176.43,269.68L177.14,273.38L177.86,280.95L178.57,309.67L179.99,310.28L180.7,304.38L181.41,310.46L182.12,309.84L182.84,310.19L183.55,309.49L189.95,309.93L190.66,308.96L191.37,310.63L192.08,309.31L192.8,309.58L193.51,265.81L194.22,266.07L194.93,265.19L197.06,266.33L197.78,267.39L198.49,249.42L199.2,250.22L199.91,253.74L200.62,263.08L201.33,285.45L202.04,285.45L202.76,282.8L203.47,278.93L204.18,279.55L204.89,276.64L205.6,277.78L207.74,276.37L208.45,277.52L209.87,273.12L210.58,273.47L212,254.8L212.72,247.22L216.27,223.71L216.98,223.88L217.7,221.59L218.41,222.47L219.12,222.03L219.83,220.1L220.54,220.45L221.25,221.95L221.96,221.15L222.68,222.47L226.23,262.99L226.94,265.1L228.37,265.1L229.08,266.33L230.5,265.28L231.21,266.16L231.92,266.69L232.64,265.1L233.35,269.68L234.06,269.06L234.77,268.36L235.48,268.98L236.19,267.83L236.9,274.53L238.33,287.56L239.04,286.86L239.75,285.89L240.46,290.47L241.17,292.14L241.88,305.09L242.6,305.17L243.31,301.74L244.02,304.82L244.73,298.04L245.44,305.61L246.15,305.35L246.86,304.91L247.58,305.17L248.29,304.21L249.71,305.35L250.42,305.09L251.13,300.86L251.84,304.56L253.98,304.82L254.69,303.5L255.4,303.85L256.11,305.35L257.54,260.87L258.25,261.93L258.96,260.87L259.67,262.55L261.09,264.75L261.8,268.27L262.52,278.84L263.23,318.56L263.94,329.57L264.65,318.91L265.36,319L266.07,317.06L266.78,316.71L267.49,317.42L268.21,318.38L268.92,317.77L271.76,311.52L272.47,312.4L273.9,311.69L274.61,311.52L276.03,267.39L276.74,268.18L278.17,266.25L278.88,266.51L280.3,266.33L281.01,266.95L281.72,225.65L282.43,227.05L283.15,227.14L283.86,227.05L284.57,228.99L285.28,237.8L285.99,236.3L286.7,237.27L287.41,249.51L288.84,271.97L289.55,276.9L290.26,274.97L290.97,275.49L291.68,276.46L292.39,280.87L295.24,310.37L295.95,310.11L297.37,310.81L298.09,313.1L298.8,314.77L299.51,312.04L300.22,314.86L300.93,314.6L302.35,314.16L303.07,315.21L304.49,314.25L305.2,315.83L305.91,316.62L306.62,316.27L307.33,317.15L308.05,315.57L308.76,315.83L309.47,310.55L310.89,315.48L311.6,315.57L313.74,315.21L314.45,314.25L315.16,314.6L315.87,312.4L316.58,313.19L317.29,312.57L318.72,313.01L319.43,287.21L320.14,283.07L320.85,283.68L322.99,281.57L323.7,282.1L325.12,280.6L325.83,276.9L326.54,278.31L327.25,274.61L328.68,274.61L329.39,274.53L330.81,271.53L331.52,272.41L332.23,271.18L332.95,271.62L334.37,270.39L335.08,271L336.5,270.74L337.21,270.47L338.64,271.35L339.35,270.56L340.77,272.32L341.48,270.74L342.19,274.88L342.91,274.35L344.33,273.47L345.04,272.32L348.6,289.23L349.31,289.23L350.02,288.79L350.73,290.03L351.44,293.72" style="vector-effect: none; fill: none; stroke: rgb(31, 119, 180); stroke-opacity: 1; stroke-width: 2px; opacity: 1;"/></g><g class="points"/><g class="text"/></g><g class="trace scatter trace93e3c0" style="stroke-miterlimit: 2; opacity: 1;"><g class="fills"/><g class="errorbars"/><g class="lines"><path class="js-line" d="M0,77.16L0.71,78.04L1.42,76.8L4.27,88.78L4.98,100.58L5.69,102.17L6.4,98.03L7.83,121.54L8.54,89.31L9.25,89.05L9.96,96.18L12.09,125.77L12.81,111.15L13.52,79.71L14.23,88.78L17.79,123.57L18.5,136.87L19.21,108.51L19.92,115.64L21.34,135.37L22.05,140.13L22.77,154.31L23.48,147.09L25.61,99.44L26.32,104.02L27.03,117.05L27.75,116.7L28.46,127.44L29.17,107.8L29.88,109.65L30.59,110.09L31.3,117.85L32.01,124.98L32.73,95.21L34.86,111.86L35.57,120.4L36.28,121.1L36.99,129.56L37.71,143.83L38.42,118.73L39.13,122.78L39.84,120.84L41.26,122.87L41.97,131.94L42.69,140.83L43.4,124.89L44.11,111.5L44.82,82.53L45.53,83.94L46.24,87.64L49.09,93.98L49.8,92.92L50.51,96.97L51.22,106.92L53.36,116.17L54.07,102.96L56.2,121.81L56.91,93.89L57.63,97.94L58.34,96L61.18,107.98L61.89,117.58L63.32,133.52L64.03,116L64.74,116.35L65.45,130.44L66.16,119.69L66.87,127.89L68.3,97.06L69.01,100.23L71.14,108.77L71.85,118.64L72.57,95.39L73.28,98.29L74.7,107.63L75.41,120.49L76.83,133.7L77.55,134.93L78.26,147.26L78.97,113.35L79.68,123.83L80.39,102.34L81.1,100.94L81.81,102.08L82.53,102.78L83.24,102.26L83.95,102.26L84.66,110.8L85.37,110.45L86.08,115.64L88.22,136.87L88.93,100.49L89.64,100.76L90.35,98.82L91.77,107.89L92.48,104.81L93.91,116.35L94.62,116L95.33,115.47L96.04,121.81L96.75,104.9L97.46,110.54L98.18,105.96L98.89,112.74L100.31,125.68L101.02,126.3L101.73,126.48L102.44,132.47L103.87,144L104.58,122.51L106,131.76L106.71,101.82L108.85,112.21L109.56,123.39L110.27,124.27L110.98,127L112.4,150.61L113.12,129.82L114.54,148.32L115.25,149.02L115.96,148.32L116.67,149.37L117.38,150.34L118.1,153.25L118.81,154.57L119.52,158.09L122.36,170.07L123.08,169.9L125.21,183.28L125.92,182.31L126.63,181.79L127.34,183.28L128.06,185.22L128.77,172.71L130.19,169.72L130.9,170.51L131.61,169.54L132.32,178.26L133.04,178.26L133.75,176.5L134.46,181.79L135.17,180.82L137.3,178L138.02,184.25L138.73,180.55L139.44,182.49L140.15,181.26L140.86,187.16L142.28,172.63L143,171.3L143.71,171.3L144.42,168.93L145.13,172.19L145.84,170.42L147.26,171.39L147.98,171.13L148.69,172.45L149.4,171.83L150.11,172.19L150.82,170.78L152.24,165.49L152.96,161.53L154.38,163.47L155.09,162.06L157.22,166.02L157.94,169.63L159.36,171.04L160.07,170.51L160.78,174.48L161.49,184.34L163.63,179.58L164.34,179.06L165.05,177.21L165.76,184.96L166.47,187.51L167.18,157.65L167.9,155.54L168.61,160.74L170.74,152.72L171.45,151.58L172.88,149.99L173.59,151.14L175.01,124.45L175.72,121.9L176.43,125.16L177.14,122.78L178.57,124.63L179.28,127.62L179.99,129.29L180.7,127.8L181.41,132.99L182.12,132.64L184.26,137.66L184.97,145.94L185.68,146.64L186.39,150.87L187.1,150.78L187.82,153.69L188.53,153.6L189.24,151.66L189.95,155.89L190.66,168.49L191.37,136.25L192.08,140.3L193.51,150.43L194.22,149.55L194.93,166.73L195.64,155.54L196.35,156.16L197.06,153.69L198.49,164.35L199.2,164.44L199.91,163.82L200.62,173.42L202.04,146.73L202.76,148.85L203.47,147.61L204.18,152.02L205.6,158.01L206.31,158.53L207.74,167.08L208.45,175.09L210.58,198.08L211.29,181.61L212,186.45L212.72,199.84L213.43,128.41L214.14,128.94L214.85,129.29L215.56,141.18L216.27,120.75L217.7,126.3L218.41,125.95L219.12,127.62L219.83,126.12L221.25,133.26L221.96,107.8L223.39,110.71L224.1,111.68L227.66,133.87L228.37,140.3L229.08,161.18L229.79,136.6L230.5,140.74L231.21,113.97L231.92,113.44L232.64,115.56L233.35,115.11L234.06,113.27L236.19,119.96L236.9,120.75L239.04,130.7L239.75,129.21L240.46,122.69L241.17,124.19L241.88,122.95L242.6,124.1L243.31,126.92L244.02,125.95L245.44,130.35L246.15,135.2L246.86,139.6L247.58,126.83L249,128.06L249.71,133.7L251.13,129.73L251.84,131.67L253.27,135.9L253.98,140.74L254.69,140.74L255.4,144.71L256.82,158.45L257.54,177.29L258.25,161.7L258.96,176.41L260.38,107.45L261.09,109.39L261.8,127.53L262.52,108.42L263.23,109.74L263.94,117.4L266.07,127.44L266.78,137.66L267.49,149.73L268.21,130.26L271.05,158.36L271.76,130.53L273.19,103.75L273.9,114.85L275.32,136.43L276.03,140.57L277.45,141.98L278.17,142.51L280.3,156.68L281.01,168.05L281.72,144.88L282.43,147.61L283.86,144.44L284.57,147.79L286.7,156.95L287.41,158.36L288.13,158.01L288.84,143.83L289.55,141.27L290.26,118.2L290.97,114.41L291.68,117.93L292.39,119.61L293.11,119.08L295.24,140.92L295.95,142.51L296.66,156.33L297.37,137.22L298.09,151.14L298.8,127.44L300.22,135.37L300.93,135.46L302.35,142.15L303.07,140.48L304.49,141.71L305.2,147.35L305.91,146.03L306.62,152.28L308.05,123.39L308.76,129.82L309.47,128.06L310.18,136.87L312.31,152.99L313.03,134.93L315.16,145.24L315.87,133.61L318.72,152.28L319.43,164.35L321.56,131.67L322.27,133.08L322.99,138.54L323.7,137.75L326.54,147.7L327.25,149.73L327.97,162.23L328.68,114.94L329.39,114.5L330.1,116L332.23,128.41L332.95,131.41L334.37,147.79L335.08,162.85L335.79,142.42L336.5,148.93L337.93,155.01L338.64,158.01L339.35,156.33L340.06,161.97L343.62,187.33L344.33,183.9L345.04,191.39L345.75,175.62L347.17,183.9L347.89,185.66L348.6,167.34L349.31,168.4L351.44,174.56L352.15,173.95L355,183.63L355.71,187.07L356.42,187.69L357.13,191.03L357.85,193.32L358.56,170.51L359.27,175.8L359.98,147.7L362.11,160.82L362.83,171.75L363.54,173.51L364.25,181.17L364.96,174.3L365.67,180.29L366.38,178.79L367.09,181.43L369.23,196.67L369.94,184.52L371.36,198.43L372.07,142.59L373.5,149.55L374.21,151.05L375.63,153.43L376.34,154.75L377.77,164.26L378.48,164.79L379.19,166.11L379.9,178.7L380.61,181.61L381.32,179.5L382.75,192L383.46,176.15L384.17,175.97L384.88,178.7L386.3,183.28L387.01,184.52L387.73,183.46L388.44,186.19L389.86,183.72L390.57,185.57L392.71,192L393.42,177.21L394.84,186.19L395.55,186.89L396.26,189.45L396.97,197.99L399.11,206.89L399.82,207.59L401.24,216.93L401.95,185.22L403.38,188.3L404.09,187.6L404.8,187.51L405.51,190.5L406.22,191.03L406.93,192.53L408.36,199.31L409.07,200.02L409.78,199.58L410.49,200.1L411.2,199.75L411.91,206.53L413.34,190.24L414.05,198.61L414.76,142.33L415.47,147.53L416.18,147.97L416.89,152.11L419.03,162.32L419.74,162.76L421.16,178.61L421.87,178.09L422.59,185.31L423.3,152.81L426.14,176.94L426.85,146.56L427.57,145.76L428.28,150.08L430.41,163.38L431.12,165.84L433.26,176.59L433.97,180.46L434.68,188.13L435.39,170.16L436.1,162.59L436.81,162.67L437.53,160.12L438.24,155.45L438.95,158.62L439.66,158.62L440.37,155.98L441.08,163.73L441.79,144.35L442.51,150.34L443.22,123.04L444.64,119.87L445.35,119.25L446.77,123.04L447.48,127.62L448.2,134.4L448.91,149.55L451.04,173.07L451.75,128.06L452.46,133.96L453.18,161.26L453.89,160.3L454.6,161.26L456.02,165.76L456.73,160.82L457.44,154.84L458.16,160.03L458.87,167.52L459.58,149.02L460.29,157.04L461,136.78L461.71,136.34L462.42,139.42L464.56,155.01L465.27,164.17L466.69,142.95L467.4,141.45L469.54,155.54L470.25,154.84L471.67,169.28L472.38,185.4L473.1,148.32L473.81,154.13L474.52,155.36L475.23,160.56L477.36,184.52L478.08,152.02L480.92,160.82L481.63,164.26L482.34,163.82L483.06,164.61L484.48,177.12L485.19,176.94L485.9,164.35L486.61,172.1L488.04,177.38L488.75,188.39L490.17,199.58L490.88,199.75L491.59,197.11L492.3,199.4L493.02,199.14L493.73,195.79L495.15,195.96L495.86,199.93L498,198.96L498.71,199.05L499.42,199.22L500.13,203.45L501.55,177.29L502.26,180.64L505.11,192.53L505.82,196.67L506.53,197.81L507.24,209.62L508.67,125.33L509.38,125.07L510.09,121.72L510.8,122.6L513.65,142.06L514.36,152.99L516.49,171.48L517.2,157.74L518.63,165.23L519.34,151.14L520.76,148.85L521.47,152.63L522.18,153.07L522.9,152.11L523.61,149.82L524.32,153.78L525.03,151.4L525.74,154.75L526.45,155.28L527.16,161.62L527.88,135.28L528.59,138.54L530.01,142.68L530.72,148.49L531.43,130.18L532.14,131.5L534.99,161.88L535.7,138.63L537.84,148.32L538.55,159.5L539.97,176.77L540.68,168.22L542.1,147L542.82,151.75L543.53,148.85L544.24,149.9L547.08,185.57L547.8,165.76L548.51,130L549.22,132.91L549.93,133.7L550.64,132.82L551.35,137.04L552.06,146.47L554.2,168.57L554.91,171.04L555.62,179.14L556.33,162.85L557.04,177.47L557.76,173.51L558.47,173.68L559.18,175.71L561.31,181.43L562.02,180.9L564.16,194.12L564.87,187.77L565.58,186.81L566.29,199.66L568.43,147.09L569.14,139.78L569.85,134.31L570.56,137.57L571.27,137.22L571.98,145.5L573.41,155.63L574.12,166.64L575.54,127.09L576.25,131.32L578.39,132.73L579.1,135.99L580.52,134.31L581.23,137.4L582.66,142.59L583.37,155.89L584.08,156.68L584.79,151.66L585.5,161.88L586.21,158.45L588.35,166.02L589.06,176.94L589.77,188.57L590.48,168.05L591.19,164.26L591.9,176.15L592.62,174.48L593.33,182.67L594.04,187.16L594.75,184.69L596.17,198.43L596.88,176.41L598.31,206.53L599.02,206.8L599.73,208.65L600.44,213.58L601.86,225.38L602.58,221.59L604,229.61L604.71,199.75L605.42,209.18L606.13,187.51L606.84,189.98L607.56,188.74L608.98,205.65L609.69,206.53L610.4,216.49L611.11,152.19L613.25,168.93L613.96,172.01L614.67,177.73L615.38,159.94L616.09,159.06L616.8,161.44L617.52,162.32L618.23,164.79L619.65,122.95L620.36,126.56L621.07,125.95L621.78,126.74L622.49,127.89L623.21,131.23L623.92,133.17L624.63,137.31L625.34,141.45L626.05,131.76L628.19,154.84L628.9,133.08L630.32,136.34L631.03,135.64L633.17,149.99L633.88,158.45L635.3,169.28L636.01,189.36L636.72,142.86L637.43,165.84L638.15,167.96L638.86,164.08L640.28,169.1L640.99,171.66L643.13,181.08L643.84,186.72L645.26,162.76L645.97,162.76L646.68,162.23L647.39,164.35L648.82,169.54L649.53,168.84L650.24,169.46L650.95,167.96L653.09,161.7L653.8,169.28L654.51,170.69L655.22,181.79L655.93,181.35L656.64,178.79L658.07,184.6L658.78,184.43L660.2,220.8L660.91,227.67L662.33,248.1L663.05,184.87L663.76,187.42L664.47,196.58L665.18,199.14L665.89,217.89L666.6,195.08L667.31,141.27L668.03,139.33L668.74,146.47L670.16,161.09L670.87,128.85L672.29,147.09L673.01,120.14L674.43,127.97L675.14,139.78L675.85,142.68L676.56,158.71L677.27,158.97L677.99,140.04L678.7,141.27L679.41,148.05L680.12,162.32L680.83,140.74L681.54,134.23L682.25,139.51L682.97,139.16L683.68,151.14L684.39,149.46L685.1,168.49L685.81,163.2L686.52,166.02L687.23,178.44L687.95,156.68L689.37,170.34L690.08,158.01L690.79,153.95L691.5,161.09L692.21,167.25L692.93,150.34L695.77,178.61L696.48,193.06L697.19,174.04L697.91,101.11L698.62,107.98L699.33,148.58L700.75,156.51L701.46,174.04L702.17,113.53L702.89,117.32L703.6,124.19L704.31,110.8L706.44,135.64L707.15,135.55L707.87,132.2L708.58,149.37L709.29,125.16L710,138.28" style="vector-effect: none; fill: none; stroke: rgb(255, 127, 14); stroke-opacity: 1; stroke-width: 2px; opacity: 1;"/></g><g class="points"/><g class="text"/></g><g class="trace scatter traced33414" style="stroke-miterlimit: 2; opacity: 1;"><g class="fills"/><g class="errorbars"/><g class="lines"><path class="js-line" d="M0,80.41L0.71,81.3L1.42,80.94L2.85,79.18L3.56,81.21L5.69,88.87L6.4,93.45L7.83,104.02L8.54,112.12L9.25,80.68L9.96,81.38L10.67,82.79L11.38,85.96L12.09,84.82L12.81,96.36L13.52,95.12L14.94,114.85L15.65,93.45L16.36,100.85L17.07,98.56L17.79,108.51L18.5,90.72L19.21,91.07L19.92,93.27L21.34,115.91L22.05,119.61L24.19,146.91L24.9,128.24L25.61,98.21L26.32,107.63L27.03,122.78L27.75,103.49L29.17,70.64L29.88,78.12L30.59,78.48L31.3,86.76L32.73,92.66L33.44,100.05L34.86,119.61L35.57,101.02L36.28,100.94L36.99,101.82L37.71,101.29L38.42,106.22L39.13,115.2L39.84,93.01L41.26,96.44L41.97,100.67L44.11,125.6L44.82,126.65L45.53,130.35L46.24,115.82L46.95,126.65L47.67,109.13L48.38,89.66L49.09,92.57L49.8,99.79L50.51,99.53L51.22,105.87L51.93,108.25L52.65,83.23L54.07,95.3L54.78,79.27L56.91,87.2L57.63,94.51L59.05,99.53L59.76,111.94L60.47,95.12L61.18,99.17L63.32,121.54L64.03,105.16L64.74,109.04L65.45,122.95L66.87,72.75L67.59,74.69L69.01,79.89L69.72,78.3L72.57,109.04L73.28,123.57L73.99,112.65L74.7,89.22L75.41,64.21L76.12,70.9L77.55,77.16L78.26,88.78L79.68,104.46L80.39,103.14L81.81,101.73L82.53,111.24L83.24,120.75L83.95,101.64L85.37,122.07L86.08,123.83L88.22,140.04L88.93,124.63L89.64,96.36L90.35,98.91L91.77,104.46L92.48,113.97L93.2,87.72L93.91,92.13L95.33,95.03L96.04,101.82L97.46,127.53L98.18,77.33L98.89,76.36L99.6,79.8L100.31,90.81L101.02,72.49L101.73,74.07L102.44,77.86L103.87,92.22L104.58,70.11L106,72.93L106.71,77.86L110.27,106.66L110.98,89.13L112.4,96.44L113.12,96.36L115.25,114.85L115.96,102.61L116.67,106.48L117.38,85.52L118.1,80.24L118.81,80.94L119.52,97.24L120.23,95.56L122.36,110.45L123.08,109.57L123.79,123.13L124.5,108.77L125.21,91.07L125.92,94.86L126.63,95.3L127.34,103.49L128.77,79.09L129.48,79.27L130.19,80.85L130.9,87.37L131.61,94.59L132.32,71.96L133.75,74.69L134.46,80.59L135.17,82.7L135.88,87.64L138.02,109.65L138.73,107.54L139.44,108.07L140.15,113.97L140.86,96.09L141.57,99.88L142.28,112.38L143,145.85L143.71,140.92L144.42,143.12L145.84,135.02L146.55,138.28L147.26,137.57L147.98,146.47L149.4,149.73L150.11,154.75L150.82,136.25L151.53,136.43L152.24,137.13L153.67,150.43L154.38,177.56L155.09,179.06L155.8,178.35L156.51,177.73L157.22,181.61L157.94,164.44L158.65,166.02L159.36,167.08L160.07,166.02L161.49,170.78L162.2,169.81L163.63,168.57L164.34,171.48L165.05,170.25L165.76,175.09L166.47,179.32L167.18,178.88L167.9,179.5L168.61,183.63L169.32,184.96L170.03,183.72L170.74,184.52L171.45,183.81L172.16,184.87L172.88,189.18L174.3,165.05L175.01,166.81L175.72,166.55L176.43,162.41L177.14,167.08L177.86,162.41L178.57,172.89L179.28,153.69L179.99,151.14L180.7,151.93L181.41,153.34L182.12,149.82L182.84,153.78L183.55,153.6L184.26,154.48L184.97,156.42L185.68,154.04L186.39,160.65L187.1,159.33L187.82,159.42L188.53,156.51L189.24,161.79L189.95,158.53L191.37,162.59L192.08,161.97L192.8,170.42L193.51,156.07L194.22,155.45L194.93,156.95L196.35,164.52L197.06,168.4L198.49,182.58L199.2,165.4L203.47,185.31L204.18,197.02L204.89,202.66L205.6,200.72L207.02,217.1L207.74,149.73L208.45,151.49L209.16,151.14L211.29,168.22L212,100.76L212.72,103.75L213.43,103.05L214.85,106.57L215.56,116.52L216.27,117.05L216.98,127L217.7,99.7L218.41,102.61L219.12,104.19L219.83,103.49L221.25,110.27L221.96,112.38L222.68,121.28L223.39,95.3L224.81,102.26L225.52,115.29L226.23,95.12L226.94,100.76L227.66,107.28L228.37,86.84L229.79,92.92L230.5,93.27L231.21,94.24L231.92,98.82L233.35,121.81L234.06,92.04L234.77,90.45L235.48,93.98L236.19,96.71L236.9,103.4L238.33,113.18L239.04,119.43L239.75,129.38L240.46,87.55L241.88,84.73L242.6,86.58L243.31,78.3L244.02,79.53L244.73,76.54L245.44,78.74L246.15,89.57L246.86,77.51L247.58,79.89L248.29,79.45L249.71,89.13L250.42,92.3L253.27,124.1L253.98,108.51L254.69,111.5L255.4,88.16L256.11,90.63L256.82,105.6L257.54,84.82L258.25,89.4L258.96,100.85L259.67,82.09L260.38,85.08L261.09,83.67L261.8,95.65L262.52,78.21L263.23,80.33L263.94,91.25L264.65,91.42L265.36,94.77L266.07,113.35L266.78,58.04L268.21,61.74L268.92,62.27L271.05,83.41L271.76,84.64L272.47,82.7L273.19,87.2L275.32,107.89L276.03,109.39L276.74,110.71L277.45,123.04L278.17,73.19L278.88,74.51L279.59,75.04L281.72,88.25L282.43,97.06L283.15,78.48L283.86,81.38L285.28,98.21L285.99,112.91L286.7,96.88L287.41,103.4L288.84,75.57L289.55,80.59L290.97,91.42L291.68,90.01L293.11,89.49L293.82,99.97L294.53,99.44L295.24,104.99L295.95,108.33L296.66,121.37L297.37,76.54L298.09,82.26L298.8,81.82L299.51,86.93L300.93,100.67L301.64,94.24L302.35,64.83L303.07,68.79L303.78,69.23L304.49,67.47L306.62,87.46L307.33,88.96L308.05,105.34L308.76,102.61L309.47,118.29L310.18,91.95L311.6,73.28L312.31,78.04L313.03,75.92L313.74,81.38L314.45,86.49L315.16,98.38L316.58,104.19L317.29,120.4L318.72,90.1L319.43,97.32L320.85,113.35L321.56,128.5L322.27,94.24L322.99,105.25L323.7,98.82L324.41,118.64L325.12,68.26L325.83,69.32L326.54,73.54L328.68,110.98L329.39,74.78L330.1,79.62L330.81,90.01L331.52,94.51L332.23,91.51L332.95,97.24L333.66,115.03L335.08,142.42L335.79,122.78L338.64,134.05L339.35,146.91L340.77,127.71L341.48,143.74L342.19,120.93L342.91,121.81L343.62,130.09L344.33,112.65L345.04,117.32L346.46,126.92L347.17,116L347.89,113.88L348.6,115.11L349.31,119.96L350.02,134.93L352.15,140.92L352.87,145.5L354.29,160.38L355,148.23L355.71,121.9L356.42,128.68L357.13,117.14L357.85,118.81L358.56,117.49L359.27,119.52L360.69,126.56L361.4,135.28L362.11,136.6L362.83,141.36L363.54,97.15L364.25,100.67L365.67,106.48L366.38,105.43L367.09,104.81L367.81,107.1L368.52,109.83L369.23,108.25L369.94,106.57L370.65,114.32L371.36,119.78L372.07,94.86L373.5,100.94L374.21,101.82L376.34,113.97L377.05,113.44L377.77,113.35L378.48,122.07L379.19,101.2L379.9,105.69L381.32,109.57L382.03,116.61L382.75,102.61L383.46,108.86L384.88,113.18L385.59,121.81L386.3,132.64L387.01,105.52L387.73,102.96L388.44,108.69L389.15,121.46L389.86,92.13L391.28,105.43L391.99,104.99L392.71,111.24L393.42,126.56L394.13,102.78L394.84,109.65L395.55,110.45L396.26,116.52L397.69,123.75L398.4,132.64L399.11,116.79L399.82,117.49L400.53,124.36L401.24,102.87L401.95,104.81L403.38,105.07L404.09,107.45L404.8,107.01L405.51,110.89L406.93,114.5L407.65,110.71L411.2,146.64L411.91,121.54L412.63,121.19L413.34,127.97L414.05,135.72L414.76,120.84L418.32,141.54L419.03,144.97L419.74,150.52L420.45,121.19L421.16,118.9L421.87,120.66L424.01,141.62L424.72,144.09L428.28,177.38L428.99,146.03L430.41,155.45L431.12,137.04L431.83,132.47L432.55,134.14L433.26,136.25L433.97,134.84L435.39,149.37L436.1,124.98L436.81,128.15L437.53,138.54L439.66,152.37L440.37,163.64L441.08,175.53L441.79,141.1L443.22,155.01L443.93,154.48L444.64,155.8L445.35,168.84L446.06,154.75L446.77,114.32L448.91,128.85L449.62,131.5L451.75,152.19L452.46,183.72L454.6,202.31L455.31,168.49L456.02,164.88L456.73,165.14L457.44,164.26L458.16,163.55L458.87,165.67L459.58,166.02L460.29,164.96L461,168.31L461.71,149.9L463.14,148.49L463.85,149.99L465.27,149.37L465.98,152.81L467.4,150.61L468.12,153.95L470.25,160.47L470.96,157.65L471.67,160.38L472.38,143.47L473.81,149.29L474.52,148.85L475.94,155.8L476.65,157.3L477.36,156.77L478.08,153.16L478.79,158.8L479.5,156.95L480.92,161.18L481.63,165.67L482.34,166.55L483.06,170.42L484.48,179.23L485.19,182.58L485.9,182.67L486.61,186.37L487.32,188.3L488.04,193.06L488.75,207.85L489.46,176.32L490.17,182.58L490.88,200.46L491.59,203.36L492.3,200.81L493.02,200.81L493.73,202.31L494.44,201.6L495.15,203.54L495.86,203.36L496.57,205.48L498,207.15L498.71,210.06L501.55,227.41L502.26,194.12L502.98,195.35L503.69,188.92L505.82,190.59L506.53,190.06L507.96,194.64L508.67,194.03L510.09,201.6L510.8,207.77L512.22,188.39L512.94,186.45L516.49,210.32L517.2,220.27L518.63,234.63L519.34,157.48L521.47,174.74L522.18,179.41L522.9,189.8L523.61,174.56L525.03,178.17L525.74,177.47L526.45,189.1L527.16,171.48L527.88,107.8L528.59,110.62L529.3,110.01L530.72,117.93L531.43,123.83L532.86,119.25L533.57,124.98L534.28,128.06L534.99,124.63L536.41,141.54L537.12,141.8L537.84,151.05L538.55,114.23L539.97,121.37L540.68,124.01L542.1,128.41L542.82,136.34L543.53,139.25L544.24,147.53L544.95,137.04L545.66,139.86L547.08,153.16L547.8,152.11L549.22,174.48L549.93,147.53L550.64,146.29L551.35,149.46L552.78,115.2L553.49,116.61L555.62,127.89L556.33,130.79L557.04,133.17L557.76,143.03L559.18,158.89L559.89,169.63L561.31,119.96L562.02,120.31L562.74,118.37L563.45,119.25L564.87,127.8L565.58,121.9L569.14,144.53L569.85,153.78L570.56,130.44L571.27,137.4L571.98,135.02L572.7,138.37L573.41,139.07L574.12,142.06L574.83,141.8L575.54,153.6L576.25,162.59L576.96,137.84L577.68,136.96L578.39,109.13L579.1,111.15L579.81,110.27L580.52,112.74L581.23,122.87L581.94,123.39L582.66,130.79L584.79,149.64L585.5,154.66L586.21,128.5L586.92,136.6L587.64,146.12L588.35,122.34L589.06,128.06L589.77,94.42L591.19,105.87L591.9,104.9L593.33,111.94L594.04,114.15L595.46,120.75L596.17,122.07L596.88,125.95L597.6,119.87L598.31,120.66L599.02,130.35L599.73,112.3L600.44,123.22L601.15,124.54L601.86,129.82L602.58,129.03L603.29,130L604.71,149.46L605.42,124.54L608.27,150.7L608.98,128.33L609.69,124.98L610.4,128.68L611.82,146.03L612.54,127.27L613.96,126.12L614.67,135.64L615.38,136.08L616.09,115.47L616.8,121.63L617.52,107.98L618.94,116.61L619.65,128.5L620.36,132.55L621.07,142.95L621.78,129.56L622.49,131.76L623.21,136.25L623.92,129.21L624.63,125.86L625.34,127.97L626.05,129.56L626.76,134.14L628.19,111.77L628.9,116.17L629.61,115.56L630.32,117.67L631.03,127.36L631.74,126.74L633.17,139.42L633.88,138.81L635.3,159.15L636.01,142.24L637.43,115.2L638.15,119.87L638.86,120.66L639.57,118.37L640.99,123.83L641.7,127.8L643.84,136.25L644.55,146.12L645.26,133.26L645.97,138.81L647.39,148.85L648.11,137.04L649.53,152.28L650.24,161.44L650.95,129.21L651.66,129.73L652.37,131.94L653.09,130.62L653.8,133.26L654.51,132.64L655.22,138.89L655.93,120.84L656.64,125.95L658.07,135.72L658.78,130.7L660.2,138.01L660.91,138.45L662.33,147.44L663.05,155.63L664.47,179.41L665.18,137.93L665.89,148.41L666.6,147.88L667.31,146.38L668.03,144.71L668.74,147.53L670.16,154.75L670.87,134.4L671.58,135.2L672.29,141.62L673.01,122.78L673.72,128.59L674.43,127.36L675.14,132.91L675.85,140.74L676.56,138.37L677.99,152.63L678.7,123.48L679.41,123.31L680.12,129.82L680.83,129.91L681.54,131.58L682.97,133.26L683.68,139.51L686.52,159.59L687.23,138.01L687.95,138.63L688.66,140.3L689.37,146.91L690.08,129.73L690.79,99.53L691.5,102.96L692.21,104.02L692.93,102.78L695.06,110.8L695.77,110.45L696.48,112.83L697.19,123.66L697.91,124.71L698.62,133.43L700.75,150.17L701.46,138.45L702.89,151.22L703.6,120.75L705.02,132.82L705.73,117.14L707.15,128.59L707.87,140.92L708.58,124.1L709.29,126.39L710,136.08" style="vector-effect: none; fill: none; stroke: rgb(44, 160, 44); stroke-opacity: 1; stroke-width: 2px; opacity: 1;"/></g><g class="points"/><g class="text"/></g><g class="trace scatter trace400c40" style="stroke-miterlimit: 2; opacity: 1;"><g class="fills"/><g class="errorbars"/><g class="lines"><path class="js-line" d="M0,77.16L1.42,83.59L2.13,87.37L2.85,88.16L3.56,96.09L4.27,96.62L4.98,109.57L6.4,85.79L7.11,88.34L7.83,93.45L8.54,104.11L9.96,106.4L10.67,113.71L11.38,117.76L12.09,96.71L12.81,105.43L13.52,68.61L15.65,88.78L16.36,86.49L17.07,87.99L17.79,93.19L18.5,96.62L19.21,94.86L19.92,97.85L20.63,120.93L24.19,152.81L24.9,139.16L26.32,88.69L27.03,101.82L28.46,114.32L29.17,96L30.59,106.31L31.3,88.96L32.01,89.4L32.73,96L34.15,101.82L34.86,103.84L37.71,125.68L38.42,111.86L39.13,117.76L39.84,105.25L41.97,120.75L42.69,87.72L44.11,99.53L44.82,104.46L45.53,104.63L46.24,111.33L46.95,109.57L47.67,119.08L49.09,84.73L49.8,85.61L52.65,105.25L53.36,104.19L54.07,106.84L54.78,118.64L56.2,81.12L56.91,85.08L57.63,92.48L58.34,90.63L59.05,105.52L59.76,75.57L61.18,77.33L61.89,83.14L62.61,82.7L63.32,87.64L64.03,87.02L64.74,89.13L66.16,101.46L66.87,91.07L67.59,93.19L68.3,98.73L69.01,75.22L69.72,77.16L70.43,78.74L71.14,76.72L72.57,84.91L73.28,90.37L75.41,121.1L76.12,104.19L77.55,83.41L78.26,84.64L78.97,87.81L79.68,97.68L80.39,100.05L81.1,91.86L81.81,92.74L82.53,95.3L83.95,101.73L84.66,111.94L85.37,111.24L86.08,109.13L86.79,117.93L87.51,117.76L88.22,121.37L88.93,132.99L89.64,113.53L90.35,100.76L91.06,104.55L91.77,108.16L92.48,106.48L95.33,121.98L96.04,125.6L96.75,127.18L97.46,132.99L98.18,137.66L98.89,151.22L99.6,142.59L100.31,112.3L101.02,61.3L101.73,63.33L102.44,66.68L103.87,71.61L104.58,74.95L105.29,75.04L106,80.06L106.71,83.59L107.42,99.26L108.85,82.44L109.56,84.29L110.27,86.76L110.98,93.27L113.83,120.93L114.54,125.77L115.96,137.04L116.67,104.72L117.38,104.46L118.1,108.25L118.81,77.33L119.52,87.9L120.23,88.43L120.94,93.01L121.65,95.47L122.36,102.61L125.21,131.41L125.92,85.79L127.34,101.2L128.06,80.15L129.48,85.43L130.19,85.26L131.61,93.63L132.32,90.63L133.04,90.1L133.75,98.82L134.46,76.63L135.17,83.23L136.59,84.03L137.3,87.2L139.44,98.21L140.15,97.68L140.86,103.75L141.57,116.44L142.28,142.06L143,139.16L143.71,138.89L144.42,144.35L145.13,146.2L145.84,144.44L147.26,154.04L147.98,127.89L148.69,125.6L149.4,131.41L151.53,147.7L152.24,122.78L153.67,121.19L154.38,123.04L155.09,129.12L155.8,127L157.94,138.01L158.65,128.41L159.36,130.97L160.07,129.91L162.2,143.21L162.92,142.95L164.34,146.91L165.05,147.7L165.76,150.78L166.47,160.12L167.18,142.33L167.9,148.32L168.61,154.84L169.32,130.88L170.74,128.33L171.45,130.79L172.16,136.52L172.88,112.03L173.59,111.06L174.3,116.26L175.01,114.76L175.72,121.81L176.43,118.9L177.14,122.6L177.86,125.68L178.57,125.51L179.28,127.8L180.7,132.64L181.41,133.17L182.84,143.47L183.55,120.75L184.26,125.51L184.97,123.75L186.39,133.35L187.1,108.86L188.53,105.34L189.24,107.19L189.95,107.54L190.66,115.56L191.37,116.52L192.08,115.47L192.8,121.37L193.51,120.93L194.93,133.52L195.64,147L196.35,144.8L197.06,146.91L197.78,156.07L198.49,150.52L199.91,124.54L200.62,125.95L201.33,124.63L202.04,129.12L202.76,128.06L203.47,128.41L204.89,141.54L205.6,113.35L206.31,114.5L207.02,112.38L207.74,112.56L208.45,118.11L209.16,120.05L209.87,127.09L210.58,124.45L211.29,126.48L212,129.65L212.72,128.85L214.85,131.94L215.56,142.42L217.7,154.4L218.41,152.72L219.12,160.21L219.83,157.39L220.54,160.12L221.25,158.09L222.68,160.82L223.39,161.09L224.1,158.8L224.81,159.77L226.23,161.97L226.94,162.06L228.37,178.44L229.08,149.02L229.79,149.55L230.5,149.11L232.64,150.08L233.35,148.67L234.06,151.31L234.77,149.37L235.48,149.55L236.19,150.78L236.9,150.96L237.62,149.29L239.04,148.76L239.75,151.22L241.17,149.82L241.88,151.31L242.6,149.46L243.31,150.17L244.02,152.81L244.73,150.52L245.44,152.11L246.15,156.77L247.58,163.2L248.29,161.79L249,163.47L249.71,162.94L251.13,173.86L251.84,155.8L252.56,156.16L253.27,159.59L253.98,160.47L254.69,158.89L255.4,163.11L256.11,162.94L256.82,161.26L258.25,167.34L258.96,167.17L260.38,177.38L261.09,132.02L262.52,146.82L263.23,148.76L263.94,157.57L264.65,128.33L265.36,128.24L266.07,130.7L268.21,153.34L268.92,113.97L271.76,138.19L272.47,142.59L273.19,146.47L273.9,156.95L274.61,156.16L275.32,156.77L276.03,156.16L276.74,168.31L278.17,106.84L278.88,110.45L279.59,105.6L280.3,111.24L282.43,121.9L283.15,137.4L283.86,136.43L284.57,139.6L285.99,155.54L286.7,122.34L288.13,121.63L288.84,125.16L289.55,131.06L290.26,119.87L291.68,133.08L292.39,116.7L293.11,116L293.82,122.78L295.95,134.84L296.66,142.59L298.09,129.56L298.8,131.85L299.51,141.54L300.22,169.19L300.93,171.22L301.64,151.05L302.35,147.7L303.07,128.24L303.78,126.39L304.49,127.62L305.91,132.64L306.62,135.2L307.33,137.22L308.05,144.97L308.76,149.2L309.47,165.49L310.18,175.62L310.89,148.93L311.6,148.23L312.31,149.82L313.03,151.66L313.74,151.4L314.45,156.07L315.16,155.89L315.87,159.86L318.01,155.54L318.72,154.04L319.43,157.57L320.14,154.04L320.85,153.69L321.56,152.28L322.27,152.81L322.99,154.48L323.7,155.28L324.41,152.9L325.83,158.8L326.54,157.48L327.97,161.18L328.68,165.49L330.1,169.9L330.81,178.17L331.52,184.78L332.23,163.29L334.37,175.53L335.08,176.94L336.5,174.39L337.21,178L337.93,176.5L338.64,178L340.06,186.28L340.77,154.57L341.48,103.49L342.19,105.16L342.91,107.89L343.62,104.19L344.33,104.37L345.04,105.43L345.75,109.83L346.46,106.48L347.17,108.42L347.89,106.22L350.02,124.45L350.73,129.91L351.44,135.81L352.15,122.25L352.87,121.98L353.58,120.84L356.42,141.71L357.13,145.76L357.85,144.27L358.56,150.78L359.27,149.46L359.98,152.46L360.69,152.81L361.4,163.2L362.11,143.56L362.83,153.87L363.54,132.55L364.25,134.49L364.96,141.36L365.67,140.74L366.38,132.02L367.09,134.4L368.52,152.37L369.23,131.67L370.65,143.3L371.36,126.92L372.07,125.6L372.79,126.39L374.92,137.57L375.63,137.57L376.34,138.63L377.05,143.56L377.77,144.09L378.48,148.41L379.19,146.82L379.9,152.55L380.61,164.44L381.32,136.87L382.75,148.49L383.46,146.29L384.17,153.78L384.88,131.32L385.59,134.84L386.3,134.49L387.01,135.2L387.73,137.04L389.15,126.3L389.86,128.06L391.99,147.35L392.71,150.78L393.42,158.8L394.13,144.18L394.84,144.35L395.55,143.03L398.4,151.31L399.11,155.54L399.82,161L400.53,139.33L401.24,141.62L401.95,147.35L403.38,148.58L404.09,147.35L404.8,150.26L405.51,134.84L406.22,134.05L406.93,134.4L409.07,145.15L409.78,173.42L410.49,154.84L411.2,157.83L411.91,166.81L412.63,152.63L413.34,153.78L414.05,151.84L415.47,154.66L416.18,164.79L416.89,98.82L417.61,105.69L418.32,104.46L419.03,113.71L419.74,84.55L420.45,93.54L421.16,100.23L421.87,97.41L422.59,102.7L423.3,101.64L424.72,112.38L425.43,125.95L426.85,169.72L427.57,176.32L429.7,152.28L430.41,153.34L431.12,154.31L431.83,153.51L433.97,169.28L434.68,167.61L435.39,172.8L436.1,164.17L436.81,149.73L437.53,157.65L438.95,172.63L439.66,149.9L441.08,167.25L441.79,108.33L442.51,108.42L443.22,113.35L445.35,129.47L446.06,130.35L446.77,145.06L447.48,115.82L448.2,117.93L448.91,123.39L449.62,133.87L450.33,129.56L451.75,106.13L452.46,108.69L453.18,110.45L453.89,108.69L455.31,121.02L456.02,119.96L457.44,132.47L458.16,97.41L458.87,95.21L459.58,97.68L463.14,113.88L463.85,121.02L464.56,126.92L465.27,113.62L465.98,113.27L466.69,122.34L467.4,128.41L468.12,113.09L472.38,155.98L473.1,143.3L473.81,151.31L474.52,127L475.23,138.54L475.94,107.45L476.65,106.48L477.36,112.83L478.08,113.35L478.79,119.43L479.5,120.58L480.21,126.65L480.92,104.81L481.63,114.76L482.34,93.01L483.06,95.03L485.19,102.61L485.9,107.89L487.32,90.63L488.04,92.83L488.75,94.86L489.46,100.41L491.59,107.8L492.3,115.29L494.44,127.62L495.15,128.5L495.86,138.1L496.57,96.44L498,101.2L498.71,101.2L500.84,107.89L501.55,115.82L502.26,127.36L502.98,106.13L503.69,113.53L504.4,111.86L505.11,122.78L505.82,100.32L507.24,109.48L507.96,127.27L508.67,149.37L509.38,78.57L510.8,84.11L511.51,69.76L513.65,86.32L514.36,98.73L515.07,75.66L515.78,78.57L516.49,78.57L517.2,80.94L518.63,79.62L519.34,80.85L520.05,79.97L520.76,87.64L522.9,100.85L523.61,107.45L524.32,109.92L525.03,123.22L525.74,96.18L526.45,107.54L527.16,77.6L527.88,82.09L528.59,89.4L529.3,88.87L531.43,102.08L532.14,110.98L532.86,105.96L533.57,118.81L534.28,121.72L534.99,108.6L535.7,112.74L536.41,110.45L537.84,119.61L538.55,104.99L539.26,113.09L539.97,90.1L542.82,119.61L543.53,117.93L544.24,132.47L544.95,95.21L545.66,69.76L546.37,73.54L547.08,73.46L547.8,77.68L548.51,80.15L549.22,86.58L550.64,97.15L551.35,105.69L552.06,105.52L552.78,117.67L554.2,69.23L554.91,73.28L555.62,76.72L556.33,75.39L558.47,85.17L559.18,91.69L559.89,103.75L560.6,78.21L562.02,87.72L562.74,91.6L563.45,97.59L564.16,72.66L566.29,101.02L567,80.15L569.14,100.23L569.85,110.71L570.56,76.1L571.27,87.11L572.7,94.68L573.41,104.37L574.12,55.4L574.83,57.87L575.54,60.69L576.96,78.21L577.68,86.67L578.39,85.17L579.1,87.46L581.23,112.03L581.94,104.55L582.66,121.81L583.37,94.33L584.08,100.58L584.79,97.41L586.21,112.47L586.92,120.22L587.64,119.52L588.35,119.96L589.06,118.55L589.77,130.26L590.48,148.93L591.19,97.94L591.9,96.27L592.62,106.57L593.33,82.09L594.04,83.06L594.75,88.08L595.46,91.51L596.17,100.14L597.6,110.89L598.31,108.95L599.02,115.82L599.73,90.81L603.29,114.32L604,115.11L604.71,129.91L605.42,109.04L607.56,127.53L608.27,114.5L608.98,87.99L609.69,88.61L610.4,94.86L611.11,79.62L611.82,81.91L613.96,102.17L614.67,74.34L616.8,89.05L617.52,102.52L618.23,108.16L618.94,91.6L619.65,103.49L620.36,80.15L621.07,77.24L621.78,83.14L622.49,84.29L623.21,89.49L623.92,98.03L624.63,76.28L625.34,75.66L626.05,85.35L626.76,72.4L627.47,74.16L629.61,82.88L630.32,84.47L632.45,108.86L633.17,108.77L633.88,113.79L634.59,114.06L635.3,121.81L636.72,104.63L637.43,80.41L638.15,81.65L638.86,85.7L639.57,84.91L640.28,86.32L641.7,94.86L642.41,94.15L643.13,95.03L643.84,104.19L644.55,113.71L645.26,95.47L645.97,94.95L646.68,100.05L647.39,83.5L648.11,85.61L649.53,91.86L650.24,92.57L650.95,93.1L651.66,96.97L652.37,107.01L653.09,105.07L654.51,123.22L655.22,117.76L655.93,119.43L656.64,100.67L658.07,104.28L658.78,103.75L660.91,109.57L661.62,116.08L663.76,132.64L664.47,145.24L665.18,144.18L665.89,157.48L667.31,133.52L668.03,130.79L668.74,132.91L669.45,131.94L670.16,139.42L670.87,111.06L671.58,108.16L672.29,115.03L673.01,113.44L673.72,116.08L674.43,117.49L675.14,89.57L675.85,92.74L676.56,100.94L680.12,120.4L680.83,101.9L681.54,102.87L682.25,105.6L683.68,115.64L684.39,118.81L685.1,107.1L685.81,114.59L686.52,119.08L687.23,129.29L687.95,128.77L688.66,134.58L689.37,175.62L690.08,96.09L690.79,75.83L691.5,77.42L692.21,77.24L692.93,79.53L695.06,84.47L695.77,85.08L696.48,87.11L697.19,92.48L697.91,91.34L698.62,102.08L699.33,105.87L700.04,119.34L700.75,90.45L701.46,96.18L702.17,95.03L702.89,98.29L703.6,100.05L704.31,106.48L705.02,111.77L705.73,128.15L706.44,104.46L707.15,110.36L707.87,110.8L708.58,117.14L709.29,129.82L710,98.65" style="vector-effect: none; fill: none; stroke: rgb(214, 39, 40); stroke-opacity: 1; stroke-width: 2px; opacity: 1;"/></g><g class="points"/><g class="text"/></g><g class="trace scatter tracecdaf26" style="stroke-miterlimit: 2; opacity: 1;"><g class="fills"/><g class="errorbars"/><g class="lines"><path class="js-line" d="M0,76.36L0.71,77.68L1.42,77.24L2.13,78.04L2.85,76.19L7.83,88.96L8.54,94.51L9.25,92.3L9.96,97.32L11.38,109.83L12.09,87.9L14.23,99.26L14.94,104.99L16.36,114.76L17.07,115.2L17.79,117.4L18.5,124.45L19.92,92.04L20.63,106.4L21.34,108.69L22.05,107.98L24.19,127.18L24.9,115.56L25.61,85.08L26.32,91.6L27.03,95.3L27.75,71.34L29.17,70.02L29.88,71.08L30.59,69.85L31.3,73.46L33.44,86.84L34.15,88.25L34.86,92.13L35.57,102.61L36.28,106.4L36.99,116.96L38.42,128.24L39.13,132.82L39.84,110.71L40.55,117.4L41.26,95.3L41.97,101.64L42.69,112.91L43.4,106.75L44.11,83.14L44.82,91.34L46.24,97.41L46.95,99.26L48.38,107.45L49.09,112.47L49.8,85.7L50.51,88.25L51.93,84.91L52.65,88.87L53.36,87.64L54.07,87.99L54.78,89.93L55.49,94.51L56.2,90.63L56.91,93.45L57.63,104.81L58.34,79.27L59.76,91.16L60.47,95.21L61.18,94.95L61.89,104.02L63.32,94.95L64.03,105.69L64.74,91.69L65.45,95.3L66.16,95.47L66.87,96.44L67.59,99.97L68.3,98.56L69.01,103.75L69.72,86.4L72.57,97.76L73.28,105.96L73.99,111.94L74.7,73.02L75.41,72.4L76.12,77.6L76.83,83.94L77.55,83.14L78.26,92.48L78.97,86.4L79.68,88.52L80.39,88.25L81.1,89.57L81.81,95.12L82.53,95.12L83.24,98.73L83.95,102.96L84.66,91.42L85.37,87.37L86.08,87.72L87.51,91.25L88.22,96.36L88.93,94.86L89.64,95.39L90.35,97.59L91.06,104.72L91.77,85.7L92.48,85.88L93.2,85.7L95.33,98.56L96.04,101.46L98.18,124.71L98.89,125.6L99.6,127.36L100.31,111.94L101.73,66.32L102.44,70.81L103.87,77.77L104.58,81.56L105.29,81.74L106,86.67L106.71,90.81L107.42,100.23L108.85,78.04L109.56,83.14L110.98,81.47L111.69,88.69L113.12,94.15L113.83,104.99L115.96,115.47L116.67,124.54L117.38,135.55L118.1,93.01L118.81,96.62L119.52,104.99L120.94,71.43L121.65,73.54L122.36,71.43L123.08,73.1L125.21,82.26L125.92,83.06L126.63,82.44L127.34,87.2L130.9,96.97L131.61,95.39L132.32,108.33L133.04,97.15L133.75,98.73L134.46,74.51L135.88,87.11L136.59,82.97L137.3,81.38L138.02,87.55L139.44,98.82L140.15,105.34L143,135.02L143.71,113L144.42,122.6L145.13,91.16L145.84,90.9L146.55,92.83L148.69,105.78L149.4,111.42L151.53,67.47L152.24,73.46L155.09,93.27L155.8,77.77L156.51,77.16L157.22,79.53L157.94,82.79L158.65,91.34L159.36,96.97L160.07,72.05L160.78,74.25L161.49,85.52L162.92,69.85L163.63,68.7L164.34,72.4L165.05,80.5L165.76,77.07L166.47,79.8L167.18,83.14L167.9,93.54L168.61,96L169.32,85.88L170.03,82.18L170.74,85.43L171.45,88.52L172.16,87.2L173.59,97.24L174.3,102.7L175.01,101.64L175.72,109.13L176.43,106.22L177.14,113.97L178.57,127.97L179.28,111.68L180.7,77.6L181.41,82.97L185.68,102.78L186.39,112.38L187.1,87.28L187.82,89.66L188.53,83.5L189.24,86.4L189.95,87.9L190.66,91.42L191.37,91.34L192.08,95.3L193.51,75.04L194.22,73.81L196.35,96.8L197.06,84.64L199.2,99.61L199.91,82.88L200.62,81.3L201.33,90.63L202.04,88.16L202.76,91.69L203.47,87.46L204.18,97.5L206.31,111.5L207.02,118.46L207.74,116.61L208.45,119.69L209.16,121.19L209.87,109.13L210.58,114.23L211.29,89.93L212,95.21L212.72,92.04L213.43,92.92L214.14,92.3L214.85,94.42L215.56,108.07L216.27,84.03L216.98,87.81L217.7,83.59L218.41,88.69L219.12,92.66L219.83,92.39L220.54,92.83L221.25,103.84L221.96,79.09L223.39,80.24L224.1,78.83L225.52,86.58L226.23,85.43L226.94,84.82L227.66,92.39L231.21,120.4L231.92,97.68L233.35,112.21L234.06,114.23L234.77,114.32L235.48,119.43L236.19,124.01L236.9,123.66L237.62,119.34L238.33,123.92L239.75,134.84L240.46,140.13L241.17,138.81L241.88,147.88L244.02,80.15L244.73,86.49L245.44,87.11L246.15,83.23L247.58,94.42L248.29,71.26L249.71,69.14L250.42,74.34L251.13,82.88L251.84,81.21L253.27,81.56L253.98,91.16L254.69,90.28L255.4,90.98L256.11,93.19L256.82,101.38L257.54,88.87L258.25,90.72L258.96,90.98L259.67,92.57L261.09,94.15L261.8,99.61L263.23,110.62L263.94,119.43L265.36,99.88L266.07,107.63L267.49,110.18L268.21,108.16L268.92,108.69L269.63,111.86L270.34,124.19L271.05,96L271.76,96.18L272.47,101.82L274.61,103.23L275.32,107.1L276.03,106.92L276.74,118.99L277.45,98.91L278.17,104.72L278.88,110.36L279.59,109.3L280.3,119.52L281.01,67.56L283.86,65.09L284.57,69.85L285.28,70.46L285.99,76.28L287.41,86.05L288.13,92.92L288.84,92.39L289.55,99.35L290.26,111.94L290.97,87.55L293.11,93.27L293.82,99.09L294.53,99.26L295.24,104.81L295.95,107.8L296.66,121.98L297.37,86.76L298.09,95.65L299.51,95.74L300.22,101.29L300.93,102.96L301.64,108.86L302.35,109.83L303.07,113.97L303.78,114.32L304.49,120.31L305.91,126.04L306.62,102.96L307.33,75.57L308.05,80.24L309.47,95.21L310.18,78.74L311.6,62.8L312.31,66.94L313.03,65L313.74,67.82L315.16,75.31L315.87,82.44L317.29,94.42L318.01,73.99L320.14,79.62L320.85,88.43L321.56,79.97L322.27,80.85L325.12,91.95L325.83,91.42L326.54,94.15L327.25,101.02L327.97,112.03L328.68,83.85L330.1,94.07L330.81,101.9L331.52,108.16L332.23,83.85L334.37,113L335.08,98.47L335.79,102.08L336.5,100.85L337.21,107.8L337.93,91.86L338.64,91.78L339.35,101.11L340.06,107.19L340.77,106.84L341.48,106.4L343.62,116.79L344.33,125.24L345.04,126.39L345.75,104.37L347.17,118.11L347.89,93.71L350.02,105.16L350.73,110.89L351.44,111.94L352.15,109.48L352.87,110.62L353.58,114.76L354.29,118.2L355,98.65L355.71,101.2L356.42,98.73L358.56,116.44L359.27,93.36L359.98,91.25L360.69,93.1L362.11,105.96L362.83,105.78L365.67,129.65L366.38,116.17L367.09,121.98L367.81,114.85L368.52,121.1L369.23,103.05L373.5,121.46L374.21,99.17L374.92,99.53L375.63,102.43L377.05,98.38L377.77,106.4L378.48,112.83L379.19,80.94L380.61,82L381.32,80.15L382.03,84.73L382.75,83.41L383.46,82L384.17,83.32L384.88,88.61L385.59,84.47L386.3,84.99L387.01,89.22L388.44,98.21L389.15,84.11L389.86,88.96L390.57,99.53L391.28,99.61L391.99,107.19L395.55,126.65L396.26,128.59L396.97,148.76L397.69,123.48L398.4,102.96L399.11,105.07L400.53,118.99L401.24,122.51L401.95,106.92L402.67,114.32L403.38,115.47L404.09,121.9L405.51,118.99L406.22,124.19L406.93,123.75L407.65,127.89L408.36,131.5L409.07,104.55L410.49,74.95L411.2,72.58L411.91,73.54L412.63,78.65L414.05,82.35L414.76,81.91L416.89,92.66L417.61,109.74L419.74,122.6L420.45,138.45L421.16,111.5L421.87,113.88L422.59,122.07L423.3,120.4L424.01,126.56L424.72,100.49L425.43,110.18L426.14,86.4L427.57,92.39L428.28,93.36L428.99,89.93L429.7,91.42L431.12,96.53L431.83,93.01L432.55,107.01L433.26,106.04L435.39,116.96L436.1,115.82L437.53,142.42L438.24,94.95L438.95,95.39L439.66,93.27L440.37,94.33L441.08,100.23L442.51,104.37L443.22,113.27L444.64,120.84L445.35,118.81L446.06,119.69L446.77,119.25L448.2,119.08L448.91,133.17L449.62,73.99L450.33,81.82L451.75,88.96L452.46,91.25L453.89,96.88L454.6,106.31L456.02,113.09L456.73,116.88L457.44,116.7L458.16,120.49L460.29,143.12L461,122.51L461.71,121.02L462.42,127.53L463.14,104.55L463.85,109.57L464.56,110.54L465.27,116.26L465.98,120.05L466.69,133.35L467.4,111.59L468.12,115.03L468.83,127.18L469.54,110.8L470.96,94.24L471.67,95.92L472.38,94.77L473.1,95.47L474.52,100.76L475.23,103.23L475.94,104.19L476.65,108.25L477.36,104.72L478.08,105.25L479.5,112.38L480.21,123.83L480.92,73.28L481.63,74.34L482.34,73.28L484.48,81.47L485.19,78.74L488.04,98.21L488.75,112.56L489.46,86.23L490.17,95.65L490.88,94.51L491.59,99.44L492.3,97.41L493.02,99.53L493.73,95.12L494.44,97.76L495.15,100.41L495.86,106.31L496.57,84.47L497.28,86.58L498,91.25L498.71,77.16L499.42,74.6L500.13,78.21L500.84,82.62L501.55,80.15L502.26,83.94L502.98,92.48L505.11,101.02L505.82,110.09L506.53,90.54L507.24,93.01L507.96,94.68L508.67,94.33L510.8,106.75L511.51,114.41L512.94,127.89L513.65,103.67L515.07,119.34L515.78,121.72L516.49,127L517.2,141.36L517.92,140.39L518.63,145.76L519.34,147.09L520.05,151.93L520.76,159.33L521.47,127.44L522.9,133.96L523.61,138.54L524.32,137.75L525.03,140.83L525.74,121.72L526.45,124.19L529.3,141.27L530.01,130.97L530.72,137.84L531.43,136.52L532.14,137.66L532.86,143.56L533.57,124.45L534.28,124.63L534.99,123.57L535.7,124.8L536.41,128.85L537.12,132.64L537.84,129.56L539.26,142.77L539.97,143.56L540.68,150.52L541.39,129.91L542.1,130.09L542.82,133.17L543.53,132.91L544.24,134.31L544.95,141.18L545.66,140.57L547.08,148.41L547.8,154.57L549.22,173.24L549.93,126.65L550.64,125.51L551.35,129.47L552.06,95.74L552.78,97.06L553.49,97.15L554.2,96.71L554.91,99.09L557.04,108.77L557.76,117.49L558.47,117.4L559.18,118.37L561.31,141.36L562.02,140.39L563.45,161.09L564.16,142.77L564.87,119.34L565.58,123.31L567,101.64L567.72,105.25L568.43,104.9L569.14,107.36L569.85,109.48L570.56,108.33L571.27,115.56L571.98,114.5L572.7,112.3L573.41,122.16L575.54,134.84L576.25,137.84L576.96,137.49L577.68,138.81L578.39,140.22L579.1,145.68L579.81,144.62L580.52,145.5L581.94,151.75L582.66,160.65L583.37,125.24L584.08,132.91L584.79,132.47L585.5,144L586.21,127.18L586.92,127.27L587.64,133.7L588.35,113.88L589.06,114.59L589.77,116.08L590.48,111.86L591.19,113.71L592.62,117.49L593.33,117.4L594.04,118.02L594.75,123.31L596.17,121.19L596.88,128.33L597.6,129.29L598.31,128.06L599.02,131.76L599.73,142.33L603.29,163.29L604,137.66L604.71,142.15L605.42,119.17L606.84,129.12L607.56,121.46L608.27,129.12L608.98,127.89L609.69,128.33L610.4,127.18L611.11,126.92L611.82,129.73L612.54,128.68L613.25,137.66L613.96,140.66L614.67,175.8L615.38,140.04L616.09,144.27L616.8,144.18L617.52,152.46L618.23,153.51L618.94,158.97L620.36,171.57L621.07,128.33L621.78,127.18L622.49,128.59L623.21,127.71L623.92,129.29L624.63,130.44L625.34,130.09L626.05,130.88L626.76,130.35L628.19,135.64L628.9,136.16L630.32,147.09L631.03,149.2L632.45,160.65L633.17,158.01L633.88,169.1L634.59,133.61L635.3,134.84L636.01,134.4L636.72,132.64L637.43,133.79L638.15,134.14L638.86,132.11L639.57,133.7L640.28,132.02L640.99,132.55L641.7,134.05L643.13,138.01L643.84,137.57L644.55,136.6L645.26,138.89L645.97,140.66L646.68,145.5L647.39,144.53L648.11,150.34L648.82,153.6L649.53,136.96L650.95,147.53L651.66,127.44L652.37,125.95L653.09,128.41L653.8,129.91L654.51,129.38L655.93,135.2L656.64,134.58L657.35,136.69L658.07,142.59L658.78,149.82L659.49,120.93L660.91,118.02L661.62,119.78L662.33,120.84L663.05,124.63L665.18,121.81L665.89,126.12L666.6,131.67L667.31,131.23L668.03,129.82L668.74,133.35L669.45,134.14L670.16,141.18L670.87,120.49L671.58,123.83L672.29,122.95L673.01,123.83L673.72,122.6L674.43,125.95L675.14,128.33L675.85,126.12L677.27,137.22L677.99,135.64L679.41,138.19L680.12,137.84L680.83,141.1L681.54,134.31L682.25,134.75L682.97,133.87L683.68,144.44L684.39,128.41L685.1,128.24L685.81,137.93L687.95,145.94L688.66,147.35L690.79,169.9L691.5,149.82L692.21,156.95L692.93,132.29L694.35,136.08L695.06,135.64L695.77,133.87L696.48,135.37L697.19,141.98L697.91,120.22L698.62,119.96L699.33,120.93L700.04,120.93L700.75,126.83L701.46,128.85L702.17,136.6L702.89,137.66L703.6,140.66L705.02,113.79L705.73,115.03L707.15,122.87L707.87,122.78L709.29,134.05L710,142.95" style="vector-effect: none; fill: none; stroke: rgb(148, 103, 189); stroke-opacity: 1; stroke-width: 2px; opacity: 1;"/></g><g class="points"/><g class="text"/></g><g class="trace scatter trace51868a" style="stroke-miterlimit: 2; opacity: 1;"><g class="fills"/><g class="errorbars"/><g class="lines"><path class="js-line" d="M0,83.94L0.71,84.91L1.42,88.25L2.13,86.05L2.85,90.63L4.98,99.79L5.69,97.76L7.11,101.46L7.83,106.31L8.54,116.52L9.25,98.65L9.96,94.59L10.67,95.3L11.38,102.17L12.09,76.36L12.81,79.71L13.52,76.63L15.65,93.45L16.36,92.22L18.5,100.23L19.21,99.97L19.92,102.87L20.63,118.29L21.34,118.46L22.05,121.19L24.19,155.45L24.9,118.9L25.61,87.81L26.32,91.6L27.03,97.94L27.75,76.89L29.17,73.28L29.88,74.07L30.59,72.31L31.3,81.65L32.01,84.64L32.73,82.88L34.15,94.86L34.86,99.7L36.28,123.04L36.99,112.47L37.71,112.03L38.42,112.65L41.26,130.79L41.97,141.27L42.69,97.85L43.4,107.8L44.82,87.55L45.53,85.96L46.24,82.62L46.95,85.52L47.67,86.49L48.38,94.51L49.8,106.75L50.51,113.09L52.65,139.07L53.36,98.73L54.07,101.11L54.78,112.56L55.49,118.81L56.2,87.46L57.63,93.8L58.34,95.47L59.05,96.62L59.76,110.45L61.89,128.5L62.61,116.44L63.32,89.75L64.03,95.83L65.45,100.85L66.16,107.54L67.59,119.78L68.3,96L71.14,103.14L71.85,111.5L72.57,86.23L73.28,93.19L75.41,106.66L76.12,102.26L76.83,115.82L77.55,87.02L78.97,86.67L79.68,94.68L80.39,93.71L81.1,96.53L81.81,98.56L82.53,96.71L83.24,106.4L83.95,105.16L86.08,134.93L86.79,106.31L87.51,106.92L88.22,121.1L88.93,93.45L89.64,99.61L90.35,79.53L91.06,81.65L93.2,93.54L93.91,94.95L94.62,103.05L95.33,74.95L97.46,89.49L98.18,93.54L98.89,89.57L99.6,104.37L100.31,82.88L101.02,90.45L101.73,90.28L102.44,97.94L103.87,101.46L104.58,102.96L105.29,101.55L106,112.56L107.42,81.03L108.14,82.44L108.85,83.23L109.56,82.53L110.27,86.58L110.98,82.88L112.4,108.07L113.12,79.71L113.83,82.88L114.54,80.59L115.25,78.74L115.96,82.18L116.67,85.08L117.38,91.25L118.1,84.99L118.81,99L119.52,99.09L120.23,104.19L122.36,124.36L123.08,100.94L123.79,78.74L124.5,80.59L125.21,87.72L125.92,80.41L127.34,89.13L128.06,86.05L129.48,89.05L130.19,90.01L131.61,91.51L132.32,106.13L133.75,114.15L134.46,127L135.17,126.21L135.88,130.18L136.59,138.01L137.3,134.93L138.02,152.81L138.73,101.29L140.15,104.19L140.86,112.38L141.57,91.86L142.28,92.22L143,95.56L144.42,74.69L145.13,74.16L145.84,79.36L146.55,77.51L147.26,75.13L147.98,77.68L149.4,89.75L150.11,100.94L150.82,88.96L151.53,98.91L152.96,83.76L153.67,85.08L155.09,92.83L155.8,94.95L156.51,96.18L157.22,102.08L158.65,115.56L159.36,85.61L160.78,89.57L161.49,98.65L162.2,100.58L162.92,105.78L165.05,113.53L165.76,121.9L166.47,116.96L167.18,102.08L167.9,108.33L168.61,85.61L169.32,87.46L170.03,86.4L170.74,87.99L171.45,92.13L174.3,112.21L175.01,117.14L175.72,125.42L176.43,124.8L177.14,112.03L177.86,115.47L178.57,97.24L179.28,98.21L179.99,98.12L182.12,109.74L182.84,91.07L183.55,92.92L184.26,92.39L184.97,96L185.68,95.12L188.53,111.15L189.24,91.69L189.95,92.48L190.66,97.68L193.51,113.79L194.22,120.05L194.93,127.8L195.64,115.82L196.35,115.73L197.06,120.14L199.2,130L199.91,109.48L201.33,125.51L202.04,112.91L202.76,113.71L203.47,116.7L204.89,128.94L205.6,135.81L207.02,99.79L207.74,99.88L208.45,97.41L209.16,97.68L210.58,104.11L211.29,110.98L212.72,95.83L213.43,98.21L214.14,97.32L214.85,97.94L216.98,104.37L217.7,104.81L219.83,108.69L220.54,111.15L221.25,112.65L221.96,108.77L224.1,116.44L224.81,125.24L227.66,151.66L228.37,137.49L229.08,107.19L229.79,115.82L230.5,119.61L231.21,91.6L232.64,94.68L233.35,91.78L234.77,98.12L235.48,97.59L236.19,98.29L236.9,100.32L239.04,116.26L239.75,121.98L240.46,121.1L241.17,127.97L241.88,101.02L242.6,110.62L243.31,111.33L244.02,114.76L245.44,152.99L246.15,164.44L246.86,149.55L247.58,154.13L249,150.78L249.71,152.37L250.42,156.16L251.13,155.98L251.84,155.89L253.27,165.93L253.98,106.66L254.69,105.96L255.4,111.77L258.25,136.08L258.96,114.23L260.38,117.67L261.09,93.63L262.52,103.14L263.23,104.28L264.65,111.24L265.36,111.15L267.49,123.31L268.21,101.99L268.92,101.46L269.63,109.48L270.34,110.71L271.05,114.32L271.76,116.35L272.47,114.32L275.32,124.71L276.03,104.99L276.74,115.11L277.45,95.92L278.17,96.71L278.88,96.27L281.01,98.65L281.72,97.76L283.15,110.01L283.86,110.09L287.41,127.8L288.13,136.96L288.84,116.88L289.55,128.85L290.97,100.41L291.68,102.26L293.11,113.88L293.82,94.95L294.53,94.86L295.24,101.29L295.95,101.64L296.66,110.18L297.37,112.3L298.09,119.25L298.8,118.81L299.51,125.86L300.22,135.46L300.93,120.49L301.64,127.8L302.35,124.71L303.07,130.97L303.78,130.35L304.49,129.12L305.2,132.47L308.05,151.31L308.76,127.36L309.47,103.67L310.18,105.78L311.6,104.37L312.31,105.43L313.74,106.22L314.45,113.18L315.16,113.97L315.87,121.28L316.58,101.82L317.29,104.11L318.01,102.43L318.72,105.16L319.43,105.43L320.14,110.18L320.85,112.56L321.56,121.02L322.27,124.36L322.99,105.07L324.41,113.71L325.12,118.9L325.83,120.4L326.54,124.89L327.97,101.29L328.68,110.54L329.39,117.23L330.1,95.21L331.52,100.49L332.23,101.11L333.66,113.27L334.37,102.52L335.08,105.78L335.79,104.37L336.5,105.78L337.21,105.25L338.64,109.65L339.35,114.5L340.77,99.79L341.48,99.26L342.91,104.02L343.62,106.75L344.33,112.12L345.04,108.95L345.75,121.81L346.46,99L347.17,108.16L347.89,82.7L348.6,79.27L349.31,86.14L350.02,95.03L350.73,93.1L351.44,93.63L352.15,96.8L352.87,105.87L353.58,105.6L354.29,110.36L355,119.78L355.71,103.67L356.42,113L357.13,83.5L358.56,95.12L359.27,91.42L359.98,95.65L360.69,95.03L362.83,111.59L363.54,112.65L364.96,131.58L365.67,97.76L366.38,84.47L367.09,88.96L367.81,99.61L368.52,93.19L369.94,104.11L370.65,81.21L371.36,82.79L372.07,87.11L372.79,85.96L373.5,86.84L374.92,102.96L375.63,101.55L376.34,101.73L377.05,109.48L379.19,126.65L379.9,112.83L380.61,129.73L381.32,119.61L382.75,121.19L383.46,128.24L384.17,93.89L384.88,101.11L385.59,113.79L386.3,61.48L388.44,67.82L389.15,67.2L389.86,67.56L390.57,77.24L391.28,80.33L391.99,80.15L392.71,87.2L393.42,96.97L394.13,94.77L394.84,101.82L395.55,100.58L396.97,107.72L397.69,95.03L398.4,98.03L399.11,96.8L400.53,113.27L401.24,113.09L401.95,118.9L402.67,117.76L404.09,130.97L404.8,114.15L406.22,87.64L406.93,93.54L407.65,104.02L408.36,80.41L409.07,82.18L409.78,81.03L410.49,84.47L411.2,83.76L412.63,95.56L413.34,102.08L414.05,106.48L414.76,104.99L416.18,121.81L416.89,98.38L417.61,104.28L418.32,83.67L419.03,86.4L419.74,84.11L421.16,89.93L421.87,91.25L422.59,99.44L423.3,79.89L424.01,84.91L424.72,82.88L426.14,87.9L426.85,91.16L429.7,115.56L430.41,113.71L431.12,118.37L431.83,109.92L432.55,117.85L433.26,96.44L433.97,100.32L434.68,110.45L435.39,87.64L436.1,96L436.81,97.76L437.53,108.6L438.24,108.51L438.95,114.5L439.66,117.05L440.37,116.61L441.08,134.75L441.79,111.68L442.51,115.47L443.22,123.66L444.64,131.06L445.35,139.33L446.77,81.21L447.48,76.98L448.2,82.44L448.91,78.83L450.33,76.63L451.04,75.92L451.75,80.59L452.46,77.95L456.02,103.67L456.73,104.55L458.16,123.04L458.87,106.66L459.58,112.3L460.29,96.53L461,89.84L461.71,93.71L462.42,99.26L463.14,97.24L464.56,106.84L465.27,107.54L466.69,126.92L467.4,109.3L468.12,111.77L468.83,118.11L469.54,120.49L470.25,111.59L470.96,117.67L471.67,95.74L473.1,83.85L473.81,86.05L474.52,85.88L475.23,94.95L475.94,96.71L476.65,103.4L478.08,106.75L478.79,116.7L479.5,96.97L480.21,98.56L480.92,99.26L481.63,93.19L482.34,97.94L483.06,96.44L484.48,119.61L485.19,101.29L485.9,100.05L486.61,106.92L488.04,111.33L488.75,125.42L489.46,127.97L490.17,116.17L490.88,116.7L491.59,118.29L492.3,119.69L493.02,119.43L494.44,126.65L495.15,130L497.28,146.82L498,132.82L498.71,134.49L499.42,131.58L500.13,141.18L500.84,118.29L502.26,129.38L502.98,108.25L503.69,116.88L504.4,91.16L506.53,97.24L507.24,95.56L508.67,96.62L509.38,101.73L510.09,93.19L510.8,96.71L511.51,93.98L512.22,97.41L512.94,98.38L513.65,97.15L516.49,114.94L517.2,113.35L518.63,126.83L519.34,101.99L520.05,99.09L520.76,109.21L521.47,108.42L522.18,112.83L522.9,114.23L523.61,99.61L525.03,104.81L525.74,107.36L527.88,133.08L528.59,141.89L530.01,127.53L530.72,126.92L532.14,138.1L532.86,106.84L534.99,112.03L535.7,113.18L536.41,115.2L537.12,119.69L537.84,122.42L538.55,130.53L539.97,151.14L540.68,148.85L541.39,156.51L542.1,128.15L542.82,138.89L543.53,101.11L544.24,73.02L544.95,82.97L545.66,83.85L546.37,89.4L547.08,67.29L547.8,69.67L552.06,89.84L552.78,90.28L554.2,111.59L554.91,93.1L555.62,99.53L556.33,99.26L557.04,102.7L557.76,107.45L558.47,90.98L559.89,96.44L560.6,94.77L561.31,109.39L562.02,88.25L562.74,88.61L563.45,90.01L566.29,110.98L567,85.61L569.14,97.06L569.85,104.9L570.56,108.95L571.27,126.39L571.98,124.45L572.7,102.61L573.41,103.14L574.12,85.17L574.83,82.53L575.54,89.13L577.68,112.12L578.39,83.14L579.1,82.35L579.81,83.85L580.52,85.88L581.23,94.15L584.08,120.05L584.79,109.74L585.5,90.54L586.21,90.72L586.92,95.12L587.64,96.44L588.35,101.73L590.48,132.91L591.19,149.9L591.9,128.5L592.62,143.03L593.33,84.2L594.04,88.78L595.46,93.19L596.17,89.75L596.88,89.75L597.6,92.83L598.31,98.21L599.02,94.95L601.15,105.43L601.86,87.28L602.58,91.51L603.29,90.1L604,90.1L604.71,97.32L605.42,97.41L606.13,104.81L606.84,110.8L607.56,92.83L608.98,103.93L609.69,103.4L610.4,105.87L611.11,112.21L611.82,117.93L612.54,96.36L613.25,97.41L613.96,102.43L614.67,101.02L615.38,118.37L616.09,127.27L616.8,102.87L618.23,119.78L618.94,120.31L619.65,134.84L620.36,106.48L621.07,106.31L621.78,114.32L622.49,97.5L623.21,98.73L624.63,110.62L625.34,116.88L626.05,116.08L626.76,123.04L628.19,137.04L628.9,95.47L631.74,103.67L632.45,101.82L633.17,102.43L633.88,107.36L634.59,82.79L635.3,88.69L636.72,98.38L637.43,100.05L638.86,99.35L639.57,100.76L640.99,112.3L641.7,109.04L643.13,131.41L643.84,101.02L644.55,98.65L645.26,102.26L646.68,109.83L647.39,107.89L648.11,125.16L648.82,105.43L649.53,83.14L650.24,87.64L650.95,86.05L651.66,93.27L653.09,99.09L653.8,104.37L654.51,104.19L655.22,115.11L655.93,119.78L656.64,87.81L657.35,89.57L658.07,96L660.2,112.03L660.91,94.68L663.76,126.21L664.47,105.43L666.6,116.44L667.31,117.05L669.45,130.53L670.16,105.25L671.58,110.8L672.29,119.69L673.01,129.21L673.72,128.24L674.43,139.6L675.14,125.07L675.85,127.09L676.56,114.67L678.7,75.83L679.41,76.36L680.83,74.78L681.54,75.31L682.25,73.1L682.97,76.01L683.68,76.89L684.39,85.26L685.1,86.32L685.81,93.27L686.52,91.78L687.23,98.38L687.95,107.45L688.66,87.11L689.37,87.9L690.08,90.98L691.5,94.07L692.21,108.86L692.93,109.13L693.64,115.29L694.35,114.67L695.06,112.21L695.77,125.16L696.48,110.18L697.91,122.87L698.62,108.86L699.33,111.59L700.04,122.42L700.75,122.42L701.46,133.43L702.89,99.88L703.6,101.38L704.31,100.23L705.02,101.02L706.44,104.28L707.15,108.16L707.87,107.89L708.58,115.64L710,124.54" style="vector-effect: none; fill: none; stroke: rgb(140, 86, 75); stroke-opacity: 1; stroke-width: 2px; opacity: 1;"/></g><g class="points"/><g class="text"/></g><g class="trace scatter trace6907fd" style="stroke-miterlimit: 2; opacity: 1;"><g class="fills"/><g class="errorbars"/><g class="lines"><path class="js-line" d="M0,80.41L1.42,82.88L2.13,81.03L4.98,98.29L5.69,96.88L6.4,100.41L7.11,76.72L11.38,98.47L12.09,108.16L13.52,79.97L14.23,90.98L15.65,112.91L16.36,110.36L17.07,111.06L17.79,114.41L18.5,117.32L19.21,97.41L19.92,97.59L20.63,111.42L22.05,108.95L22.77,118.81L24.19,130.97L24.9,117.05L25.61,87.64L26.32,99.26L27.75,111.68L28.46,88.08L29.88,106.04L30.59,106.22L32.01,125.33L32.73,129.56L34.15,108.33L34.86,115.91L36.99,131.23L37.71,132.29L38.42,132.11L39.13,134.4L40.55,146.64L41.26,116.44L42.69,138.72L43.4,91.95L44.82,94.95L45.53,94.15L49.8,117.23L50.51,123.75L51.93,110.89L52.65,110.8L53.36,110.62L54.07,116.61L54.78,119.52L55.49,72.75L56.91,77.24L57.63,83.41L59.05,92.04L59.76,93.45L60.47,102.34L61.18,75.57L63.32,94.07L64.03,96.27L64.74,98.47L65.45,110.45L66.87,68.08L67.59,72.84L68.3,72.14L69.01,76.54L69.72,75.66L70.43,80.24L71.14,80.06L71.85,87.64L73.28,95.21L73.99,110.54L76.12,133.35L76.83,107.28L77.55,109.65L78.26,116.79L78.97,87.28L79.68,93.1L81.1,94.07L81.81,103.49L83.24,114.94L83.95,113.88L84.66,131.67L85.37,99.79L86.08,82.62L86.79,87.2L88.22,96L88.93,95.03L91.06,118.37L91.77,88.34L92.48,87.9L93.2,95.65L94.62,73.28L95.33,76.89L96.75,86.14L97.46,94.15L98.89,100.58L99.6,109.13L101.02,66.41L101.73,69.76L103.87,86.05L104.58,85.35L105.29,87.72L106,81.82L107.42,93.01L108.14,77.07L108.85,79.09L109.56,83.59L110.27,90.63L110.98,89.49L112.4,101.2L113.12,100.32L113.83,113.27L114.54,96.88L115.25,74.69L115.96,75.92L116.67,79.01L118.1,81.03L118.81,80.94L120.23,98.91L120.94,89.84L122.36,88.69L123.08,90.1L123.79,94.15L124.5,103.49L125.21,108.77L125.92,121.54L126.63,96.97L127.34,99.35L128.06,111.59L128.77,93.54L129.48,92.39L130.19,97.59L130.9,95.03L131.61,96.09L134.46,117.93L135.17,90.1L136.59,97.85L137.3,66.32L138.02,67.47L138.73,71.34L140.15,70.37L140.86,79.27L143.71,103.84L144.42,77.51L145.84,79.89L146.55,86.84L147.26,83.59L147.98,97.06L148.69,98.29L149.4,103.49L150.11,82.79L150.82,90.9L151.53,96.44L152.24,83.85L153.67,87.28L154.38,97.76L155.8,108.25L156.51,86.58L159.36,130.88L160.07,103.84L160.78,114.76L161.49,92.66L162.2,59.1L162.92,62.45L163.63,63.42L164.34,67.12L165.05,71.08L165.76,65.62L166.47,75.13L167.18,74.25L167.9,74.87L168.61,83.23L169.32,80.77L170.03,86.76L170.74,62.36L171.45,66.32L172.16,69.58L172.88,69.32L175.01,96.62L175.72,104.81L176.43,84.47L177.14,86.93L178.57,107.19L179.28,90.98L179.99,99.61L180.7,79.36L181.41,77.16L182.12,81.3L184.26,97.41L184.97,97.24L186.39,109.13L187.1,98.03L187.82,75.04L188.53,79.18L189.24,78.65L189.95,80.94L192.8,105.34L193.51,96.8L194.22,77.42L194.93,82.53L195.64,88.52L196.35,87.72L197.06,88.25L197.78,97.15L199.2,76.19L199.91,78.83L200.62,81.82L201.33,90.01L202.04,78.74L202.76,83.23L203.47,86.58L204.18,63.68L206.31,75.48L207.02,74.16L207.74,79.97L208.45,79.09L209.16,80.85L209.87,87.02L210.58,103.58L211.29,95.65L212,94.24L212.72,98.56L214.14,103.31L214.85,102.78L216.98,123.39L217.7,111.59L218.41,89.05L219.12,91.51L219.83,91.42L220.54,93.89L221.25,104.46L221.96,88.69L223.39,97.06L224.1,96.44L224.81,87.02L225.52,93.98L226.23,101.64L226.94,78.04L228.37,92.04L229.08,101.82L230.5,111.86L231.21,85.52L231.92,87.37L232.64,99.09L233.35,98.29L234.06,100.85L235.48,108.25L236.19,96.53L236.9,94.86L237.62,96.18L240.46,104.72L241.17,112.03L241.88,112.21L242.6,118.11L243.31,119.43L244.02,127.53L244.73,139.25L245.44,111.33L246.15,129.82L246.86,99.97L247.58,74.16L248.29,77.68L249,76.63L249.71,73.72L252.56,89.84L253.27,89.4L253.98,109.65L254.69,85.08L256.11,93.27L256.82,66.76L258.25,81.3L258.96,77.77L259.67,78.12L260.38,84.99L261.09,91.25L261.8,105.25L262.52,85.08L263.23,87.81L263.94,76.63L264.65,79.45L265.36,78.48L266.07,87.9L267.49,57.78L268.21,59.45L270.34,71.7L271.05,84.47L271.76,85.96L272.47,92.57L273.19,90.72L273.9,106.66L274.61,78.04L275.32,82.35L276.03,86.4L276.74,95.65L277.45,77.77L278.17,79.09L278.88,80.41L279.59,79.71L281.01,99L281.72,79.53L282.43,61.83L283.15,68.7L283.86,63.42L284.57,68.26L285.28,70.81L285.99,76.45L286.7,79.62L287.41,87.46L288.13,91.95L288.84,74.34L290.97,93.54L291.68,95.74L293.11,77.77L293.82,85.26L295.24,90.9L295.95,95.65L296.66,111.77L297.37,70.02L298.09,74.78L298.8,86.23L300.22,96.36L300.93,99.97L302.35,102.52L303.07,89.49L305.2,104.19L305.91,101.02L306.62,110.27L307.33,107.36L308.05,116.52L308.76,92.48L309.47,103.23L310.18,80.06L310.89,84.99L311.6,55.23L312.31,52.5L313.03,57.78L313.74,58.04L314.45,62.8L315.16,65.88L315.87,82.62L316.58,76.98L317.29,93.27L318.01,95.83L318.72,68.61L319.43,73.72L320.14,58.22L321.56,59.81L322.27,68L324.41,96.53L325.12,66.94L325.83,64.39L326.54,70.81L327.25,69.58L327.97,77.24L328.68,88.96L329.39,63.42L330.81,84.2L331.52,87.64L332.23,88.43L332.95,95.83L333.66,75.31L334.37,85.08L335.08,90.19L335.79,69.93L336.5,70.46L337.21,73.81L337.93,72.31L338.64,79.8L340.77,99.61L341.48,106.31L342.19,109.39L342.91,120.05L343.62,136.78L344.33,120.4L345.75,67.38L346.46,74.51L347.17,89.57L347.89,65.18L350.73,83.59L351.44,95.03L352.15,69.05L352.87,74.69L353.58,76.36L354.29,89.13L355.71,98.56L356.42,79.71L359.27,98.03L359.98,110.36L360.69,68.35L361.4,72.4L363.54,77.95L364.25,93.01L364.96,75.13L365.67,78.3L367.09,90.72L367.81,98.65L369.23,56.37L369.94,67.91L372.79,99.97L373.5,74.95L374.21,51.17L374.92,54.7L375.63,57.6L376.34,55.23L378.48,70.9L379.19,71.61L381.32,104.19L382.03,76.1L382.75,83.94L383.46,82.53L384.17,80.94L384.88,88.16L387.01,107.36L387.73,96L389.15,49.33L389.86,57.25L391.99,87.99L392.71,64.83L395.55,94.15L396.26,93.01L397.69,107.54L398.4,87.55L399.11,87.99L399.82,73.54L400.53,72.84L401.24,77.07L401.95,84.38L402.67,61.3L403.38,65.71L404.09,37.52L405.51,42.98L406.22,46.86L407.65,55.58L408.36,66.23L409.07,74.43L409.78,48.71L411.2,52.5L411.91,61.66L415.47,83.06L416.18,97.32L417.61,55.23L418.32,58.31L419.74,68.88L420.45,69.49L421.16,82.18L421.87,61.04L424.01,75.57L424.72,72.14L425.43,83.5L426.14,62.18L427.57,75.04L428.28,82.79L428.99,69.41L429.7,76.36L431.12,83.06L431.83,93.45L432.55,110.09L433.26,91.6L433.97,57.25L434.68,64.12L435.39,44.83L436.1,51.97L437.53,58.13L438.24,58.93L439.66,62.71L440.37,69.49L441.79,92.83L442.51,64.3L443.22,76.01L443.93,62.1L445.35,73.63L446.06,56.19L446.77,56.64L447.48,56.02L449.62,75.39L450.33,82.97L451.04,69.76L451.75,80.06L452.46,60.6L453.18,69.32L453.89,50.82L454.6,61.39L455.31,63.06L456.02,72.58L456.73,84.55L457.44,55.49L458.16,55.14L458.87,57.6L460.29,70.99L461,70.46L461.71,70.37L462.42,71.17L463.85,80.06L464.56,80.94L465.98,100.32L466.69,80.59L467.4,90.54L468.12,62.1L468.83,65.62L469.54,76.72L470.25,73.19L470.96,83.85L471.67,55.84L472.38,65.35L473.1,74.16L473.81,62.36L474.52,61.74L475.23,64.03L476.65,78.83L477.36,64.47L479.5,67.73L480.21,67.56L480.92,71.87L481.63,80.85L482.34,81.3L483.06,85.08L483.77,100.32L484.48,44.31L485.19,47.21L485.9,54.61L486.61,63.06L487.32,60.69L488.04,62.54L488.75,76.54L489.46,80.68L490.17,93.89L490.88,68.97L491.59,71.17L493.73,87.55L494.44,90.63L495.15,92.57L495.86,103.05L496.57,81.38L497.28,89.66L498,70.29L498.71,72.66L500.13,82.26L500.84,59.01L502.26,60.86L502.98,70.73L503.69,81.21L504.4,48.18L505.82,58.22L506.53,59.89L507.24,62.18L507.96,70.64L508.67,77.42L509.38,76.63L510.8,86.93L511.51,103.14L512.22,103.14L512.94,105.87L513.65,87.46L514.36,113.35L515.78,42.72L516.49,50.47L517.2,54.43L517.92,51.79L518.63,64.3L519.34,62.89L521.47,85.52L522.18,56.64L524.32,66.68L525.03,68.88L525.74,76.01L526.45,93.8L527.88,49.5L528.59,56.28L529.3,55.14L530.01,64.91L530.72,68.26L531.43,75.75L532.86,96.44L533.57,76.63L534.99,80.94L535.7,84.38L536.41,81.21L537.12,90.37L537.84,90.9L538.55,73.81L539.26,83.14L539.97,57.43L540.68,62.18L541.39,73.54L542.82,97.59L543.53,66.23L544.24,72.31L544.95,64.21L545.66,64.03L546.37,86.76L547.8,42.37L548.51,58.84L549.22,71.43L549.93,46.42L551.35,57.16L552.06,43.34L554.2,69.41L554.91,74.07L556.33,74.69L557.04,91.51L559.18,36.03L559.89,47.39L560.6,50.03L561.31,60.07L563.45,68.35L564.16,79.45L564.87,60.33L565.58,67.29L566.29,68.44L567,75.92L567.72,90.28L568.43,89.4L569.14,99.53L569.85,45.8L570.56,52.76L571.27,68.35L571.98,49.41L572.7,55.58L574.12,79.97L574.83,59.98L575.54,34.09L576.25,39.64L576.96,44.66L577.68,57.78L578.39,66.59L579.1,47.74L580.52,54.79L581.23,59.45L581.94,42.37L582.66,53.73L583.37,64.91L584.08,41.22L584.79,43.34L585.5,52.76L588.35,82.7L589.06,87.99L589.77,68.97L590.48,75.13L591.9,53.82L592.62,63.42L593.33,40.08L594.04,41.75L595.46,53.2L596.17,18.5L599.73,42.46L600.44,51.97L601.15,54.35L601.86,64.74L602.58,44.39L603.29,51.88L605.42,101.9L606.13,85.96L606.84,36.03L607.56,47.04L608.27,62.62L608.98,43.07L609.69,46.15L610.4,59.28L612.54,69.14L613.25,75.13L613.96,39.46L614.67,43.95L617.52,89.4L618.23,63.24L618.94,65.09L619.65,74.34L620.36,50.91L621.07,51.62L621.78,62.8L622.49,38.67L623.21,43.6L623.92,23.43L624.63,26.34L626.05,28.98L626.76,43.78L628.19,65L628.9,64.74L629.61,65.88L630.32,58.48L631.03,70.73L631.74,45.71L633.88,70.37L634.59,44.31L635.3,53.55L636.01,19.12L638.15,31.8L638.86,31.36L641.7,56.99L642.41,32.77L643.84,32.94L644.55,35.59L645.26,33.74L645.97,41.93L646.68,37.08L647.39,48.71L649.53,70.73L650.24,51.35L650.95,58.4L651.66,34.09L652.37,36.2L653.09,48.97L654.51,59.81L655.22,84.2L655.93,52.06L656.64,57.25L657.35,66.85L658.07,64.56L659.49,70.9L660.2,77.07L660.91,84.91L661.62,67.03L662.33,73.28L663.05,91.25L664.47,51.88L665.18,59.28L665.89,33.91L666.6,41.93L667.31,45.45L668.03,45.1L669.45,51.62L670.16,49.68L670.87,53.02L671.58,61.48L673.01,66.32L673.72,64.91L675.14,77.86L675.85,44.66L677.27,57.6L677.99,56.99L680.12,80.68L680.83,93.45L681.54,68.88L682.25,75.75L682.97,78.39L683.68,90.28L684.39,69.49L685.1,86.84L685.81,97.32L686.52,76.8L687.95,29.6L688.66,38.4L690.08,62.36L690.79,43.34L691.5,39.81L692.21,44.39L692.93,46.24L693.64,50.21L694.35,50.29L695.06,59.28L695.77,63.77L696.48,46.33L697.19,48.71L697.91,56.11L698.62,74.6L699.33,58.48L700.75,73.19L701.46,84.55L702.17,35.85L702.89,36.11L703.6,42.46L705.02,59.45L705.73,58.22L706.44,75.22L707.15,44.66L707.87,44.75L708.58,58.84L709.29,34.97L710,48.18" style="vector-effect: none; fill: none; stroke: rgb(227, 119, 194); stroke-opacity: 1; stroke-width: 2px; opacity: 1;"/></g><g class="points"/><g class="text"/></g></g></g><g class="overplot"/><path class="xlines-above crisp" d="M0,0" style="fill: none;"/><path class="ylines-above crisp" d="M0,0" style="fill: none;"/><g class="overlines-above"/><g class="xaxislayer-above"><g class="xtick"><text text-anchor="middle" x="0" y="533" transform="translate(80,0)" style="font-family: 'Open Sans', verdana, arial, sans-serif; font-size: 12px; fill: rgb(68, 68, 68); fill-opacity: 1; white-space: pre; opacity: 1;">0</text></g><g class="xtick"><text text-anchor="middle" x="0" y="533" style="font-family: 'Open Sans', verdana, arial, sans-serif; font-size: 12px; fill: rgb(68, 68, 68); fill-opacity: 1; white-space: pre; opacity: 1;" transform="translate(222.28,0)">200</text></g><g class="xtick"><text text-anchor="middle" x="0" y="533" style="font-family: 'Open Sans', verdana, arial, sans-serif; font-size: 12px; fill: rgb(68, 68, 68); fill-opacity: 1; white-space: pre; opacity: 1;" transform="translate(364.57,0)">400</text></g><g class="xtick"><text text-anchor="middle" x="0" y="533" style="font-family: 'Open Sans', verdana, arial, sans-serif; font-size: 12px; fill: rgb(68, 68, 68); fill-opacity: 1; white-space: pre; opacity: 1;" transform="translate(506.85,0)">600</text></g><g class="xtick"><text text-anchor="middle" x="0" y="533" style="font-family: 'Open Sans', verdana, arial, sans-serif; font-size: 12px; fill: rgb(68, 68, 68); fill-opacity: 1; white-space: pre; opacity: 1;" transform="translate(649.14,0)">800</text></g></g><g class="yaxislayer-above"><g class="ytick"><text text-anchor="end" x="79" y="4.199999999999999" transform="translate(0,494.98)" style="font-family: 'Open Sans', verdana, arial, sans-serif; font-size: 12px; fill: rgb(68, 68, 68); fill-opacity: 1; white-space: pre; opacity: 1;">0.55</text></g><g class="ytick"><text text-anchor="end" x="79" y="4.199999999999999" style="font-family: 'Open Sans', verdana, arial, sans-serif; font-size: 12px; fill: rgb(68, 68, 68); fill-opacity: 1; white-space: pre; opacity: 1;" transform="translate(0,442.14)">0.6</text></g><g class="ytick"><text text-anchor="end" x="79" y="4.199999999999999" style="font-family: 'Open Sans', verdana, arial, sans-serif; font-size: 12px; fill: rgb(68, 68, 68); fill-opacity: 1; white-space: pre; opacity: 1;" transform="translate(0,389.3)">0.65</text></g><g class="ytick"><text text-anchor="end" x="79" y="4.199999999999999" style="font-family: 'Open Sans', verdana, arial, sans-serif; font-size: 12px; fill: rgb(68, 68, 68); fill-opacity: 1; white-space: pre; opacity: 1;" transform="translate(0,336.45)">0.7</text></g><g class="ytick"><text text-anchor="end" x="79" y="4.199999999999999" style="font-family: 'Open Sans', verdana, arial, sans-serif; font-size: 12px; fill: rgb(68, 68, 68); fill-opacity: 1; white-space: pre; opacity: 1;" transform="translate(0,283.61)">0.75</text></g><g class="ytick"><text text-anchor="end" x="79" y="4.199999999999999" style="font-family: 'Open Sans', verdana, arial, sans-serif; font-size: 12px; fill: rgb(68, 68, 68); fill-opacity: 1; white-space: pre; opacity: 1;" transform="translate(0,230.76999999999998)">0.8</text></g><g class="ytick"><text text-anchor="end" x="79" y="4.199999999999999" style="font-family: 'Open Sans', verdana, arial, sans-serif; font-size: 12px; fill: rgb(68, 68, 68); fill-opacity: 1; white-space: pre; opacity: 1;" transform="translate(0,177.92000000000002)">0.85</text></g></g><g class="overaxes-above"/></g></g><g class="polarlayer"/><g class="smithlayer"/><g class="ternarylayer"/><g class="geolayer"/><g class="funnelarealayer"/><g class="pielayer"/><g class="iciclelayer"/><g class="treemaplayer"/><g class="sunburstlayer"/><g class="glimages"/><defs id="topdefs-6fdb4d"><g class="clips"/><clipPath id="legend6fdb4d"><rect width="667" height="48" x="0" y="0"/></clipPath></defs><g class="layer-above"><g class="imagelayer"/><g class="shapelayer"/></g><g class="infolayer"><g class="legend" pointer-events="all" transform="translate(80,76.00000000000001)"><rect class="bg" shape-rendering="crispEdges" width="667" height="48" x="0" y="0" style="stroke: rgb(68, 68, 68); stroke-opacity: 1; fill: rgb(255, 255, 255); fill-opacity: 1; stroke-width: 0px;"/><g class="scrollbox" transform="" clip-path="url(#legend6fdb4d)"><g class="groups"><g class="traces" transform="translate(0,14.5)" style="opacity: 1;"><text class="legendtext" text-anchor="start" x="40" y="4.680000000000001" style="font-family: 'Open Sans', verdana, arial, sans-serif; font-size: 12px; fill: rgb(68, 68, 68); fill-opacity: 1; white-space: pre;">Fixed clip</text><g class="layers" style="opacity: 1;"><g class="legendfill"/><g class="legendlines"><path class="js-line" d="M5,0h30" style="fill: none; stroke: rgb(31, 119, 180); stroke-opacity: 1; stroke-width: 2px;"/></g><g class="legendsymbols"><g class="legendpoints"/></g></g><rect class="legendtoggle" x="0" y="-9.5" width="98.296875" height="19" style="fill: rgb(0, 0, 0); fill-opacity: 0;"/></g><g class="traces" transform="translate(176.515625,14.5)" style="opacity: 1;"><text class="legendtext" text-anchor="start" x="40" y="4.680000000000001" style="font-family: 'Open Sans', verdana, arial, sans-serif; font-size: 12px; fill: rgb(68, 68, 68); fill-opacity: 1; white-space: pre;">Receny weighted</text><g class="layers" style="opacity: 1;"><g class="legendfill"/><g class="legendlines"><path class="js-line" d="M5,0h30" style="fill: none; stroke: rgb(255, 127, 14); stroke-opacity: 1; stroke-width: 2px;"/></g><g class="legendsymbols"><g class="legendpoints"/></g></g><rect class="legendtoggle" x="0" y="-9.5" width="145.65625" height="19" style="fill: rgb(0, 0, 0); fill-opacity: 0;"/></g><g class="traces" transform="translate(353.03125,14.5)" style="opacity: 1;"><text class="legendtext" text-anchor="start" x="40" y="4.680000000000001" style="font-family: 'Open Sans', verdana, arial, sans-serif; font-size: 12px; fill: rgb(68, 68, 68); fill-opacity: 1; white-space: pre;">Median</text><g class="layers" style="opacity: 1;"><g class="legendfill"/><g class="legendlines"><path class="js-line" d="M5,0h30" style="fill: none; stroke: rgb(44, 160, 44); stroke-opacity: 1; stroke-width: 2px;"/></g><g class="legendsymbols"><g class="legendpoints"/></g></g><rect class="legendtoggle" x="0" y="-9.5" width="86.15625" height="19" style="fill: rgb(0, 0, 0); fill-opacity: 0;"/></g><g class="traces" transform="translate(529.546875,14.5)" style="opacity: 1;"><text class="legendtext" text-anchor="start" x="40" y="4.680000000000001" style="font-family: 'Open Sans', verdana, arial, sans-serif; font-size: 12px; fill: rgb(68, 68, 68); fill-opacity: 1; white-space: pre;">Punish updates</text><g class="layers" style="opacity: 1;"><g class="legendfill"/><g class="legendlines"><path class="js-line" d="M5,0h30" style="fill: none; stroke: rgb(214, 39, 40); stroke-opacity: 1; stroke-width: 2px;"/></g><g class="legendsymbols"><g class="legendpoints"/></g></g><rect class="legendtoggle" x="0" y="-9.5" width="134.28125" height="19" style="fill: rgb(0, 0, 0); fill-opacity: 0;"/></g><g class="traces" transform="translate(0,33.5)" style="opacity: 1;"><text class="legendtext" text-anchor="start" x="40" y="4.680000000000001" style="font-family: 'Open Sans', verdana, arial, sans-serif; font-size: 12px; fill: rgb(68, 68, 68); fill-opacity: 1; white-space: pre;">Dynamic clip</text><g class="layers" style="opacity: 1;"><g class="legendfill"/><g class="legendlines"><path class="js-line" d="M5,0h30" style="fill: none; stroke: rgb(148, 103, 189); stroke-opacity: 1; stroke-width: 2px;"/></g><g class="legendsymbols"><g class="legendpoints"/></g></g><rect class="legendtoggle" x="0" y="-9.5" width="120.125" height="19" style="fill: rgb(0, 0, 0); fill-opacity: 0;"/></g><g class="traces" transform="translate(176.515625,33.5)" style="opacity: 1;"><text class="legendtext" text-anchor="start" x="40" y="4.680000000000001" style="font-family: 'Open Sans', verdana, arial, sans-serif; font-size: 12px; fill: rgb(68, 68, 68); fill-opacity: 1; white-space: pre;">Simple average</text><g class="layers" style="opacity: 1;"><g class="legendfill"/><g class="legendlines"><path class="js-line" d="M5,0h30" style="fill: none; stroke: rgb(140, 86, 75); stroke-opacity: 1; stroke-width: 2px;"/></g><g class="legendsymbols"><g class="legendpoints"/></g></g><rect class="legendtoggle" x="0" y="-9.5" width="136.421875" height="19" style="fill: rgb(0, 0, 0); fill-opacity: 0;"/></g><g class="traces" transform="translate(353.03125,33.5)" style="opacity: 1;"><text class="legendtext" text-anchor="start" x="40" y="4.680000000000001" style="font-family: 'Open Sans', verdana, arial, sans-serif; font-size: 12px; fill: rgb(68, 68, 68); fill-opacity: 1; white-space: pre;">No federated learning</text><g class="layers" style="opacity: 1;"><g class="legendfill"/><g class="legendlines"><path class="js-line" d="M5,0h30" style="fill: none; stroke: rgb(227, 119, 194); stroke-opacity: 1; stroke-width: 2px;"/></g><g class="legendsymbols"><g class="legendpoints"/></g></g><rect class="legendtoggle" x="0" y="-9.5" width="174.015625" height="19" style="fill: rgb(0, 0, 0); fill-opacity: 0;"/></g></g></g><rect class="scrollbar" rx="20" ry="3" width="0" height="0" x="0" y="0" style="fill: rgb(128, 139, 164); fill-opacity: 1;"/></g><g class="g-gtitle"><text class="gtitle" x="400" y="75" text-anchor="middle" dy="0em" style="font-family: 'Open Sans', verdana, arial, sans-serif; font-size: 17px; fill: rgb(68, 68, 68); opacity: 1; font-weight: normal; white-space: pre;">Accuracy score by aggregation methods for 4 nodes</text></g><g class="g-xtitle"><text class="xtitle" x="435" y="572" text-anchor="middle" style="font-family: 'Open Sans', verdana, arial, sans-serif; font-size: 14px; fill: rgb(68, 68, 68); opacity: 1; font-weight: normal; white-space: pre;">Aggregation methods</text></g><g class="g-ytitle"><text class="ytitle" transform="rotate(-90,42,335)" x="42" y="335" text-anchor="middle" style="font-family: 'Open Sans', verdana, arial, sans-serif; font-size: 14px; fill: rgb(68, 68, 68); opacity: 1; font-weight: normal; white-space: pre;">Accuracy score</text></g></g></svg>