<svg class="main-svg" xmlns="http://www.w3.org/2000/svg" xmlns:xlink="http://www.w3.org/1999/xlink" width="800" height="600" style="" viewBox="0 0 800 600"><rect x="0" y="0" width="800" height="600" style="fill: rgb(255, 255, 255); fill-opacity: 1;"/><defs id="defs-69d694"><g class="clips"><clipPath id="clip69d694xyplot" class="plotclip"><rect width="710" height="370"/></clipPath><clipPath class="axesclip" id="clip69d694x"><rect x="80" y="0" width="710" height="600"/></clipPath><clipPath class="axesclip" id="clip69d694y"><rect x="0" y="150" width="800" height="370"/></clipPath><clipPath class="axesclip" id="clip69d694xy"><rect x="80" y="150" width="710" height="370"/></clipPath></g><g class="gradients"/><g class="patterns"/></defs><g class="bglayer"/><g class="layer-below"><g class="imagelayer"/><g class="shapelayer"/></g><g class="cartesianlayer"><g class="subplot xy"><g class="layer-subplot"><g class="shapelayer"/><g class="imagelayer"/></g><g class="minor-gridlayer"><g class="x"/><g class="y"/></g><g class="gridlayer"><g class="x"><path class="xgrid crisp" transform="translate(222.28,0)" d="M0,150v370" style="stroke: rgb(238, 238, 238); stroke-opacity: 1; stroke-width: 1px;"/><path class="xgrid crisp" transform="translate(364.57,0)" d="M0,150v370" style="stroke: rgb(238, 238, 238); stroke-opacity: 1; stroke-width: 1px;"/><path class="xgrid crisp" transform="translate(506.85,0)" d="M0,150v370" style="stroke: rgb(238, 238, 238); stroke-opacity: 1; stroke-width: 1px;"/><path class="xgrid crisp" transform="translate(649.14,0)" d="M0,150v370" style="stroke: rgb(238, 238, 238); stroke-opacity: 1; stroke-width: 1px;"/></g><g class="y"><path class="ygrid crisp" transform="translate(0,501.5)" d="M80,0h710" style="stroke: rgb(238, 238, 238); stroke-opacity: 1; stroke-width: 1px;"/><path class="ygrid crisp" transform="translate(0,450.66)" d="M80,0h710" style="stroke: rgb(238, 238, 238); stroke-opacity: 1; stroke-width: 1px;"/><path class="ygrid crisp" transform="translate(0,399.82)" d="M80,0h710" style="stroke: rgb(238, 238, 238); stroke-opacity: 1; stroke-width: 1px;"/><path class="ygrid crisp" transform="translate(0,348.98)" d="M80,0h710" style="stroke: rgb(238, 238, 238); stroke-opacity: 1; stroke-width: 1px;"/><path class="ygrid crisp" transform="translate(0,298.14)" d="M80,0h710" style="stroke: rgb(238, 238, 238); stroke-opacity: 1; stroke-width: 1px;"/><path class="ygrid crisp" transform="translate(0,247.3)" d="M80,0h710" style="stroke: rgb(238, 238, 238); stroke-opacity: 1; stroke-width: 1px;"/><path class="ygrid crisp" transform="translate(0,196.46)" d="M80,0h710" style="stroke: rgb(238, 238, 238); stroke-opacity: 1; stroke-width: 1px;"/></g></g><g class="zerolinelayer"><path class="xzl zl crisp" transform="translate(80,0)" d="M0,150v370" style="stroke: rgb(68, 68, 68); stroke-opacity: 1; stroke-width: 1px;"/></g><path class="xlines-below"/><path class="ylines-below"/><g class="overlines-below"/><g class="xaxislayer-below"/><g class="yaxislayer-below"/><g class="overaxes-below"/><g class="plot" transform="translate(80,150)" clip-path="url(#clip69d694xyplot)"><g class="scatterlayer mlayer"><g class="trace scatter trace39bd1f" style="stroke-miterlimit: 2; opacity: 1;"><g class="fills"/><g class="errorbars"/><g class="lines"><path class="js-line" d="M0,74.17L0.71,75.95L1.42,65.7L3.56,62.9L4.27,60.61L5.69,57.9L6.4,58.83L7.83,64.26L8.54,62.73L9.25,64.76L9.96,71.97L11.38,88.4L12.09,98.66L13.52,115.1L14.23,103.57L15.65,114.93L16.36,115.01L17.07,114.5L17.79,115.01L19.21,118.65L19.92,120.35L20.63,130.26L21.34,114.84L22.05,114.25L22.77,119.59L24.19,131.19L24.9,152.8L25.61,155.6L26.32,163.65L27.03,165.94L27.75,163.14L28.46,163.82L29.17,167.29L30.59,167.04L31.3,173.14L32.73,170.93L33.44,177.88L34.15,180.42L34.86,186.69L35.57,155L36.28,158.99L36.99,157.12L37.71,160.77L38.42,163.65L39.13,161.95L40.55,160.77L41.26,162.63L43.4,152.89L44.11,151.45L44.82,150.34L45.53,159.58L46.95,132.38L47.67,127.55L49.09,124.92L49.8,121.28L50.51,125.69L51.22,122.72L51.93,122.38L52.65,125.43L53.36,122.38L54.07,124.5L54.78,127.38L55.49,125.94L57.63,132.38L58.34,131.62L59.76,135.52L60.47,134.33L61.89,137.55L62.61,138.23L64.03,136.28L64.74,139.84L65.45,146.79L66.16,138.48L66.87,138.23L67.59,145.68L68.3,121.87L69.01,123.4L69.72,122.98L70.43,126.79L71.14,124.5L71.85,126.87L72.57,125.18L73.28,128.14L74.7,132.55L75.41,131.36L76.12,129.25L76.83,130.01L78.26,131.19L78.97,129.42L80.39,131.28L81.1,131.45L82.53,137.38L83.24,136.19L83.95,136.53L84.66,137.89L85.37,136.11L86.08,138.4L86.79,140.18L87.51,139.92L88.22,148.4L88.93,146.45L89.64,147.55L90.35,153.23L92.48,175.09L93.2,146.95L93.91,150.43L94.62,150.01L95.33,152.38L96.04,157.89L97.46,162.21L98.18,92.22L98.89,99.59L99.6,98.74L101.02,99.59L101.73,101.62L102.44,115.77L103.16,93.49L103.87,91.03L104.58,92.9L105.29,99.42L106,97.98L107.42,108.15L108.14,93.74L110.98,103.91L111.69,103.15L113.12,106.28L113.83,113.57L115.25,131.19L115.96,97.73L116.67,99.76L117.38,99.25L118.1,101.96L118.81,101.45L120.23,110.52L120.94,107.55L122.36,113.57L123.08,117.72L124.5,104.33L125.21,110.77L126.63,79.42L127.34,85.44L128.06,86.96L128.77,91.54L129.48,93.4L130.19,99.67L131.61,78.49L132.32,83.83L133.04,83.07L133.75,87.22L134.46,83.74L135.17,86.2L135.88,84.76L136.59,90.69L137.3,90.1L138.02,92.64L138.73,101.71L139.44,70.78L140.15,72.47L140.86,77.81L142.28,90.52L143,69L143.71,68.24L144.42,70.36L145.13,67.56L145.84,70.61L149.4,86.88L150.11,89.34L151.53,102.47L152.24,102.81L153.67,114.08L154.38,88.4L156.51,95.35L157.22,108.32L158.65,115.94L159.36,137.72L160.07,72.47L160.78,73.66L161.49,73.66L162.2,71.37L162.92,74.17L163.63,74.76L164.34,74.17L165.76,77.98L166.47,83.83L167.9,83.07L168.61,91.37L170.03,66.71L170.74,68.07L171.45,68.32L172.16,75.36L172.88,75.19L173.59,81.63L175.01,100.95L175.72,82.98L176.43,82.73L177.14,84.68L177.86,87.64L178.57,95.27L181.41,118.82L182.12,95.69L183.55,94.25L184.26,95.86L185.68,101.45L186.39,102.98L188.53,120.01L189.24,105.77L189.95,105.44L190.66,112.13L191.37,88.49L192.08,92.05L192.8,79.59L193.51,82.3L194.93,84.76L195.64,92.13L197.06,91.45L197.78,94L199.2,102.22L199.91,103.15L200.62,107.98L201.33,119.76L202.04,100.78L202.76,103.57L203.47,105.1L204.18,112.21L206.31,135.77L207.02,133.4L207.74,144.84L208.45,119.5L209.16,125.43L209.87,106.37L210.58,89.59L211.29,94.59L212.72,102.13L213.43,107.13L214.14,110.27L214.85,75.36L216.27,83.15L216.98,80.19L218.41,86.29L219.12,85.78L220.54,88.24L221.25,98.23L221.96,45.28L222.68,50.53L223.39,54.77L224.1,28.75L226.23,40.45L226.94,41.46L229.79,74.08L230.5,58.49L231.21,63.32L231.92,60.36L233.35,66.29L234.06,66.37L236.19,78.41L236.9,76.37L237.62,77.47L238.33,81.46L239.04,88.32L239.75,74.59L240.46,54L241.17,55.02L241.88,55.36L243.31,52.9L244.02,61.71L244.73,62.65L245.44,68.32L246.15,86.2L246.86,55.19L247.58,56.38L248.29,59.68L249,57.56L249.71,59.68L250.42,67.73L251.13,42.9L251.84,40.19L252.56,42.48L253.98,55.87L254.69,53.83L256.82,72.39L257.54,54.77L258.25,56.38L258.96,54.85L261.09,64.09L261.8,64.85L262.52,71.46L263.23,70.86L263.94,84L264.65,67.22L265.36,68.07L266.07,73.24L266.78,74.17L267.49,70.78L268.92,76.97L269.63,61.12L270.34,62.22L271.05,68.24L272.47,68.83L273.19,67.56L273.9,80.86L274.61,59.68L276.03,67.39L276.74,77.81L277.45,55.53L278.17,56.46L278.88,57.48L279.59,55.19L280.3,64L282.43,82.64L283.15,67.22L283.86,42.31L284.57,47.22L285.28,45.78L285.99,51.38L287.41,58.32L288.13,59.76L288.84,60.1L289.55,63.83L290.26,64.68L290.97,69.51L291.68,81.8L292.39,53.49L293.82,58.49L294.53,59.6L296.66,73.41L297.37,83.57L298.09,62.31L298.8,68.32L300.93,75.02L301.64,75.44L302.35,75.78L303.07,86.96L304.49,97.64L305.2,86.37L305.91,87.73L306.62,48.75L307.33,47.99L308.05,51.29L308.76,53.07L309.47,59.85L313.03,83.66L313.74,58.41L314.45,62.82L315.16,61.29L315.87,66.46L316.58,66.2L317.29,69.42L319.43,85.02L320.14,64.43L322.27,68.41L322.99,72.64L324.41,90.78L325.12,78.24L325.83,81.12L326.54,88.74L327.25,83.15L327.97,86.88L330.1,105.1L330.81,129.08L331.52,132.55L332.23,131.79L332.95,138.14L333.66,108.49L335.08,115.77L335.79,114.42L336.5,114.16L337.21,119.08L337.93,121.62L338.64,108.66L340.06,122.64L340.77,122.47L342.19,122.21L342.91,130.18L343.62,94.25L344.33,95.86L345.04,96.12L345.75,96.28L346.46,99.42L347.89,111.79L348.6,113.23L349.31,126.62L350.02,102.05L350.73,101.62L351.44,105.27L352.87,123.23L353.58,93.23L354.29,92.73L355,97.81L356.42,98.49L357.13,110.01L357.85,82.05L358.56,83.32L359.27,84.59L362.11,92.56L362.83,94.17L363.54,95.95L364.25,101.96L365.67,104.33L366.38,110.52L367.09,120.18L367.81,106.03L368.52,105.18L369.23,109.67L370.65,113.15L371.36,118.32L372.07,122.13L372.79,133.48L373.5,141.79L374.21,102.81L374.92,107.05L375.63,123.74L376.34,125.6L377.05,124.5L377.77,125.86L378.48,123.23L379.19,122.64L379.9,124.84L380.61,126.11L381.32,131.19L382.03,131.28L382.75,133.99L383.46,132.89L384.17,134.08L384.88,139.07L385.59,126.62L386.3,124.25L387.01,126.2L388.44,132.8L389.15,133.31L391.99,152.29L392.71,126.28L393.42,125.6L394.13,131.19L395.55,164.66L396.26,164.92L397.69,170.76L398.4,169.41L400.53,169.41L401.24,172.88L401.95,181.53L402.67,179.66L404.8,188.56L405.51,205.42L406.22,117.64L406.93,118.48L407.65,121.62L408.36,120.18L409.07,123.48L409.78,121.87L410.49,126.11L411.2,123.31L411.91,128.48L412.63,139.5L413.34,108.15L416.18,103.4L416.89,100.44L418.32,100.27L419.03,102.39L420.45,103.66L421.16,111.2L421.87,111.62L422.59,114.16L424.72,118.06L425.43,123.4L426.85,133.4L427.57,144.07L428.99,192.46L429.7,195.34L430.41,196.69L431.12,195.76L433.26,215.84L433.97,180.42L434.68,180.34L435.39,181.95L436.1,185.34L436.81,182.63L437.53,182.8L438.24,181.36L439.66,178.73L440.37,180.93L441.08,178.22L441.79,182.37L442.51,182.46L443.22,188.22L443.93,186.53L444.64,187.03L445.35,187.97L446.06,185.51L446.77,194.91L447.48,183.9L451.04,194.66L451.75,195.93L452.46,195.51L453.18,196.95L454.6,195.17L455.31,195.76L456.73,196.78L457.44,196.35L458.16,197.54L458.87,193.73L460.29,196.18L461,195.42L461.71,195.93L462.42,195.51L463.14,197.37L463.85,196.1L464.56,194.49L465.27,196.52L466.69,196.69L467.4,195.25L469.54,197.96L470.25,198.3L470.96,200.25L471.67,199.49L472.38,199.91L473.1,198.3L475.23,201.27L475.94,201.27L476.65,200.68L477.36,201.44L478.79,200.17L479.5,199.83L480.21,201.1L480.92,199.74L482.34,202.12L483.06,202.71L484.48,201.78L485.19,201.78L488.75,200.08L489.46,201.35L493.02,200.93L493.73,200.25L495.86,201.52L496.57,200.17L497.28,200.76L498,199.74L498.71,199.15L499.42,200.42L500.84,200.25L501.55,201.69L502.26,203.22L502.98,202.71L503.69,204.32L504.4,208.64L505.11,208.98L505.82,218.47L506.53,227.28L507.24,269.9L507.96,261.94L508.67,188.9L509.38,191.61L510.09,190.17L511.51,188.81L512.22,191.19L515.07,196.35L515.78,196.1L517.2,194.66L517.92,195.25L518.63,193.39L519.34,193.98L520.76,200.51L521.47,199.66L522.18,199.91L522.9,198.47L524.32,200.76L525.03,198.13L525.74,198.22L526.45,202.79L527.88,204.66L528.59,202.71L530.01,208.73L530.72,269.9L532.14,269.73L532.86,268.46L534.28,269.48L534.99,268.8L535.7,269.56L536.41,272.19L537.84,271.6L538.55,274.48L539.97,277.19L540.68,279.82L542.1,282.19L542.82,233.81L544.24,232.7L544.95,233.64L547.08,233.21L547.8,231.6L548.51,231.69L549.22,230.67L549.93,230.08L550.64,230.93L552.06,231.77L552.78,234.74L553.49,236.01L554.2,234.91L555.62,236.01L556.33,234.74L557.04,239.74L557.76,250.33L559.18,228.72L559.89,226.26L562.02,227.96L562.74,226.69L563.45,227.96L564.16,227.2L566.29,234.57L567,234.15L569.85,245.92L570.56,245.25L571.27,251.77L571.98,222.62L573.41,224.49L574.12,228.89L575.54,228.47L576.25,231.94L577.68,232.2L578.39,234.06L579.81,232.96L580.52,232.96L581.23,235.75L581.94,234.23L583.37,243.55L584.08,243.38L584.79,246.43L586.21,307.52L586.92,307.27L588.35,306.76L589.06,307.18L592.62,307.78L593.33,308.37L596.17,308.37L596.88,309.13L604.71,309.9L605.42,310.4L606.13,310.4L606.84,309.64L607.56,310.24L608.27,312.01L609.69,313.03L610.4,313.12L611.11,313.45L611.82,312.69L612.54,313.62L613.25,312.61L615.38,313.03L616.09,320.15L616.8,321L617.52,331.67L618.23,330.66L618.94,332.86L619.65,331.42L620.36,332.01L621.07,332.86L621.78,331.5L622.49,331.16L623.21,332.35L623.92,331.25L624.63,342.09L626.05,351.5L626.76,351.5L710,351.5" style="vector-effect: none; fill: none; stroke: rgb(31, 119, 180); stroke-opacity: 1; stroke-width: 2px; opacity: 1;"/></g><g class="points"/><g class="text"/></g><g class="trace scatter trace14cb31" style="stroke-miterlimit: 2; opacity: 1;"><g class="fills"/><g class="errorbars"/><g class="lines"><path class="js-line" d="M0,74.17L0.71,75.95L1.42,65.7L3.56,62.9L4.27,60.61L5.69,57.9L6.4,58.83L7.83,64.26L8.54,62.73L9.25,64.76L9.96,71.97L11.38,88.4L12.09,98.66L13.52,115.1L14.23,103.57L15.65,114.93L16.36,115.01L17.07,114.5L17.79,115.01L19.21,118.65L19.92,120.35L20.63,130.26L21.34,114.84L22.05,114.25L22.77,119.59L24.19,131.19L24.9,116.03L27.03,127.38L27.75,125.09L28.46,125.94L29.17,128.23L30.59,128.31L31.3,135.09L32.73,132.38L33.44,140.18L34.15,140.52L34.86,147.12L35.57,123.99L36.28,124.75L36.99,126.28L38.42,132.47L39.13,136.45L39.84,141.19L40.55,140.6L41.26,120.35L41.97,121.28L42.69,124.5L43.4,127.38L44.11,125.77L44.82,127.81L45.53,135.52L46.95,107.38L47.67,108.57L49.09,126.28L49.8,122.38L51.93,130.52L52.65,130.52L53.36,130.6L54.07,132.55L54.78,141.02L55.49,182.2L56.2,176.1L56.91,122.55L57.63,130.52L58.34,105.27L59.05,105.77L59.76,100.86L60.47,101.71L61.18,100.86L61.89,100.1L62.61,102.47L63.32,99.76L64.03,100.78L64.74,101.54L65.45,105.35L67.59,111.79L68.3,112.98L69.72,117.21L70.43,118.48L71.14,119.84L71.85,119.5L72.57,128.65L73.28,163.99L74.7,175L75.41,177.2L76.83,183.39L77.55,183.9L78.97,193.22L79.68,174.41L80.39,174.58L81.1,173.56L81.81,172.21L82.53,173.98L83.24,170.76L83.95,171.61L84.66,178.05L85.37,145.68L86.79,147.8L87.51,148.56L88.22,148.14L88.93,149.67L90.35,154.75L91.06,154.16L91.77,154.58L92.48,157.63L93.2,157.04L93.91,161.11L94.62,160.94L95.33,164.58L97.46,181.44L98.18,138.48L99.6,142.46L100.31,149.67L101.73,151.7L102.44,156.02L104.58,165.77L105.29,168.14L106,167.71L106.71,158.14L107.42,161.78L108.14,199.07L108.85,166.02L109.56,167.46L110.27,169.92L110.98,107.89L111.69,109.67L112.4,116.54L113.12,113.99L113.83,121.7L114.54,101.45L115.25,106.71L115.96,104.33L116.67,109.76L117.38,107.81L118.1,111.88L120.23,120.18L120.94,125.43L121.65,136.87L122.36,81.8L123.08,77.81L123.79,78.75L124.5,79.08L125.21,80.61L125.92,82.64L126.63,79.25L129.48,91.12L130.19,91.03L130.9,93.49L131.61,92.64L132.32,102.05L133.04,84.25L133.75,84.08L134.46,84.76L135.88,88.15L136.59,90.69L137.3,92.47L138.02,99.93L138.73,108.99L139.44,151.53L140.15,148.48L140.86,140.26L141.57,93.15L142.28,103.23L144.42,119.93L145.13,143.82L146.55,150.43L147.26,167.29L147.98,168.14L148.69,165.51L149.4,173.56L150.11,173.22L150.82,172.12L151.53,172.54L152.24,170.68L153.67,170.09L154.38,170.93L155.09,171.78L155.8,170.68L156.51,170.6L157.22,177.54L158.65,150.51L159.36,150.85L160.07,150.09L160.78,150.85L162.2,148.9L162.92,149.5L163.63,149.75L164.34,147.63L165.76,148.31L166.47,147.46L167.9,148.9L168.61,148.14L169.32,146.28L170.03,147.89L170.74,149.16L171.45,148.73L172.16,149.33L172.88,146.45L173.59,148.73L174.3,147.72L175.01,148.48L175.72,147.89L176.43,150.85L177.14,150.17L177.86,148.56L178.57,154.58L179.99,157.12L180.7,157.21L181.41,161.95L182.12,161.78L182.84,163.9L183.55,161.87L184.26,164.24L185.68,170.6L186.39,171.02L188.53,176.7L189.24,174.32L189.95,174.58L190.66,180.17L191.37,171.1L192.08,133.65L194.22,141.45L194.93,150.17L195.64,158.05L196.35,130.43L197.06,129.16L197.78,132.97L199.91,147.46L200.62,147.46L201.33,145.43L202.04,146.45L204.18,152.46L204.89,156.36L206.31,166.87L207.02,167.38L207.74,173.22L208.45,172.63L209.16,174.75L209.87,172.29L211.29,178.14L212,177.46L213.43,175.26L214.14,176.53L216.27,178.05L216.98,175.59L217.7,175.85L218.41,177.63L219.83,174.58L220.54,176.27L221.25,176.36L221.96,179.07L222.68,176.1L223.39,176.44L224.1,178.22L224.81,177.88L226.23,180.85L226.94,180.68L227.66,183.05L228.37,181.02L229.79,184.15L230.5,180.34L231.92,184.66L232.64,183.05L234.06,186.53L234.77,188.05L235.48,188.47L236.19,189.83L236.9,188.81L237.62,189.83L238.33,191.27L239.04,188.14L240.46,192.63L241.17,193.05L241.88,194.07L242.6,197.79L243.31,197.03L244.02,202.2L245.44,207.37L246.15,213.47L246.86,218.38L247.58,201.52L249.71,201.69L250.42,205.25L251.13,212.79L251.84,167.04L252.56,167.55L253.27,170.76L253.98,138.82L254.69,140.52L255.4,142.63L256.82,151.36L257.54,149.84L258.25,149.41L258.96,150.68L259.67,152.72L260.38,150.94L261.8,147.04L262.52,148.23L263.23,146.45L263.94,151.02L265.36,148.4L266.07,151.28L267.49,149.84L268.21,151.02L268.92,150.51L269.63,148.9L270.34,149.24L271.05,147.72L272.47,148.31L273.19,147.8L276.74,155.09L277.45,152.29L279.59,154.07L280.3,153.65L283.15,157.04L283.86,157.8L285.28,159.5L285.99,159.92L287.41,158.31L288.13,159.41L288.84,160.94L289.55,158.31L290.97,160.85L291.68,160.26L292.39,162.88L293.11,135.94L293.82,137.3L294.53,135.52L295.24,136.45L295.95,135.09L299.51,147.04L300.22,145.35L304.49,152.38L305.2,159.41L305.91,160.6L306.62,158.22L308.05,161.53L308.76,164.16L309.47,112.98L310.18,113.65L310.89,119.5L311.6,118.57L312.31,124.33L313.03,126.79L313.74,125.01L315.87,142.8L316.58,129.84L317.29,129.42L318.01,131.7L318.72,131.19L319.43,129.67L320.85,131.62L321.56,132.3L322.99,139.16L323.7,144.5L325.12,155.77L325.83,126.2L327.97,130.94L328.68,131.7L330.1,133.99L330.81,137.46L333.66,143.65L334.37,148.14L335.79,160.6L336.5,158.73L337.21,164.16L337.93,162.63L338.64,172.63L339.35,148.31L340.06,159.75L340.77,111.54L341.48,107.98L342.19,108.91L345.04,123.82L345.75,122.04L346.46,128.14L347.17,142.46L347.89,112.89L348.6,115.35L350.02,124.25L350.73,124.84L352.15,133.82L352.87,140.01L353.58,143.82L354.29,152.21L355,155.77L355.71,146.62L357.13,127.64L357.85,132.21L358.56,131.62L359.27,135.18L359.98,133.48L360.69,139.75L361.4,144.07L362.11,141.36L364.25,158.65L364.96,157.12L365.67,162.63L366.38,147.12L368.52,152.04L369.23,129.84L369.94,133.65L370.65,142.8L372.07,153.82L372.79,144.5L374.21,157.97L374.92,110.77L375.63,110.52L376.34,112.89L377.05,112.13L377.77,113.4L379.19,119.08L379.9,121.54L381.32,131.28L382.03,131.7L382.75,142.8L383.46,107.55L384.17,106.37L384.88,108.06L385.59,105.86L386.3,107.55L387.01,108.4L387.73,112.55L389.15,114.67L389.86,118.65L391.99,137.46L392.71,112.13L394.13,114.25L394.84,113.82L398.4,127.13L399.11,127.04L400.53,129.67L401.24,135.09L401.95,142.63L402.67,140.01L403.38,145.85L404.09,144.67L404.8,147.38L405.51,142.63L406.93,113.57L407.65,118.57L409.07,123.82L409.78,123.91L410.49,125.86L411.2,130.52L413.34,149.24L414.05,125.94L415.47,157.04L416.18,151.7L416.89,151.7L417.61,160.34L418.32,121.87L419.03,123.15L419.74,124.42L420.45,124.33L421.16,130.43L421.87,133.06L422.59,138.82L423.3,137.38L424.01,146.79L424.72,146.19L425.43,153.23L426.85,91.37L427.57,93.49L428.28,91.37L428.99,92.9L430.41,110.1L431.12,112.55L432.55,133.31L433.26,112.64L433.97,117.64L434.68,108.57L435.39,77.64L436.1,78.24L436.81,79.17L438.24,92.39L438.95,90.95L440.37,93.23L441.08,110.27L441.79,86.79L442.51,91.79L444.64,111.03L445.35,83.49L446.06,86.96L446.77,85.78L447.48,85.78L448.2,86.96L450.33,106.2L451.04,82.56L452.46,91.62L453.18,100.69L453.89,79.08L454.6,87.39L458.87,93.83L459.58,98.74L461,100.78L461.71,99.42L462.42,100.18L463.14,102.98L463.85,117.3L464.56,94.84L466.69,112.89L467.4,122.81L468.12,99.42L468.83,103.32L469.54,110.52L470.25,108.32L471.67,117.3L472.38,130.77L473.81,79.42L474.52,78.75L475.23,80.86L475.94,85.95L477.36,94.34L478.08,82.81L479.5,82.39L480.21,85.35L480.92,84.85L481.63,88.83L483.06,92.56L483.77,106.71L485.19,88.07L485.9,94.84L487.32,108.4L488.04,105.27L488.75,122.21L489.46,96.03L490.17,101.79L490.88,82.98L491.59,80.52L492.3,92.22L493.02,74.34L493.73,76.63L494.44,80.19L495.15,78.91L496.57,83.74L497.28,82.22L498,83.66L498.71,81.37L499.42,82.47L500.13,89.42L501.55,86.63L502.26,94.17L503.69,99L504.4,100.18L507.96,110.6L508.67,107.81L509.38,110.86L510.09,108.74L510.8,107.55L511.51,114.08L512.22,111.79L512.94,117.47L513.65,117.98L514.36,129.5L515.07,96.12L515.78,98.57L517.2,103.66L517.92,102.39L520.05,112.3L520.76,87.3L521.47,85.27L522.18,89L522.9,89.51L523.61,85.61L524.32,85.1L525.03,85.52L525.74,85.78L526.45,88.83L528.59,97.64L529.3,98.66L530.72,100.61L531.43,107.98L532.86,82.3L533.57,84.42L534.28,82.73L534.99,86.46L535.7,85.27L536.41,87.3L537.84,91.62L538.55,93.83L539.26,64.68L539.97,66.8L540.68,66.54L541.39,72.47L542.1,72.47L542.82,83.15L544.24,104.67L544.95,98.49L545.66,99.84L546.37,109.08L548.51,118.23L549.22,109.67L550.64,91.03L551.35,112.47L552.06,96.03L552.78,101.88L553.49,90.86L554.2,95.69L556.33,98.06L557.04,103.4L558.47,110.01L559.18,108.06L560.6,112.47L561.31,112.38L562.74,114.5L563.45,91.03L564.16,91.03L564.87,92.3L565.58,90.86L566.29,92.13L567.72,96.37L568.43,95.86L569.85,101.28L570.56,103.66L572.7,111.2L573.41,100.78L574.12,101.79L574.83,105.86L575.54,117.47L576.25,116.54L576.96,119.42L577.68,130.26L579.1,108.4L579.81,107.64L580.52,110.01L581.23,109.42L581.94,110.86L582.66,117.89L585.5,131.62L586.21,105.01L588.35,118.06L589.06,92.73L589.77,96.2L590.48,104L592.62,134.41L593.33,121.87L595.46,131.7L596.17,132.38L596.88,133.82L597.6,146.62L598.31,93.83L599.02,95.86L599.73,102.64L601.15,106.71L601.86,115.77L602.58,115.18L603.29,131.19L604,148.82L604.71,112.3L605.42,123.57L606.13,102.55L606.84,103.49L607.56,108.06L608.98,121.28L609.69,126.36L610.4,105.61L611.11,106.71L611.82,108.57L612.54,109.25L613.25,108.49L614.67,111.37L615.38,114.76L617.52,142.55L618.23,123.31L618.94,122.89L619.65,126.36L620.36,131.87L621.07,96.62L622.49,96.45L623.21,101.28L623.92,107.38L624.63,84.85L626.05,86.88L626.76,84.42L628.19,91.79L628.9,91.29L631.03,104.93L631.74,114.08L633.17,88.57L633.88,91.88L635.3,92.64L636.01,95.86L638.15,105.1L638.86,103.15L641.7,117.72L642.41,118.65L644.55,131.28L645.26,106.96L646.68,110.77L647.39,110.69L648.11,112.3L648.82,111.37L650.24,117.21L650.95,107.55L652.37,128.23L653.09,109.08L653.8,92.9L654.51,98.06L655.93,107.38L656.64,109.08L657.35,109.5L658.07,114.59L658.78,115.01L659.49,127.47L660.2,101.62L660.91,102.89L661.62,105.52L663.05,122.89L663.76,102.81L664.47,102.05L665.18,105.27L667.31,118.32L668.03,117.98L669.45,122.3L670.16,122.47L670.87,128.23L671.58,101.62L672.29,99.84L673.01,100.86L673.72,100.69L674.43,105.27L675.85,105.52L676.56,105.27L677.99,118.23L678.7,116.45L680.12,134.41L680.83,113.91L682.97,135.35L683.68,116.28L684.39,116.45L685.1,122.3L686.52,134.41L687.23,137.46L687.95,136.02L688.66,139.41L689.37,139.5L690.08,142.21L690.79,141.53L691.5,139.16L692.21,139.84L692.93,142.04L694.35,142.38L695.06,144.92L697.19,142.21L697.91,146.19L698.62,152.46L699.33,151.53L700.04,151.19L700.75,151.78L701.46,160.34L702.17,134.67L702.89,136.45L703.6,135.35L704.31,139.75L705.02,123.99L705.73,124.5L706.44,128.14L707.15,126.45L707.87,130.18L709.29,130.26L710,132.72" style="vector-effect: none; fill: none; stroke: rgb(255, 127, 14); stroke-opacity: 1; stroke-width: 2px; opacity: 1;"/></g><g class="points"/><g class="text"/></g><g class="trace scatter traceb73071" style="stroke-miterlimit: 2; opacity: 1;"><g class="fills"/><g class="errorbars"/><g class="lines"><path class="js-line" d="M0,74.17L0.71,75.95L1.42,65.7L3.56,62.9L4.27,60.61L5.69,57.9L6.4,58.83L7.83,64.26L8.54,62.73L9.25,64.76L9.96,71.97L11.38,88.4L12.09,98.66L13.52,115.1L14.23,103.57L15.65,114.93L16.36,115.01L17.07,114.5L17.79,115.01L19.21,118.65L19.92,120.35L20.63,130.26L21.34,114.84L22.05,114.25L22.77,119.59L24.19,131.19L24.9,140.85L25.61,143.65L26.32,149.92L27.03,150.26L27.75,146.95L28.46,147.46L29.17,150.09L30.59,150.26L31.3,155.85L32.73,153.14L33.44,160.51L34.15,161.27L34.86,168.39L35.57,137.21L36.28,138.65L36.99,137.13L38.42,144.5L39.13,144.07L39.84,144.67L40.55,143.74L41.26,141.87L41.97,143.48L43.4,137.13L44.11,138.74L44.82,138.99L45.53,148.48L46.24,111.54L46.95,111.79L47.67,110.1L48.38,113.82L49.09,110.27L50.51,112.13L51.22,113.65L51.93,111.45L52.65,113.99L54.07,114.84L54.78,114.08L56.2,113.99L56.91,116.62L59.76,121.45L60.47,121.96L61.18,122.72L61.89,125.77L62.61,127.38L63.32,123.4L65.45,128.91L66.16,135.85L66.87,115.01L67.59,117.64L69.72,118.06L70.43,121.2L71.14,119.59L71.85,121.62L72.57,124.75L73.28,124.16L74.7,131.62L75.41,132.89L76.83,135.77L77.55,137.04L78.26,139.67L78.97,138.48L79.68,140.43L80.39,144.92L81.1,145.35L81.81,148.4L82.53,153.06L83.24,151.62L83.95,150.77L84.66,154.5L85.37,149.16L86.08,152.46L86.79,159.07L87.51,141.19L88.22,146.62L88.93,132.3L89.64,132.64L90.35,136.19L93.2,140.85L93.91,146.36L94.62,144.33L95.33,148.82L96.75,153.82L97.46,155.85L98.18,96.54L98.89,101.71L101.73,113.32L102.44,122.89L103.16,135.94L103.87,113.49L105.29,114.33L106,111.45L106.71,110.01L107.42,112.64L110.27,141.28L110.98,120.6L112.4,132.3L113.12,84.59L113.83,83.49L114.54,84.08L115.96,81.2L116.67,83.91L117.38,83.66L118.1,85.44L118.81,84.08L119.52,87.56L120.23,90.86L120.94,87.39L123.08,100.78L123.79,100.86L124.5,105.1L125.21,77.05L125.92,77.22L126.63,79.17L128.06,83.49L128.77,85.52L129.48,86.46L130.19,89.17L130.9,88.83L131.61,91.03L132.32,92.56L133.04,96.28L133.75,107.72L134.46,81.46L135.88,79.59L136.59,78.75L138.02,81.46L138.73,87.05L141.57,102.64L142.28,107.3L143,118.32L143.71,88.49L144.42,87.64L145.13,88.83L146.55,100.27L147.26,99.67L147.98,112.81L148.69,82.56L149.4,81.29L150.11,83.07L151.53,87.56L152.24,90.01L153.67,98.49L154.38,109.16L155.09,89.08L155.8,89.25L156.51,90.86L158.65,101.62L159.36,111.03L160.07,117.55L160.78,106.54L161.49,110.35L162.2,109.42L162.92,106.88L163.63,107.13L164.34,109.67L165.05,108.74L165.76,107.72L166.47,111.71L167.18,85.86L167.9,91.45L168.61,91.88L169.32,90.69L170.03,90.95L170.74,97.81L172.16,107.22L172.88,107.55L175.01,113.4L175.72,113.4L176.43,113.74L177.14,112.47L179.28,118.65L179.99,117.47L180.7,117.21L181.41,119.76L182.12,118.32L182.84,118.82L184.26,117.81L184.97,119.5L186.39,119.76L187.1,123.15L187.82,123.65L188.53,125.52L189.24,124.33L189.95,131.11L191.37,111.71L192.08,110.86L193.51,107.13L194.22,107.38L196.35,114.08L197.06,112.98L198.49,125.35L199.2,124.16L199.91,125.01L200.62,133.14L202.04,102.81L202.76,104.5L204.18,104.59L204.89,107.05L206.31,113.06L207.02,114.76L207.74,111.71L208.45,112.72L210.58,126.45L211.29,126.62L212,124.16L212.72,124.75L213.43,126.36L214.14,124.92L215.56,129.75L216.27,133.99L217.7,141.19L218.41,118.23L219.83,124.67L220.54,122.64L221.25,121.03L221.96,124.84L222.68,126.45L223.39,131.19L224.1,135.52L224.81,131.79L226.23,133.48L226.94,134.41L228.37,140.77L229.08,120.52L229.79,120.86L230.5,122.47L231.92,119.67L232.64,123.23L235.48,117.55L236.19,118.57L236.9,118.74L237.62,117.38L239.04,117.13L239.75,117.72L240.46,119.08L241.17,116.54L241.88,119.84L242.6,119.67L243.31,118.65L248.29,146.45L249,146.11L249.71,146.7L250.42,150.01L251.13,153.9L251.84,101.37L252.56,102.72L253.27,109.67L253.98,115.1L254.69,87.3L255.4,87.98L256.11,94.34L256.82,92.13L257.54,98.15L258.25,99.42L258.96,97.81L260.38,106.45L261.09,107.81L261.8,117.81L262.52,62.14L263.23,58.32L263.94,71.12L264.65,44.34L265.36,46.97L266.78,54.09L267.49,54.85L268.21,52.56L268.92,57.48L269.63,59.43L270.34,67.48L272.47,84L273.19,81.71L273.9,100.61L274.61,88.24L276.03,55.1L276.74,60.87L277.45,41.89L278.17,42.65L278.88,46.63L279.59,45.7L280.3,47.99L282.43,68.83L283.15,83.49L283.86,81.71L284.57,90.44L285.28,92.56L285.99,103.57L286.7,92.22L287.41,66.04L288.13,65.02L288.84,67.05L289.55,71.29L290.26,52.9L290.97,51.29L291.68,56.21L293.11,66.71L293.82,70.02L294.53,78.91L295.24,53.92L297.37,79.51L298.09,52.05L299.51,63.83L300.22,62.82L303.07,69.93L303.78,74.42L305.2,87.22L305.91,63.07L306.62,63.75L307.33,65.7L308.76,79.51L309.47,52.65L310.89,61.37L311.6,60.1L313.03,62.82L313.74,62.48L315.87,83.83L316.58,82.39L317.29,96.12L318.01,49.43L318.72,48.83L319.43,51.12L320.85,52.05L321.56,54.26L322.99,60.87L323.7,52.31L324.41,49.85L325.12,50.36L327.25,56.97L327.97,58.24L330.81,84.34L331.52,57.65L333.66,63.15L334.37,68.92L335.08,70.53L335.79,70.02L336.5,69.59L337.21,71.2L339.35,87.05L340.06,93.32L340.77,92.22L341.48,100.95L342.19,103.4L342.91,89.42L344.33,107.13L345.04,82.98L345.75,59.51L346.46,62.14L347.17,66.37L347.89,42.99L351.44,61.8L352.15,72.47L352.87,65.95L353.58,72.39L355.71,88.4L356.42,93.83L357.13,96.2L357.85,110.69L358.56,114.76L359.27,113.74L359.98,123.15L360.69,107.55L362.11,117.04L362.83,120.69L363.54,105.61L364.25,113.23L364.96,113.15L365.67,116.71L366.38,120.18L367.09,134.5L367.81,107.98L368.52,135.09L369.23,136.62L369.94,141.02L370.65,142.38L371.36,146.87L372.79,86.54L373.5,87.98L374.21,90.61L374.92,86.79L375.63,89.68L376.34,87.73L378.48,90.61L379.19,91.54L379.9,92.81L380.61,97.98L381.32,96.03L382.03,97.22L382.75,101.79L383.46,99.25L384.17,101.2L384.88,100.95L385.59,104.67L386.3,102.72L387.73,109.67L388.44,112.38L389.15,115.1L389.86,150.01L390.57,112.98L391.28,116.96L391.99,108.15L392.71,108.91L393.42,110.27L394.13,101.2L395.55,105.01L396.26,104.25L396.97,99.67L397.69,102.81L399.11,97.64L399.82,102.55L400.53,99.93L401.24,102.72L402.67,106.79L403.38,106.28L404.09,103.74L404.8,110.77L405.51,90.61L406.22,91.45L406.93,90.18L407.65,89.51L408.36,95.27L409.78,81.29L410.49,83.07L411.2,82.39L411.91,83.41L414.76,92.39L415.47,93.32L418.32,109.67L419.03,116.54L419.74,116.54L420.45,127.55L421.87,134.16L422.59,95.35L423.3,94.42L424.01,97.89L424.72,98.4L425.43,109.33L426.14,111.79L426.85,118.65L428.99,136.96L429.7,126.03L431.12,123.82L431.83,129.84L432.55,150.01L433.26,100.78L433.97,103.32L434.68,109.67L435.39,108.74L436.1,125.69L436.81,107.13L437.53,115.69L438.95,86.71L439.66,90.69L441.08,104.16L441.79,75.02L443.22,75.61L443.93,76.37L444.64,81.46L445.35,80.52L446.06,89.34L446.77,86.79L447.48,87.56L448.2,92.47L448.91,102.81L449.62,76.71L450.33,81.54L451.04,77.81L452.46,81.2L453.18,85.35L453.89,86.29L454.6,96.62L456.02,103.57L456.73,114.42L457.44,123.91L458.16,89.51L460.29,95.95L461,96.2L461.71,95.78L462.42,94.42L465.27,115.43L465.98,118.99L466.69,105.01L467.4,110.35L468.12,109.76L468.83,119.25L469.54,105.77L470.25,106.79L470.96,106.71L471.67,108.15L472.38,112.21L473.1,111.03L474.52,114.33L475.23,118.91L477.36,119.33L478.08,121.11L478.79,124.75L479.5,122.3L480.21,122.72L480.92,124.59L481.63,128.4L482.34,128.06L483.06,128.65L483.77,133.48L485.9,145.35L486.61,100.35L487.32,100.1L488.04,98.83L488.75,106.96L489.46,94.76L490.88,100.69L491.59,103.23L492.3,103.74L493.02,106.03L494.44,116.87L495.15,116.11L495.86,107.13L496.57,114.76L498,100.1L498.71,102.22L499.42,103.83L500.13,102.47L502.26,106.88L502.98,108.06L503.69,117.13L504.4,116.54L505.11,116.37L505.82,122.72L506.53,131.87L507.24,120.94L507.96,128.31L508.67,108.74L509.38,108.23L510.09,114.08L510.8,114.76L511.51,120.43L512.22,120.69L512.94,122.47L513.65,120.69L514.36,134.25L515.07,134.08L515.78,132.72L516.49,146.36L517.2,112.47L517.92,109.84L518.63,113.65L519.34,113.99L520.05,119.42L520.76,118.65L521.47,125.52L522.18,143.23L522.9,116.11L523.61,88.4L524.32,89.68L525.03,89.25L525.74,90.01L526.45,99.25L527.16,103.15L527.88,102.3L528.59,101.11L529.3,108.06L530.01,120.77L530.72,83.83L531.43,79.42L532.14,87.9L533.57,97.64L534.28,82.05L534.99,83.15L535.7,80.44L537.12,81.2L537.84,83.07L538.55,82.73L539.26,85.78L539.97,83.57L540.68,88.15L542.82,99.08L543.53,110.1L544.24,123.4L544.95,95.61L545.66,95.35L546.37,99.5L547.08,102.3L547.8,100.52L548.51,103.49L549.22,112.05L549.93,117.04L550.64,116.79L551.35,127.81L552.78,102.55L553.49,105.61L554.2,113.74L554.91,92.47L556.33,91.62L557.04,94.67L558.47,92.64L559.18,95.86L563.45,108.83L564.16,121.11L564.87,136.96L565.58,84.59L566.29,84L567,87.13L567.72,91.29L568.43,90.1L570.56,103.4L571.27,92.39L571.98,91.37L572.7,94.84L573.41,94.59L574.12,100.1L575.54,116.54L576.25,116.45L576.96,119.59L578.39,145.35L579.1,118.15L579.81,119.33L580.52,116.54L581.94,119.25L582.66,130.69L584.08,105.18L584.79,108.23L585.5,115.43L586.21,97.39L588.35,112.21L589.06,113.91L590.48,137.21L591.19,117.81L591.9,122.64L592.62,135.18L593.33,112.64L594.04,123.82L594.75,94.42L595.46,97.47L596.17,98.15L596.88,102.55L599.02,115.35L599.73,97.89L602.58,113.65L603.29,121.79L604.71,137.55L605.42,143.74L606.84,161.27L607.56,113.06L608.27,99L608.98,99.59L609.69,96.79L611.11,101.11L611.82,101.37L612.54,102.22L613.25,101.79L615.38,107.05L616.09,116.45L616.8,94.84L617.52,100.86L618.23,106.71L618.94,106.54L619.65,121.62L620.36,91.03L621.07,95.44L622.49,103.66L623.21,101.79L623.92,109.67L624.63,86.03L625.34,86.46L626.05,90.27L627.47,105.52L628.19,90.01L628.9,89.68L629.61,91.03L631.74,110.44L632.45,113.57L633.17,116.87L633.88,124.25L634.59,123.74L635.3,137.13L636.01,96.79L636.72,101.37L638.15,87.98L638.86,88.83L640.28,98.66L640.99,97.64L641.7,106.54L642.41,104.08L643.13,115.43L643.84,79.17L644.55,79.85L645.26,79.42L645.97,78.32L646.68,80.35L648.82,83.57L649.53,89.34L650.24,88.83L650.95,89.34L651.66,87.73L652.37,89.93L654.51,100.95L655.22,116.37L655.93,122.64L656.64,118.32L657.35,109.76L658.07,110.6L658.78,110.94L659.49,106.96L660.2,104.5L660.91,108.32L661.62,107.05L662.33,113.49L663.76,115.1L664.47,115.01L665.18,115.18L665.89,122.72L666.6,124.59L667.31,129.25L668.03,128.57L668.74,132.38L670.16,133.14L670.87,137.13L671.58,107.3L672.29,107.38L673.01,108.74L673.72,109.25L674.43,114.84L677.27,132.3L677.99,119.16L678.7,88.32L679.41,90.01L680.12,89.68L682.25,110.52L682.97,86.03L684.39,96.62L685.1,68.24L687.23,75.95L687.95,77.05L690.08,97.3L690.79,85.52L691.5,85.35L692.21,87.47L692.93,85.86L693.64,87.3L696.48,96.62L697.19,104.76L697.91,101.88L698.62,119.25L699.33,125.43L700.04,104.84L700.75,105.52L701.46,113.49L702.17,92.81L702.89,99.34L703.6,104.93L704.31,120.52L705.02,89.93L705.73,90.27L706.44,97.56L707.87,96.37L708.58,107.81L710,120.86" style="vector-effect: none; fill: none; stroke: rgb(44, 160, 44); stroke-opacity: 1; stroke-width: 2px; opacity: 1;"/></g><g class="points"/><g class="text"/></g><g class="trace scatter trace6d2b88" style="stroke-miterlimit: 2; opacity: 1;"><g class="fills"/><g class="errorbars"/><g class="lines"><path class="js-line" d="M0,74.17L0.71,75.95L1.42,65.7L3.56,62.9L4.27,60.61L5.69,57.9L6.4,58.83L7.83,64.26L8.54,62.73L9.25,64.76L9.96,71.97L11.38,88.4L12.09,98.66L13.52,115.1L14.23,103.57L15.65,114.93L16.36,115.01L17.07,114.5L17.79,115.01L19.21,118.65L19.92,120.35L20.63,130.26L21.34,114.84L22.05,114.25L22.77,119.59L24.19,131.19L24.9,151.11L26.32,158.82L27.03,153.9L27.75,149.41L28.46,149.92L29.88,153.14L30.59,151.87L31.3,156.7L32.01,155.26L32.73,153.99L33.44,161.61L34.15,162.55L34.86,169.75L35.57,137.8L36.28,139.33L36.99,137.55L38.42,144.84L39.13,142.89L39.84,144.67L40.55,144.16L41.26,141.28L41.97,142.72L43.4,137.21L44.11,137.55L44.82,138.65L45.53,147.12L46.95,114.25L47.67,114.16L48.38,115.52L49.09,112.05L49.8,112.38L50.51,116.37L51.22,115.86L51.93,113.74L52.65,115.94L53.36,115.26L54.07,117.3L54.78,115.1L55.49,117.55L56.2,116.45L59.76,123.57L60.47,123.15L61.18,122.64L61.89,124.5L62.61,125.43L63.32,123.15L64.03,123.65L64.74,125.6L65.45,128.06L66.16,134.92L66.87,135.77L67.59,141.96L68.3,127.55L69.01,128.99L69.72,129.25L70.43,132.04L71.14,132.47L71.85,131.7L72.57,137.89L73.28,136.87L74.7,143.23L75.41,142.29L77.55,143.65L78.26,149.92L78.97,148.82L79.68,152.21L80.39,139.07L81.1,139.41L81.81,144.16L83.24,127.3L83.95,129.42L85.37,124.25L86.08,124.67L86.79,123.99L87.51,126.62L88.22,125.6L88.93,127.81L89.64,128.57L90.35,133.06L91.06,131.53L91.77,134.67L93.91,142.89L94.62,140.43L97.46,156.02L98.18,99.08L98.89,100.95L99.6,100.52L100.31,104.42L101.02,103.57L102.44,102.55L103.16,106.45L104.58,110.44L105.29,111.37L106.71,113.15L107.42,116.2L110.27,153.31L110.98,103.74L111.69,103.06L112.4,108.49L113.12,108.83L113.83,113.82L115.25,109.67L115.96,110.35L117.38,112.64L118.1,108.99L119.52,116.96L120.23,90.69L121.65,90.18L122.36,91.12L123.08,93.66L123.79,92.73L125.92,103.4L126.63,102.72L128.77,124.33L129.48,94.67L130.9,91.88L131.61,92.9L132.32,99L133.04,98.06L133.75,98.06L134.46,96.62L135.88,99.76L136.59,104.5L137.3,101.54L138.02,105.69L139.44,119.59L140.15,117.72L141.57,135.26L142.28,104.59L143,104.25L143.71,106.45L144.42,108.83L145.13,106.79L146.55,123.48L147.26,92.3L150.11,112.64L150.82,100.95L152.24,97.39L152.96,99.17L154.38,101.11L155.09,106.45L157.94,131.19L158.65,95.95L159.36,105.52L160.07,78.15L161.49,82.9L162.2,82.47L162.92,85.02L163.63,90.78L164.34,94.17L165.05,94L165.76,94L166.47,98.49L167.18,79.42L167.9,84.51L168.61,81.46L170.03,81.12L170.74,86.96L171.45,86.2L172.16,88.91L172.88,89.08L173.59,90.52L176.43,122.89L177.14,119.16L177.86,130.86L178.57,113.06L179.28,115.52L179.99,114.84L180.7,114.08L181.41,120.18L182.84,118.48L183.55,121.11L184.26,118.74L184.97,122.47L186.39,123.15L187.1,120.6L187.82,120.43L188.53,121.11L189.95,124.42L190.66,133.06L191.37,111.54L192.08,112.3L192.8,112.55L193.51,116.79L194.22,116.03L195.64,119.16L196.35,119.67L197.06,120.77L197.78,103.91L198.49,105.61L199.2,105.27L199.91,104.16L200.62,105.61L201.33,107.22L202.04,106.37L202.76,107.22L203.47,105.18L204.89,110.94L205.6,111.45L206.31,113.23L207.02,112.05L207.74,112.38L208.45,111.54L211.29,122.04L212,121.96L214.14,119.67L214.85,120.52L215.56,123.74L216.27,113.23L216.98,109.84L217.7,111.54L218.41,110.86L219.12,112.3L220.54,113.57L221.25,110.27L222.68,110.6L223.39,112.3L224.1,112.89L224.81,118.99L225.52,123.48L226.23,107.72L226.94,107.89L227.66,112.98L229.79,124.67L230.5,122.04L231.21,122.21L231.92,123.74L233.35,129.33L234.06,129.08L234.77,130.35L235.48,128.65L236.19,129.75L236.9,129.42L237.62,128.91L238.33,130.43L239.04,131.11L239.75,134.16L241.17,139.16L241.88,141.62L242.6,143.31L243.31,141.11L244.02,153.82L244.73,131.87L245.44,136.96L246.15,89.34L247.58,95.95L248.29,72.64L249.71,73.92L250.42,71.29L251.13,71.2L251.84,75.36L253.27,75.02L253.98,80.69L255.4,82.64L256.11,88.74L256.82,92.39L257.54,91.29L258.25,95.78L258.96,72.9L260.38,73.58L261.09,73.66L262.52,82.3L263.23,81.46L266.07,96.37L266.78,96.45L268.92,99.67L269.63,84.51L271.76,100.44L272.47,101.2L273.19,102.64L273.9,113.57L274.61,96.79L275.32,104.67L276.74,115.69L277.45,98.66L278.17,97.47L278.88,99.93L279.59,96.2L280.3,109.76L281.72,80.95L282.43,88.74L283.15,96.2L283.86,95.27L284.57,103.06L285.28,42.9L287.41,51.63L288.13,55.27L288.84,59.51L289.55,57.99L290.26,61.46L290.97,71.71L291.68,49.43L292.39,54.34L295.95,75.44L296.66,85.27L297.37,66.46L298.09,76.12L298.8,84.85L299.51,70.78L300.22,78.58L300.93,75.53L301.64,76.12L302.35,78.75L304.49,97.22L305.2,96.96L306.62,103.06L307.33,75.69L308.05,79.42L308.76,56.71L310.89,65.53L311.6,65.53L313.03,78.32L313.74,49L314.45,44.6L315.16,46.63L316.58,51.55L317.29,56.8L320.14,75.78L320.85,58.24L321.56,59L322.27,55.87L323.7,60.02L324.41,63.75L325.12,65.1L325.83,69.59L326.54,72.31L327.25,82.05L327.97,64.93L328.68,72.14L329.39,73.49L330.1,83.83L331.52,50.61L332.23,51.38L332.95,49.51L333.66,49.77L335.79,67.73L336.5,50.44L340.06,61.54L340.77,61.54L342.19,64.43L342.91,70.7L344.33,80.86L345.04,69.09L347.17,79.59L347.89,88.07L348.6,90.78L349.31,99L350.02,111.62L350.73,83.74L352.87,110.86L353.58,81.37L354.29,91.29L355,73.07L355.71,70.53L356.42,77.22L357.13,49.77L357.85,55.1L359.98,57.48L360.69,62.9L362.11,65.02L362.83,68.07L364.96,87.56L365.67,72.39L367.09,85.95L367.81,96.62L368.52,88.74L369.23,89.42L369.94,87.81L370.65,89.59L371.36,88.57L372.07,92.05L372.79,100.86L373.5,88.07L374.21,88.24L374.92,90.35L376.34,91.12L377.05,93.91L379.19,101.45L379.9,104.5L380.61,116.87L381.32,92.9L382.03,81.2L382.75,84.25L383.46,83.66L384.17,88.32L384.88,86.54L385.59,88.49L386.3,88.32L387.01,92.39L388.44,108.4L389.15,108.91L390.57,125.26L391.28,108.57L392.71,87.13L393.42,90.18L394.84,89L395.55,95.86L396.97,96.79L397.69,104.42L398.4,104.25L399.11,102.39L399.82,104.5L400.53,103.74L401.24,107.98L401.95,116.87L402.67,116.2L403.38,123.4L404.8,152.63L405.51,150.85L406.22,159.16L406.93,136.7L409.07,143.65L409.78,141.96L411.2,146.11L411.91,146.7L412.63,144.5L413.34,147.46L414.05,145.18L414.76,149.41L416.18,150.01L416.89,153.14L417.61,160.26L418.32,157.46L419.03,156.02L419.74,157.38L421.16,160.85L421.87,160.51L422.59,167.55L423.3,156.61L424.01,158.65L424.72,158.22L426.14,163.31L426.85,161.87L427.57,162.04L428.28,164.33L428.99,159.33L429.7,168.99L430.41,170.09L431.12,167.12L431.83,170.34L432.55,152.89L433.26,152.89L433.97,151.36L434.68,155.68L435.39,125.43L437.53,136.36L438.24,136.79L438.95,138.31L439.66,135.43L440.37,134.41L441.08,137.97L442.51,109.59L443.22,110.18L443.93,108.99L444.64,104.33L445.35,105.35L446.06,103.66L446.77,107.05L447.48,106.03L448.91,107.22L449.62,107.72L450.33,108.74L451.04,107.64L452.46,115.86L453.18,117.04L453.89,117.72L454.6,127.04L455.31,127.97L456.02,134.67L457.44,143.99L458.16,113.23L458.87,111.11L459.58,106.54L461,110.1L461.71,109.33L463.14,106.03L463.85,114.16L465.27,111.79L465.98,118.65L466.69,99.5L467.4,104.5L468.12,102.98L468.83,103.83L469.54,102.89L470.25,104.16L470.96,103.49L471.67,105.77L472.38,106.37L473.1,109.76L473.81,110.27L474.52,107.72L477.36,126.45L478.08,125.77L478.79,125.86L479.5,124.25L482.34,130.26L483.06,129.75L483.77,135.01L484.48,132.8L485.19,135.26L485.9,134.25L487.32,137.04L488.04,136.62L488.75,145.85L489.46,78.83L490.17,79.51L490.88,77.9L493.73,94.76L494.44,84.85L495.15,83.07L495.86,86.88L497.28,88.32L498,90.52L500.13,93.83L500.84,98.15L501.55,95.95L502.26,99.25L502.98,102.05L503.69,109.42L504.4,97.64L505.11,97.98L505.82,102.3L507.24,102.22L507.96,108.15L508.67,79.76L509.38,80.35L510.09,78.66L510.8,79.17L511.51,81.03L512.22,77.22L512.94,81.03L513.65,79.93L514.36,82.56L515.07,82.64L515.78,84.85L516.49,83.32L517.2,85.1L517.92,84.25L518.63,85.52L519.34,87.39L520.05,92.56L520.76,91.37L521.47,96.62L522.18,102.22L522.9,99.93L524.32,115.86L525.03,83.15L525.74,82.56L526.45,86.63L527.16,86.37L527.88,87.05L528.59,89.59L529.3,87.81L530.01,91.03L530.72,97.98L531.43,75.44L532.14,78.58L534.99,90.35L535.7,90.61L536.41,90.18L537.12,94.17L537.84,73.83L538.55,74.42L539.26,71.8L539.97,73.92L540.68,73.49L543.53,81.8L544.24,87.64L545.66,100.44L546.37,85.78L547.08,83.66L547.8,86.29L548.51,85.44L549.22,91.12L549.93,90.69L550.64,92.22L551.35,96.54L552.06,96.03L552.78,94.08L553.49,97.47L554.91,110.77L555.62,110.01L556.33,107.55L557.04,116.79L559.18,121.03L559.89,134.92L560.6,99L561.31,100.1L562.02,99.93L562.74,100.52L563.45,102.55L564.87,117.13L565.58,85.02L567,89.68L567.72,90.95L570.56,103.32L571.27,91.03L572.7,83.74L573.41,86.2L574.12,86.96L574.83,94.84L575.54,104.5L576.25,104.16L576.96,106.79L578.39,126.96L579.1,131.62L579.81,136.96L580.52,104.42L581.23,103.74L581.94,107.98L582.66,111.28L583.37,93.91L584.08,93.23L584.79,98.74L585.5,84.68L586.21,88.4L586.92,89.17L587.64,93.57L588.35,92.56L589.06,95.61L589.77,96.71L590.48,105.27L591.9,112.72L592.62,96.37L593.33,96.2L594.04,101.45L594.75,109.25L595.46,87.39L597.6,102.47L598.31,76.97L599.02,76.63L599.73,74.59L600.44,75.78L601.15,75.1L602.58,82.64L603.29,81.96L606.84,114.76L607.56,132.3L608.27,56.46L608.98,56.8L609.69,60.27L611.11,77.73L611.82,58.66L612.54,63.83L613.25,75.36L614.67,47.39L615.38,50.7L616.8,57.14L617.52,68.49L618.23,79.17L618.94,76.2L620.36,91.88L621.07,70.27L621.78,77.56L622.49,76.29L623.21,80.27L623.92,89.93L625.34,95.69L626.05,75.27L626.76,89.17L627.47,78.66L628.9,47.39L629.61,50.11L631.03,58.66L631.74,64.26L632.45,38.67L633.17,42.39L633.88,41.46L634.59,43.24L635.3,47.73L636.01,46.8L637.43,51.63L638.15,50.53L638.86,52.31L639.57,56.29L640.28,62.82L640.99,59.09L643.13,69.93L643.84,43.41L645.26,48.16L645.97,47.14L646.68,44.26L647.39,47.48L649.53,62.31L650.24,61.88L650.95,61.21L651.66,67.73L653.09,74.76L653.8,79.59L655.22,107.47L655.93,85.27L656.64,85.1L657.35,88.91L658.78,92.3L659.49,98.15L660.2,102.64L660.91,89.34L661.62,90.01L662.33,96.2L665.89,120.6L666.6,120.52L668.74,118.15L669.45,119.08L670.87,118.82L671.58,126.36L672.29,128.91L673.01,127.72L673.72,130.09L674.43,122.72L675.14,90.95L675.85,93.23L677.99,102.22L678.7,98.23L680.12,99.76L680.83,104.76L681.54,78.83L682.25,78.91L682.97,78.75L685.1,75.1L685.81,79.59L686.52,80.1L687.23,82.9L687.95,82.56L688.66,86.29L690.79,104.76L691.5,103.83L692.21,110.44L692.93,59.17L693.64,58.24L694.35,58.66L696.48,64.43L697.19,69.93L697.91,71.46L698.62,82.05L699.33,71.97L700.04,77.39L700.75,86.2L701.46,51.29L702.17,52.14L702.89,55.78L703.6,54.68L704.31,63.83L705.02,68.92L705.73,66.88L707.15,76.71L707.87,77.56L710,98.66" style="vector-effect: none; fill: none; stroke: rgb(214, 39, 40); stroke-opacity: 1; stroke-width: 2px; opacity: 1;"/></g><g class="points"/><g class="text"/></g><g class="trace scatter traced1c4fb" style="stroke-miterlimit: 2; opacity: 1;"><g class="fills"/><g class="errorbars"/><g class="lines"><path class="js-line" d="M0,74.17L0.71,75.95L1.42,65.7L3.56,62.9L4.27,60.61L5.69,57.9L6.4,58.83L7.83,64.26L8.54,62.73L9.25,64.76L9.96,71.97L11.38,88.4L12.09,98.66L13.52,115.1L14.23,103.57L15.65,114.93L16.36,115.01L17.07,114.5L17.79,115.01L19.21,118.65L19.92,120.35L20.63,130.26L21.34,114.84L22.05,114.25L22.77,119.59L24.19,131.19L24.9,109.93L25.61,112.47L26.32,119.67L27.03,120.6L27.75,117.81L28.46,118.57L29.17,121.96L30.59,121.37L31.3,129.16L32.73,126.79L33.44,134.58L34.15,135.43L34.86,142.55L35.57,113.65L36.28,113.74L36.99,119.08L37.71,123.15L38.42,122.55L39.84,127.55L40.55,126.87L41.26,127.21L41.97,134.16L43.4,102.47L44.11,102.89L44.82,102.3L45.53,109.93L46.24,78.07L46.95,79.17L47.67,73.15L48.38,76.29L49.09,75.69L49.8,74.17L50.51,74.68L51.22,77.14L51.93,76.8L52.65,80.1L53.36,78.41L54.78,81.96L55.49,79.68L56.2,79.76L56.91,83.91L58.34,88.4L59.05,84.34L60.47,89.42L61.18,89.68L62.61,94L63.32,92.73L64.03,89.08L64.74,94.08L67.59,111.28L68.3,86.29L69.01,89.42L69.72,87.3L70.43,87.39L71.14,90.27L71.85,88.66L72.57,92.9L73.28,93.32L73.99,97.22L76.12,111.37L76.83,112.38L77.55,114.16L78.26,123.82L78.97,102.13L79.68,102.55L80.39,106.37L81.1,106.45L81.81,111.79L83.24,90.86L83.95,91.62L84.66,92.98L85.37,91.54L87.51,94L88.22,97.81L89.64,99.17L90.35,103.91L93.91,120.18L94.62,120.01L97.46,136.19L98.18,71.54L99.6,74.59L100.31,85.1L101.02,83.15L101.73,86.03L102.44,90.35L103.16,100.61L104.58,61.37L105.29,67.56L107.42,86.79L108.14,68.49L109.56,70.27L110.27,67.73L111.69,70.86L112.4,71.54L113.12,69.85L113.83,73.41L115.25,81.46L115.96,79.93L118.1,89.93L118.81,88.4L119.52,105.18L120.23,49L120.94,52.56L121.65,51.55L123.08,51.72L123.79,55.7L127.34,69.85L128.06,79.17L128.77,62.82L129.48,65.61L130.19,68.07L130.9,67.56L131.61,67.31L132.32,80.1L135.88,96.62L136.59,106.03L137.3,74.59L138.02,77.9L138.73,83.91L139.44,72.73L140.15,70.36L140.86,79.34L141.57,47.39L142.28,53.92L143.71,58.49L144.42,61.97L145.13,63.15L145.84,68.75L146.55,78.07L147.26,42.82L147.98,43.75L148.69,47.9L150.11,56.71L150.82,68.58L152.24,43.75L152.96,49.43L153.67,46.89L154.38,58.15L156.51,69.42L157.22,50.19L157.94,59.76L158.65,34.77L161.49,52.31L162.2,52.82L165.05,67.31L165.76,65.95L166.47,79.08L167.18,54.77L168.61,61.8L169.32,62.05L170.03,62.22L170.74,69.68L172.88,79.68L173.59,94.76L174.3,70.95L175.01,76.2L175.72,50.87L176.43,51.29L177.14,53.58L177.86,54.85L178.57,68.58L179.28,62.05L179.99,68.24L180.7,71.63L181.41,68.66L182.12,66.88L182.84,67.48L184.26,72.73L184.97,82.9L185.68,41.55L186.39,46.55L187.1,47.39L187.82,49.85L189.24,57.31L189.95,58.58L190.66,59.26L191.37,67.48L192.08,47.39L192.8,53.07L194.22,58.58L194.93,71.03L195.64,64.26L196.35,66.12L197.06,66.71L197.78,78.83L198.49,63.07L199.2,64.34L199.91,67.56L200.62,74.85L201.33,48.92L202.04,49.34L202.76,53.75L203.47,53.58L204.18,60.19L206.31,76.8L207.02,77.98L207.74,81.96L208.45,65.78L209.87,75.69L210.58,87.98L212,48.41L212.72,51.8L214.14,58.58L214.85,55.1L216.27,72.14L216.98,42.39L219.12,51.12L219.83,40.36L220.54,40.28L221.25,48.41L221.96,31.46L222.68,36.38L223.39,35.79L224.1,41.8L225.52,49.94L226.23,58.58L226.94,64.76L227.66,45.02L229.08,50.61L229.79,55.87L231.21,63.58L231.92,70.1L232.64,71.71L233.35,69.59L234.06,74.42L234.77,57.99L236.19,56.8L236.9,59.43L237.62,55.87L238.33,60.36L239.04,61.88L239.75,66.46L240.46,53.49L241.17,64L241.88,42.65L242.6,44.6L244.02,47.05L244.73,52.9L245.44,55.61L246.15,64.34L246.86,73.15L247.58,39.26L248.29,40.45L249,39.85L249.71,37.99L250.42,39.09L251.13,43.16L251.84,41.46L252.56,38.5L253.27,44L253.98,46.63L254.69,44.17L258.25,58.66L258.96,57.56L261.09,79.68L261.8,57.99L262.52,60.27L263.23,59.76L264.65,71.46L265.36,70.86L266.78,79.42L267.49,80.52L268.21,76.88L268.92,83.32L269.63,84.59L270.34,91.45L271.05,100.01L271.76,73.66L273.19,82.22L273.9,91.62L275.32,51.97L276.03,51.63L276.74,56.97L277.45,56.12L279.59,55.95L280.3,62.05L281.01,71.54L281.72,53.49L282.43,53.07L283.15,60.87L283.86,57.99L284.57,69.42L285.28,39.77L285.99,44L286.7,42.39L287.41,43.07L288.13,45.19L288.84,44.26L290.26,50.11L290.97,48.83L292.39,58.66L293.11,61.04L295.24,74.59L295.95,57.82L297.37,61.71L298.09,69.59L299.51,89.42L300.22,69.85L300.93,69.59L301.64,71.37L302.35,77.22L303.07,58.92L305.91,70.1L306.62,71.54L307.33,71.46L308.05,79.25L308.76,81.2L309.47,89.93L310.18,73.24L310.89,77.98L311.6,61.37L312.31,62.48L313.03,63.58L313.74,61.54L315.87,82.56L316.58,52.39L317.29,54.34L318.01,59.17L319.43,36.21L320.14,36.97L321.56,35.62L322.27,37.56L322.99,37.56L323.7,45.78L324.41,46.89L325.12,56.12L326.54,36.46L327.25,34.01L328.68,36.89L329.39,35.62L331.52,47.39L332.23,46.29L333.66,51.63L334.37,60.61L335.79,75.36L336.5,55.7L337.21,57.31L337.93,54.34L340.06,73.07L340.77,72.73L341.48,73.49L342.19,75.86L342.91,87.56L344.33,108.32L345.04,83.07L347.17,92.22L347.89,102.89L348.6,104.5L349.31,121.87L350.02,58.92L350.73,64L352.87,86.71L353.58,75.19L355,45.45L355.71,45.53L357.13,45.45L357.85,46.04L358.56,44.68L359.27,48.33L359.98,45.95L360.69,48.33L361.4,54.26L362.11,52.14L362.83,52.73L363.54,57.99L366.38,66.46L367.09,81.29L367.81,50.87L368.52,60.44L370.65,91.96L371.36,68.24L372.07,73.24L372.79,60.27L377.77,74.17L378.48,82.05L379.19,83.07L379.9,70.95L381.32,84.59L382.03,84.59L383.46,93.4L384.17,91.12L384.88,95.44L385.59,107.47L386.3,83.32L387.01,86.37L388.44,104.76L389.15,89.51L389.86,100.27L390.57,85.18L391.28,70.1L391.99,77.73L392.71,57.39L393.42,58.58L395.55,67.73L396.26,68.24L397.69,78.66L398.4,81.71L399.11,82.22L399.82,84.42L401.24,93.23L401.95,74.76L402.67,75.61L403.38,78.15L404.09,75.61L404.8,82.9L405.51,86.29L406.22,93.66L406.93,80.95L407.65,87.81L409.07,101.45L409.78,65.78L410.49,65.53L411.2,70.95L411.91,75.44L412.63,97.05L413.34,93.4L414.05,95.01L414.76,99.67L415.47,97.13L416.89,98.49L417.61,104.5L419.03,112.38L419.74,98.91L420.45,98.74L421.16,103.83L421.87,106.2L422.59,112.05L423.3,110.44L424.01,118.4L424.72,119.25L425.43,123.65L426.14,132.38L426.85,104L427.57,84.34L428.28,86.63L430.41,91.37L431.12,94.76L433.26,110.1L433.97,110.1L434.68,121.2L435.39,89.34L438.24,97.13L438.95,95.78L441.08,98.74L441.79,105.44L442.51,108.32L443.22,118.15L444.64,124.92L445.35,134.75L446.06,86.2L446.77,87.64L447.48,85.35L448.91,88.83L449.62,89.08L451.75,104.84L452.46,106.96L454.6,126.62L455.31,110.6L457.44,119.5L458.16,121.2L459.58,124.42L460.29,122.13L461.71,121.87L462.42,122.89L463.14,126.53L463.85,134.25L464.56,134.67L465.27,137.97L467.4,155.6L468.12,116.54L468.83,121.87L469.54,89.59L470.25,90.35L470.96,99.67L471.67,98.06L472.38,103.4L473.1,66.97L473.81,68.58L474.52,69.59L475.23,69.17L475.94,74.17L476.65,76.37L477.36,76.03L478.08,82.56L478.79,79.76L479.5,84.51L480.21,82.64L481.63,92.56L482.34,91.62L483.06,94.59L483.77,106.03L484.48,85.27L485.19,86.12L485.9,86.63L486.61,87.22L487.32,86.2L488.04,86.54L488.75,94.67L489.46,83.07L490.17,86.71L490.88,86.63L491.59,92.22L493.02,111.45L493.73,72.47L494.44,74.93L495.15,74.68L496.57,82.81L497.28,84.93L498,86.29L498.71,91.45L499.42,97.13L500.13,88.24L500.84,89.68L501.55,88.66L502.26,90.01L502.98,89.17L504.4,99.67L505.11,100.1L505.82,104.5L506.53,86.37L507.24,88.57L507.96,97.13L509.38,97.89L510.09,103.32L510.8,105.94L511.51,111.71L512.94,84.51L513.65,83.24L515.07,90.01L515.78,87.98L517.2,95.61L517.92,95.18L519.34,95.18L520.05,96.88L521.47,98.57L522.18,103.74L522.9,103.66L523.61,105.44L525.03,107.72L525.74,111.11L527.16,124.67L527.88,101.28L528.59,106.96L529.3,88.66L530.72,96.71L531.43,97.05L532.14,98.15L532.86,105.27L534.28,116.37L534.99,118.91L535.7,116.2L536.41,119.5L537.12,122.38L537.84,120.35L539.26,130.94L539.97,129.08L540.68,135.26L541.39,115.01L542.1,116.28L542.82,115.6L543.53,117.13L544.24,114.84L547.8,119.42L548.51,118.74L549.22,121.11L549.93,119.33L550.64,118.23L551.35,113.57L553.49,120.35L554.2,129.92L555.62,137.38L556.33,134.5L557.04,142.89L557.76,111.62L559.18,114.84L559.89,108.83L562.02,111.2L562.74,109.42L563.45,109.5L564.16,115.6L564.87,120.52L565.58,92.9L568.43,100.35L569.14,105.52L569.85,108.15L570.56,120.52L571.98,91.12L572.7,98.49L573.41,99.42L574.12,103.57L575.54,107.47L576.25,109.25L577.68,128.06L578.39,90.01L579.1,91.03L579.81,89L581.23,95.95L581.94,94.42L582.66,100.27L583.37,112.98L584.08,113.15L584.79,124.33L585.5,77.39L586.21,85.78L586.92,50.78L587.64,55.27L588.35,52.99L589.06,56.97L591.9,79.08L592.62,68.75L593.33,69.68L594.04,72.39L594.75,78.32L595.46,78.15L596.17,83.49L597.6,97.05L598.31,72.98L599.73,76.12L600.44,82.64L601.15,87.05L601.86,83.66L603.29,93.23L604,71.63L605.42,80.19L606.13,66.2L606.84,66.2L607.56,70.27L608.27,78.07L608.98,76.71L609.69,77.64L610.4,76.8L611.11,78.32L611.82,62.31L612.54,62.14L613.25,66.97L613.96,69.85L614.67,76.54L615.38,77.64L616.09,86.46L616.8,97.3L617.52,79.93L618.23,84.76L618.94,81.96L621.07,103.23L621.78,77.9L623.21,78.24L623.92,83.83L625.34,88.07L626.05,89.51L627.47,111.71L628.19,92.64L628.9,93.49L629.61,96.79L630.32,98.91L631.03,105.69L631.74,109.84L632.45,88.07L633.17,52.99L633.88,54L634.59,55.44L636.72,66.97L637.43,74.25L638.86,73.24L639.57,79.68L640.28,90.69L640.99,90.52L641.7,99.25L642.41,101.71L643.13,110.6L643.84,95.18L644.55,96.79L645.97,95.69L646.68,95.1L648.11,102.64L648.82,101.62L650.24,118.91L650.95,122.38L653.09,151.36L653.8,137.3L654.51,145.51L655.22,103.74L655.93,86.12L656.64,94.51L657.35,97.98L658.07,94.84L658.78,94.51L659.49,108.57L660.2,80.44L660.91,86.37L661.62,82.64L662.33,89.34L663.05,97.56L663.76,73.58L664.47,72.98L665.18,82.73L667.31,98.4L668.03,95.78L668.74,104.76L669.45,79L670.87,80.44L671.58,89.17L672.29,63.15L673.01,63.32L673.72,65.44L675.14,75.86L675.85,78.58L677.27,83.49L677.99,95.35L678.7,76.2L679.41,79.25L680.12,90.86L680.83,67.65L682.97,74L683.68,80.02L684.39,82.47L685.1,87.98L685.81,99.08L686.52,60.87L687.23,62.31L687.95,66.12L689.37,76.2L690.08,86.03L692.21,94.25L692.93,73.92L693.64,73.07L694.35,75.78L696.48,81.37L697.19,90.78L697.91,94.51L698.62,111.11L699.33,93.32L700.04,97.22L700.75,75.44L701.46,83.74L702.17,56.46L702.89,56.88L703.6,60.19L705.02,67.14L705.73,67.9L707.15,78.41L707.87,76.63L708.58,81.88L709.29,60.61L710,67.05" style="vector-effect: none; fill: none; stroke: rgb(148, 103, 189); stroke-opacity: 1; stroke-width: 2px; opacity: 1;"/></g><g class="points"/><g class="text"/></g><g class="trace scatter traceecda8c" style="stroke-miterlimit: 2; opacity: 1;"><g class="fills"/><g class="errorbars"/><g class="lines"><path class="js-line" d="M0,74.17L0.71,75.95L1.42,65.7L3.56,62.9L4.27,60.61L5.69,57.9L6.4,58.83L7.83,64.26L8.54,62.73L9.25,64.76L9.96,71.97L11.38,88.4L12.09,98.66L13.52,115.1L14.23,103.57L15.65,114.93L16.36,115.01L17.07,114.5L17.79,115.01L19.21,118.65L19.92,120.35L20.63,130.26L21.34,114.84L22.05,114.25L22.77,119.59L24.19,131.19L24.9,147.72L26.32,156.28L27.03,152.72L27.75,148.56L28.46,148.9L29.88,152.72L30.59,151.45L31.3,156.19L32.01,155L32.73,153.73L33.44,161.11L34.15,162.12L34.86,169.32L35.57,135.69L36.28,136.19L36.99,136.28L38.42,140.6L39.13,141.02L39.84,143.9L40.55,141.28L41.97,140.43L42.69,141.36L44.11,142.46L44.82,141.53L45.53,150.68L46.24,121.7L47.67,118.74L48.38,122.55L49.09,121.96L49.8,122.81L51.22,124.92L51.93,123.48L52.65,123.23L53.36,124.92L55.49,128.91L56.2,127.97L58.34,144.58L59.05,143.4L59.76,149.92L60.47,125.86L61.18,126.87L61.89,124.84L62.61,127.97L63.32,127.38L64.03,124.25L64.74,129.25L66.87,130.94L67.59,134.41L68.3,134.75L69.01,137.21L69.72,136.19L70.43,139.67L71.14,138.74L71.85,140.18L72.57,149.24L73.28,126.96L73.99,131.19L74.7,131.03L75.41,132.8L78.97,134.92L79.68,138.31L81.1,137.89L81.81,138.91L82.53,141.87L83.24,139.84L83.95,140.77L84.66,146.95L85.37,125.26L86.08,125.86L86.79,127.47L87.51,127.21L88.22,131.87L88.93,131.19L89.64,132.21L92.48,151.11L93.2,131.28L93.91,136.96L94.62,135.35L96.75,145.18L97.46,148.14L98.18,87.13L98.89,89.08L99.6,89.08L100.31,89.25L101.02,91.79L102.44,100.18L103.16,107.64L103.87,106.71L104.58,107.05L106.71,118.15L107.42,85.35L108.14,89.08L108.85,88.57L112.4,104.42L113.12,77.56L113.83,76.88L114.54,82.81L116.67,93.4L117.38,70.1L118.81,72.81L119.52,69.93L120.23,73.41L120.94,72.05L121.65,74L122.36,72.22L125.21,90.27L125.92,94.51L126.63,75.61L127.34,77.47L128.06,76.88L128.77,80.19L129.48,77.9L130.19,80.95L130.9,80.95L131.61,77.9L133.04,84.25L133.75,86.88L135.17,88.49L135.88,90.01L136.59,93.57L137.3,92.9L138.73,104L139.44,82.64L140.15,82.3L140.86,85.86L143,93.23L143.71,95.61L144.42,96.79L145.13,96.28L145.84,97.81L146.55,101.79L147.26,103.49L147.98,111.88L150.11,125.86L150.82,106.45L151.53,89.59L152.24,94.08L153.67,96.79L154.38,101.11L155.09,106.54L155.8,92.47L156.51,93.06L157.22,99.67L157.94,100.78L158.65,104.84L159.36,116.62L160.07,91.29L160.78,94L161.49,75.78L162.92,77.05L163.63,76.2L165.05,79.08L165.76,78.41L166.47,82.13L167.18,81.63L169.32,83.41L170.03,86.29L171.45,95.1L172.16,74.42L173.59,76.8L174.3,76.12L175.72,85.61L176.43,85.35L177.86,92.05L178.57,99L179.28,108.23L179.99,89.85L180.7,91.45L181.41,97.47L182.12,95.27L182.84,97.98L183.55,99.25L184.26,103.74L184.97,105.1L185.68,111.79L186.39,91.45L187.1,92.9L187.82,93.15L188.53,96.28L189.24,97.64L189.95,102.55L190.66,109.5L191.37,92.22L192.08,93.23L192.8,97.22L194.93,112.81L195.64,98.23L197.06,65.95L197.78,68.24L198.49,67.39L199.2,73.24L199.91,72.31L200.62,73.58L202.04,86.71L202.76,90.95L203.47,70.19L204.18,75.1L206.31,87.13L207.02,86.63L207.74,92.13L208.45,91.62L209.16,90.69L209.87,98.74L210.58,106.03L211.29,88.83L212,88.4L212.72,89.42L213.43,92.05L214.14,90.86L214.85,90.86L215.56,95.01L216.27,97.89L216.98,106.11L218.41,111.28L219.12,118.4L220.54,99.93L221.25,108.66L221.96,74L222.68,77.14L223.39,79.25L224.1,78.91L228.37,118.4L229.08,104.25L229.79,106.71L230.5,84.76L231.92,90.1L232.64,96.03L233.35,93.4L234.06,99.76L235.48,111.54L236.19,86.2L236.9,86.37L237.62,85.18L238.33,85.78L239.04,89.59L239.75,88.07L240.46,92.3L241.88,97.81L242.6,98.83L243.31,98.49L244.02,103.23L244.73,109.5L245.44,82.98L246.15,89.08L246.86,88.32L247.58,91.88L248.29,91.12L251.84,91.88L252.56,98.57L253.27,95.86L253.98,103.66L254.69,101.45L255.4,105.86L257.54,119.76L258.25,102.72L258.96,100.86L259.67,112.72L260.38,73.66L261.09,79.08L263.23,83.83L263.94,90.69L264.65,96.12L265.36,85.1L266.07,90.78L266.78,90.18L268.21,91.37L268.92,92.39L269.63,91.45L270.34,98.15L271.05,97.3L271.76,102.39L273.19,104.25L273.9,116.03L274.61,102.39L275.32,113.82L276.03,117.13L276.74,108.91L277.45,76.12L278.17,78.32L278.88,80.35L279.59,77.39L282.43,92.3L283.15,102.98L283.86,101.2L284.57,111.03L285.28,110.1L285.99,122.38L287.41,38.41L288.13,35.95L288.84,36.8L289.55,40.19L290.97,44.17L291.68,50.53L292.39,50.27L293.11,53.24L295.24,69L295.95,41.38L299.51,82.47L300.22,85.35L300.93,82.9L301.64,86.54L302.35,90.95L303.07,81.88L303.78,81.46L304.49,84.59L305.2,95.01L305.91,68.66L306.62,71.97L307.33,43.92L308.05,46.21L308.76,51.8L310.89,63.83L311.6,47.48L313.74,50.87L314.45,53.58L315.87,69.59L316.58,68.41L318.72,92.64L319.43,59.85L320.14,59.09L320.85,63.15L321.56,60.95L322.27,64.17L326.54,97.05L327.25,81.96L328.68,52.73L329.39,36.46L330.1,36.89L330.81,35.7L332.95,45.19L333.66,43.16L335.08,54.17L335.79,52.9L338.64,68.66L339.35,77.14L340.06,84L340.77,83.49L342.91,108.06L343.62,67.81L344.33,65.27L345.04,68.07L346.46,44.17L347.17,45.11L348.6,48.16L349.31,57.82L350.73,68.75L351.44,48.75L352.15,46.38L352.87,52.48L357.13,74.85L357.85,82.81L358.56,88.57L359.27,83.32L360.69,98.57L361.4,92.81L362.11,67.22L362.83,72.9L363.54,51.55L364.25,63.32L365.67,37.82L366.38,39.34L367.09,38.24L367.81,40.45L368.52,41.29L369.23,48.66L371.36,70.78L372.07,56.63L372.79,35.7L373.5,39.09L374.21,39.77L374.92,41.72L375.63,44.34L376.34,42.56L377.05,44L377.77,47.73L379.19,50.19L379.9,57.99L381.32,65.1L382.03,55.19L383.46,59.26L384.17,58.15L384.88,61.46L385.59,68.66L386.3,69.51L387.01,73.58L387.73,89L388.44,53.92L389.15,52.56L389.86,62.56L391.99,95.35L392.71,38.67L393.42,37.31L394.13,45.95L394.84,46.04L395.55,48.58L399.11,67.48L399.82,69L401.95,82.47L402.67,85.44L404.09,87.73L404.8,91.79L405.51,96.12L406.22,107.81L409.07,48.16L409.78,46.04L411.2,49.09L411.91,55.53L413.34,61.21L414.05,67.22L415.47,70.19L416.18,79.25L416.89,84.08L417.61,98.06L418.32,37.82L419.03,38.92L419.74,37.65L421.16,43.07L421.87,45.28L423.3,48.07L424.01,54L424.72,55.02L425.43,61.04L426.14,64.93L426.85,73.75L427.57,75.95L428.28,51.55L428.99,52.73L429.7,61.21L431.83,69.59L432.55,85.1L433.26,88.24L433.97,95.95L434.68,82.98L435.39,53.49L436.81,72.22L437.53,56.8L438.24,54.51L438.95,55.02L439.66,55.95L440.37,59.93L441.08,62.56L441.79,69.85L442.51,72.64L443.22,84.42L443.93,90.95L444.64,59L445.35,59.68L446.06,63.49L447.48,65.53L448.2,70.78L451.04,103.4L451.75,91.2L452.46,74.85L453.18,78.15L453.89,81.88L454.6,61.29L455.31,62.98L456.02,61.97L456.73,62.82L457.44,66.04L458.16,65.44L458.87,66.54L460.29,76.2L461,74.85L461.71,75.78L462.42,74.51L464.56,91.54L465.27,95.69L466.69,111.37L467.4,86.88L468.12,61.29L468.83,61.54L469.54,68.75L470.25,64.93L470.96,71.03L471.67,72.22L472.38,76.63L473.1,67.22L473.81,73.32L474.52,70.86L475.23,76.8L475.94,75.78L476.65,80.27L478.08,88.15L478.79,87.98L479.5,98.83L480.92,76.97L481.63,77.22L482.34,78.83L483.06,76.2L484.48,86.2L485.19,85.95L485.9,52.73L486.61,58.58L488.04,58.75L488.75,71.12L489.46,77.56L490.17,65.95L490.88,66.63L491.59,69.59L492.3,69.51L493.02,71.37L494.44,76.46L495.15,75.78L496.57,94.17L497.28,71.29L498,71.63L498.71,69.85L499.42,70.61L500.13,74.25L501.55,72.81L502.26,80.27L502.98,66.8L503.69,77.56L505.11,65.02L505.82,70.53L507.96,85.61L508.67,93.32L509.38,71.63L510.09,73.66L510.8,75.95L511.51,85.02L512.94,60.19L513.65,59.09L515.78,67.81L516.49,78.32L517.92,41.12L518.63,47.65L519.34,46.46L520.05,50.44L521.47,56.12L522.18,65.7L522.9,61.88L523.61,69L524.32,78.49L525.03,46.97L526.45,52.9L527.16,36.29L527.88,35.36L528.59,36.55L530.72,43.67L531.43,50.19L533.57,76.12L534.28,50.95L534.99,49.94L535.7,51.63L537.12,55.19L537.84,62.9L538.55,66.37L539.26,74.59L539.97,54.09L540.68,58.15L541.39,68.07L542.1,45.7L544.24,63.24L544.95,71.37L545.66,40.45L546.37,44.94L547.08,43.41L547.8,45.95L549.93,65.53L550.64,67.81L551.35,77.22L552.06,67.73L554.2,88.32L554.91,97.73L556.33,74.93L557.04,81.63L558.47,87.22L559.18,87.9L559.89,99.17L560.6,77.56L562.02,81.96L562.74,81.37L564.16,99.17L564.87,117.98L566.29,59.34L567,62.9L567.72,67.05L568.43,65.87L570.56,81.37L571.27,97.13L571.98,68.58L572.7,79.51L573.41,87.13L574.12,62.98L575.54,73.66L576.25,56.71L579.1,82.47L579.81,84.59L580.52,65.78L581.23,70.02L581.94,69.25L582.66,73.58L583.37,75.78L584.08,75.53L586.21,94.25L586.92,82.13L587.64,47.31L588.35,52.05L589.77,59.26L590.48,35.28L591.19,35.45L591.9,39.26L593.33,46.55L594.04,49.77L595.46,64.76L596.17,37.56L596.88,45.28L597.6,41.97L599.02,46.12L599.73,52.99L601.15,67.9L601.86,53.41L603.29,69.25L604,89.85L604.71,109.16L605.42,54.68L606.84,65.44L607.56,55.02L608.98,66.2L609.69,68.24L610.4,77.73L611.11,59.85L612.54,60.95L613.25,63.49L613.96,64.17L614.67,66.97L616.09,82.39L616.8,84.42L617.52,95.95L618.23,93.66L618.94,61.88L619.65,73.07L621.07,83.41L621.78,101.28L623.21,46.72L623.92,48.07L625.34,51.8L626.05,53.58L628.19,71.12L628.9,69.59L630.32,82.05L631.03,64L631.74,66.29L632.45,72.22L633.17,79.68L633.88,71.46L634.59,74.76L635.3,60.19L636.01,60.1L636.72,66.04L638.15,72.39L638.86,69L640.28,84.93L640.99,81.29L641.7,96.28L642.41,68.32L643.13,72.22L643.84,72.05L644.55,74.42L645.97,78.75L646.68,80.61L647.39,82.9L648.11,97.64L648.82,78.15L649.53,91.96L650.24,69.17L650.95,71.97L653.09,82.13L653.8,85.52L654.51,94.42L655.22,79.51L657.35,88.91L658.07,88.32L658.78,89.93L659.49,99.67L660.2,79.68L660.91,81.71L661.62,83.66L662.33,96.45L663.05,78.91L663.76,84.85L664.47,64L665.18,69.34L665.89,74.59L666.6,55.95L668.03,60.95L668.74,59.93L669.45,60.36L670.16,59.85L672.29,72.98L673.01,72.31L674.43,75.86L675.14,79.08L675.85,84.68L676.56,75.1L677.27,52.05L677.99,55.7L678.7,54.43L679.41,57.56L680.83,62.22L681.54,69.93L682.97,76.97L683.68,87.56L684.39,88.91L685.1,105.86L685.81,59.17L686.52,59.51L687.23,62.9L687.95,63.92L688.66,69.68L689.37,58.32L690.08,65.61L690.79,69.09L691.5,66.54L692.93,72.9L693.64,71.97L694.35,76.8L695.06,86.88L696.48,72.9L697.19,82.47L697.91,81.12L698.62,90.44L699.33,75.95L700.04,79L701.46,97.98L702.17,61.88L702.89,61.54L703.6,64.09L705.02,73.83L705.73,72.64L706.44,83.83L707.15,83.49L707.87,84.68L708.58,90.52L709.29,77.98L710,95.61" style="vector-effect: none; fill: none; stroke: rgb(140, 86, 75); stroke-opacity: 1; stroke-width: 2px; opacity: 1;"/></g><g class="points"/><g class="text"/></g><g class="trace scatter trace7e67be" style="stroke-miterlimit: 2; opacity: 1;"><g class="fills"/><g class="errorbars"/><g class="lines"><path class="js-line" d="M0,74.17L0.71,75.95L1.42,65.7L3.56,62.9L4.27,60.61L5.69,57.9L6.4,58.83L7.83,64.26L8.54,62.73L9.25,64.76L9.96,71.97L11.38,88.4L12.09,98.66L13.52,115.1L14.23,103.57L15.65,114.93L16.36,115.01L17.07,114.5L17.79,115.01L19.21,118.65L19.92,120.35L20.63,130.26L21.34,114.84L22.05,114.25L22.77,119.59L24.19,131.19L24.9,115.01L25.61,118.65L26.32,128.74L27.75,135.26L28.46,135.52L30.59,139.24L31.3,150.94L32.73,125.43L33.44,132.55L34.15,134.25L34.86,141.53L35.57,105.44L36.28,106.03L36.99,106.37L38.42,110.18L39.13,110.01L39.84,111.45L40.55,109.42L41.97,109.16L42.69,112.72L43.4,111.45L44.11,112.72L44.82,112.3L45.53,121.11L46.95,89.85L47.67,89.68L49.09,100.69L49.8,99.93L50.51,102.47L51.22,109.08L52.65,108.23L53.36,107.38L54.07,108.99L54.78,116.71L55.49,115.35L56.2,118.4L57.63,135.69L58.34,133.4L59.05,132.64L59.76,136.96L61.18,115.35L61.89,115.6L64.03,114.59L64.74,117.81L65.45,121.28L66.16,133.57L66.87,102.3L67.59,107.13L68.3,106.45L69.01,111.96L69.72,112.38L70.43,114.16L71.85,112.64L72.57,124.33L73.28,85.27L73.99,87.22L74.7,87.64L76.12,93.49L76.83,94.67L77.55,96.37L78.26,100.44L78.97,104.25L79.68,102.81L80.39,102.81L81.1,103.66L81.81,102.3L82.53,105.1L83.24,101.54L83.95,103.32L84.66,112.64L85.37,73.32L86.08,73.24L86.79,77.05L88.22,79.08L88.93,83.66L90.35,85.95L91.06,92.64L93.91,106.54L94.62,108.32L95.33,107.64L96.04,115.1L96.75,117.72L97.46,125.52L98.18,62.73L98.89,63.75L99.6,72.39L101.02,84.42L101.73,87.98L103.87,112.21L104.58,74.76L106,84.42L106.71,72.05L107.42,50.19L108.14,55.02L110.27,66.88L110.98,64.93L112.4,75.86L113.12,73.58L114.54,84L115.25,62.22L115.96,63.83L116.67,62.48L117.38,61.21L118.1,67.05L118.81,65.87L119.52,77.81L123.08,104.5L123.79,78.66L124.5,86.12L125.21,71.37L125.92,79.08L126.63,78.24L127.34,82.3L128.06,80.95L130.19,98.91L130.9,76.29L131.61,77.22L132.32,46.97L133.04,18.5L133.75,25.62L134.46,27.82L135.17,25.79L136.59,34.77L137.3,33.92L138.73,55.95L139.44,22.91L140.15,21.64L140.86,26.38L143.71,49.85L144.42,36.97L145.13,41.38L145.84,19.18L146.55,28.58L147.26,26.63L149.4,37.56L150.11,38.24L152.24,59L152.96,67.81L153.67,47.31L154.38,48.24L155.09,53.49L155.8,34.35L156.51,37.73L157.22,46.46L157.94,27.65L162.2,64.17L162.92,66.97L163.63,72.14L164.34,51.55L165.05,50.44L165.76,55.61L168.61,72.31L169.32,59.17L172.16,86.71L172.88,64.51L173.59,70.02L174.3,57.65L175.01,40.36L175.72,48.33L177.14,56.71L177.86,60.19L178.57,38.67L179.28,40.7L182.12,57.14L182.84,61.63L183.55,64.76L184.26,54.34L185.68,55.19L186.39,62.05L187.1,36.29L187.82,38.24L189.95,47.56L190.66,55.7L191.37,57.31L192.08,63.07L193.51,75.95L194.22,53.83L194.93,57.73L195.64,67.22L197.06,64L197.78,72.73L199.2,83.49L199.91,84.85L200.62,96.96L201.33,88.15L202.76,28.92L203.47,34.18L205.6,52.05L206.31,56.12L207.02,40.02L207.74,40.7L208.45,41.29L212,65.87L212.72,68.24L215.56,74.85L216.27,84.17L216.98,73.92L217.7,76.8L218.41,76.88L219.12,80.95L221.25,94.42L221.96,94.17L224.1,111.88L224.81,90.69L225.52,104.25L226.23,88.57L226.94,51.97L227.66,64L229.08,40.19L229.79,47.56L230.5,44.77L231.21,47.31L232.64,55.19L233.35,54.09L234.77,59.26L235.48,66.88L236.19,75.78L236.9,37.48L237.62,38.07L238.33,40.95L239.04,41.72L239.75,47.82L241.88,54.68L242.6,55.44L243.31,55.36L244.02,62.39L244.73,74.42L245.44,57.56L247.58,73.41L248.29,72.47L249,53.75L249.71,56.12L250.42,56.38L251.13,61.21L253.27,67.14L253.98,78.58L254.69,61.71L255.4,71.12L256.11,72.31L256.82,49.51L258.25,63.41L258.96,62.65L260.38,72.81L261.09,83.32L261.8,101.71L262.52,60.1L263.23,60.27L263.94,65.95L264.65,68.58L265.36,64.93L266.78,76.88L267.49,52.73L268.21,53.75L268.92,56.71L269.63,58.32L270.34,63.41L272.47,79.76L273.19,79.59L273.9,93.23L274.61,68.66L275.32,75.53L276.03,48.24L276.74,51.38L277.45,50.36L278.17,52.82L278.88,49.26L281.01,60.02L281.72,58.92L283.15,76.8L283.86,41.21L285.28,42.06L285.99,47.56L288.13,55.44L288.84,52.9L290.26,58.66L290.97,62.39L291.68,46.46L292.39,49.94L293.11,50.95L293.82,55.27L295.95,63.41L296.66,73.24L297.37,77.47L298.09,88.91L298.8,84.42L299.51,38.84L300.22,43.67L300.93,41.21L303.07,48.92L303.78,54.85L304.49,61.21L305.2,49.85L305.91,47.99L306.62,55.02L307.33,54.09L308.05,60.61L309.47,39.26L310.18,42.65L311.6,45.02L312.31,47.39L313.74,49.34L314.45,61.37L315.16,66.63L315.87,83.07L316.58,29.6L317.29,31.89L318.01,37.48L319.43,42.14L320.14,48.41L322.27,59.85L322.99,44.77L324.41,61.63L325.12,41.55L325.83,43.67L326.54,50.27L327.97,61.8L328.68,47.56L330.1,61.97L330.81,65.27L331.52,70.27L332.23,45.61L334.37,69.68L335.08,54.09L336.5,56.8L337.21,63.32L337.93,61.71L338.64,66.97L339.35,72.22L340.06,46.38L340.77,22.82L341.48,28.84L342.19,29.43L342.91,31.13L344.33,42.56L345.04,47.31L349.31,81.37L350.02,68.49L350.73,71.97L351.44,83.91L352.87,109.93L353.58,109.84L354.29,110.86L355,113.4L355.71,110.18L356.42,115.1L357.13,100.1L357.85,108.66L359.27,106.79L359.98,110.27L360.69,116.2L361.4,114.67L362.83,116.79L363.54,95.27L364.25,98.57L364.96,97.89L365.67,97.56L366.38,95.44L368.52,101.45L369.23,108.23L370.65,79.93L371.36,84.68L372.07,80.86L372.79,87.13L373.5,88.66L374.21,93.4L374.92,96.88L375.63,96.03L377.77,97.81L378.48,106.96L379.19,103.91L379.9,106.79L381.32,123.23L382.03,122.47L383.46,127.81L384.17,127.81L384.88,138.06L385.59,113.23L387.01,120.35L387.73,131.62L388.44,102.3L389.15,102.81L389.86,114.76L390.57,87.81L391.28,94.42L391.99,98.32L392.71,76.29L393.42,77.22L394.13,75.19L394.84,75.86L395.55,77.64L396.26,77.73L396.97,79.42L397.69,83.07L398.4,82.9L399.11,83.32L400.53,86.79L401.24,87.81L401.95,99.76L402.67,97.73L403.38,102.47L404.09,101.79L406.22,132.13L406.93,99.25L407.65,100.18L408.36,113.32L409.78,79.42L410.49,82.98L411.2,84.34L411.91,90.27L413.34,90.95L414.05,96.79L415.47,94.93L416.18,102.22L416.89,86.54L417.61,90.44L418.32,92.39L419.03,97.73L420.45,100.52L421.16,117.55L421.87,125.6L422.59,98.23L423.3,99.25L424.01,101.96L424.72,100.35L425.43,112.72L426.14,112.98L426.85,121.45L428.28,133.23L428.99,103.49L429.7,110.86L430.41,45.36L431.12,46.55L431.83,54.94L434.68,81.12L435.39,85.27L436.1,79.76L436.81,82.64L437.53,94.93L438.24,69.93L438.95,71.71L439.66,69.09L440.37,66.29L441.08,73.92L442.51,41.46L443.22,41.97L443.93,42.73L444.64,43.75L445.35,48.92L446.06,54.26L446.77,52.05L447.48,52.56L448.2,59.93L448.91,67.81L449.62,44L451.04,51.72L451.75,60.53L452.46,59.76L453.18,63.32L453.89,65.36L454.6,71.2L455.31,74.17L456.02,83.74L457.44,61.97L458.16,61.54L458.87,65.36L459.58,63.24L461,66.63L461.71,62.65L463.14,65.27L463.85,73.92L464.56,74.25L465.27,77.73L465.98,73.15L466.69,79L468.12,88.49L468.83,85.86L469.54,89.25L470.25,82.56L470.96,85.27L471.67,67.9L472.38,75.53L473.1,68.07L474.52,74.08L475.23,74.42L475.94,73.07L476.65,73.58L477.36,78.66L478.08,77.81L478.79,76.71L479.5,78.07L480.21,78.24L480.92,81.2L481.63,76.88L482.34,80.27L483.06,79.51L483.77,85.35L485.19,93.32L485.9,96.12L487.32,106.11L488.04,80.19L489.46,97.89L490.17,104.76L491.59,131.11L492.3,111.11L493.02,96.37L493.73,97.81L494.44,105.18L495.15,101.96L495.86,108.4L496.57,58.75L497.28,59.76L498,59.26L500.13,70.36L500.84,69L501.55,69L502.26,78.91L502.98,91.29L503.69,79.51L504.4,85.02L505.11,83.15L505.82,89.51L506.53,102.81L507.24,80.95L507.96,96.54L509.38,167.55L510.09,142.29L511.51,62.48L512.22,59.85L512.94,65.78L513.65,63.83L514.36,76.71L515.07,76.29L515.78,85.52L516.49,90.61L517.2,132.55L517.92,132.21L518.63,55.44L519.34,55.02L520.05,58.66L520.76,60.36L521.47,58.07L522.9,63.66L523.61,65.78L525.03,66.04L525.74,70.53L526.45,83.91L527.16,72.73L527.88,72.81L528.59,63.32L530.01,77.98L530.72,49.17L531.43,47.14L532.14,51.29L533.57,55.53L534.28,55.27L535.7,59.51L536.41,61.46L538.55,71.97L539.26,81.71L539.97,56.8L540.68,58.24L541.39,61.54L542.1,70.7L542.82,74.51L543.53,65.53L545.66,80.27L546.37,70.86L547.08,76.54L547.8,74.85L548.51,87.39L549.22,60.36L549.93,64.34L550.64,41.72L551.35,45.28L552.06,53.16L552.78,56.04L553.49,67.14L554.2,76.12L554.91,49.85L555.62,50.19L556.33,45.78L557.76,62.14L558.47,35.7L559.18,38.75L559.89,46.97L560.6,49.51L561.31,57.73L562.02,55.19L562.74,55.44L564.16,67.9L564.87,58.41L566.29,65.87L567,68.32L568.43,72.56L569.14,79.93L569.85,66.2L570.56,69.59L571.27,88.32L571.98,62.9L572.7,51.38L573.41,54.43L574.12,58.15L574.83,65.95L576.96,79.17L577.68,93.83L578.39,66.04L579.1,68.75L579.81,83.24L580.52,64.59L582.66,74.85L583.37,66.37L584.08,64.43L584.79,69.42L585.5,78.41L586.21,56.88L586.92,58.15L587.64,64L588.35,60.78L589.06,64.26L591.9,88.24L592.62,107.13L594.04,58.07L594.75,62.82L596.17,68.15L596.88,75.1L599.02,94L599.73,72.56L601.86,90.95L602.58,57.14L603.29,64L604,39.68L606.13,68.75L606.84,53.66L608.27,67.14L608.98,54.68L609.69,55.61L610.4,63.58L611.11,68.15L611.82,66.8L613.25,70.95L613.96,78.58L614.67,85.02L615.38,71.54L617.52,79.17L618.23,85.44L619.65,68.83L620.36,66.88L621.78,71.71L622.49,73.41L623.21,73.07L623.92,74.76L625.34,80.52L626.05,54.68L628.19,76.46L628.9,76.37L629.61,84.85L630.32,67.73L631.74,77.14L632.45,75.19L633.17,76.37L633.88,87.05L634.59,88.07L635.3,96.03L636.01,79.34L636.72,88.15L637.43,99.93L638.15,68.15L639.57,69L640.28,75.19L640.99,73.24L641.7,81.96L642.41,65.1L643.13,68.32L643.84,68.49L644.55,74L645.26,74.51L645.97,78.66L646.68,77.81L647.39,83.15L648.11,59.51L648.82,61.37L649.53,65.02L650.24,63.92L650.95,65.44L651.66,76.03L652.37,87.05L653.09,70.27L653.8,78.83L654.51,69.42L655.22,80.52L655.93,79.85L658.07,94.08L658.78,95.86L659.49,99.84L660.2,85.1L661.62,91.54L662.33,100.78L663.76,127.47L664.47,80.27L665.18,94.34L665.89,45.7L666.6,45.78L667.31,49.34L668.03,47.9L668.74,51.38L669.45,51.8L670.16,54.34L670.87,55.27L671.58,59.09L672.29,60.53L673.01,60.02L673.72,61.46L674.43,70.36L675.14,72.9L675.85,80.52L677.27,59.34L677.99,65.61L679.41,67.31L680.12,79.25L680.83,52.05L681.54,59.68L682.25,62.48L682.97,40.36L684.39,42.73L685.1,50.11L685.81,50.11L686.52,57.31L687.23,59.26L687.95,64.59L690.79,86.37L691.5,86.12L692.93,98.83L693.64,75.53L695.06,89.42L695.77,46.55L696.48,48.07L697.19,53.66L697.91,53.66L698.62,66.46L699.33,66.71L700.04,74.85L700.75,49.51L701.46,58.32L705.02,83.49L705.73,56.21L707.15,62.73L707.87,47.9L708.58,48.16L709.29,50.87L710,58.83" style="vector-effect: none; fill: none; stroke: rgb(227, 119, 194); stroke-opacity: 1; stroke-width: 2px; opacity: 1;"/></g><g class="points"/><g class="text"/></g></g></g><g class="overplot"/><path class="xlines-above crisp" d="M0,0" style="fill: none;"/><path class="ylines-above crisp" d="M0,0" style="fill: none;"/><g class="overlines-above"/><g class="xaxislayer-above"><g class="xtick"><text text-anchor="middle" x="0" y="533" transform="translate(80,0)" style="font-family: 'Open Sans', verdana, arial, sans-serif; font-size: 12px; fill: rgb(68, 68, 68); fill-opacity: 1; white-space: pre; opacity: 1;">0</text></g><g class="xtick"><text text-anchor="middle" x="0" y="533" style="font-family: 'Open Sans', verdana, arial, sans-serif; font-size: 12px; fill: rgb(68, 68, 68); fill-opacity: 1; white-space: pre; opacity: 1;" transform="translate(222.28,0)">200</text></g><g class="xtick"><text text-anchor="middle" x="0" y="533" style="font-family: 'Open Sans', verdana, arial, sans-serif; font-size: 12px; fill: rgb(68, 68, 68); fill-opacity: 1; white-space: pre; opacity: 1;" transform="translate(364.57,0)">400</text></g><g class="xtick"><text text-anchor="middle" x="0" y="533" style="font-family: 'Open Sans', verdana, arial, sans-serif; font-size: 12px; fill: rgb(68, 68, 68); fill-opacity: 1; white-space: pre; opacity: 1;" transform="translate(506.85,0)">600</text></g><g class="xtick"><text text-anchor="middle" x="0" y="533" style="font-family: 'Open Sans', verdana, arial, sans-serif; font-size: 12px; fill: rgb(68, 68, 68); fill-opacity: 1; white-space: pre; opacity: 1;" transform="translate(649.14,0)">800</text></g></g><g class="yaxislayer-above"><g class="ytick"><text text-anchor="end" x="79" y="4.199999999999999" transform="translate(0,501.5)" style="font-family: 'Open Sans', verdana, arial, sans-serif; font-size: 12px; fill: rgb(68, 68, 68); fill-opacity: 1; white-space: pre; opacity: 1;">0.5</text></g><g class="ytick"><text text-anchor="end" x="79" y="4.199999999999999" style="font-family: 'Open Sans', verdana, arial, sans-serif; font-size: 12px; fill: rgb(68, 68, 68); fill-opacity: 1; white-space: pre; opacity: 1;" transform="translate(0,450.66)">0.55</text></g><g class="ytick"><text text-anchor="end" x="79" y="4.199999999999999" style="font-family: 'Open Sans', verdana, arial, sans-serif; font-size: 12px; fill: rgb(68, 68, 68); fill-opacity: 1; white-space: pre; opacity: 1;" transform="translate(0,399.82)">0.6</text></g><g class="ytick"><text text-anchor="end" x="79" y="4.199999999999999" style="font-family: 'Open Sans', verdana, arial, sans-serif; font-size: 12px; fill: rgb(68, 68, 68); fill-opacity: 1; white-space: pre; opacity: 1;" transform="translate(0,348.98)">0.65</text></g><g class="ytick"><text text-anchor="end" x="79" y="4.199999999999999" style="font-family: 'Open Sans', verdana, arial, sans-serif; font-size: 12px; fill: rgb(68, 68, 68); fill-opacity: 1; white-space: pre; opacity: 1;" transform="translate(0,298.14)">0.7</text></g><g class="ytick"><text text-anchor="end" x="79" y="4.199999999999999" style="font-family: 'Open Sans', verdana, arial, sans-serif; font-size: 12px; fill: rgb(68, 68, 68); fill-opacity: 1; white-space: pre; opacity: 1;" transform="translate(0,247.3)">0.75</text></g><g class="ytick"><text text-anchor="end" x="79" y="4.199999999999999" style="font-family: 'Open Sans', verdana, arial, sans-serif; font-size: 12px; fill: rgb(68, 68, 68); fill-opacity: 1; white-space: pre; opacity: 1;" transform="translate(0,196.46)">0.8</text></g></g><g class="overaxes-above"/></g></g><g class="polarlayer"/><g class="smithlayer"/><g class="ternarylayer"/><g class="geolayer"/><g class="funnelarealayer"/><g class="pielayer"/><g class="iciclelayer"/><g class="treemaplayer"/><g class="sunburstlayer"/><g class="glimages"/><defs id="topdefs-69d694"><g class="clips"/><clipPath id="legend69d694"><rect width="596" height="48" x="0" y="0"/></clipPath></defs><g class="layer-above"><g class="imagelayer"/><g class="shapelayer"/></g><g class="infolayer"><g class="legend" pointer-events="all" transform="translate(80,76.00000000000001)"><rect class="bg" shape-rendering="crispEdges" width="596" height="48" x="0" y="0" style="stroke: rgb(68, 68, 68); stroke-opacity: 1; fill: rgb(255, 255, 255); fill-opacity: 1; stroke-width: 0px;"/><g class="scrollbox" transform="" clip-path="url(#legend69d694)"><g class="groups"><g class="traces" transform="translate(0,14.5)" style="opacity: 1;"><text class="legendtext" text-anchor="start" x="40" y="4.680000000000001" style="font-family: 'Open Sans', verdana, arial, sans-serif; font-size: 12px; fill: rgb(68, 68, 68); fill-opacity: 1; white-space: pre;">Gradual sampled</text><g class="layers" style="opacity: 1;"><g class="legendfill"/><g class="legendlines"><path class="js-line" d="M5,0h30" style="fill: none; stroke: rgb(31, 119, 180); stroke-opacity: 1; stroke-width: 2px;"/></g><g class="legendsymbols"><g class="legendpoints"/></g></g><rect class="legendtoggle" x="0" y="-9.5" width="145.0625" height="19" style="fill: rgb(0, 0, 0); fill-opacity: 0;"/></g><g class="traces" transform="translate(151.78125,14.5)" style="opacity: 1;"><text class="legendtext" text-anchor="start" x="40" y="4.680000000000001" style="font-family: 'Open Sans', verdana, arial, sans-serif; font-size: 12px; fill: rgb(68, 68, 68); fill-opacity: 1; white-space: pre;">No MetaL</text><g class="layers" style="opacity: 1;"><g class="legendfill"/><g class="legendlines"><path class="js-line" d="M5,0h30" style="fill: none; stroke: rgb(255, 127, 14); stroke-opacity: 1; stroke-width: 2px;"/></g><g class="legendsymbols"><g class="legendpoints"/></g></g><rect class="legendtoggle" x="0" y="-9.5" width="99.4375" height="19" style="fill: rgb(0, 0, 0); fill-opacity: 0;"/></g><g class="traces" transform="translate(303.5625,14.5)" style="opacity: 1;"><text class="legendtext" text-anchor="start" x="40" y="4.680000000000001" style="font-family: 'Open Sans', verdana, arial, sans-serif; font-size: 12px; fill: rgb(68, 68, 68); fill-opacity: 1; white-space: pre;">Gradual weighted</text><g class="layers" style="opacity: 1;"><g class="legendfill"/><g class="legendlines"><path class="js-line" d="M5,0h30" style="fill: none; stroke: rgb(44, 160, 44); stroke-opacity: 1; stroke-width: 2px;"/></g><g class="legendsymbols"><g class="legendpoints"/></g></g><rect class="legendtoggle" x="0" y="-9.5" width="149.28125" height="19" style="fill: rgb(0, 0, 0); fill-opacity: 0;"/></g><g class="traces" transform="translate(455.34375,14.5)" style="opacity: 1;"><text class="legendtext" text-anchor="start" x="40" y="4.680000000000001" style="font-family: 'Open Sans', verdana, arial, sans-serif; font-size: 12px; fill: rgb(68, 68, 68); fill-opacity: 1; white-space: pre;">Direct weighted</text><g class="layers" style="opacity: 1;"><g class="legendfill"/><g class="legendlines"><path class="js-line" d="M5,0h30" style="fill: none; stroke: rgb(214, 39, 40); stroke-opacity: 1; stroke-width: 2px;"/></g><g class="legendsymbols"><g class="legendpoints"/></g></g><rect class="legendtoggle" x="0" y="-9.5" width="137.703125" height="19" style="fill: rgb(0, 0, 0); fill-opacity: 0;"/></g><g class="traces" transform="translate(0,33.5)" style="opacity: 1;"><text class="legendtext" text-anchor="start" x="40" y="4.680000000000001" style="font-family: 'Open Sans', verdana, arial, sans-serif; font-size: 12px; fill: rgb(68, 68, 68); fill-opacity: 1; white-space: pre;">Direct sampled</text><g class="layers" style="opacity: 1;"><g class="legendfill"/><g class="legendlines"><path class="js-line" d="M5,0h30" style="fill: none; stroke: rgb(148, 103, 189); stroke-opacity: 1; stroke-width: 2px;"/></g><g class="legendsymbols"><g class="legendpoints"/></g></g><rect class="legendtoggle" x="0" y="-9.5" width="133.5" height="19" style="fill: rgb(0, 0, 0); fill-opacity: 0;"/></g><g class="traces" transform="translate(151.78125,33.5)" style="opacity: 1;"><text class="legendtext" text-anchor="start" x="40" y="4.680000000000001" style="font-family: 'Open Sans', verdana, arial, sans-serif; font-size: 12px; fill: rgb(68, 68, 68); fill-opacity: 1; white-space: pre;">Direct regular</text><g class="layers" style="opacity: 1;"><g class="legendfill"/><g class="legendlines"><path class="js-line" d="M5,0h30" style="fill: none; stroke: rgb(140, 86, 75); stroke-opacity: 1; stroke-width: 2px;"/></g><g class="legendsymbols"><g class="legendpoints"/></g></g><rect class="legendtoggle" x="0" y="-9.5" width="125.21875" height="19" style="fill: rgb(0, 0, 0); fill-opacity: 0;"/></g><g class="traces" transform="translate(303.5625,33.5)" style="opacity: 1;"><text class="legendtext" text-anchor="start" x="40" y="4.680000000000001" style="font-family: 'Open Sans', verdana, arial, sans-serif; font-size: 12px; fill: rgb(68, 68, 68); fill-opacity: 1; white-space: pre;">Gradual regular</text><g class="layers" style="opacity: 1;"><g class="legendfill"/><g class="legendlines"><path class="js-line" d="M5,0h30" style="fill: none; stroke: rgb(227, 119, 194); stroke-opacity: 1; stroke-width: 2px;"/></g><g class="legendsymbols"><g class="legendpoints"/></g></g><rect class="legendtoggle" x="0" y="-9.5" width="136.78125" height="19" style="fill: rgb(0, 0, 0); fill-opacity: 0;"/></g></g></g><rect class="scrollbar" rx="20" ry="3" width="0" height="0" x="0" y="0" style="fill: rgb(128, 139, 164); fill-opacity: 1;"/></g><g class="g-gtitle"><text class="gtitle" x="400" y="75" text-anchor="middle" dy="0em" style="font-family: 'Open Sans', verdana, arial, sans-serif; font-size: 17px; fill: rgb(68, 68, 68); opacity: 1; font-weight: normal; white-space: pre;">Accuracy score by MetaL method for 4 nodes</text></g><g class="g-xtitle"><text class="xtitle" x="435" y="572" text-anchor="middle" style="font-family: 'Open Sans', verdana, arial, sans-serif; font-size: 14px; fill: rgb(68, 68, 68); opacity: 1; font-weight: normal; white-space: pre;">Data generation iteration</text></g><g class="g-ytitle"><text class="ytitle" transform="rotate(-90,42,335)" x="42" y="335" text-anchor="middle" style="font-family: 'Open Sans', verdana, arial, sans-serif; font-size: 14px; fill: rgb(68, 68, 68); opacity: 1; font-weight: normal; white-space: pre;">Accuracy score</text></g></g></svg>