<svg class="main-svg" xmlns="http://www.w3.org/2000/svg" xmlns:xlink="http://www.w3.org/1999/xlink" width="800" height="600" style="" viewBox="0 0 800 600"><rect x="0" y="0" width="800" height="600" style="fill: rgb(255, 255, 255); fill-opacity: 1;"/><defs id="defs-698c0e"><g class="clips"><clipPath id="clip698c0exyplot" class="plotclip"><rect width="710" height="370"/></clipPath><clipPath class="axesclip" id="clip698c0ex"><rect x="80" y="0" width="710" height="600"/></clipPath><clipPath class="axesclip" id="clip698c0ey"><rect x="0" y="150" width="800" height="370"/></clipPath><clipPath class="axesclip" id="clip698c0exy"><rect x="80" y="150" width="710" height="370"/></clipPath></g><g class="gradients"/><g class="patterns"/></defs><g class="bglayer"/><g class="layer-below"><g class="imagelayer"/><g class="shapelayer"/></g><g class="cartesianlayer"><g class="subplot xy"><g class="layer-subplot"><g class="shapelayer"/><g class="imagelayer"/></g><g class="minor-gridlayer"><g class="x"/><g class="y"/></g><g class="gridlayer"><g class="x"><path class="xgrid crisp" transform="translate(222.28,0)" d="M0,150v370" style="stroke: rgb(238, 238, 238); stroke-opacity: 1; stroke-width: 1px;"/><path class="xgrid crisp" transform="translate(364.57,0)" d="M0,150v370" style="stroke: rgb(238, 238, 238); stroke-opacity: 1; stroke-width: 1px;"/><path class="xgrid crisp" transform="translate(506.85,0)" d="M0,150v370" style="stroke: rgb(238, 238, 238); stroke-opacity: 1; stroke-width: 1px;"/><path class="xgrid crisp" transform="translate(649.14,0)" d="M0,150v370" style="stroke: rgb(238, 238, 238); stroke-opacity: 1; stroke-width: 1px;"/></g><g class="y"><path class="ygrid crisp" transform="translate(0,488.73)" d="M80,0h710" style="stroke: rgb(238, 238, 238); stroke-opacity: 1; stroke-width: 1px;"/><path class="ygrid crisp" transform="translate(0,412.09)" d="M80,0h710" style="stroke: rgb(238, 238, 238); stroke-opacity: 1; stroke-width: 1px;"/><path class="ygrid crisp" transform="translate(0,335.45)" d="M80,0h710" style="stroke: rgb(238, 238, 238); stroke-opacity: 1; stroke-width: 1px;"/><path class="ygrid crisp" transform="translate(0,258.81)" d="M80,0h710" style="stroke: rgb(238, 238, 238); stroke-opacity: 1; stroke-width: 1px;"/><path class="ygrid crisp" transform="translate(0,182.17000000000002)" d="M80,0h710" style="stroke: rgb(238, 238, 238); stroke-opacity: 1; stroke-width: 1px;"/></g></g><g class="zerolinelayer"><path class="xzl zl crisp" transform="translate(80,0)" d="M0,150v370" style="stroke: rgb(68, 68, 68); stroke-opacity: 1; stroke-width: 1px;"/></g><path class="xlines-below"/><path class="ylines-below"/><g class="overlines-below"/><g class="xaxislayer-below"/><g class="yaxislayer-below"/><g class="overaxes-below"/><g class="plot" transform="translate(80,150)" clip-path="url(#clip698c0exyplot)"><g class="scatterlayer mlayer"><g class="trace scatter trace618faf" style="stroke-miterlimit: 2; opacity: 1;"><g class="fills"/><g class="errorbars"/><g class="lines"><path class="js-line" d="M0,103.57L0.71,104.85L1.42,103.06L4.27,120.43L4.98,137.55L5.69,139.85L6.4,133.84L7.83,167.95L8.54,121.2L9.25,120.81L9.96,131.16L12.09,174.08L12.81,152.88L13.52,107.27L14.23,120.43L17.79,170.89L18.5,190.17L19.21,149.04L19.92,159.39L21.34,188L22.05,194.9L22.77,215.46L23.48,204.99L25.61,135.89L26.32,142.53L27.03,161.43L27.75,160.92L28.46,176.51L29.17,148.02L29.88,150.7L30.59,151.34L31.3,162.58L32.01,172.93L32.73,129.76L34.86,153.9L35.57,166.29L36.28,167.31L36.99,179.57L37.71,200.26L38.42,163.86L39.13,169.74L39.84,166.93L41.26,169.86L41.97,183.02L42.69,195.92L43.4,172.8L44.11,153.39L44.82,111.36L45.53,113.41L46.24,118.77L49.09,127.97L49.8,126.43L50.51,132.31L51.22,146.74L53.36,160.16L54.07,141L56.2,168.33L56.91,127.84L57.63,133.72L58.34,130.91L61.18,148.28L61.89,162.2L63.32,185.32L64.03,159.9L64.74,160.41L65.45,180.85L66.16,165.27L66.87,177.14L68.3,132.44L69.01,137.04L71.14,149.43L71.85,163.73L72.57,130.01L73.28,134.23L74.7,147.77L75.41,166.41L76.83,185.57L77.55,187.36L78.26,205.25L78.97,156.07L79.68,171.27L80.39,140.1L81.1,138.06L81.81,139.72L82.53,140.74L83.24,139.97L83.95,139.97L84.66,152.36L85.37,151.85L86.08,159.39L88.22,190.17L88.93,137.42L89.64,137.8L90.35,134.99L91.77,148.15L92.48,143.68L93.91,160.41L94.62,159.9L95.33,159.13L96.04,168.33L96.75,143.81L97.46,151.98L98.18,145.34L98.89,155.17L100.31,173.95L101.02,174.85L101.73,175.1L102.44,183.79L103.87,200.52L104.58,169.35L106,182.76L106.71,139.34L108.85,154.41L109.56,170.63L110.27,171.91L110.98,175.87L112.4,210.1L113.12,179.95L114.54,206.78L115.25,207.8L115.96,206.78L116.67,208.31L117.38,209.72L118.1,213.93L118.81,215.85L119.52,220.96L122.36,238.33L123.08,238.07L125.21,257.49L125.92,256.08L126.63,255.32L127.34,257.49L128.06,260.3L128.77,242.16L130.19,237.82L130.9,238.97L131.61,237.56L132.32,250.21L133.04,250.21L133.75,247.65L134.46,255.32L135.17,253.91L137.3,249.82L138.02,258.89L138.73,253.53L139.44,256.34L140.15,254.55L140.86,263.11L142.28,242.03L143,240.12L143.71,240.12L144.42,236.67L145.13,241.39L145.84,238.84L147.26,240.24L147.98,239.86L148.69,241.78L149.4,240.88L150.11,241.39L150.82,239.35L152.24,231.69L152.96,225.94L154.38,228.75L155.09,226.7L157.22,232.45L157.94,237.69L159.36,239.73L160.07,238.97L160.78,244.72L161.49,259.02L163.63,252.12L164.34,251.36L165.05,248.67L165.76,259.92L166.47,263.62L167.18,220.32L167.9,217.25L168.61,224.79L170.74,213.17L171.45,211.5L172.88,209.21L173.59,210.87L175.01,172.16L175.72,168.46L176.43,173.18L177.14,169.74L177.86,170.5L178.57,172.42L179.99,179.19L180.7,177.02L181.41,184.55L182.12,184.04L184.26,191.32L184.97,203.33L185.68,204.35L186.39,210.48L187.1,210.36L187.82,214.57L188.53,214.44L189.24,211.63L189.95,217.76L190.66,236.03L191.37,189.28L192.08,195.15L193.51,209.84L194.22,208.57L194.93,233.47L195.64,217.25L196.35,218.15L197.06,214.57L198.49,230.03L199.2,230.15L199.91,229.26L200.62,243.18L202.04,204.48L202.76,207.54L203.47,205.76L204.18,212.14L205.6,220.83L206.31,221.6L207.74,233.99L208.45,245.61L210.58,278.95L211.29,255.06L212,262.09L212.72,281.5L213.43,177.91L214.14,178.68L214.85,179.19L215.56,196.43L216.27,166.8L217.7,174.85L218.41,174.33L219.12,176.76L219.83,174.59L221.25,184.94L221.96,148.02L223.39,152.24L224.1,153.64L227.66,185.83L228.37,195.15L229.08,225.43L229.79,189.79L230.5,195.79L231.21,156.96L231.92,156.2L232.64,159.26L233.35,158.62L234.06,155.94L236.19,165.65L236.9,166.8L239.04,181.23L239.75,179.06L240.46,169.61L241.17,171.78L241.88,169.99L242.6,171.65L243.31,175.74L244.02,174.33L245.44,180.72L246.15,187.75L246.86,194.13L247.58,175.61L248.29,177.66L249,177.4L249.71,185.57L250.42,181.62L251.13,179.83L251.84,182.64L253.27,188.77L253.98,195.79L254.69,195.79L255.4,201.54L256.82,221.47L257.54,248.8L258.25,226.19L258.96,247.53L260.38,147.51L261.09,150.32L261.8,176.63L262.52,148.92L263.23,150.83L263.94,161.94L266.07,176.51L266.78,191.32L267.49,208.82L268.21,180.59L271.05,221.34L271.76,180.98L273.19,142.15L273.9,158.24L275.32,189.53L276.03,195.54L277.45,197.58L278.17,198.35L280.3,218.91L281.01,235.39L281.72,201.8L282.43,205.76L283.86,201.16L284.57,206.01L286.7,219.3L287.41,221.34L288.13,220.83L288.84,200.26L289.55,196.56L290.26,163.09L290.97,157.6L291.68,162.71L292.39,165.14L293.11,164.37L295.24,196.05L295.95,198.35L296.66,218.4L297.37,190.68L298.09,210.87L298.8,176.51L300.22,188L300.93,188.13L302.35,197.84L303.07,195.41L304.49,197.2L305.2,205.37L305.91,203.46L306.62,212.53L308.05,170.63L308.76,179.95L309.47,177.4L310.18,190.17L312.31,213.55L313.03,187.36L315.16,202.31L315.87,185.45L318.72,212.53L319.43,230.03L321.56,182.64L322.27,184.68L322.99,192.6L323.7,191.45L326.54,205.88L327.25,208.82L327.97,226.96L328.68,158.37L329.39,157.73L330.1,159.9L332.23,177.91L332.95,182.25L334.37,206.01L335.08,227.85L335.79,198.22L336.5,207.67L337.93,216.49L338.64,220.83L339.35,218.4L340.06,226.58L343.62,263.36L344.33,258.38L345.04,269.24L345.75,246.38L347.17,258.38L347.89,260.94L348.6,234.37L349.31,235.9L351.44,244.84L352.15,243.95L355,258L355.71,262.98L356.42,263.88L357.13,268.73L357.85,272.05L358.56,238.97L359.27,246.63L359.98,205.88L362.11,224.92L362.83,240.76L363.54,243.31L364.25,254.42L364.96,244.46L365.67,253.15L366.38,250.97L367.09,254.81L369.23,276.9L369.94,259.28L371.36,279.46L372.07,198.48L373.5,208.57L374.21,210.74L375.63,214.19L376.34,216.1L377.77,229.9L378.48,230.66L379.19,232.58L379.9,250.85L380.61,255.06L381.32,252L382.75,270.13L383.46,247.14L384.17,246.89L384.88,250.85L386.3,257.49L387.01,259.28L387.73,257.74L388.44,261.7L389.15,260.68L389.86,258.13L392.71,270.13L393.42,248.67L394.84,261.7L395.55,262.73L396.26,266.43L396.97,278.82L399.11,291.72L399.82,292.74L401.24,306.28L401.95,260.3L403.38,264.77L404.09,263.75L404.8,263.62L405.51,267.96L406.22,268.73L406.93,270.9L408.36,280.74L409.07,281.76L409.78,281.12L410.49,281.89L411.2,281.37L411.91,291.21L413.34,267.58L414.05,279.71L414.76,198.09L415.47,205.63L416.18,206.27L416.89,212.27L419.03,227.09L419.74,227.73L421.16,250.72L421.87,249.95L422.59,260.43L423.3,213.29L426.14,248.29L426.85,204.22L427.57,203.07L428.28,209.33L430.41,228.62L431.12,232.2L433.26,247.78L433.97,253.4L434.68,264.51L435.39,238.46L436.1,227.47L436.81,227.6L437.53,223.89L438.24,217.12L438.95,221.72L439.66,221.72L440.37,217.89L441.08,229.13L441.79,201.03L442.51,209.72L443.22,170.12L444.64,165.52L445.35,164.63L446.77,170.12L447.48,176.76L448.2,186.6L448.91,208.57L451.04,242.67L451.75,177.4L452.46,185.96L453.18,225.56L453.89,224.15L454.6,225.56L456.02,232.07L456.73,224.92L457.44,216.23L458.16,223.77L458.87,234.62L459.58,207.8L460.29,219.42L461,190.05L461.71,189.41L462.42,193.88L464.56,216.49L465.27,229.77L466.69,198.99L467.4,196.82L469.54,217.25L470.25,216.23L471.67,237.18L472.38,260.55L473.1,206.78L473.81,215.21L474.52,217L475.23,224.53L477.36,259.28L478.08,212.14L480.92,224.92L481.63,229.9L482.34,229.26L483.06,230.41L484.48,248.55L485.19,248.29L485.9,230.03L486.61,241.27L488.04,248.93L488.75,264.9L490.17,281.12L490.88,281.37L491.59,277.54L492.3,280.86L493.02,280.48L493.73,275.63L495.15,275.88L495.86,281.63L496.57,280.99L497.28,281.63L498.71,280.35L499.42,280.61L500.13,286.74L500.84,251.23L501.55,248.8L502.26,253.66L505.11,270.9L505.82,276.9L506.53,278.56L507.24,295.68L508.67,173.44L509.38,173.06L510.09,168.2L510.8,169.48L513.65,197.71L514.36,213.55L516.49,240.37L517.2,220.45L518.63,231.3L519.34,210.87L520.76,207.54L521.47,213.04L522.18,213.68L522.9,212.27L523.61,208.95L524.32,214.7L525.03,211.25L525.74,216.1L526.45,216.87L527.16,226.07L527.88,187.87L528.59,192.6L530.01,198.6L530.72,207.03L531.43,180.47L532.14,182.38L534.99,226.45L535.7,192.73L537.84,206.78L538.55,223L539.97,248.04L540.68,235.65L542.1,204.86L542.82,211.76L543.53,207.54L544.24,209.08L547.08,260.81L547.8,232.07L548.51,180.21L549.22,184.43L549.93,185.57L550.64,184.3L551.35,190.43L552.06,204.1L554.2,236.16L554.91,239.73L555.62,251.49L556.33,227.85L557.04,249.06L557.76,243.31L558.47,243.57L559.18,246.5L561.31,254.81L562.02,254.04L564.16,273.2L564.87,264L565.58,262.6L566.29,281.25L568.43,204.99L569.14,194.39L569.85,186.47L570.56,191.2L571.27,190.68L571.98,202.69L573.41,217.38L574.12,233.35L575.54,175.99L576.25,182.13L578.39,184.17L579.1,188.9L580.52,186.47L581.23,190.94L582.66,198.48L583.37,217.76L584.08,218.91L584.79,211.63L585.5,226.45L586.21,221.47L588.35,232.45L589.06,248.29L589.77,265.15L590.48,235.39L591.19,229.9L591.9,247.14L592.62,244.72L593.33,256.59L594.04,263.11L594.75,259.53L596.17,279.46L596.88,247.53L598.31,291.21L599.02,291.59L599.73,294.28L600.44,301.43L601.86,318.54L602.58,313.05L604,324.68L604.71,281.37L605.42,295.04L606.13,263.62L606.84,267.2L607.56,265.41L608.98,289.93L609.69,291.21L610.4,305.64L611.11,212.4L613.25,236.67L613.96,241.14L614.67,249.44L615.38,223.64L616.09,222.36L616.8,225.81L617.52,227.09L618.23,230.66L619.65,169.99L620.36,175.23L621.07,174.33L621.78,175.48L622.49,177.14L623.21,182L623.92,184.81L624.63,190.81L625.34,196.82L626.05,182.76L628.19,216.23L628.9,184.68L630.32,189.41L631.03,188.38L633.17,209.21L633.88,221.47L635.3,237.18L636.01,266.3L636.72,198.86L637.43,232.2L638.15,235.26L638.86,229.64L640.28,236.92L640.99,240.63L643.13,254.3L643.84,262.47L645.26,227.73L645.97,227.73L646.68,226.96L647.39,230.03L648.82,237.56L649.53,236.54L650.24,237.43L650.95,235.26L653.09,226.19L653.8,237.18L654.51,239.22L655.22,255.32L655.93,254.68L656.64,250.97L658.07,259.4L658.78,259.15L660.2,311.9L660.91,321.87L662.33,351.5L663.05,259.79L663.76,263.49L664.47,276.78L665.18,280.48L665.89,307.69L666.6,274.6L667.31,196.56L668.03,193.75L668.74,204.1L670.16,225.3L670.87,178.55L672.29,204.99L673.01,165.9L674.43,177.27L675.14,194.39L675.85,198.6L676.56,221.85L677.27,222.23L677.99,194.77L678.7,196.56L679.41,206.4L680.12,227.09L680.83,195.79L681.54,186.34L682.25,194.01L682.97,193.49L683.68,210.87L684.39,208.44L685.1,236.03L685.81,228.37L686.52,232.45L687.23,250.46L687.95,218.91L689.37,238.71L690.08,220.83L690.79,214.95L691.5,225.3L692.21,234.24L692.93,209.72L695.77,250.72L696.48,271.67L697.19,244.08L697.91,138.31L698.62,148.28L699.33,207.16L700.75,218.66L701.46,244.08L702.17,156.32L702.89,161.82L703.6,171.78L704.31,152.36L706.44,188.38L707.15,188.26L707.87,183.4L708.58,208.31L709.29,173.18L710,192.22" style="vector-effect: none; fill: none; stroke: rgb(31, 119, 180); stroke-opacity: 1; stroke-width: 2px; opacity: 1;"/></g><g class="points"/><g class="text"/></g><g class="trace scatter tracef6ea44" style="stroke-miterlimit: 2; opacity: 1;"><g class="fills"/><g class="errorbars"/><g class="lines"><path class="js-line" d="M0,108.3L0.71,109.57L1.42,109.06L2.85,106.51L3.56,109.45L5.69,120.56L6.4,127.2L7.83,142.53L8.54,154.28L9.25,108.68L9.96,109.7L10.67,111.75L11.38,116.34L12.09,114.68L12.81,131.42L13.52,129.63L14.94,158.24L15.65,127.2L16.36,137.93L17.07,134.61L17.79,149.04L18.5,123.24L19.21,123.75L19.92,126.95L21.34,159.77L22.05,165.14L24.19,204.73L24.9,177.66L25.61,134.1L26.32,147.77L27.03,169.74L27.75,141.76L29.17,94.12L29.88,104.98L30.59,105.49L31.3,117.49L32.73,126.05L33.44,136.78L34.86,165.14L35.57,138.19L36.28,138.06L36.99,139.34L37.71,138.57L38.42,145.72L39.13,158.75L39.84,126.56L41.26,131.54L41.97,137.67L44.11,173.82L44.82,175.36L45.53,180.72L46.24,159.64L46.95,175.36L47.67,149.94L48.38,121.71L49.09,125.92L49.8,136.4L50.51,136.01L51.22,145.21L51.93,148.66L52.65,112.38L54.07,129.88L54.78,106.64L56.91,118.13L57.63,128.73L59.05,136.01L59.76,154.02L60.47,129.63L61.18,135.5L63.32,167.95L64.03,144.19L64.74,149.81L65.45,169.99L66.87,97.18L67.59,99.99L69.01,107.53L69.72,105.23L72.57,149.81L73.28,170.89L73.99,155.05L74.7,121.07L75.41,84.79L76.12,94.5L77.55,103.57L78.26,120.43L79.68,143.17L80.39,141.25L81.81,139.21L82.53,153L83.24,166.8L83.95,139.08L85.37,168.71L86.08,171.27L88.22,194.77L88.93,172.42L89.64,131.42L90.35,135.12L91.77,143.17L92.48,156.96L93.2,118.9L93.91,125.28L95.33,129.5L96.04,139.34L97.46,176.63L98.18,103.83L98.89,102.42L99.6,107.4L100.31,123.37L101.02,96.8L101.73,99.1L102.44,104.59L103.87,125.41L104.58,93.35L106,97.44L106.71,104.59L110.27,146.36L110.98,120.94L112.4,131.54L113.12,131.42L115.25,158.24L115.96,140.49L116.67,146.11L117.38,115.7L118.1,108.04L118.81,109.06L119.52,132.69L120.23,130.27L122.36,151.85L123.08,150.58L123.79,170.25L124.5,149.43L125.21,123.75L125.92,129.24L126.63,129.88L127.34,141.76L128.77,106.38L129.48,106.64L130.19,108.93L130.9,118.39L131.61,128.86L132.32,96.03L133.75,99.99L134.46,108.55L135.17,111.62L135.88,118.77L138.02,150.7L138.73,147.64L139.44,148.4L140.15,156.96L140.86,131.03L141.57,136.53L142.28,154.66L143,203.2L143.71,196.05L144.42,199.24L145.84,187.49L146.55,192.22L147.26,191.2L147.98,204.1L149.4,208.82L150.11,216.1L150.82,189.28L151.53,189.53L152.24,190.56L153.67,209.84L154.38,249.19L155.09,251.36L155.8,250.34L156.51,249.44L157.22,255.06L157.94,230.15L158.65,232.45L159.36,233.99L160.07,232.45L161.49,239.35L162.2,237.95L163.63,236.16L164.34,240.37L165.05,238.58L165.76,245.61L166.47,251.74L167.18,251.1L167.9,252L168.61,258L169.32,259.92L170.03,258.13L170.74,259.28L171.45,258.25L172.16,259.79L172.88,266.05L174.3,231.05L175.01,233.6L175.72,233.22L176.43,227.22L177.14,233.99L177.86,227.22L178.57,242.42L179.28,214.57L179.99,210.87L180.7,212.02L181.41,214.06L182.12,208.95L182.84,214.7L183.55,214.44L184.26,215.72L184.97,218.53L185.68,215.08L186.39,224.66L187.1,222.75L187.82,222.87L188.53,218.66L189.24,226.32L189.95,221.6L191.37,227.47L192.08,226.58L192.8,238.84L193.51,218.02L194.22,217.12L194.93,219.3L196.35,230.28L197.06,235.9L198.49,256.47L199.2,231.56L203.47,260.43L204.18,277.41L204.89,285.59L205.6,282.78L207.02,306.54L207.74,208.82L208.45,211.38L209.16,210.87L211.29,235.65L212,137.8L212.72,142.15L213.43,141.12L214.85,146.23L215.56,160.67L216.27,161.43L216.98,175.87L217.7,136.27L218.41,140.49L219.12,142.78L219.83,141.76L221.25,151.6L221.96,154.66L222.68,167.56L223.39,129.88L224.81,139.97L225.52,158.88L226.23,129.63L226.94,137.8L227.66,147.25L228.37,117.62L229.79,126.43L230.5,126.95L231.21,128.35L231.92,134.99L233.35,168.33L234.06,125.16L234.77,122.86L235.48,127.97L236.19,131.93L236.9,141.63L238.33,155.81L239.04,164.88L239.75,179.32L240.46,118.64L241.88,114.56L242.6,117.24L243.31,105.23L244.02,107.02L244.73,102.68L245.44,105.87L246.15,121.58L246.86,104.08L247.58,107.53L248.29,106.89L249.71,120.94L250.42,125.54L253.27,171.65L253.98,149.04L254.69,153.39L255.4,119.54L256.11,123.11L256.82,144.83L257.54,114.68L258.25,121.33L258.96,137.93L259.67,110.72L260.38,115.07L261.09,113.02L261.8,130.39L262.52,105.1L263.23,108.17L263.94,124.01L264.65,124.26L265.36,129.12L266.07,156.07L266.78,75.85L268.21,81.22L268.92,81.98L271.05,112.64L271.76,114.43L272.47,111.62L273.19,118.13L275.32,148.15L276.03,150.32L276.74,152.24L277.45,170.12L278.17,97.82L278.88,99.74L279.59,100.5L281.72,119.66L282.43,132.44L283.15,105.49L283.86,109.7L285.28,134.1L285.99,155.43L286.7,132.18L287.41,141.63L288.84,101.27L289.55,108.55L290.97,124.26L291.68,122.22L292.39,122.22L293.11,121.45L293.82,136.65L294.53,135.89L295.24,143.93L295.95,148.79L296.66,167.69L297.37,102.68L298.09,110.98L298.8,110.34L299.51,117.75L300.93,137.67L301.64,128.35L302.35,85.69L303.07,91.44L303.78,92.07L304.49,89.52L306.62,118.51L307.33,120.69L308.05,144.44L308.76,140.49L309.47,163.22L310.18,125.03L311.6,97.95L312.31,104.85L313.03,101.78L313.74,109.7L314.45,117.11L315.16,134.35L316.58,142.78L317.29,166.29L318.72,122.35L319.43,132.82L320.85,156.07L321.56,178.04L322.27,128.35L322.99,144.32L323.7,134.99L324.41,163.73L325.12,90.67L325.83,92.2L326.54,98.33L328.68,152.62L329.39,100.12L330.1,107.15L330.81,122.22L331.52,128.73L332.23,124.39L332.95,132.69L333.66,158.5L335.08,198.22L335.79,169.74L338.64,186.09L339.35,204.73L340.77,176.89L341.48,200.14L342.19,167.05L342.91,168.33L343.62,180.34L344.33,155.05L345.04,161.82L346.46,175.74L347.17,159.9L347.89,156.83L348.6,158.62L349.31,165.65L350.02,187.36L352.15,196.05L352.87,202.69L354.29,224.28L355,206.65L355.71,168.46L356.42,178.29L357.13,161.56L357.85,163.99L358.56,162.07L359.27,165.01L360.69,175.23L361.4,187.87L362.11,189.79L362.83,196.69L363.54,132.57L364.25,137.67L365.67,146.11L366.38,144.57L367.09,143.68L367.81,147L368.52,150.96L369.23,148.66L369.94,146.23L370.65,157.47L371.36,165.39L372.07,129.24L373.5,138.06L374.21,139.34L376.34,156.96L377.05,156.2L377.77,156.07L378.48,168.71L379.19,138.44L379.9,144.96L381.32,150.58L382.03,160.79L382.75,140.49L383.46,149.55L384.88,155.81L385.59,168.33L386.3,184.04L387.01,144.7L387.73,141L388.44,149.3L389.15,167.82L389.86,125.28L391.28,144.57L391.99,143.93L392.71,153L393.42,175.23L394.13,140.74L394.84,150.7L395.55,151.85L396.26,160.67L397.69,171.14L398.4,184.04L399.11,161.05L399.82,162.07L400.53,172.04L401.24,140.87L401.95,143.68L403.38,144.06L404.09,147.51L404.8,146.87L405.51,152.49L406.93,157.73L407.65,152.24L411.2,204.35L411.91,167.95L412.63,167.44L413.34,177.27L414.05,188.51L414.76,166.93L418.32,196.94L419.03,201.92L419.74,209.97L420.45,167.44L421.16,164.12L421.87,166.67L424.01,197.07L424.72,200.65L428.28,248.93L428.99,203.46L430.41,217.12L431.12,190.43L431.83,183.79L432.55,186.21L433.26,189.28L433.97,187.24L435.39,208.31L436.1,172.93L436.81,177.53L437.53,192.6L439.66,212.65L440.37,229L441.08,246.25L441.79,196.3L443.22,216.49L443.93,215.72L444.64,217.64L445.35,236.54L446.06,216.1L446.77,157.47L448.91,178.55L449.62,182.38L451.75,212.4L452.46,258.13L454.6,285.08L455.31,236.03L456.02,230.79L456.73,231.18L458.16,228.88L458.87,231.94L459.58,232.45L460.29,230.92L461,235.77L461.71,209.08L463.14,207.03L463.85,209.21L465.27,208.31L465.98,213.29L467.4,210.1L468.12,214.95L470.25,224.41L470.96,220.32L471.67,224.28L472.38,199.75L473.81,208.18L474.52,207.54L475.94,217.64L476.65,219.81L477.36,219.04L478.08,213.8L478.79,221.98L479.5,219.3L480.92,225.43L481.63,231.94L482.34,233.22L483.06,238.84L484.48,251.61L485.19,256.47L485.9,256.59L486.61,261.96L487.32,264.77L488.04,271.67L488.75,293.13L489.46,247.4L490.17,256.47L490.88,282.4L491.59,286.61L492.3,282.91L493.02,282.91L493.73,285.08L494.44,284.06L495.15,286.87L495.86,286.61L496.57,289.68L498,292.1L498.71,296.32L501.55,321.48L502.26,273.2L502.98,274.99L503.69,265.66L505.11,268.47L505.82,268.09L506.53,267.32L507.24,271.92L507.96,273.97L508.67,273.07L510.09,284.06L510.8,293L512.22,264.9L512.94,262.09L516.49,296.7L517.2,311.14L518.63,331.96L519.34,220.06L521.47,245.1L522.18,251.87L522.9,266.94L523.61,244.84L525.03,250.08L525.74,249.06L526.45,265.92L527.16,240.37L527.88,148.02L528.59,152.11L529.3,151.21L530.72,162.71L531.43,171.27L532.86,164.63L533.57,172.93L534.28,177.4L534.99,172.42L536.41,196.94L537.12,197.33L537.84,210.74L538.55,157.35L539.97,167.69L540.68,171.52L542.1,177.91L542.82,189.41L543.53,193.62L544.24,205.63L544.95,190.43L545.66,194.52L547.08,213.8L547.8,212.27L549.22,244.72L549.93,205.63L550.64,203.84L551.35,208.44L552.78,158.75L553.49,160.79L555.62,177.14L556.33,181.36L557.04,184.81L557.76,199.11L559.18,222.11L559.89,237.69L561.31,165.65L562.02,166.16L562.74,163.35L563.45,164.63L564.87,177.02L565.58,168.46L569.14,201.29L569.85,214.7L570.56,180.85L571.27,190.94L571.98,187.49L572.7,192.34L573.41,193.37L574.12,197.71L574.83,197.33L575.54,214.44L576.25,227.47L576.96,191.58L577.68,190.3L578.39,149.94L579.1,152.88L579.81,151.6L580.52,155.17L581.23,169.86L581.94,170.63L582.66,181.36L584.79,208.69L585.5,215.98L586.21,178.04L586.92,189.79L587.64,203.59L588.35,169.1L589.06,177.4L589.77,128.61L591.19,145.21L591.9,143.81L593.33,154.02L594.04,157.22L595.46,166.8L596.17,168.71L596.88,174.33L597.6,165.52L598.31,166.67L599.02,180.72L599.73,154.54L600.44,170.37L601.15,172.29L601.86,179.95L602.58,178.8L603.29,180.21L604.71,208.44L605.42,172.29L608.27,210.23L608.98,177.78L609.69,172.93L610.4,178.29L611.82,203.46L612.54,176.25L613.96,174.59L614.67,188.38L615.38,189.02L616.09,159.13L616.8,168.08L617.52,148.28L618.94,160.79L619.65,178.04L620.36,183.91L621.07,198.99L621.78,179.57L622.49,182.76L623.21,189.28L623.92,179.06L624.63,174.21L625.34,177.27L626.05,179.57L626.76,186.21L628.19,153.77L628.9,160.16L629.61,159.26L630.32,162.33L631.03,176.38L631.74,175.48L633.17,193.88L633.88,192.98L635.3,222.49L636.01,197.96L637.43,158.75L638.15,165.52L638.86,166.67L639.57,163.35L640.99,171.27L641.7,177.02L643.84,189.28L644.55,203.59L645.26,184.94L645.97,192.98L647.39,207.54L648.11,190.43L649.53,212.53L650.24,225.81L650.95,179.06L651.66,179.83L652.37,183.02L653.09,181.1L653.8,184.94L654.51,184.04L655.22,193.11L655.93,166.93L656.64,174.33L658.07,188.51L658.78,181.23L660.2,191.83L660.91,192.47L662.33,205.5L663.05,217.38L664.47,251.87L665.18,191.71L665.89,206.91L666.6,206.14L667.31,203.97L668.03,201.54L668.74,205.63L670.16,216.1L670.87,186.6L671.58,187.75L672.29,197.07L673.01,169.74L673.72,178.17L674.43,176.38L675.14,184.43L675.85,195.79L676.56,192.34L677.99,213.04L678.7,170.76L679.41,170.5L680.12,179.95L680.83,180.08L681.54,182.51L682.97,184.94L683.68,194.01L686.52,223.13L687.23,191.83L687.95,192.73L688.66,195.15L689.37,204.73L690.08,179.83L690.79,136.01L691.5,141L692.21,142.53L692.93,140.74L695.06,152.36L695.77,151.85L696.48,155.3L697.19,171.01L697.91,172.55L698.62,185.19L700.75,209.46L701.46,192.47L702.89,210.99L703.6,166.8L705.02,184.3L705.73,161.56L707.15,178.17L707.87,196.05L708.58,171.65L709.29,174.97L710,189.02" style="vector-effect: none; fill: none; stroke: rgb(255, 127, 14); stroke-opacity: 1; stroke-width: 2px; opacity: 1;"/></g><g class="points"/><g class="text"/></g><g class="trace scatter trace13a4f5" style="stroke-miterlimit: 2; opacity: 1;"><g class="fills"/><g class="errorbars"/><g class="lines"><path class="js-line" d="M0,103.57L1.42,112.89L2.13,118.39L2.85,119.54L3.56,131.03L4.27,131.8L4.98,150.58L6.4,116.09L7.11,119.79L7.83,127.2L8.54,142.66L9.96,145.98L10.67,156.58L11.38,162.46L12.09,131.93L12.81,144.57L13.52,91.18L15.65,120.43L16.36,117.11L17.07,119.28L17.79,126.82L18.5,131.8L19.21,129.24L19.92,133.59L20.63,167.05L24.19,213.29L24.9,193.49L26.32,120.3L27.03,139.34L28.46,157.47L29.17,130.91L30.59,145.85L31.3,120.69L32.01,121.33L32.73,130.91L34.15,139.34L34.86,142.27L37.71,173.95L38.42,153.9L39.13,162.46L39.84,144.32L41.97,166.8L42.69,118.9L44.11,136.01L44.82,143.17L45.53,143.42L46.24,153.13L46.95,150.58L47.67,164.37L49.09,114.56L49.8,115.83L52.65,144.32L53.36,142.78L54.07,146.62L54.78,163.73L56.2,109.32L56.91,115.07L57.63,125.8L58.34,123.11L59.05,144.7L59.76,101.27L60.47,104.08L61.18,103.83L61.89,112.26L62.61,111.62L63.32,118.77L64.03,117.88L64.74,120.94L66.16,138.82L66.87,123.75L67.59,126.82L68.3,134.86L69.01,100.76L69.72,103.57L70.43,105.87L71.14,102.93L72.57,114.81L73.28,122.73L75.41,167.31L76.12,142.78L77.55,112.64L78.26,114.43L78.97,119.03L79.68,133.33L80.39,136.78L81.1,124.9L81.81,126.18L82.53,129.88L83.95,139.21L84.66,154.02L85.37,153L86.08,149.94L86.79,162.71L87.51,162.46L88.22,167.69L88.93,184.55L89.64,156.32L90.35,137.8L91.06,143.3L91.77,148.53L92.48,146.11L94.62,159.39L95.33,168.59L98.18,191.32L98.89,210.99L99.6,198.48L100.31,154.54L101.02,80.58L101.73,83.52L102.44,88.37L103.87,95.52L104.58,100.38L105.29,100.5L106,107.79L106.71,112.89L107.42,135.63L108.85,111.23L109.56,113.92L110.27,117.49L110.98,126.95L113.83,167.05L114.54,174.08L115.96,190.43L116.67,143.55L117.38,143.17L118.1,148.66L118.81,103.83L119.52,119.15L120.23,119.92L120.94,126.56L121.65,130.14L122.36,140.49L125.21,182.25L125.92,116.09L127.34,138.44L128.06,107.91L129.48,115.58L130.19,115.32L131.61,127.46L132.32,123.11L133.04,122.35L133.75,134.99L134.46,102.8L135.17,112.38L136.59,113.53L137.3,118.13L139.44,134.1L140.15,133.33L140.86,142.15L141.57,160.54L142.28,197.71L143,193.49L143.71,193.11L144.42,201.03L145.13,203.71L145.84,201.16L147.26,215.08L147.98,177.14L148.69,173.82L149.4,182.25L151.53,205.88L152.24,169.74L153.67,167.44L154.38,170.12L155.09,178.93L155.8,175.87L157.94,191.83L158.65,177.91L159.36,181.62L160.07,180.08L162.2,199.37L162.92,198.99L164.34,204.73L165.05,205.88L165.76,210.36L166.47,223.89L167.18,198.09L167.9,206.78L168.61,216.23L169.32,181.49L170.74,177.78L171.45,181.36L172.16,189.66L172.88,154.15L173.59,152.75L174.3,160.28L175.01,158.11L175.72,168.33L176.43,164.12L177.14,169.48L177.86,173.95L178.57,173.7L179.28,177.02L180.7,184.04L181.41,184.81L182.84,199.75L183.55,166.8L184.26,173.7L184.97,171.14L186.39,185.06L187.1,149.55L188.53,144.44L189.24,147.13L189.95,147.64L190.66,159.26L191.37,160.67L192.08,159.13L192.8,167.69L193.51,167.05L194.93,185.32L195.64,204.86L196.35,201.67L197.06,204.73L197.78,218.02L198.49,209.97L199.91,172.29L200.62,174.33L201.33,172.42L202.04,178.93L202.76,177.4L203.47,177.91L204.89,196.94L205.6,156.07L206.31,157.73L207.02,154.66L207.74,154.92L208.45,162.97L209.16,165.78L209.87,175.99L210.58,172.16L211.29,175.1L212,179.7L212.72,178.55L214.14,181.87L214.85,183.02L216.98,213.93L217.7,215.59L218.41,213.17L219.12,224.02L219.83,219.93L220.54,223.89L221.25,220.96L221.96,224.28L223.39,225.3L224.1,221.98L224.81,223.38L225.52,226.45L226.94,226.7L227.66,234.88L228.37,250.46L229.08,207.8L229.79,208.57L230.5,207.93L232.64,209.33L233.35,207.29L234.06,211.12L234.77,208.31L235.48,208.57L236.19,210.36L236.9,210.61L237.62,208.18L239.04,207.42L239.75,210.99L240.46,210.48L241.17,208.95L241.88,211.12L242.6,208.44L243.31,209.46L244.02,213.29L244.73,209.97L245.44,212.27L247.58,228.37L248.29,226.32L249,228.75L249.71,227.98L251.13,243.82L251.84,217.64L252.56,218.15L253.27,223.13L253.98,224.41L254.69,222.11L255.4,228.24L256.11,227.98L256.82,225.56L258.25,234.37L258.96,234.11L260.38,248.93L261.09,183.15L262.52,204.61L263.23,207.42L263.94,220.19L264.65,177.78L265.36,177.66L266.07,181.23L268.21,214.06L268.92,156.96L271.76,192.09L272.47,198.48L273.19,204.1L273.9,219.3L274.61,218.15L275.32,219.04L276.03,218.15L276.74,235.77L278.17,146.62L278.88,151.85L279.59,144.83L280.3,153L282.43,168.46L283.15,190.94L283.86,189.53L284.57,194.13L285.99,217.25L286.7,169.1L288.13,168.08L288.84,173.18L289.55,181.74L290.26,165.52L291.68,184.68L292.39,160.92L293.11,159.9L293.82,169.74L295.95,187.24L296.66,198.48L298.09,179.57L298.8,182.89L299.51,196.94L300.22,237.05L300.93,239.99L301.64,210.74L302.35,205.88L303.07,177.66L303.78,174.97L304.49,176.76L305.2,184.17L305.91,184.04L306.62,187.75L307.33,190.68L308.05,201.92L308.76,208.06L309.47,231.69L310.18,246.38L310.89,207.67L311.6,206.65L312.31,208.95L313.03,211.63L313.74,211.25L314.45,218.02L315.16,217.76L315.87,223.51L318.01,217.25L318.72,215.08L319.43,220.19L320.14,215.08L320.85,214.57L321.56,212.53L322.27,213.29L322.99,215.72L323.7,216.87L324.41,213.42L325.83,221.98L326.54,220.06L327.97,225.43L328.68,231.69L330.1,238.07L330.81,250.08L331.52,259.66L332.23,228.49L334.37,246.25L335.08,248.29L336.5,244.59L337.21,249.82L337.93,247.65L338.64,249.82L340.06,261.83L340.77,215.85L341.48,141.76L342.19,144.19L342.91,148.15L343.62,142.78L344.33,143.04L345.04,144.57L345.75,150.96L346.46,146.11L347.17,148.92L347.89,145.72L350.02,172.16L350.73,180.08L351.44,188.64L352.15,168.97L352.87,168.59L353.58,166.93L356.42,197.2L357.13,203.07L357.85,200.9L358.56,210.36L359.27,208.44L359.98,212.78L360.69,213.29L361.4,228.37L362.11,199.88L362.83,214.83L363.54,183.91L364.25,186.72L364.96,196.69L365.67,195.79L366.38,183.15L367.09,186.6L368.52,212.65L369.23,182.64L370.65,199.5L371.36,175.74L372.07,173.82L372.79,174.97L374.92,191.2L375.63,191.2L376.34,192.73L377.05,199.88L377.77,200.65L378.48,206.91L379.19,204.61L379.9,212.91L380.61,230.15L381.32,190.17L382.75,207.03L383.46,203.84L384.17,214.7L384.88,182.13L385.59,187.24L386.3,186.72L387.01,187.75L387.73,190.43L389.15,174.85L389.86,177.4L391.99,205.37L392.71,210.36L393.42,221.98L394.13,200.78L394.84,201.03L395.55,199.11L398.4,211.12L399.11,217.25L399.82,225.17L400.53,193.75L401.24,197.07L401.95,205.37L403.38,207.16L404.09,205.37L404.8,209.59L405.51,187.24L406.22,186.09L406.93,186.6L409.07,202.18L409.78,243.18L410.49,216.23L411.2,220.57L411.91,233.6L412.63,213.04L413.34,214.7L414.05,211.89L415.47,215.98L416.18,230.66L416.89,134.99L417.61,144.96L418.32,143.17L419.03,156.58L419.74,114.3L420.45,127.33L421.16,137.04L421.87,132.95L422.59,140.61L423.3,139.08L424.72,154.66L425.43,174.33L426.85,237.82L427.57,247.4L429.7,212.53L430.41,214.06L431.12,215.46L431.83,214.31L433.97,237.18L434.68,234.75L435.39,242.29L436.1,229.77L436.81,208.82L437.53,220.32L438.95,242.03L439.66,209.08L441.08,234.24L441.79,148.79L442.51,148.92L443.22,156.07L445.35,179.44L446.06,180.72L446.77,202.05L447.48,159.64L448.2,162.71L448.91,170.63L449.62,185.83L450.33,179.57L451.75,145.59L452.46,149.3L453.18,151.85L453.89,149.3L455.31,167.18L456.02,165.65L457.44,183.79L458.16,132.95L458.87,129.76L459.58,133.33L463.14,156.83L463.85,167.18L464.56,175.74L465.27,156.45L465.98,155.94L466.69,169.1L467.4,177.91L468.12,155.69L472.38,217.89L473.1,199.5L473.81,211.12L474.52,175.87L475.23,192.6L475.94,147.51L476.65,146.11L477.36,155.3L478.08,156.07L478.79,164.88L479.5,166.54L480.21,175.36L480.92,143.68L481.63,158.11L482.34,126.56L483.06,129.5L485.19,140.49L485.9,148.15L487.32,123.11L488.04,126.31L488.75,129.24L489.46,137.29L491.59,148.02L492.3,158.88L494.44,176.76L495.15,178.04L495.86,191.96L496.57,131.54L498,138.44L498.71,138.44L500.84,148.15L501.55,159.64L502.26,176.38L502.98,145.59L503.69,156.32L504.4,153.9L505.11,169.74L505.82,137.16L507.24,150.45L507.96,176.25L508.67,208.31L509.38,105.61L510.8,113.66L511.51,92.84L513.65,116.85L514.36,134.86L515.07,101.4L515.78,105.61L516.49,105.61L517.2,109.06L518.63,107.15L519.34,108.93L520.05,107.66L520.76,118.77L522.9,137.93L523.61,147.51L524.32,151.09L525.03,170.37L525.74,131.16L526.45,147.64L527.16,104.21L527.88,110.72L528.59,121.33L529.3,120.56L531.43,139.72L532.14,152.62L532.86,145.34L533.57,163.99L534.28,168.2L534.99,149.17L535.7,155.17L536.41,151.85L537.84,165.14L538.55,143.93L539.26,155.69L539.97,122.35L542.82,165.14L543.53,162.71L544.24,183.79L544.95,129.76L545.66,92.84L546.37,98.33L547.08,98.21L547.8,104.34L548.51,107.91L549.22,117.24L550.64,132.57L551.35,144.96L552.06,144.7L552.78,162.33L554.2,92.07L554.91,97.95L555.62,102.93L556.33,101.02L558.47,115.19L559.18,124.65L559.89,142.15L560.6,105.1L562.02,118.9L562.74,124.52L563.45,133.2L564.16,97.06L566.29,138.19L567,107.91L569.14,137.04L569.85,152.24L570.56,102.04L571.27,118L572.7,128.99L573.41,143.04L574.12,72.02L574.83,75.6L575.54,79.68L576.96,105.1L577.68,117.37L578.39,115.19L579.1,118.51L581.23,154.15L581.94,143.3L582.66,168.33L583.37,128.48L584.08,137.55L584.79,132.95L586.21,154.79L586.92,166.03L587.64,165.01L588.35,165.65L589.06,163.6L589.77,180.59L590.48,207.67L591.19,133.72L591.9,131.29L592.62,146.23L593.33,110.72L594.04,112.13L594.75,119.41L595.46,124.39L596.17,136.91L597.6,152.49L598.31,149.68L599.02,159.64L599.73,123.37L603.29,157.47L604,158.62L604.71,180.08L605.42,149.81L607.56,176.63L608.27,157.73L608.98,119.28L609.69,120.18L610.4,129.24L611.11,107.15L611.82,110.47L613.96,139.85L614.67,99.48L616.8,120.81L617.52,140.36L618.23,148.53L618.94,124.52L619.65,141.76L620.36,107.91L621.07,103.7L621.78,112.26L622.49,113.92L623.21,121.45L623.92,133.84L624.63,102.29L625.34,101.4L626.05,115.45L626.76,96.67L627.47,99.23L629.61,111.87L630.32,114.17L632.45,149.55L633.17,149.43L633.88,156.71L634.59,157.09L635.3,168.33L636.72,143.42L637.43,108.3L638.15,110.08L638.86,115.96L639.57,114.81L640.28,116.85L641.7,129.24L642.41,128.22L643.13,129.5L643.84,142.78L644.55,156.58L645.26,130.14L645.97,129.37L646.68,136.78L647.39,112.77L648.11,115.83L649.53,124.9L650.24,125.92L650.95,126.69L651.66,132.31L652.37,146.87L653.09,144.06L654.51,170.37L655.22,162.46L655.93,164.88L656.64,137.67L658.07,142.91L658.78,142.15L660.91,150.58L661.62,160.03L663.76,184.04L664.47,202.31L665.18,200.78L665.89,220.06L667.31,185.32L668.03,181.36L668.74,184.43L669.45,183.02L670.16,193.88L670.87,152.75L671.58,148.53L672.29,158.5L673.01,156.2L673.72,160.03L674.43,162.07L675.14,121.58L675.85,126.18L676.56,138.06L680.12,166.29L680.83,139.46L681.54,140.87L682.25,144.83L683.68,159.39L684.39,163.99L685.1,147L685.81,157.86L686.52,164.37L687.23,179.19L687.95,178.42L688.66,186.85L689.37,246.38L690.08,131.03L690.79,101.65L691.5,103.95L692.21,103.7L692.93,107.02L695.06,114.17L695.77,115.07L696.48,118L697.19,125.8L697.91,124.14L698.62,139.72L699.33,145.21L700.04,164.75L700.75,122.86L701.46,131.16L702.17,129.5L702.89,134.23L703.6,136.78L704.31,146.11L705.02,153.77L705.73,177.53L706.44,143.17L707.15,151.73L707.87,152.36L708.58,161.56L709.29,179.95L710,134.74" style="vector-effect: none; fill: none; stroke: rgb(44, 160, 44); stroke-opacity: 1; stroke-width: 2px; opacity: 1;"/></g><g class="points"/><g class="text"/></g><g class="trace scatter trace4accc3" style="stroke-miterlimit: 2; opacity: 1;"><g class="fills"/><g class="errorbars"/><g class="lines"><path class="js-line" d="M0,108.3L1.42,111.87L2.13,109.19L4.98,134.23L5.69,132.18L6.4,137.29L7.11,105.61L8.54,112.77L9.25,111.62L9.96,114.17L10.67,120.69L11.38,123.37L12.09,134.1L13.52,154.66L14.23,115.83L15.65,134.99L16.36,133.08L17.07,131.8L17.79,135.25L19.21,136.53L19.92,138.82L20.63,159.13L21.34,157.09L22.05,158.5L22.77,171.91L24.19,191.83L24.9,171.27L25.61,131.67L26.32,145.47L27.03,123.11L27.75,130.78L28.46,130.65L29.17,140.36L30.59,155.17L31.3,180.47L32.01,195.54L32.73,149.43L34.15,152.88L34.86,162.33L36.28,185.32L36.99,196.18L37.71,150.07L38.42,150.32L39.13,146.87L40.55,163.35L41.26,162.46L41.97,170.37L42.69,159.26L43.4,166.41L44.11,139.34L44.82,136.91L45.53,138.19L46.95,137.67L47.67,149.43L49.8,181.23L50.51,161.82L51.93,133.84L52.65,136.91L53.36,136.53L54.07,142.4L54.78,145.72L55.49,90.54L56.2,94.37L56.91,103.7L59.05,120.3L59.76,108.42L60.47,109.7L61.18,109.06L62.61,126.69L63.32,127.58L64.03,137.93L64.74,113.15L65.45,117.24L66.16,98.72L67.59,105.61L68.3,104.72L70.43,123.62L71.14,131.54L71.85,111.23L72.57,117.88L73.28,122.47L73.99,132.31L74.7,135.63L75.41,143.3L76.12,149.55L76.83,108.93L77.55,106L78.26,114.17L78.97,116.22L79.68,125.03L81.1,128.35L81.81,137.55L83.24,152.75L83.95,151.73L84.66,170.25L85.37,155.17L86.08,170.76L86.79,137.04L88.22,142.4L88.93,110.6L89.64,110.47L90.35,119.15L91.77,116.47L92.48,121.07L93.91,130.14L94.62,132.44L96.04,146.11L96.75,119.03L97.46,126.43L98.18,125.54L98.89,130.27L99.6,140.1L100.31,149.43L101.02,121.96L103.87,151.47L104.58,150.07L105.29,162.46L106,118.26L107.42,119.03L108.14,126.82L108.85,104.21L109.56,112.77L110.27,117.24L110.98,112.51L114.54,146.74L115.25,163.09L115.96,122.47L116.67,122.99L117.38,122.86L118.1,125.28L118.81,122.73L119.52,138.44L120.23,118.26L121.65,128.09L122.36,105.23L123.79,106.12L124.5,117.49L125.92,131.03L126.63,130.65L127.34,133.97L128.06,145.85L130.19,168.2L130.9,131.16L131.61,131.67L132.32,147.77L133.04,149.94L133.75,148.4L135.17,157.6L135.88,157.73L136.59,161.82L137.3,159.9L138.02,173.06L138.73,142.91L139.44,149.81L140.15,145.34L143,186.47L143.71,141.25L145.84,151.09L146.55,170.12L147.26,125.8L147.98,133.33L149.4,145.98L150.11,153.77L152.24,173.06L152.96,156.83L153.67,157.86L154.38,165.01L155.09,169.48L155.8,180.59L156.51,185.83L157.22,210.1L157.94,145.47L158.65,154.41L160.07,180.59L160.78,161.94L162.2,117.49L162.92,128.22L164.34,181.62L165.05,180.34L165.76,180.47L166.47,190.94L167.18,130.65L167.9,133.08L168.61,138.44L169.32,136.91L170.03,144.7L171.45,154.54L172.16,150.32L172.88,158.75L173.59,156.71L175.72,178.68L176.43,174.33L179.28,189.41L179.99,189.28L181.41,193.11L182.12,198.86L183.55,200.9L184.26,205.76L184.97,182.76L185.68,183.66L186.39,182.38L187.82,186.6L188.53,193.75L189.24,190.56L189.95,198.22L192.08,137.04L192.8,140.74L193.51,134.1L194.22,141.51L194.93,141.25L195.64,150.45L196.35,149.17L197.06,149.55L198.49,159.77L199.2,159.77L199.91,157.73L200.62,163.22L202.04,174.46L202.76,174.59L203.47,174.21L204.18,183.28L205.6,199.75L206.31,200.65L207.74,199.88L208.45,198.22L209.87,214.7L210.58,190.56L211.29,177.14L212,180.59L212.72,176.38L213.43,182.38L214.14,176.25L214.85,180.59L217.7,193.49L218.41,164.63L219.83,168.97L220.54,172.8L221.25,176.89L221.96,100.89L222.68,102.29L223.39,105.49L224.1,103.44L224.81,107.02L226.23,122.47L226.94,121.71L231.21,177.27L231.92,185.96L232.64,193.49L233.35,189.92L234.06,200.01L234.77,167.82L235.48,169.1L236.19,166.93L236.9,171.01L237.62,167.18L238.33,167.82L239.04,167.05L241.88,187.24L242.6,196.94L243.31,195.67L244.02,213.68L244.73,191.07L245.44,216.61L246.86,148.28L247.58,147.89L248.29,148.92L249,147L250.42,147.77L251.13,150.32L252.56,168.46L253.27,115.7L254.69,128.61L255.4,137.8L256.11,140.87L256.82,155.81L257.54,130.39L258.25,134.35L258.96,135.63L259.67,139.08L260.38,138.31L261.09,146.49L261.8,113.66L262.52,126.43L263.23,123.62L263.94,141.89L266.07,162.97L266.78,159.13L268.21,162.33L268.92,170.25L269.63,133.97L270.34,137.55L271.05,150.07L271.76,113.92L273.19,121.71L273.9,132.69L274.61,145.72L275.32,104.46L278.17,129.5L278.88,131.16L279.59,130.39L280.3,143.68L281.01,163.86L281.72,127.2L283.15,154.79L283.86,123.62L284.57,125.28L285.28,122.47L286.7,133.08L287.41,138.57L288.13,139.21L288.84,143.04L293.11,192.34L293.82,165.01L294.53,172.55L295.24,171.91L295.95,177.4L296.66,195.67L297.37,170.5L298.09,189.41L300.22,92.2L300.93,93.1L301.64,96.16L302.35,95.78L303.07,96.42L303.78,97.18L304.49,101.4L305.2,104.46L305.91,101.53L307.33,108.04L308.05,115.7L309.47,128.99L310.18,141.12L311.6,112.51L312.31,117.24L313.03,125.8L313.74,125.67L314.45,130.01L315.87,156.32L316.58,118.39L318.01,133.2L318.72,136.53L319.43,124.65L320.14,126.69L321.56,131.67L322.27,138.19L322.99,147.13L323.7,118.64L325.12,134.61L325.83,139.08L327.25,144.7L327.97,164.75L328.68,145.47L329.39,154.66L330.81,168.08L331.52,127.07L332.23,127.97L332.95,139.59L334.37,112.77L335.08,119.15L335.79,126.69L336.5,120.81L338.64,138.31L339.35,127.33L341.48,148.28L342.19,116.34L342.91,117.24L343.62,134.35L344.33,137.16L345.04,156.83L345.75,139.46L346.46,141.38L347.17,144.32L347.89,156.2L349.31,171.78L350.02,194.77L350.73,154.92L351.44,167.44L354.29,195.41L355,183.79L355.71,99.74L356.42,101.53L357.13,100.12L357.85,95.78L358.56,97.31L359.27,97.06L359.98,98.08L360.69,99.48L361.4,105.49L362.11,106.25L362.83,118.39L363.54,121.45L364.25,133.59L365.67,150.83L366.38,132.82L367.09,112.77L367.81,119.15L368.52,122.47L369.23,138.31L369.94,139.34L370.65,155.69L371.36,127.71L372.07,129.88L373.5,146.62L374.21,147.89L375.63,165.27L376.34,161.69L377.77,170.12L378.48,192.86L379.19,154.92L379.9,155.43L380.61,167.05L381.32,175.23L382.03,172.55L383.46,182.76L384.17,182.64L384.88,188.64L385.59,210.1L387.01,148.15L387.73,159.13L389.15,166.41L389.86,177.78L391.99,214.06L392.71,170.12L393.42,188.9L394.13,183.66L394.84,191.71L395.55,151.85L396.26,148.28L396.97,157.09L397.69,158.11L398.4,164.24L399.11,160.54L399.82,165.39L401.24,172.42L401.95,128.73L402.67,128.99L403.38,133.2L404.09,134.86L404.8,141.51L405.51,144.44L406.22,157.47L406.93,160.03L407.65,119.41L409.07,130.78L409.78,134.74L410.49,135.76L411.2,148.28L411.91,120.69L412.63,126.31L413.34,124.39L414.05,133.72L416.89,150.96L417.61,162.33L418.32,122.99L419.03,129.37L419.74,129.88L420.45,141L422.59,168.71L423.3,168.46L424.01,189.02L424.72,134.99L425.43,147.13L426.14,141.51L426.85,152.62L427.57,115.58L428.99,121.07L429.7,130.78L430.41,128.86L431.12,132.31L434.68,191.71L435.39,189.53L436.1,214.44L436.81,175.99L437.53,155.43L438.24,157.86L438.95,153.13L439.66,157.6L441.08,161.43L441.79,175.99L442.51,179.32L443.22,192.22L444.64,205.37L445.35,180.21L446.06,180.98L446.77,188.9L447.48,167.56L448.2,175.61L451.04,190.05L451.75,197.96L452.46,206.91L453.18,175.48L453.89,181.23L454.6,197.2L455.31,197.84L456.02,206.14L457.44,229.9L458.16,195.67L460.29,204.22L461,203.33L461.71,202.82L462.42,205.5L463.14,206.78L463.85,219.81L464.56,182L465.27,191.83L465.98,190.17L466.69,194.39L467.4,203.2L468.12,166.03L469.54,180.98L470.25,176.25L470.96,182.25L471.67,176.89L473.1,186.98L473.81,187.24L475.23,200.26L475.94,174.21L478.08,203.2L478.79,174.08L479.5,172.8L480.21,173.95L480.92,172.16L481.63,175.23L483.06,176.76L483.77,183.66L485.9,209.21L486.61,219.04L487.32,218.66L488.04,217L488.75,240.76L489.46,178.55L490.17,190.05L490.88,131.93L491.59,134.74L492.3,144.44L494.44,171.65L495.15,115.58L496.57,124.26L497.28,123.62L500.84,141L501.55,140.61L502.98,157.09L503.69,137.55L504.4,144.96L505.11,141.76L507.24,164.5L507.96,184.94L511.51,218.91L512.22,186.34L512.94,197.58L513.65,155.3L514.36,168.59L515.07,129.88L515.78,129.76L516.49,131.42L517.2,129.88L517.92,132.57L520.05,141.89L520.76,143.68L522.18,154.92L522.9,119.79L524.32,129.5L525.03,128.86L527.16,154.15L527.88,123.88L529.3,130.65L530.01,132.82L531.43,143.68L532.14,150.58L533.57,171.52L534.28,171.01L534.99,180.59L535.7,175.99L536.41,175.48L537.12,185.19L537.84,175.48L538.55,139.85L539.97,150.96L540.68,151.73L541.39,157.47L542.1,148.79L542.82,151.21L543.53,156.58L544.24,163.48L544.95,178.04L545.66,149.55L546.37,156.58L547.08,157.73L547.8,156.96L548.51,157.09L549.22,171.91L549.93,171.27L550.64,174.21L553.49,193.24L554.2,220.45L554.91,145.72L555.62,146.87L556.33,149.3L557.76,160.54L558.47,158.37L559.18,158.5L559.89,168.33L561.31,193.37L562.02,141.12L562.74,140.87L563.45,145.21L564.16,151.21L564.87,163.99L565.58,177.4L566.29,175.99L567.72,191.96L568.43,187.75L569.14,196.05L569.85,177.78L570.56,185.7L571.27,218.53L571.98,219.68L572.7,189.92L573.41,207.54L574.12,168.97L576.25,114.04L576.96,122.09L577.68,116.85L578.39,118.39L579.1,123.5L579.81,135.38L580.52,136.65L581.23,147.25L581.94,147.77L582.66,159.9L583.37,175.36L584.08,131.42L584.79,127.46L585.5,130.14L586.92,133.08L587.64,140.1L589.06,148.15L589.77,158.88L590.48,174.59L591.19,149.68L591.9,148.53L592.62,155.56L594.04,159.64L594.75,174.97L595.46,177.4L596.17,187.24L596.88,201.92L597.6,164.37L598.31,163.6L599.02,167.56L600.44,182.64L601.15,184.68L603.29,209.46L604,178.17L605.42,205.88L606.13,166.03L606.84,165.65L607.56,171.52L608.27,180.08L608.98,153.39L611.82,169.99L612.54,174.33L613.25,176.38L613.96,184.94L614.67,196.69L615.38,167.18L616.09,167.44L616.8,173.31L617.52,177.14L618.23,148.02L618.94,146.23L619.65,157.6L620.36,158.11L621.07,164.75L622.49,171.52L623.21,172.93L624.63,180.34L625.34,177.66L626.05,188.38L626.76,162.97L628.19,173.7L628.9,172.16L630.32,183.91L631.03,195.03L631.74,152.36L632.45,158.5L635.3,175.36L636.01,183.4L636.72,164.12L637.43,177.27L638.15,174.33L638.86,177.4L639.57,189.79L640.28,149.55L640.99,146.87L641.7,156.58L642.41,154.28L643.13,158.37L643.84,154.28L644.55,158.62L645.26,158.62L645.97,161.69L646.68,160.41L647.39,166.29L648.11,169.1L648.82,167.56L649.53,183.15L650.24,140.61L651.66,160.79L652.37,138.7L653.09,134.99L653.8,142.15L654.51,145.08L655.22,153.77L656.64,156.71L657.35,162.33L658.07,166.54L658.78,166.16L660.91,188.51L661.62,194.01L662.33,214.57L663.05,154.92L664.47,161.94L665.18,175.48L665.89,176.63L666.6,186.6L668.74,196.56L669.45,164.63L670.16,161.56L670.87,166.54L671.58,183.91L672.29,139.59L673.01,137.29L673.72,139.21L675.14,148.02L675.85,154.28L677.99,176.76L678.7,159.26L679.41,152.88L680.12,154.66L680.83,158.11L681.54,132.18L682.97,136.4L683.68,141.76L687.23,178.42L687.95,169.61L688.66,173.7L689.37,185.32L690.79,167.56L691.5,167.56L692.21,169.22L692.93,180.85L693.64,148.4L694.35,150.45L695.06,152.11L695.77,151.34L697.19,151.85L697.91,153.77L700.75,181.49L701.46,200.52L702.89,139.21L703.6,139.21L704.31,146.36L705.02,145.21L707.15,154.15L707.87,149.55L710,187.11" style="vector-effect: none; fill: none; stroke: rgb(214, 39, 40); stroke-opacity: 1; stroke-width: 2px; opacity: 1;"/></g><g class="points"/><g class="text"/></g><g class="trace scatter trace48e71d" style="stroke-miterlimit: 2; opacity: 1;"><g class="fills"/><g class="errorbars"/><g class="lines"><path class="js-line" d="M0,102.42L0.71,104.34L1.42,103.7L2.13,104.85L2.85,102.17L7.83,120.69L8.54,128.73L9.25,125.54L9.96,132.82L11.38,150.96L12.09,119.15L14.23,135.63L14.94,143.93L16.36,158.11L17.07,158.75L17.79,161.94L18.5,172.16L19.92,125.16L20.63,145.98L21.34,149.3L22.05,148.28L24.19,176.12L24.9,159.26L25.61,115.07L26.32,124.52L27.03,129.88L27.75,95.14L29.17,93.22L29.88,94.76L30.59,92.97L31.3,98.21L33.44,117.62L34.15,119.66L34.86,125.28L35.57,140.49L36.28,145.98L36.99,161.31L38.42,177.66L39.13,184.3L39.84,152.24L40.55,161.94L41.26,129.88L41.97,139.08L42.69,155.43L43.4,146.49L44.11,112.26L44.82,124.14L46.24,132.95L46.95,135.63L48.38,147.51L49.09,154.79L49.8,115.96L50.51,119.66L51.93,114.81L52.65,120.56L53.36,118.77L54.07,119.28L54.78,122.09L55.49,128.73L56.2,123.11L56.91,127.2L57.63,143.68L58.34,106.64L59.76,123.88L60.47,129.76L61.18,129.37L61.89,142.53L63.32,129.37L64.03,144.96L64.74,124.65L65.45,129.88L66.16,130.14L66.87,131.54L67.59,136.65L68.3,134.61L69.01,142.15L69.72,116.98L72.57,133.46L73.28,145.34L73.99,154.02L74.7,97.57L75.41,96.67L76.12,104.21L76.83,113.41L77.55,112.26L78.26,125.8L78.97,116.98L79.68,120.05L80.39,119.66L81.1,121.58L81.81,129.63L82.53,129.63L83.24,134.86L83.95,141L84.66,124.26L85.37,118.39L86.08,118.9L87.51,124.01L88.22,131.42L88.93,129.24L89.64,130.01L90.35,133.2L91.06,143.55L91.77,115.96L92.48,116.22L93.2,115.96L95.33,134.61L96.04,138.82L98.18,172.55L98.89,173.82L99.6,176.38L100.31,154.02L101.73,87.86L102.44,94.37L103.87,104.46L104.58,109.96L105.29,110.21L106,117.37L106.71,123.37L107.42,137.04L108.85,104.85L109.56,112.26L110.98,109.83L111.69,120.3L113.12,128.22L113.83,143.93L115.96,159.13L116.67,172.29L117.38,188.26L118.1,126.56L118.81,131.8L119.52,143.93L120.94,95.27L121.65,98.33L122.36,95.27L123.08,97.69L125.21,110.98L125.92,112.13L126.63,111.23L127.34,118.13L130.9,132.31L131.61,130.01L132.32,148.79L133.04,132.57L133.75,134.86L134.46,99.74L135.88,118L136.59,112L137.3,109.7L138.02,118.64L139.44,134.99L140.15,144.44L143,187.49L143.71,155.56L144.42,169.48L145.13,123.88L145.84,123.5L146.55,126.31L148.69,145.08L149.4,153.26L151.53,89.52L152.24,98.21L155.09,126.95L155.8,104.46L156.51,103.57L157.22,107.02L157.94,111.75L158.65,124.14L159.36,132.31L160.07,96.16L160.78,99.36L161.49,115.7L162.92,92.97L163.63,91.31L164.34,96.67L165.05,108.42L165.76,103.44L166.47,107.4L167.18,112.26L167.9,127.33L168.61,130.91L169.32,116.22L170.03,110.85L170.74,115.58L171.45,120.05L172.16,118.13L173.59,132.69L174.3,140.61L175.01,139.08L175.72,149.94L176.43,145.72L177.14,156.96L178.57,177.27L179.28,153.64L180.7,104.21L181.41,112L185.68,140.74L186.39,154.66L187.1,118.26L187.82,121.71L188.53,112.77L189.24,116.98L189.95,119.15L190.66,124.26L191.37,124.14L192.08,129.88L193.51,100.5L194.22,98.72L196.35,132.05L197.06,114.43L199.2,136.14L199.91,111.87L200.62,109.57L201.33,123.11L202.04,119.54L202.76,124.65L203.47,118.51L204.18,133.08L206.31,153.39L207.02,163.48L207.74,160.79L208.45,165.27L209.16,167.44L209.87,149.94L210.58,157.35L211.29,122.09L212,129.76L212.72,125.16L213.43,126.43L214.14,125.54L214.85,128.61L215.56,148.4L216.27,113.53L216.98,119.03L217.7,112.89L218.41,120.3L219.12,126.05L219.83,125.67L220.54,126.31L221.25,142.27L221.96,106.38L222.68,107.27L223.39,108.04L224.1,106L224.81,114.94L225.52,117.24L226.23,115.58L226.94,114.68L227.66,125.67L231.21,166.29L231.92,133.33L233.35,154.41L234.06,157.35L234.77,157.47L235.48,164.88L236.19,171.52L236.9,171.01L237.62,164.75L238.33,171.4L239.75,187.24L240.46,194.9L241.17,192.98L241.88,206.14L244.02,107.91L244.73,117.11L245.44,118L246.15,112.38L247.58,128.61L248.29,95.01L249.71,91.95L250.42,99.48L251.13,111.87L251.84,109.45L253.27,109.96L253.98,123.88L254.69,122.6L255.4,123.62L256.11,126.82L256.82,138.7L257.54,120.56L258.25,123.24L258.96,123.62L259.67,125.92L261.09,128.22L261.8,136.14L263.23,152.11L263.94,164.88L265.36,136.53L266.07,147.77L267.49,151.47L268.21,148.53L268.92,149.3L269.63,153.9L270.34,171.78L271.05,130.91L271.76,131.16L272.47,139.34L274.61,141.38L275.32,147L276.03,146.74L276.74,164.24L277.45,135.12L278.17,143.55L278.88,151.73L279.59,150.19L280.3,165.01L281.01,89.65L283.86,86.07L284.57,92.97L285.28,93.86L285.99,102.29L286.7,106.89L287.41,116.47L288.13,126.43L288.84,125.67L290.26,154.02L290.97,118.64L293.11,126.95L293.82,135.38L294.53,135.63L295.24,143.68L295.95,148.02L296.66,168.59L297.37,117.49L298.09,130.39L299.51,130.52L300.22,138.57L300.93,141L301.64,149.55L302.35,150.96L303.07,156.96L303.78,157.47L304.49,166.16L305.91,174.46L306.62,141L307.33,101.27L308.05,108.04L309.47,129.76L310.18,105.87L311.6,82.75L312.31,88.75L313.03,85.94L313.74,90.03L315.16,100.89L315.87,111.23L317.29,128.61L318.01,98.97L320.14,107.15L320.85,119.92L321.56,107.66L322.27,108.93L325.12,125.03L325.83,124.26L326.54,128.22L327.25,138.19L327.97,154.15L328.68,113.28L330.1,128.09L330.81,139.46L331.52,148.53L332.23,113.28L334.37,155.56L335.08,134.48L335.79,139.72L336.5,137.93L337.21,148.02L337.93,124.9L338.64,124.77L339.35,138.31L340.06,147.13L340.77,146.62L341.48,145.98L343.62,161.05L344.33,173.31L345.04,174.97L345.75,143.04L347.17,162.97L347.89,127.58L350.02,144.19L350.73,152.49L351.44,154.02L352.15,150.45L352.87,152.11L353.58,158.11L354.29,163.09L355,134.74L355.71,138.44L356.42,134.86L358.56,160.54L359.27,127.07L359.98,124.01L360.69,126.69L362.11,145.34L362.83,145.08L365.67,179.7L366.38,160.16L367.09,168.59L367.81,158.24L368.52,167.31L369.23,141.12L373.5,167.82L374.21,135.5L374.92,136.01L375.63,140.23L377.05,134.35L377.77,145.98L378.48,155.3L379.19,109.06L380.61,110.6L381.32,107.91L382.03,114.56L382.75,112.64L383.46,110.6L384.17,112.51L384.88,120.18L385.59,114.17L386.3,114.94L387.01,121.07L388.44,134.1L389.15,113.66L389.86,120.69L390.57,136.01L391.28,136.14L391.99,147.13L395.55,175.36L396.26,178.17L396.97,207.42L397.69,170.76L398.4,141L399.11,144.06L400.53,164.24L401.24,169.35L401.95,146.74L402.67,157.47L403.38,159.13L404.09,168.46L405.51,164.24L406.22,171.78L406.93,171.14L407.65,177.14L408.36,182.38L409.07,143.3L410.49,100.38L411.2,96.93L411.91,98.33L412.63,105.74L414.05,111.11L414.76,110.47L416.89,126.05L417.61,150.83L419.74,169.48L420.45,192.47L421.16,153.39L421.87,156.83L422.59,168.71L423.3,166.29L424.01,175.23L424.72,137.42L425.43,151.47L426.14,116.98L427.57,125.67L428.28,127.07L428.99,122.09L429.7,124.26L431.12,131.67L431.83,126.56L432.55,146.87L433.26,145.47L435.39,161.31L436.1,159.64L437.53,198.22L438.24,129.37L438.95,130.01L439.66,126.95L440.37,128.48L441.08,137.04L442.51,143.04L443.22,155.94L444.64,166.93L445.35,163.99L446.06,165.27L446.77,164.63L448.2,164.37L448.91,184.81L449.62,98.97L450.33,110.34L451.75,120.69L452.46,124.01L453.89,132.18L454.6,145.85L456.02,155.69L456.73,161.18L457.44,160.92L458.16,166.41L460.29,199.24L461,169.35L461.71,167.18L462.42,176.63L463.14,143.3L463.85,150.58L464.56,151.98L465.27,160.28L465.98,165.78L466.69,185.06L467.4,153.51L468.12,158.5L468.83,176.12L469.54,152.36L470.96,128.35L471.67,130.78L472.38,129.12L473.1,130.14L474.52,137.8L475.23,141.38L475.94,142.78L476.65,148.66L477.36,143.55L478.08,144.32L479.5,154.66L480.21,171.27L480.92,97.95L481.63,99.48L482.34,97.95L484.48,109.83L485.19,105.87L488.04,134.1L488.75,154.92L489.46,116.73L490.17,130.39L490.88,128.73L491.59,135.89L492.3,132.95L493.02,136.01L493.73,129.63L494.44,133.46L495.15,137.29L495.86,145.85L496.57,114.17L497.28,117.24L498,124.01L498.71,103.57L499.42,99.87L500.13,105.1L500.84,111.49L501.55,107.91L502.26,113.41L502.98,125.8L505.11,138.19L505.82,151.34L506.53,122.99L507.24,126.56L507.96,128.99L508.67,128.48L510.8,146.49L511.51,157.6L512.94,177.14L513.65,142.02L515.07,164.75L515.78,168.2L516.49,175.87L517.2,196.69L517.92,195.28L518.63,203.07L519.34,204.99L520.05,212.02L520.76,222.75L521.47,176.51L522.9,185.96L523.61,192.6L524.32,191.45L525.03,195.92L525.74,168.2L526.45,171.78L529.3,196.56L530.01,181.62L530.72,191.58L531.43,189.66L532.14,191.32L532.86,199.88L533.57,172.16L534.28,172.42L534.99,170.89L535.7,172.67L536.41,178.55L537.12,184.04L537.84,179.57L539.26,198.73L539.97,199.88L540.68,209.97L541.39,180.08L542.1,180.34L542.82,184.81L543.53,184.43L544.24,186.47L544.95,196.43L545.66,195.54L547.08,206.91L547.8,215.85L549.22,242.93L549.93,175.36L550.64,173.7L551.35,179.44L552.06,130.52L552.78,132.44L553.49,132.57L554.2,131.93L554.91,135.38L557.04,149.43L557.76,162.07L558.47,161.94L559.18,163.35L561.31,196.69L562.02,195.28L563.45,225.3L564.16,198.73L564.87,164.75L565.58,170.5L567,139.08L567.72,144.32L568.43,143.81L569.14,147.38L569.85,150.45L570.56,148.79L571.27,159.26L571.98,157.73L572.7,154.54L573.41,168.84L575.54,187.24L576.25,191.58L576.96,191.07L577.68,192.98L578.39,195.03L579.1,202.95L579.81,201.41L580.52,202.69L581.94,211.76L582.66,224.66L583.37,173.31L584.08,184.43L584.79,183.79L585.5,200.52L586.21,176.12L586.92,176.25L587.64,185.57L588.35,156.83L589.06,157.86L589.77,160.03L590.48,153.9L591.19,156.58L592.62,162.07L593.33,161.94L594.04,162.84L594.75,170.5L596.17,167.44L596.88,177.78L597.6,179.19L598.31,177.4L599.02,182.76L599.73,198.09L603.29,228.49L604,191.32L604.71,197.84L605.42,164.5L606.84,178.93L607.56,167.82L608.27,178.93L608.98,177.14L609.69,177.78L610.4,176.12L611.11,175.74L611.82,179.83L612.54,178.29L613.25,191.32L613.96,195.67L614.67,246.63L615.38,194.77L616.09,200.9L616.8,200.78L617.52,212.78L618.23,214.31L618.94,222.23L620.36,240.5L621.07,177.78L621.78,176.12L622.49,178.17L623.21,176.89L623.92,179.19L624.63,180.85L625.34,180.34L626.05,181.49L626.76,180.72L628.19,188.38L628.9,189.15L630.32,204.99L631.03,208.06L632.45,224.66L633.17,220.83L633.88,236.92L634.59,185.45L635.3,187.24L636.01,186.6L636.72,184.04L637.43,185.7L638.15,186.21L638.86,183.28L639.57,185.57L640.28,183.15L640.99,183.91L641.7,186.09L643.13,191.83L643.84,191.2L644.55,189.79L645.26,193.11L645.97,195.67L646.68,202.69L647.39,201.29L648.11,209.72L648.82,214.44L649.53,190.3L650.95,205.63L651.66,176.51L652.37,174.33L653.09,177.91L653.8,180.08L654.51,179.32L655.93,187.75L656.64,186.85L657.35,189.92L658.07,198.48L658.78,208.95L659.49,167.05L660.91,162.84L661.62,165.39L662.33,166.93L663.05,172.42L665.18,168.33L665.89,174.59L666.6,182.64L667.31,182L668.03,179.95L668.74,185.06L669.45,186.21L670.16,196.43L670.87,166.41L671.58,171.27L672.29,169.99L673.01,171.27L673.72,169.48L674.43,174.33L675.14,177.78L675.85,174.59L677.27,190.68L677.99,188.38L679.41,192.09L680.12,191.58L680.83,196.3L681.54,186.47L682.25,187.11L682.97,185.83L683.68,201.16L684.39,177.91L685.1,177.66L685.81,191.71L686.52,196.43L687.23,196.05L690.08,223.64L690.79,238.07L691.5,208.95L692.21,219.3L692.93,183.53L693.64,185.7L694.35,189.02L695.06,188.38L695.77,185.83L696.48,188L697.19,197.58L697.91,166.03L698.62,165.65L699.33,167.05L700.04,167.05L700.75,175.61L701.46,178.55L702.17,189.79L702.89,191.32L703.6,195.67L705.02,156.71L705.73,158.5L707.15,169.86L707.87,169.74L709.29,186.09L710,198.99" style="vector-effect: none; fill: none; stroke: rgb(148, 103, 189); stroke-opacity: 1; stroke-width: 2px; opacity: 1;"/></g><g class="points"/><g class="text"/></g><g class="trace scatter tracede697c" style="stroke-miterlimit: 2; opacity: 1;"><g class="fills"/><g class="errorbars"/><g class="lines"><path class="js-line" d="M0,113.41L0.71,114.81L1.42,119.66L2.13,116.47L2.85,123.11L4.98,136.4L5.69,133.46L7.11,138.82L7.83,145.85L8.54,160.67L9.25,134.74L9.96,128.86L10.67,129.88L11.38,139.85L12.09,102.42L12.81,107.27L13.52,102.8L15.65,127.2L16.36,125.41L18.5,137.04L19.21,136.65L19.92,140.87L20.63,163.22L21.34,163.48L22.05,167.44L24.19,217.12L24.9,164.12L25.61,119.03L26.32,124.52L27.03,133.72L27.75,103.19L29.17,97.95L29.88,99.1L30.59,96.54L31.3,110.08L32.01,114.43L32.73,111.87L34.15,129.24L34.86,136.27L36.28,170.12L36.99,154.79L37.71,154.15L38.42,155.05L41.26,181.36L41.97,196.56L42.69,133.59L43.4,148.02L44.82,118.64L45.53,116.34L46.24,111.49L46.95,115.7L47.67,117.11L48.38,128.73L49.8,146.49L50.51,155.69L52.65,193.37L53.36,134.86L54.07,138.31L54.78,154.92L55.49,163.99L56.2,118.51L57.63,127.71L58.34,130.14L59.05,131.8L59.76,151.85L61.89,178.04L62.61,160.54L63.32,121.84L64.03,130.65L65.45,137.93L66.16,147.64L67.59,165.39L68.3,130.91L71.14,141.25L71.85,153.39L72.57,116.73L73.28,126.82L75.41,146.36L76.12,139.97L76.83,159.64L77.55,117.88L78.26,118.13L78.97,117.37L79.68,128.99L80.39,127.58L81.81,134.61L82.53,131.93L83.24,145.98L83.95,144.19L86.08,187.36L86.79,145.85L87.51,146.74L88.22,167.31L88.93,127.2L89.64,136.14L90.35,107.02L91.06,110.08L93.2,127.33L93.91,129.37L94.62,141.12L95.33,100.38L97.46,121.45L98.18,127.33L98.89,121.58L99.6,143.04L100.31,111.87L101.02,122.86L101.73,122.6L102.44,133.72L103.16,138.95L103.87,138.82L104.58,141L105.29,138.95L106,154.92L107.42,109.19L108.14,111.23L108.85,112.38L109.56,111.36L110.27,117.24L110.98,111.87L112.4,148.4L113.12,107.27L113.83,111.87L114.54,108.55L115.25,105.87L115.96,110.85L116.67,115.07L117.38,124.01L118.1,114.94L118.81,135.25L119.52,135.38L120.23,142.78L122.36,172.04L123.08,138.06L123.79,105.87L124.5,108.55L125.21,118.9L125.92,108.3L127.34,120.94L128.06,116.47L129.48,120.81L130.19,122.22L131.61,124.39L132.32,145.59L133.75,157.22L134.46,175.87L135.17,174.72L135.88,180.47L136.59,191.83L137.3,187.36L138.02,213.29L138.73,138.57L139.44,139.85L140.15,142.78L140.86,154.66L141.57,124.9L142.28,125.41L143,130.27L144.42,99.99L145.13,99.23L145.84,106.76L146.55,104.08L147.26,100.63L147.98,104.34L149.4,121.84L150.11,138.06L150.82,120.69L151.53,135.12L152.96,113.15L153.67,115.07L155.09,126.31L155.8,129.37L156.51,131.16L157.22,139.72L158.65,159.26L159.36,115.83L160.78,121.58L161.49,134.74L162.2,137.55L162.92,145.08L165.05,156.32L165.76,168.46L166.47,161.31L167.18,139.72L167.9,148.79L168.61,115.83L169.32,118.51L170.03,116.98L170.74,119.28L171.45,125.28L174.3,154.41L175.01,161.56L175.72,173.57L176.43,172.67L177.14,154.15L177.86,159.13L178.57,132.69L179.28,134.1L179.99,133.97L182.12,150.83L182.84,123.75L183.55,126.43L184.26,125.67L184.97,130.91L185.68,129.63L188.53,152.88L189.24,124.65L189.95,125.8L190.66,133.33L193.51,156.71L194.22,165.78L194.93,177.02L195.64,159.64L196.35,159.52L197.06,165.9L199.2,180.21L199.91,150.45L201.33,173.7L202.04,155.43L202.76,156.58L203.47,160.92L204.89,178.68L205.6,188.64L207.02,136.4L207.74,136.53L208.45,132.95L209.16,133.33L210.58,142.66L211.29,152.62L212.72,130.65L213.43,134.1L214.14,132.82L214.85,133.72L216.27,143.17L216.98,143.04L217.7,143.68L219.83,149.3L220.54,152.88L221.25,155.05L221.96,149.43L224.1,160.54L224.81,173.31L227.66,211.63L228.37,191.07L229.08,147.13L229.79,159.64L230.5,165.14L231.21,124.52L232.64,128.99L233.35,124.77L234.77,133.97L235.48,133.2L236.19,134.23L236.9,137.16L239.04,160.28L239.75,168.59L240.46,167.31L241.17,177.27L241.88,138.19L242.6,152.11L243.31,153.13L244.02,158.11L245.44,213.55L246.15,230.15L246.86,208.57L247.58,215.21L248.29,210.23L249,210.36L249.71,212.65L250.42,218.15L251.13,217.89L251.84,217.76L253.27,232.33L253.98,146.36L254.69,145.34L255.4,153.77L258.25,189.02L258.96,157.35L260.38,162.33L261.09,127.46L262.52,141.25L263.23,142.91L264.65,153L265.36,152.88L267.49,170.5L268.21,139.59L268.92,138.82L269.63,150.45L270.34,152.24L271.05,157.47L271.76,160.41L272.47,157.47L275.32,172.55L276.03,143.93L276.74,158.62L277.45,130.78L278.17,131.93L278.88,131.29L281.01,134.74L281.72,133.46L283.15,151.21L283.86,151.34L287.41,177.02L288.13,190.3L288.84,161.18L289.55,178.55L290.97,137.29L291.68,139.97L293.11,156.83L293.82,129.37L294.53,129.24L295.24,138.57L295.95,139.08L296.66,151.47L297.37,154.54L298.09,164.63L298.8,163.99L299.51,174.21L300.22,188.13L300.93,166.41L301.64,177.02L302.35,172.55L303.07,181.62L303.78,180.72L304.49,178.93L305.2,183.79L308.05,211.12L308.76,176.38L309.47,142.02L310.18,145.08L311.6,143.04L312.31,144.57L313.03,145.98L313.74,145.72L315.87,167.56L316.58,139.34L317.29,142.66L318.01,140.23L320.85,154.92L321.56,167.18L322.27,172.04L322.99,144.06L324.41,156.58L325.12,164.12L325.83,166.29L326.54,172.8L327.97,138.57L328.68,151.98L329.39,161.69L330.1,129.76L331.52,137.42L332.23,138.31L333.66,155.94L334.37,140.36L335.08,145.08L335.79,143.04L336.5,145.08L337.21,144.32L338.64,150.7L339.35,157.73L340.77,136.4L341.48,135.63L342.91,142.53L343.62,146.49L344.33,154.28L345.04,149.68L345.75,168.33L346.46,135.25L347.17,148.53L347.89,111.62L348.6,106.64L349.31,116.6L350.02,129.5L350.73,126.69L351.44,127.46L352.15,132.05L352.87,145.21L353.58,144.83L354.29,151.73L355,165.39L355.71,142.02L356.42,155.56L357.13,112.77L358.56,129.63L359.27,124.26L359.98,130.39L360.69,129.5L362.83,153.51L363.54,155.05L364.96,182.51L365.67,133.46L366.38,114.17L367.09,120.69L367.81,136.14L368.52,126.82L369.94,142.66L370.65,109.45L371.36,111.75L372.07,118L372.79,116.34L373.5,117.62L374.92,141L375.63,138.95L376.34,139.21L377.05,150.45L379.19,175.36L379.9,155.3L380.61,179.83L381.32,165.14L382.75,167.44L383.46,177.66L384.17,127.84L384.88,138.31L385.59,156.71L386.3,80.83L388.44,90.03L389.15,89.14L389.86,89.65L390.57,103.7L391.28,108.17L391.99,107.91L392.71,118.13L393.42,132.31L394.13,129.12L394.84,139.34L395.55,137.55L396.97,147.89L397.69,129.5L398.4,133.84L399.11,132.05L400.53,155.94L401.24,155.69L401.95,164.12L402.67,162.46L404.09,181.62L404.8,157.22L406.22,118.77L406.93,127.33L407.65,142.53L408.36,108.3L409.07,110.85L409.78,109.19L410.49,114.17L411.2,113.15L412.63,130.27L413.34,139.72L414.05,146.11L414.76,143.93L416.18,168.33L416.89,134.35L417.61,142.91L418.32,113.02L419.03,116.98L419.74,113.66L421.16,122.09L421.87,124.01L422.59,135.89L423.3,107.53L424.01,114.81L424.72,111.87L426.14,119.15L426.85,123.88L429.7,159.26L430.41,156.58L431.12,163.35L431.83,151.09L432.55,162.58L433.26,131.54L433.97,137.16L434.68,151.85L435.39,118.77L436.1,130.91L436.81,133.46L437.53,149.17L438.24,149.04L438.95,157.73L439.66,161.43L440.37,160.79L441.08,187.11L441.79,153.64L442.51,159.13L443.22,171.01L444.64,181.74L445.35,193.75L446.77,109.45L447.48,103.31L448.2,111.23L448.91,106L450.33,102.8L451.04,101.78L451.75,108.55L452.46,104.72L456.02,142.02L456.73,143.3L458.16,170.12L458.87,146.36L459.58,154.54L460.29,131.67L461,121.96L461.71,127.58L462.42,135.63L463.14,132.69L464.56,146.62L465.27,147.64L466.69,175.74L467.4,150.19L468.12,153.77L468.83,162.97L469.54,166.41L470.25,153.51L470.96,162.33L471.67,130.52L473.1,113.28L473.81,116.47L474.52,116.22L475.23,129.37L475.94,131.93L476.65,141.63L478.08,146.49L478.79,160.92L479.5,132.31L480.21,134.61L480.92,135.63L481.63,126.82L482.34,133.72L483.06,131.54L484.48,165.14L485.19,138.57L485.9,136.78L486.61,146.74L488.04,153.13L488.75,173.57L489.46,177.27L490.17,160.16L490.88,160.92L491.59,163.22L492.3,165.27L493.02,164.88L494.44,175.36L495.15,180.21L497.28,204.61L498,184.3L498.71,186.72L499.42,182.51L500.13,196.43L500.84,163.22L502.26,179.32L502.98,148.66L503.69,161.18L504.4,123.88L506.53,132.69L507.24,130.27L508.67,131.8L509.38,139.21L510.09,126.82L510.8,131.93L511.51,127.97L512.22,132.95L512.94,134.35L513.65,132.57L516.49,158.37L517.2,156.07L518.63,175.61L519.34,139.59L520.05,135.38L520.76,150.07L521.47,148.92L522.18,155.3L522.9,157.35L523.61,136.14L524.32,138.57L525.03,143.68L525.74,147.38L526.45,164.37L528.59,197.45L529.3,177.4L530.72,175.74L531.43,181.23L532.14,191.96L532.86,146.62L534.99,154.15L535.7,155.81L536.41,158.75L537.12,165.27L537.84,169.22L538.55,180.98L539.97,210.87L540.68,207.54L541.39,218.66L542.1,177.53L542.82,193.11L543.53,138.31L544.24,97.57L544.95,112L545.66,113.28L546.37,121.33L547.08,89.26L547.8,92.71L552.06,121.96L552.78,122.6L554.2,153.51L554.91,126.69L555.62,136.01L556.33,135.63L557.04,140.61L557.76,147.51L558.47,123.62L559.89,131.54L560.6,129.12L561.31,150.32L562.02,119.66L562.74,120.18L563.45,122.22L566.29,152.62L567,115.83L569.14,132.44L569.85,143.81L570.56,149.68L571.27,174.97L571.98,172.16L572.7,140.49L573.41,141.25L574.12,115.19L574.83,111.36L575.54,120.94L577.68,154.28L578.39,112.26L579.1,111.11L579.81,113.28L580.52,116.22L581.23,128.22L584.08,165.78L584.79,150.83L585.5,122.99L586.21,123.24L586.92,129.63L587.64,131.54L588.35,139.21L590.48,184.43L591.19,209.08L591.9,178.04L592.62,199.11L593.33,113.79L594.04,120.43L595.46,126.82L596.17,121.84L596.88,121.84L597.6,126.31L598.31,134.1L599.02,129.37L601.15,144.57L601.86,118.26L602.58,124.39L603.29,122.35L604,122.35L604.71,132.82L605.42,132.95L606.13,143.68L606.84,152.36L607.56,126.31L608.98,142.4L609.69,141.63L610.4,145.21L611.11,154.41L611.82,162.71L612.54,131.42L613.25,132.95L613.96,140.23L614.67,138.19L615.38,163.35L616.09,176.25L616.8,140.87L618.23,165.39L618.94,166.16L619.65,187.24L620.36,146.11L621.07,145.85L621.78,157.47L622.49,133.08L623.21,134.86L624.63,152.11L625.34,161.18L626.05,160.03L626.76,170.12L628.19,190.43L628.9,130.14L631.74,142.02L632.45,139.34L633.17,140.23L633.88,147.38L634.59,111.75L635.3,120.3L636.72,134.35L637.43,136.78L638.86,135.76L639.57,137.8L640.99,154.54L641.7,149.81L643.13,182.25L643.84,138.19L644.55,134.74L645.26,139.97L646.68,150.96L647.39,148.15L648.11,173.18L648.82,144.57L649.53,112.26L650.24,118.77L650.95,116.47L651.66,126.95L653.09,135.38L653.8,143.04L654.51,142.78L655.22,158.62L655.93,165.39L656.64,119.03L657.35,121.58L658.07,130.91L660.2,154.15L660.91,128.99L663.76,174.72L664.47,144.57L666.6,160.54L667.31,161.43L669.45,180.98L670.16,144.32L671.58,152.36L672.29,165.27L673.01,179.06L673.72,177.66L674.43,194.13L675.14,173.06L675.85,175.99L676.56,157.98L678.7,101.65L679.41,102.42L680.83,100.12L681.54,100.89L682.25,97.69L682.97,101.91L683.68,103.19L684.39,115.32L685.1,116.85L685.81,126.95L686.52,124.77L687.23,134.35L687.95,147.51L688.66,118L689.37,119.15L690.08,123.62L691.5,128.09L692.21,149.55L692.93,149.94L693.64,158.88L694.35,157.98L695.06,154.41L695.77,173.18L696.48,151.47L697.91,169.86L698.62,149.55L699.33,153.51L700.04,169.22L700.75,169.22L701.46,185.19L702.89,136.53L703.6,138.7L704.31,137.04L705.02,138.19L706.44,142.91L707.15,148.53L707.87,148.15L708.58,159.39L710,172.29" style="vector-effect: none; fill: none; stroke: rgb(140, 86, 75); stroke-opacity: 1; stroke-width: 2px; opacity: 1;"/></g><g class="points"/><g class="text"/></g><g class="trace scatter trace22e305" style="stroke-miterlimit: 2; opacity: 1;"><g class="fills"/><g class="errorbars"/><g class="lines"><path class="js-line" d="M0,108.3L1.42,111.87L2.13,109.19L4.98,134.23L5.69,132.18L6.4,137.29L7.11,102.93L11.38,134.48L12.09,148.53L13.52,107.66L14.23,123.62L15.65,155.43L16.36,151.73L17.07,152.75L17.79,157.6L18.5,161.82L19.21,132.95L19.92,133.2L20.63,153.26L22.05,149.68L22.77,163.99L24.19,181.62L24.9,161.43L25.61,118.77L26.32,135.63L27.75,153.64L28.46,119.41L29.88,145.47L30.59,145.72L32.01,173.44L32.73,179.57L34.15,148.79L34.86,159.77L36.99,182L37.71,183.53L38.42,183.28L39.13,186.6L40.55,204.35L41.26,160.54L42.69,192.86L43.4,125.03L44.82,129.37L45.53,128.22L49.8,161.69L50.51,171.14L51.93,152.49L52.65,152.36L53.36,152.11L54.07,160.79L54.78,165.01L55.49,97.18L56.91,103.7L57.63,112.64L59.05,125.16L59.76,127.2L60.47,140.1L61.18,101.27L63.32,128.09L64.03,131.29L64.74,134.48L65.45,151.85L66.87,90.41L67.59,97.31L68.3,96.29L69.01,102.68L69.72,101.4L70.43,108.04L71.14,107.79L71.85,118.77L73.28,129.76L73.99,151.98L76.12,185.06L76.83,147.25L77.55,150.7L78.26,161.05L78.97,118.26L79.68,126.69L80.39,128.48L81.1,128.09L83.24,158.37L83.95,156.83L84.66,182.64L85.37,136.4L86.08,111.49L86.79,118.13L88.22,130.91L88.93,129.5L91.06,163.35L91.77,119.79L92.48,119.15L93.2,130.39L94.62,97.95L95.33,103.19L96.75,116.6L97.46,128.22L98.89,137.55L99.6,149.94L101.02,87.99L101.73,92.84L103.87,116.47L104.58,115.45L105.29,118.9L106,110.34L107.42,126.56L108.14,103.44L108.85,106.38L109.56,112.89L110.27,123.11L110.98,121.45L112.4,138.44L113.12,137.16L113.83,155.94L114.54,132.18L115.25,99.99L115.96,101.78L116.67,106.25L118.1,109.19L118.81,109.06L120.23,135.12L120.94,121.96L122.36,120.3L123.08,122.35L123.79,128.22L124.5,141.76L125.21,149.43L125.92,167.95L126.63,132.31L127.34,135.76L128.06,153.51L128.77,127.33L129.48,125.67L130.19,133.2L130.9,129.5L131.61,131.03L134.46,162.71L135.17,122.35L136.59,133.59L137.3,87.86L138.02,89.52L138.73,95.14L140.15,93.73L140.86,106.64L143.71,142.27L144.42,104.08L145.84,107.53L146.55,117.62L147.26,112.89L147.98,132.44L148.69,134.23L149.4,141.76L150.11,111.75L150.82,123.5L151.53,131.54L152.24,113.28L153.67,118.26L154.38,133.46L155.8,148.66L156.51,117.24L159.36,181.49L160.07,142.27L160.78,158.11L161.49,126.05L162.2,77.38L162.92,82.24L163.63,83.64L164.34,89.01L165.05,94.76L165.76,86.84L166.47,100.63L167.18,99.36L167.9,100.25L168.61,112.38L169.32,108.81L170.03,117.49L170.74,82.11L171.45,87.86L172.16,92.59L172.88,92.2L175.01,131.8L175.72,143.68L176.43,114.17L177.14,117.75L178.57,147.13L179.28,123.62L179.99,136.14L180.7,106.76L181.41,103.57L182.12,109.57L184.26,132.95L184.97,132.69L186.39,149.94L187.1,133.84L187.82,100.5L188.53,106.51L189.24,105.74L189.95,109.06L192.8,144.44L193.51,132.05L194.22,103.95L194.93,111.36L195.64,120.05L196.35,118.9L197.06,119.66L197.78,132.57L199.2,102.17L199.91,106L200.62,110.34L201.33,122.22L202.04,105.87L202.76,112.38L203.47,117.24L204.18,84.03L206.31,101.14L207.02,99.23L207.74,107.66L208.45,106.38L209.16,108.93L209.87,117.88L210.58,141.89L211.29,130.39L212,128.35L212.72,134.61L214.14,141.51L214.85,140.74L216.98,170.63L217.7,153.51L218.41,120.81L219.12,124.39L219.83,124.26L220.54,127.84L221.25,143.17L221.96,120.3L223.39,132.44L224.1,131.54L224.81,117.88L225.52,127.97L226.23,139.08L226.94,104.85L228.37,125.16L229.08,139.34L230.5,153.9L231.21,115.7L231.92,118.39L232.64,135.38L233.35,134.23L234.06,137.93L235.48,148.66L236.19,131.67L236.9,129.24L237.62,131.16L240.46,143.55L241.17,154.15L241.88,154.41L242.6,162.97L243.31,164.88L244.02,176.63L244.73,193.62L245.44,153.13L246.15,179.95L246.86,136.65L247.58,99.23L248.29,104.34L249,102.8L249.71,98.59L252.56,121.96L253.27,121.33L253.98,150.7L254.69,115.07L256.11,126.95L256.82,88.5L258.25,109.57L258.96,104.46L259.67,104.98L260.38,114.94L261.09,124.01L261.8,144.32L262.52,115.07L263.23,119.03L263.94,102.8L264.65,106.89L265.36,105.49L266.07,119.15L267.49,75.47L268.21,77.9L270.34,95.65L271.05,114.17L271.76,116.34L272.47,125.92L273.19,123.24L273.9,146.36L274.61,104.85L275.32,111.11L276.03,116.98L276.74,130.39L277.45,104.46L278.17,106.38L278.88,108.3L279.59,107.27L281.01,135.25L281.72,107.02L282.43,81.34L283.15,91.31L283.86,83.64L284.57,90.67L285.28,94.37L285.99,102.55L286.7,107.15L287.41,118.51L288.13,125.03L288.84,99.48L290.97,127.33L291.68,130.52L293.11,104.46L293.82,115.32L295.24,123.5L295.95,130.39L296.66,153.77L297.37,93.22L298.09,100.12L298.8,116.73L300.22,131.42L300.93,136.65L302.35,140.36L303.07,121.45L305.2,142.78L305.91,138.19L306.62,151.6L307.33,147.38L308.05,160.67L308.76,125.8L309.47,141.38L310.18,107.79L310.89,114.94L311.6,71.76L312.31,67.8L313.03,75.47L313.74,75.85L314.45,82.75L315.16,87.22L315.87,111.49L316.58,103.31L317.29,126.95L318.01,130.65L318.72,91.18L319.43,98.59L320.14,76.11L321.56,78.41L322.27,90.29L324.41,131.67L325.12,88.75L325.83,85.05L326.54,94.37L327.25,92.59L327.97,103.7L328.68,120.69L329.39,83.64L330.81,113.79L331.52,118.77L332.23,119.92L332.95,130.65L333.66,100.89L334.37,115.07L335.08,122.47L335.79,93.1L336.5,93.86L337.21,98.72L337.93,96.54L338.64,107.4L340.77,136.14L341.48,145.85L342.19,150.32L342.91,165.78L343.62,190.05L344.33,166.29L345.75,89.39L346.46,99.74L347.17,121.58L347.89,86.2L350.73,112.89L351.44,129.5L352.15,91.82L352.87,99.99L353.58,102.42L354.29,120.94L355.71,134.61L356.42,107.27L359.27,133.84L359.98,151.73L360.69,90.8L361.4,96.67L363.54,104.72L364.25,126.56L364.96,100.63L365.67,105.23L367.09,123.24L367.81,134.74L369.23,73.43L369.94,90.16L372.79,136.65L373.5,100.38L374.21,65.89L374.92,71L375.63,75.21L376.34,71.76L378.48,94.5L379.19,95.52L381.32,142.78L382.03,102.04L382.75,113.41L383.46,111.36L384.17,109.06L384.88,119.54L387.01,147.38L387.73,130.91L389.15,63.21L389.86,74.7L391.99,119.28L392.71,85.69L395.55,128.22L396.26,126.56L397.69,147.64L398.4,118.64L399.11,119.28L399.82,98.33L400.53,97.31L401.24,103.44L401.95,114.04L402.67,80.58L403.38,86.96L404.09,46.09L405.51,54.01L406.22,59.63L407.65,72.28L408.36,87.73L409.07,99.61L409.78,62.31L411.2,67.8L411.91,81.09L415.47,112.13L416.18,132.82L417.61,71.76L418.32,76.24L419.74,91.56L420.45,92.46L421.16,110.85L421.87,80.2L424.01,101.27L424.72,96.29L425.43,112.77L426.14,81.86L427.57,100.5L428.28,111.75L428.99,92.33L429.7,102.42L431.12,112.13L431.83,127.2L432.55,151.34L433.26,124.52L433.97,74.7L434.68,84.67L435.39,56.69L436.1,67.04L437.53,75.98L438.24,77.13L439.66,82.62L440.37,92.46L441.79,126.31L442.51,84.92L443.22,101.91L443.93,81.73L445.35,98.46L446.06,73.17L446.77,73.81L447.48,72.91L449.62,101.02L450.33,112L451.04,92.84L451.75,107.79L452.46,79.56L453.18,92.2L453.89,65.38L454.6,80.71L455.31,83.13L456.02,96.93L456.73,114.3L457.44,72.15L458.16,71.64L458.87,75.21L460.29,94.63L461,93.86L461.71,93.73L462.42,94.88L463.85,107.79L464.56,109.06L465.98,137.16L466.69,108.55L467.4,122.99L468.12,81.73L468.83,86.84L469.54,102.93L470.25,97.82L470.96,113.28L471.67,72.66L472.38,86.45L473.1,99.23L473.81,82.11L474.52,81.22L475.23,84.54L476.65,106L477.36,85.18L479.5,89.9L480.21,89.65L480.92,95.91L481.63,108.93L482.34,109.57L483.06,115.07L483.77,137.16L484.48,55.93L485.19,60.14L485.9,70.87L486.61,83.13L487.32,79.68L488.04,82.37L488.75,102.68L489.46,108.68L490.17,127.84L490.88,91.69L491.59,94.88L493.73,118.64L494.44,123.11L495.15,125.92L495.86,141.12L496.57,109.7L497.28,121.71L498,93.61L498.71,97.06L500.13,110.98L500.84,77.26L502.26,79.94L502.98,94.25L503.69,109.45L504.4,61.55L505.82,76.11L506.53,78.53L507.24,81.86L507.96,94.12L508.67,103.95L509.38,102.8L510.8,117.75L511.51,141.25L512.22,141.25L512.94,145.21L513.65,118.51L514.36,156.07L515.78,53.63L516.49,64.87L517.2,70.62L517.92,66.78L518.63,84.92L519.34,82.88L521.47,115.7L522.18,73.81L524.32,88.37L525.03,91.56L525.74,101.91L526.45,127.71L527.88,63.46L528.59,73.3L529.3,71.64L530.01,85.82L530.72,90.67L531.43,101.53L532.86,131.54L533.57,102.8L534.99,109.06L535.7,114.04L536.41,109.45L537.12,122.73L537.84,123.5L538.55,98.72L539.26,112.26L539.97,74.96L540.68,81.86L541.39,98.33L542.82,133.2L543.53,87.73L544.24,96.54L544.95,84.79L545.66,84.54L546.37,117.49L547.8,53.12L548.51,77L549.22,95.27L549.93,58.99L551.35,74.57L552.06,54.52L554.2,92.33L554.91,99.1L556.33,99.99L557.04,124.39L559.18,43.92L559.89,60.4L560.6,64.23L561.31,78.79L563.45,90.8L564.16,106.89L564.87,79.17L565.58,89.26L566.29,90.92L567,101.78L567.72,122.6L568.43,121.33L569.14,136.01L569.85,58.1L570.56,68.19L571.27,90.8L571.98,63.33L572.7,72.28L574.12,107.66L574.83,78.66L575.54,41.11L576.25,49.16L576.96,56.44L577.68,75.47L578.39,88.24L579.1,60.91L580.52,71.13L581.23,77.9L581.94,53.12L582.66,69.59L583.37,85.82L584.08,51.46L584.79,54.52L585.5,68.19L587.64,100.63L588.35,111.62L589.06,119.28L589.77,91.69L590.48,100.63L591.19,78.53L591.9,69.72L592.62,83.64L593.33,49.79L594.04,52.22L595.46,68.83L596.17,18.5L599.73,53.24L600.44,67.04L601.15,70.49L601.86,85.56L602.58,56.05L603.29,66.91L605.42,139.46L606.13,116.34L606.84,43.92L607.56,59.89L608.27,82.49L608.98,54.14L609.69,58.61L610.4,77.64L612.54,91.95L613.25,100.63L613.96,48.9L614.67,55.41L617.52,121.33L618.23,83.39L618.94,86.07L619.65,99.48L620.36,65.51L621.07,66.53L621.78,82.75L622.49,47.75L623.21,54.9L623.92,25.65L624.63,29.87L626.05,33.7L626.76,55.16L628.19,85.94L628.9,85.56L629.61,87.22L630.32,76.49L631.03,94.25L631.74,57.97L633.88,93.73L634.59,55.93L635.3,69.34L636.01,19.39L638.15,37.79L638.86,37.15L641.7,74.32L642.41,39.19L643.84,39.45L644.55,43.28L645.26,40.6L645.97,52.48L646.68,45.45L647.39,62.31L649.53,94.25L650.24,66.14L650.95,76.36L651.66,41.11L652.37,44.17L653.09,62.7L654.51,78.41L655.22,113.79L655.93,67.17L656.64,74.7L657.35,88.63L658.07,85.3L659.49,94.5L660.2,103.44L660.91,114.81L661.62,88.88L662.33,97.95L663.05,124.01L664.47,66.91L665.18,77.64L665.89,40.85L666.6,52.48L667.31,57.59L668.03,57.08L669.45,66.53L670.16,63.72L670.87,68.57L671.58,80.83L673.01,87.86L673.72,85.82L675.14,104.59L675.85,56.44L677.27,75.21L677.99,74.32L680.12,108.68L680.83,127.2L681.54,91.56L682.25,101.53L682.97,105.36L683.68,122.6L684.39,92.46L685.1,117.62L685.81,132.82L686.52,103.06L687.95,34.59L688.66,47.37L690.08,82.11L690.79,54.52L691.5,49.41L692.21,56.05L692.93,58.74L693.64,64.48L694.35,64.61L695.06,77.64L695.77,84.15L696.48,58.86L697.19,62.31L697.91,73.04L698.62,99.87L699.33,76.49L700.75,97.82L701.46,114.3L702.17,43.66L702.89,44.05L703.6,53.24L705.02,77.9L705.73,76.11L706.44,100.76L707.15,56.44L707.87,56.56L708.58,77L709.29,42.39L710,61.55" style="vector-effect: none; fill: none; stroke: rgb(227, 119, 194); stroke-opacity: 1; stroke-width: 2px; opacity: 1;"/></g><g class="points"/><g class="text"/></g></g></g><g class="overplot"/><path class="xlines-above crisp" d="M0,0" style="fill: none;"/><path class="ylines-above crisp" d="M0,0" style="fill: none;"/><g class="overlines-above"/><g class="xaxislayer-above"><g class="xtick"><text text-anchor="middle" x="0" y="533" transform="translate(80,0)" style="font-family: 'Open Sans', verdana, arial, sans-serif; font-size: 12px; fill: rgb(68, 68, 68); fill-opacity: 1; white-space: pre; opacity: 1;">0</text></g><g class="xtick"><text text-anchor="middle" x="0" y="533" style="font-family: 'Open Sans', verdana, arial, sans-serif; font-size: 12px; fill: rgb(68, 68, 68); fill-opacity: 1; white-space: pre; opacity: 1;" transform="translate(222.28,0)">200</text></g><g class="xtick"><text text-anchor="middle" x="0" y="533" style="font-family: 'Open Sans', verdana, arial, sans-serif; font-size: 12px; fill: rgb(68, 68, 68); fill-opacity: 1; white-space: pre; opacity: 1;" transform="translate(364.57,0)">400</text></g><g class="xtick"><text text-anchor="middle" x="0" y="533" style="font-family: 'Open Sans', verdana, arial, sans-serif; font-size: 12px; fill: rgb(68, 68, 68); fill-opacity: 1; white-space: pre; opacity: 1;" transform="translate(506.85,0)">600</text></g><g class="xtick"><text text-anchor="middle" x="0" y="533" style="font-family: 'Open Sans', verdana, arial, sans-serif; font-size: 12px; fill: rgb(68, 68, 68); fill-opacity: 1; white-space: pre; opacity: 1;" transform="translate(649.14,0)">800</text></g></g><g class="yaxislayer-above"><g class="ytick"><text text-anchor="end" x="79" y="4.199999999999999" transform="translate(0,488.73)" style="font-family: 'Open Sans', verdana, arial, sans-serif; font-size: 12px; fill: rgb(68, 68, 68); fill-opacity: 1; white-space: pre; opacity: 1;">0.65</text></g><g class="ytick"><text text-anchor="end" x="79" y="4.199999999999999" style="font-family: 'Open Sans', verdana, arial, sans-serif; font-size: 12px; fill: rgb(68, 68, 68); fill-opacity: 1; white-space: pre; opacity: 1;" transform="translate(0,412.09)">0.7</text></g><g class="ytick"><text text-anchor="end" x="79" y="4.199999999999999" style="font-family: 'Open Sans', verdana, arial, sans-serif; font-size: 12px; fill: rgb(68, 68, 68); fill-opacity: 1; white-space: pre; opacity: 1;" transform="translate(0,335.45)">0.75</text></g><g class="ytick"><text text-anchor="end" x="79" y="4.199999999999999" style="font-family: 'Open Sans', verdana, arial, sans-serif; font-size: 12px; fill: rgb(68, 68, 68); fill-opacity: 1; white-space: pre; opacity: 1;" transform="translate(0,258.81)">0.8</text></g><g class="ytick"><text text-anchor="end" x="79" y="4.199999999999999" style="font-family: 'Open Sans', verdana, arial, sans-serif; font-size: 12px; fill: rgb(68, 68, 68); fill-opacity: 1; white-space: pre; opacity: 1;" transform="translate(0,182.17000000000002)">0.85</text></g></g><g class="overaxes-above"/></g></g><g class="polarlayer"/><g class="smithlayer"/><g class="ternarylayer"/><g class="geolayer"/><g class="funnelarealayer"/><g class="pielayer"/><g class="iciclelayer"/><g class="treemaplayer"/><g class="sunburstlayer"/><g class="glimages"/><defs id="topdefs-698c0e"><g class="clips"/><clipPath id="legend698c0e"><rect width="546" height="48" x="0" y="0"/></clipPath></defs><g class="layer-above"><g class="imagelayer"/><g class="shapelayer"/></g><g class="infolayer"><g class="legend" pointer-events="all" transform="translate(80,76.00000000000001)"><rect class="bg" shape-rendering="crispEdges" width="546" height="48" x="0" y="0" style="stroke: rgb(68, 68, 68); stroke-opacity: 1; fill: rgb(255, 255, 255); fill-opacity: 1; stroke-width: 0px;"/><g class="scrollbox" transform="" clip-path="url(#legend698c0e)"><g class="groups"><g class="traces" transform="translate(0,14.5)" style="opacity: 1;"><text class="legendtext" text-anchor="start" x="40" y="4.680000000000001" style="font-family: 'Open Sans', verdana, arial, sans-serif; font-size: 12px; fill: rgb(68, 68, 68); fill-opacity: 1; white-space: pre;">Receny weighted</text><g class="layers" style="opacity: 1;"><g class="legendfill"/><g class="legendlines"><path class="js-line" d="M5,0h30" style="fill: none; stroke: rgb(31, 119, 180); stroke-opacity: 1; stroke-width: 2px;"/></g><g class="legendsymbols"><g class="legendpoints"/></g></g><rect class="legendtoggle" x="0" y="-9.5" width="145.65625" height="19" style="fill: rgb(0, 0, 0); fill-opacity: 0;"/></g><g class="traces" transform="translate(148.15625,14.5)" style="opacity: 1;"><text class="legendtext" text-anchor="start" x="40" y="4.680000000000001" style="font-family: 'Open Sans', verdana, arial, sans-serif; font-size: 12px; fill: rgb(68, 68, 68); fill-opacity: 1; white-space: pre;">Median</text><g class="layers" style="opacity: 1;"><g class="legendfill"/><g class="legendlines"><path class="js-line" d="M5,0h30" style="fill: none; stroke: rgb(255, 127, 14); stroke-opacity: 1; stroke-width: 2px;"/></g><g class="legendsymbols"><g class="legendpoints"/></g></g><rect class="legendtoggle" x="0" y="-9.5" width="86.15625" height="19" style="fill: rgb(0, 0, 0); fill-opacity: 0;"/></g><g class="traces" transform="translate(296.3125,14.5)" style="opacity: 1;"><text class="legendtext" text-anchor="start" x="40" y="4.680000000000001" style="font-family: 'Open Sans', verdana, arial, sans-serif; font-size: 12px; fill: rgb(68, 68, 68); fill-opacity: 1; white-space: pre;">Punish updates</text><g class="layers" style="opacity: 1;"><g class="legendfill"/><g class="legendlines"><path class="js-line" d="M5,0h30" style="fill: none; stroke: rgb(44, 160, 44); stroke-opacity: 1; stroke-width: 2px;"/></g><g class="legendsymbols"><g class="legendpoints"/></g></g><rect class="legendtoggle" x="0" y="-9.5" width="134.28125" height="19" style="fill: rgb(0, 0, 0); fill-opacity: 0;"/></g><g class="traces" transform="translate(444.46875,14.5)" style="opacity: 1;"><text class="legendtext" text-anchor="start" x="40" y="4.680000000000001" style="font-family: 'Open Sans', verdana, arial, sans-serif; font-size: 12px; fill: rgb(68, 68, 68); fill-opacity: 1; white-space: pre;">Fixed clip</text><g class="layers" style="opacity: 1;"><g class="legendfill"/><g class="legendlines"><path class="js-line" d="M5,0h30" style="fill: none; stroke: rgb(214, 39, 40); stroke-opacity: 1; stroke-width: 2px;"/></g><g class="legendsymbols"><g class="legendpoints"/></g></g><rect class="legendtoggle" x="0" y="-9.5" width="98.296875" height="19" style="fill: rgb(0, 0, 0); fill-opacity: 0;"/></g><g class="traces" transform="translate(0,33.5)" style="opacity: 1;"><text class="legendtext" text-anchor="start" x="40" y="4.680000000000001" style="font-family: 'Open Sans', verdana, arial, sans-serif; font-size: 12px; fill: rgb(68, 68, 68); fill-opacity: 1; white-space: pre;">Dynamic clip</text><g class="layers" style="opacity: 1;"><g class="legendfill"/><g class="legendlines"><path class="js-line" d="M5,0h30" style="fill: none; stroke: rgb(148, 103, 189); stroke-opacity: 1; stroke-width: 2px;"/></g><g class="legendsymbols"><g class="legendpoints"/></g></g><rect class="legendtoggle" x="0" y="-9.5" width="120.125" height="19" style="fill: rgb(0, 0, 0); fill-opacity: 0;"/></g><g class="traces" transform="translate(148.15625,33.5)" style="opacity: 1;"><text class="legendtext" text-anchor="start" x="40" y="4.680000000000001" style="font-family: 'Open Sans', verdana, arial, sans-serif; font-size: 12px; fill: rgb(68, 68, 68); fill-opacity: 1; white-space: pre;">Simple average</text><g class="layers" style="opacity: 1;"><g class="legendfill"/><g class="legendlines"><path class="js-line" d="M5,0h30" style="fill: none; stroke: rgb(140, 86, 75); stroke-opacity: 1; stroke-width: 2px;"/></g><g class="legendsymbols"><g class="legendpoints"/></g></g><rect class="legendtoggle" x="0" y="-9.5" width="136.421875" height="19" style="fill: rgb(0, 0, 0); fill-opacity: 0;"/></g><g class="traces" transform="translate(296.3125,33.5)" style="opacity: 1;"><text class="legendtext" text-anchor="start" x="40" y="4.680000000000001" style="font-family: 'Open Sans', verdana, arial, sans-serif; font-size: 12px; fill: rgb(68, 68, 68); fill-opacity: 1; white-space: pre;">No FL</text><g class="layers" style="opacity: 1;"><g class="legendfill"/><g class="legendlines"><path class="js-line" d="M5,0h30" style="fill: none; stroke: rgb(227, 119, 194); stroke-opacity: 1; stroke-width: 2px;"/></g><g class="legendsymbols"><g class="legendpoints"/></g></g><rect class="legendtoggle" x="0" y="-9.5" width="76.546875" height="19" style="fill: rgb(0, 0, 0); fill-opacity: 0;"/></g></g></g><rect class="scrollbar" rx="20" ry="3" width="0" height="0" x="0" y="0" style="fill: rgb(128, 139, 164); fill-opacity: 1;"/></g><g class="g-gtitle"><text class="gtitle" x="400" y="75" text-anchor="middle" dy="0em" style="font-family: 'Open Sans', verdana, arial, sans-serif; font-size: 17px; fill: rgb(68, 68, 68); opacity: 1; font-weight: normal; white-space: pre;">Accuracy score by FL method for 4 nodes</text></g><g class="g-xtitle"><text class="xtitle" x="435" y="572" text-anchor="middle" style="font-family: 'Open Sans', verdana, arial, sans-serif; font-size: 14px; fill: rgb(68, 68, 68); opacity: 1; font-weight: normal; white-space: pre;">Aggregation methods</text></g><g class="g-ytitle"><text class="ytitle" transform="rotate(-90,42,335)" x="42" y="335" text-anchor="middle" style="font-family: 'Open Sans', verdana, arial, sans-serif; font-size: 14px; fill: rgb(68, 68, 68); opacity: 1; font-weight: normal; white-space: pre;">Accuracy score</text></g></g></svg>