<svg class="main-svg" xmlns="http://www.w3.org/2000/svg" xmlns:xlink="http://www.w3.org/1999/xlink" width="800" height="600" style="" viewBox="0 0 800 600"><rect x="0" y="0" width="800" height="600" style="fill: rgb(255, 255, 255); fill-opacity: 1;"/><defs id="defs-c5a89d"><g class="clips"><clipPath id="clipc5a89dxyplot" class="plotclip"><rect width="710" height="370"/></clipPath><clipPath class="axesclip" id="clipc5a89dx"><rect x="80" y="0" width="710" height="600"/></clipPath><clipPath class="axesclip" id="clipc5a89dy"><rect x="0" y="150" width="800" height="370"/></clipPath><clipPath class="axesclip" id="clipc5a89dxy"><rect x="80" y="150" width="710" height="370"/></clipPath></g><g class="gradients"/><g class="patterns"/></defs><g class="bglayer"/><g class="layer-below"><g class="imagelayer"/><g class="shapelayer"/></g><g class="cartesianlayer"><g class="subplot xy"><g class="layer-subplot"><g class="shapelayer"/><g class="imagelayer"/></g><g class="minor-gridlayer"><g class="x"/><g class="y"/></g><g class="gridlayer"><g class="x"><path class="xgrid crisp" transform="translate(222.28,0)" d="M0,150v370" style="stroke: rgb(238, 238, 238); stroke-opacity: 1; stroke-width: 1px;"/><path class="xgrid crisp" transform="translate(364.57,0)" d="M0,150v370" style="stroke: rgb(238, 238, 238); stroke-opacity: 1; stroke-width: 1px;"/><path class="xgrid crisp" transform="translate(506.85,0)" d="M0,150v370" style="stroke: rgb(238, 238, 238); stroke-opacity: 1; stroke-width: 1px;"/><path class="xgrid crisp" transform="translate(649.14,0)" d="M0,150v370" style="stroke: rgb(238, 238, 238); stroke-opacity: 1; stroke-width: 1px;"/></g><g class="y"><path class="ygrid crisp" transform="translate(0,501.5)" d="M80,0h710" style="stroke: rgb(238, 238, 238); stroke-opacity: 1; stroke-width: 1px;"/><path class="ygrid crisp" transform="translate(0,451.92)" d="M80,0h710" style="stroke: rgb(238, 238, 238); stroke-opacity: 1; stroke-width: 1px;"/><path class="ygrid crisp" transform="translate(0,402.34000000000003)" d="M80,0h710" style="stroke: rgb(238, 238, 238); stroke-opacity: 1; stroke-width: 1px;"/><path class="ygrid crisp" transform="translate(0,352.77)" d="M80,0h710" style="stroke: rgb(238, 238, 238); stroke-opacity: 1; stroke-width: 1px;"/><path class="ygrid crisp" transform="translate(0,303.19)" d="M80,0h710" style="stroke: rgb(238, 238, 238); stroke-opacity: 1; stroke-width: 1px;"/><path class="ygrid crisp" transform="translate(0,253.61)" d="M80,0h710" style="stroke: rgb(238, 238, 238); stroke-opacity: 1; stroke-width: 1px;"/><path class="ygrid crisp" transform="translate(0,204.03)" d="M80,0h710" style="stroke: rgb(238, 238, 238); stroke-opacity: 1; stroke-width: 1px;"/><path class="ygrid crisp" transform="translate(0,154.45)" d="M80,0h710" style="stroke: rgb(238, 238, 238); stroke-opacity: 1; stroke-width: 1px;"/></g></g><g class="zerolinelayer"><path class="xzl zl crisp" transform="translate(80,0)" d="M0,150v370" style="stroke: rgb(68, 68, 68); stroke-opacity: 1; stroke-width: 1px;"/></g><path class="xlines-below"/><path class="ylines-below"/><g class="overlines-below"/><g class="xaxislayer-below"/><g class="yaxislayer-below"/><g class="overaxes-below"/><g class="plot" transform="translate(80,150)" clip-path="url(#clipc5a89dxyplot)"><g class="scatterlayer mlayer"><g class="trace scatter tracee844c2" style="stroke-miterlimit: 2; opacity: 1;"><g class="fills"/><g class="errorbars"/><g class="lines"><path class="js-line" d="M0,91.21L0.71,93.86L1.42,83.94L2.13,84.44L2.85,81.13L4.27,77.33L4.98,73.37L5.69,73.7L6.4,71.22L7.11,72.04L7.83,79.48L8.54,80.97L9.25,86.26L12.09,147.07L12.81,166.08L14.23,63.45L14.94,68.08L15.65,72.54L16.36,71.88L17.07,71.22L17.79,73.2L19.92,92.54L20.63,88.57L21.34,89.73L22.05,88.24L23.48,110.38L24.19,61.96L24.9,61.47L25.61,65.76L27.03,75.51L27.75,81.3L28.46,80.14L29.17,93.86L30.59,111.87L31.3,70.39L32.01,71.38L32.73,74.85L33.44,80.31L34.15,78.65L34.86,88.07L35.57,85.27L37.71,106.25L38.42,62.13L39.13,60.15L39.84,67.25L41.26,69.73L41.97,78.65L44.11,100.3L44.82,55.35L46.24,52.05L46.95,53.7L47.67,49.24L48.38,55.35L49.09,53.2L49.8,54.53L51.22,66.92L51.93,64.44L54.07,78.99L54.78,76.67L56.2,108.24L56.91,61.63L57.63,60.64L58.34,62.29L60.47,71.88L61.18,69.23L64.03,101.46L64.74,60.15L68.3,73.7L69.01,73.2L70.43,82.13L71.14,89.89L71.85,85.6L72.57,93.2L73.28,96.01L73.99,103.94L74.7,216.98L75.41,216.32L76.12,215.99L77.55,217.14L78.26,222.43L78.97,223.92L79.68,223.26L80.39,234.17L81.1,233.5L81.81,242.92L82.53,198.8L83.24,198.47L83.95,200.78L84.66,199.46L85.37,201.11L86.08,198.63L86.79,200.62L88.22,202.1L88.93,201.94L90.35,199.13L91.06,204.25L92.48,215.33L93.2,212.68L93.91,214.5L94.62,212.35L96.75,215.33L97.46,213.34L98.18,214.83L98.89,214.17L99.6,215.82L100.31,222.76L101.02,220.12L101.73,223.09L102.44,224.58L103.16,219.95L104.58,231.36L105.29,229.87L107.42,229.54L108.14,239.62L109.56,351.5L110.27,351.5L710,351.5" style="vector-effect: none; fill: none; stroke: rgb(31, 119, 180); stroke-opacity: 1; stroke-width: 2px; opacity: 1;"/></g><g class="points"/><g class="text"/></g><g class="trace scatter trace1eb852" style="stroke-miterlimit: 2; opacity: 1;"><g class="fills"/><g class="errorbars"/><g class="lines"><path class="js-line" d="M0,91.21L0.71,93.86L1.42,83.94L2.13,84.44L2.85,81.13L4.27,77.33L4.98,73.37L5.69,73.7L6.4,71.22L7.11,72.04L7.83,79.48L8.54,80.97L9.25,86.26L12.09,147.07L12.81,166.08L14.23,63.45L14.94,68.08L15.65,72.54L16.36,71.88L17.07,71.22L17.79,73.2L19.92,92.54L20.63,88.57L21.34,89.73L22.05,88.24L23.48,110.38L24.19,61.96L24.9,61.47L25.61,65.76L27.03,75.51L27.75,81.3L28.46,80.14L29.17,93.86L30.59,111.87L31.3,74.36L32.01,72.54L32.73,76.18L34.15,83.61L34.86,88.57L35.57,86.59L36.28,93.69L36.99,96.34L37.71,105.59L39.13,60.81L39.84,67.58L40.55,66.59L41.26,69.57L42.69,86.92L43.4,85.43L44.11,98.16L44.82,57.67L45.53,58L46.24,56.68L46.95,54.86L47.67,57.17L48.38,61.3L49.09,58.49L52.65,78.49L53.36,78.65L55.49,97.66L56.2,64.44L56.91,67.58L57.63,65.27L59.76,71.22L60.47,77.5L61.18,78.82L61.89,86.26L63.32,102.95L64.03,72.54L66.16,92.54L66.87,99.48L67.59,99.31L68.3,108.4L69.01,73.7L69.72,74.03L70.43,65.27L71.14,59.98L71.85,61.96L73.28,63.62L73.99,59.82L74.7,59.32L75.41,60.81L77.55,56.51L78.26,60.15L79.68,60.97L80.39,69.73L81.1,70.56L81.81,77L83.24,94.69L83.95,96.01L84.66,100.47L85.37,110.22L86.79,133.36L87.51,109.89L88.22,77.83L88.93,77.99L89.64,83.28L91.06,92.37L91.77,88.9L92.48,89.07L93.2,98.65L93.91,115.84L94.62,80.47L96.75,87.91L97.46,94.19L99.6,119.97L100.31,57.17L102.44,73.04L103.16,79.98L103.87,79.15L104.58,81.3L105.29,92.54L106,91.21L106.71,103.77L107.42,87.74L109.56,104.44L110.27,126.25L110.98,114.68L111.69,117.99L112.4,117.82L113.12,115.18L113.83,117.33L114.54,114.68L115.25,121.95L115.96,120.8L117.38,126.75L118.1,128.56L118.81,130.05L119.52,134.84L120.94,157.65L121.65,158.31L122.36,156.49L123.08,158.15L123.79,158.31L124.5,156L125.21,151.53L125.92,161.78L126.63,164.76L127.34,163.27L128.06,160.62L128.77,161.62L129.48,176.98L130.19,128.07L130.9,123.77L131.61,127.24L133.04,124.1L133.75,125.26L134.46,124.43L135.17,121.62L135.88,121.95L136.59,123.44L137.3,121.29L138.02,122.45L138.73,120.63L139.44,122.45L140.15,122.45L140.86,123.61L141.57,124.1L142.28,120.47L143,122.12L143.71,117L145.13,122.45L145.84,123.61L146.55,123.61L147.26,120.63L148.69,125.92L149.4,120.63L150.11,121.95L150.82,129.56L151.53,130.71L152.24,133.85L153.67,138.81L154.38,139.97L155.09,144.92L155.8,143.77L156.51,146.74L157.22,156.16L158.65,163.6L159.36,171.86L160.07,187.07L160.78,260.61L161.49,239.29L162.2,188.39L163.63,179.79L164.34,176.65L165.05,179.3L165.76,174.84L166.47,174.67L167.18,177.81L167.9,190.04L168.61,148.39L169.32,145.75L170.03,150.05L171.45,140.46L172.16,140.3L172.88,139.47L173.59,136.99L175.01,134.18L175.72,126.25L176.43,120.14L177.14,120.47L177.86,119.97L179.99,109.72L180.7,109.56L181.41,104.27L182.12,105.92L182.84,105.26L183.55,105.76L184.26,102.95L184.97,103.44L186.39,101.63L187.1,105.92L187.82,106.58L188.53,115.01L189.24,116L189.95,122.78L190.66,140.63L191.37,97L192.08,97.49L192.8,99.48L194.93,103.61L195.64,111.71L197.06,116.5L197.78,115.51L199.91,129.89L200.62,142.45L202.04,153.68L202.76,166.24L205.6,186.9L206.31,78.49L207.02,78.16L207.74,82.62L209.16,86.59L209.87,85.1L211.29,101.63L212,103.61L214.14,119.64L214.85,117.16L215.56,118.32L216.27,134.02L216.98,151.37L217.7,83.94L218.41,83.28L219.12,86.26L219.83,85.76L220.54,88.74L222.68,102.62L223.39,109.72L224.81,151.04L225.52,111.71L226.94,50.4L227.66,55.68L229.08,54.53L229.79,61.63L230.5,61.3L231.21,67.09L231.92,68.08L232.64,72.71L233.35,69.4L234.06,78.65L235.48,98.16L236.19,66.26L236.9,67.09L237.62,64.61L241.17,103.77L241.88,53.37L242.6,57.01L243.31,55.35L246.15,92.04L246.86,99.81L247.58,121.95L248.29,74.85L249,72.04L249.71,72.54L250.42,75.18L251.13,74.85L252.56,83.61L253.27,82.29L253.98,89.89L254.69,37.01L258.25,59.82L258.96,56.51L260.38,81.79L261.09,88.9L261.8,57.34L262.52,63.45L263.23,59.32L263.94,71.71L265.36,75.18L266.07,81.63L266.78,80.64L267.49,77.66L268.21,79.81L268.92,85.76L270.34,91.38L271.05,90.39L272.47,114.02L273.19,77.83L273.9,81.46L274.61,90.72L275.32,108.07L276.03,42.13L276.74,43.78L277.45,39.49L278.17,44.12L278.88,41.47L281.01,48.41L281.72,58.16L282.43,58.16L283.15,69.4L283.86,64.28L284.57,77.99L285.28,73.7L285.99,85.76L286.7,94.69L287.41,42.3L288.84,40.98L289.55,45.44L290.97,51.72L291.68,58.16L292.39,60.64L293.11,69.73L295.24,86.75L295.95,100.3L297.37,75.85L298.09,77.33L299.51,98.32L300.22,97.99L300.93,98.49L301.64,98.32L302.35,103.11L303.78,119.8L304.49,72.04L305.2,75.18L305.91,73.7L306.62,71.05L307.33,74.52L308.05,78.32L308.76,74.19L311.6,89.07L312.31,90.22L315.16,118.32L315.87,145.75L317.29,36.18L318.01,38L318.72,37.34L319.43,38.33L320.14,44.45L320.85,42.63L321.56,40.81L322.27,52.54L322.99,59.15L323.7,73.2L324.41,89.23L325.12,30.73L325.83,26.43L326.54,29.57L327.25,28.58L327.97,35.85L328.68,34.53L329.39,42.63L331.52,62.79L332.23,64.94L332.95,73.7L333.66,73.53L334.37,70.56L335.08,84.77L335.79,54.03L337.21,52.05L337.93,64.11L338.64,61.63L339.35,63.95L340.06,64.77L340.77,62.79L342.91,102.45L343.62,71.38L346.46,84.93L347.17,95.84L347.89,112.53L348.6,70.56L350.02,84.93L350.73,82.13L351.44,83.45L352.15,86.42L354.29,91.71L355,101.79L355.71,101.79L356.42,100.47L357.13,117L357.85,77.83L358.56,77.99L359.27,75.68L361.4,91.88L362.11,89.4L364.25,109.06L364.96,123.28L365.67,117L366.38,117.82L367.81,109.89L368.52,108.07L369.94,121.13L370.65,124.76L372.79,152.2L373.5,152.03L374.21,151.87L376.34,151.87L377.05,152.2L377.77,152.36L378.48,151.53L379.19,150.87L379.9,148.56L381.32,146.91L382.03,149.39L382.75,150.21L383.46,146.08L384.17,145.92L384.88,147.9L385.59,148.23L386.3,145.75L387.01,146.58L387.73,153.19L389.15,153.68L389.86,163.43L391.28,158.48L391.99,175.99L392.71,110.22L393.42,111.21L394.13,108.07L395.55,116.66L396.26,114.52L396.97,114.52L397.69,122.61L398.4,123.77L399.11,118.65L400.53,122.45L401.24,120.63L402.67,132.36L403.38,129.06L404.09,128.56L404.8,142.45L405.51,139.97L406.22,149.22L406.93,149.22L407.65,146.91L408.36,161.45L409.07,101.13L409.78,101.13L410.49,98.32L411.2,98.16L411.91,95.18L412.63,94.19L413.34,94.69L414.05,93.86L414.76,90.88L416.18,100.14L416.89,96.67L418.32,107.41L419.03,112.53L419.74,107.58L420.45,114.68L421.16,113.69L421.87,115.01L422.59,113.69L423.3,116.33L424.01,122.78L424.72,118.98L425.43,121.13L426.14,127.74L426.85,128.07L427.57,71.05L430.41,94.19L431.12,99.97L432.55,126.42L433.26,55.68L433.97,52.71L434.68,66.26L435.39,62.79L436.1,84.44L436.81,79.48L437.53,81.13L438.24,83.28L438.95,82.95L441.08,108.24L441.79,91.05L442.51,46.76L443.22,51.22L444.64,71.55L445.35,41.8L446.06,42.63L446.77,47.92L447.48,46.26L448.2,56.68L449.62,66.92L450.33,65.76L452.46,93.53L453.18,45.11L454.6,53.87L455.31,60.64L456.02,63.62L456.73,76.01L458.16,84.27L458.87,112.04L460.29,116.17L461,112.53L462.42,116L463.14,115.01L463.85,121.62L464.56,119.64L466.69,136.33L467.4,138.15L468.83,136.66L469.54,138.97L470.25,140.46L470.96,147.57L471.67,145.59L472.38,158.31L473.1,267.38L473.81,127.74L474.52,128.07L475.23,126.75L476.65,128.23L477.36,130.38L478.79,130.55L479.5,129.22L480.21,132.53L480.92,130.71L482.34,133.52L483.06,136.17L484.48,140.79L485.19,142.11L485.9,142.45L486.61,66.26L487.32,64.77L488.04,66.43L489.46,60.31L490.17,61.96L490.88,61.14L491.59,63.62L493.02,70.06L493.73,76.34L496.57,104.1L497.28,100.3L498,117.82L498.71,61.3L500.13,61.63L500.84,66.59L501.55,64.77L502.26,65.27L503.69,73.04L504.4,73.2L505.82,79.15L506.53,95.02L507.24,102.12L507.96,119.97L510.09,159.3L510.8,157.98L512.22,167.9L512.94,167.9L513.65,163.43L514.36,186.24L515.78,112.53L516.49,112.7L518.63,117.16L519.34,113.36L520.76,122.94L521.47,126.91L524.32,152.69L525.03,120.63L525.74,119.97L526.45,122.78L527.16,122.28L527.88,122.78L528.59,123.61L529.3,122.28L532.86,139.47L533.57,149.88L534.28,150.38L534.99,156.66L535.7,156L536.41,157.81L537.12,170.7L537.84,126.25L538.55,123.77L539.26,128.73L539.97,126.08L540.68,130.38L541.39,137.65L542.1,136.5L544.24,159.8L544.95,177.32L545.66,117.16L546.37,119.31L547.08,118.65L548.51,119.64L549.22,127.74L549.93,123.61L550.64,126.08L552.06,145.42L552.78,143.11L554.2,174.51L554.91,118.81L557.04,118.15L557.76,120.3L558.47,119.8L559.18,121.29L562.02,142.94L562.74,143.77L564.87,184.75L565.58,113.52L567.72,120.96L568.43,120.47L570.56,144.26L571.27,155.67L571.98,156.49L572.7,172.36L573.41,137.65L574.12,145.75L574.83,148.73L575.54,161.29L576.25,156.99L576.96,159.8L578.39,184.42L579.1,115.51L581.23,124.76L581.94,124.6L584.79,141.12L585.5,149.72L586.21,157.98L586.92,125.92L587.64,127.24L588.35,131.7L589.06,130.88L589.77,140.79L591.9,164.09L592.62,177.65L593.33,131.21L594.04,132.36L594.75,140.79L596.88,166.24L597.6,180.79L598.31,128.4L599.02,131.21L599.73,136.17L601.15,141.12L601.86,156.33L602.58,156.16L603.29,179.63L604,203.26L604.71,114.02L605.42,118.48L606.13,91.05L606.84,90.55L607.56,85.1L608.98,82.29L609.69,82.29L610.4,83.45L611.11,83.12L611.82,81.3L612.54,86.26L614.67,105.92L615.38,102.45L616.8,133.52L617.52,173.35L619.65,189.38L620.36,205.91L621.78,70.39L622.49,71.71L623.21,66.59L623.92,70.72L624.63,69.9L625.34,66.92L626.76,64.61L627.47,70.39L628.19,78.32L628.9,77.5L630.32,93.53L631.03,107.24L631.74,80.14L632.45,81.96L633.17,75.02L633.88,77.17L634.59,72.87L635.3,77.33L636.01,76.84L636.72,74.36L637.43,82.62L638.15,81.3L638.86,81.13L639.57,90.39L640.28,102.95L640.99,101.3L642.41,125.26L643.13,73.04L643.84,75.85L644.55,73.7L645.97,72.71L646.68,74.03L647.39,73.2L648.11,76.51L648.82,75.02L649.53,84.93L650.24,83.78L650.95,91.05L655.93,177.15L656.64,176.32L657.35,177.48L658.07,182.6L658.78,253.83L659.49,197.97L660.2,197.48L660.91,201.11L661.62,194.67L662.33,197.81L663.76,196.49L664.47,197.31L665.89,191.86L666.6,192.68L667.31,188.22L668.03,191.36L668.74,188.72L669.45,189.05L670.87,183.76L671.58,188.88L672.29,187.4L673.01,190.04L673.72,185.58L674.43,186.74L676.56,195.99L677.27,195.49L678.7,200.29L679.41,197.97L680.12,198.3L680.83,199.46L683.68,210.7L684.39,205.57L685.1,209.38L685.81,206.73L686.52,210.04L687.23,207.23L687.95,204.75L688.66,210.37L689.37,210.04L690.08,212.02L691.5,217.47L692.21,216.15L692.93,215.16L693.64,209.54L695.06,221.61L695.77,227.22L696.48,246.39L697.19,245.57L697.91,242.1L698.62,236.64L699.33,238.63L701.46,246.72L702.17,270.69L702.89,271.84L703.6,120.8L704.31,120.8L705.02,122.28L706.44,126.08L707.15,126.08L708.58,127.57L709.29,126.58L710,128.89" style="vector-effect: none; fill: none; stroke: rgb(255, 127, 14); stroke-opacity: 1; stroke-width: 2px; opacity: 1;"/></g><g class="points"/><g class="text"/></g><g class="trace scatter trace58fed9" style="stroke-miterlimit: 2; opacity: 1;"><g class="fills"/><g class="errorbars"/><g class="lines"><path class="js-line" d="M0,91.21L0.71,93.86L1.42,83.94L2.13,84.44L2.85,81.13L4.27,77.33L4.98,73.37L5.69,73.7L6.4,71.22L7.11,72.04L7.83,79.48L8.54,80.97L9.25,86.26L12.09,147.07L12.81,166.08L14.23,63.45L14.94,68.08L15.65,72.54L16.36,71.88L17.07,71.22L17.79,73.2L19.92,92.54L20.63,88.57L21.34,89.73L22.05,88.24L23.48,110.38L24.19,61.96L24.9,61.47L25.61,65.76L27.03,75.51L27.75,81.3L28.46,80.14L29.17,93.86L30.59,111.87L31.3,89.07L32.01,92.7L32.73,100.47L33.44,108.4L34.15,107.41L37.71,143.11L38.42,105.1L39.13,104.93L39.84,123.28L41.26,61.47L41.97,68.24L42.69,72.54L43.4,70.23L44.11,75.51L44.82,75.02L46.24,78.82L46.95,77.83L48.38,92.87L49.09,91.55L50.51,109.89L51.22,68.9L51.93,66.59L52.65,69.9L53.36,70.39L54.07,76.67L55.49,85.27L56.2,94.35L56.91,101.79L57.63,101.46L58.34,107.58L60.47,139.47L61.18,79.15L61.89,79.32L62.61,78.49L66.87,120.96L67.59,122.28L68.3,136.66L69.01,66.43L69.72,70.23L70.43,63.78L72.57,79.48L73.28,43.45L73.99,42.63L74.7,49.07L75.41,57.17L76.12,55.35L76.83,63.12L77.55,61.14L78.97,75.85L79.68,77.5L80.39,78.32L81.1,76.84L82.53,119.47L83.24,65.1L84.66,62.62L85.37,68.74L86.79,77.99L87.51,90.88L88.22,95.18L88.93,107.24L89.64,116.17L90.35,71.38L91.06,78.49L91.77,95.02L93.2,37.5L93.91,35.36L94.62,32.88L95.33,39.65L96.04,39.32L96.75,46.43L98.18,63.12L98.89,60.64L101.73,91.71L102.44,37.5L103.16,36.35L103.87,42.79L104.58,42.13L105.29,44.45L106,42.46L106.71,57.01L108.85,87.08L109.56,43.62L110.27,43.45L110.98,45.6L111.69,43.62L112.4,46.43L113.12,47.59L113.83,50.89L114.54,57.17L115.25,71.05L115.96,73.2L116.67,81.46L117.38,84.77L118.1,43.95L118.81,42.13L119.52,46.43L120.94,53.37L121.65,58.49L123.08,62.79L123.79,62.29L124.5,66.1L125.21,77.66L126.63,93.03L127.34,99.64L128.06,111.71L128.77,61.96L130.19,78.16L130.9,76.67L131.61,77.99L132.32,85.76L133.04,62.13L133.75,71.71L134.46,68.9L135.17,72.04L136.59,86.75L137.3,85.76L138.02,98.32L138.73,63.95L139.44,63.12L140.15,60.81L141.57,59.65L142.28,61.47L143.71,67.42L144.42,67.25L145.84,68.08L146.55,78.32L147.26,77.33L147.98,80.97L150.82,114.02L151.53,70.56L152.24,71.71L152.96,77.99L155.09,99.64L155.8,119.47L156.51,56.68L157.22,68.24L158.65,87.08L159.36,107.41L160.07,128.89L160.78,95.51L161.49,53.2L162.2,53.54L162.92,58.99L164.34,69.73L165.05,69.4L165.76,67.58L166.47,74.85L167.18,80.31L167.9,75.85L168.61,85.43L169.32,60.81L170.03,60.81L170.74,69.23L173.59,92.87L174.3,105.26L175.72,90.72L176.43,90.88L177.14,93.36L177.86,102.95L178.57,100.63L179.28,108.24L180.7,115.67L181.41,130.22L182.12,128.56L182.84,143.93L183.55,143.6L184.26,141.95L184.97,143.27L185.68,142.11L186.39,144.92L187.1,85.43L187.82,88.57L188.53,101.79L189.24,103.94L189.95,119.31L190.66,73.53L191.37,81.3L194.22,108.4L194.93,126.42L196.35,66.26L197.06,66.76L199.91,75.02L200.62,81.79L202.04,93.53L202.76,102.62L203.47,55.68L204.18,56.01L204.89,57.67L206.31,61.47L207.02,61.63L208.45,66.26L209.16,63.78L211.29,85.6L212,86.26L212.72,97.83L213.43,67.91L214.14,67.75L214.85,69.07L215.56,67.91L216.27,71.71L217.7,79.81L218.41,84.44L219.12,83.61L219.83,91.21L220.54,93.36L221.25,102.62L222.68,127.41L223.39,64.61L224.1,67.75L224.81,77.33L225.52,85.93L226.23,108.07L226.94,116L227.66,136.33L228.37,81.46L229.08,91.05L229.79,109.72L230.5,63.29L231.92,76.67L232.64,75.51L233.35,77.17L234.06,85.1L235.48,101.79L236.19,58.16L236.9,59.98L237.62,56.68L241.17,69.9L241.88,75.85L242.6,76.51L243.31,74.69L246.15,128.4L246.86,72.37L247.58,77.33L248.29,74.69L249.71,78.32L250.42,77.5L251.13,77.66L251.84,71.71L253.27,82.46L253.98,99.64L254.69,30.23L255.4,36.18L256.11,27.26L256.82,39.16L258.96,42.13L259.67,59.48L261.09,86.92L261.8,54.86L263.23,54.2L263.94,66.43L264.65,68.41L265.36,66.59L266.78,80.31L267.49,78.65L268.21,77.17L268.92,80.8L271.05,88.24L271.76,94.52L273.19,100.63L273.9,126.42L274.61,140.79L275.32,178.64L276.74,42.46L277.45,46.1L278.17,45.77L278.88,49.73L279.59,49.4L280.3,51.72L282.43,69.9L283.15,78.99L283.86,77L284.57,83.28L285.28,81.79L285.99,92.21L287.41,58L288.13,56.68L289.55,63.12L290.26,62.13L290.97,64.94L291.68,81.63L292.39,96.01L293.11,72.71L294.53,77.5L295.24,91.88L296.66,50.56L297.37,55.19L298.09,52.87L298.8,58.66L299.51,71.88L300.22,69.57L300.93,67.91L301.64,71.55L303.07,82.62L303.78,97.66L304.49,115.18L305.2,46.59L305.91,45.77L306.62,47.09L307.33,43.78L308.05,48.91L309.47,50.4L310.18,55.52L313.03,79.48L313.74,56.18L315.16,53.87L315.87,60.81L316.58,62.46L317.29,75.51L318.01,74.36L318.72,79.32L320.14,92.21L320.85,89.4L321.56,90.55L322.27,101.46L322.99,113.03L323.7,68.9L325.12,76.01L325.83,88.07L326.54,92.54L327.25,104.77L327.97,59.65L328.68,62.62L329.39,65.76L330.1,74.85L330.81,50.06L331.52,50.23L332.23,52.54L332.95,54.2L333.66,53.7L335.08,62.46L335.79,61.14L336.5,58.82L337.21,65.6L337.93,67.91L338.64,77.66L339.35,87.58L340.06,84.44L341.48,90.55L342.19,98.16L342.91,123.94L343.62,86.42L344.33,88.74L345.04,87.91L346.46,93.53L347.17,98.16L347.89,117.99L348.6,68.57L350.02,77L350.73,74.36L351.44,80.14L352.15,96.17L352.87,54.53L353.58,55.19L354.29,53.2L355,59.15L355.71,58.66L356.42,59.65L357.13,64.94L358.56,77L359.27,77.83L360.69,85.27L361.4,97.16L362.11,97.83L362.83,104.6L364.25,126.08L364.96,113.52L365.67,57.67L366.38,58.49L367.09,60.64L368.52,76.67L369.23,86.92L369.94,90.72L370.65,102.78L372.07,61.8L372.79,69.07L373.5,77.83L374.21,77.66L374.92,76.18L375.63,86.59L376.34,84.6L377.05,85.1L377.77,97.49L378.48,106.58L379.19,105.59L379.9,119.97L380.61,68.41L381.32,69.73L382.03,69.23L382.75,70.39L383.46,69.9L384.17,71.38L384.88,74.69L385.59,78.49L386.3,86.59L387.73,99.97L388.44,70.56L389.15,66.92L389.86,72.04L391.99,92.87L392.71,92.04L394.84,118.65L395.55,82.46L396.26,82.46L396.97,83.94L398.4,91.38L399.11,93.53L400.53,91.88L401.24,95.02L401.95,109.72L402.67,63.78L403.38,65.1L404.09,68.24L404.8,63.62L405.51,75.51L406.93,87.41L407.65,88.57L408.36,101.46L409.07,58.99L409.78,60.64L410.49,65.93L411.2,68.08L411.91,66.43L412.63,65.1L413.34,65.43L414.76,70.06L415.47,77.17L416.18,76.01L416.89,76.34L417.61,77.83L418.32,81.96L421.16,102.78L421.87,117.49L422.59,82.79L423.3,84.11L424.01,99.15L424.72,50.06L425.43,51.55L426.14,54.53L426.85,57.67L427.57,64.44L428.99,78.49L429.7,78.82L431.12,109.39L431.83,56.18L432.55,53.87L433.26,59.82L433.97,60.15L434.68,62.79L435.39,62.13L436.1,73.04L436.81,71.88L437.53,72.37L438.95,72.71L439.66,80.14L441.08,95.51L441.79,62.96L442.51,61.8L443.22,69.73L446.06,90.06L446.77,99.48L447.48,98.16L448.2,115.01L448.91,127.41L449.62,82.46L450.33,86.26L451.04,84.93L451.75,83.61L452.46,85.76L453.18,85.27L453.89,94.69L454.6,59.48L455.31,67.25L456.73,89.4L457.44,100.63L458.16,94.85L458.87,115.84L459.58,32.55L460.29,41.14L462.42,37.5L463.14,36.84L464.56,45.27L465.27,43.29L465.98,57.34L466.69,56.18L468.12,63.78L468.83,61.8L469.54,59.32L470.25,60.81L473.81,101.96L474.52,92.04L475.23,88.9L475.94,92.87L477.36,104.93L478.08,120.14L478.79,61.63L479.5,68.08L480.21,68.41L480.92,75.51L481.63,78.99L482.34,77L483.06,88.24L483.77,72.54L484.48,80.14L485.19,76.84L486.61,108.73L487.32,50.56L488.04,52.54L488.75,58L489.46,56.84L490.17,61.14L490.88,62.79L491.59,70.56L493.73,116.33L494.44,61.63L495.15,61.3L495.86,65.43L497.28,76.01L498,85.27L499.42,106.58L500.13,104.77L500.84,116.83L501.55,83.28L502.26,81.63L502.98,84.6L503.69,95.35L504.4,75.68L505.11,73.04L505.82,74.19L508.67,92.37L509.38,95.68L510.09,96.34L510.8,98.82L513.65,112.86L514.36,130.38L515.07,129.22L515.78,140.96L516.49,160.62L517.2,90.22L517.92,90.39L518.63,92.04L519.34,88.74L520.05,104.77L520.76,106.58L521.47,120.8L523.61,142.94L524.32,105.43L525.03,102.45L525.74,106.58L527.88,187.4L528.59,182.6L529.3,202.6L530.01,198.96L530.72,198.8L531.43,201.61L532.86,205.41L533.57,223.59L534.28,222.6L534.99,223.59L537.12,215.66L537.84,216.65L538.55,215.66L539.26,212.19L540.68,213.84L541.39,211.36L542.1,209.38L542.82,204.75L544.24,204.75L544.95,206.07L545.66,207.23L546.37,210.7L547.08,211.03L547.8,208.71L548.51,209.87L549.22,208.88L549.93,212.35L550.64,210.37L551.35,214.66L552.06,211.19L552.78,213.01L553.49,212.35L554.2,212.35L554.91,214L555.62,210.7L556.33,215.16L557.76,219.29L558.47,216.81L559.18,217.47L559.89,220.12L560.6,242.1L561.31,149.88L563.45,148.06L564.16,152.2L564.87,158.64L565.58,157.15L567.72,186.57L568.43,158.97L569.14,158.64L569.85,160.95L571.98,185.41L572.7,190.87L574.12,215.49L574.83,182.93L575.54,63.78L576.25,64.11L576.96,66.43L578.39,73.37L579.1,80.64L581.23,101.46L581.94,101.63L582.66,65.27L583.37,66.43L584.08,69.23L584.79,69.9L585.5,76.18L586.92,94.52L587.64,103.44L588.35,64.94L589.06,67.75L590.48,77.66L591.19,90.88L593.33,117.49L594.04,75.51L595.46,91.05L596.17,94.52L598.31,127.57L599.02,77.17L600.44,89.89L601.15,88.41L601.86,106.09L602.58,62.79L603.29,68.57L604,80.64L606.13,135.01L606.84,84.93L608.27,94.35L608.98,94.85L609.69,97.49L610.4,111.05L611.11,45.44L611.82,47.09L612.54,50.89L616.09,82.95L616.8,27.59L618.23,47.92L618.94,46.59L621.78,82.95L622.49,36.68L624.63,57.5L625.34,58.66L626.05,61.8L626.76,78.65L627.47,105.92L628.19,64.94L628.9,62.62L629.61,72.54L630.32,85.6L631.03,48.74L631.74,48.91L632.45,47.92L633.17,55.19L633.88,51.55L634.59,52.05L635.3,61.14L636.01,56.18L636.72,63.62L637.43,74.19L638.15,69.23L638.86,73.04L639.57,85.1L640.99,46.1L641.7,57.01L642.41,58.66L643.13,62.96L644.55,72.21L645.26,70.72L648.11,112.04L648.82,54.86L649.53,61.96L650.24,58.49L652.37,74.52L653.09,75.18L653.8,81.3L654.51,96.17L655.22,113.03L655.93,86.75L656.64,86.42L657.35,89.07L658.78,85.76L659.49,99.31L660.2,36.18L660.91,37.5L661.62,34.37L662.33,34.53L663.05,36.84L663.76,45.44L664.47,43.95L665.89,58.66L666.6,62.96L668.74,76.84L669.45,74.52L670.16,75.51L670.87,80.97L671.58,102.62L672.29,102.12L673.01,100.63L673.72,103.11L674.43,101.46L675.14,109.89L675.85,59.82L677.99,71.88L678.7,71.38L680.83,100.63L681.54,128.89L682.25,120.96L682.97,133.03L684.39,118.98L685.1,136.33L685.81,61.96L686.52,68.57L687.23,69.9L687.95,75.68L688.66,82.13L689.37,53.37L692.21,78.16L692.93,71.55L693.64,69.57L694.35,78.16L695.06,90.72L695.77,46.59L696.48,44.45L697.19,53.54L697.91,52.87L698.62,64.77L699.33,69.9L700.04,37.34L700.75,40.15L701.46,46.26L702.17,50.73L702.89,62.46L704.31,83.12L705.02,38.33L705.73,38.17L706.44,41.14L707.87,43.78L708.58,45.11L709.29,45.77L710,54.53" style="vector-effect: none; fill: none; stroke: rgb(44, 160, 44); stroke-opacity: 1; stroke-width: 2px; opacity: 1;"/></g><g class="points"/><g class="text"/></g><g class="trace scatter tracea2b339" style="stroke-miterlimit: 2; opacity: 1;"><g class="fills"/><g class="errorbars"/><g class="lines"><path class="js-line" d="M0,91.21L0.71,93.86L1.42,83.94L2.13,84.44L2.85,81.13L4.27,77.33L4.98,73.37L5.69,73.7L6.4,71.22L7.11,72.04L7.83,79.48L8.54,80.97L9.25,86.26L12.09,147.07L12.81,166.08L14.23,63.45L14.94,68.08L15.65,72.54L16.36,71.88L17.07,71.22L17.79,73.2L19.92,92.54L20.63,88.57L21.34,89.73L22.05,88.24L23.48,110.38L24.19,61.96L24.9,61.47L25.61,65.76L27.03,75.51L27.75,81.3L28.46,80.14L29.17,93.86L30.59,111.87L31.3,72.04L32.01,72.04L32.73,74.85L33.44,80.97L34.15,79.32L34.86,87.25L35.57,84.93L37.71,106.25L38.42,62.46L39.13,60.15L39.84,67.75L41.26,69.23L41.97,78.82L44.11,101.13L44.82,55.68L46.24,51.88L46.95,54.2L47.67,49.73L48.38,54.69L49.09,53.37L49.8,54.86L51.22,67.75L51.93,64.11L54.07,78.82L54.78,77.33L56.2,109.56L56.91,61.14L57.63,59.98L58.34,62.62L59.76,66.76L60.47,71.05L61.18,68.08L61.89,76.01L63.32,87.41L64.03,99.81L64.74,59.48L65.45,60.97L66.16,63.78L67.59,68.74L68.3,70.72L69.01,70.39L69.72,75.02L70.43,77.17L71.14,84.11L71.85,81.3L72.57,89.4L73.99,97.33L74.7,114.52L76.12,62.46L76.83,67.91L77.55,70.23L78.26,80.97L80.39,98.82L81.1,97.33L81.81,114.52L82.53,79.15L84.66,99.81L85.37,54.36L88.22,79.48L88.93,97.16L89.64,56.18L90.35,57.5L91.06,58.66L93.2,72.71L93.91,75.18L94.62,73.53L95.33,81.13L97.46,103.94L98.18,117.82L99.6,51.06L100.31,64.11L101.02,58L101.73,69.4L104.58,97.33L105.29,103.94L106,101.46L106.71,112.7L107.42,67.91L108.14,86.92L108.85,58.33L109.56,69.57L110.27,74.03L110.98,71.88L111.69,72.87L112.4,70.23L113.12,73.86L113.83,84.6L115.25,45.93L115.96,48.08L117.38,53.54L118.1,62.96L118.81,62.46L119.52,66.59L120.23,77.66L120.94,75.02L121.65,87.74L122.36,38.83L123.08,45.77L123.79,43.12L125.21,63.12L125.92,76.51L126.63,77.83L127.34,89.56L128.06,51.06L128.77,52.21L129.48,53.87L130.19,55.68L130.9,55.19L132.32,64.28L133.04,64.11L133.75,65.93L134.46,65.1L135.17,67.58L135.88,65.1L138.02,74.69L138.73,85.43L139.44,97.16L140.15,93.86L142.28,118.98L143,118.15L144.42,123.61L145.13,123.44L145.84,135.67L146.55,95.51L147.26,97.33L147.98,96.83L148.69,117.49L149.4,112.7L150.11,120.96L150.82,59.98L152.24,72.21L152.96,79.15L154.38,102.45L155.09,50.89L156.51,50.89L157.22,56.18L157.94,57.83L158.65,65.76L159.36,70.72L160.07,81.46L161.49,91.21L162.2,88.07L162.92,105.59L163.63,39.49L165.05,46.59L165.76,43.78L166.47,51.55L167.18,51.06L168.61,57.67L169.32,56.51L170.03,62.46L170.74,76.67L172.16,93.69L172.88,48.41L173.59,48.74L174.3,61.14L176.43,90.88L177.14,91.05L177.86,111.38L178.57,72.54L180.7,88.24L181.41,96.67L182.12,98.32L182.84,106.58L183.55,102.78L184.26,116.5L184.97,114.52L185.68,128.23L186.39,77.83L187.1,91.88L187.82,51.55L188.53,52.54L189.24,53.37L189.95,48.08L190.66,53.7L192.8,79.15L193.51,98.16L194.22,45.27L194.93,46.76L195.64,56.01L196.35,53.87L197.06,55.35L197.78,54.2L198.49,57.5L199.2,67.91L199.91,63.78L201.33,85.27L202.04,63.29L204.18,75.35L204.89,88.41L206.31,116.17L207.02,114.85L207.74,130.22L208.45,82.46L209.16,93.53L209.87,47.92L210.58,49.07L211.29,52.05L212,52.87L212.72,58.82L214.14,66.43L214.85,60.81L215.56,61.8L216.27,70.23L216.98,80.31L217.7,37.5L218.41,40.81L219.12,40.31L222.68,76.84L223.39,45.11L228.37,92.54L229.08,103.94L229.79,58.82L230.5,67.91L231.92,80.8L232.64,77.17L233.35,78.65L234.06,86.59L235.48,105.59L236.19,75.85L237.62,77.5L238.33,79.81L239.75,89.23L240.46,59.82L242.6,77.99L243.31,73.53L244.02,79.81L244.73,43.62L246.86,57.17L247.58,68.08L248.29,70.72L249,66.92L249.71,66.26L250.42,66.76L251.13,68.08L251.84,77L252.56,72.04L253.27,82.79L255.4,121.62L256.11,55.35L256.82,58.16L257.54,54.2L259.67,65.43L260.38,68.74L261.09,74.85L261.8,88.9L263.23,45.77L263.94,47.75L264.65,47.26L265.36,45.77L266.78,53.04L267.49,51.22L268.21,51.06L268.92,54.03L269.63,51.39L270.34,56.18L271.05,53.7L271.76,59.15L273.19,64.61L273.9,76.51L276.74,115.34L277.45,125.92L278.17,92.54L278.88,106.91L280.3,49.57L281.01,44.12L281.72,44.78L282.43,40.98L283.86,42.96L284.57,36.84L287.41,47.42L288.13,43.45L289.55,54.69L290.26,55.02L293.11,90.88L293.82,65.76L295.24,74.85L295.95,83.12L296.66,89.73L297.37,108.9L298.09,58.33L298.8,61.3L299.51,74.52L300.22,70.72L301.64,74.69L302.35,74.52L303.78,85.43L304.49,92.7L305.2,92.04L305.91,92.87L307.33,91.21L308.05,92.37L308.76,99.64L309.47,59.48L310.18,55.35L310.89,62.13L311.6,60.64L312.31,70.89L313.03,76.84L313.74,74.85L315.16,96.01L315.87,59.15L317.29,72.71L318.01,38.99L320.14,61.47L320.85,62.79L321.56,62.79L322.27,69.9L322.99,83.28L323.7,33.54L324.41,36.68L325.12,35.69L325.83,34.7L326.54,43.29L327.25,44.45L327.97,54.86L330.1,79.65L330.81,62.46L331.52,70.23L332.23,68.41L332.95,72.71L333.66,72.21L334.37,72.37L335.08,76.84L336.5,76.51L337.21,83.28L339.35,109.56L340.06,109.06L340.77,111.05L341.48,118.65L342.19,85.1L342.91,101.63L343.62,62.46L344.33,70.23L345.04,79.15L345.75,72.37L347.89,107.24L348.6,58.99L349.31,68.41L350.02,92.21L350.73,34.53L351.44,39.98L352.15,35.85L352.87,47.09L355,65.76L355.71,62.46L356.42,63.12L357.13,68.41L357.85,83.12L358.56,81.3L359.27,81.13L359.98,95.51L360.69,71.71L361.4,79.81L362.11,77.5L362.83,78.16L363.54,77.17L364.25,81.46L366.38,85.43L367.09,93.53L368.52,104.27L369.23,127.24L369.94,87.91L370.65,102.29L371.36,58.82L372.07,58.99L372.79,59.48L373.5,59.15L374.21,64.44L374.92,58.99L375.63,66.92L376.34,71.55L377.05,67.91L378.48,85.76L379.19,43.62L380.61,47.26L381.32,45.11L382.03,46.26L382.75,45.77L383.46,45.44L384.17,47.75L387.73,77.83L388.44,86.59L389.15,89.07L389.86,101.96L390.57,52.05L391.28,61.3L391.99,75.02L392.71,72.54L394.84,97.66L395.55,81.3L396.26,77.99L396.97,80.14L398.4,95.68L399.11,92.87L399.82,91.88L400.53,93.36L401.24,98.82L401.95,121.79L402.67,64.44L403.38,69.73L404.09,70.23L404.8,72.37L405.51,80.64L406.22,40.15L407.65,42.79L408.36,47.75L409.07,50.06L409.78,56.01L410.49,59.65L411.2,58.33L414.05,77.83L414.76,84.93L416.18,103.28L416.89,62.29L418.32,64.61L419.03,69.07L419.74,69.73L420.45,76.34L421.87,85.93L422.59,88.24L423.3,88.07L424.01,103.94L424.72,65.93L425.43,71.22L426.85,97.99L427.57,47.92L428.99,49.73L429.7,45.11L432.55,76.34L433.26,94.19L434.68,42.3L435.39,41.8L436.1,43.12L436.81,40.15L438.24,45.6L438.95,41.31L439.66,43.95L440.37,50.89L441.79,69.23L442.51,80.97L443.22,83.45L443.93,82.46L444.64,87.25L445.35,97.33L446.77,113.36L447.48,117.33L448.91,148.39L449.62,145.59L450.33,143.93L451.04,156.66L451.75,64.28L452.46,68.24L453.18,68.24L454.6,99.64L455.31,55.19L456.02,61.96L456.73,76.01L457.44,90.39L458.16,58.99L458.87,59.15L459.58,63.78L460.29,63.12L461,60.48L462.42,63.78L463.14,67.91L463.85,72.87L464.56,70.06L467.4,98.82L468.12,98.98L468.83,99.64L469.54,97.66L470.25,98.98L470.96,102.62L471.67,105.43L472.38,123.28L473.1,72.87L473.81,76.67L475.23,84.11L475.94,85.93L477.36,103.11L478.08,82.13L478.79,84.6L479.5,49.07L480.21,47.26L480.92,53.54L481.63,53.2L482.34,54.86L483.06,58.16L483.77,66.59L485.9,103.11L486.61,45.77L488.04,47.09L488.75,53.37L490.17,64.28L490.88,61.14L493.02,93.2L493.73,72.54L494.44,79.32L495.15,78.65L496.57,92.37L497.28,100.14L499.42,129.72L500.13,127.08L500.84,140.63L501.55,136.33L502.98,137.82L503.69,146.58L504.4,156.33L505.11,107.58L505.82,106.09L506.53,107.08L507.24,110.38L507.96,107.91L508.67,115.67L509.38,113.36L510.8,113.69L511.51,112.7L512.22,114.85L512.94,122.12L513.65,120.96L514.36,128.73L515.07,129.56L515.78,127.57L517.2,129.22L517.92,127.41L518.63,131.7L519.34,129.39L520.05,138.97L520.76,136.17L522.18,140.46L522.9,105.1L523.61,106.42L524.32,105.92L525.03,108.57L525.74,107.58L526.45,111.87L527.16,108.57L528.59,116L529.3,107.74L531.43,132.36L532.14,125.42L533.57,151.37L534.28,150.21L535.7,150.87L536.41,149.22L537.12,151.37L537.84,167.23L539.26,128.73L539.97,130.05L540.68,130.38L541.39,132.7L542.1,135.83L542.82,134.51L544.24,149.22L544.95,146.08L545.66,146.25L546.37,147.9L548.51,147.73L549.22,146.74L551.35,164.59L552.06,166.08L554.2,167.23L554.91,166.74L556.33,165.25L557.04,182.93L557.76,111.05L558.47,111.21L559.18,111.38L560.6,108.24L561.31,106.42L562.02,109.89L562.74,108.4L563.45,110.55L564.16,106.25L564.87,109.06L565.58,108.73L566.29,108.57L567,106.58L567.72,109.56L568.43,106.91L569.85,108.73L570.56,108.4L571.27,103.61L571.98,107.74L573.41,107.08L574.12,106.09L574.83,107.08L575.54,110.22L576.25,112.04L576.96,111.54L577.68,119.31L578.39,117.99L579.81,118.48L580.52,119.97L581.94,118.15L582.66,127.57L584.08,127.24L584.79,127.57L586.92,128.89L587.64,126.25L589.77,146.41L590.48,145.59L591.19,157.65L591.9,104.6L592.62,105.92L593.33,101.79L595.46,110.88L596.17,109.89L596.88,109.89L597.6,108.24L598.31,115.51L599.02,109.23L599.73,119.31L600.44,117.16L601.15,119.31L601.86,130.38L602.58,124.76L603.29,146.74L604,168.39L604.71,132.2L606.13,141.45L606.84,144.76L607.56,147.73L608.27,154.51L608.98,153.19L609.69,155.17L611.82,181.78L612.54,175L613.96,182.93L614.67,180.12L615.38,197.64L616.09,48.25L616.8,49.07L617.52,55.35L618.23,60.48L618.94,58.99L620.36,71.88L621.07,40.31L622.49,51.72L623.21,46.59L623.92,51.88L624.63,49.4L626.05,61.63L626.76,78.49L628.19,104.77L628.9,59.65L629.61,59.48L630.32,65.1L631.03,66.92L631.74,76.84L632.45,74.36L633.17,85.1L635.3,103.28L636.01,67.09L636.72,65.76L637.43,72.37L638.15,75.51L638.86,75.18L639.57,78.49L640.28,96.67L640.99,52.05L641.7,63.12L642.41,62.79L643.13,69.9L643.84,71.05L644.55,79.65L645.26,51.39L645.97,53.7L647.39,55.68L648.11,58L648.82,59.48L649.53,63.12L650.95,67.58L651.66,83.45L653.09,96.67L653.8,112.2L654.51,64.61L655.22,72.71L655.93,69.23L656.64,74.03L657.35,71.88L658.07,84.93L658.78,41.14L659.49,44.94L660.91,53.37L661.62,52.71L665.18,90.55L665.89,101.3L666.6,114.85L667.31,100.97L668.03,97.49L668.74,103.28L669.45,102.95L670.16,103.94L672.29,131.87L673.01,130.05L673.72,129.89L674.43,131.87L675.14,146.91L675.85,89.4L677.99,102.78L678.7,100.63L680.83,126.25L681.54,145.92L682.25,123.44L682.97,59.98L685.81,83.94L686.52,96.67L687.23,99.48L687.95,114.85L688.66,101.46L689.37,112.2L690.79,129.22L691.5,126.42L692.21,142.78L692.93,107.74L693.64,104.6L694.35,110.38L695.06,65.93L695.77,72.21L697.91,78.82L698.62,88.24L700.04,100.97L700.75,115.51L701.46,62.96L702.17,67.42L702.89,66.26L703.6,67.25L705.02,72.71L705.73,70.72L707.15,80.64L707.87,80.8L709.29,78.49L710,92.04" style="vector-effect: none; fill: none; stroke: rgb(214, 39, 40); stroke-opacity: 1; stroke-width: 2px; opacity: 1;"/></g><g class="points"/><g class="text"/></g><g class="trace scatter tracef7531a" style="stroke-miterlimit: 2; opacity: 1;"><g class="fills"/><g class="errorbars"/><g class="lines"><path class="js-line" d="M0,91.21L0.71,93.86L1.42,83.94L2.13,84.44L2.85,81.13L4.27,77.33L4.98,73.37L5.69,73.7L6.4,71.22L7.11,72.04L7.83,79.48L8.54,80.97L9.25,86.26L12.09,147.07L12.81,166.08L14.23,63.45L14.94,68.08L15.65,72.54L16.36,71.88L17.07,71.22L17.79,73.2L19.92,92.54L20.63,88.57L21.34,89.73L22.05,88.24L23.48,110.38L24.19,61.96L24.9,61.47L25.61,65.76L27.03,75.51L27.75,81.3L28.46,80.14L29.17,93.86L30.59,111.87L31.3,77.83L32.01,76.84L32.73,80.31L34.15,90.88L34.86,93.36L36.99,103.11L37.71,116.5L39.13,69.57L39.84,76.84L40.55,76.51L41.26,75.02L44.11,112.86L44.82,58.82L45.53,61.14L46.24,58.49L46.95,61.14L47.67,54.53L48.38,55.02L49.09,50.23L49.8,52.54L50.51,50.56L51.22,53.54L51.93,52.38L53.36,54.03L54.07,58.49L54.78,60.97L55.49,68.24L56.91,74.36L57.63,74.36L59.05,94.52L59.76,92.04L60.47,109.06L61.18,63.45L61.89,61.47L62.61,64.44L64.03,68.24L64.74,79.98L68.3,111.54L69.01,113.52L69.72,113.69L70.43,131.04L71.14,65.1L71.85,66.1L72.57,73.7L73.28,74.19L73.99,72.21L75.41,77.17L76.12,76.18L76.83,83.12L77.55,80.64L78.97,102.62L79.68,102.12L80.39,111.71L81.1,74.03L81.81,81.96L82.53,99.31L83.24,68.08L83.95,68.74L84.66,73.86L87.51,97.49L88.22,108.07L88.93,125.42L89.64,70.56L90.35,70.89L91.06,78.16L93.91,103.94L94.62,102.45L96.04,113.36L96.75,120.96L98.18,150.54L98.89,92.04L99.6,94.02L100.31,109.39L101.02,49.57L101.73,52.71L102.44,58.16L103.16,64.28L103.87,63.45L104.58,61.63L105.29,71.71L106,72.04L106.71,83.28L107.42,95.02L108.14,34.86L108.85,39.98L109.56,37.17L110.27,46.1L110.98,45.11L111.69,49.24L112.4,47.75L113.12,47.09L113.83,53.37L114.54,61.47L115.25,80.8L116.67,49.73L117.38,53.54L118.1,52.71L118.81,50.4L119.52,51.39L120.23,57.01L120.94,56.34L121.65,59.32L122.36,58.66L123.08,66.92L123.79,61.3L124.5,69.4L125.21,77.5L125.92,96.01L126.63,97.99L127.34,113.69L128.06,61.14L128.77,65.27L130.19,77.66L130.9,79.65L131.61,80.64L132.32,86.26L133.04,61.96L133.75,69.57L135.17,71.05L135.88,78.65L136.59,93.03L137.3,204.42L138.02,194.01L138.73,92.21L140.15,98.32L140.86,98.16L141.57,103.77L142.28,102.95L143.71,112.04L144.42,113.52L145.13,112.2L145.84,122.78L147.26,134.18L147.98,88.9L148.69,61.3L149.4,61.96L150.11,60.81L150.82,59.65L151.53,61.63L153.67,77.66L154.38,87.25L155.09,92.54L155.8,108.4L157.22,60.15L157.94,65.93L160.07,98.49L160.78,59.65L161.49,60.31L162.2,62.13L163.63,60.15L164.34,60.81L165.05,57.67L165.76,59.65L166.47,62.29L167.18,60.97L168.61,69.4L169.32,72.21L170.03,74.85L170.74,94.19L172.16,117.82L172.88,71.22L173.59,70.23L174.3,79.65L175.01,48.41L175.72,50.06L176.43,57.34L177.14,59.65L177.86,71.05L179.28,95.35L179.99,55.19L181.41,59.48L182.12,57.34L182.84,64.77L183.55,62.96L184.26,69.23L184.97,66.26L185.68,73.86L186.39,72.21L188.53,118.48L189.24,67.09L190.66,85.1L191.37,84.93L192.08,81.63L192.8,85.93L193.51,98.16L194.22,61.3L194.93,63.78L195.64,71.71L196.35,73.7L197.06,70.06L197.78,66.26L198.49,79.32L199.2,91.21L199.91,89.73L200.62,106.91L201.33,52.87L202.04,51.06L202.76,54.69L205.6,67.75L206.31,73.04L207.02,73.7L207.74,87.25L208.45,47.75L209.16,48.41L209.87,48.41L210.58,49.24L211.29,53.7L212,50.89L212.72,55.35L214.14,63.95L214.85,62.96L215.56,66.26L216.27,76.34L217.7,95.84L218.41,56.18L219.12,56.01L219.83,58.82L220.54,56.51L221.25,58.82L224.1,89.4L224.81,62.62L227.66,99.31L228.37,103.28L229.08,110.38L229.79,131.37L231.21,33.7L231.92,38.83L232.64,33.54L233.35,36.84L234.77,47.59L235.48,56.18L236.19,65.76L236.9,44.61L238.33,41.14L239.04,45.93L239.75,51.55L240.46,50.4L241.88,69.9L242.6,67.25L243.31,63.78L244.02,77.17L244.73,99.31L245.44,51.55L246.15,53.87L246.86,61.14L248.29,79.15L249,80.64L250.42,77.5L251.13,79.98L251.84,90.39L252.56,88.74L253.27,99.31L253.98,130.71L254.69,44.78L255.4,46.26L256.11,50.56L256.82,56.51L257.54,53.04L258.96,64.28L259.67,70.39L261.09,93.36L261.8,34.53L263.23,44.28L263.94,58.49L266.07,74.69L266.78,73.7L267.49,74.69L268.21,73.04L268.92,86.92L269.63,81.3L271.76,106.75L272.47,56.01L273.19,54.2L273.9,66.26L276.74,109.39L277.45,57.67L278.17,55.85L278.88,65.27L279.59,60.81L280.3,72.87L281.01,83.61L281.72,45.11L283.15,56.18L283.86,59.82L284.57,67.58L285.28,66.76L286.7,82.95L287.41,40.15L288.84,45.77L289.55,45.6L290.97,58.16L291.68,81.79L292.39,87.41L293.11,99.15L293.82,107.08L294.53,81.46L295.24,85.76L295.95,84.6L297.37,94.19L298.09,102.45L298.8,120.96L299.51,79.32L300.93,26.27L301.64,28.25L303.07,32.88L303.78,42.3L304.49,47.26L305.2,45.77L305.91,46.76L306.62,49.9L307.33,44.12L308.05,47.92L309.47,63.45L310.18,75.02L310.89,38.66L311.6,39.82L312.31,39.32L313.74,42.63L314.45,47.42L315.87,63.45L316.58,59.32L318.72,103.44L319.43,41.64L320.14,47.26L320.85,44.94L322.27,44.61L322.99,54.69L324.41,67.25L325.12,81.13L326.54,46.26L327.25,57.83L327.97,58.49L328.68,64.11L330.81,81.46L331.52,91.88L332.23,50.06L332.95,58.49L333.66,55.68L334.37,57.34L335.79,68.9L336.5,66.26L337.21,78.16L337.93,32.05L338.64,31.06L339.35,32.38L340.06,31.56L340.77,33.21L341.48,32.71L342.19,38.66L342.91,44.61L343.62,56.84L345.04,72.71L345.75,71.38L347.17,93.69L347.89,113.03L348.6,54.36L349.31,59.82L350.73,71.71L351.44,27.92L352.15,28.25L352.87,33.21L355,60.48L355.71,61.96L356.42,60.31L357.13,68.24L357.85,88.74L358.56,58.16L359.27,57.01L359.98,61.14L360.69,62.79L361.4,75.02L362.11,72.37L362.83,77.17L363.54,81.79L364.25,91.88L364.96,53.87L365.67,56.18L366.38,57.5L367.09,70.39L367.81,38.33L368.52,42.46L372.79,97.33L373.5,52.71L374.92,53.87L375.63,57.01L376.34,54.69L377.05,57.01L378.48,70.89L379.19,74.03L379.9,78.49L380.61,92.7L382.03,42.46L382.75,45.6L383.46,45.93L384.17,43.62L384.88,45.27L385.59,52.05L387.01,67.91L387.73,54.36L388.44,51.39L389.15,53.04L393.42,99.15L394.13,104.93L394.84,69.73L395.55,82.13L396.26,34.2L396.97,37.34L397.69,33.87L398.4,37.5L399.11,36.35L399.82,33.7L401.95,48.41L402.67,44.61L403.38,52.87L404.09,51.55L404.8,52.71L405.51,58L406.93,86.92L407.65,85.93L408.36,108.9L409.07,58.16L410.49,72.04L411.2,69.73L412.63,83.28L413.34,83.12L414.05,84.93L414.76,95.35L415.47,53.7L416.18,58.82L416.89,57.17L419.03,82.46L419.74,42.46L420.45,47.75L421.16,43.29L421.87,44.78L422.59,42.79L423.3,45.6L424.01,52.21L426.14,60.97L426.85,66.76L428.99,94.85L429.7,56.68L430.41,56.18L431.12,59.82L431.83,60.15L432.55,62.62L433.26,71.71L433.97,69.9L434.68,88.07L435.39,86.59L436.1,107.58L436.81,78.16L437.53,80.64L438.24,76.84L439.66,81.13L440.37,84.27L441.08,87.41L441.79,104.93L442.51,64.44L443.22,70.89L443.93,85.76L444.64,40.81L445.35,41.14L446.06,44.45L446.77,51.55L447.48,47.59L448.91,66.26L449.62,68.74L450.33,67.25L451.04,73.04L452.46,91.55L453.18,42.96L455.31,70.56L456.02,74.03L456.73,93.2L457.44,60.97L458.16,61.47L458.87,68.24L459.58,76.67L460.29,35.85L461,40.64L461.71,39.98L462.42,40.48L463.14,38.33L463.85,41.97L464.56,41.14L465.98,38.5L466.69,39.32L467.4,39.16L468.12,37.17L468.83,38.17L469.54,41.64L470.25,38.99L470.96,46.76L471.67,44.45L472.38,49.57L473.81,53.54L474.52,66.43L475.23,63.45L475.94,70.89L477.36,87.08L478.08,109.23L478.79,83.94L479.5,89.07L480.21,85.1L480.92,89.23L481.63,91.71L482.34,90.39L483.77,105.43L484.48,130.38L485.19,24.78L485.9,25.61L486.61,26.1L487.32,21.81L488.04,23.62L489.46,35.85L490.17,39.32L490.88,42.79L491.59,50.4L493.02,71.71L493.73,28.58L495.15,35.85L495.86,38.66L496.57,40.31L497.28,46.43L500.13,70.06L500.84,76.84L501.55,78.16L502.26,46.76L502.98,48.91L503.69,59.65L505.82,84.27L506.53,31.39L507.24,33.87L507.96,43.45L508.67,53.54L509.38,51.39L512.94,74.85L513.65,75.85L514.36,96.5L515.07,96.17L515.78,107.24L516.49,71.71L517.2,73.53L517.92,76.34L519.34,82.46L520.05,99.64L520.76,82.46L521.47,89.23L523.61,110.72L524.32,68.57L525.03,69.4L525.74,67.25L526.45,67.58L527.16,66.92L527.88,69.23L528.59,67.75L529.3,67.75L530.01,69.4L532.14,85.1L532.86,98.82L534.28,115.18L534.99,129.56L536.41,87.74L537.12,86.59L537.84,95.18L538.55,94.35L539.26,95.68L539.97,95.35L541.39,96.5L542.1,107.24L542.82,107.41L543.53,122.45L544.24,73.7L544.95,78.99L546.37,90.88L547.08,90.06L547.8,91.21L548.51,102.29L549.93,67.58L550.64,70.56L552.06,70.89L552.78,69.07L553.49,69.07L554.2,71.55L555.62,73.86L556.33,73.7L557.76,84.6L558.47,81.3L559.18,84.27L559.89,96.01L561.31,113.19L562.02,112.86L562.74,114.52L563.45,123.44L564.16,140.46L564.87,90.22L565.58,89.4L566.29,92.7L567,92.21L567.72,94.02L568.43,93.69L569.14,102.45L569.85,108.07L570.56,120.96L571.98,95.02L572.7,97.66L573.41,98.98L574.12,106.58L574.83,125.09L575.54,98.49L576.25,97.99L576.96,98.49L578.39,119.14L579.1,65.27L581.23,81.96L581.94,81.46L583.37,99.64L584.08,65.6L584.79,66.92L585.5,72.04L586.21,73.04L586.92,77.66L589.06,93.53L589.77,102.45L590.48,119.31L591.19,76.84L593.33,84.6L594.04,91.71L596.88,142.28L597.6,80.31L598.31,76.67L599.02,81.63L599.73,84.44L600.44,93.86L601.15,91.38L601.86,103.44L602.58,67.58L603.29,74.19L604,78.99L604.71,89.23L605.42,110.22L606.13,59.15L608.27,72.71L608.98,70.39L609.69,77.99L610.4,95.51L611.11,108.57L611.82,107.24L613.25,128.07L613.96,142.94L614.67,107.41L615.38,124.76L616.8,71.38L617.52,70.56L618.94,70.72L619.65,71.55L621.78,90.22L622.49,89.56L623.92,87.08L624.63,88.57L625.34,89.89L626.05,97L626.76,105.92L627.47,83.61L628.19,84.6L628.9,84.11L629.61,93.36L630.32,93.2L631.03,100.3L633.17,125.09L633.88,84.27L634.59,83.45L635.3,88.57L636.72,99.64L637.43,116.33L638.86,129.72L639.57,127.74L640.28,136.33L640.99,135.5L642.41,145.59L643.13,145.25L644.55,145.59L645.26,148.39L645.97,148.56L646.68,152.69L648.82,159.8L649.53,168.06L650.95,176.16L651.66,196.16L653.09,55.68L653.8,58.16L654.51,58.49L655.22,61.3L655.93,67.09L656.64,64.77L658.78,69.57L659.49,80.64L661.62,93.03L662.33,101.79L663.05,119.14L663.76,88.24L664.47,88.57L665.18,95.02L665.89,94.69L666.6,90.55L667.31,91.05L668.03,89.4L668.74,87.58L669.45,88.74L670.16,85.93L670.87,86.42L671.58,103.77L672.29,70.89L673.01,66.92L673.72,68.08L674.43,68.24L675.14,77.17L677.99,116.83L678.7,70.72L679.41,74.36L680.12,72.87L680.83,74.03L681.54,79.98L682.25,81.63L682.97,88.24L684.39,95.02L685.1,112.53L685.81,102.12L686.52,106.09L687.23,107.24L687.95,114.19L688.66,122.45L689.37,141.95L690.08,113.86L690.79,114.19L691.5,116.5L692.21,116.5L692.93,117.66L694.35,122.45L695.06,131.54L695.77,134.18L696.48,129.72L697.19,132.53L697.91,141.62L698.62,154.34L699.33,101.46L700.04,105.1L700.75,97.99L702.17,103.11L702.89,105.59L703.6,102.95L704.31,109.06L705.02,108.57L705.73,109.23L706.44,111.38L707.15,110.55L707.87,111.87L708.58,108.4L709.29,108.24L710,116.33" style="vector-effect: none; fill: none; stroke: rgb(148, 103, 189); stroke-opacity: 1; stroke-width: 2px; opacity: 1;"/></g><g class="points"/><g class="text"/></g><g class="trace scatter trace47b9bc" style="stroke-miterlimit: 2; opacity: 1;"><g class="fills"/><g class="errorbars"/><g class="lines"><path class="js-line" d="M0,91.21L0.71,93.86L1.42,83.94L2.13,84.44L2.85,81.13L4.27,77.33L4.98,73.37L5.69,73.7L6.4,71.22L7.11,72.04L7.83,79.48L8.54,80.97L9.25,86.26L12.09,147.07L12.81,166.08L14.23,63.45L14.94,68.08L15.65,72.54L16.36,71.88L17.07,71.22L17.79,73.2L19.92,92.54L20.63,88.57L21.34,89.73L22.05,88.24L23.48,110.38L24.19,61.96L24.9,61.47L25.61,65.76L27.03,75.51L27.75,81.3L28.46,80.14L29.17,93.86L30.59,111.87L31.3,75.18L32.01,72.87L32.73,76.34L33.44,82.62L34.15,81.46L36.28,88.24L36.99,86.92L37.71,100.63L38.42,52.71L39.13,52.54L39.84,58.99L40.55,57.01L41.26,57.5L42.69,77.5L43.4,73.37L44.11,87.25L44.82,82.29L45.53,86.26L46.24,78.65L47.67,94.35L48.38,43.62L49.09,43.95L49.8,45.77L51.22,53.54L51.93,52.54L55.49,78.65L56.2,97L57.63,52.05L58.34,52.54L59.05,49.9L59.76,54.69L61.18,53.87L61.89,58.99L64.03,75.68L64.74,84.6L65.45,95.84L66.16,44.28L66.87,48.08L67.59,46.76L69.01,53.54L69.72,52.71L70.43,54.53L71.14,61.14L72.57,62.46L73.28,62.46L75.41,94.85L76.12,59.48L76.83,62.13L77.55,61.8L78.97,74.36L79.68,74.69L81.1,79.48L81.81,92.37L83.24,120.47L83.95,55.35L85.37,63.95L86.08,63.95L90.35,115.67L91.06,76.67L91.77,93.36L92.48,57.5L93.2,55.52L93.91,59.15L94.62,58L95.33,61.47L98.18,90.39L98.89,90.55L100.31,101.96L101.02,110.05L101.73,46.92L102.44,54.53L103.16,57.5L103.87,52.87L104.58,53.2L105.29,62.62L106,65.43L106.71,71.38L108.14,94.52L108.85,53.7L109.56,53.04L110.27,54.36L111.69,58L112.4,53.37L113.83,63.45L114.54,63.12L116.67,79.48L117.38,77.83L118.1,90.88L118.81,90.55L119.52,102.45L120.94,50.73L121.65,55.02L123.79,63.45L124.5,70.39L126.63,86.92L127.34,92.7L128.06,103.61L128.77,58L129.48,57.5L130.19,62.29L131.61,59.65L132.32,66.92L133.04,69.57L133.75,78.16L135.17,77.5L135.88,84.44L138.02,101.46L138.73,119.64L140.15,99.97L140.86,106.75L144.42,141.29L145.13,72.04L145.84,81.96L146.55,52.54L147.26,52.71L147.98,59.65L149.4,65.43L150.11,66.76L152.24,90.22L152.96,98.65L154.38,119.64L155.09,69.57L155.8,67.42L156.51,67.75L159.36,109.89L160.07,81.96L160.78,92.87L161.49,36.68L162.2,34.7L162.92,41.31L165.05,59.98L165.76,57.83L166.47,67.42L167.18,66.43L167.9,65.27L168.61,74.69L169.32,75.51L170.03,83.61L170.74,63.95L171.45,70.72L172.16,74.36L172.88,73.2L175.01,96.83L175.72,57.34L176.43,51.39L177.14,52.87L177.86,51.39L178.57,54.86L179.99,59.65L180.7,64.94L182.84,78.82L183.55,80.14L185.68,102.95L186.39,41.31L187.82,46.1L188.53,55.85L189.24,50.56L189.95,60.48L191.37,67.42L192.08,71.55L193.51,91.71L194.22,90.55L195.64,104.44L196.35,102.95L197.06,103.61L197.78,101.63L198.49,110.05L199.2,77.83L199.91,77.83L200.62,80.8L201.33,99.31L202.04,51.72L203.47,65.93L204.18,63.45L204.89,77L205.6,18.5L207.02,25.44L207.74,25.44L208.45,26.93L209.16,31.39L211.29,59.15L212,58.49L213.43,77.99L214.14,42.3L214.85,40.64L215.56,42.3L216.98,54.2L217.7,60.15L219.83,74.52L220.54,72.71L221.96,90.06L222.68,50.4L224.1,46.76L224.81,54.69L226.23,72.21L226.94,57.67L227.66,55.68L228.37,62.96L231.21,103.28L231.92,44.45L232.64,40.98L233.35,45.93L234.06,44.94L234.77,49.57L235.48,51.22L236.19,61.96L236.9,61.3L237.62,64.44L238.33,69.9L239.04,82.79L239.75,57.17L240.46,61.14L242.6,76.01L243.31,75.18L245.44,115.18L246.15,70.89L246.86,75.68L247.58,89.89L249.71,94.35L250.42,90.22L251.13,90.72L251.84,96.67L252.56,97.16L253.27,110.05L253.98,136.17L254.69,68.08L256.82,106.75L257.54,43.29L258.25,43.12L258.96,43.95L259.67,49.07L260.38,60.15L261.09,62.46L261.8,70.72L263.23,51.55L263.94,60.64L265.36,64.11L266.07,71.38L266.78,72.21L267.49,69.23L269.63,72.71L270.34,78.82L271.05,80.14L271.76,84.77L273.19,92.87L273.9,110.38L274.61,115.34L275.32,139.97L276.74,28.58L277.45,33.87L278.88,29.41L279.59,32.55L280.3,35.52L281.01,45.6L283.15,61.63L283.86,21.31L285.28,23.13L285.99,27.42L286.7,30.73L287.41,39.98L288.13,39.65L288.84,35.69L290.26,47.92L290.97,58.33L291.68,69.23L292.39,49.9L293.11,49.4L293.82,46.43L295.24,62.13L295.95,60.64L298.09,81.3L298.8,94.35L299.51,119.14L300.22,65.43L301.64,61.63L302.35,61.63L304.49,78.99L305.2,79.15L305.91,76.51L306.62,77.66L307.33,75.35L308.05,79.81L309.47,97.33L310.18,108.57L310.89,124.1L311.6,67.91L313.03,66.76L313.74,62.79L314.45,67.25L315.16,66.92L317.29,108.9L318.01,76.01L319.43,100.14L320.14,68.74L320.85,70.06L321.56,68.41L324.41,103.11L325.12,121.13L326.54,51.55L327.25,55.02L327.97,50.89L328.68,51.72L330.1,55.68L330.81,54.86L331.52,54.03L332.23,56.01L332.95,55.35L333.66,56.51L334.37,55.35L335.08,58.99L335.79,55.35L336.5,58.82L337.93,63.29L338.64,68.41L340.06,76.18L340.77,74.19L342.19,83.94L342.91,100.14L344.33,132.86L345.04,83.12L345.75,84.77L346.46,84.11L347.17,85.43L347.89,103.94L348.6,63.95L349.31,68.24L350.73,67.42L351.44,73.7L352.87,92.37L353.58,52.21L355,52.05L355.71,51.06L357.85,59.82L358.56,59.15L359.98,59.65L360.69,60.97L362.83,70.39L363.54,77.33L366.38,101.13L367.09,119.31L367.81,90.39L368.52,100.3L369.23,120.14L369.94,86.59L370.65,59.98L371.36,65.6L373.5,89.73L374.21,53.7L375.63,53.04L376.34,54.2L377.05,54.53L377.77,58.33L378.48,61.14L379.19,59.48L381.32,81.96L382.03,58L382.75,60.97L383.46,58.82L384.17,58.82L384.88,63.12L385.59,62.46L386.3,65.43L388.44,85.27L389.15,83.94L389.86,99.97L390.57,49.57L391.28,47.09L391.99,53.7L394.84,63.78L395.55,76.67L396.26,75.35L396.97,84.93L397.69,94.52L398.4,91.38L399.11,91.71L399.82,91.21L400.53,89.07L401.24,101.13L402.67,72.71L403.38,76.51L404.09,76.84L404.8,81.46L405.51,83.12L406.22,97.49L406.93,104.6L407.65,103.94L408.36,123.28L409.07,98.98L409.78,95.68L410.49,111.54L411.91,63.78L412.63,63.29L413.34,65.43L414.05,64.44L415.47,61.8L416.18,63.78L418.32,78.16L419.03,86.59L419.74,85.6L420.45,86.26L421.87,109.39L422.59,64.44L423.3,65.1L424.01,71.05L426.14,75.02L426.85,80.31L429.7,108.07L430.41,123.44L431.83,65.76L432.55,71.71L433.26,76.84L433.97,75.35L436.1,106.25L436.81,105.1L438.24,103.28L438.95,104.77L440.37,124.43L441.08,143.27L442.51,79.15L443.22,80.8L443.93,78.32L444.64,80.8L447.48,95.35L448.2,110.22L448.91,115.51L449.62,115.34L450.33,116L451.75,142.11L452.46,83.94L453.18,83.78L453.89,92.04L457.44,136.17L458.16,132.7L458.87,147.9L459.58,116.33L460.29,120.63L461,119.14L461.71,122.12L462.42,121.79L463.14,121.29L463.85,139.64L464.56,77.83L465.27,78.49L465.98,83.12L468.12,89.73L468.83,88.57L469.54,90.39L470.25,88.41L470.96,95.02L471.67,93.86L474.52,127.9L475.23,129.39L476.65,150.54L477.36,153.52L478.79,102.78L479.5,102.62L480.21,104.93L480.92,101.96L483.77,103.94L484.48,121.62L485.9,88.41L486.61,91.38L487.32,89.89L488.04,93.69L489.46,109.72L490.17,114.19L490.88,114.19L491.59,121.13L493.02,151.87L493.73,108.07L495.15,113.19L495.86,115.18L496.57,116.33L497.28,131.21L498,135.01L498.71,151.04L499.42,81.79L500.13,85.27L500.84,90.88L501.55,87.91L502.26,93.03L502.98,96.01L503.69,51.06L504.4,51.55L505.11,54.53L507.24,70.72L507.96,83.78L509.38,29.24L510.09,38L510.8,35.52L511.51,38.66L512.22,40.48L512.94,35.85L515.78,51.22L516.49,58.99L517.2,66.59L517.92,60.48L518.63,78.99L519.34,24.61L520.05,36.02L520.76,35.85L521.47,38.99L522.18,41.14L522.9,39.98L524.32,53.87L525.03,54.2L525.74,55.52L526.45,73.04L527.16,80.47L527.88,34.7L529.3,40.64L530.01,51.22L532.86,83.12L533.57,106.09L534.28,78.82L534.99,85.27L535.7,61.96L536.41,66.59L537.12,65.6L537.84,68.08L539.26,71.22L539.97,73.04L542.82,89.07L543.53,105.26L544.24,121.95L544.95,76.84L545.66,74.03L546.37,76.34L547.8,75.68L548.51,78.82L549.22,78.82L549.93,85.76L550.64,82.79L551.35,97.16L552.06,103.61L552.78,102.62L553.49,106.09L554.2,114.85L554.91,127.41L555.62,87.25L556.33,85.1L557.04,99.97L557.76,52.21L558.47,52.71L559.18,51.39L559.89,58.82L560.6,58.49L561.31,65.1L562.02,62.62L562.74,64.94L563.45,68.57L564.16,78.99L565.58,82.62L566.29,97.16L567.72,36.68L568.43,38.17L571.27,51.22L571.98,50.06L574.83,85.76L575.54,56.01L576.96,57.5L577.68,65.43L578.39,62.79L579.1,64.28L579.81,70.56L580.52,69.07L581.23,64.61L581.94,66.26L583.37,89.4L584.08,88.41L584.79,91.55L585.5,107.08L586.21,110.22L586.92,71.05L587.64,71.38L588.35,85.93L589.06,86.75L589.77,117.33L590.48,75.51L591.19,81.96L592.62,113.36L593.33,50.06L594.04,48.58L594.75,52.05L597.6,81.63L598.31,96.5L599.02,49.9L599.73,57.17L600.44,56.51L601.15,58.66L603.29,77.99L604,90.39L605.42,128.07L606.13,81.46L606.84,79.65L607.56,101.79L608.27,30.4L608.98,32.22L609.69,37.67L611.11,53.04L611.82,58.99L612.54,63.95L613.25,74.52L613.96,88.41L614.67,46.92L616.8,57.34L617.52,66.76L620.36,94.52L621.07,111.87L621.78,54.53L622.49,54.86L623.21,58.49L623.92,59.65L624.63,62.96L625.34,62.79L626.05,63.95L628.19,86.26L628.9,87.08L631.03,111.54L631.74,128.56L632.45,78.65L633.17,79.15L633.88,82.46L636.01,84.93L636.72,92.54L638.15,108.73L638.86,73.7L640.28,93.36L640.99,39.49L641.7,40.81L642.41,39.49L643.84,37.01L644.55,38.17L645.26,35.03L645.97,38.83L648.11,51.72L648.82,46.43L653.09,94.85L653.8,62.62L655.93,89.73L656.64,88.41L657.35,83.94L658.07,99.15L658.78,49.9L659.49,57.01L660.2,57.34L660.91,59.82L661.62,65.27L662.33,76.67L663.76,93.03L664.47,92.21L665.18,119.47L665.89,57.01L666.6,56.68L667.31,62.96L668.03,59.98L668.74,70.56L669.45,71.22L670.16,69.4L670.87,78.49L671.58,97.83L673.01,95.02L673.72,95.51L674.43,97.16L675.14,107.41L676.56,65.27L677.27,69.73L677.99,69.9L678.7,71.55L679.41,75.35L680.12,83.78L681.54,119.31L682.25,89.23L682.97,60.31L683.68,63.62L684.39,64.11L685.1,71.22L685.81,69.23L686.52,79.32L687.23,80.64L687.95,94.52L690.08,111.05L690.79,124.43L691.5,120.63L692.21,137.49L692.93,150.21L693.64,99.64L694.35,102.29L695.06,50.56L695.77,52.38L696.48,51.22L697.19,52.38L697.91,57.34L700.75,86.92L701.46,108.73L703.6,151.37L704.31,104.1L706.44,99.31L707.15,101.79L707.87,100.63L708.58,102.29L709.29,101.3L710,119.47" style="vector-effect: none; fill: none; stroke: rgb(140, 86, 75); stroke-opacity: 1; stroke-width: 2px; opacity: 1;"/></g><g class="points"/><g class="text"/></g><g class="trace scatter traced84eef" style="stroke-miterlimit: 2; opacity: 1;"><g class="fills"/><g class="errorbars"/><g class="lines"><path class="js-line" d="M0,91.21L0.71,93.86L1.42,83.94L2.13,84.44L2.85,81.13L4.27,77.33L4.98,73.37L5.69,73.7L6.4,71.22L7.11,72.04L7.83,79.48L8.54,80.97L9.25,86.26L12.09,147.07L12.81,166.08L14.23,63.45L14.94,68.08L15.65,72.54L16.36,71.88L17.07,71.22L17.79,73.2L19.92,92.54L20.63,88.57L21.34,89.73L22.05,88.24L23.48,110.38L24.19,61.96L24.9,61.47L25.61,65.76L27.03,75.51L27.75,81.3L28.46,80.14L29.17,93.86L30.59,111.87L31.3,84.27L32.01,81.96L32.73,83.94L34.15,91.05L34.86,89.4L36.28,94.52L36.99,93.86L37.71,106.91L38.42,67.25L39.13,67.42L39.84,71.05L40.55,68.9L41.26,72.37L42.69,84.93L43.4,83.28L44.11,91.21L44.82,90.88L45.53,91.38L46.95,97L47.67,106.58L48.38,122.12L49.09,70.23L51.93,84.93L52.65,88.41L53.36,88.57L54.07,94.85L55.49,111.21L56.2,82.95L56.91,90.88L57.63,88.57L58.34,83.45L59.05,87.25L59.76,84.6L60.47,87.41L61.18,84.77L61.89,85.76L62.61,84.77L63.32,85.1L64.03,88.57L64.74,100.97L66.87,126.75L67.59,125.75L68.3,140.96L69.01,92.37L69.72,92.37L70.43,96.83L71.85,99.31L72.57,110.38L73.28,55.35L73.99,61.47L74.7,64.94L75.41,74.03L76.12,73.53L76.83,86.26L78.26,39.65L78.97,38.17L80.39,45.11L81.1,40.15L83.24,52.54L83.95,51.39L86.08,71.55L86.79,78.65L87.51,88.24L88.22,110.72L88.93,53.2L89.64,56.34L90.35,65.93L92.48,84.93L93.2,94.52L93.91,80.31L94.62,46.26L95.33,46.92L96.04,49.9L97.46,56.84L98.18,60.64L98.89,62.13L99.6,73.04L100.31,70.06L101.02,79.15L101.73,96.5L102.44,52.87L103.87,56.68L104.58,53.37L105.29,59.15L106,56.18L108.14,74.69L108.85,83.12L109.56,49.9L110.27,52.21L110.98,54.2L111.69,52.87L112.4,51.72L113.12,52.87L113.83,59.48L114.54,58.82L115.25,75.02L115.96,73.53L118.1,94.69L118.81,46.43L119.52,47.59L120.23,52.54L120.94,56.51L121.65,55.85L122.36,54.86L123.08,59.98L125.21,76.34L125.92,89.89L127.34,95.02L128.06,103.11L128.77,65.1L129.48,69.4L130.19,77.5L130.9,71.55L131.61,73.2L132.32,84.11L134.46,100.3L135.17,99.97L135.88,112.86L136.59,84.77L138.02,86.75L138.73,110.88L139.44,59.48L140.15,63.45L140.86,68.74L141.57,80.8L143,42.3L143.71,42.13L144.42,45.27L145.13,43.62L145.84,45.11L146.55,44.61L150.82,53.7L151.53,60.97L153.67,87.25L154.38,44.94L155.8,46.59L156.51,50.23L159.36,78.16L160.07,90.72L160.78,106.58L161.49,64.44L162.2,65.93L162.92,62.62L165.05,71.88L165.76,68.41L166.47,76.18L167.18,72.71L168.61,86.75L169.32,85.6L171.45,122.28L172.16,69.07L173.59,68.08L174.3,79.48L175.01,97.49L175.72,49.4L176.43,55.35L177.14,52.87L177.86,58L178.57,70.06L179.28,77L179.99,94.52L181.41,45.93L182.12,44.28L182.84,45.77L183.55,45.27L184.97,49.07L185.68,59.65L186.39,54.03L187.1,64.94L189.24,102.45L189.95,101.3L191.37,110.72L192.08,105.92L192.8,107.41L193.51,117L194.22,114.02L194.93,119.64L195.64,121.13L196.35,130.22L197.06,130.05L197.78,128.73L198.49,128.23L199.2,133.52L199.91,142.28L200.62,43.95L202.76,59.48L203.47,61.3L204.18,59.98L204.89,77.99L205.6,95.51L206.31,72.87L207.02,69.23L207.74,81.79L209.16,45.93L209.87,48.08L211.29,59.48L212,62.62L214.14,77.99L214.85,79.15L215.56,75.18L216.27,88.9L216.98,102.45L217.7,54.86L218.41,56.34L219.12,52.38L223.39,73.37L224.1,81.3L224.81,94.52L225.52,64.28L226.94,76.67L227.66,83.94L228.37,52.21L229.08,56.84L230.5,78.99L231.21,48.58L231.92,54.69L232.64,53.7L233.35,49.9L234.06,58.33L236.19,81.96L236.9,80.31L237.62,81.79L238.33,91.05L239.75,45.6L240.46,44.45L242.6,50.23L243.31,49.73L244.02,48.74L244.73,53.37L245.44,56.84L246.15,65.6L247.58,82.95L248.29,79.15L249,80.31L249.71,78.49L250.42,81.13L251.13,78.99L251.84,95.18L252.56,37.34L253.27,40.98L253.98,51.22L254.69,49.9L255.4,56.51L256.82,69.73L257.54,69.4L259.67,93.03L260.38,54.53L261.09,57.01L261.8,64.61L263.23,66.92L263.94,86.09L264.65,92.21L265.36,89.89L266.07,102.45L266.78,61.14L267.49,64.44L268.21,60.97L268.92,72.21L269.63,69.4L270.34,83.94L271.05,41.97L272.47,43.29L273.19,40.64L274.61,37.01L275.32,37.34L276.03,37.34L276.74,40.15L277.45,47.42L278.17,41.97L278.88,51.72L279.59,46.59L280.3,48.41L281.01,59.82L283.86,84.44L284.57,97.83L285.99,35.36L286.7,39.98L287.41,42.63L288.13,48.58L288.84,47.09L289.55,52.38L290.26,52.21L290.97,63.29L293.11,86.92L293.82,94.69L295.24,57.17L295.95,63.62L297.37,73.86L298.09,79.32L298.8,95.84L299.51,67.58L300.22,65.76L300.93,67.75L301.64,65.93L302.35,75.51L303.07,40.15L303.78,45.44L304.49,45.44L305.2,50.06L305.91,48.91L306.62,49.4L308.05,49.24L308.76,51.88L310.89,74.52L311.6,39.82L313.03,51.88L313.74,51.06L315.87,77.83L316.58,45.11L318.01,58.16L318.72,59.15L320.14,69.9L320.85,68.24L322.99,88.07L323.7,54.03L328.68,104.93L329.39,69.4L330.1,66.92L330.81,71.38L332.23,80.31L332.95,80.97L333.66,82.95L334.37,82.62L336.5,87.25L337.21,93.2L339.35,119.64L340.06,88.57L340.77,89.73L341.48,53.54L342.19,55.68L342.91,55.35L344.33,62.46L345.04,66.92L345.75,64.28L346.46,75.02L347.17,78.99L347.89,97.16L348.6,74.03L349.31,80.97L350.02,86.75L350.73,84.27L351.44,83.45L352.15,96.34L352.87,70.39L353.58,72.71L354.29,77.5L355,73.2L355.71,74.19L356.42,73.2L357.13,76.01L357.85,84.11L358.56,82.46L359.27,84.27L360.69,100.3L361.4,51.39L362.11,51.06L362.83,53.2L363.54,55.68L364.25,66.59L365.67,69.07L366.38,73.53L369.23,145.75L369.94,33.54L370.65,39.65L371.36,39.16L373.5,65.6L374.21,33.04L375.63,35.85L376.34,43.29L377.05,38.83L377.77,41.8L380.61,65.6L381.32,74.19L382.03,75.68L382.75,92.04L383.46,41.14L384.17,48.91L384.88,39.98L385.59,46.59L386.3,45.44L387.01,54.2L388.44,68.9L389.15,70.39L390.57,102.12L391.28,44.94L394.84,59.98L395.55,70.06L396.26,71.71L396.97,81.3L398.4,84.6L399.11,87.74L399.82,83.12L400.53,83.61L401.95,108.57L402.67,71.38L403.38,71.05L404.09,72.87L406.22,89.89L406.93,45.11L407.65,45.27L408.36,60.15L409.07,60.48L409.78,70.06L410.49,81.63L411.2,77L411.91,92.7L412.63,45.11L413.34,42.96L414.05,46.59L416.18,77.5L416.89,73.86L419.03,102.12L419.74,67.09L420.45,77.66L421.16,44.78L421.87,45.44L422.59,41.64L423.3,45.77L424.01,43.29L424.72,41.8L425.43,42.79L426.14,40.81L426.85,50.4L428.99,76.34L429.7,76.01L430.41,92.54L431.12,41.14L431.83,51.06L432.55,46.92L433.97,57.01L434.68,58.99L435.39,57.83L436.1,68.57L438.24,72.21L438.95,71.22L440.37,85.93L441.08,46.26L441.79,50.06L442.51,59.15L444.64,96.17L445.35,64.77L446.06,68.9L446.77,77.99L447.48,77L448.2,94.19L449.62,102.45L450.33,100.63L451.04,108.57L451.75,74.03L452.46,74.03L453.18,77.5L453.89,86.42L454.6,50.56L457.44,85.27L458.16,45.27L459.58,39.98L460.29,40.64L463.85,44.61L464.56,43.78L465.27,49.9L465.98,47.75L466.69,53.7L467.4,68.08L468.12,67.58L468.83,65.93L470.96,68.74L471.67,71.38L472.38,82.79L473.1,39.49L477.36,51.55L478.08,68.41L478.79,67.25L479.5,73.2L480.21,73.37L480.92,87.58L481.63,85.43L482.34,86.09L483.77,120.3L484.48,55.52L486.61,78.32L487.32,75.02L488.04,76.84L488.75,92.87L490.17,113.86L490.88,113.69L491.59,122.28L492.3,91.21L493.02,20.32L494.44,40.81L495.15,38.99L496.57,61.8L497.28,32.22L498.71,36.35L499.42,42.79L500.13,36.68L500.84,43.12L501.55,43.45L502.26,49.07L504.4,75.18L505.11,75.51L506.53,99.97L507.24,70.23L507.96,83.45L508.67,52.21L509.38,50.4L510.09,56.51L510.8,60.97L511.51,72.04L512.22,66.26L512.94,72.87L513.65,70.06L514.36,88.57L515.78,37.5L516.49,38.99L517.2,36.18L517.92,39.16L518.63,39.98L519.34,37.84L521.47,49.9L522.18,51.55L523.61,56.68L524.32,66.59L525.03,62.79L525.74,73.04L526.45,89.89L527.16,51.39L527.88,50.56L528.59,55.35L529.3,51.72L530.01,68.08L532.14,80.47L532.86,90.22L533.57,67.25L534.28,70.56L535.7,78.32L536.41,74.19L538.55,92.21L539.26,39.32L539.97,39.32L540.68,41.14L542.82,62.96L543.53,74.19L544.24,88.07L544.95,42.96L545.66,44.78L546.37,49.9L547.08,47.42L547.8,50.89L549.22,60.48L549.93,60.64L551.35,72.37L552.06,76.84L552.78,78.16L553.49,85.6L555.62,98.98L556.33,101.46L557.04,110.22L557.76,51.88L558.47,52.38L559.18,51.06L561.31,69.07L562.02,68.74L562.74,69.07L563.45,72.37L564.16,85.43L564.87,97.16L565.58,68.74L566.29,70.06L567,66.43L567.72,69.57L568.43,66.1L569.14,68.9L569.85,75.68L570.56,76.84L571.27,88.41L571.98,87.91L572.7,92.7L574.12,110.55L574.83,72.37L576.25,33.04L576.96,31.06L579.1,54.36L579.81,56.51L580.52,66.76L581.23,65.1L581.94,66.76L582.66,82.95L584.08,94.02L584.79,65.6L586.21,75.68L586.92,83.28L589.06,107.74L589.77,133.36L590.48,80.14L591.19,94.19L591.9,56.34L592.62,59.98L594.75,94.85L595.46,32.55L597.6,46.26L598.31,58L599.02,68.9L599.73,44.28L601.15,37.17L601.86,51.39L602.58,48.08L603.29,61.8L604.71,95.68L605.42,73.86L606.84,33.87L607.56,43.95L608.98,50.89L609.69,55.35L611.11,77.17L611.82,79.48L612.54,88.57L613.25,52.71L613.96,54.69L614.67,64.94L615.38,74.85L616.09,50.4L617.52,60.97L618.23,75.68L618.94,76.34L619.65,83.45L621.07,36.02L621.78,35.69L623.21,39.16L623.92,48.58L624.63,45.77L625.34,51.88L626.05,46.92L626.76,61.14L628.19,79.81L628.9,79.65L631.03,103.94L631.74,77.66L632.45,75.18L633.17,79.65L635.3,94.85L636.01,95.02L637.43,130.05L638.15,84.77L638.86,84.44L639.57,81.96L640.28,96.83L640.99,32.88L641.7,46.43L642.41,40.81L643.13,52.38L643.84,49.73L645.97,75.85L646.68,28.25L647.39,28.42L648.11,23.29L652.37,48.58L653.09,54.2L655.22,90.06L655.93,44.12L656.64,46.76L657.35,46.43L658.07,45.6L658.78,48.08L660.2,62.96L660.91,61.8L662.33,75.35L663.05,89.73L664.47,53.04L665.18,68.41L665.89,78.99L666.6,63.29L667.31,65.1L668.03,61.14L669.45,62.62L670.16,65.93L670.87,68.08L671.58,76.67L672.29,73.86L673.01,77.99L674.43,74.69L675.14,85.27L676.56,92.21L677.27,104.77L677.99,51.88L678.7,53.2L679.41,55.02L680.12,54.03L680.83,58L683.68,102.62L684.39,104.77L685.1,127.24L685.81,68.9L686.52,74.85L687.23,50.73L687.95,40.81L688.66,44.45L689.37,48.58L690.08,60.64L691.5,70.89L692.21,85.43L692.93,53.54L693.64,56.18L694.35,60.31L695.06,74.36L695.77,84.27L696.48,79.65L699.33,143.77L700.04,75.02L700.75,69.57L701.46,96.34L702.17,43.95L702.89,45.77L703.6,51.72L706.44,78.16L707.15,77.99L707.87,77.83L708.58,76.18L709.29,76.18L710,90.88" style="vector-effect: none; fill: none; stroke: rgb(227, 119, 194); stroke-opacity: 1; stroke-width: 2px; opacity: 1;"/></g><g class="points"/><g class="text"/></g></g></g><g class="overplot"/><path class="xlines-above crisp" d="M0,0" style="fill: none;"/><path class="ylines-above crisp" d="M0,0" style="fill: none;"/><g class="overlines-above"/><g class="xaxislayer-above"><g class="xtick"><text text-anchor="middle" x="0" y="533" transform="translate(80,0)" style="font-family: 'Open Sans', verdana, arial, sans-serif; font-size: 12px; fill: rgb(68, 68, 68); fill-opacity: 1; white-space: pre; opacity: 1;">0</text></g><g class="xtick"><text text-anchor="middle" x="0" y="533" style="font-family: 'Open Sans', verdana, arial, sans-serif; font-size: 12px; fill: rgb(68, 68, 68); fill-opacity: 1; white-space: pre; opacity: 1;" transform="translate(222.28,0)">200</text></g><g class="xtick"><text text-anchor="middle" x="0" y="533" style="font-family: 'Open Sans', verdana, arial, sans-serif; font-size: 12px; fill: rgb(68, 68, 68); fill-opacity: 1; white-space: pre; opacity: 1;" transform="translate(364.57,0)">400</text></g><g class="xtick"><text text-anchor="middle" x="0" y="533" style="font-family: 'Open Sans', verdana, arial, sans-serif; font-size: 12px; fill: rgb(68, 68, 68); fill-opacity: 1; white-space: pre; opacity: 1;" transform="translate(506.85,0)">600</text></g><g class="xtick"><text text-anchor="middle" x="0" y="533" style="font-family: 'Open Sans', verdana, arial, sans-serif; font-size: 12px; fill: rgb(68, 68, 68); fill-opacity: 1; white-space: pre; opacity: 1;" transform="translate(649.14,0)">800</text></g></g><g class="yaxislayer-above"><g class="ytick"><text text-anchor="end" x="79" y="4.199999999999999" transform="translate(0,501.5)" style="font-family: 'Open Sans', verdana, arial, sans-serif; font-size: 12px; fill: rgb(68, 68, 68); fill-opacity: 1; white-space: pre; opacity: 1;">0.5</text></g><g class="ytick"><text text-anchor="end" x="79" y="4.199999999999999" style="font-family: 'Open Sans', verdana, arial, sans-serif; font-size: 12px; fill: rgb(68, 68, 68); fill-opacity: 1; white-space: pre; opacity: 1;" transform="translate(0,451.92)">0.55</text></g><g class="ytick"><text text-anchor="end" x="79" y="4.199999999999999" style="font-family: 'Open Sans', verdana, arial, sans-serif; font-size: 12px; fill: rgb(68, 68, 68); fill-opacity: 1; white-space: pre; opacity: 1;" transform="translate(0,402.34000000000003)">0.6</text></g><g class="ytick"><text text-anchor="end" x="79" y="4.199999999999999" style="font-family: 'Open Sans', verdana, arial, sans-serif; font-size: 12px; fill: rgb(68, 68, 68); fill-opacity: 1; white-space: pre; opacity: 1;" transform="translate(0,352.77)">0.65</text></g><g class="ytick"><text text-anchor="end" x="79" y="4.199999999999999" style="font-family: 'Open Sans', verdana, arial, sans-serif; font-size: 12px; fill: rgb(68, 68, 68); fill-opacity: 1; white-space: pre; opacity: 1;" transform="translate(0,303.19)">0.7</text></g><g class="ytick"><text text-anchor="end" x="79" y="4.199999999999999" style="font-family: 'Open Sans', verdana, arial, sans-serif; font-size: 12px; fill: rgb(68, 68, 68); fill-opacity: 1; white-space: pre; opacity: 1;" transform="translate(0,253.61)">0.75</text></g><g class="ytick"><text text-anchor="end" x="79" y="4.199999999999999" style="font-family: 'Open Sans', verdana, arial, sans-serif; font-size: 12px; fill: rgb(68, 68, 68); fill-opacity: 1; white-space: pre; opacity: 1;" transform="translate(0,204.03)">0.8</text></g><g class="ytick"><text text-anchor="end" x="79" y="4.199999999999999" style="font-family: 'Open Sans', verdana, arial, sans-serif; font-size: 12px; fill: rgb(68, 68, 68); fill-opacity: 1; white-space: pre; opacity: 1;" transform="translate(0,154.45)">0.85</text></g></g><g class="overaxes-above"/></g></g><g class="polarlayer"/><g class="smithlayer"/><g class="ternarylayer"/><g class="geolayer"/><g class="funnelarealayer"/><g class="pielayer"/><g class="iciclelayer"/><g class="treemaplayer"/><g class="sunburstlayer"/><g class="glimages"/><defs id="topdefs-c5a89d"><g class="clips"/><clipPath id="legendc5a89d"><rect width="595" height="48" x="0" y="0"/></clipPath></defs><g class="layer-above"><g class="imagelayer"/><g class="shapelayer"/></g><g class="infolayer"><g class="legend" pointer-events="all" transform="translate(80,76.00000000000001)"><rect class="bg" shape-rendering="crispEdges" width="595" height="48" x="0" y="0" style="stroke: rgb(68, 68, 68); stroke-opacity: 1; fill: rgb(255, 255, 255); fill-opacity: 1; stroke-width: 0px;"/><g class="scrollbox" transform="" clip-path="url(#legendc5a89d)"><g class="groups"><g class="traces" transform="translate(0,14.5)" style="opacity: 1;"><text class="legendtext" text-anchor="start" x="40" y="4.680000000000001" style="font-family: 'Open Sans', verdana, arial, sans-serif; font-size: 12px; fill: rgb(68, 68, 68); fill-opacity: 1; white-space: pre;">Gradual sampled</text><g class="layers" style="opacity: 1;"><g class="legendfill"/><g class="legendlines"><path class="js-line" d="M5,0h30" style="fill: none; stroke: rgb(31, 119, 180); stroke-opacity: 1; stroke-width: 2px;"/></g><g class="legendsymbols"><g class="legendpoints"/></g></g><rect class="legendtoggle" x="0" y="-9.5" width="145.0625" height="19" style="fill: rgb(0, 0, 0); fill-opacity: 0;"/></g><g class="traces" transform="translate(151.78125,14.5)" style="opacity: 1;"><text class="legendtext" text-anchor="start" x="40" y="4.680000000000001" style="font-family: 'Open Sans', verdana, arial, sans-serif; font-size: 12px; fill: rgb(68, 68, 68); fill-opacity: 1; white-space: pre;">No MetaL</text><g class="layers" style="opacity: 1;"><g class="legendfill"/><g class="legendlines"><path class="js-line" d="M5,0h30" style="fill: none; stroke: rgb(255, 127, 14); stroke-opacity: 1; stroke-width: 2px;"/></g><g class="legendsymbols"><g class="legendpoints"/></g></g><rect class="legendtoggle" x="0" y="-9.5" width="99.4375" height="19" style="fill: rgb(0, 0, 0); fill-opacity: 0;"/></g><g class="traces" transform="translate(303.5625,14.5)" style="opacity: 1;"><text class="legendtext" text-anchor="start" x="40" y="4.680000000000001" style="font-family: 'Open Sans', verdana, arial, sans-serif; font-size: 12px; fill: rgb(68, 68, 68); fill-opacity: 1; white-space: pre;">Direct weighted</text><g class="layers" style="opacity: 1;"><g class="legendfill"/><g class="legendlines"><path class="js-line" d="M5,0h30" style="fill: none; stroke: rgb(44, 160, 44); stroke-opacity: 1; stroke-width: 2px;"/></g><g class="legendsymbols"><g class="legendpoints"/></g></g><rect class="legendtoggle" x="0" y="-9.5" width="137.703125" height="19" style="fill: rgb(0, 0, 0); fill-opacity: 0;"/></g><g class="traces" transform="translate(455.34375,14.5)" style="opacity: 1;"><text class="legendtext" text-anchor="start" x="40" y="4.680000000000001" style="font-family: 'Open Sans', verdana, arial, sans-serif; font-size: 12px; fill: rgb(68, 68, 68); fill-opacity: 1; white-space: pre;">Gradual regular</text><g class="layers" style="opacity: 1;"><g class="legendfill"/><g class="legendlines"><path class="js-line" d="M5,0h30" style="fill: none; stroke: rgb(214, 39, 40); stroke-opacity: 1; stroke-width: 2px;"/></g><g class="legendsymbols"><g class="legendpoints"/></g></g><rect class="legendtoggle" x="0" y="-9.5" width="136.78125" height="19" style="fill: rgb(0, 0, 0); fill-opacity: 0;"/></g><g class="traces" transform="translate(0,33.5)" style="opacity: 1;"><text class="legendtext" text-anchor="start" x="40" y="4.680000000000001" style="font-family: 'Open Sans', verdana, arial, sans-serif; font-size: 12px; fill: rgb(68, 68, 68); fill-opacity: 1; white-space: pre;">Gradual weighted</text><g class="layers" style="opacity: 1;"><g class="legendfill"/><g class="legendlines"><path class="js-line" d="M5,0h30" style="fill: none; stroke: rgb(148, 103, 189); stroke-opacity: 1; stroke-width: 2px;"/></g><g class="legendsymbols"><g class="legendpoints"/></g></g><rect class="legendtoggle" x="0" y="-9.5" width="149.28125" height="19" style="fill: rgb(0, 0, 0); fill-opacity: 0;"/></g><g class="traces" transform="translate(151.78125,33.5)" style="opacity: 1;"><text class="legendtext" text-anchor="start" x="40" y="4.680000000000001" style="font-family: 'Open Sans', verdana, arial, sans-serif; font-size: 12px; fill: rgb(68, 68, 68); fill-opacity: 1; white-space: pre;">Direct sampled</text><g class="layers" style="opacity: 1;"><g class="legendfill"/><g class="legendlines"><path class="js-line" d="M5,0h30" style="fill: none; stroke: rgb(140, 86, 75); stroke-opacity: 1; stroke-width: 2px;"/></g><g class="legendsymbols"><g class="legendpoints"/></g></g><rect class="legendtoggle" x="0" y="-9.5" width="133.5" height="19" style="fill: rgb(0, 0, 0); fill-opacity: 0;"/></g><g class="traces" transform="translate(303.5625,33.5)" style="opacity: 1;"><text class="legendtext" text-anchor="start" x="40" y="4.680000000000001" style="font-family: 'Open Sans', verdana, arial, sans-serif; font-size: 12px; fill: rgb(68, 68, 68); fill-opacity: 1; white-space: pre;">Direct regular</text><g class="layers" style="opacity: 1;"><g class="legendfill"/><g class="legendlines"><path class="js-line" d="M5,0h30" style="fill: none; stroke: rgb(227, 119, 194); stroke-opacity: 1; stroke-width: 2px;"/></g><g class="legendsymbols"><g class="legendpoints"/></g></g><rect class="legendtoggle" x="0" y="-9.5" width="125.21875" height="19" style="fill: rgb(0, 0, 0); fill-opacity: 0;"/></g></g></g><rect class="scrollbar" rx="20" ry="3" width="0" height="0" x="0" y="0" style="fill: rgb(128, 139, 164); fill-opacity: 1;"/></g><g class="g-gtitle"><text class="gtitle" x="400" y="75" text-anchor="middle" dy="0em" style="font-family: 'Open Sans', verdana, arial, sans-serif; font-size: 17px; fill: rgb(68, 68, 68); opacity: 1; font-weight: normal; white-space: pre;">Accuracy score by MetaL method for 2 nodes</text></g><g class="g-xtitle"><text class="xtitle" x="435" y="572" text-anchor="middle" style="font-family: 'Open Sans', verdana, arial, sans-serif; font-size: 14px; fill: rgb(68, 68, 68); opacity: 1; font-weight: normal; white-space: pre;">Data generation iteration</text></g><g class="g-ytitle"><text class="ytitle" transform="rotate(-90,42,335)" x="42" y="335" text-anchor="middle" style="font-family: 'Open Sans', verdana, arial, sans-serif; font-size: 14px; fill: rgb(68, 68, 68); opacity: 1; font-weight: normal; white-space: pre;">Accuracy score</text></g></g></svg>