<svg class="main-svg" xmlns="http://www.w3.org/2000/svg" xmlns:xlink="http://www.w3.org/1999/xlink" width="800" height="600" style="" viewBox="0 0 800 600"><rect x="0" y="0" width="800" height="600" style="fill: rgb(255, 255, 255); fill-opacity: 1;"/><defs id="defs-d35a70"><g class="clips"><clipPath id="clipd35a70xyplot" class="plotclip"><rect width="710" height="370"/></clipPath><clipPath class="axesclip" id="clipd35a70x"><rect x="80" y="0" width="710" height="600"/></clipPath><clipPath class="axesclip" id="clipd35a70y"><rect x="0" y="150" width="800" height="370"/></clipPath><clipPath class="axesclip" id="clipd35a70xy"><rect x="80" y="150" width="710" height="370"/></clipPath></g><g class="gradients"/><g class="patterns"/></defs><g class="bglayer"/><g class="layer-below"><g class="imagelayer"/><g class="shapelayer"/></g><g class="cartesianlayer"><g class="subplot xy"><g class="layer-subplot"><g class="shapelayer"/><g class="imagelayer"/></g><g class="minor-gridlayer"><g class="x"/><g class="y"/></g><g class="gridlayer"><g class="x"><path class="xgrid crisp" transform="translate(222.28,0)" d="M0,150v370" style="stroke: rgb(238, 238, 238); stroke-opacity: 1; stroke-width: 1px;"/><path class="xgrid crisp" transform="translate(364.57,0)" d="M0,150v370" style="stroke: rgb(238, 238, 238); stroke-opacity: 1; stroke-width: 1px;"/><path class="xgrid crisp" transform="translate(506.85,0)" d="M0,150v370" style="stroke: rgb(238, 238, 238); stroke-opacity: 1; stroke-width: 1px;"/><path class="xgrid crisp" transform="translate(649.14,0)" d="M0,150v370" style="stroke: rgb(238, 238, 238); stroke-opacity: 1; stroke-width: 1px;"/></g><g class="y"><path class="ygrid crisp" transform="translate(0,516.81)" d="M80,0h710" style="stroke: rgb(238, 238, 238); stroke-opacity: 1; stroke-width: 1px;"/><path class="ygrid crisp" transform="translate(0,450.25)" d="M80,0h710" style="stroke: rgb(238, 238, 238); stroke-opacity: 1; stroke-width: 1px;"/><path class="ygrid crisp" transform="translate(0,383.7)" d="M80,0h710" style="stroke: rgb(238, 238, 238); stroke-opacity: 1; stroke-width: 1px;"/><path class="ygrid crisp" transform="translate(0,317.14)" d="M80,0h710" style="stroke: rgb(238, 238, 238); stroke-opacity: 1; stroke-width: 1px;"/><path class="ygrid crisp" transform="translate(0,250.59)" d="M80,0h710" style="stroke: rgb(238, 238, 238); stroke-opacity: 1; stroke-width: 1px;"/><path class="ygrid crisp" transform="translate(0,184.03)" d="M80,0h710" style="stroke: rgb(238, 238, 238); stroke-opacity: 1; stroke-width: 1px;"/></g></g><g class="zerolinelayer"><path class="xzl zl crisp" transform="translate(80,0)" d="M0,150v370" style="stroke: rgb(68, 68, 68); stroke-opacity: 1; stroke-width: 1px;"/></g><path class="xlines-below"/><path class="ylines-below"/><g class="overlines-below"/><g class="xaxislayer-below"/><g class="yaxislayer-below"/><g class="overaxes-below"/><g class="plot" transform="translate(80,150)" clip-path="url(#clipd35a70xyplot)"><g class="scatterlayer mlayer"><g class="trace scatter trace19f19e" style="stroke-miterlimit: 2; opacity: 1;"><g class="fills"/><g class="errorbars"/><g class="lines"><path class="js-line" d="M0,103.25L0.71,98.37L1.42,100.81L2.13,103.47L2.85,101.03L4.27,103.69L4.98,107.68L5.69,111.23L6.4,119.89L9.25,154.27L9.96,153.39L10.67,154.05L11.38,168.25L12.81,204.63L13.52,161.82L14.94,164.92L15.65,164.03L17.07,180.9L17.79,179.56L19.21,207.74L19.92,142.96L21.34,171.13L22.05,115.45L22.77,113.67L23.48,117.67L27.03,141.41L27.75,152.28L28.46,153.61L29.17,164.7L29.88,164.03L30.59,182.67L31.3,118.56L32.01,123.66L32.73,134.97L33.44,133.64L34.86,140.52L35.57,138.97L36.99,160.49L37.71,182.23L38.42,187.77L39.13,199.75L41.26,227.04L41.97,170.25L42.69,170.91L43.4,178.46L44.82,197.31L45.53,217.5L46.24,145.62L46.95,148.51L47.67,149.61L49.09,161.82L49.8,160.71L50.51,162.04L51.22,165.37L51.93,166.03L52.65,170.02L54.07,192.88L54.78,214.62L55.49,215.5L56.2,212.84L56.91,214.17L57.63,222.83L58.34,219.28L59.05,226.38L59.76,223.71L60.47,240.35L61.18,241.02L61.89,244.35L64.03,250.34L64.74,247.45L65.45,248.34L66.16,253.89L66.87,250.11L67.59,254.99L68.3,248.56L69.01,252.11L71.85,268.08L72.57,283.39L73.99,221.72L74.7,221.05L76.12,217.95L76.83,222.6L77.55,221.72L78.26,223.27L78.97,230.37L79.68,225.93L80.39,227.48L81.1,231.26L81.81,231.92L82.53,228.59L83.24,229.7L83.95,228.59L86.08,241.68L86.79,241.46L88.22,243.68L88.93,248.34L90.35,244.35L91.06,245.9L92.48,244.79L93.2,251L94.62,244.12L95.33,241.91L96.75,229.26L97.46,227.04L98.89,246.12L99.6,191.1L100.31,190.21L101.02,185.33L101.73,186.44L102.44,183.11L103.16,191.32L103.87,190.44L104.58,186.22L105.29,188.88L108.14,175.79L108.85,178.46L109.56,177.57L110.27,172.02L110.98,179.56L111.69,177.57L112.4,178.68L113.12,173.35L114.54,182.45L115.25,180.23L115.96,182L116.67,176.01L117.38,179.34L118.1,179.12L118.81,179.79L119.52,186.89L120.23,184.89L120.94,185.33L123.08,181.34L123.79,182.45L124.5,179.56L125.21,181.12L125.92,188.44L126.63,187.77L127.34,184.45L128.06,197.98L130.19,190.66L130.9,203.97L132.32,203.75L133.04,223.94L134.46,231.48L135.17,232.14L135.88,233.25L136.59,232.14L137.3,234.81L138.02,232.37L140.15,221.27L140.86,222.16L141.57,223.05L142.28,221.49L143.71,231.26L144.42,237.69L145.13,240.8L145.84,236.8L146.55,239.24L147.26,238.13L147.98,238.8L148.69,237.02L149.4,235.47L150.11,236.8L151.53,237.91L152.24,234.81L155.09,239.69L155.8,242.13L156.51,242.35L157.22,243.68L157.94,248.56L158.65,246.34L159.36,257.21L160.07,255.88L160.78,254.33L161.49,255.66L162.2,256.77L162.92,255.66L164.34,260.1L165.05,268.08L165.76,269.41L166.47,266.75L167.18,265.42L167.9,266.97L168.61,263.42L169.32,278.95L170.74,313.12L171.45,310.01L172.16,309.35L172.88,323.1L174.3,314.23L175.01,328.87L175.72,331.09L176.43,330.65L177.86,331.53L178.57,328.21L179.28,344.4L179.99,337.3L181.41,342.63L182.12,341.74L182.84,341.96L183.55,349.95L184.26,346.18L184.97,347.28L186.39,347.73L187.1,346.84L188.53,349.73L189.24,344.18L189.95,340.63L190.66,342.85L191.37,342.63L192.08,343.96L193.51,337.08L194.22,338.41L194.93,338.85L195.64,337.52L196.35,342.4L197.06,337.08L197.78,339.08L198.49,337.97L201.33,330.87L202.04,329.54L203.47,326.43L204.18,330.42L204.89,325.32L205.6,327.32L206.31,327.1L207.02,325.54L209.16,318.22L209.87,315.56L210.58,314.45L211.29,319.11L212.72,313.12L213.43,317.33L214.14,316.23L214.85,316.89L215.56,314.45L216.27,316.67L216.98,318L217.7,316.45L219.12,323.1L219.83,322.44L221.96,322.88L222.68,325.32L224.1,334.42L224.81,343.29L225.52,347.73L226.23,345.73L226.94,351.5L227.66,206.19L228.37,211.96L229.08,208.18L229.79,209.07L230.5,208.41L231.92,212.62L232.64,208.63L233.35,207.52L234.06,213.95L235.48,209.51L236.19,209.51L236.9,207.74L237.62,208.41L238.33,209.96L239.04,208.18L239.75,208.63L240.46,207.96L242.6,211.73L243.31,210.4L244.73,212.4L245.44,211.73L246.15,211.96L246.86,207.74L247.58,209.51L248.29,216.84L249,216.17L249.71,221.49L250.42,222.38L251.13,233.92L253.27,279.84L253.98,200.64L255.4,208.41L256.11,217.5L257.54,231.48L258.25,231.03L259.67,258.1L260.38,257.88L261.09,258.32L261.8,258.99L262.52,274.74L263.23,201.53L263.94,212.62L265.36,209.51L266.07,217.28L266.78,215.95L267.49,216.61L268.21,218.17L268.92,214.4L269.63,215.5L270.34,215.06L271.05,209.29L271.76,218.61L272.47,226.15L273.19,222.38L273.9,225.49L274.61,225.04L275.32,221.49L276.03,223.05L278.17,253.66L278.88,196.87L279.59,196.2L280.3,189.77L281.72,193.76L282.43,192.43L283.15,200.64L283.86,196.2L285.99,231.03L286.7,244.57L287.41,258.1L288.13,184.89L288.84,183.34L289.55,183.78L290.26,181.34L290.97,184L291.68,178.68L292.39,180.01L293.11,180.9L293.82,192.88L294.53,199.53L295.24,198.2L295.95,197.09L296.66,208.85L298.8,234.36L299.51,174.91L300.22,174.24L300.93,170.91L301.64,173.8L302.35,173.35L303.07,180.9L303.78,176.46L304.49,179.34L305.2,186.66L305.91,184.89L306.62,192.88L307.33,194.43L308.05,203.3L308.76,202.42L309.47,199.75L310.18,205.52L310.89,199.98L312.31,201.97L313.03,200.86L315.16,220.61L315.87,176.68L316.58,171.36L317.29,179.34L318.72,176.24L319.43,178.68L320.14,179.34L320.85,186.22L321.56,186.44L322.27,185.78L322.99,188.22L323.7,184.67L324.41,196.87L325.12,195.98L325.83,193.32L326.54,208.63L327.25,209.07L327.97,224.16L328.68,171.13L329.39,173.13L330.1,172.69L330.81,169.14L331.52,172.69L332.23,169.8L332.95,171.8L334.37,180.45L335.08,179.79L335.79,186.22L336.5,182L337.21,178.46L337.93,180.01L339.35,189.33L340.06,195.54L340.77,200.86L341.48,215.5L342.19,169.36L342.91,172.02L343.62,171.58L344.33,169.14L346.46,175.13L347.17,178.68L348.6,173.8L349.31,173.35L351.44,191.77L352.15,202.42L352.87,203.97L353.58,218.61L355,163.59L355.71,164.26L356.42,161.37L357.13,163.81L357.85,163.59L358.56,165.59L359.27,164.03L359.98,164.92L361.4,166.25L362.11,173.13L362.83,178.68L363.54,174.68L365.67,189.77L366.38,189.77L367.09,188.88L367.81,198.64L368.52,198.87L369.23,213.51L369.94,158.04L370.65,158.93L371.36,153.83L372.07,148.73L372.79,155.83L373.5,150.06L374.21,153.16L374.92,150.95L375.63,153.16L376.34,150.95L377.05,158.27L377.77,158.49L378.48,156.27L379.19,155.83L379.9,166.92L380.61,164.26L381.32,173.35L382.03,170.69L382.75,182.89L383.46,185.78L384.17,196.43L384.88,213.06L385.59,152.28L386.3,152.5L387.01,150.06L387.73,149.84L388.44,151.39L389.15,155.83L389.86,151.61L390.57,154.5L391.28,161.15L391.99,175.79L392.71,174.46L393.42,178.68L394.13,177.79L395.55,191.77L396.26,142.29L396.97,134.75L397.69,138.74L398.4,133.64L399.11,134.08L399.82,131.87L400.53,126.99L401.24,130.54L401.95,128.54L402.67,122.1L403.38,123.44L404.09,122.1L404.8,127.43L406.93,141.63L407.65,154.05L409.07,182.23L409.78,182.67L410.49,180.01L411.2,197.09L411.91,213.51L412.63,148.06L414.05,149.17L414.76,147.84L415.47,148.06L416.18,146.95L416.89,148.06L417.61,151.83L418.32,151.17L419.03,153.83L420.45,153.61L421.16,154.94L421.87,158.71L422.59,156.94L423.3,157.82L424.01,160.04L424.72,156.49L425.43,160.04L426.14,158.93L426.85,160.71L427.57,158.49L428.28,167.81L428.99,165.81L429.7,168.92L431.12,186.22L431.83,183.34L432.55,187.11L433.26,200.64L433.97,199.98L434.68,201.97L436.1,238.8L436.81,241.02L437.53,238.8L438.24,246.56L439.66,253.66L440.37,252.55L441.79,262.98L442.51,262.76L443.22,265.42L443.93,263.2L444.64,263.2L445.35,266.09L446.06,266.09L446.77,264.31L448.2,268.97L448.91,264.98L451.04,269.64L451.75,269.64L452.46,268.97L453.18,278.29L454.6,273.41L455.31,276.07L456.73,284.06L457.44,283.17L458.16,294.26L458.87,293.6L460.29,295.15L461,294.04L461.71,294.71L462.42,290.93L463.85,311.12L464.56,310.68L465.27,309.13L465.98,311.57L468.12,325.99L468.83,320.22L469.54,317.11L470.25,321.99L471.67,312.01L472.38,315.34L473.1,314.45L473.81,316.67L474.52,315.12L475.23,327.32L475.94,335.3L476.65,183.34L477.36,183.78L478.08,187.11L479.5,191.54L480.21,196.87L481.63,176.68L482.34,180.9L483.77,196.65L484.48,191.32L485.19,189.99L485.9,193.99L486.61,190.66L487.32,194.87L488.04,187.11L488.75,204.63L489.46,198.42L490.17,201.97L491.59,207.74L492.3,152.28L493.02,149.39L493.73,152.05L494.44,151.39L495.15,152.5L496.57,152.72L497.28,150.5L498.71,147.84L499.42,142.52L500.13,149.39L500.84,143.4L501.55,147.62L502.26,143.4L503.69,143.18L504.4,139.85L505.11,138.74L505.82,144.29L506.53,154.05L507.24,153.39L509.38,180.67L510.09,203.08L511.51,170.91L512.22,174.91L512.94,174.91L513.65,184.67L514.36,177.79L515.07,178.46L515.78,174.46L516.49,176.68L517.2,168.92L517.92,170.02L520.05,164.7L520.76,179.79L521.47,182.67L522.18,189.99L522.9,183.56L523.61,190.66L525.74,208.41L526.45,205.08L527.16,220.61L527.88,219.72L529.3,224.82L530.01,219.94L530.72,223.71L531.43,222.38L532.86,220.83L533.57,226.15L534.28,223.49L534.99,227.26L535.7,227.04L536.41,222.16L537.12,223.71L537.84,235.92L538.55,130.09L539.26,134.31L539.97,133.64L540.68,129.2L541.39,133.2L542.82,150.06L543.53,148.73L544.24,145.4L544.95,148.73L545.66,155.38L546.37,150.72L547.08,152.05L547.8,166.03L548.51,162.7L549.22,165.14L549.93,176.01L550.64,156.27L551.35,152.72L552.06,156.71L552.78,158.93L553.49,155.6L554.91,162.7L555.62,162.26L557.04,172.47L557.76,184.89L558.47,188L559.18,199.31L559.89,197.09L560.6,217.95L562.02,235.92L562.74,236.58L563.45,233.03L564.16,247.23L565.58,258.99L566.29,140.07L567,134.31L567.72,136.53L568.43,135.19L569.14,153.39L569.85,154.05L570.56,157.16L571.27,154.72L571.98,155.83L572.7,153.16L573.41,181.12L574.12,191.77L574.83,140.07L575.54,156.27L576.25,107.24L576.96,116.78L577.68,111.46L579.81,121L580.52,131.2L581.23,157.82L581.94,154.05L582.66,155.83L583.37,154.72L584.79,165.37L585.5,184.89L586.92,137.19L587.64,136.08L588.35,145.62L589.06,141.63L589.77,153.83L590.48,151.83L591.19,160.04L591.9,157.82L592.62,159.38L593.33,156.94L594.04,156.05L594.75,170.02L596.17,131.87L596.88,133.86L599.73,143.85L600.44,147.4L601.15,148.73L601.86,147.17L603.29,154.5L604,151.83L604.71,161.15L605.42,160.93L606.13,180.67L607.56,202.42L608.27,154.94L608.98,151.61L609.69,158.27L611.11,193.54L611.82,123.66L613.96,129.2L614.67,134.31L617.52,154.27L618.23,153.83L618.94,165.14L619.65,161.15L620.36,187.77L621.07,126.32L623.21,148.28L623.92,152.05L624.63,159.38L625.34,182L626.05,144.96L626.76,148.95L628.19,176.01L628.9,111.9L630.32,114.12L631.03,113.01L631.74,116.11L632.45,112.57L633.17,110.12L633.88,123.44L637.43,140.07L638.15,139.63L638.86,138.52L639.57,142.29L640.28,154.27L640.99,150.72L641.7,147.84L642.41,156.94L643.13,156.94L643.84,161.82L644.55,166.03L645.26,178.46L646.68,136.08L647.39,134.53L648.11,132.31L648.82,138.08L649.53,138.97L650.24,136.08L650.95,135.64L651.66,143.85L653.09,141.63L653.8,155.38L654.51,156.71L655.22,156.05L655.93,156.94L656.64,155.6L657.35,177.35L658.07,109.68L658.78,107.68L659.49,108.35L660.2,107.02L660.91,114.56L663.05,117.45L663.76,116.34L664.47,115.01L665.18,122.99L666.6,140.74L667.31,136.08L668.03,138.08L668.74,135.64L670.87,175.57L671.58,126.76L672.29,127.87L673.01,127.43L673.72,134.75L674.43,133.86L675.14,139.63L675.85,137.19L676.56,154.5L677.27,150.5L678.7,161.82L679.41,184.45L680.83,128.98L681.54,136.97L682.25,135.64L682.97,151.39L685.1,179.79L685.81,119L687.23,126.99L687.95,123.44L688.66,124.55L689.37,127.21L690.79,139.63L691.5,139.41L692.93,183.11L693.64,183.56L694.35,183.34L695.06,149.84L695.77,150.72L696.48,148.73L697.91,149.61L698.62,149.61L700.04,147.62L700.75,154.27L701.46,152.05L702.17,152.94L703.6,154.72L704.31,167.81L705.02,171.36L705.73,122.77L706.44,121.44L707.15,124.55L707.87,122.55L708.58,125.65L710,133.42" style="vector-effect: none; fill: none; stroke: rgb(31, 119, 180); stroke-opacity: 1; stroke-width: 2px; opacity: 1;"/></g><g class="points"/><g class="text"/></g><g class="trace scatter trace3de104" style="stroke-miterlimit: 2; opacity: 1;"><g class="fills"/><g class="errorbars"/><g class="lines"><path class="js-line" d="M0,133.86L0.71,126.32L1.42,134.53L2.85,136.08L3.56,133.2L4.27,130.31L4.98,133.64L5.69,133.2L6.4,130.09L7.83,142.07L8.54,132.53L9.25,136.3L9.96,135.64L11.38,157.6L12.09,154.27L13.52,176.9L14.23,191.1L14.94,201.75L15.65,172.02L16.36,176.01L17.07,169.36L19.21,185.78L19.92,179.56L20.63,189.99L21.34,119.89L22.77,117.45L23.48,122.99L24.19,126.1L24.9,123.21L28.46,143.85L29.17,158.04L29.88,171.8L30.59,118.56L34.15,156.27L34.86,172.91L36.99,206.85L37.71,221.27L38.42,170.02L39.13,172.02L39.84,172.91L40.55,175.79L41.26,183.34L41.97,199.53L42.69,136.75L43.4,134.75L44.11,140.74L46.24,165.14L46.95,189.1L47.67,200.86L48.38,231.03L49.09,158.04L49.8,165.81L50.51,166.48L51.22,177.35L51.93,185.78L52.65,111.9L53.36,114.12L54.07,112.34L54.78,111.9L55.49,115.67L56.2,122.1L56.91,118.33L61.18,136.08L61.89,143.18L63.32,139.63L64.03,150.5L64.74,147.17L65.45,154.94L66.16,155.16L66.87,164.7L68.3,191.1L69.01,197.09L69.72,191.32L70.43,207.07L71.14,182L71.85,115.23L72.57,121.88L73.28,120.55L77.55,152.28L78.26,151.39L80.39,188.88L81.1,134.97L82.53,168.47L83.24,122.1L83.95,127.21L84.66,125.43L85.37,128.76L86.08,128.32L88.22,158.27L88.93,116.78L90.35,119L91.06,117.89L91.77,118.78L92.48,121.66L93.2,124.55L93.91,138.52L95.33,136.97L96.04,153.39L98.18,182L98.89,180.23L99.6,197.76L100.31,145.62L101.02,148.95L101.73,157.16L102.44,157.6L103.16,158.93L103.87,165.14L104.58,181.34L105.29,178.68L106,189.55L106.71,134.75L107.42,139.41L108.14,149.17L108.85,148.51L110.98,155.6L111.69,152.28L113.12,180.23L113.83,135.19L114.54,135.19L115.25,132.53L116.67,139.63L117.38,136.53L118.81,148.06L119.52,144.29L120.23,140.3L120.94,154.72L123.79,166.92L124.5,180.45L125.92,201.53L126.63,206.19L127.34,215.95L128.06,214.4L130.19,231.03L130.9,246.79L131.61,247.01L132.32,267.64L133.04,195.98L133.75,200.42L134.46,199.98L135.17,206.41L135.88,205.3L136.59,207.52L137.3,207.96L138.02,215.73L138.73,213.95L139.44,217.72L140.15,214.4L140.86,215.28L143.71,222.38L144.42,234.14L145.84,242.35L146.55,244.57L147.98,258.77L148.69,268.08L150.11,209.29L150.82,212.84L152.24,214.84L152.96,211.73L153.67,218.39L154.38,215.73L155.8,225.49L156.51,219.72L158.65,231.26L159.36,233.7L160.78,241.91L161.49,245.23L162.2,242.35L162.92,243.01L163.63,243.9L164.34,255.22L165.05,280.06L165.76,277.4L166.47,278.95L167.18,277.62L168.61,280.73L169.32,290.27L170.74,286.05L171.45,287.61L172.16,289.38L172.88,289.16L173.59,281.17L174.3,283.39L175.72,293.15L176.43,293.6L177.14,289.38L177.86,292.04L178.57,292.27L179.28,294.71L181.41,298.48L182.12,301.81L182.84,298.92L183.55,302.03L184.97,299.36L185.68,302.91L186.39,298.48L187.1,300.03L189.24,290.49L189.95,292.93L190.66,287.16L191.37,290.71L192.08,290.27L192.8,280.95L193.51,280.95L194.22,288.49L196.35,282.06L197.06,283.17L198.49,286.94L199.2,283.17L199.91,281.39L200.62,282.95L202.04,281.17L202.76,272.74L203.47,277.62L204.18,272.3L204.89,271.86L205.6,270.52L207.02,272.52L207.74,271.19L208.45,270.52L209.16,271.19L209.87,262.76L210.58,264.53L212.72,256.77L213.43,250.56L214.14,247.9L214.85,250.34L216.98,233.03L217.7,235.25L218.41,236.36L219.12,235.47L221.25,229.93L221.96,229.48L222.68,223.71L223.39,226.6L224.1,224.38L224.81,226.6L226.23,222.6L226.94,221.49L227.66,224.6L228.37,224.38L229.08,218.17L229.79,209.74L230.5,211.51L231.21,213.95L231.92,211.51L233.35,215.06L234.06,214.17L234.77,214.62L235.48,213.95L236.19,211.07L236.9,216.17L237.62,211.96L238.33,213.73L239.75,205.52L240.46,205.3L241.17,206.19L241.88,210.4L242.6,204.41L243.31,205.3L244.02,203.75L244.73,206.41L245.44,201.53L246.15,203.3L246.86,203.97L247.58,210.4L248.29,203.3L249,203.75L249.71,203.52L250.42,202.42L253.27,219.72L253.98,220.39L255.4,250.56L256.11,253L256.82,256.77L257.54,267.42L258.96,299.59L259.67,191.99L260.38,191.1L261.09,194.87L261.8,188L262.52,190.66L263.23,195.09L263.94,192.21L264.65,192.43L265.36,189.55L266.78,196.65L267.49,194.65L268.92,196.65L269.63,196.43L270.34,205.3L271.05,200.42L271.76,219.72L272.47,212.62L273.19,221.72L273.9,217.95L275.32,248.34L276.03,189.77L277.45,191.54L278.17,189.99L278.88,190.44L279.59,188.22L281.01,197.09L281.72,199.53L284.57,263.2L285.28,185.11L285.99,182.89L286.7,184L287.41,185.55L288.13,185.11L288.84,185.11L289.55,188.88L290.97,182L291.68,184.89L292.39,192.43L293.11,189.99L294.53,205.52L295.24,201.31L295.95,220.61L296.66,218.17L298.09,213.29L298.8,215.73L299.51,218.39L300.22,217.28L300.93,217.5L301.64,214.4L302.35,219.72L303.07,232.37L303.78,228.59L304.49,233.25L305.2,233.03L305.91,231.7L306.62,233.7L307.33,169.14L308.76,178.01L309.47,172.02L310.18,170.02L310.89,170.47L311.6,171.13L312.31,169.14L313.74,172.91L314.45,187.77L315.16,182.89L315.87,194.87L316.58,193.99L317.29,216.17L318.72,176.9L319.43,175.79L320.14,172.47L320.85,175.35L322.27,180.01L322.99,176.24L325.12,211.73L325.83,236.36L326.54,188.88L327.25,191.1L327.97,189.77L328.68,196.87L329.39,195.76L330.1,201.97L330.81,221.72L331.52,213.51L332.23,255.22L332.95,263.87L333.66,283.39L334.37,290.05L335.08,310.46L335.79,245.68L336.5,260.98L337.93,271.19L338.64,265.2L340.77,275.85L341.48,276.29L342.91,167.36L343.62,183.11L345.04,181.56L345.75,197.98L346.46,158.04L347.17,161.59L347.89,156.71L348.6,156.94L349.31,156.94L351.44,165.14L352.15,165.81L353.58,176.46L354.29,192.88L355.71,206.19L356.42,206.85L357.13,204.63L357.85,222.16L359.27,147.4L359.98,151.83L360.69,147.4L361.4,152.72L362.83,154.5L363.54,158.71L364.25,156.49L364.96,156.94L365.67,151.39L366.38,164.48L367.09,158.27L367.81,173.13L368.52,166.03L369.23,180.45L369.94,186.22L370.65,185.78L372.07,186.22L372.79,188.88L373.5,194.21L374.21,217.72L374.92,153.39L375.63,163.81L377.05,178.46L377.77,172.91L378.48,177.12L379.19,172.02L379.9,187.11L380.61,132.09L381.32,130.54L382.03,135.64L382.75,136.97L383.46,148.28L386.3,175.57L387.01,189.33L387.73,206.41L388.44,203.3L389.15,203.75L389.86,232.14L391.28,167.58L391.99,174.68L392.71,169.14L393.42,180.01L394.13,180.67L394.84,127.65L395.55,125.43L396.26,131.87L396.97,128.54L397.69,132.31L398.4,131.2L399.11,138.52L401.24,151.61L401.95,150.28L402.67,168.69L403.38,166.92L405.51,186.44L406.22,186.44L407.65,194.65L408.36,195.32L409.07,216.39L409.78,159.38L410.49,161.15L411.2,175.35L411.91,173.8L412.63,180.23L414.05,196.2L414.76,144.73L415.47,150.06L416.18,146.73L416.89,153.61L417.61,126.76L419.74,131.87L420.45,129.87L421.16,137.63L421.87,137.19L422.59,135.86L423.3,134.31L424.01,136.3L424.72,135.86L425.43,140.96L426.14,142.07L426.85,139.85L428.28,140.96L428.99,135.42L431.12,165.81L431.83,173.57L432.55,184.67L433.26,181.12L435.39,235.92L436.1,182.23L436.81,101.92L437.53,110.57L438.24,105.47L438.95,115.01L439.66,118.56L440.37,114.56L441.79,128.54L442.51,124.55L445.35,168.92L446.06,111.46L446.77,111.01L447.48,120.11L448.2,118.56L448.91,119.89L450.33,131.42L451.04,154.05L451.75,145.18L452.46,151.39L453.89,196.2L454.6,168.47L455.31,109.24L456.02,116.11L456.73,117.67L457.44,111.23L458.87,117.22L459.58,116.34L461.71,132.98L462.42,135.42L463.14,132.31L463.85,133.42L465.98,159.38L466.69,160.26L468.12,180.45L468.83,107.02L472.38,110.79L473.1,106.35L474.52,122.1L475.23,122.1L477.36,142.52L478.08,140.74L478.79,141.18L479.5,148.73L480.21,148.06L480.92,162.48L481.63,163.15L482.34,130.76L484.48,140.74L485.19,164.7L485.9,191.1L486.61,121.88L487.32,123.44L488.04,136.75L488.75,128.76L489.46,129.65L490.17,131.2L490.88,143.85L491.59,120.33L492.3,126.54L493.02,130.54L493.73,127.43L494.44,129.87L495.15,125.65L498,158.49L498.71,158.93L499.42,161.15L500.13,158.27L500.84,159.15L501.55,154.72L502.26,173.8L502.98,168.25L503.69,182.45L504.4,181.12L505.11,182.23L505.82,191.99L507.24,217.06L507.96,154.27L508.67,157.38L509.38,167.58L510.8,87.94L511.51,94.6L512.22,87.27L512.94,97.26L513.65,93.49L514.36,99.03L515.78,111.46L516.49,117.45L517.2,114.78L517.92,132.98L518.63,145.62L519.34,99.7L520.05,94.37L520.76,95.26L521.47,97.7L522.18,105.24L522.9,114.56L523.61,114.34L524.32,121.66L525.03,120.55L525.74,141.41L527.16,139.85L527.88,160.26L528.59,160.04L529.3,188.66L530.01,123.66L530.72,137.63L531.43,131.64L532.14,138.74L532.86,141.63L533.57,140.07L534.28,141.18L534.99,138.97L537.12,166.25L537.84,165.37L538.55,182.45L539.26,123.21L540.68,152.28L541.39,170.02L542.1,103.69L542.82,105.24L543.53,108.13L544.24,110.12L544.95,108.57L545.66,111.01L546.37,107.68L547.8,118.33L548.51,126.76L550.64,161.15L551.35,155.38L552.78,184.67L553.49,135.64L554.2,140.07L554.91,137.86L555.62,137.19L556.33,140.07L557.76,141.63L558.47,135.86L559.18,155.83L559.89,114.34L560.6,111.23L561.31,112.79L562.74,118.78L563.45,120.55L564.16,120.55L564.87,126.76L565.58,125.88L566.29,133.86L567,136.08L567.72,134.31L568.43,148.73L569.14,142.96L569.85,149.61L570.56,171.36L571.27,170.25L571.98,163.15L572.7,178.01L573.41,129.65L574.12,130.31L574.83,133.86L575.54,132.53L576.25,143.18L576.96,145.62L577.68,156.27L578.39,153.83L579.1,166.25L582.66,228.59L583.37,154.94L584.79,166.48L585.5,157.82L586.21,163.81L586.92,187.77L587.64,117.89L588.35,129.43L589.06,124.77L589.77,130.98L590.48,150.72L591.19,111.23L591.9,110.79L592.62,122.55L593.33,126.32L594.04,137.41L594.75,142.96L595.46,137.86L596.88,145.84L597.6,148.95L599.02,151.17L599.73,152.05L601.86,195.32L602.58,140.3L605.42,173.57L606.13,103.91L606.84,99.03L607.56,100.14L608.27,98.14L608.98,99.25L609.69,101.47L610.4,97.04L612.54,108.35L613.25,101.92L613.96,105.69L614.67,102.8L615.38,105.47L616.09,119.22L617.52,123.88L618.23,118.11L618.94,125.43L619.65,146.29L621.78,184.45L622.49,193.76L623.21,196.2L623.92,208.63L625.34,120.55L626.05,118.11L627.47,124.32L628.19,121.22L628.9,123.44L629.61,121.22L631.03,126.76L631.74,141.18L633.17,144.51L633.88,162.93L636.01,220.16L636.72,166.03L637.43,181.56L638.15,178.68L638.86,195.98L639.57,101.69L640.28,109.68L640.99,105.69L643.84,148.51L644.55,147.17L645.26,153.83L645.97,169.36L647.39,198.42L648.11,196.43L649.53,200.42L650.24,200.86L650.95,196.87L651.66,219.5L653.09,168.47L653.8,180.67L654.51,182.89L655.22,180.01L655.93,189.1L656.64,118.11L657.35,113.67L658.07,122.33L659.49,116.56L660.2,117L660.91,117.89L661.62,114.56L662.33,118.11L663.05,125.88L663.76,124.32L664.47,126.76L666.6,145.62L667.31,144.07L668.03,148.06L668.74,158.93L670.16,175.35L670.87,172.02L671.58,185.11L672.29,144.07L673.01,144.29L673.72,145.4L674.43,145.62L675.14,142.74L675.85,148.73L676.56,143.4L677.27,146.95L677.99,163.59L678.7,190.21L679.41,113.45L680.12,114.12L680.83,122.33L681.54,120.55L682.25,126.1L682.97,132.31L683.68,147.84L685.1,183.34L685.81,124.55L686.52,127.21L687.23,125.65L687.95,129.65L688.66,127.65L689.37,127.87L690.08,131.42L690.79,132.31L691.5,136.97L693.64,181.12L694.35,207.3L696.48,113.23L697.19,120.55L698.62,136.97L699.33,155.38L700.75,178.68L701.46,122.1L702.17,117.22L702.89,129.43L703.6,131.42L704.31,136.53L705.02,129.43L705.73,133.86L707.15,132.53L707.87,147.4L710,182.67" style="vector-effect: none; fill: none; stroke: rgb(255, 127, 14); stroke-opacity: 1; stroke-width: 2px; opacity: 1;"/></g><g class="points"/><g class="text"/></g><g class="trace scatter trace948182" style="stroke-miterlimit: 2; opacity: 1;"><g class="fills"/><g class="errorbars"/><g class="lines"><path class="js-line" d="M0,122.33L0.71,117L1.42,127.65L2.13,133.42L2.85,128.76L3.56,130.31L4.27,147.62L5.69,183.56L6.4,118.11L7.11,124.77L7.83,141.85L8.54,144.73L9.25,158.71L9.96,178.68L10.67,122.55L12.09,132.53L12.81,152.94L13.52,166.03L14.23,197.76L16.36,108.13L17.07,117.22L19.92,153.83L20.63,147.62L21.34,179.12L22.05,178.01L22.77,203.97L23.48,130.31L24.19,147.4L24.9,151.83L25.61,174.91L27.03,115.01L27.75,123.21L28.46,137.41L29.17,130.76L32.01,150.5L32.73,175.79L33.44,146.95L34.15,159.6L34.86,156.94L35.57,159.6L36.28,170.02L36.99,107.24L38.42,127.21L39.13,145.62L41.26,235.92L41.97,127.43L42.69,126.54L43.4,129.87L44.11,125.21L44.82,127.21L46.24,131.64L46.95,133.2L47.67,139.63L48.38,154.5L50.51,196.65L51.22,232.81L51.93,180.45L52.65,206.41L54.07,122.55L54.78,127.65L55.49,122.77L56.2,126.1L56.91,124.77L57.63,126.32L58.34,126.54L59.05,129.87L61.18,157.6L61.89,154.94L64.03,208.18L64.74,142.29L66.16,153.83L66.87,175.79L67.59,205.52L68.3,107.24L69.01,106.8L69.72,108.13L70.43,107.91L71.14,119.66L73.28,151.61L73.99,176.68L74.7,139.85L75.41,152.28L76.12,176.46L76.83,110.57L78.26,116.11L78.97,113.67L80.39,125.88L81.1,134.75L81.81,154.5L82.53,153.39L83.95,201.31L84.66,152.94L85.37,152.28L86.08,152.72L88.22,201.08L88.93,203.08L90.35,222.38L91.06,153.61L93.91,201.08L94.62,233.25L95.33,201.31L96.04,120.33L96.75,123.66L97.46,121.66L98.18,124.1L98.89,130.76L99.6,131.87L100.31,128.54L101.02,129.43L101.73,133.64L102.44,133.42L103.16,134.08L106,155.6L106.71,171.13L107.42,167.36L108.14,198.42L108.85,146.06L109.56,162.48L110.27,158.04L110.98,165.14L111.69,180.23L112.4,124.32L113.12,126.54L113.83,138.97L114.54,148.06L115.25,143.62L115.96,144.51L116.67,158.27L118.1,115.45L118.81,120.33L119.52,118.33L120.23,122.33L120.94,139.85L121.65,134.97L123.79,156.94L124.5,154.27L126.63,195.54L127.34,192.88L128.06,188.22L128.77,210.18L130.9,136.08L131.61,140.3L135.17,180.9L135.88,209.07L137.3,156.05L138.02,157.6L140.15,180.45L140.86,175.13L142.28,189.99L143,222.16L145.13,111.68L145.84,110.57L146.55,109.9L147.26,116.56L147.98,127.87L148.69,124.55L149.4,124.77L150.11,134.31L150.82,134.31L151.53,136.75L152.24,143.62L152.96,159.6L153.67,179.56L154.38,127.87L155.09,135.19L155.8,150.5L156.51,151.83L157.22,157.82L160.07,182.67L160.78,181.34L161.49,209.74L162.2,171.8L163.63,122.1L164.34,119.89L165.05,121.88L165.76,128.32L167.18,154.72L167.9,168.69L168.61,182.89L169.32,182.23L170.03,191.32L170.74,230.59L171.45,195.54L172.16,191.99L172.88,195.09L174.3,127.65L175.01,124.55L175.72,125.21L176.43,135.86L177.14,143.62L177.86,160.93L178.57,162.48L179.28,168.92L179.99,184.22L180.7,180.67L181.41,190.44L182.12,187.77L183.55,230.81L184.26,176.24L184.97,123.44L185.68,125.65L186.39,134.53L187.1,128.09L187.82,144.96L189.24,160.71L189.95,158.27L190.66,179.12L191.37,128.09L193.51,154.94L194.22,170.91L194.93,167.36L195.64,190.66L196.35,192.43L197.06,191.99L198.49,209.96L199.2,234.81L200.62,152.5L201.33,164.26L202.04,182L202.76,112.79L203.47,112.79L204.18,114.34L204.89,116.78L205.6,123.44L207.74,142.07L208.45,163.37L209.16,165.59L209.87,189.99L210.58,140.96L211.29,150.95L212,152.05L212.72,164.03L214.85,173.35L215.56,185.78L216.27,210.62L216.98,150.28L217.7,163.37L218.41,121L219.12,122.99L219.83,128.32L221.25,158.04L221.96,182.23L222.68,132.53L223.39,143.62L224.1,143.4L224.81,145.4L225.52,156.49L226.23,155.6L226.94,178.9L227.66,131.64L229.08,140.3L229.79,168.69L231.21,213.29L231.92,167.14L233.35,124.1L234.06,141.63L236.19,184.67L236.9,145.84L237.62,158.49L238.33,156.49L239.04,158.49L239.75,179.34L241.17,114.34L241.88,111.68L242.6,111.23L243.31,120.11L244.02,121.44L244.73,127.43L246.86,161.37L247.58,169.36L249,178.01L249.71,196.43L250.42,207.74L251.13,160.71L251.84,92.15L252.56,98.59L253.98,103.25L254.69,113.9L255.4,111.23L256.11,121L258.25,154.05L258.96,175.79L260.38,225.71L261.09,160.93L261.8,94.6L262.52,95.26L263.23,96.81L263.94,89.71L264.65,97.48L266.78,113.23L267.49,139.85L268.21,170.02L268.92,164.92L269.63,176.24L270.34,201.97L271.76,99.7L272.47,108.57L273.19,110.35L273.9,128.98L274.61,127.65L275.32,136.97L276.03,169.58L276.74,114.12L278.88,143.4L279.59,89.05L280.3,101.25L281.01,95.93L282.43,97.48L283.15,92.6L284.57,87.05L285.28,95.7L285.99,101.69L286.7,99.7L289.55,147.84L290.26,186L290.97,140.96L291.68,166.7L293.11,161.82L293.82,176.68L295.24,114.78L295.95,118.78L298.09,129.65L298.8,140.96L299.51,140.07L300.22,146.95L302.35,197.09L303.07,192.21L303.78,190.88L304.49,205.08L306.62,251L307.33,184.89L308.05,197.76L308.76,117.22L309.47,110.79L310.18,120.33L310.89,125.43L311.6,124.99L312.31,125.43L313.03,144.73L313.74,139.19L314.45,154.94L315.16,168.92L315.87,97.48L316.58,94.82L317.29,106.8L318.72,100.59L319.43,104.13L320.14,106.13L320.85,111.68L321.56,117.67L322.27,116.78L323.7,140.96L324.41,139.41L326.54,165.14L327.25,149.84L327.97,150.06L328.68,170.25L330.1,94.6L330.81,105.69L331.52,106.35L332.23,109.9L332.95,122.1L333.66,119.44L335.08,125.43L335.79,150.72L336.5,166.7L337.21,113.23L337.93,117.22L338.64,133.64L339.35,162.93L340.06,87.5L340.77,86.39L341.48,87.5L342.91,99.48L343.62,96.81L345.75,108.57L346.46,123.88L347.17,123.44L347.89,129.65L348.6,127.43L349.31,133.64L351.44,156.94L352.15,129.2L352.87,129.65L353.58,144.51L354.29,95.7L355,96.81L355.71,96.37L356.42,92.38L357.13,101.47L357.85,96.37L358.56,100.81L360.69,124.1L361.4,130.31L362.11,124.32L362.83,142.74L363.54,144.07L364.25,156.94L364.96,187.33L365.67,137.19L366.38,160.49L367.09,79.73L369.23,87.94L369.94,101.47L371.36,138.52L372.07,101.47L372.79,97.7L373.5,105.91L374.92,109.9L375.63,116.56L376.34,121.22L377.05,135.64L377.77,136.97L378.48,149.17L379.9,197.53L380.61,143.4L381.32,162.04L382.03,111.46L382.75,113.9L383.46,111.46L384.17,117.45L384.88,116.11L387.01,143.4L387.73,143.18L389.15,182L389.86,105.91L391.28,130.98L391.99,153.83L392.71,92.82L393.42,108.79L394.13,106.58L394.84,118.33L395.55,137.86L396.26,87.5L396.97,85.06L397.69,92.38L398.4,96.15L399.11,112.79L401.24,153.61L401.95,99.7L403.38,123.21L404.09,129.87L405.51,162.04L406.22,112.79L409.07,149.84L409.78,170.69L410.49,167.14L411.2,180.01L411.91,188.22L412.63,223.05L414.05,128.32L414.76,146.95L415.47,83.5L416.18,86.61L416.89,95.7L418.32,129.2L419.03,151.39L419.74,166.7L420.45,199.53L421.87,89.49L422.59,92.15L423.3,85.28L424.01,91.27L424.72,92.38L425.43,91.05L428.28,159.82L428.99,92.15L429.7,89.05L430.41,97.04L431.12,98.81L431.83,111.23L433.97,162.48L434.68,183.56L435.39,134.31L436.1,145.4L437.53,83.06L438.24,88.83L439.66,91.27L440.37,97.48L441.08,97.7L441.79,94.6L444.64,192.43L445.35,136.53L446.06,154.27L446.77,110.35L447.48,107.68L448.2,113.23L449.62,118.78L450.33,132.53L451.04,139.63L451.75,161.15L453.18,187.33L453.89,119.44L454.6,127.43L455.31,144.07L456.73,171.36L457.44,92.82L459.58,105.24L460.29,119.66L461,119.89L461.71,121.66L462.42,128.32L463.14,147.17L463.85,66.86L464.56,68.64L465.27,73.74L466.69,84.39L467.4,100.14L468.12,114.12L468.83,76.18L469.54,78.62L470.25,77.51L471.67,90.16L472.38,101.47L473.1,100.14L473.81,119.89L474.52,115.01L475.23,134.31L476.65,79.07L477.36,89.94L478.79,117.89L479.5,116.34L480.21,130.31L480.92,82.39L481.63,85.5L482.34,78.62L484.48,124.99L485.19,81.73L486.61,85.94L487.32,82.62L488.75,97.04L489.46,115.23L490.17,128.98L490.88,124.99L492.3,168.47L493.02,81.73L493.73,84.61L494.44,93.04L495.15,94.15L495.86,87.05L496.57,102.58L497.28,97.48L498,118.56L498.71,117.89L499.42,116.78L500.84,145.62L501.55,91.27L502.26,93.26L502.98,92.15L503.69,92.38L504.4,93.93L505.11,92.82L505.82,96.81L506.53,97.92L507.24,105.02L509.38,122.55L510.09,139.63L510.8,135.86L511.51,145.18L512.94,151.61L513.65,146.29L514.36,155.83L515.07,177.35L515.78,97.26L516.49,106.8L517.92,104.8L518.63,107.24L519.34,106.8L520.05,111.68L520.76,121.88L521.47,115.45L522.9,125.88L523.61,155.38L524.32,96.81L525.03,104.13L525.74,118.56L526.45,62.43L527.16,64.2L527.88,63.76L530.72,107.24L531.43,106.13L532.14,108.57L532.86,106.35L533.57,117.45L534.28,84.61L534.99,87.72L535.7,85.5L536.41,93.93L537.12,93.71L537.84,91.49L539.26,96.81L539.97,106.58L542.1,133.86L542.82,163.59L543.53,181.34L544.24,135.86L544.95,150.28L545.66,82.84L546.37,80.4L547.08,83.95L548.51,90.6L549.22,94.82L549.93,92.15L550.64,93.71L551.35,93.04L552.06,100.59L552.78,99.7L553.49,96.15L557.04,152.05L557.76,182.23L558.47,229.93L559.18,149.61L559.89,173.57L560.6,68.42L563.45,110.79L564.16,149.61L564.87,95.48L565.58,97.04L566.29,103.91L567,100.36L567.72,102.36L568.43,120.77L569.14,115.45L569.85,112.79L570.56,116.34L572.7,146.73L573.41,150.28L574.83,194.21L575.54,194.65L576.25,194.21L576.96,196.2L577.68,193.54L578.39,196.87L579.1,193.54L579.81,199.53L580.52,214.17L581.23,212.4L582.66,216.39L583.37,227.26L584.08,229.26L584.79,225.27L586.21,231.48L586.92,246.56L588.35,196.87L589.06,197.76L590.48,196.43L591.19,198.87L592.62,198.64L593.33,195.98L594.04,197.53L594.75,204.41L595.46,206.19L596.17,218.39L596.88,225.04L597.6,239.46L598.31,255.44L599.02,183.34L599.73,183.34L600.44,181.56L601.15,184.45L601.86,197.76L603.29,199.31L604,206.63L604.71,212.84L605.42,229.26L606.13,228.59L606.84,231.48L607.56,244.35L608.27,183.56L608.98,188.66L609.69,184.89L611.11,194.21L611.82,191.99L613.25,210.4L613.96,213.51L615.38,245.45L616.09,209.74L616.8,209.07L617.52,209.96L618.23,205.08L618.94,208.63L620.36,220.16L621.07,217.5L621.78,222.38L622.49,219.5L623.21,215.95L623.92,227.93L624.63,222.83L625.34,230.15L626.76,225.49L627.47,239.02L628.19,249.23L628.9,198.64L629.61,193.1L630.32,199.53L631.74,193.99L632.45,196.2L633.17,195.98L633.88,193.76L634.59,195.32L635.3,194.65L636.01,196.87L636.72,207.96L637.43,220.39L638.15,215.95L638.86,231.26L639.57,224.38L641.7,271.86L642.41,269.86L643.13,270.75L643.84,268.97L644.55,268.75L645.26,266.75L645.97,266.97L646.68,288.27L648.11,167.81L648.82,172.02L649.53,168.47L650.24,177.12L651.66,170.02L652.37,178.23L653.8,183.78L654.51,181.12L655.22,185.11L655.93,179.12L656.64,196.65L657.35,194.21L658.78,201.08L659.49,201.75L660.2,197.53L660.91,202.86L661.62,213.73L662.33,211.07L663.76,238.58L664.47,195.54L665.18,198.42L665.89,195.76L666.6,193.54L667.31,195.98L668.03,196.2L668.74,198.42L669.45,198.42L670.16,200.42L671.58,218.17L672.29,214.84L673.01,227.71L673.72,223.94L675.85,253.89L676.56,178.9L677.27,177.79L677.99,179.12L678.7,182.67L679.41,182L680.12,182.23L680.83,188.44L681.54,185.33L682.25,194.21L684.39,209.96L685.1,228.82L686.52,191.32L687.23,192.88L689.37,189.99L690.08,192.21L690.79,192.43L691.5,196.65L692.21,197.76L692.93,207.74L693.64,205.97L694.35,214.62L695.06,216.17L695.77,232.59L696.48,230.81L697.19,233.25L699.33,266.09L700.04,197.53L700.75,201.08L701.46,197.09L702.17,204.41L702.89,203.3L703.6,211.51L704.31,208.41L705.02,210.18L705.73,226.38L706.44,108.57L707.15,110.35L707.87,114.56L708.58,123.88L709.29,143.85L710,148.51" style="vector-effect: none; fill: none; stroke: rgb(44, 160, 44); stroke-opacity: 1; stroke-width: 2px; opacity: 1;"/></g><g class="points"/><g class="text"/></g><g class="trace scatter trace82220c" style="stroke-miterlimit: 2; opacity: 1;"><g class="fills"/><g class="errorbars"/><g class="lines"><path class="js-line" d="M0,111.9L0.71,111.46L1.42,116.56L2.13,115.01L2.85,126.99L3.56,130.31L4.27,141.63L4.98,156.49L5.69,150.28L7.11,164.48L7.83,157.6L10.67,145.4L11.38,146.73L14.94,161.37L15.65,176.68L16.36,176.01L17.07,172.47L17.79,173.13L18.5,177.35L19.21,180.67L19.92,178.9L21.34,183.78L22.05,179.12L22.77,183.78L23.48,183.56L24.19,193.32L25.61,204.41L26.32,226.82L27.03,242.57L27.75,238.13L28.46,241.91L29.17,253.22L30.59,249L31.3,266.53L33.44,266.75L34.15,265.64L34.86,263.42L35.57,265.64L36.28,264.09L36.99,266.09L37.71,264.76L38.42,266.09L39.84,263.2L40.55,264.76L41.26,264.53L41.97,265.42L43.4,263.87L44.11,264.76L45.53,263.2L46.24,266.97L46.95,264.53L47.67,266.75L48.38,269.19L49.09,262.09L50.51,269.41L51.22,268.53L52.65,265.64L53.36,271.63L54.07,273.19L54.78,271.86L56.2,214.17L56.91,217.72L57.63,215.73L58.34,216.39L59.05,216.61L59.76,220.16L60.47,216.39L61.18,218.61L62.61,218.17L63.32,218.61L64.74,208.18L65.45,223.27L66.87,248.56L67.59,135.19L69.72,131.87L70.43,138.3L71.14,139.41L71.85,138.08L73.28,136.75L73.99,142.07L75.41,155.83L76.12,155.38L76.83,168.03L77.55,167.58L78.26,179.34L78.97,197.09L79.68,126.99L80.39,124.32L81.1,127.65L81.81,127.43L82.53,134.08L83.95,140.74L84.66,140.07L86.08,151.39L86.79,173.35L88.93,217.5L89.64,141.63L90.35,152.94L91.06,176.24L91.77,216.39L92.48,122.33L93.2,126.1L93.91,135.42L94.62,137.86L95.33,152.94L96.04,166.7L96.75,118.56L97.46,120.33L98.18,128.76L98.89,128.54L99.6,137.63L100.31,136.3L101.02,144.73L102.44,179.79L103.16,119.44L103.87,120.77L104.58,118.33L105.29,119L106,117.67L106.71,118.11L107.42,120.77L108.85,132.31L109.56,142.74L111.69,151.61L112.4,154.72L113.12,150.5L113.83,164.26L114.54,121L115.25,131.2L115.96,130.09L116.67,140.74L117.38,140.52L118.1,148.28L118.81,148.51L119.52,159.38L120.23,120.55L120.94,121L121.65,120.77L122.36,120.55L123.08,122.1L124.5,122.1L125.21,129.87L126.63,146.95L127.34,153.83L130.19,212.4L130.9,123.44L131.61,127.21L132.32,138.52L134.46,142.52L135.17,138.97L136.59,155.16L137.3,152.28L138.02,161.59L138.73,189.55L139.44,215.06L140.15,135.19L140.86,148.06L141.57,100.59L142.28,103.03L143,102.58L143.71,103.47L144.42,106.8L145.84,110.79L146.55,119.22L147.26,119L147.98,125.21L150.82,164.26L151.53,179.34L152.24,119.89L152.96,126.1L154.38,142.29L155.09,157.82L155.8,166.92L156.51,186.66L157.94,141.41L158.65,141.41L160.78,186.44L161.49,185.78L162.2,188.22L162.92,193.54L165.05,218.83L165.76,215.28L166.47,238.58L167.18,164.92L167.9,179.56L168.61,95.26L172.16,128.54L172.88,128.32L173.59,145.4L174.3,109.46L176.43,166.92L177.14,91.27L180.7,132.98L181.41,147.84L182.12,146.29L182.84,165.37L183.55,166.48L184.26,196.2L184.97,111.68L185.68,115.01L186.39,113.9L187.1,122.77L187.82,122.55L188.53,128.98L189.24,132.53L189.95,140.07L190.66,162.26L191.37,92.15L192.08,95.7L192.8,109.9L194.93,145.18L195.64,169.58L196.35,89.71L197.06,99.25L197.78,92.6L198.49,93.71L199.91,83.06L200.62,88.38L201.33,90.6L202.04,90.16L204.18,113.01L204.89,136.08L205.6,167.58L206.31,99.7L207.02,104.13L207.74,98.59L208.45,99.03L209.16,106.35L209.87,105.02L210.58,115.89L211.29,113.23L212,117.89L212.72,123.44L213.43,137.41L214.85,135.19L215.56,139.19L217.7,213.73L218.41,131.2L219.83,128.09L220.54,130.31L221.25,132.75L221.96,127.65L222.68,126.76L223.39,128.32L224.1,134.53L224.81,156.27L225.52,174.24L226.23,139.41L228.37,188.88L229.08,107.24L230.5,112.57L231.21,122.33L232.64,130.76L233.35,130.54L235.48,167.81L236.19,98.14L236.9,104.36L237.62,103.25L238.33,100.59L239.04,107.68L239.75,109.24L240.46,115.23L241.17,118.33L241.88,127.43L242.6,126.1L243.31,128.54L246.15,189.33L246.86,136.53L247.58,150.06L248.29,146.29L249.71,147.84L250.42,147.62L251.13,149.39L251.84,148.06L252.56,149.39L253.27,159.38L253.98,113.67L254.69,118.33L256.82,147.17L257.54,145.84L259.67,179.56L260.38,127.43L262.52,151.17L263.23,147.4L264.65,175.13L265.36,174.68L266.78,189.33L267.49,182.23L268.21,182.23L268.92,191.77L270.34,209.51L271.05,146.51L271.76,143.18L272.47,145.4L273.19,144.07L273.9,164.26L274.61,100.81L275.32,105.24L277.45,124.99L278.17,122.33L278.88,137.63L279.59,136.53L280.3,141.18L281.01,154.72L281.72,165.59L282.43,118.78L284.57,128.09L285.28,120.11L288.13,144.96L288.84,138.74L290.97,160.71L291.68,200.64L292.39,147.62L293.11,150.95L293.82,153.39L294.53,168.92L295.24,111.9L295.95,121L298.09,147.62L298.8,108.79L299.51,116.56L300.22,111.68L301.64,114.78L302.35,115.67L303.78,127.65L304.49,138.3L305.91,145.84L306.62,141.41L307.33,135.42L308.05,139.19L308.76,153.61L309.47,108.79L310.89,115.45L311.6,115.45L314.45,148.06L315.16,99.48L317.29,119.22L318.01,132.31L320.14,157.16L320.85,97.7L321.56,97.7L322.27,102.58L322.99,104.13L323.7,113.9L325.83,148.73L326.54,168.03L327.97,136.3L328.68,145.84L330.1,168.69L330.81,177.12L331.52,210.85L332.23,117.22L333.66,129.43L334.37,127.43L335.79,144.51L336.5,137.63L337.21,156.71L337.93,98.59L338.64,100.14L339.35,99.48L340.06,97.26L340.77,105.47L341.48,102.36L342.19,103.25L345.04,141.18L345.75,137.63L347.17,166.03L347.89,194.87L348.6,144.73L349.31,154.94L350.02,162.48L350.73,159.15L351.44,156.94L352.15,163.15L352.87,168.25L353.58,162.04L354.29,161.37L355,172.47L356.42,130.54L357.13,134.97L357.85,135.42L358.56,132.98L359.27,132.31L359.98,138.52L361.4,139.41L362.11,139.41L362.83,143.4L363.54,151.83L364.25,150.5L364.96,153.83L366.38,160.26L367.09,177.12L367.81,174.02L368.52,197.09L369.94,161.37L370.65,167.14L371.36,168.69L372.07,164.48L372.79,165.14L373.5,162.7L374.21,165.59L374.92,163.15L375.63,165.37L376.34,163.59L377.77,162.26L378.48,164.92L379.19,163.37L379.9,165.81L380.61,166.48L381.32,165.81L384.17,172.02L384.88,168.69L385.59,172.24L386.3,171.13L387.01,174.02L387.73,185.78L388.44,191.1L389.15,184.67L390.57,206.63L391.28,210.18L392.71,226.38L393.42,226.82L394.13,249.89L394.84,199.53L396.26,197.31L396.97,209.96L397.69,207.96L398.4,202.42L399.82,215.28L400.53,206.41L401.24,225.04L401.95,130.98L402.67,127.21L403.38,130.09L404.8,126.76L405.51,128.76L406.93,126.1L407.65,125.43L408.36,127.87L409.07,138.52L409.78,141.41L410.49,152.28L411.2,154.05L411.91,160.26L414.05,192.88L414.76,140.52L416.18,152.28L416.89,154.5L417.61,150.5L418.32,154.05L419.03,148.51L419.74,154.27L421.16,172.91L421.87,176.9L422.59,179.79L423.3,177.57L424.01,204.63L424.72,119.89L426.14,140.52L426.85,166.92L428.28,111.46L428.99,113.45L430.41,109.02L431.12,109.02L431.83,104.36L432.55,110.12L433.26,108.79L433.97,111.46L436.1,127.21L436.81,131.64L437.53,124.77L438.24,130.09L438.95,121.88L439.66,140.96L441.08,181.12L441.79,109.9L442.51,104.36L443.22,107.91L443.93,108.13L444.64,116.11L446.06,130.31L446.77,141.41L447.48,143.4L448.2,168.69L449.62,184.22L450.33,187.77L451.75,130.09L452.46,128.32L453.18,129.65L453.89,144.29L456.02,165.81L456.73,195.76L458.16,152.94L458.87,167.81L459.58,182.89L460.29,114.12L461,116.11L461.71,113.9L462.42,114.56L463.14,109.68L463.85,115.23L464.56,110.57L465.27,111.01L465.98,106.58L467.4,112.12L468.12,112.12L468.83,111.68L469.54,113.23L470.25,113.9L470.96,109.24L472.38,112.34L473.1,120.77L474.52,128.09L475.23,129.43L476.65,155.6L477.36,179.56L478.08,119.44L478.79,123.66L479.5,124.99L480.21,128.32L481.63,135.64L482.34,133.64L485.9,218.39L486.61,122.99L488.04,124.77L488.75,137.86L489.46,143.4L490.17,140.52L490.88,140.96L491.59,149.39L492.3,166.7L493.02,134.97L495.86,174.46L496.57,130.09L498,126.99L498.71,128.09L499.42,126.76L500.13,127.65L500.84,127.87L501.55,129.2L503.69,133.86L504.4,139.41L505.11,136.08L505.82,144.07L508.67,204.63L509.38,202.86L510.09,216.39L510.8,213.73L511.51,222.6L512.22,220.39L512.94,248.56L513.65,100.14L514.36,108.57L515.07,107.02L515.78,106.8L516.49,111.68L517.2,118.56L517.92,113.45L519.34,121L520.05,132.98L520.76,134.75L521.47,144.96L523.61,166.7L524.32,183.56L525.03,107.46L525.74,110.79L526.45,113.9L527.16,114.12L527.88,115.23L528.59,118.33L529.3,113.01L531.43,152.72L532.14,165.59L532.86,194.65L533.57,151.61L534.99,88.83L535.7,92.38L536.41,91.27L537.12,91.71L537.84,93.71L538.55,91.27L539.26,106.8L539.97,97.92L541.39,122.77L542.1,122.33L543.53,156.94L544.24,118.33L545.66,134.31L546.37,130.98L547.8,128.76L548.51,130.09L549.22,138.97L549.93,160.04L550.64,157.16L551.35,193.54L552.06,132.53L552.78,134.97L553.49,145.4L554.2,160.71L554.91,85.06L556.33,89.05L557.04,89.27L557.76,84.83L558.47,88.83L559.18,87.72L559.89,96.15L562.02,108.79L562.74,108.79L564.87,139.85L565.58,100.59L566.29,98.37L567,103.47L569.85,124.55L570.56,134.75L571.27,156.27L571.98,102.8L572.7,107.46L573.41,105.47L574.12,104.13L574.83,118.11L576.25,130.98L576.96,132.31L578.39,155.83L579.1,165.14L579.81,177.57L580.52,119.44L581.23,116.56L581.94,120.11L584.08,150.95L584.79,162.7L586.21,196.43L586.92,129.43L587.64,126.1L588.35,140.52L589.06,76.18L589.77,79.29L590.48,90.6L592.62,115.45L593.33,129.65L594.04,82.39L594.75,98.37L595.46,98.59L596.17,116.11L596.88,121.66L597.6,133.42L598.31,149.84L599.02,88.61L600.44,101.03L601.15,105.02L604,164.48L604.71,101.69L605.42,118.78L606.13,63.54L606.84,65.53L607.56,80.62L608.98,86.61L609.69,95.04L611.11,122.99L611.82,121.66L613.96,159.82L614.67,90.38L616.8,130.31L617.52,141.41L618.23,175.79L618.94,109.9L619.65,124.1L620.36,68.64L622.49,84.39L623.21,86.16L623.92,91.05L624.63,90.38L625.34,89.94L626.05,101.92L628.19,149.17L628.9,149.39L629.61,160.04L630.32,91.93L631.74,111.68L632.45,107.24L633.88,126.32L634.59,125.65L636.72,144.73L637.43,94.6L638.15,98.59L638.86,97.26L639.57,99.92L640.28,120.11L640.99,115.23L641.7,139.63L642.41,106.58L643.13,112.79L644.55,128.98L645.26,113.67L646.68,119.22L647.39,118.78L648.11,123.88L648.82,121L649.53,124.55L650.24,118.56L650.95,118.78L651.66,125.65L653.8,146.29L654.51,157.82L655.22,186.44L655.93,121.66L657.35,116.11L658.07,121.88L658.78,119.66L659.49,127.43L660.2,136.08L660.91,134.08L662.33,142.74L663.05,156.49L665.18,190.21L665.89,147.17L667.31,174.91L668.03,121L668.74,124.1L669.45,122.1L670.16,119L670.87,125.88L671.58,129.43L672.29,126.76L673.01,124.1L673.72,126.32L675.14,133.86L675.85,140.96L676.56,140.74L677.27,151.83L679.41,180.45L680.12,198.42L680.83,126.76L681.54,129.43L682.25,138.74L682.97,139.41L683.68,158.27L684.39,160.93L685.1,173.13L685.81,184.22L686.52,209.51L687.23,164.03L687.95,176.9L688.66,176.46L689.37,181.56L690.79,186.22L691.5,185.33L692.21,193.99L692.93,216.17L693.64,143.85L694.35,152.94L695.06,160.04L695.77,176.01L696.48,175.79L697.19,198.42L697.91,145.84L698.62,151.61L699.33,150.5L700.04,154.72L700.75,157.16L701.46,156.49L702.89,168.03L703.6,170.47L705.02,168.25L705.73,167.81L707.15,168.25L707.87,170.25L708.58,166.7L709.29,171.13L710,177.79" style="vector-effect: none; fill: none; stroke: rgb(214, 39, 40); stroke-opacity: 1; stroke-width: 2px; opacity: 1;"/></g><g class="points"/><g class="text"/></g><g class="trace scatter trace72acd2" style="stroke-miterlimit: 2; opacity: 1;"><g class="fills"/><g class="errorbars"/><g class="lines"><path class="js-line" d="M0,111.9L0.71,111.46L1.42,116.56L2.13,115.01L2.85,126.99L3.56,130.31L4.27,141.63L4.98,156.49L5.69,150.28L6.4,162.93L7.11,160.93L7.83,160.49L8.54,158.93L11.38,170.25L12.09,179.79L15.65,235.03L16.36,159.38L17.07,161.15L17.79,160.49L18.5,156.94L19.21,157.82L19.92,153.16L20.63,154.27L21.34,158.27L22.05,154.94L22.77,154.27L23.48,156.71L25.61,170.69L26.32,188.44L27.75,185.33L28.46,191.54L29.17,207.07L29.88,206.85L30.59,207.3L32.01,230.15L32.73,230.37L33.44,232.59L34.15,228.82L36.28,222.6L36.99,226.15L37.71,223.49L38.42,227.26L39.13,220.16L39.84,220.83L40.55,221.72L41.26,220.83L44.11,211.07L44.82,211.51L46.95,215.73L47.67,213.73L48.38,213.06L49.09,209.96L50.51,218.83L51.22,216.61L51.93,213.73L52.65,215.73L54.07,219.94L54.78,220.16L56.2,160.71L56.91,161.59L57.63,158.04L58.34,160.93L59.05,160.71L59.76,164.7L60.47,169.8L61.18,167.36L62.61,169.58L63.32,173.57L66.16,182.23L66.87,188.22L67.59,186.22L68.3,192.88L69.01,190.66L69.72,191.99L70.43,209.29L71.14,121.22L71.85,125.65L72.57,120.77L73.99,121.88L74.7,130.76L76.12,132.09L76.83,142.96L77.55,143.18L78.26,152.28L78.97,166.92L79.68,165.59L80.39,166.25L81.1,163.81L81.81,191.99L82.53,116.11L83.24,115.45L83.95,110.35L85.37,118.11L86.08,119.44L88.22,148.51L88.93,154.5L91.77,205.97L92.48,229.04L93.91,104.36L94.62,105.91L95.33,105.47L96.04,103.91L97.46,106.35L98.18,112.79L98.89,115.01L99.6,123.66L100.31,119.22L101.02,132.09L102.44,160.93L103.16,158.71L104.58,167.14L105.29,160.26L106.71,164.7L107.42,165.14L108.85,172.24L109.56,173.13L110.27,172.24L110.98,176.46L111.69,175.35L112.4,176.46L113.83,175.35L114.54,174.68L115.25,182.23L115.96,182L116.67,180.67L117.38,181.78L118.1,180.23L118.81,178.9L119.52,179.56L120.23,189.1L120.94,188.22L121.65,188.88L122.36,187.11L123.08,186L123.79,186.89L125.21,185.55L125.92,195.76L126.63,195.32L127.34,197.09L128.06,200.42L128.77,199.09L130.19,214.4L130.9,214.17L131.61,212.84L132.32,229.48L133.04,166.92L133.75,171.58L134.46,174.02L135.17,167.58L136.59,186.44L137.3,186.22L138.02,193.54L138.73,204.63L139.44,203.97L140.15,204.86L140.86,218.39L141.57,219.05L142.28,124.1L144.42,143.18L145.13,141.63L145.84,141.85L146.55,151.83L147.26,153.39L147.98,159.15L148.69,166.03L149.4,164.92L150.11,186.89L150.82,118.56L151.53,119.22L152.24,122.33L152.96,120.33L153.67,125.65L154.38,131.2L155.09,143.85L155.8,150.5L156.51,117.89L157.22,122.77L157.94,119.44L158.65,121L159.36,133.2L160.78,159.6L161.49,163.15L162.2,156.71L162.92,169.36L163.63,187.11L164.34,142.07L165.05,143.62L165.76,140.96L167.18,143.4L167.9,155.83L168.61,110.12L169.32,115.23L170.03,112.12L170.74,119.22L171.45,123.88L172.16,135.64L172.88,139.19L173.59,153.39L174.3,172.69L175.01,110.35L175.72,111.23L176.43,108.13L177.14,108.79L177.86,114.56L179.28,105.69L179.99,110.57L180.7,113.45L181.41,126.99L182.12,123.44L182.84,131.42L183.55,136.3L184.26,150.5L184.97,149.39L185.68,175.13L186.39,89.49L187.1,94.82L187.82,94.82L188.53,104.13L189.24,101.69L189.95,113.9L191.37,132.75L192.08,135.64L192.8,142.52L193.51,176.46L194.22,107.46L194.93,115.23L195.64,131.87L196.35,89.49L197.06,87.72L197.78,90.38L199.91,96.81L200.62,93.93L203.47,133.2L204.18,134.08L204.89,144.29L205.6,169.36L207.02,88.83L207.74,96.59L208.45,93.71L209.16,95.7L212,111.9L212.72,108.35L213.43,117.89L214.14,115.23L215.56,116.34L216.27,137.19L218.41,180.23L219.12,106.13L221.25,117.89L221.96,111.68L224.1,146.29L224.81,186.66L225.52,170.91L226.23,119.22L227.66,127.43L228.37,126.32L229.08,127.43L229.79,137.41L230.5,135.42L231.21,136.08L231.92,144.96L232.64,143.4L233.35,141.63L234.06,148.06L234.77,151.83L235.48,166.7L236.19,180.9L236.9,178.68L238.33,193.76L239.04,138.08L240.46,150.95L241.17,152.72L242.6,149.17L243.31,148.28L244.02,159.82L244.73,111.46L246.15,120.33L246.86,128.54L248.29,146.73L249,150.28L250.42,146.06L251.13,149.61L253.27,171.58L253.98,206.41L254.69,140.3L255.4,160.49L256.11,160.26L256.82,152.28L257.54,152.72L258.25,159.15L258.96,149.84L259.67,181.78L260.38,113.67L261.09,117.45L261.8,136.97L262.52,161.15L263.23,107.91L263.94,110.12L264.65,108.35L266.07,112.12L266.78,112.57L268.21,113.01L268.92,111.46L269.63,113.67L270.34,118.56L271.05,116.78L271.76,126.54L272.47,142.74L273.19,139.85L275.32,191.77L276.03,127.87L276.74,138.52L277.45,137.41L278.17,137.41L278.88,145.62L279.59,149.39L280.3,147.17L281.01,143.85L281.72,144.07L282.43,156.71L283.86,92.38L284.57,89.49L286.7,105.69L287.41,117.67L288.13,115.23L288.84,117.67L289.55,132.75L290.26,129.65L290.97,156.71L291.68,96.81L292.39,97.04L293.11,99.92L293.82,105.91L294.53,104.58L298.09,152.5L298.8,111.9L300.22,119L300.93,117.45L301.64,118.33L302.35,121.66L304.49,138.74L305.2,137.86L306.62,139.19L307.33,139.63L308.05,138.74L308.76,146.95L310.18,171.8L310.89,106.58L311.6,105.02L312.31,105.47L315.16,143.85L315.87,167.81L316.58,134.75L317.29,138.74L318.01,146.29L318.72,117L320.14,122.33L320.85,121.44L321.56,122.1L322.27,129.87L324.41,158.04L325.12,178.9L325.83,109.68L326.54,112.57L327.25,113.23L327.97,117.22L328.68,127.87L329.39,128.32L330.1,135.42L330.81,145.62L331.52,144.73L332.23,148.06L332.95,162.48L333.66,160.93L334.37,96.59L335.08,95.48L335.79,98.37L336.5,97.04L337.21,97.92L338.64,112.12L339.35,113.45L341.48,126.1L342.19,132.98L344.33,204.63L345.04,170.47L345.75,172.47L346.46,177.79L347.17,189.33L347.89,218.61L348.6,141.63L349.31,143.85L350.02,140.96L350.73,139.85L351.44,156.49L352.15,106.58L352.87,122.99L354.29,132.31L355,130.31L356.42,136.53L357.13,136.75L357.85,158.04L358.56,154.27L359.27,155.83L359.98,176.01L360.69,95.48L361.4,103.47L362.11,102.14L362.83,106.35L363.54,106.35L364.25,119.89L366.38,135.42L367.09,160.26L368.52,194.21L369.23,157.38L369.94,113.45L370.65,127.21L372.07,147.4L372.79,111.23L373.5,110.79L374.21,109.24L374.92,111.23L375.63,117.22L376.34,113.01L377.05,113.23L377.77,117.22L378.48,128.09L379.19,125.21L382.03,160.49L382.75,185.33L383.46,116.34L384.17,121.66L384.88,120.33L385.59,120.77L387.01,131.42L387.73,133.42L389.86,146.51L390.57,156.71L391.99,95.7L392.71,91.49L394.13,100.81L394.84,97.26L395.55,104.36L396.26,103.69L397.69,120.33L398.4,125.65L399.11,124.1L399.82,117.89L400.53,122.33L401.24,134.08L401.95,159.15L402.67,158.27L403.38,177.57L404.09,99.92L404.8,110.79L405.51,111.01L406.22,123.88L406.93,72.41L407.65,72.63L408.36,81.95L410.49,114.56L411.2,111.23L411.91,126.54L412.63,57.55L413.34,54.44L414.05,55.99L416.18,81.95L416.89,82.39L417.61,90.38L418.32,109.9L419.03,128.98L419.74,126.76L420.45,133.42L421.16,154.05L422.59,93.49L423.3,91.71L424.01,113.23L424.72,75.52L429.7,119.44L430.41,129.87L431.12,144.29L431.83,101.69L432.55,103.03L433.26,110.79L433.97,109.68L434.68,119L436.1,139.41L436.81,135.42L438.24,141.63L438.95,138.97L440.37,159.15L441.08,170.47L441.79,203.52L442.51,126.99L443.22,143.4L443.93,124.77L444.64,124.32L445.35,133.64L446.06,146.06L446.77,139.63L448.2,151.39L448.91,111.9L450.33,109.46L451.04,113.9L451.75,116.11L452.46,128.54L455.31,178.68L456.02,102.8L457.44,115.67L458.16,119.89L459.58,138.74L460.29,136.53L461,136.3L461.71,138.08L462.42,135.64L463.14,147.84L463.85,158.71L464.56,155.16L465.27,172.91L465.98,127.43L466.69,124.77L467.4,134.97L468.12,133.86L468.83,138.3L470.25,132.09L470.96,145.18L471.67,150.95L472.38,179.79L473.1,98.37L473.81,112.34L474.52,119.44L475.23,115.23L476.65,150.5L477.36,94.6L478.08,100.14L478.79,97.04L479.5,103.91L480.21,99.92L480.92,98.59L481.63,102.58L482.34,105.02L483.06,103.91L485.9,151.39L486.61,107.68L488.04,103.25L488.75,115.01L490.17,123.88L490.88,124.32L491.59,127.87L492.3,147.62L494.44,180.9L495.15,120.77L495.86,124.55L496.57,122.1L497.28,141.41L498,86.39L498.71,84.61L499.42,96.59L500.13,94.37L500.84,103.47L501.55,107.91L502.26,121L503.69,143.18L504.4,84.39L505.11,85.28L505.82,97.04L507.96,126.99L508.67,75.29L510.09,76.63L510.8,80.17L511.51,92.6L512.22,91.27L512.94,102.58L513.65,101.92L514.36,128.98L515.07,127.43L515.78,140.52L516.49,105.24L517.2,105.24L517.92,97.92L518.63,109.02L519.34,102.8L520.76,122.33L521.47,114.34L522.9,117.67L523.61,125.21L524.32,137.19L525.03,130.98L526.45,173.57L527.16,149.39L528.59,71.08L529.3,68.19L530.01,62.65L530.72,72.19L531.43,72.19L532.14,81.73L533.57,103.91L534.28,102.8L534.99,118.11L535.7,116.56L537.12,125.88L537.84,133.2L538.55,151.61L539.26,101.92L540.68,95.48L541.39,96.59L542.82,108.13L543.53,116.56L545.66,159.82L546.37,172.02L547.8,113.45L548.51,118.56L549.22,113.45L549.93,127.43L550.64,126.1L551.35,140.52L552.06,92.82L552.78,96.59L554.91,101.03L555.62,100.36L556.33,101.69L557.04,111.01L558.47,103.91L559.18,106.8L561.31,144.07L562.02,111.23L562.74,112.79L563.45,106.13L564.16,107.68L564.87,113.01L565.58,109.24L566.29,122.33L567.72,142.29L568.43,139.85L569.85,178.46L570.56,119.89L571.98,126.54L572.7,134.08L574.12,179.34L574.83,108.35L577.68,129.87L578.39,143.4L581.23,177.57L581.94,113.45L582.66,119.89L583.37,116.11L584.08,114.12L584.79,118.11L587.64,164.92L588.35,184.45L589.06,198.2L589.77,250.34L590.48,66.86L591.19,68.42L591.9,75.52L594.75,127.87L595.46,148.95L596.17,73.3L596.88,80.4L599.02,113.67L599.73,90.16L600.44,96.81L601.15,92.15L604,144.51L604.71,172.69L605.42,144.07L606.13,83.72L606.84,80.84L607.56,92.6L608.27,98.37L608.98,96.37L609.69,103.03L610.4,125.21L611.11,134.97L611.82,133.86L613.25,166.25L613.96,95.04L614.67,91.93L615.38,103.91L617.52,120.77L618.23,146.51L618.94,83.28L619.65,98.37L621.07,109.02L621.78,126.1L623.21,59.54L623.92,67.31L624.63,68.86L625.34,65.53L626.05,58.66L626.76,73.08L628.19,91.27L628.9,89.05L633.17,143.85L633.88,65.75L635.3,68.86L636.01,70.64L638.15,91.05L638.86,92.6L640.28,115.23L640.99,113.01L641.7,135.64L642.41,92.38L643.13,93.93L643.84,99.92L645.26,94.15L645.97,99.03L646.68,102.58L647.39,111.46L650.95,141.18L651.66,163.37L653.8,207.52L654.51,125.43L655.22,57.55L655.93,72.19L657.35,69.08L658.07,70.86L658.78,77.29L659.49,90.6L660.91,107.24L661.62,121.44L662.33,128.09L663.05,159.15L664.47,54.88L665.18,67.53L668.03,109.46L668.74,122.77L669.45,59.54L670.16,61.98L670.87,67.97L672.29,94.82L673.01,93.49L673.72,95.7L674.43,90.6L675.85,119.66L676.56,117L677.27,125.21L677.99,83.28L678.7,87.05L679.41,86.16L680.83,103.03L681.54,128.32L682.97,156.27L683.68,191.77L684.39,115.23L685.1,132.53L685.81,91.27L686.52,93.26L687.23,94.82L687.95,99.25L688.66,91.71L689.37,95.7L690.08,109.46L690.79,115.89L691.5,115.01L692.93,140.96L693.64,140.3L694.35,152.72L695.06,190.44L695.77,118.78L696.48,120.33L697.19,113.23L698.62,135.86L699.33,138.52L700.04,140.74L700.75,151.39L701.46,176.01L702.17,104.58L704.31,158.04L705.02,105.91L706.44,105.91L707.15,104.36L707.87,107.68L708.58,102.36L709.29,103.47L710,111.9" style="vector-effect: none; fill: none; stroke: rgb(148, 103, 189); stroke-opacity: 1; stroke-width: 2px; opacity: 1;"/></g><g class="points"/><g class="text"/></g><g class="trace scatter trace312744" style="stroke-miterlimit: 2; opacity: 1;"><g class="fills"/><g class="errorbars"/><g class="lines"><path class="js-line" d="M0,101.69L0.71,99.25L1.42,102.58L2.85,96.81L3.56,99.92L4.27,97.48L4.98,99.92L5.69,95.93L6.4,103.25L7.83,106.35L8.54,110.12L9.96,152.05L10.67,150.06L11.38,165.37L12.09,112.57L12.81,115.23L13.52,109.24L14.23,110.57L14.94,113.9L15.65,112.57L16.36,115.23L17.79,119.44L18.5,124.99L19.21,126.32L19.92,130.09L20.63,128.98L21.34,142.52L22.05,151.17L22.77,150.5L25.61,195.76L26.32,212.18L27.75,131.87L28.46,136.3L29.88,151.83L30.59,162.26L31.3,155.83L32.01,177.79L32.73,72.41L33.44,75.96L34.15,86.39L34.86,88.61L35.57,101.47L36.28,99.48L36.99,118.33L37.71,117.89L38.42,128.76L39.13,140.52L39.84,104.36L40.55,104.8L41.26,114.12L42.69,112.79L43.4,113.67L45.53,165.59L46.24,158.71L46.95,158.04L47.67,186.44L49.09,121L49.8,134.75L50.51,151.83L51.22,90.6L52.65,94.37L53.36,98.59L54.07,95.26L54.78,98.14L56.2,126.1L56.91,122.77L57.63,123.44L58.34,142.29L59.76,169.14L60.47,171.13L61.18,188.66L61.89,113.23L62.61,117.45L63.32,137.19L64.03,75.07L64.74,78.84L66.16,88.16L66.87,89.49L68.3,91.71L69.01,89.94L70.43,113.9L71.14,117.45L72.57,123.44L73.28,121.88L75.41,146.06L76.12,153.39L76.83,156.27L77.55,169.14L78.26,147.84L78.97,148.95L79.68,151.39L80.39,160.71L81.1,153.83L81.81,152.5L82.53,165.59L83.24,167.81L83.95,186L84.66,129.43L85.37,142.07L86.08,140.52L86.79,143.18L88.22,151.17L88.93,145.18L90.35,170.91L91.06,168.92L91.77,183.34L92.48,280.06L93.2,193.76L93.91,194.87L94.62,203.97L95.33,210.18L96.04,207.52L97.46,223.49L98.18,223.27L98.89,230.15L99.6,227.04L101.02,241.24L101.73,257.66L102.44,184.22L103.16,188.66L103.87,203.52L104.58,202.64L105.29,206.85L106,201.75L109.56,250.78L110.27,200.42L110.98,204.63L111.69,201.97L112.4,200.64L113.12,203.75L113.83,203.08L114.54,210.4L116.67,227.48L117.38,244.57L118.1,179.12L118.81,180.9L119.52,183.34L120.23,189.55L120.94,186.44L121.65,199.09L122.36,197.76L123.79,217.95L124.5,218.39L126.63,239.24L127.34,178.01L128.06,181.34L128.77,180.01L129.48,193.32L130.19,193.1L130.9,190.21L131.61,188.22L132.32,199.53L133.04,212.84L133.75,208.63L134.46,210.4L135.17,208.18L136.59,209.29L137.3,207.74L138.02,203.97L138.73,217.06L140.15,214.62L140.86,216.17L141.57,217.5L142.28,223.94L143,168.03L143.71,170.47L144.42,169.58L145.13,170.91L145.84,169.14L146.55,168.25L147.26,179.79L147.98,190.44L148.69,189.55L150.82,197.09L151.53,207.74L153.67,229.26L154.38,228.37L155.09,230.59L155.8,229.93L156.51,249.23L157.22,194.21L158.65,198.42L159.36,198.42L160.78,196.65L161.49,196.2L162.92,200.2L163.63,197.53L164.34,198.64L165.05,196.2L167.9,208.85L168.61,220.61L171.45,256.55L172.16,264.09L172.88,262.98L173.59,266.75L175.01,160.26L175.72,155.38L176.43,159.82L177.14,155.6L177.86,181.34L178.57,99.03L179.99,109.24L180.7,102.58L184.26,137.86L184.97,136.53L186.39,139.19L187.1,157.16L187.82,153.16L188.53,158.49L189.24,189.77L189.95,110.57L191.37,108.13L192.08,110.57L192.8,111.68L193.51,107.24L195.64,124.1L196.35,134.31L197.06,168.92L197.78,89.94L199.2,106.13L199.91,122.77L200.62,117.67L201.33,121.88L202.04,124.55L202.76,139.19L203.47,93.26L204.18,112.34L204.89,112.57L205.6,123.88L206.31,124.99L207.02,132.31L207.74,143.85L208.45,81.51L210.58,102.58L211.29,117.89L212,77.29L212.72,91.93L213.43,84.83L214.14,91.49L215.56,83.5L216.27,91.49L216.98,92.82L217.7,99.92L219.12,108.35L219.83,122.55L221.25,149.61L221.96,105.69L223.39,137.19L224.1,109.46L225.52,133.64L226.23,76.63L226.94,79.73L227.66,78.4L228.37,84.83L229.08,98.14L229.79,97.7L230.5,102.36L231.92,130.09L232.64,134.53L233.35,159.38L234.06,119.44L234.77,137.19L235.48,89.94L236.19,79.07L236.9,82.17L238.33,83.5L239.04,80.62L239.75,77.07L240.46,86.83L244.02,134.97L244.73,152.72L246.15,178.9L246.86,190.21L248.29,71.52L249,70.86L249.71,80.84L250.42,79.95L251.13,90.82L251.84,85.5L253.27,88.83L253.98,91.05L256.11,125.88L256.82,117.67L258.25,158.71L258.96,125.88L259.67,129.2L260.38,128.32L261.09,135.42L261.8,152.94L262.52,112.79L263.23,133.2L263.94,146.95L264.65,143.85L265.36,162.26L266.07,122.55L266.78,133.2L267.49,131.42L268.21,133.64L268.92,88.61L269.63,87.05L270.34,90.16L271.05,91.71L271.76,96.37L274.61,115.89L275.32,125.65L276.03,136.75L276.74,130.76L278.88,188.44L279.59,197.09L281.01,209.51L281.72,155.6L282.43,154.72L283.15,162.48L283.86,85.94L284.57,90.6L287.41,124.99L288.13,135.64L288.84,140.74L289.55,158.27L290.26,157.16L290.97,152.5L291.68,167.36L292.39,112.12L293.11,115.67L293.82,126.32L295.24,152.72L295.95,59.76L297.37,52.89L298.09,61.32L298.8,73.3L299.51,72.63L300.22,75.96L303.07,147.62L303.78,85.06L305.2,110.35L305.91,111.46L307.33,132.53L308.05,144.96L308.76,80.84L309.47,82.62L310.18,90.6L311.6,96.37L312.31,109.68L316.58,184L317.29,117.89L318.72,124.99L319.43,127.87L321.56,122.1L322.27,130.76L323.7,144.07L324.41,171.36L325.83,129.43L326.54,148.51L327.97,109.68L328.68,109.9L330.1,105.69L330.81,106.8L331.52,109.9L332.23,108.13L334.37,110.79L335.08,114.56L337.21,132.09L337.93,132.98L338.64,131.64L339.35,125.88L342.91,179.79L343.62,179.34L344.33,210.85L345.04,160.71L345.75,178.68L346.46,124.32L347.89,120.77L348.6,121.44L349.31,127.65L350.02,126.54L350.73,125.43L351.44,130.09L352.15,126.76L352.87,133.42L355,153.16L355.71,166.03L358.56,205.74L359.27,115.89L360.69,129.87L361.4,127.43L362.11,126.99L362.83,128.54L364.25,126.1L364.96,133.64L366.38,139.41L367.09,152.72L368.52,156.49L369.23,151.83L369.94,182.45L370.65,99.25L372.07,105.02L372.79,125.88L373.5,125.21L374.21,157.6L374.92,170.69L375.63,112.12L376.34,130.98L377.05,69.75L377.77,63.98L378.48,72.19L382.03,84.83L382.75,91.71L384.88,98.14L385.59,112.57L386.3,125.43L387.01,125.21L387.73,122.99L388.44,120.33L389.15,138.52L390.57,93.71L391.28,95.04L392.71,120.77L393.42,114.12L395.55,144.29L396.26,142.96L397.69,156.94L398.4,163.81L399.11,147.84L399.82,91.27L400.53,101.03L401.24,99.48L401.95,97.26L402.67,106.8L405.51,133.86L406.22,150.5L407.65,158.04L408.36,159.38L409.07,159.6L409.78,179.34L410.49,97.04L411.2,102.8L411.91,113.9L412.63,112.12L413.34,109.9L414.05,110.35L416.89,163.37L417.61,162.26L418.32,159.82L419.03,160.49L419.74,160.71L420.45,187.77L421.87,118.33L422.59,128.09L423.3,83.06L424.01,88.61L426.14,87.27L426.85,84.83L427.57,89.49L428.28,84.17L429.7,105.24L430.41,100.59L431.83,140.3L432.55,89.05L434.68,107.91L435.39,116.56L436.81,145.18L437.53,87.27L438.24,88.83L438.95,102.58L440.37,107.24L441.08,114.12L441.79,143.62L442.51,138.74L443.93,164.03L444.64,124.1L445.35,123.88L446.06,124.99L446.77,124.55L447.48,129.43L448.2,130.31L448.91,149.61L449.62,107.46L450.33,109.02L451.04,116.56L451.75,116.78L452.46,126.76L453.18,124.1L453.89,125.43L456.02,141.85L456.73,156.05L458.16,190.21L458.87,134.97L459.58,134.75L460.29,130.76L461.71,126.76L462.42,134.75L463.14,131.87L463.85,135.86L465.27,152.5L465.98,157.6L467.4,187.77L468.12,94.82L468.83,93.93L469.54,98.14L470.25,99.7L470.96,123.44L471.67,115.67L472.38,116.56L475.23,155.83L475.94,168.92L476.65,114.12L477.36,116.56L478.08,113.01L479.5,127.21L480.21,121.44L480.92,141.63L481.63,103.47L483.06,118.56L483.77,69.97L484.48,74.41L485.19,74.18L485.9,74.63L487.32,80.62L488.04,82.39L488.75,93.26L489.46,92.38L491.59,140.74L492.3,69.3L495.15,102.8L495.86,98.14L499.42,138.97L500.13,102.14L502.26,123.66L502.98,120.33L503.69,138.97L504.4,82.39L505.11,83.95L505.82,90.82L507.96,126.32L508.67,146.29L510.09,68.86L510.8,75.96L511.51,71.08L512.22,81.51L513.65,101.47L514.36,57.32L515.78,73.3L516.49,67.97L517.2,71.97L517.92,68.19L518.63,78.18L519.34,72.19L520.05,68.42L520.76,68.86L522.18,95.93L522.9,92.6L523.61,99.03L524.32,97.48L525.74,109.68L526.45,61.54L527.16,73.08L527.88,69.08L528.59,72.63L529.3,80.62L530.01,76.18L530.72,85.28L531.43,105.24L532.14,104.36L532.86,115.23L533.57,126.32L534.28,122.33L534.99,140.3L535.7,102.14L537.12,54.44L537.84,75.52L539.26,78.18L539.97,77.73L540.68,79.29L541.39,91.49L542.1,90.38L542.82,115.23L543.53,119.22L544.24,133.2L545.66,169.8L546.37,110.79L547.08,102.14L547.8,128.54L548.51,67.53L549.22,73.3L549.93,71.74L550.64,75.29L552.06,101.92L552.78,99.48L554.2,94.82L554.91,111.9L555.62,111.23L556.33,124.99L557.04,130.98L557.76,143.62L559.18,138.52L559.89,138.97L560.6,157.38L561.31,85.5L562.02,82.17L562.74,92.6L563.45,91.71L564.16,95.26L564.87,91.93L565.58,96.59L566.29,94.6L567,106.8L569.14,134.97L569.85,146.29L570.56,161.59L571.27,113.23L571.98,50.67L572.7,58.43L573.41,75.29L574.12,73.3L574.83,87.94L575.54,59.99L576.25,55.33L576.96,55.99L577.68,59.1L578.39,57.77L579.81,89.27L580.52,110.12L581.94,129.65L582.66,92.38L583.37,89.71L584.08,107.02L584.79,107.46L585.5,116.11L586.21,129.43L586.92,163.59L588.35,122.55L589.06,124.1L589.77,156.05L590.48,91.71L591.19,88.83L591.9,104.13L592.62,100.14L593.33,106.8L594.04,132.09L594.75,74.63L595.46,80.17L596.17,76.18L599.02,139.19L599.73,83.28L600.44,78.84L601.15,87.27L603.29,105.47L604,107.46L604.71,111.01L605.42,127.87L606.13,102.58L606.84,113.9L607.56,113.9L608.27,126.54L609.69,155.6L610.4,103.47L611.11,106.58L611.82,122.99L612.54,125.65L613.25,124.77L613.96,128.32L614.67,150.72L615.38,88.38L616.09,95.04L616.8,112.57L617.52,108.13L618.23,113.23L618.94,110.79L619.65,109.68L620.36,135.86L621.07,145.18L621.78,141.63L623.21,160.93L623.92,161.15L624.63,170.91L625.34,93.49L626.05,91.93L626.76,98.14L628.19,111.46L628.9,111.68L631.74,137.19L632.45,152.28L633.17,161.82L633.88,136.08L635.3,164.26L636.01,106.8L636.72,113.67L637.43,113.45L638.15,114.78L639.57,135.86L640.28,134.97L641.7,148.51L642.41,152.28L643.84,159.6L644.55,177.12L645.26,197.09L645.97,111.23L647.39,121L648.11,119.66L649.53,128.54L650.24,137.41L650.95,139.19L651.66,164.92L652.37,173.13L653.09,116.78L655.22,144.51L655.93,140.74L657.35,144.07L658.07,154.72L658.78,179.12L659.49,88.83L660.2,103.25L660.91,45.79L661.62,48.01L662.33,45.12L664.47,78.62L665.18,100.14L665.89,98.59L666.6,105.02L667.31,99.7L668.03,107.68L668.74,108.13L669.45,116.78L670.16,120.11L670.87,139.19L672.29,84.83L673.01,95.48L673.72,101.03L674.43,66.42L675.14,69.75L675.85,64.65L677.27,72.19L677.99,85.06L680.83,127.87L681.54,76.4L682.25,93.04L682.97,87.05L683.68,96.59L684.39,96.37L685.1,119.44L686.52,118.33L687.23,143.18L687.95,80.17L688.66,85.94L689.37,83.95L690.08,101.25L690.79,100.59L691.5,96.37L693.64,132.31L694.35,137.19L695.06,133.42L695.77,141.41L696.48,155.6L697.19,83.95L697.91,93.71L698.62,84.17L699.33,81.51L700.04,83.95L702.17,87.27L702.89,96.15L704.31,133.86L705.02,106.35L705.73,120.33L706.44,81.06L708.58,111.23L709.29,110.79L710,108.79" style="vector-effect: none; fill: none; stroke: rgb(140, 86, 75); stroke-opacity: 1; stroke-width: 2px; opacity: 1;"/></g><g class="points"/><g class="text"/></g><g class="trace scatter trace44ee25" style="stroke-miterlimit: 2; opacity: 1;"><g class="fills"/><g class="errorbars"/><g class="lines"><path class="js-line" d="M0,105.47L1.42,109.02L2.13,115.67L3.56,117.22L4.27,122.33L6.4,146.06L7.11,150.06L7.83,162.48L8.54,88.61L10.67,112.34L11.38,109.02L12.81,106.58L13.52,114.78L14.23,112.34L14.94,113.67L17.79,148.73L18.5,144.51L20.63,180.23L21.34,177.79L22.05,180.45L22.77,195.98L23.48,206.41L24.19,130.31L24.9,129.43L25.61,136.3L26.32,138.52L27.03,147.62L27.75,177.12L28.46,114.78L29.17,114.12L29.88,123.21L32.01,159.6L32.73,92.6L33.44,87.05L34.15,89.05L34.86,89.49L35.57,86.61L36.28,87.05L36.99,95.26L39.13,132.75L39.84,128.09L40.55,140.07L41.26,139.19L41.97,158.27L42.69,155.6L44.11,199.98L44.82,100.14L45.53,100.36L46.24,105.69L47.67,121.44L48.38,138.08L50.51,162.7L51.22,175.35L51.93,114.78L52.65,117.89L53.36,122.55L54.07,138.08L54.78,151.17L55.49,148.73L58.34,173.13L59.05,176.01L59.76,173.8L60.47,188.66L61.18,187.55L61.89,146.06L62.61,145.84L63.32,160.26L64.03,161.82L64.74,161.37L67.59,197.31L68.3,193.76L69.72,212.18L70.43,149.17L71.85,89.71L72.57,91.93L75.41,109.46L76.12,118.56L78.26,156.05L78.97,97.04L79.68,98.37L80.39,103.47L81.1,105.69L81.81,116.11L82.53,115.45L83.24,130.31L85.37,164.03L86.08,172.69L86.79,176.01L87.51,188L88.22,105.91L88.93,112.57L89.64,114.34L90.35,119.22L92.48,145.18L93.2,142.96L94.62,164.92L95.33,134.31L96.04,131.87L96.75,132.53L97.46,144.07L98.18,138.3L98.89,140.3L99.6,131.42L103.16,174.68L103.87,189.99L104.58,193.32L105.29,207.3L106,142.96L106.71,144.96L107.42,146.95L108.14,151.83L108.85,170.47L109.56,120.11L110.27,120.55L110.98,120.55L112.4,139.85L113.12,97.04L114.54,101.03L115.25,105.69L115.96,103.69L116.67,113.67L117.38,120.33L118.1,116.34L120.23,154.5L120.94,154.72L121.65,172.24L122.36,134.53L123.79,148.06L124.5,147.17L125.92,156.27L126.63,177.79L127.34,126.76L128.06,129.43L128.77,136.97L129.48,155.83L130.19,108.35L130.9,111.01L131.61,114.78L133.75,148.73L134.46,96.37L135.88,105.69L136.59,101.25L138.73,136.08L139.44,84.39L141.57,97.26L142.28,112.79L143,107.68L143.71,124.32L144.42,125.88L145.13,146.29L145.84,106.58L146.55,109.68L150.11,197.76L150.82,201.75L151.53,214.4L152.24,153.16L152.96,107.24L153.67,107.91L154.38,108.13L155.8,118.56L156.51,130.09L158.65,166.7L159.36,188.88L160.07,121.22L160.78,121.66L161.49,127.65L162.2,132.53L162.92,150.06L164.34,204.63L165.05,135.42L165.76,147.17L166.47,86.16L167.9,81.06L168.61,86.16L169.32,87.72L170.03,94.37L170.74,94.15L171.45,108.79L172.16,130.98L172.88,127.43L173.59,126.1L174.3,152.94L175.72,92.82L176.43,93.71L177.14,98.81L177.86,97.04L179.99,121.88L180.7,137.86L181.41,156.27L182.12,95.48L182.84,95.7L183.55,89.05L184.97,109.24L185.68,140.52L186.39,158.93L187.1,100.59L188.53,103.47L189.24,102.14L189.95,93.93L190.66,95.7L192.08,111.68L192.8,107.91L194.93,138.52L195.64,132.53L196.35,145.4L197.06,140.96L197.78,155.38L198.49,186L199.2,136.3L199.91,140.96L201.33,94.37L202.04,95.7L202.76,96.59L203.47,95.93L204.89,112.79L205.6,111.23L207.02,123.21L207.74,140.3L208.45,77.07L209.16,83.72L209.87,79.29L210.58,79.95L211.29,77.73L212,90.82L213.43,106.8L214.14,128.76L215.56,166.25L216.27,92.6L216.98,97.7L217.7,93.93L219.12,115.89L219.83,117.89L222.68,140.52L223.39,134.75L224.81,148.06L225.52,171.58L227.66,78.4L228.37,83.06L229.08,77.96L229.79,85.28L231.92,100.14L232.64,99.48L234.06,127.21L234.77,135.19L235.48,136.75L236.19,150.28L237.62,72.41L238.33,68.86L241.17,84.83L241.88,95.93L245.44,146.29L246.15,92.15L246.86,97.7L247.58,120.33L248.29,124.55L249,136.08L249.71,136.97L250.42,133.86L251.84,154.94L252.56,119.44L253.98,144.51L254.69,165.37L256.11,51.78L256.82,50.22L257.54,63.09L258.25,57.55L258.96,61.54L259.67,71.74L261.8,97.04L262.52,61.76L263.94,80.4L264.65,87.05L268.21,109.46L268.92,121L269.63,126.54L270.34,122.33L271.05,124.55L271.76,133.42L272.47,143.4L273.19,76.63L273.9,82.39L274.61,98.59L276.74,145.62L277.45,82.39L280.3,160.93L281.01,60.21L281.72,49.78L282.43,55.33L283.15,57.77L283.86,66.86L286.7,104.58L287.41,103.03L288.84,127.43L289.55,59.54L290.26,67.97L290.97,85.94L291.68,83.5L292.39,90.82L295.24,146.29L295.95,162.04L296.66,167.58L297.37,99.92L298.8,101.47L299.51,101.69L300.22,107.24L300.93,119.66L303.07,157.82L303.78,94.15L304.49,99.7L305.2,97.7L306.62,108.35L307.33,124.32L308.05,67.97L308.76,74.18L309.47,76.4L310.18,86.16L310.89,101.03L311.6,94.15L313.03,113.67L313.74,107.91L315.16,127.21L315.87,134.75L316.58,151.39L317.29,94.37L318.01,95.26L318.72,105.91L320.14,152.28L320.85,86.61L322.99,136.97L323.7,139.41L325.83,184L326.54,61.32L327.25,56.88L327.97,65.31L328.68,71.97L329.39,69.3L332.23,88.61L332.95,110.57L333.66,110.12L334.37,122.77L335.08,137.86L335.79,75.74L337.21,90.6L337.93,86.61L340.06,135.86L340.77,64.65L342.19,82.84L342.91,77.29L343.62,75.96L344.33,97.26L345.75,139.41L346.46,100.14L348.6,153.61L349.31,174.46L350.02,110.57L350.73,124.1L351.44,94.15L352.15,95.93L353.58,107.02L354.29,104.58L356.42,130.76L357.13,76.63L359.27,114.56L359.98,110.79L362.11,145.84L362.83,103.69L363.54,123.21L364.25,119.66L365.67,144.73L366.38,150.95L367.09,171.36L367.81,94.82L369.94,142.96L370.65,160.04L371.36,159.38L372.07,162.93L372.79,173.35L373.5,127.65L377.77,188.88L378.48,117.67L379.19,113.23L379.9,132.53L381.32,161.15L382.03,160.49L382.75,156.27L383.46,168.69L384.17,182.67L384.88,119.22L386.3,136.53L387.01,64.42L387.73,66.64L388.44,73.08L389.86,94.82L390.57,95.93L391.99,131.64L392.71,56.21L393.42,54.88L394.13,59.76L394.84,57.55L395.55,61.98L396.97,62.43L397.69,74.63L399.11,95.48L399.82,111.68L400.53,107.46L401.24,131.87L401.95,67.75L402.67,75.74L406.93,105.47L407.65,103.03L408.36,101.47L409.07,118.11L410.49,136.3L411.2,156.71L412.63,88.61L413.34,104.13L414.05,98.14L414.76,118.33L416.18,137.19L416.89,164.26L417.61,55.33L418.32,58.88L419.03,72.41L419.74,70.64L420.45,75.29L422.59,90.16L423.3,99.7L424.72,122.77L425.43,58.43L426.85,64.42L427.57,87.27L428.28,83.5L428.99,98.37L430.41,132.53L431.12,117.45L431.83,128.98L432.55,163.15L433.97,116.56L434.68,123.66L435.39,93.49L436.1,99.48L437.53,103.03L438.24,115.45L438.95,115.45L439.66,117.67L440.37,117.67L441.08,123.21L442.51,159.15L443.22,67.53L443.93,63.09L444.64,67.31L445.35,65.53L446.06,74.18L447.48,92.6L448.2,102.14L448.91,112.34L449.62,69.3L451.75,107.91L452.46,103.91L453.18,104.13L453.89,112.79L454.6,105.47L455.31,114.78L456.02,111.9L456.73,119.22L458.16,55.77L458.87,64.2L459.58,60.87L460.29,66.86L461,70.41L461.71,79.51L463.14,94.15L463.85,109.46L465.98,132.31L466.69,77.07L468.83,107.46L469.54,120.11L470.25,121.88L470.96,115.23L471.67,143.85L472.38,87.27L473.1,104.36L473.81,99.7L475.23,112.57L475.94,113.01L477.36,111.23L478.08,122.1L480.21,139.41L480.92,136.08L481.63,140.52L482.34,153.16L483.06,149.61L483.77,174.02L485.19,63.09L485.9,71.3L488.04,95.7L488.75,96.37L490.17,126.1L490.88,70.64L491.59,75.96L492.3,88.16L494.44,105.69L495.15,113.9L495.86,116.56L496.57,127.65L497.28,76.18L498,87.72L499.42,108.79L500.13,107.46L500.84,109.02L501.55,108.57L502.26,110.57L502.98,119.44L503.69,133.2L504.4,103.91L506.53,138.52L507.24,142.74L507.96,161.82L508.67,114.78L509.38,115.89L510.09,113.45L511.51,134.31L512.22,66.42L513.65,82.39L514.36,96.15L515.78,115.67L516.49,129.43L517.2,128.32L517.92,152.72L518.63,72.63L519.34,80.62L520.05,96.15L520.76,88.61L521.47,96.15L522.18,89.05L522.9,90.16L523.61,101.25L524.32,99.7L525.03,109.68L526.45,127.21L527.16,146.95L529.3,150.28L530.01,149.84L530.72,144.07L531.43,146.95L532.14,159.38L532.86,109.24L533.57,60.21L534.28,66.64L537.84,119L538.55,65.09L539.97,71.3L540.68,68.86L543.53,89.49L544.24,90.82L546.37,118.78L547.08,55.11L548.51,81.28L549.22,88.16L550.64,103.47L551.35,106.58L552.78,134.31L553.49,95.93L554.2,99.03L554.91,95.48L555.62,110.57L556.33,58.66L557.76,86.83L558.47,84.61L559.18,93.71L559.89,93.04L560.6,107.68L561.31,106.35L562.02,126.99L562.74,54.22L564.87,83.5L565.58,86.39L567,97.48L567.72,91.71L568.43,95.93L569.14,110.57L570.56,143.18L571.27,116.11L571.98,110.12L572.7,129.87L573.41,128.98L574.12,152.28L574.83,115.45L575.54,128.54L576.25,59.1L576.96,68.64L578.39,87.27L579.1,106.35L579.81,112.57L580.52,130.98L581.23,56.21L581.94,60.87L582.66,56.66L583.37,58.66L584.08,62.65L584.79,73.3L587.64,109.9L588.35,123.88L589.06,73.96L589.77,85.94L591.19,85.06L591.9,94.82L593.33,109.68L594.04,124.77L594.75,129.43L595.46,143.18L596.17,142.07L596.88,157.6L597.6,108.57L598.31,119L599.02,113.9L599.73,117.22L601.15,122.1L601.86,132.98L604,169.8L604.71,125.65L605.42,128.98L606.13,49.34L607.56,66.86L608.27,78.84L608.98,77.07L609.69,86.39L610.4,100.36L611.11,98.59L611.82,101.03L612.54,110.79L613.96,57.77L614.67,66.42L617.52,112.12L618.23,115.45L618.94,122.99L619.65,46.01L620.36,48.23L621.07,54.22L622.49,57.1L623.21,63.54L625.34,95.26L626.05,111.68L626.76,52L627.47,65.53L628.19,67.97L628.9,84.17L631.03,143.62L631.74,70.86L634.59,113.01L635.3,107.02L636.72,134.75L637.43,132.75L638.15,164.48L638.86,93.49L640.28,110.57L640.99,123.66L641.7,156.49L642.41,97.26L643.13,119.89L643.84,48.23L645.97,71.52L646.68,81.51L647.39,77.96L648.11,96.15L648.82,112.79L649.53,56.21L650.24,55.77L650.95,56.66L653.09,62.2L653.8,72.63L655.93,81.51L656.64,83.5L657.35,84.83L658.07,89.49L658.78,95.26L659.49,112.79L660.2,50L660.91,57.55L661.62,65.53L662.33,64.42L663.05,70.64L663.76,70.19L665.18,83.5L665.89,85.06L666.6,107.24L667.31,101.47L668.03,123.44L668.74,59.76L670.16,67.53L670.87,89.94L673.72,119L674.43,137.63L675.14,169.8L675.85,136.53L676.56,57.99L677.27,60.21L677.99,59.99L678.7,61.54L679.41,57.55L681.54,90.16L682.25,103.69L682.97,125.65L683.68,53.33L685.81,61.76L686.52,66.64L687.95,75.07L688.66,73.74L690.08,81.28L690.79,97.92L693.64,111.46L694.35,109.24L695.06,130.76L695.77,71.52L696.48,72.63L697.19,67.97L698.62,80.84L699.33,81.51L700.04,82.17L700.75,97.04L701.46,99.25L702.17,95.48L705.02,140.96L705.73,146.06L706.44,139.41L707.15,146.95L707.87,174.02L708.58,98.59L709.29,119.44L710,57.55" style="vector-effect: none; fill: none; stroke: rgb(227, 119, 194); stroke-opacity: 1; stroke-width: 2px; opacity: 1;"/></g><g class="points"/><g class="text"/></g><g class="trace scatter traceafdd87" style="stroke-miterlimit: 2; opacity: 1;"><g class="fills"/><g class="errorbars"/><g class="lines"><path class="js-line" d="M0,111.9L0.71,111.46L1.42,116.56L2.13,115.01L2.85,126.99L3.56,130.31L4.27,141.63L4.98,156.49L5.69,150.28L6.4,162.93L7.11,105.91L8.54,114.56L9.25,126.32L11.38,158.71L12.09,179.79L12.81,103.91L13.52,110.12L14.94,129.2L15.65,149.39L16.36,144.07L17.07,148.73L17.79,148.28L18.5,156.71L19.92,106.58L20.63,106.13L21.34,106.8L22.05,103.25L24.19,127.21L24.9,132.09L25.61,138.74L26.32,164.26L27.75,183.78L28.46,130.54L29.88,164.48L30.59,170.47L32.01,206.85L32.73,217.95L33.44,155.83L34.15,156.94L34.86,156.49L36.99,178.46L37.71,180.01L38.42,179.34L39.13,173.8L40.55,189.99L41.26,187.11L42.69,211.07L43.4,148.06L44.11,153.83L44.82,152.5L45.53,151.83L46.24,156.71L47.67,163.81L48.38,174.46L49.09,172.02L49.8,189.33L50.51,201.31L51.22,157.82L52.65,160.71L53.36,164.48L54.07,169.36L54.78,166.92L55.49,106.8L56.2,115.67L56.91,111.68L57.63,117.89L59.05,140.07L59.76,138.08L60.47,155.83L61.18,93.71L61.89,97.7L62.61,110.57L66.16,160.93L66.87,105.47L67.59,104.36L68.3,105.69L69.01,105.69L69.72,108.35L71.85,117.89L72.57,117.89L73.28,115.23L73.99,125.65L76.83,162.26L77.55,164.7L78.26,184.22L78.97,103.47L79.68,99.7L80.39,109.9L81.1,108.35L81.81,127.65L83.24,152.94L83.95,153.39L85.37,175.79L86.08,133.2L90.35,188.88L91.06,211.96L92.48,143.62L93.2,157.16L94.62,105.91L95.33,115.23L99.6,157.6L100.31,96.37L101.02,95.7L101.73,104.13L102.44,109.02L103.16,120.55L103.87,123.88L104.58,121.22L105.29,129.2L106,127.65L107.42,151.39L108.14,111.46L108.85,116.11L109.56,130.09L110.27,148.95L110.98,146.06L111.69,150.95L112.4,150.28L113.12,148.06L113.83,162.7L114.54,177.79L115.25,127.43L115.96,128.32L116.67,138.52L117.38,140.52L118.1,147.17L118.81,144.51L119.52,156.94L120.23,180.23L120.94,144.29L121.65,142.29L122.36,144.29L124.5,157.82L125.21,168.25L125.92,197.53L126.63,133.64L128.06,162.04L128.77,114.78L129.48,113.9L130.19,120.33L130.9,116.34L131.61,121.44L132.32,119.44L133.04,129.65L134.46,141.18L135.17,141.18L136.59,164.26L137.3,81.06L138.73,93.71L139.44,90.16L140.15,92.38L140.86,104.8L143.71,157.16L144.42,83.28L145.84,92.6L146.55,105.69L147.26,100.81L147.98,120.77L150.11,134.31L150.82,153.83L151.53,163.59L152.24,127.87L155.09,168.69L155.8,184.45L156.51,126.99L157.22,154.72L158.65,178.9L159.36,214.4L160.07,142.52L160.78,162.04L162.2,79.73L162.92,88.83L163.63,91.93L164.34,103.47L165.76,102.58L166.47,117.22L167.18,114.12L167.9,120.11L168.61,135.86L169.32,133.64L170.03,148.73L170.74,88.16L172.16,105.69L172.88,103.91L175.72,164.48L176.43,118.33L177.14,115.01L177.86,144.51L179.99,185.11L180.7,134.75L181.41,134.75L182.12,138.74L182.84,151.83L183.55,148.28L184.26,163.81L184.97,162.04L186.39,178.9L187.1,146.73L187.82,91.71L188.53,105.24L189.24,103.25L189.95,107.02L193.51,171.8L194.22,126.99L194.93,122.55L195.64,124.1L196.35,124.77L197.06,122.55L198.49,131.42L199.2,135.42L199.91,136.08L200.62,145.4L201.33,159.38L202.04,127.43L203.47,149.17L204.18,75.07L206.31,94.15L207.02,90.38L208.45,104.8L209.16,109.02L209.87,116.11L210.58,142.29L212,101.92L212.72,114.34L213.43,121.88L214.14,119.66L214.85,121.44L215.56,120.77L217.7,162.93L218.41,107.46L219.12,107.24L219.83,110.12L220.54,107.91L221.25,115.45L224.1,152.5L224.81,120.33L225.52,131.87L226.23,158.71L226.94,97.04L227.66,103.47L230.5,148.95L231.21,82.62L232.64,98.81L233.35,93.93L235.48,127.87L236.19,90.38L237.62,90.82L238.33,99.03L240.46,118.56L241.17,131.2L242.6,145.4L243.31,145.18L244.73,186.89L245.44,110.35L246.86,121.44L247.58,136.75L248.29,142.74L249,138.08L249.71,138.52L250.42,142.52L251.13,137.19L251.84,145.18L253.27,154.05L253.98,183.56L254.69,129.87L255.4,136.08L256.11,146.95L256.82,78.62L258.25,87.5L258.96,81.51L259.67,86.61L260.38,98.59L263.23,132.09L263.94,92.38L264.65,103.91L265.36,99.92L266.07,107.46L266.78,106.8L267.49,105.02L268.21,107.46L270.34,126.1L271.05,129.43L272.47,152.94L273.19,149.17L273.9,173.35L274.61,104.36L276.74,140.52L277.45,95.93L278.17,95.7L278.88,102.36L279.59,96.37L280.3,114.56L281.72,137.63L282.43,83.06L283.15,84.83L283.86,79.07L284.57,81.95L285.28,88.16L285.99,91.49L286.7,98.81L287.41,110.35L288.13,105.02L288.84,107.91L289.55,117.22L290.26,121.66L290.97,131.2L291.68,138.74L292.39,89.94L293.82,100.59L294.53,107.91L296.66,147.17L297.37,95.7L298.09,101.25L298.8,123.44L299.51,143.62L300.22,140.3L300.93,146.06L301.64,143.4L302.35,157.16L303.07,114.34L304.49,134.75L305.2,135.42L305.91,127.21L306.62,132.98L307.33,132.09L308.05,129.87L310.89,172.24L311.6,98.81L312.31,99.25L313.03,101.69L314.45,117.22L315.16,130.54L315.87,154.94L316.58,151.39L318.01,194.87L318.72,120.33L319.43,134.08L320.14,96.59L320.85,94.6L321.56,96.15L324.41,148.28L325.12,74.63L325.83,71.74L326.54,82.39L327.25,74.85L327.97,89.71L328.68,101.47L329.39,95.93L330.81,125.43L331.52,126.54L332.23,124.99L332.95,143.62L333.66,81.73L334.37,87.72L335.79,92.82L336.5,89.49L339.35,128.09L340.06,128.98L340.77,126.32L341.48,140.3L342.19,144.51L342.91,170.02L343.62,201.97L344.33,162.48L345.75,81.06L346.46,91.93L347.89,119L348.6,132.53L350.73,126.32L351.44,143.4L352.15,78.84L352.87,87.94L353.58,93.04L354.29,116.56L355,114.12L355.71,119.22L356.42,114.12L357.13,128.54L358.56,146.51L359.27,148.06L359.98,159.38L360.69,114.34L362.83,129.65L363.54,134.97L364.25,149.84L364.96,109.9L365.67,107.02L366.38,113.67L368.52,147.17L369.23,77.29L372.79,144.73L373.5,69.3L374.21,67.31L374.92,69.75L375.63,71.74L376.34,71.3L377.77,80.62L378.48,89.71L379.19,92.15L379.9,108.79L381.32,140.74L382.03,69.97L383.46,77.29L384.17,70.86L387.01,124.32L387.73,69.53L390.57,105.91L391.28,123.66L391.99,140.07L392.71,71.52L393.42,79.73L394.13,77.73L395.55,122.55L396.26,120.11L397.69,152.05L398.4,90.82L399.11,90.6L399.82,87.05L400.53,91.71L401.24,103.47L401.95,116.11L402.67,62.43L404.8,62.43L405.51,70.41L406.93,98.59L407.65,96.15L409.07,137.41L409.78,73.08L410.49,83.06L411.2,77.51L415.47,129.87L416.18,152.94L416.89,121.88L417.61,54.44L419.74,78.62L420.45,74.85L421.87,105.02L422.59,99.92L423.3,105.24L424.01,121.44L424.72,120.11L425.43,131.87L426.14,75.29L426.85,85.72L428.28,113.9L428.99,80.62L431.12,109.02L431.83,122.1L433.26,158.49L433.97,56.21L436.1,95.93L436.81,99.7L438.24,94.6L438.95,95.93L440.37,122.77L441.08,142.96L441.79,161.82L442.51,95.48L443.22,120.11L443.93,81.28L445.35,109.9L446.06,63.54L447.48,60.43L448.2,73.96L449.62,90.16L450.33,91.05L451.75,121L452.46,69.3L453.18,71.52L453.89,82.39L456.73,151.39L457.44,83.06L458.87,86.83L459.58,96.81L461,102.14L461.71,97.26L462.42,92.82L463.14,111.23L465.27,141.63L465.98,157.82L466.69,164.7L467.4,187.55L468.12,105.02L468.83,106.35L469.54,104.8L470.25,105.47L470.96,127.21L471.67,54L472.38,61.98L473.81,88.16L474.52,87.5L475.23,80.62L475.94,102.58L476.65,114.78L477.36,76.63L479.5,95.04L480.21,91.93L481.63,107.02L482.34,105.02L483.77,127.21L484.48,61.76L485.19,67.09L485.9,80.17L486.61,101.03L487.32,94.6L488.04,94.37L488.75,119.66L490.17,146.29L490.88,85.06L491.59,83.95L492.3,107.46L493.02,113.45L493.73,126.99L495.86,157.82L496.57,102.14L497.28,122.77L498,75.29L498.71,77.51L499.42,87.05L500.13,88.16L500.84,101.47L501.55,101.92L502.26,113.01L503.69,141.85L504.4,67.97L505.11,67.53L505.82,69.53L506.53,78.62L507.24,76.4L508.67,101.92L509.38,103.47L511.51,131.2L512.22,131.64L512.94,141.41L513.65,99.48L514.36,123.44L515.07,57.99L515.78,60.65L516.49,74.18L518.63,100.14L519.34,98.81L521.47,129.87L522.18,57.1L522.9,59.54L523.61,69.53L526.45,127.21L527.16,66.42L527.88,67.09L528.59,62.87L530.72,100.14L531.43,119.22L532.14,132.75L532.86,164.26L533.57,105.91L534.28,115.89L535.7,126.76L536.41,122.99L537.84,148.51L538.55,93.49L539.26,107.02L539.97,42.24L540.68,46.68L541.39,58.88L542.1,61.1L542.82,69.53L544.24,105.24L544.95,53.55L545.66,55.33L546.37,68.42L547.8,73.74L548.51,93.49L549.22,105.69L549.93,47.12L553.49,82.39L554.2,101.03L555.62,116.78L556.33,117L557.04,138.08L557.76,60.65L558.47,60.65L559.18,63.54L561.31,105.91L562.02,108.35L562.74,111.23L563.45,119.66L564.16,141.85L564.87,74.85L565.58,70.41L566.29,79.29L567,90.6L567.72,115.89L568.43,115.23L569.14,134.31L569.85,65.09L570.56,82.84L574.12,152.28L574.83,105.47L576.25,36.91L576.96,42.02L578.39,87.27L579.1,43.35L580.52,63.76L581.23,57.99L581.94,61.98L582.66,91.71L583.37,104.8L584.08,45.57L585.5,52.67L586.21,76.18L589.06,130.09L589.77,84.17L590.48,79.73L591.19,104.58L591.9,69.75L592.62,81.28L595.46,121.44L596.17,24.93L597.6,46.23L598.31,65.98L599.73,77.73L600.44,96.37L601.15,93.04L601.86,111.9L602.58,50.89L603.29,70.19L605.42,166.03L606.13,115.23L606.84,45.79L607.56,60.87L609.69,83.72L610.4,110.79L613.25,151.61L613.96,64.65L617.52,146.29L618.23,86.83L618.94,89.27L619.65,97.7L621.78,142.29L622.49,79.07L623.21,98.14L623.92,38.24L624.63,36.25L625.34,40.46L626.05,40.69L626.76,53.55L628.19,88.83L628.9,89.71L629.61,101.03L630.32,62.2L631.74,86.39L632.45,84.61L633.88,114.78L634.59,111.68L635.3,130.54L636.01,42.24L636.72,49.56L637.43,68.64L638.15,70.64L638.86,69.08L640.99,105.91L641.7,128.32L642.41,69.53L643.13,73.3L643.84,71.3L644.55,75.96L645.26,79.07L645.97,91.49L646.68,86.16L647.39,110.12L649.53,137.19L650.24,87.72L650.95,104.58L651.66,44.01L652.37,42.24L653.09,70.19L654.51,99.7L655.22,130.76L656.64,50.22L657.35,52.89L658.78,58.66L659.49,76.85L660.2,87.27L660.91,83.06L661.62,89.94L662.33,105.02L663.76,148.95L664.47,86.16L665.18,102.14L665.89,37.8L667.31,66.86L668.03,65.09L669.45,77.73L670.16,75.29L672.29,109.24L673.01,108.57L673.72,107.24L674.43,110.79L675.14,124.99L675.85,45.79L676.56,41.79L677.27,54.66L677.99,55.99L678.7,61.76L680.83,110.12L681.54,51.11L685.81,142.29L686.52,87.72L687.23,23.38L687.95,31.59L690.08,76.4L690.79,33.36L691.5,28.26L692.21,38.24L694.35,49.56L695.06,79.07L695.77,95.26L696.48,39.58L697.19,32.92L697.91,49.56L699.33,91.27L700.04,104.36L701.46,153.16L702.17,32.03L703.6,41.13L704.31,63.98L705.73,73.74L706.44,92.82L707.15,18.5L707.87,20.05L708.58,19.61L709.29,20.72L710,38.02" style="vector-effect: none; fill: none; stroke: rgb(127, 127, 127); stroke-opacity: 1; stroke-width: 2px; opacity: 1;"/></g><g class="points"/><g class="text"/></g></g></g><g class="overplot"/><path class="xlines-above crisp" d="M0,0" style="fill: none;"/><path class="ylines-above crisp" d="M0,0" style="fill: none;"/><g class="overlines-above"/><g class="xaxislayer-above"><g class="xtick"><text text-anchor="middle" x="0" y="533" transform="translate(80,0)" style="font-family: 'Open Sans', verdana, arial, sans-serif; font-size: 12px; fill: rgb(68, 68, 68); fill-opacity: 1; white-space: pre; opacity: 1;">0</text></g><g class="xtick"><text text-anchor="middle" x="0" y="533" style="font-family: 'Open Sans', verdana, arial, sans-serif; font-size: 12px; fill: rgb(68, 68, 68); fill-opacity: 1; white-space: pre; opacity: 1;" transform="translate(222.28,0)">200</text></g><g class="xtick"><text text-anchor="middle" x="0" y="533" style="font-family: 'Open Sans', verdana, arial, sans-serif; font-size: 12px; fill: rgb(68, 68, 68); fill-opacity: 1; white-space: pre; opacity: 1;" transform="translate(364.57,0)">400</text></g><g class="xtick"><text text-anchor="middle" x="0" y="533" style="font-family: 'Open Sans', verdana, arial, sans-serif; font-size: 12px; fill: rgb(68, 68, 68); fill-opacity: 1; white-space: pre; opacity: 1;" transform="translate(506.85,0)">600</text></g><g class="xtick"><text text-anchor="middle" x="0" y="533" style="font-family: 'Open Sans', verdana, arial, sans-serif; font-size: 12px; fill: rgb(68, 68, 68); fill-opacity: 1; white-space: pre; opacity: 1;" transform="translate(649.14,0)">800</text></g></g><g class="yaxislayer-above"><g class="ytick"><text text-anchor="end" x="79" y="4.199999999999999" transform="translate(0,516.81)" style="font-family: 'Open Sans', verdana, arial, sans-serif; font-size: 12px; fill: rgb(68, 68, 68); fill-opacity: 1; white-space: pre; opacity: 1;">0.6</text></g><g class="ytick"><text text-anchor="end" x="79" y="4.199999999999999" style="font-family: 'Open Sans', verdana, arial, sans-serif; font-size: 12px; fill: rgb(68, 68, 68); fill-opacity: 1; white-space: pre; opacity: 1;" transform="translate(0,450.25)">0.65</text></g><g class="ytick"><text text-anchor="end" x="79" y="4.199999999999999" style="font-family: 'Open Sans', verdana, arial, sans-serif; font-size: 12px; fill: rgb(68, 68, 68); fill-opacity: 1; white-space: pre; opacity: 1;" transform="translate(0,383.7)">0.7</text></g><g class="ytick"><text text-anchor="end" x="79" y="4.199999999999999" style="font-family: 'Open Sans', verdana, arial, sans-serif; font-size: 12px; fill: rgb(68, 68, 68); fill-opacity: 1; white-space: pre; opacity: 1;" transform="translate(0,317.14)">0.75</text></g><g class="ytick"><text text-anchor="end" x="79" y="4.199999999999999" style="font-family: 'Open Sans', verdana, arial, sans-serif; font-size: 12px; fill: rgb(68, 68, 68); fill-opacity: 1; white-space: pre; opacity: 1;" transform="translate(0,250.59)">0.8</text></g><g class="ytick"><text text-anchor="end" x="79" y="4.199999999999999" style="font-family: 'Open Sans', verdana, arial, sans-serif; font-size: 12px; fill: rgb(68, 68, 68); fill-opacity: 1; white-space: pre; opacity: 1;" transform="translate(0,184.03)">0.85</text></g></g><g class="overaxes-above"/></g></g><g class="polarlayer"/><g class="smithlayer"/><g class="ternarylayer"/><g class="geolayer"/><g class="funnelarealayer"/><g class="pielayer"/><g class="iciclelayer"/><g class="treemaplayer"/><g class="sunburstlayer"/><g class="glimages"/><defs id="topdefs-d35a70"><g class="clips"/><clipPath id="legendd35a70"><rect width="500" height="67" x="0" y="0"/></clipPath></defs><g class="layer-above"><g class="imagelayer"/><g class="shapelayer"/></g><g class="infolayer"><g class="legend" pointer-events="all" transform="translate(80,76.00000000000001)"><rect class="bg" shape-rendering="crispEdges" width="500" height="67" x="0" y="0" style="stroke: rgb(68, 68, 68); stroke-opacity: 1; fill: rgb(255, 255, 255); fill-opacity: 1; stroke-width: 0px;"/><g class="scrollbox" transform="" clip-path="url(#legendd35a70)"><g class="groups"><g class="traces" transform="translate(0,14.5)" style="opacity: 1;"><text class="legendtext" text-anchor="start" x="40" y="4.680000000000001" style="font-family: 'Open Sans', verdana, arial, sans-serif; font-size: 12px; fill: rgb(68, 68, 68); fill-opacity: 1; white-space: pre;">Median</text><g class="layers" style="opacity: 1;"><g class="legendfill"/><g class="legendlines"><path class="js-line" d="M5,0h30" style="fill: none; stroke: rgb(31, 119, 180); stroke-opacity: 1; stroke-width: 2px;"/></g><g class="legendsymbols"><g class="legendpoints"/></g></g><rect class="legendtoggle" x="0" y="-9.5" width="86.15625" height="19" style="fill: rgb(0, 0, 0); fill-opacity: 0;"/></g><g class="traces" transform="translate(180.328125,14.5)" style="opacity: 1;"><text class="legendtext" text-anchor="start" x="40" y="4.680000000000001" style="font-family: 'Open Sans', verdana, arial, sans-serif; font-size: 12px; fill: rgb(68, 68, 68); fill-opacity: 1; white-space: pre;">Dynamic clip</text><g class="layers" style="opacity: 1;"><g class="legendfill"/><g class="legendlines"><path class="js-line" d="M5,0h30" style="fill: none; stroke: rgb(255, 127, 14); stroke-opacity: 1; stroke-width: 2px;"/></g><g class="legendsymbols"><g class="legendpoints"/></g></g><rect class="legendtoggle" x="0" y="-9.5" width="120.125" height="19" style="fill: rgb(0, 0, 0); fill-opacity: 0;"/></g><g class="traces" transform="translate(360.65625,14.5)" style="opacity: 1;"><text class="legendtext" text-anchor="start" x="40" y="4.680000000000001" style="font-family: 'Open Sans', verdana, arial, sans-serif; font-size: 12px; fill: rgb(68, 68, 68); fill-opacity: 1; white-space: pre;">Punish updates</text><g class="layers" style="opacity: 1;"><g class="legendfill"/><g class="legendlines"><path class="js-line" d="M5,0h30" style="fill: none; stroke: rgb(44, 160, 44); stroke-opacity: 1; stroke-width: 2px;"/></g><g class="legendsymbols"><g class="legendpoints"/></g></g><rect class="legendtoggle" x="0" y="-9.5" width="134.28125" height="19" style="fill: rgb(0, 0, 0); fill-opacity: 0;"/></g><g class="traces" transform="translate(0,33.5)" style="opacity: 1;"><text class="legendtext" text-anchor="start" x="40" y="4.680000000000001" style="font-family: 'Open Sans', verdana, arial, sans-serif; font-size: 12px; fill: rgb(68, 68, 68); fill-opacity: 1; white-space: pre;">Fixed clip</text><g class="layers" style="opacity: 1;"><g class="legendfill"/><g class="legendlines"><path class="js-line" d="M5,0h30" style="fill: none; stroke: rgb(214, 39, 40); stroke-opacity: 1; stroke-width: 2px;"/></g><g class="legendsymbols"><g class="legendpoints"/></g></g><rect class="legendtoggle" x="0" y="-9.5" width="98.296875" height="19" style="fill: rgb(0, 0, 0); fill-opacity: 0;"/></g><g class="traces" transform="translate(180.328125,33.5)" style="opacity: 1;"><text class="legendtext" text-anchor="start" x="40" y="4.680000000000001" style="font-family: 'Open Sans', verdana, arial, sans-serif; font-size: 12px; fill: rgb(68, 68, 68); fill-opacity: 1; white-space: pre;">Performance weighted</text><g class="layers" style="opacity: 1;"><g class="legendfill"/><g class="legendlines"><path class="js-line" d="M5,0h30" style="fill: none; stroke: rgb(148, 103, 189); stroke-opacity: 1; stroke-width: 2px;"/></g><g class="legendsymbols"><g class="legendpoints"/></g></g><rect class="legendtoggle" x="0" y="-9.5" width="177.828125" height="19" style="fill: rgb(0, 0, 0); fill-opacity: 0;"/></g><g class="traces" transform="translate(360.65625,33.5)" style="opacity: 1;"><text class="legendtext" text-anchor="start" x="40" y="4.680000000000001" style="font-family: 'Open Sans', verdana, arial, sans-serif; font-size: 12px; fill: rgb(68, 68, 68); fill-opacity: 1; white-space: pre;">Simple average</text><g class="layers" style="opacity: 1;"><g class="legendfill"/><g class="legendlines"><path class="js-line" d="M5,0h30" style="fill: none; stroke: rgb(140, 86, 75); stroke-opacity: 1; stroke-width: 2px;"/></g><g class="legendsymbols"><g class="legendpoints"/></g></g><rect class="legendtoggle" x="0" y="-9.5" width="136.421875" height="19" style="fill: rgb(0, 0, 0); fill-opacity: 0;"/></g><g class="traces" transform="translate(0,52.5)" style="opacity: 1;"><text class="legendtext" text-anchor="start" x="40" y="4.680000000000001" style="font-family: 'Open Sans', verdana, arial, sans-serif; font-size: 12px; fill: rgb(68, 68, 68); fill-opacity: 1; white-space: pre;">Receny weighted</text><g class="layers" style="opacity: 1;"><g class="legendfill"/><g class="legendlines"><path class="js-line" d="M5,0h30" style="fill: none; stroke: rgb(227, 119, 194); stroke-opacity: 1; stroke-width: 2px;"/></g><g class="legendsymbols"><g class="legendpoints"/></g></g><rect class="legendtoggle" x="0" y="-9.5" width="145.65625" height="19" style="fill: rgb(0, 0, 0); fill-opacity: 0;"/></g><g class="traces" transform="translate(180.328125,52.5)" style="opacity: 1;"><text class="legendtext" text-anchor="start" x="40" y="4.680000000000001" style="font-family: 'Open Sans', verdana, arial, sans-serif; font-size: 12px; fill: rgb(68, 68, 68); fill-opacity: 1; white-space: pre;">No FL</text><g class="layers" style="opacity: 1;"><g class="legendfill"/><g class="legendlines"><path class="js-line" d="M5,0h30" style="fill: none; stroke: rgb(127, 127, 127); stroke-opacity: 1; stroke-width: 2px;"/></g><g class="legendsymbols"><g class="legendpoints"/></g></g><rect class="legendtoggle" x="0" y="-9.5" width="76.546875" height="19" style="fill: rgb(0, 0, 0); fill-opacity: 0;"/></g></g></g><rect class="scrollbar" rx="20" ry="3" width="0" height="0" x="0" y="0" style="fill: rgb(128, 139, 164); fill-opacity: 1;"/></g><g class="g-gtitle"><text class="gtitle" x="400" y="75" text-anchor="middle" dy="0em" style="font-family: 'Open Sans', verdana, arial, sans-serif; font-size: 17px; fill: rgb(68, 68, 68); opacity: 1; font-weight: normal; white-space: pre;">Accuracy score by FL method for 2 nodes</text></g><g class="g-xtitle"><text class="xtitle" x="435" y="572" text-anchor="middle" style="font-family: 'Open Sans', verdana, arial, sans-serif; font-size: 14px; fill: rgb(68, 68, 68); opacity: 1; font-weight: normal; white-space: pre;">Aggregation methods</text></g><g class="g-ytitle"><text class="ytitle" transform="rotate(-90,42,335)" x="42" y="335" text-anchor="middle" style="font-family: 'Open Sans', verdana, arial, sans-serif; font-size: 14px; fill: rgb(68, 68, 68); opacity: 1; font-weight: normal; white-space: pre;">Accuracy score</text></g></g></svg>