<svg class="main-svg" xmlns="http://www.w3.org/2000/svg" xmlns:xlink="http://www.w3.org/1999/xlink" width="800" height="600" style="" viewBox="0 0 800 600"><rect x="0" y="0" width="800" height="600" style="fill: rgb(255, 255, 255); fill-opacity: 1;"/><defs id="defs-e5b31d"><g class="clips"><clipPath id="clipe5b31dxyplot" class="plotclip"><rect width="710" height="370"/></clipPath><clipPath class="axesclip" id="clipe5b31dx"><rect x="80" y="0" width="710" height="600"/></clipPath><clipPath class="axesclip" id="clipe5b31dy"><rect x="0" y="150" width="800" height="370"/></clipPath><clipPath class="axesclip" id="clipe5b31dxy"><rect x="80" y="150" width="710" height="370"/></clipPath></g><g class="gradients"/><g class="patterns"/></defs><g class="bglayer"/><g class="layer-below"><g class="imagelayer"/><g class="shapelayer"/></g><g class="cartesianlayer"><g class="subplot xy"><g class="layer-subplot"><g class="shapelayer"/><g class="imagelayer"/></g><g class="minor-gridlayer"><g class="x"/><g class="y"/></g><g class="gridlayer"><g class="x"><path class="xgrid crisp" transform="translate(222.28,0)" d="M0,150v370" style="stroke: rgb(238, 238, 238); stroke-opacity: 1; stroke-width: 1px;"/><path class="xgrid crisp" transform="translate(364.57,0)" d="M0,150v370" style="stroke: rgb(238, 238, 238); stroke-opacity: 1; stroke-width: 1px;"/><path class="xgrid crisp" transform="translate(506.85,0)" d="M0,150v370" style="stroke: rgb(238, 238, 238); stroke-opacity: 1; stroke-width: 1px;"/><path class="xgrid crisp" transform="translate(649.14,0)" d="M0,150v370" style="stroke: rgb(238, 238, 238); stroke-opacity: 1; stroke-width: 1px;"/></g><g class="y"><path class="ygrid crisp" transform="translate(0,477.78)" d="M80,0h710" style="stroke: rgb(238, 238, 238); stroke-opacity: 1; stroke-width: 1px;"/><path class="ygrid crisp" transform="translate(0,424.27)" d="M80,0h710" style="stroke: rgb(238, 238, 238); stroke-opacity: 1; stroke-width: 1px;"/><path class="ygrid crisp" transform="translate(0,370.76)" d="M80,0h710" style="stroke: rgb(238, 238, 238); stroke-opacity: 1; stroke-width: 1px;"/><path class="ygrid crisp" transform="translate(0,317.25)" d="M80,0h710" style="stroke: rgb(238, 238, 238); stroke-opacity: 1; stroke-width: 1px;"/><path class="ygrid crisp" transform="translate(0,263.74)" d="M80,0h710" style="stroke: rgb(238, 238, 238); stroke-opacity: 1; stroke-width: 1px;"/><path class="ygrid crisp" transform="translate(0,210.24)" d="M80,0h710" style="stroke: rgb(238, 238, 238); stroke-opacity: 1; stroke-width: 1px;"/><path class="ygrid crisp" transform="translate(0,156.73)" d="M80,0h710" style="stroke: rgb(238, 238, 238); stroke-opacity: 1; stroke-width: 1px;"/></g></g><g class="zerolinelayer"><path class="xzl zl crisp" transform="translate(80,0)" d="M0,150v370" style="stroke: rgb(68, 68, 68); stroke-opacity: 1; stroke-width: 1px;"/></g><path class="xlines-below"/><path class="ylines-below"/><g class="overlines-below"/><g class="xaxislayer-below"/><g class="yaxislayer-below"/><g class="overaxes-below"/><g class="plot" transform="translate(80,150)" clip-path="url(#clipe5b31dxyplot)"><g class="scatterlayer mlayer"><g class="trace scatter trace90b31a" style="stroke-miterlimit: 2; opacity: 1;"><g class="fills"/><g class="errorbars"/><g class="lines"><path class="js-line" d="M0,100.37L0.71,103.22L1.42,92.52L2.13,93.05L2.85,89.49L4.27,85.39L4.98,81.1L5.69,81.46L6.4,78.79L7.11,79.68L7.83,87.7L8.54,89.31L9.25,95.02L12.09,160.65L12.81,181.17L14.23,73.44L14.94,77.36L15.65,85.92L16.36,84.14L17.07,83.96L17.79,86.28L19.92,103.93L20.63,103.58L21.34,101.08L22.05,101.79L23.48,125.52L24.19,82.89L24.9,82.17L25.61,85.39L27.75,106.97L28.46,105.18L29.88,129.98L30.59,104.47L32.01,128.37L32.73,134.26L34.15,148.35L34.86,158.51L35.57,175.64L36.28,107.86L36.99,105.54L37.71,121.59L39.13,72.9L39.84,75.93L41.97,78.07L42.69,87.17L43.4,83.78L44.11,91.27L44.82,89.49L45.53,91.09L46.24,89.31L46.95,89.67L49.8,124.8L50.51,80.93L51.22,89.31L51.93,88.24L54.07,103.4L54.78,101.08L56.2,126.59L56.91,68.44L58.34,67.37L59.05,73.26L59.76,70.94L60.47,73.97L61.89,81.46L62.61,87.35L64.03,108.57L64.74,127.84L65.45,66.3L66.16,66.66L66.87,66.66L67.59,67.01L68.3,68.62L69.01,72.72L69.72,71.65L72.57,82L73.28,83.6L73.99,86.28L74.7,100.01L75.41,113.74L76.12,65.77L76.83,66.3L77.55,62.91L78.97,69.51L79.68,67.55L80.39,78.25L81.1,78.07L81.81,86.46L83.24,102.33L83.95,99.65L86.79,141.75L87.51,131.22L88.22,153.34L88.93,152.98L89.64,148.17L91.77,155.12L92.48,159.76L93.2,159.41L93.91,162.08L94.62,157.62L95.33,158.87L96.04,156.73L96.75,158.69L97.46,155.12L98.18,156.91L98.89,156.55L99.6,154.77L101.02,164.04L101.73,159.58L102.44,158.87L103.16,160.83L103.87,161.01L104.58,166L105.29,163.69L106,166.54L106.71,165.65L107.42,158.87L108.14,174.92L108.85,174.03L109.56,131.22L110.27,131.22L110.98,134.61L111.69,131.94L112.4,132.47L113.12,128.73L113.83,135.15L115.25,139.61L115.96,138.54L116.67,142.28L117.38,140.14L118.81,146.21L119.52,149.24L120.23,147.28L120.94,149.24L121.65,153.34L122.36,149.24L123.79,153.34L124.5,154.77L125.92,160.83L126.63,165.65L127.34,165.83L128.06,169.57L128.77,177.78L129.48,244.31L130.9,139.25L131.61,138.89L132.32,145.31L133.04,140.86L133.75,140.32L134.46,137.29L135.17,145.14L135.88,136.57L136.59,146.92L137.3,143L138.73,159.76L139.44,156.91L140.15,159.76L140.86,167.43L141.57,227.9L142.28,66.48L143,65.94L143.71,62.91L144.42,65.23L145.13,64.87L147.98,82.17L148.69,89.67L149.4,88.24L150.11,90.56L151.53,111.96L152.24,122.31L152.96,132.83L153.67,247.69L154.38,250.37L155.09,250.01L156.51,248.05L157.22,259.11L157.94,259.11L158.65,221.83L159.36,235.03L160.07,193.47L161.49,192.4L162.2,193.12L162.92,189.9L163.63,190.44L164.34,193.29L165.05,192.58L165.76,192.76L166.47,193.83L167.18,196.68L167.9,203.1L168.61,199.71L169.32,203.64L170.03,205.42L170.74,209.88L171.45,210.95L172.16,213.63L172.88,212.91L173.59,210.06L175.01,229.5L175.72,227.18L176.43,225.76L177.14,227.18L177.86,241.45L178.57,182.06L179.28,179.02L179.99,179.74L181.41,174.92L182.12,177.42L182.84,174.03L183.55,175.1L184.26,174.39L184.97,171L187.1,170.11L187.82,172.78L188.53,172.96L189.24,176.71L190.66,172.6L191.37,177.24L192.8,179.2L193.51,181.7L194.22,177.78L194.93,183.48L195.64,188.66L196.35,187.94L197.06,188.3L197.78,187.59L199.2,212.56L199.91,154.59L200.62,154.95L201.33,156.55L202.04,151.56L202.76,151.91L204.18,151.56L204.89,155.3L206.31,173.5L207.02,169.93L208.45,182.77L209.16,186.52L209.87,197.57L210.58,109.46L212,111.25L212.72,115.35L213.43,111.96L214.14,112.67L214.85,114.46L215.56,110.89L216.98,125.52L217.7,132.29L219.12,141.03L219.83,146.03L220.54,146.21L221.25,152.98L221.96,240.02L222.68,151.02L224.1,144.78L224.81,144.24L225.52,156.73L226.23,120.17L226.94,103.04L227.66,112.85L228.37,104.11L229.08,113.03L232.64,181.34L233.35,183.48L235.48,203.46L236.19,205.24L236.9,204.17L237.62,205.78L238.33,213.98L239.04,160.83L239.75,170.82L240.46,166.9L241.17,166.72L241.88,165.47L242.6,166.72L243.31,164.22L244.73,188.83L245.44,142.46L246.15,138.54L246.86,140.68L247.58,142.82L248.29,141.57L249,144.07L249.71,142.82L250.42,144.6L251.13,144.24L252.56,143.53L253.27,149.77L255.4,161.55L256.11,162.08L256.82,160.3L257.54,161.37L258.25,160.65L258.96,158.34L259.67,167.97L260.38,167.07L261.09,167.61L261.8,162.97L263.23,168.86L263.94,184.02L265.36,151.74L266.07,163.15L266.78,163.33L267.49,161.01L268.21,157.44L268.92,160.83L269.63,160.65L270.34,166.18L271.05,162.79L271.76,164.4L273.19,164.58L273.9,174.39L275.32,202.21L276.03,234.85L277.45,227L278.17,226.65L280.3,223.62L281.01,224.15L281.72,224.86L282.43,222.72L283.15,225.22L283.86,223.44L284.57,224.33L285.28,223.62L285.99,221.12L286.7,225.04L288.84,222.37L289.55,222.72L290.97,223.62L291.68,223.08L292.39,224.33L293.11,223.79L293.82,223.79L294.53,225.58L295.24,224.51L295.95,226.47L297.37,229.68L298.09,235.57L298.8,240.02L299.51,251.44L300.22,253.76L300.93,250.01L301.64,251.62L302.35,261.43L303.78,273.56L304.49,261.61L305.2,259.82L305.91,261.43L306.62,261.07L307.33,262.14L308.05,261.78L308.76,263.75L310.18,276.77L310.89,287.83L311.6,288.18L312.31,299.6L313.03,166.72L313.74,168.68L314.45,172.6L315.16,175.99L315.87,192.76L316.58,192.22L317.29,209.52L318.01,215.23L318.72,274.09L320.14,276.23L320.85,274.45L322.27,276.23L322.99,275.52L324.41,273.02L325.12,273.56L327.25,301.56L327.97,351.5L328.68,347.93L329.39,291.93L330.1,302.99L330.81,334.73L332.23,265.89L332.95,266.78L334.37,265.17L335.08,265.71L335.79,265.53L336.5,264.28L337.21,264.28L337.93,262.14L339.35,262.5L340.06,263.75L340.77,263.39L341.48,260.18L342.19,258.93L342.91,262.32L346.46,296.74L347.17,189.73L348.6,186.52L349.31,186.52L350.02,187.76L350.73,186.16L352.87,194.36L353.58,206.85L354.29,211.66L355,210.77L355.71,207.21L356.42,210.59L357.13,210.24L357.85,220.4L358.56,174.21L359.27,174.39L359.98,178.67L361.4,186.69L362.11,184.02L364.96,215.95L365.67,213.63L366.38,223.62L367.09,246.98L367.81,186.34L368.52,188.83L369.23,203.64L371.36,224.51L372.07,261.43L373.5,291.57L374.21,195.97L374.92,196.5L375.63,195.97L376.34,192.05L377.05,193.65L377.77,192.94L378.48,198.64L379.19,197.22L379.9,202.75L380.61,205.78L381.32,217.37L382.03,215.95L382.75,223.26L383.46,223.97L384.17,222.9L385.59,244.31L386.3,197.22L387.01,201.86L387.73,224.51L389.15,156.55L389.86,165.47L390.57,179.38L391.28,160.83L391.99,154.95L392.71,158.51L393.42,151.38L394.13,155.84L395.55,156.37L396.26,151.2L397.69,167.07L398.4,163.86L399.11,160.65L399.82,161.55L400.53,163.33L401.24,170.46L403.38,195.08L404.09,178.85L404.8,178.85L405.51,172.07L406.93,168.68L407.65,170.46L408.36,172.43L409.07,171.53L410.49,176.71L411.2,175.1L412.63,185.45L413.34,186.87L414.76,201.14L415.47,203.64L416.89,218.09L417.61,217.02L419.03,210.95L419.74,212.2L420.45,214.88L421.16,210.24L421.87,212.91L422.59,210.77L424.01,211.66L424.72,211.66L425.43,212.02L426.14,209.88L426.85,209.52L427.57,211.66L428.28,212.2L428.99,215.59L429.7,215.77L430.41,219.87L432.55,234.5L433.26,284.44L433.97,213.98L434.68,217.02L435.39,215.41L436.1,217.19L436.81,216.3L438.24,219.51L438.95,219.33L439.66,216.3L440.37,219.16L441.08,217.37L441.79,224.15L442.51,222.37L443.22,231.28L444.64,228.43L445.35,230.04L446.06,230.75L446.77,239.31L447.48,237.88L448.2,247.52L448.91,292.46L449.62,239.13L452.46,241.99L453.18,244.13L453.89,243.77L454.6,245.55L457.44,268.03L458.16,269.45L458.87,272.84L459.58,285.68L461,276.77L461.71,278.02L462.42,277.3L463.14,274.27L463.85,273.2L464.56,274.63L465.98,271.95L466.69,271.77L468.83,273.2L469.54,272.66L470.25,273.91L470.96,273.02L473.1,269.99L473.81,269.81L474.52,269.63L475.23,268.38L476.65,270.17L477.36,268.38L479.5,269.63L480.21,266.96L482.34,268.03L483.06,267.31L483.77,269.28L484.48,275.52L486.61,296.74L487.32,295.49L488.04,296.39L488.75,314.76L489.46,335.09L490.17,280.16L490.88,279.44L491.59,284.44L493.73,319.57L494.44,334.2L495.15,295.85L495.86,296.56L496.57,297.1L497.28,313.69L498,289.61L500.13,286.22L500.84,286.58L501.55,285.51L502.26,287.29L502.98,287.11L503.69,281.4L504.4,278.02L505.11,279.44L506.53,273.2L507.24,272.66L508.67,271.06L509.38,274.09L510.09,275.7L510.8,274.45L511.51,283.37L512.22,281.94L513.65,284.97L514.36,291.21L515.07,291.04L515.78,300.49L516.49,314.94L517.2,269.1L519.34,276.77L520.05,282.65L520.76,283.72L521.47,290.5L523.61,314.58L524.32,272.31L525.03,274.09L525.74,272.31L527.16,271.06L527.88,273.02L530.01,270.17L530.72,271.06L531.43,271.42L532.14,277.12L533.57,293.18L534.28,293L534.99,303.16L535.7,333.31L536.41,332.77L537.12,214.16L539.26,225.76L539.97,223.44L543.53,256.08L544.24,320.47L544.95,294.78L545.66,295.14L546.37,290.32L547.8,292.64L548.51,288.54L549.22,284.44L549.93,288.36L551.35,290.68L552.06,287.83L552.78,288.36L553.49,285.86L554.91,282.65L555.62,281.23L556.33,281.94L557.04,283.9L558.47,286.58L559.18,285.86L560.6,292.46L561.31,290.5L562.02,289.61L562.74,290.5L564.16,289.97L564.87,289.79L565.58,290.5L566.29,287.65L567,290.32L567.72,286.75L568.43,290.14L569.14,288.18L570.56,286.58L571.27,288.54L572.7,289.61L573.41,294.42L574.12,293.71L574.83,301.92L576.25,307.98L576.96,308.16L578.39,331.52L579.1,185.8L579.81,181.52L580.52,181.88L581.23,185.45L581.94,153.34L585.5,167.79L586.21,174.92L589.06,207.92L589.77,171.18L590.48,167.97L591.19,176.71L593.33,196.68L594.04,217.91L595.46,150.31L596.17,153.34L599.02,178.31L599.73,177.6L601.86,193.12L602.58,191.15L603.29,206.49L604,170.11L606.13,192.58L606.84,188.12L607.56,202.03L608.27,150.84L608.98,150.67L609.69,155.3L611.11,170.64L611.82,169.75L614.67,209.17L615.38,186.87L616.09,188.3L616.8,187.76L617.52,191.69L618.23,208.81L619.65,245.2L620.36,89.67L621.78,108.39L622.49,53.28L623.21,55.24L623.92,49.89L624.63,50.78L625.34,48.46L626.05,48.46L626.76,60.06L628.19,72.01L628.9,68.62L631.74,96.27L632.45,57.38L634.59,62.2L635.3,70.76L636.01,69.69L636.72,74.15L637.43,86.63L638.15,86.28L638.86,87.35L639.57,92.88L640.28,111.6L640.99,114.99L641.7,144.96L642.41,96.44L643.13,107.32L644.55,57.2L645.26,58.81L645.97,61.13L646.68,59.17L648.11,64.34L648.82,66.12L650.24,62.73L650.95,65.94L653.8,95.91L654.51,111.43L655.22,71.65L655.93,74.33L656.64,75.93L657.35,74.68L658.07,77.18L658.78,74.51L659.49,78.79L660.2,88.24L660.91,88.77L661.62,87.88L662.33,90.74L663.05,108.22L663.76,138.72L664.47,93.59L666.6,128.01L667.31,75.22L668.03,77.36L668.74,74.15L669.45,75.75L670.16,74.68L670.87,78.25L671.58,76.47L673.01,78.79L673.72,78.25L674.43,75.58L675.14,80.93L677.27,90.91L677.99,103.04L678.7,101.79L679.41,113.03L680.12,62.38L680.83,63.27L681.54,68.44L682.97,72.01L683.68,85.21L684.39,86.28L685.1,99.65L685.81,105.36L686.52,123.38L687.23,124.09L687.95,147.99L688.66,81.46L689.37,85.03L690.08,91.63L690.79,98.05L691.5,59.7L692.93,63.63L693.64,60.95L694.35,63.45L695.06,71.47L697.19,91.63L697.91,94.66L699.33,129.62L700.04,77.18L700.75,73.79L701.46,81.1L705.73,127.48L706.44,142.82L707.87,149.6L708.58,151.38L709.29,148.17L710,159.23" style="vector-effect: none; fill: none; stroke: rgb(31, 119, 180); stroke-opacity: 1; stroke-width: 2px; opacity: 1;"/></g><g class="points"/><g class="text"/></g><g class="trace scatter traceb2a22f" style="stroke-miterlimit: 2; opacity: 1;"><g class="fills"/><g class="errorbars"/><g class="lines"><path class="js-line" d="M0,100.37L0.71,103.22L1.42,92.52L2.13,93.05L2.85,89.49L4.27,85.39L4.98,81.1L5.69,81.46L6.4,78.79L7.11,79.68L7.83,87.7L8.54,89.31L9.25,95.02L12.09,160.65L12.81,181.17L14.23,70.4L14.94,75.4L15.65,80.21L16.36,79.5L17.07,78.79L17.79,80.93L19.92,101.79L20.63,97.51L21.34,98.76L22.05,97.16L23.48,121.06L24.19,71.83L24.9,70.58L25.61,73.08L27.03,83.07L27.75,86.99L28.46,85.74L29.17,97.87L31.3,138L32.01,121.95L33.44,139.61L34.15,137.29L36.28,174.21L36.99,93.77L37.71,108.75L38.42,64.87L39.13,59.52L39.84,62.91L41.26,64.16L41.97,61.13L43.4,65.23L44.11,67.73L46.24,66.84L46.95,67.55L49.8,79.14L50.51,86.63L52.65,103.22L53.36,75.58L54.07,76.11L54.78,75.04L55.49,76.11L56.2,81.64L56.91,82.17L57.63,79.5L61.89,106.97L62.61,119.27L63.32,68.8L64.03,72.37L66.87,100.55L67.59,102.51L68.3,111.07L69.01,110.89L69.72,108.04L70.43,129.98L71.14,61.84L71.85,60.77L72.57,66.12L73.28,67.73L73.99,66.84L74.7,67.01L75.41,68.44L77.55,75.22L78.26,88.06L79.68,98.23L80.39,106.08L81.1,106.25L81.81,132.65L82.53,103.76L83.24,124.27L84.66,68.44L85.37,68.8L86.08,70.58L86.79,68.62L89.64,100.01L90.35,118.2L91.06,114.81L91.77,115.89L93.2,123.2L93.91,118.2L95.33,125.52L96.04,130.87L97.46,151.74L98.18,146.74L100.31,155.12L101.02,151.56L101.73,154.77L102.44,153.52L103.16,151.91L103.87,157.44L104.58,160.3L105.29,158.16L106,159.23L106.71,158.16L107.42,157.62L108.14,168.32L109.56,165.29L110.27,179.74L111.69,133.01L112.4,136.93L113.83,132.12L114.54,131.94L115.25,129.8L115.96,133.72L116.67,132.12L117.38,132.65L118.1,129.62L118.81,129.8L119.52,128.19L120.23,131.76L120.94,127.84L121.65,127.84L122.36,130.51L123.79,128.19L124.5,128.01L125.21,131.58L125.92,128.55L126.63,131.05L127.34,128.19L128.06,124.8L128.77,126.05L129.48,130.87L130.19,129.62L130.9,133.9L131.61,133.54L132.32,139.79L133.04,139.43L133.75,142.1L134.46,137.29L135.88,143.89L136.59,150.49L137.3,147.1L138.02,149.24L139.44,171.71L140.15,171.18L140.86,170.46L141.57,172.43L143,179.02L143.71,175.46L145.13,182.95L145.84,198.11L147.26,143.53L147.98,145.85L149.4,147.99L150.11,147.63L151.53,156.91L152.24,163.69L152.96,228.07L153.67,217.91L154.38,227.54L155.09,227.36L155.8,138.89L156.51,139.96L157.22,146.56L157.94,144.78L158.65,146.92L160.78,161.55L161.49,161.19L162.2,162.08L162.92,161.01L164.34,168.14L165.05,167.79L165.76,163.69L166.47,169.57L167.18,173.14L167.9,182.95L168.61,189.55L169.32,184.91L171.45,221.65L172.16,152.09L173.59,150.31L174.3,145.14L175.01,143.35L175.72,139.07L176.43,139.61L177.14,133.54L179.99,149.6L180.7,153.16L182.12,171L182.84,175.81L183.55,174.57L184.26,171.71L184.97,172.43L185.68,171.53L186.39,171L187.1,167.97L188.53,170.82L189.24,168.86L190.66,182.06L191.37,178.85L192.08,180.1L192.8,174.57L193.51,178.49L194.22,146.03L195.64,140.32L196.35,143.71L197.06,136.22L197.78,137.82L198.49,138.89L199.2,135.15L199.91,138L200.62,132.83L202.76,130.69L203.47,131.4L204.18,130.33L204.89,135.15L206.31,137.82L207.02,136.93L207.74,140.14L208.45,138.54L209.87,147.81L210.58,157.44L212,161.19L212.72,164.4L213.43,170.82L214.14,167.97L214.85,172.07L215.56,168.68L217.7,207.03L218.41,101.97L219.12,100.19L219.83,105.18L220.54,104.83L221.25,114.46L222.68,131.4L223.39,149.24L224.1,249.48L224.81,92.7L225.52,106.08L226.23,63.98L229.08,79.68L229.79,96.44L231.21,118.03L231.92,92.16L232.64,89.84L233.35,90.56L234.77,93.23L235.48,95.73L236.19,93.23L236.9,95.73L237.62,94.13L238.33,98.05L242.6,136.4L243.31,137.11L244.02,178.31L244.73,115.53L246.15,172.78L246.86,173.67L248.29,180.63L249,181.34L250.42,179.2L251.13,179.2L251.84,187.23L252.56,186.87L253.27,187.59L253.98,196.33L254.69,195.43L255.4,202.75L256.11,218.09L257.54,164.22L258.25,165.47L258.96,165.83L259.67,168.32L261.8,187.23L262.52,196.68L263.23,194.72L263.94,203.46L264.65,222.54L265.36,162.62L266.07,162.26L266.78,163.33L267.49,162.62L268.21,164.76L268.92,166.54L269.63,165.47L270.34,170.11L271.05,169.75L271.76,174.03L272.47,183.31L273.19,183.31L273.9,194.36L274.61,203.28L275.32,222.54L276.03,175.64L276.74,185.98L278.17,133.9L278.88,133.54L279.59,132.29L280.3,137.47L281.72,152.81L282.43,151.38L283.15,159.94L283.86,158.69L285.28,169.75L285.99,192.4L287.41,132.83L288.13,134.43L289.55,140.14L290.26,139.43L291.68,151.2L292.39,149.77L294.53,168.32L295.24,139.96L296.66,145.49L297.37,154.95L298.8,172.43L299.51,188.3L300.93,134.26L301.64,134.08L303.07,137.65L303.78,142.64L304.49,151.91L305.2,149.06L305.91,149.06L306.62,152.63L307.33,150.31L308.05,151.2L309.47,166.9L310.18,177.24L310.89,194.9L311.6,132.29L313.03,139.25L313.74,138.18L315.87,157.62L316.58,157.62L318.72,178.31L319.43,185.09L320.14,194.54L320.85,189.37L321.56,192.58L322.27,210.59L323.7,202.93L324.41,206.14L325.12,209.7L325.83,206.14L326.54,218.26L327.25,215.95L327.97,222.9L328.68,218.44L329.39,220.58L330.1,215.59L330.81,212.2L331.52,212.74L332.23,212.74L332.95,211.49L333.66,209.17L334.37,212.56L336.5,210.06L337.21,205.6L338.64,207.92L339.35,205.78L340.06,207.38L340.77,205.07L342.19,203.46L342.91,203.64L345.04,200.43L345.75,202.93L346.46,203.28L347.17,201.14L348.6,199L349.31,199.54L350.73,197.4L351.44,196.86L353.58,193.29L354.29,195.26L355.71,192.22L356.42,192.58L357.13,191.33L357.85,193.47L359.27,191.15L359.98,192.76L360.69,192.4L361.4,195.97L362.83,193.65L363.54,192.4L364.96,197.75L365.67,198.64L366.38,195.79L367.09,197.75L368.52,197.04L369.23,198.47L369.94,198.82L370.65,196.86L371.36,197.4L372.07,196.15L373.5,192.94L374.21,194.01L374.92,192.94L375.63,190.08L376.34,192.22L377.05,190.98L378.48,192.58L379.19,192.05L380.61,197.75L381.32,197.75L382.03,198.47L382.75,203.82L383.46,204L384.17,202.57L386.3,208.81L387.01,209.7L387.73,214.88L388.44,214.52L389.15,215.23L389.86,218.62L391.28,224.33L391.99,230.75L392.71,229.14L393.42,234.67L394.13,234.32L394.84,239.67L396.26,136.93L396.97,139.07L397.69,139.25L398.4,141.03L399.82,138.72L400.53,141.03L401.24,141.93L401.95,148.53L402.67,147.99L403.38,150.67L405.51,163.15L406.22,178.31L406.93,188.83L407.65,185.62L409.07,226.29L409.78,201.5L410.49,249.3L411.2,249.12L411.91,253.58L413.34,259.82L414.05,230.75L414.76,234.14L415.47,232.18L416.18,243.41L416.89,241.63L417.61,261.25L418.32,198.29L421.16,213.27L421.87,225.58L423.3,222.19L424.01,241.63L424.72,204.35L425.43,205.24L426.14,210.59L426.85,217.37L427.57,121.59L428.99,148.88L429.7,121.24L431.12,118.38L431.83,118.38L433.26,128.37L433.97,127.12L434.68,135.86L435.39,135.15L436.1,148.35L436.81,148.17L437.53,148.53L438.24,147.46L438.95,148.17L440.37,167.79L441.08,118.56L441.79,121.77L442.51,129.26L445.35,169.93L446.06,134.26L447.48,133.19L448.2,134.08L450.33,133.54L451.04,137.47L453.18,161.72L453.89,159.05L454.6,173.85L455.31,131.94L456.02,131.94L456.73,136.04L458.87,144.78L459.58,152.45L460.29,154.77L461,152.09L462.42,153.52L463.14,161.01L463.85,161.9L464.56,161.01L465.27,173.14L465.98,126.77L466.69,127.3L467.4,129.44L468.12,129.44L468.83,130.69L469.54,127.84L470.25,128.55L471.67,130.15L472.38,133.01L474.52,142.64L475.23,141.03L476.65,162.97L477.36,173.5L478.79,125.87L479.5,128.91L480.21,128.37L480.92,130.87L481.63,131.94L482.34,128.91L483.06,132.12L483.77,139.96L484.48,147.99L485.19,147.28L487.32,167.79L488.04,166.36L488.75,187.23L489.46,126.59L490.17,129.08L490.88,128.73L491.59,131.94L492.3,141.75L494.44,176.88L495.15,152.27L495.86,154.77L496.57,161.9L498.71,185.09L499.42,195.43L500.13,197.93L500.84,209.88L501.55,210.95L502.26,207.21L502.98,205.6L503.69,218.09L504.4,237.17L505.11,281.76L505.82,281.76L506.53,194.01L507.96,197.93L508.67,199.71L510.09,126.41L510.8,129.62L513.65,132.83L514.36,137.29L515.78,139.96L516.49,144.78L517.92,158.69L518.63,169.75L519.34,168.5L520.05,186.52L520.76,186.34L521.47,206.49L522.18,301.38L522.9,156.91L523.61,160.83L524.32,170.82L525.03,168.14L525.74,177.6L527.88,208.1L528.59,209.35L529.3,223.08L530.01,319.22L530.72,169.93L531.43,175.64L532.14,177.6L532.86,175.64L533.57,180.63L534.28,180.45L534.99,190.08L536.41,188.48L537.12,200.07L538.55,178.31L539.26,179.2L539.97,178.85L540.68,179.92L542.1,181.17L542.82,179.56L544.95,209.88L545.66,161.9L547.08,169.57L547.8,167.07L549.93,188.12L550.64,186.34L551.35,206.31L552.06,146.03L552.78,147.46L553.49,152.63L554.2,155.66L554.91,165.47L555.62,159.94L556.33,162.26L557.04,172.07L557.76,169.57L558.47,170.29L559.18,168.14L561.31,200.78L562.02,291.39L562.74,284.79L563.45,287.83L564.16,293.18L564.87,317.61L565.58,316.9L566.29,317.79L567,315.83L567.72,189.37L568.43,188.48L569.14,198.47L569.85,210.42L570.56,316.54L571.27,321.36L571.98,319.93L572.7,318.32L573.41,266.96L574.12,269.28L574.83,278.19L575.54,291.75L576.25,289.25L576.96,289.61L577.68,303.16L578.39,312.8L579.1,199.18L579.81,200.78L580.52,207.03L581.94,207.38L582.66,225.04L584.08,110.71L584.79,120.88L585.5,139.79L586.21,238.6L586.92,231.28L587.64,234.32L588.35,227.36L589.06,81.82L589.77,78.43L590.48,82.89L591.19,82.35L591.9,88.42L594.04,109.46L594.75,127.84L595.46,139.43L596.17,232.53L596.88,122.48L597.6,139.43L599.02,154.95L599.73,169.04L600.44,175.1L601.15,171.53L603.29,245.02L604,163.69L605.42,170.82L606.13,168.68L606.84,167.97L607.56,175.46L608.27,175.46L608.98,179.56L609.69,175.81L610.4,182.77L611.11,197.75L611.82,197.4L612.54,194.9L613.25,197.22L613.96,193.47L614.67,195.43L615.38,206.67L616.09,207.21L616.8,206.67L617.52,205.96L618.23,226.83L618.94,164.93L619.65,168.32L620.36,164.58L621.78,174.92L622.49,172.43L623.21,172.6L623.92,170.64L624.63,169.04L625.34,169.57L626.76,185.45L627.47,45.61L628.19,50.07L628.9,46.32L632.45,71.47L633.17,86.81L633.88,107.86L634.59,44.36L635.3,39.9L636.01,45.97L636.72,38.12L637.43,58.27L638.15,55.06L638.86,58.27L639.57,63.8L640.28,78.96L640.99,83.42L641.7,105.01L642.41,102.51L643.13,115.89L643.84,120.34L644.55,133.72L645.26,75.22L645.97,79.68L646.68,75.58L647.39,77L648.11,79.14L648.82,73.97L649.53,98.23L650.24,200.96L650.95,212.56L651.66,52.57L653.8,88.95L654.51,34.02L655.93,42.76L656.64,43.11L657.35,42.76L658.07,53.28L658.78,52.03L659.49,71.12L660.2,82.71L660.91,82.35L661.62,87.35L663.05,123.38L663.76,41.51L664.47,42.04L665.18,44.01L665.89,44.36L666.6,47.39L667.31,52.39L668.03,45.79L669.45,57.92L670.16,54.35L670.87,61.31L671.58,83.78L672.29,78.79L673.01,81.1L673.72,83.25L674.43,82.35L675.14,88.42L675.85,102.86L676.56,58.99L677.27,74.33L679.41,91.45L680.12,108.93L680.83,67.19L681.54,80.39L683.68,136.93L684.39,133.36L685.1,208.1L685.81,165.29L686.52,170.11L687.23,169.04L689.37,200.96L690.08,215.77L691.5,173.5L692.21,179.74L693.64,183.31L694.35,189.55L697.19,220.94L697.91,225.4L698.62,250.9L699.33,194.01L700.04,192.22L700.75,196.33L701.46,212.02L702.17,99.65L703.6,109.82L704.31,124.62L705.02,131.76L705.73,78.07L706.44,78.96L707.15,75.93L708.58,80.75L709.29,79.5L710,95.2" style="vector-effect: none; fill: none; stroke: rgb(255, 127, 14); stroke-opacity: 1; stroke-width: 2px; opacity: 1;"/></g><g class="points"/><g class="text"/></g><g class="trace scatter trace2a8638" style="stroke-miterlimit: 2; opacity: 1;"><g class="fills"/><g class="errorbars"/><g class="lines"><path class="js-line" d="M0,100.37L0.71,103.22L1.42,92.52L2.13,93.05L2.85,89.49L4.27,85.39L4.98,81.1L5.69,81.46L6.4,78.79L7.11,79.68L7.83,87.7L8.54,89.31L9.25,95.02L12.09,160.65L12.81,181.17L14.23,74.51L14.94,77.18L15.65,84.67L16.36,83.42L17.79,83.78L18.5,92.34L19.92,101.26L20.63,101.26L22.05,99.12L22.77,111.25L23.48,124.09L24.19,83.6L24.9,82.71L25.61,85.21L27.75,107.5L28.46,105.18L29.88,131.05L30.59,109.29L32.73,144.6L33.44,156.19L34.15,154.59L34.86,171.71L35.57,121.41L36.28,123.02L36.99,123.02L37.71,137.11L38.42,88.77L39.13,88.24L39.84,95.55L40.55,93.05L41.26,95.91L42.69,110.71L43.4,110.53L44.82,120.7L45.53,126.05L46.24,91.09L46.95,91.98L47.67,93.95L48.38,96.27L49.09,95.73L51.22,116.78L51.93,112.5L52.65,124.62L53.36,123.02L54.78,147.28L55.49,101.79L56.2,106.43L56.91,117.13L57.63,116.24L58.34,123.91L60.47,144.24L61.18,93.95L61.89,89.31L62.61,90.38L63.32,91.09L64.03,95.55L64.74,107.15L65.45,77.72L66.87,93.23L67.59,91.98L68.3,103.4L69.01,102.86L69.72,103.76L70.43,119.27L71.14,65.23L71.85,64.16L72.57,65.05L73.28,71.12L73.99,70.94L74.7,73.79L76.12,77.72L76.83,85.56L77.55,85.74L78.26,97.34L78.97,110L79.68,108.39L81.1,117.13L81.81,143.53L83.24,109.64L83.95,111.07L86.08,131.22L86.79,145.67L88.22,171L88.93,126.59L90.35,124.09L91.06,136.93L91.77,78.79L92.48,80.57L93.2,80.03L93.91,82.71L94.62,79.14L96.04,82.17L96.75,81.46L100.31,112.5L101.02,128.73L101.73,73.79L102.44,80.03L103.16,81.28L103.87,86.63L104.58,87.88L105.29,92.16L106,90.91L106.71,97.69L107.42,105.9L108.14,123.55L109.56,179.2L110.27,189.19L110.98,186.16L111.69,187.05L112.4,186.52L113.12,187.23L114.54,194.72L115.25,211.49L115.96,209.7L116.67,218.26L118.1,200.07L118.81,200.43L119.52,194.54L120.23,200.61L121.65,201.86L122.36,163.15L123.79,165.11L124.5,164.22L125.21,161.72L125.92,163.86L126.63,161.55L127.34,162.26L128.06,163.51L128.77,162.08L130.9,164.04L131.61,162.97L133.75,179.92L134.46,179.92L135.17,179.74L135.88,187.05L138.02,205.6L138.73,88.42L139.44,95.55L140.15,94.66L140.86,96.62L141.57,94.84L142.28,96.27L143,100.19L143.71,101.26L144.42,100.37L145.13,101.97L145.84,108.93L147.98,149.24L148.69,92.52L150.11,102.86L150.82,112.32L152.24,140.14L152.96,73.97L154.38,70.76L155.09,75.04L156.51,86.46L157.22,102.86L157.94,110.18L158.65,127.12L160.07,154.41L160.78,152.27L161.49,154.95L162.2,150.84L162.92,155.84L163.63,152.63L164.34,151.2L165.05,152.63L166.47,157.8L167.18,157.09L168.61,166.72L169.32,169.93L170.03,169.75L170.74,180.45L171.45,179.74L172.16,180.45L172.88,180.27L173.59,181.88L174.3,201.14L175.01,172.25L175.72,172.96L176.43,171.53L177.14,173.32L177.86,180.63L178.57,187.94L179.28,185.62L179.99,182.06L180.7,182.95L181.41,186.34L182.12,182.59L183.55,186.69L184.26,185.8L184.97,187.59L185.68,192.4L186.39,193.47L187.1,205.78L188.53,74.33L189.24,74.68L189.95,73.97L190.66,71.12L191.37,73.44L194.93,104.29L195.64,119.99L197.06,51.68L197.78,58.27L198.49,53.1L199.2,59.17L199.91,52.03L200.62,62.56L201.33,65.94L202.04,80.39L203.47,114.99L204.18,146.03L206.31,154.77L207.02,154.05L207.74,151.74L208.45,152.98L210.58,172.25L211.29,170.82L212.72,169.93L213.43,165.65L214.85,168.68L215.56,168.32L216.98,181.52L217.7,184.38L219.83,180.63L220.54,182.06L221.25,179.92L221.96,183.31L223.39,179.56L224.1,178.85L224.81,195.08L225.52,286.58L226.23,142.82L226.94,144.07L227.66,149.77L229.08,148.88L229.79,154.95L231.21,154.59L231.92,153.52L232.64,154.23L233.35,153.52L234.77,151.91L235.48,155.84L237.62,152.63L238.33,151.91L239.04,151.91L239.75,159.58L240.46,159.23L241.17,160.12L242.6,157.09L243.31,159.05L244.02,166.36L244.73,182.95L245.44,133.36L246.15,134.61L246.86,132.12L247.58,134.08L248.29,133.36L249,137.47L249.71,133.9L250.42,134.26L251.13,135.5L252.56,136.4L253.27,134.97L253.98,139.25L254.69,138.18L256.11,149.77L256.82,149.24L257.54,150.31L258.25,149.24L258.96,149.24L259.67,156.37L260.38,159.23L261.09,158.16L261.8,159.41L262.52,159.05L263.23,158.87L263.94,169.04L264.65,171.18L265.36,170.82L266.78,181.17L267.49,182.24L268.21,181.88L268.92,185.09L269.63,182.77L270.34,187.05L271.05,184.55L271.76,191.15L273.19,191.51L273.9,216.66L274.61,155.84L275.32,162.26L276.74,172.6L277.45,175.46L278.17,174.03L278.88,184.02L279.59,182.24L280.3,189.55L281.01,194.01L281.72,93.23L282.43,101.44L283.15,100.37L284.57,104.65L285.28,102.51L287.41,120.17L288.13,123.02L288.84,123.02L289.55,129.26L290.26,131.4L290.97,143.71L291.68,116.42L292.39,131.05L293.11,88.6L293.82,93.95L294.53,94.3L295.24,100.37L296.66,111.6L297.37,128.19L298.09,75.4L298.8,78.61L300.22,83.78L300.93,84.85L301.64,83.42L302.35,85.03L303.07,84.85L303.78,85.92L304.49,94.48L305.2,90.74L305.91,89.67L306.62,91.45L307.33,90.38L308.05,91.63L310.18,107.68L310.89,124.27L311.6,124.09L312.31,136.57L313.03,132.65L313.74,135.5L314.45,136.04L315.16,132.83L315.87,137.82L316.58,135.15L318.01,145.85L318.72,149.42L319.43,153.34L320.14,88.77L322.27,87.17L322.99,88.77L325.12,101.62L325.83,110.53L327.97,134.97L328.68,145.67L329.39,120.52L330.1,61.49L330.81,57.03L331.52,57.38L332.23,58.1L332.95,53.1L334.37,54.53L335.08,54.17L336.5,53.99L337.21,57.74L337.93,58.45L338.64,64.87L340.06,67.19L340.77,66.66L342.19,79.14L342.91,93.23L344.33,114.99L345.04,122.31L345.75,125.87L346.46,134.61L347.17,152.63L347.89,111.78L348.6,117.67L349.31,115.17L351.44,127.66L352.15,146.74L355,172.25L355.71,172.25L356.42,174.57L357.13,173.67L357.85,188.12L358.56,133.36L359.27,134.61L359.98,131.05L360.69,131.4L361.4,128.55L362.11,129.26L362.83,127.12L363.54,127.66L364.25,129.98L364.96,135.15L365.67,132.83L368.52,157.26L369.23,168.14L369.94,179.74L370.65,134.08L374.21,147.99L374.92,146.38L376.34,161.01L377.05,156.55L378.48,179.74L379.19,152.09L379.9,150.31L380.61,150.84L382.03,151.56L382.75,155.84L383.46,155.48L384.17,152.09L387.01,179.56L387.73,190.8L388.44,211.13L389.15,279.09L390.57,157.26L391.28,156.73L391.99,164.76L392.71,159.94L395.55,182.59L396.26,180.63L396.97,192.94L397.69,189.73L398.4,194.36L399.11,193.29L399.82,195.79L400.53,194.01L401.24,210.06L401.95,155.12L402.67,152.09L403.38,155.48L404.09,152.98L404.8,153.88L405.51,154.77L406.22,156.91L406.93,162.97L407.65,159.94L409.07,179.02L409.78,177.24L410.49,186.87L411.2,149.42L412.63,147.28L413.34,149.42L414.05,147.1L414.76,148.35L415.47,145.85L416.18,149.77L417.61,153.16L418.32,158.87L419.74,164.93L420.45,166.54L421.16,171.18L421.87,188.48L423.3,184.73L424.01,202.03L425.43,137.11L426.14,137.65L428.99,153.16L429.7,152.81L431.83,182.59L432.55,140.68L433.97,138.54L434.68,137.11L435.39,139.79L436.1,139.43L436.81,138L437.53,141.75L438.95,138.89L439.66,141.57L440.37,144.6L441.08,152.45L443.22,175.1L443.93,139.61L445.35,139.96L446.06,142.28L447.48,140.68L448.2,141.39L451.04,152.45L451.75,159.76L453.18,184.02L453.89,165.47L455.31,187.41L456.02,201.86L456.73,202.39L457.44,200.43L458.87,200.78L459.58,200.25L460.29,201.32L461,200.61L461.71,200.43L462.42,202.93L463.85,199.18L464.56,203.1L465.98,199.89L466.69,201.5L467.4,201.32L468.12,198.47L469.54,199.89L470.25,199.54L470.96,200.25L471.67,199.36L472.38,197.93L473.1,199L474.52,197.75L475.23,198.11L477.36,196.86L478.08,193.83L478.79,196.15L479.5,194.72L480.21,196.68L480.92,195.61L481.63,195.26L482.34,195.97L483.06,195.79L483.77,194.19L484.48,192.05L485.19,193.29L485.9,190.8L486.61,192.05L487.32,192.94L488.04,191.87L488.75,190.44L489.46,193.65L490.88,192.58L491.59,192.22L493.02,196.15L493.73,197.4L494.44,198.11L495.15,196.15L498,202.21L498.71,207.21L499.42,131.94L500.13,134.43L500.84,134.26L501.55,132.47L502.26,138.18L504.4,150.49L505.11,152.45L505.82,152.27L506.53,159.94L507.96,181.52L508.67,180.99L509.38,180.63L510.09,196.86L510.8,138.36L513.65,139.96L514.36,143.35L515.07,143L515.78,148.35L517.2,165.65L517.92,163.86L518.63,175.64L519.34,137.82L521.47,141.21L522.18,142.64L522.9,144.24L523.61,148.53L524.32,156.91L525.03,156.73L525.74,164.04L527.16,188.66L527.88,136.57L528.59,135.33L529.3,139.07L530.72,140.5L531.43,144.96L535.7,179.38L536.41,136.4L538.55,140.32L539.26,145.14L539.97,145.49L540.68,151.91L543.53,178.49L544.24,195.26L544.95,135.68L545.66,137.29L546.37,141.21L547.8,138.36L548.51,141.39L549.93,154.05L550.64,152.09L551.35,166L552.06,135.15L552.78,138.72L553.49,147.81L554.2,161.37L554.91,105.18L555.62,104.47L556.33,104.83L557.04,119.81L557.76,116.6L559.18,116.78L559.89,119.63L561.31,136.75L562.02,134.79L562.74,134.08L563.45,145.85L564.87,169.39L565.58,130.51L566.29,131.58L567,131.22L567.72,132.65L568.43,131.4L569.14,134.97L569.85,143L571.27,157.8L571.98,159.94L572.7,172.6L573.41,109.82L574.83,125.52L575.54,133.9L576.96,132.29L577.68,147.1L578.39,162.08L579.1,119.27L581.23,135.68L581.94,138.89L582.66,145.85L583.37,161.19L584.08,111.25L584.79,114.28L589.06,156.55L589.77,173.67L590.48,117.31L591.19,123.02L591.9,126.77L592.62,136.93L594.04,155.48L594.75,170.64L596.17,143.17L596.88,144.6L598.31,148.17L599.02,147.99L600.44,155.3L601.15,149.24L604,185.98L604.71,86.46L605.42,87.53L606.13,94.13L606.84,89.84L607.56,95.02L608.98,100.55L609.69,102.15L611.11,120.52L611.82,123.73L613.25,147.46L613.96,78.79L614.67,80.21L615.38,85.21L616.8,87.35L617.52,96.09L618.23,115.53L618.94,114.46L619.65,126.59L620.36,161.01L621.07,90.91L621.78,89.31L622.49,90.91L623.21,107.5L623.92,87.17L624.63,90.2L625.34,85.03L626.76,107.68L627.47,128.37L628.19,137.47L628.9,136.75L629.61,152.81L630.32,111.43L632.45,120.88L633.17,118.38L634.59,123.02L635.3,124.8L636.01,125.52L636.72,124.27L638.15,146.74L638.86,149.6L639.57,149.06L640.28,156.37L640.99,155.12L641.7,164.76L642.41,164.22L643.13,172.25L643.84,125.87L644.55,126.23L645.26,126.05L645.97,129.8L646.68,125.52L648.11,137.11L648.82,133.54L649.53,133.72L650.24,137.29L650.95,140.14L651.66,151.38L652.37,163.69L653.09,148.17L653.8,147.99L654.51,149.42L655.22,150.67L655.93,148.53L657.35,147.81L658.07,148.17L659.49,150.31L660.2,153.34L660.91,149.95L661.62,155.12L663.05,172.96L663.76,172.07L664.47,172.78L665.18,181.52L665.89,143.35L666.6,145.49L667.31,145.85L669.45,147.81L670.16,151.2L670.87,148.53L671.58,155.84L673.01,157.26L673.72,157.44L674.43,156.19L675.14,166.36L675.85,174.39L676.56,171.53L677.99,200.25L678.7,161.01L679.41,167.61L680.12,181.52L680.83,199.18L681.54,139.79L682.25,142.1L682.97,139.79L684.39,138.36L685.1,142.64L686.52,157.44L687.23,155.12L687.95,160.83L688.66,175.81L689.37,125.34L690.08,128.19L691.5,127.48L692.21,130.69L692.93,130.87L693.64,130.15L694.35,131.94L695.06,141.93L695.77,147.1L696.48,145.67L698.62,163.33L699.33,181.34L700.75,108.04L701.46,110.36L702.17,108.75L702.89,112.32L703.6,116.06L704.31,124.09L705.02,132.29L705.73,132.12L706.44,138.89L707.15,145.31L707.87,142.28L708.58,143.17L709.29,138.72L710,152.45" style="vector-effect: none; fill: none; stroke: rgb(44, 160, 44); stroke-opacity: 1; stroke-width: 2px; opacity: 1;"/></g><g class="points"/><g class="text"/></g><g class="trace scatter trace1a94e8" style="stroke-miterlimit: 2; opacity: 1;"><g class="fills"/><g class="errorbars"/><g class="lines"><path class="js-line" d="M0,100.37L0.71,103.22L1.42,92.52L2.13,93.05L2.85,89.49L4.27,85.39L4.98,81.1L5.69,81.46L6.4,78.79L7.11,79.68L7.83,87.7L8.54,89.31L9.25,95.02L12.09,160.65L12.81,181.17L14.23,70.4L14.94,75.4L15.65,80.21L16.36,79.5L17.07,78.79L17.79,80.93L19.92,101.79L20.63,97.51L21.34,98.76L22.05,97.16L23.48,121.06L24.19,68.8L24.9,68.26L25.61,72.9L27.03,83.42L27.75,89.67L28.46,88.42L29.17,103.22L30.59,122.66L31.3,82.17L32.01,80.21L32.73,84.14L34.15,92.16L34.86,97.51L35.57,95.37L36.28,103.04L36.99,105.9L37.71,115.89L39.13,67.55L39.84,74.86L40.55,73.79L41.26,77L42.69,95.73L43.4,94.13L44.11,107.86L44.82,64.16L45.53,64.52L46.24,63.09L46.95,61.13L47.67,63.63L48.38,68.08L49.09,65.05L52.65,86.63L53.36,86.81L55.49,107.32L56.2,71.47L56.91,74.86L57.63,72.37L59.76,78.79L60.47,85.56L61.18,86.99L61.89,95.02L63.32,113.03L64.03,80.21L66.16,101.79L66.87,109.29L67.59,109.11L68.3,118.92L69.01,81.46L69.72,81.82L70.43,72.37L71.14,66.66L71.85,68.8L73.28,70.58L73.99,66.48L74.7,65.94L75.41,67.55L77.55,62.91L78.26,66.84L79.68,67.73L80.39,77.18L81.1,78.07L81.81,85.03L83.24,104.11L83.95,105.54L84.66,110.36L85.37,120.88L86.79,145.85L87.51,120.52L88.22,85.92L88.93,86.1L89.64,91.81L91.06,101.62L91.77,97.87L92.48,98.05L93.2,108.39L93.91,126.94L94.62,88.77L96.75,96.8L97.46,103.58L99.6,131.4L100.31,63.63L102.44,80.75L103.16,88.24L103.87,87.35L104.58,89.67L105.29,101.79L106,100.37L106.71,113.92L107.42,96.62L109.56,114.64L110.27,138.18L110.98,125.69L111.69,129.26L112.4,129.08L113.12,126.23L113.83,128.55L114.54,125.69L115.25,133.54L115.96,132.29L117.38,138.72L118.1,140.68L118.81,142.28L119.52,147.46L120.94,172.07L121.65,172.78L122.36,170.82L123.08,172.6L123.79,172.78L124.5,170.29L125.21,165.47L125.92,176.53L126.63,179.74L127.34,178.13L128.06,175.28L128.77,176.35L129.48,192.94L130.19,140.14L130.9,135.5L131.61,139.25L133.04,135.86L133.75,137.11L134.46,136.22L135.17,133.19L135.88,133.54L136.59,135.15L137.3,132.83L138.02,134.08L138.73,132.12L139.44,134.08L140.15,134.08L140.86,135.33L141.57,135.86L142.28,131.94L143,133.72L143.71,128.19L145.13,134.08L145.84,135.33L146.55,135.33L147.26,132.12L148.69,137.82L149.4,132.12L150.11,133.54L150.82,141.75L151.53,143L152.24,146.38L153.67,151.74L154.38,152.98L155.09,158.34L155.8,157.09L156.51,160.3L157.22,170.46L158.65,178.49L159.36,187.41L160.07,203.82L160.78,283.19L161.49,260.18L162.2,205.24L163.63,195.97L164.34,192.58L165.05,195.43L165.76,190.62L166.47,190.44L167.18,193.83L167.9,207.03L168.61,162.08L169.32,159.23L170.03,163.86L171.45,153.52L172.16,153.34L172.88,152.45L173.59,149.77L175.01,146.74L175.72,138.18L176.43,131.58L177.14,131.94L177.86,131.4L179.99,120.34L180.7,120.17L181.41,114.46L182.12,116.24L182.84,115.53L183.55,116.06L184.26,113.03L184.97,113.57L186.39,111.6L187.1,116.24L187.82,116.96L188.53,126.05L189.24,127.12L189.95,134.43L190.66,153.7L191.37,106.61L192.08,107.15L192.8,109.29L194.93,113.74L195.64,122.48L197.06,127.66L197.78,126.59L199.91,142.1L200.62,155.66L202.04,167.79L202.76,181.34L205.6,203.64L206.31,86.63L207.02,86.28L207.74,91.09L209.16,95.37L209.87,93.77L211.29,111.6L212,113.74L214.14,131.05L214.85,128.37L215.56,129.62L216.27,146.56L216.98,165.29L217.7,92.52L218.41,91.81L219.12,95.02L219.83,94.48L220.54,97.69L222.68,112.67L223.39,120.34L224.81,164.93L225.52,122.48L226.94,56.31L227.66,62.02L229.08,60.77L229.79,68.44L230.5,68.08L231.21,74.33L231.92,75.4L232.64,80.39L233.35,76.82L234.06,86.81L235.48,107.86L236.19,73.44L236.9,74.33L237.62,71.65L241.17,113.92L241.88,59.52L242.6,63.45L243.31,61.66L246.15,101.26L246.86,109.64L247.58,133.54L248.29,82.71L249,79.68L249.71,80.21L250.42,83.07L251.13,82.71L252.56,92.16L253.27,90.74L253.98,98.94L254.69,41.87L258.25,66.48L258.96,62.91L260.38,90.2L261.09,97.87L261.8,63.8L262.52,70.4L263.23,65.94L263.94,79.32L265.36,83.07L266.07,90.02L266.78,88.95L267.49,85.74L268.21,88.06L268.92,94.48L270.34,100.55L271.05,99.48L272.47,124.98L273.19,85.92L273.9,89.84L274.61,99.83L275.32,118.56L276.03,47.39L276.74,49.18L277.45,44.54L278.17,49.53L278.88,46.68L281.01,54.17L281.72,64.7L282.43,64.7L283.15,76.82L283.86,71.29L284.57,86.1L285.28,81.46L285.99,94.48L286.7,104.11L287.41,47.57L288.84,46.15L289.55,50.96L290.97,57.74L291.68,64.7L292.39,67.37L293.11,77.18L295.24,95.55L295.95,110.18L297.37,83.78L298.09,85.39L299.51,108.04L300.22,107.68L300.93,108.22L301.64,108.04L302.35,113.21L303.78,131.22L304.49,79.68L305.2,83.07L305.91,81.46L306.62,78.61L307.33,82.35L308.05,86.46L308.76,82L311.6,98.05L312.31,99.3L315.16,129.62L315.87,159.23L317.29,40.97L318.01,42.94L318.72,42.22L319.43,43.29L320.14,49.89L320.85,47.93L321.56,45.97L322.27,58.63L322.99,65.77L323.7,80.93L324.41,98.23L325.12,35.09L325.83,30.45L326.54,33.84L327.25,32.77L327.97,40.62L328.68,39.19L329.39,47.93L331.52,69.69L332.23,72.01L332.95,81.46L333.66,81.28L334.37,78.07L335.08,93.41L335.79,60.24L337.21,58.1L337.93,71.12L338.64,68.44L339.35,70.94L340.06,71.83L340.77,69.69L342.91,112.5L343.62,78.96L346.46,93.59L347.17,105.36L347.89,123.38L348.6,78.07L350.02,93.59L350.73,90.56L351.44,91.98L352.15,95.2L354.29,100.9L355,111.78L355.71,111.78L356.42,110.36L357.13,128.19L357.85,85.92L358.56,86.1L359.27,83.6L361.4,101.08L362.11,98.41L364.25,119.63L364.96,134.97L365.67,128.19L366.38,129.08L367.81,120.52L368.52,118.56L369.94,132.65L370.65,136.57L372.79,166.18L373.5,166L374.21,165.83L376.34,165.83L377.05,166.18L377.77,166.36L378.48,165.47L379.19,164.76L379.9,162.26L381.32,160.48L382.03,163.15L382.75,164.04L383.46,159.58L384.17,159.41L384.88,161.55L385.59,161.9L386.3,159.23L387.01,160.12L387.73,167.25L389.15,167.79L389.86,178.31L391.28,172.96L391.99,191.87L392.71,120.88L393.42,121.95L394.13,118.56L395.55,127.84L396.26,125.52L396.97,125.52L397.69,134.26L398.4,135.5L399.11,129.98L400.53,134.08L401.24,132.12L402.67,144.78L403.38,141.21L404.09,140.68L404.8,155.66L405.51,152.98L406.22,162.97L406.93,162.97L407.65,160.48L408.36,176.17L409.07,111.07L409.78,111.07L410.49,108.04L411.2,107.86L411.91,104.65L412.63,103.58L413.34,104.11L414.05,103.22L414.76,100.01L416.18,110L416.89,106.25L418.32,117.85L419.03,123.38L419.74,118.03L420.45,125.69L421.16,124.62L421.87,126.05L422.59,124.62L423.3,127.48L424.01,134.43L424.72,130.33L425.43,132.65L426.14,139.79L426.85,140.14L427.57,78.61L430.41,103.58L431.12,109.82L432.55,138.36L433.26,62.02L433.97,58.81L434.68,73.44L435.39,69.69L436.1,93.05L436.81,87.7L437.53,89.49L438.24,91.81L438.95,91.45L441.08,118.74L441.79,100.19L442.51,52.39L443.22,57.2L444.64,79.14L445.35,47.04L446.06,47.93L446.77,53.64L447.48,51.85L448.2,63.09L449.62,74.15L450.33,72.9L452.46,102.86L453.18,50.6L454.6,60.06L455.31,67.37L456.02,70.58L456.73,83.96L458.16,92.88L458.87,122.84L460.29,127.3L461,123.38L462.42,127.12L463.14,126.05L463.85,133.19L464.56,131.05L466.69,149.06L467.4,151.02L468.83,149.42L469.54,151.91L470.25,153.52L470.96,161.19L471.67,159.05L472.38,172.78L473.1,290.5L473.81,139.79L474.52,140.14L475.23,138.72L476.65,140.32L477.36,142.64L478.79,142.82L479.5,141.39L480.21,144.96L480.92,143L482.34,146.03L483.06,148.88L484.48,153.88L485.19,155.3L485.9,155.66L486.61,73.44L487.32,71.83L488.04,73.61L489.46,67.01L490.17,68.8L490.88,67.91L491.59,70.58L493.02,77.54L493.73,84.32L496.57,114.28L497.28,110.18L498,129.08L498.71,68.08L500.13,68.44L500.84,73.79L501.55,71.83L502.26,72.37L503.69,80.75L504.4,80.93L505.82,87.35L506.53,104.47L507.24,112.14L507.96,131.4L510.09,173.85L510.8,172.43L512.22,183.13L512.94,183.13L513.65,178.31L514.36,202.93L515.78,123.38L516.49,123.55L518.63,128.37L519.34,124.27L520.76,134.61L521.47,138.89L524.32,166.72L525.03,132.12L525.74,131.4L526.45,134.43L527.16,133.9L527.88,134.43L528.59,135.33L529.3,133.9L532.86,152.45L533.57,163.69L534.28,164.22L534.99,171L535.7,170.29L536.41,172.25L537.12,186.16L537.84,138.18L538.55,135.5L539.26,140.86L539.97,138L540.68,142.64L541.39,150.49L542.1,149.24L544.24,174.39L544.95,193.29L545.66,128.37L546.37,130.69L547.08,129.98L548.51,131.05L549.22,139.79L549.93,135.33L550.64,138L552.06,158.87L552.78,156.37L554.2,190.26L554.91,130.15L556.33,128.91L557.04,129.44L557.76,131.76L558.47,131.22L559.18,132.83L559.89,138.54L562.02,156.19L562.74,157.09L564.87,201.32L565.58,124.45L567.72,132.47L568.43,131.94L570.56,157.62L571.27,169.93L571.98,170.82L572.7,187.94L573.41,150.49L574.12,159.23L574.83,162.44L575.54,175.99L576.25,171.36L576.96,174.39L578.39,200.96L579.1,126.59L581.23,136.57L581.94,136.4L584.79,154.23L585.5,163.51L586.21,172.43L586.92,137.82L587.64,139.25L588.35,144.07L589.06,143.17L589.77,153.88L591.9,179.02L592.62,193.65L593.33,143.53L594.04,144.78L594.75,153.88L596.88,181.34L597.6,197.04L598.31,140.5L599.02,143.53L599.73,148.88L601.15,154.23L601.86,170.64L602.58,170.46L603.29,195.79L604,221.3L604.71,124.98L605.42,129.8L606.13,100.19L606.84,99.65L607.56,93.77L608.98,90.74L609.69,90.74L610.4,91.98L611.11,91.63L611.82,89.67L612.54,95.02L614.67,116.24L615.38,112.5L616.8,146.03L617.52,189.01L619.65,206.31L620.36,224.15L621.78,77.89L622.49,79.32L623.21,73.79L623.92,78.25L624.63,77.36L625.34,74.15L626.76,71.65L627.47,77.89L628.19,86.46L628.9,85.56L630.32,102.86L631.03,117.67L631.74,88.42L632.45,90.38L633.17,82.89L633.88,85.21L634.59,80.57L635.3,85.39L636.01,84.85L636.72,82.17L637.43,91.09L638.15,89.67L638.86,89.49L639.57,99.48L640.28,113.03L640.99,111.25L642.41,137.11L643.13,80.75L643.84,83.78L644.55,81.46L645.97,80.39L646.68,81.82L647.39,80.93L648.11,84.49L648.82,82.89L649.53,93.59L650.24,92.34L650.95,100.19L655.93,193.12L656.64,192.22L657.35,193.47L658.07,199L658.78,275.87L659.49,215.59L660.2,215.05L660.91,218.98L661.62,212.02L662.33,215.41L663.76,213.98L664.47,214.88L665.89,208.99L666.6,209.88L667.31,205.07L668.03,208.45L668.74,205.6L669.45,205.96L670.87,200.25L671.58,205.78L672.29,204.17L673.01,207.03L673.72,202.21L674.43,203.46L676.56,213.45L677.27,212.91L678.7,218.09L679.41,215.59L680.12,215.95L680.83,217.19L683.68,229.32L684.39,223.79L685.1,227.9L685.81,225.04L686.52,228.61L687.23,225.58L687.95,222.9L688.66,228.97L689.37,228.61L690.08,230.75L691.5,236.64L692.21,235.21L692.93,234.14L693.64,228.07L695.06,241.09L695.77,247.16L696.48,267.85L697.19,266.96L697.91,263.21L698.62,257.33L699.33,259.47L701.46,268.21L702.17,294.07L702.89,295.32L703.6,132.29L704.31,132.29L705.02,133.9L706.44,138L707.15,138L708.58,139.61L709.29,138.54L710,141.03" style="vector-effect: none; fill: none; stroke: rgb(214, 39, 40); stroke-opacity: 1; stroke-width: 2px; opacity: 1;"/></g><g class="points"/><g class="text"/></g><g class="trace scatter trace34d950" style="stroke-miterlimit: 2; opacity: 1;"><g class="fills"/><g class="errorbars"/><g class="lines"><path class="js-line" d="M0,100.37L0.71,103.22L1.42,92.52L2.13,93.05L2.85,89.49L4.27,85.39L4.98,81.1L5.69,81.46L6.4,78.79L7.11,79.68L7.83,87.7L8.54,89.31L9.25,95.02L12.09,160.65L12.81,181.17L14.23,70.4L14.94,75.4L15.65,80.21L16.36,79.5L17.07,78.79L17.79,80.93L19.92,101.79L20.63,97.51L21.34,98.76L22.05,97.16L23.48,121.06L24.19,68.8L24.9,68.26L25.61,72.9L27.03,83.42L27.75,89.67L28.46,88.42L29.17,103.22L30.59,122.66L31.3,82.17L32.01,80.21L32.73,84.14L34.15,92.16L34.86,97.51L35.57,95.37L36.28,103.04L36.99,105.9L37.71,115.89L39.13,67.55L39.84,74.86L40.55,73.79L41.26,77L42.69,95.73L43.4,94.13L44.11,107.86L44.82,64.16L45.53,64.52L46.24,63.09L46.95,61.13L47.67,63.63L48.38,68.08L49.09,65.05L52.65,86.63L53.36,86.81L55.49,107.32L56.2,71.47L56.91,74.86L57.63,72.54L59.76,78.79L60.47,85.56L61.18,86.99L61.89,95.02L63.32,113.03L64.03,80.21L66.16,101.79L66.87,109.29L67.59,109.11L68.3,118.92L69.01,75.22L69.72,75.75L70.43,75.75L73.99,82.53L74.7,89.84L76.83,110L77.55,108.57L78.26,118.38L78.97,141.93L79.68,56.85L80.39,67.55L81.1,65.23L81.81,73.97L83.24,88.42L83.95,91.45L84.66,93.41L85.37,98.94L86.08,103.22L86.79,114.46L87.51,75.93L88.22,85.03L88.93,89.84L89.64,60.95L90.35,59.52L91.06,63.27L92.48,60.41L93.2,65.41L95.33,74.68L96.04,81.64L97.46,100.9L98.18,122.31L98.89,41.69L99.6,42.58L100.31,45.08L101.02,46.32L101.73,50.25L103.87,61.49L104.58,63.8L105.29,67.37L106,66.12L106.71,70.94L107.42,81.1L108.85,108.39L109.56,55.06L110.98,68.98L111.69,67.01L112.4,66.84L113.12,64.52L116.67,110.71L117.38,63.27L118.1,64.34L118.81,67.91L119.52,72.9L120.23,83.78L120.94,84.14L121.65,93.95L122.36,93.41L123.08,104.29L123.79,99.65L124.5,108.22L125.21,116.06L125.92,153.16L126.63,94.84L127.34,99.12L128.06,101.26L128.77,109.11L129.48,121.77L130.19,74.15L131.61,75.4L132.32,73.79L133.75,93.41L134.46,90.38L135.17,86.81L135.88,103.04L137.3,122.13L138.02,123.38L138.73,116.06L139.44,125.87L140.15,127.84L140.86,126.41L142.28,130.15L143,129.44L143.71,125.34L144.42,128.73L146.55,133.36L147.26,133.01L148.69,136.04L149.4,133.9L150.11,134.61L150.82,140.5L151.53,140.86L152.24,143.17L153.67,138.72L154.38,138.36L156.51,147.81L157.22,159.23L158.65,163.51L159.36,173.5L160.78,193.29L161.49,191.51L163.63,201.32L164.34,200.78L165.05,201.32L165.76,204.35L167.18,203.1L167.9,218.62L169.32,172.25L170.03,176.35L170.74,172.96L171.45,177.24L172.16,183.48L172.88,58.63L173.59,57.74L174.3,53.64L175.01,55.42L175.72,60.41L176.43,61.49L177.14,60.59L179.28,89.84L179.99,55.42L181.41,59.52L182.12,57.03L184.26,66.12L184.97,63.09L185.68,71.29L186.39,69.15L189.95,108.93L190.66,112.32L191.37,137.29L192.08,77.36L192.8,81.82L193.51,98.94L194.22,97.16L194.93,101.79L195.64,112.85L196.35,110.53L198.49,120.7L199.2,82.89L199.91,86.63L200.62,86.1L202.04,106.25L202.76,74.86L204.89,84.85L205.6,96.98L206.31,113.92L207.02,50.07L208.45,52.03L209.16,53.99L210.58,58.1L211.29,69.33L212.72,79.86L213.43,90.74L214.14,90.56L214.85,93.95L215.56,43.47L216.27,44.72L216.98,49.53L218.41,60.24L219.12,59.7L220.54,70.94L221.25,79.32L221.96,88.24L222.68,57.38L223.39,60.06L224.1,66.66L226.94,117.31L227.66,93.05L228.37,93.05L229.08,95.02L229.79,119.1L230.5,74.68L231.21,78.79L231.92,88.6L232.64,88.42L233.35,84.85L234.77,113.21L235.48,62.73L236.19,64.16L236.9,62.38L238.33,66.84L239.04,73.08L239.75,70.22L240.46,79.5L242.6,94.66L243.31,92.7L244.73,117.67L245.44,65.94L247.58,91.98L248.29,89.84L249,92.16L249.71,89.67L251.13,91.09L251.84,103.22L252.56,100.37L253.27,104.83L253.98,126.05L254.69,68.62L256.82,81.82L257.54,82.71L258.25,84.67L258.96,83.6L261.09,113.74L261.8,124.27L262.52,72.72L263.23,73.26L263.94,78.43L264.65,82.71L265.36,81.1L266.78,98.23L267.49,101.44L268.21,49L268.92,51.32L269.63,46.5L271.05,56.13L271.76,58.81L273.19,63.09L273.9,70.94L274.61,72.54L275.32,90.2L276.74,99.12L277.45,70.22L278.17,68.8L278.88,74.86L279.59,74.68L280.3,75.58L281.01,76.47L281.72,78.61L283.15,94.3L283.86,87.7L284.57,95.02L285.28,93.41L287.41,122.48L288.13,72.01L288.84,70.05L289.55,74.51L290.26,73.44L290.97,76.29L292.39,111.07L293.11,47.93L295.95,79.5L296.66,42.58L298.09,51.5L298.8,67.37L299.51,78.79L300.22,75.93L300.93,78.79L301.64,73.79L302.35,85.74L303.07,54.71L303.78,52.39L304.49,55.78L305.2,51.5L305.91,52.03L306.62,52.75L307.33,51.85L308.05,50.96L308.76,53.1L311.6,85.39L312.31,93.59L313.03,118.38L313.74,37.58L314.45,37.05L315.16,44.01L315.87,55.78L316.58,52.92L320.14,97.51L320.85,69.87L322.99,65.41L323.7,68.8L326.54,89.31L327.25,100.9L329.39,129.62L330.1,143.17L330.81,93.59L331.52,101.62L332.23,102.33L332.95,62.02L333.66,65.05L334.37,58.81L335.79,73.44L336.5,68.62L338.64,97.51L339.35,58.1L340.06,60.24L340.77,57.2L343.62,92.52L344.33,93.95L345.04,101.97L345.75,100.01L347.17,114.1L347.89,134.79L349.31,47.04L350.02,48.82L350.73,51.14L351.44,45.61L352.87,52.92L353.58,53.1L354.29,60.41L355,75.93L355.71,71.12L356.42,74.86L357.13,84.14L357.85,108.75L358.56,101.79L359.27,105.54L360.69,129.98L361.4,192.94L362.11,140.86L362.83,141.03L363.54,139.25L364.96,144.07L365.67,143.53L367.09,152.45L367.81,151.02L369.23,154.77L369.94,147.99L371.36,126.94L372.07,120.88L373.5,114.64L374.21,116.06L374.92,111.25L375.63,112.32L376.34,113.57L377.05,111.43L377.77,110.36L378.48,112.5L379.19,109.46L379.9,112.67L380.61,116.96L381.32,116.42L382.75,118.2L383.46,117.85L384.17,116.06L384.88,122.66L387.73,143.53L388.44,150.13L389.15,152.45L389.86,164.04L391.28,171.36L391.99,188.3L392.71,191.33L393.42,85.39L394.84,90.56L395.55,99.65L396.26,100.19L396.97,103.58L397.69,114.46L398.4,63.45L399.11,67.55L399.82,65.05L400.53,61.49L401.24,68.08L401.95,70.4L402.67,76.82L403.38,79.68L404.09,78.96L404.8,81.28L405.51,88.6L406.22,104.11L406.93,55.78L409.07,69.69L409.78,79.5L410.49,83.6L411.2,80.93L412.63,94.3L413.34,95.37L415.47,131.94L416.18,145.31L417.61,90.38L418.32,89.49L419.03,93.23L419.74,44.01L420.45,42.22L421.16,44.18L422.59,52.75L423.3,53.82L424.01,66.48L424.72,66.12L425.43,74.51L426.14,41.15L426.85,42.58L427.57,43.65L428.28,47.93L428.99,62.56L429.7,65.94L430.41,75.58L431.83,94.66L432.55,55.78L433.26,55.6L433.97,53.46L436.1,78.96L436.81,78.61L437.53,83.25L438.24,78.07L438.95,78.96L439.66,85.74L441.08,97.34L441.79,116.78L442.51,123.73L443.22,158.16L443.93,45.08L444.64,49.89L445.35,47.75L447.48,59.7L448.2,71.47L448.91,72.01L449.62,74.15L450.33,74.15L451.04,84.85L451.75,52.92L452.46,53.28L453.18,56.67L456.02,85.56L456.73,105.54L458.87,126.23L459.58,80.75L460.29,81.1L461,82.53L461.71,85.03L462.42,79.68L463.14,84.49L463.85,96.27L464.56,93.23L465.27,98.05L465.98,109.82L466.69,63.98L468.12,70.76L468.83,73.44L469.54,70.94L470.25,71.29L470.96,76.29L471.67,74.15L473.1,95.2L473.81,52.92L474.52,59.88L475.23,56.31L476.65,63.8L477.36,63.09L478.08,73.97L478.79,72.72L479.5,80.93L480.21,79.14L481.63,89.13L482.34,88.77L483.77,104.47L484.48,128.55L485.19,76.11L485.9,81.28L487.32,90.91L488.04,88.6L488.75,109.82L489.46,80.57L490.17,96.98L490.88,47.39L491.59,42.94L492.3,52.21L493.02,45.25L493.73,49.89L494.44,53.46L495.15,52.57L495.86,57.38L496.57,68.26L497.28,64.87L498,73.79L499.42,89.49L500.13,86.63L500.84,106.79L501.55,68.98L502.26,66.12L502.98,71.47L504.4,91.63L505.11,91.09L506.53,118.74L507.24,95.37L508.67,40.08L509.38,43.29L510.09,41.87L510.8,42.76L511.51,43.83L512.22,43.29L512.94,50.25L513.65,49L514.36,61.31L515.07,56.85L517.2,74.51L517.92,73.61L518.63,85.92L519.34,82.53L520.76,102.51L521.47,109.11L522.18,125.87L522.9,63.45L524.32,69.51L525.03,72.01L525.74,75.75L526.45,91.27L527.16,101.08L527.88,100.9L528.59,100.37L530.01,131.05L530.72,50.96L532.14,57.03L532.86,67.73L534.28,81.82L534.99,90.38L536.41,90.91L537.12,103.58L537.84,107.5L538.55,128.01L539.97,55.78L540.68,61.13L542.1,72.01L542.82,78.25L544.24,114.1L544.95,111.78L545.66,125.34L546.37,74.68L547.08,80.03L547.8,78.96L548.51,81.64L549.22,80.57L549.93,82.89L550.64,77.72L551.35,80.57L552.06,89.84L552.78,88.6L553.49,94.84L554.91,130.69L555.62,245.91L556.33,107.5L557.04,113.92L557.76,115.35L558.47,118.56L559.18,113.03L561.31,157.8L562.02,153.52L562.74,156.37L563.45,155.48L564.16,157.8L564.87,153.7L566.29,156.19L567,156.73L568.43,153.7L569.14,154.59L569.85,152.63L570.56,156.91L571.98,158.16L572.7,154.77L574.12,155.48L574.83,162.62L575.54,169.57L576.25,168.86L576.96,169.57L577.68,176.53L579.1,177.78L579.81,180.27L581.94,175.99L582.66,192.22L583.37,187.76L584.08,191.15L584.79,187.59L585.5,189.73L586.21,190.44L586.92,189.55L587.64,186.69L588.35,203.1L589.06,144.42L589.77,145.14L590.48,146.21L591.19,146.38L591.9,147.46L592.62,145.14L593.33,147.81L595.46,145.31L596.17,145.67L596.88,141.39L597.6,144.6L598.31,145.49L599.02,142.64L599.73,146.21L600.44,143.89L601.86,148.35L602.58,147.1L605.42,182.06L606.13,119.27L606.84,118.56L607.56,123.55L608.27,117.49L608.98,123.73L609.69,127.3L610.4,121.59L611.82,118.56L612.54,124.62L614.67,135.5L615.38,133.19L616.09,130.51L616.8,137.65L617.52,137.47L618.23,143.53L618.94,147.1L619.65,145.67L621.78,157.62L622.49,155.66L623.21,160.12L623.92,173.32L624.63,175.28L625.34,168.68L626.76,193.12L627.47,211.13L628.9,180.99L629.61,186.87L630.32,190.08L631.03,199.89L632.45,61.13L633.17,66.84L633.88,73.08L634.59,70.05L635.3,82.17L636.01,81.28L637.43,101.62L638.15,98.94L638.86,98.76L639.57,114.64L640.99,158.34L641.7,165.65L642.41,165.29L643.13,162.26L643.84,166.54L644.55,161.37L645.26,163.15L645.97,160.65L646.68,161.9L647.39,157.62L648.82,162.62L649.53,168.68L650.24,168.32L650.95,170.46L652.37,182.77L653.09,178.67L654.51,191.87L655.22,210.24L656.64,163.15L657.35,167.07L658.07,162.08L658.78,164.76L660.2,173.32L660.91,169.57L662.33,175.99L663.05,187.76L663.76,191.15L664.47,188.3L665.89,203.28L666.6,206.85L667.31,209.7L668.03,209.35L668.74,213.09L669.45,212.91L670.16,210.77L670.87,214.7L671.58,232L672.29,232.18L673.01,230.75L674.43,230.39L675.14,236.1L675.85,236.64L676.56,122.31L680.12,157.44L680.83,172.78L682.97,95.02L683.68,103.76L684.39,107.68L685.1,118.74L685.81,139.07L686.52,85.21L687.95,92.16L688.66,100.37L690.79,126.59L691.5,124.27L692.21,141.39L692.93,229.5L693.64,228.07L694.35,231.46L695.06,134.08L695.77,135.86L696.48,137.82L697.19,137.29L697.91,153.7L698.62,160.12L699.33,157.8L701.46,166.54L702.17,166.36L703.6,178.85L704.31,187.59L705.73,198.47L706.44,206.49L707.15,135.15L707.87,138.54L710,137.82" style="vector-effect: none; fill: none; stroke: rgb(148, 103, 189); stroke-opacity: 1; stroke-width: 2px; opacity: 1;"/></g><g class="points"/><g class="text"/></g><g class="trace scatter traceadcd66" style="stroke-miterlimit: 2; opacity: 1;"><g class="fills"/><g class="errorbars"/><g class="lines"><path class="js-line" d="M0,100.37L0.71,103.22L1.42,92.52L2.13,93.05L2.85,89.49L4.27,85.39L4.98,81.1L5.69,81.46L6.4,78.79L7.11,79.68L7.83,87.7L8.54,89.31L9.25,95.02L12.09,160.65L12.81,181.17L14.23,70.4L14.94,75.4L15.65,80.21L16.36,79.5L17.07,78.79L17.79,80.93L19.92,101.79L20.63,97.51L21.34,98.76L22.05,97.16L23.48,121.06L24.19,73.26L24.9,72.54L25.61,75.93L27.03,86.28L27.75,90.91L28.46,90.56L29.17,104.83L30.59,125.69L31.3,82.17L32.01,80.21L32.73,83.96L34.15,91.98L34.86,97.69L35.57,95.02L36.28,103.22L36.99,105.9L37.71,115.53L39.13,66.84L39.84,75.4L40.55,75.04L41.26,76.47L42.69,97.87L43.4,94.66L44.11,108.57L44.82,62.2L46.24,58.27L46.95,60.95L47.67,60.41L48.38,60.95L49.09,60.77L49.8,64.34L51.22,73.44L51.93,72.01L54.07,88.42L54.78,86.28L56.2,105.72L56.91,68.98L57.63,69.15L58.34,67.91L59.05,72.9L59.76,70.58L62.61,89.49L63.32,100.55L64.74,131.05L65.45,61.49L67.59,67.73L68.3,67.37L69.01,70.58L69.72,68.62L71.14,81.82L71.85,77.18L72.57,83.25L73.28,82.53L74.7,101.79L75.41,117.13L76.83,85.92L77.55,85.39L78.97,92.88L79.68,91.27L81.81,112.5L82.53,126.23L84.66,150.49L85.37,129.26L86.79,74.68L87.51,75.4L88.22,76.82L88.93,73.08L90.35,88.6L91.06,87.88L91.77,89.84L92.48,100.01L93.2,104.47L93.91,115.89L94.62,115.35L95.33,127.48L96.04,144.96L96.75,79.5L98.18,89.49L98.89,87.7L101.73,118.74L102.44,132.65L103.16,147.1L103.87,67.37L104.58,66.84L105.29,70.58L106,71.47L106.71,76.82L107.42,81.28L108.14,100.01L109.56,117.49L110.27,140.32L111.69,50.96L112.4,49L113.83,54.53L114.54,52.57L116.67,64.16L117.38,63.8L118.1,74.33L118.81,70.22L120.23,88.42L120.94,50.96L122.36,56.13L123.08,58.63L123.79,58.1L124.5,62.02L125.21,66.48L125.92,80.39L126.63,78.43L127.34,82.17L128.06,92.7L128.77,54.53L130.19,64.34L130.9,64.52L131.61,65.41L132.32,73.79L133.75,80.03L134.46,80.75L135.17,80.39L135.88,87.17L136.59,97.69L137.3,96.09L138.02,103.4L138.73,124.62L140.15,50.25L140.86,47.75L142.28,48.29L143,51.5L144.42,58.63L145.13,55.24L145.84,53.46L146.55,64.34L147.26,59.88L147.98,70.22L149.4,78.25L150.11,91.98L150.82,114.81L151.53,215.05L152.24,51.68L152.96,58.1L153.67,57.38L155.09,79.68L155.8,174.21L156.51,172.25L157.22,181.88L157.94,179.2L158.65,189.9L160.78,226.47L161.49,125.52L162.2,127.48L162.92,132.83L163.63,135.15L164.34,143L165.05,143.53L165.76,141.39L166.47,150.13L167.18,147.28L167.9,167.43L168.61,126.59L169.32,167.97L170.03,160.3L171.45,157.09L172.16,158.16L172.88,156.91L173.59,157.44L174.3,157.62L175.01,163.51L175.72,167.61L176.43,165.65L177.14,166.36L177.86,177.95L178.57,180.27L179.28,186.34L179.99,189.73L180.7,188.66L182.84,171.36L183.55,169.93L185.68,160.65L186.39,161.01L187.1,164.04L187.82,158.51L188.53,166.54L189.24,162.62L190.66,190.8L191.37,146.74L192.08,144.24L192.8,137.29L194.22,142.46L194.93,142.1L197.06,139.61L197.78,141.39L198.49,139.43L199.2,139.96L200.62,138.72L201.33,142.64L202.04,139.43L202.76,140.5L203.47,138.72L204.18,142.64L205.6,143.71L206.31,144.6L207.74,146.03L208.45,145.49L209.16,150.49L209.87,148.17L211.29,157.09L212,154.77L213.43,160.3L214.14,157.44L214.85,158.34L215.56,161.37L216.27,168.32L216.98,138.89L219.12,140.86L219.83,140.68L220.54,142.28L221.25,140.86L222.68,143L223.39,143L224.1,143L224.81,146.03L225.52,142.28L226.23,142.82L227.66,146.03L228.37,143L230.5,156.37L231.21,156.73L231.92,165.65L232.64,159.41L236.19,183.84L236.9,187.76L237.62,186.16L238.33,188.48L240.46,202.21L241.17,72.54L241.88,71.83L242.6,69.69L243.31,71.12L244.02,70.05L244.73,77.36L245.44,74.15L246.15,73.79L246.86,75.22L247.58,86.28L248.29,85.39L249,85.39L249.71,86.63L250.42,83.42L251.13,85.21L251.84,91.63L252.56,88.95L255.4,133.19L256.11,106.25L256.82,120.34L257.54,105.01L258.96,96.09L259.67,90.02L261.8,76.47L262.52,76.82L263.23,76.47L263.94,78.61L264.65,78.07L265.36,75.04L267.49,78.25L268.21,77L271.05,82.35L271.76,90.38L273.19,98.05L273.9,112.32L275.32,137.82L276.03,158.34L276.74,166.36L277.45,188.83L278.17,81.28L278.88,90.02L280.3,89.49L281.01,96.98L283.86,125.87L284.57,130.15L285.28,127.3L285.99,136.93L287.41,157.26L288.13,140.5L288.84,142.64L289.55,150.67L290.26,151.38L290.97,165.83L291.68,191.87L292.39,71.83L295.24,81.46L295.95,89.31L297.37,116.24L298.09,74.68L299.51,92.52L300.22,91.27L300.93,88.77L301.64,91.27L302.35,96.8L303.07,109.64L303.78,128.91L304.49,58.1L305.2,57.2L305.91,62.38L306.62,57.92L307.33,60.41L308.76,61.49L309.47,70.22L313.03,110.89L313.74,51.85L317.29,74.68L318.01,89.31L318.72,103.22L319.43,62.38L320.85,66.84L321.56,65.59L325.12,100.19L325.83,51.32L329.39,79.32L330.1,86.99L331.52,104.83L332.23,103.22L333.66,114.1L334.37,113.74L335.08,123.91L335.79,93.77L336.5,93.77L337.21,99.83L339.35,126.23L340.06,125.16L340.77,124.8L341.48,142.64L342.19,149.06L342.91,97.69L343.62,119.81L344.33,64.16L345.75,66.48L346.46,70.05L348.6,103.22L349.31,108.39L350.73,124.27L351.44,130.87L352.87,56.67L353.58,63.8L355,75.4L355.71,72.54L357.13,78.43L357.85,93.59L359.27,98.94L359.98,104.83L360.69,72.37L361.4,78.79L362.11,78.79L362.83,83.78L364.96,116.96L365.67,79.86L367.09,105.18L367.81,145.14L369.23,131.58L369.94,131.76L371.36,126.05L372.07,128.73L374.21,135.33L374.92,136.22L375.63,141.03L376.34,138L377.05,140.14L377.77,146.21L379.19,158.69L379.9,164.04L382.03,167.97L382.75,167.61L384.88,177.78L385.59,177.78L386.3,182.06L387.01,181.17L388.44,189.01L389.15,190.44L389.86,200.61L390.57,199.54L391.28,202.57L391.99,216.12L392.71,221.12L393.42,100.01L394.13,113.03L394.84,48.29L395.55,59.52L396.26,55.78L398.4,67.91L399.11,64.52L399.82,67.55L400.53,66.3L401.24,69.51L401.95,89.67L403.38,96.27L404.09,102.15L404.8,105.54L405.51,124.09L406.22,113.92L406.93,67.19L407.65,67.37L408.36,70.76L410.49,79.14L411.2,79.32L412.63,93.23L413.34,92.34L414.05,104.11L414.76,103.4L415.47,107.68L416.18,125.34L417.61,70.22L418.32,70.05L419.03,75.22L419.74,73.97L420.45,82.71L421.16,81.64L421.87,89.49L422.59,89.31L423.3,88.24L424.72,103.93L425.43,110.71L426.85,133.19L427.57,78.07L428.99,80.03L429.7,87.53L431.83,96.98L432.55,105.36L433.97,113.39L434.68,128.55L435.39,126.41L436.1,158.51L436.81,71.65L437.53,75.4L438.95,70.76L439.66,73.61L441.08,77.54L441.79,82L442.51,85.74L443.22,93.95L444.64,109.82L445.35,129.44L446.77,58.99L447.48,60.77L448.91,64.87L449.62,63.8L450.33,61.84L451.04,63.8L452.46,68.8L453.18,76.11L453.89,80.39L454.6,97.51L455.31,106.79L456.02,83.6L457.44,97.34L458.16,94.3L460.29,107.32L461,105.72L461.71,104.29L462.42,108.39L463.14,111.96L463.85,122.13L465.27,134.26L465.98,114.81L467.4,132.29L468.12,129.08L468.83,129.26L469.54,131.4L470.25,133.36L470.96,131.22L471.67,136.57L472.38,147.99L473.1,141.75L473.81,158.87L475.23,171.36L475.94,173.5L478.08,227.9L478.79,53.28L480.21,57.56L480.92,63.98L481.63,58.27L482.34,62.73L483.77,75.22L484.48,92.7L485.19,95.2L485.9,114.46L487.32,104.11L488.04,99.65L489.46,118.92L490.17,129.62L490.88,127.48L491.59,144.96L493.02,72.37L493.73,70.05L495.15,68.98L495.86,68.08L496.57,67.19L497.28,74.33L498,76.47L498.71,82.71L502.26,97.87L502.98,110.18L503.69,134.08L504.4,104.83L505.11,54.53L505.82,61.66L506.53,61.31L507.24,55.6L507.96,60.06L508.67,69.51L509.38,70.94L510.09,67.91L510.8,65.94L511.51,71.65L512.22,74.33L512.94,82L513.65,82.71L514.36,96.44L515.07,73.26L515.78,78.96L518.63,104.65L519.34,108.75L520.05,121.06L520.76,45.25L521.47,45.79L522.18,48.29L522.9,51.5L523.61,58.99L524.32,70.4L525.03,69.15L526.45,92.7L527.16,70.58L527.88,69.15L528.59,70.22L529.3,67.01L530.01,70.94L530.72,78.25L531.43,77.89L532.14,79.32L533.57,110.18L534.28,108.75L534.99,120.17L535.7,119.99L536.41,121.95L537.84,141.75L538.55,153.7L539.97,101.62L540.68,66.48L541.39,78.07L542.1,76.11L542.82,81.28L543.53,101.26L544.24,71.83L544.95,76.29L545.66,77.72L546.37,82.53L548.51,86.46L549.22,98.41L549.93,99.83L550.64,97.69L551.35,108.75L552.06,58.27L552.78,62.38L553.49,60.59L554.91,54.71L555.62,55.24L556.33,53.99L557.04,58.99L557.76,61.13L558.47,57.74L559.18,55.96L559.89,63.09L561.31,72.54L562.02,74.86L563.45,81.46L564.16,94.3L564.87,111.78L565.58,90.02L567.72,116.24L568.43,76.47L569.85,76.29L570.56,79.86L574.12,135.15L574.83,81.1L575.54,88.06L576.25,86.1L576.96,86.99L577.68,98.76L578.39,64.34L579.1,66.3L580.52,81.1L581.23,79.32L581.94,80.39L582.66,89.31L583.37,100.19L584.08,68.44L584.79,67.01L585.5,70.05L588.35,93.23L589.06,102.15L590.48,134.26L591.19,85.03L592.62,81.1L593.33,83.96L594.04,87.35L594.75,96.27L597.6,130.33L598.31,146.03L599.02,100.19L599.73,106.61L600.44,109.64L601.15,108.39L601.86,123.38L602.58,83.07L603.29,85.56L604,94.13L605.42,117.85L606.13,135.15L606.84,76.65L607.56,84.49L608.98,85.03L609.69,88.6L611.11,110.18L611.82,108.57L613.25,121.95L613.96,130.69L614.67,151.02L615.38,95.37L616.09,95.91L616.8,99.83L617.52,98.76L618.23,120.34L618.94,79.14L619.65,86.63L621.78,120.34L622.49,51.32L623.21,51.68L623.92,55.6L626.05,55.06L626.76,68.44L628.19,91.63L628.9,89.49L630.32,115.53L631.03,62.91L631.74,61.84L632.45,63.63L633.88,77L634.59,76.47L635.3,88.6L636.01,83.6L638.15,121.24L638.86,117.85L639.57,138.36L640.28,91.27L640.99,89.31L641.7,107.32L643.13,65.41L643.84,66.48L647.39,94.3L648.11,108.04L649.53,51.14L650.24,51.32L652.37,63.63L653.09,72.01L655.22,113.74L655.93,63.63L656.64,65.59L657.35,62.02L659.49,84.67L660.2,92.52L660.91,88.24L661.62,98.76L662.33,106.79L663.05,129.08L664.47,62.38L665.18,81.64L665.89,40.62L666.6,45.25L668.03,53.28L668.74,55.96L670.87,67.01L671.58,81.82L673.01,86.1L673.72,33.84L674.43,32.41L675.14,28.84L675.85,39.55L676.56,38.3L677.99,57.03L678.7,55.24L680.83,84.85L681.54,63.63L682.25,66.66L682.97,76.47L683.68,91.81L684.39,90.91L686.52,139.43L687.23,87.88L687.95,99.83L688.66,98.05L689.37,95.73L690.08,101.08L690.79,105.9L691.5,102.51L692.93,110.71L693.64,107.15L695.06,118.56L695.77,121.24L696.48,115.71L697.19,125.52L698.62,144.78L699.33,121.77L701.46,143.53L702.17,153.7L703.6,144.07L704.31,152.63L705.02,149.95L705.73,151.91L706.44,154.59L707.15,153.34L707.87,156.02L708.58,155.48L709.29,153.88L710,162.08" style="vector-effect: none; fill: none; stroke: rgb(140, 86, 75); stroke-opacity: 1; stroke-width: 2px; opacity: 1;"/></g><g class="points"/><g class="text"/></g><g class="trace scatter tracee51001" style="stroke-miterlimit: 2; opacity: 1;"><g class="fills"/><g class="errorbars"/><g class="lines"><path class="js-line" d="M0,100.37L0.71,103.22L1.42,92.52L2.13,93.05L2.85,89.49L4.27,85.39L4.98,81.1L5.69,81.46L6.4,78.79L7.11,79.68L7.83,87.7L8.54,89.31L9.25,95.02L12.09,160.65L12.81,181.17L14.23,100.01L14.94,111.96L15.65,133.36L16.36,132.65L17.07,130.87L17.79,132.12L18.5,140.68L19.92,63.63L20.63,65.41L22.05,64.34L22.77,66.66L23.48,67.91L24.19,70.94L24.9,69.33L25.61,75.75L27.75,105.54L28.46,106.97L29.88,145.49L30.59,85.21L32.73,112.14L33.44,121.95L34.15,123.38L34.86,132.29L36.28,99.3L36.99,97.87L37.71,115.89L38.42,45.97L39.13,41.33L39.84,44.18L41.26,43.29L41.97,50.96L42.69,58.27L43.4,55.24L44.82,68.62L45.53,63.63L46.95,69.69L47.67,79.32L48.38,96.27L49.09,47.57L50.51,47.57L51.22,51.32L51.93,50.78L52.65,54.53L53.36,55.24L54.07,58.63L56.2,83.96L56.91,60.41L58.34,63.45L59.05,62.56L61.18,67.19L61.89,71.65L63.32,87.7L64.03,97.16L65.45,71.83L66.16,76.47L66.87,89.49L67.59,85.56L69.01,98.23L69.72,97.51L70.43,112.5L71.14,67.19L71.85,68.26L72.57,75.75L73.28,74.33L73.99,77.89L75.41,85.74L76.12,85.21L77.55,89.84L78.26,106.97L80.39,134.43L81.1,83.6L81.81,98.41L82.53,63.63L83.24,60.95L83.95,62.73L84.66,64.52L85.37,68.44L88.93,105.72L89.64,65.23L91.77,76.65L92.48,88.42L93.2,89.49L93.91,95.91L95.33,103.04L96.04,110L96.75,114.28L97.46,136.04L98.18,233.6L98.89,223.79L99.6,84.32L100.31,95.2L101.02,96.09L101.73,104.29L103.16,118.74L103.87,130.33L104.58,83.96L105.29,95.73L106,94.66L106.71,108.39L107.42,40.8L108.14,54.53L108.85,54.89L109.56,64.34L110.27,83.25L110.98,80.21L111.69,81.46L112.4,81.1L113.12,81.1L113.83,93.41L114.54,108.39L115.25,51.68L117.38,62.56L118.1,62.02L118.81,60.95L119.52,74.68L120.94,92.52L121.65,101.44L122.36,102.33L123.08,110.53L123.79,68.98L124.5,72.54L127.34,105.36L128.06,119.27L128.77,75.04L129.48,80.93L130.19,82.71L130.9,88.06L132.32,54.35L133.04,63.09L134.46,74.68L135.17,76.65L135.88,79.68L136.59,93.77L137.3,96.98L138.02,110.18L138.73,57.38L139.44,67.37L140.15,61.84L140.86,69.87L144.42,104.11L145.13,103.93L145.84,62.02L146.55,80.21L147.26,81.64L147.98,95.55L149.4,64.16L150.11,71.47L152.24,97.87L152.96,72.19L154.38,78.25L155.09,86.63L156.51,102.69L157.22,112.67L157.94,57.74L158.65,59.7L159.36,68.44L161.49,82L162.2,79.68L162.92,88.77L163.63,61.66L164.34,59.88L165.05,60.59L165.76,59.17L166.47,62.02L167.18,59.7L167.9,61.49L170.03,76.11L170.74,86.46L171.45,95.91L172.16,62.73L172.88,62.02L173.59,66.48L175.72,90.91L176.43,103.22L177.14,101.79L177.86,119.27L178.57,73.61L179.28,78.61L182.84,109.29L183.55,63.09L184.26,68.26L184.97,67.19L186.39,73.26L187.1,87.88L187.82,96.09L188.53,112.85L189.24,116.06L189.95,125.87L190.66,138.72L191.37,87.35L192.08,64.16L192.8,69.51L195.64,95.02L196.35,91.09L197.06,92.88L197.78,92.34L198.49,105.18L199.2,45.79L199.91,49L200.62,59.17L202.76,105.72L203.47,60.95L204.18,60.59L204.89,72.72L206.31,95.73L207.02,95.02L208.45,106.25L209.16,112.32L210.58,144.24L211.29,63.8L212,65.23L212.72,72.9L214.14,75.04L214.85,71.65L215.56,75.04L216.27,82.35L218.41,106.25L219.12,60.24L219.83,62.91L220.54,58.45L221.25,62.38L221.96,72.72L224.1,100.37L224.81,70.76L225.52,77L226.23,91.81L226.94,95.55L227.66,113.57L229.08,131.76L229.79,159.94L230.5,159.94L231.21,165.29L231.92,172.07L232.64,169.39L233.35,167.07L234.06,179.38L235.48,201.86L236.19,159.58L237.62,165.11L238.33,164.76L240.46,176.71L241.17,185.98L242.6,199.71L243.31,198.11L244.73,233.78L245.44,159.41L247.58,185.62L248.29,187.76L249,185.27L249.71,186.34L251.13,181.7L251.84,195.97L252.56,194.72L253.27,198.64L255.4,230.39L256.11,170.11L256.82,168.32L257.54,175.46L258.25,182.24L258.96,180.81L261.09,217.19L261.8,181.88L262.52,187.76L263.23,184.91L264.65,207.38L265.36,205.78L266.07,213.09L266.78,212.2L267.49,69.15L268.21,71.47L268.92,78.96L269.63,78.96L270.34,87.35L271.05,87.88L271.76,101.97L272.47,37.76L273.19,40.44L273.9,50.43L274.61,45.79L275.32,54.17L277.45,74.68L278.17,78.43L279.59,80.57L280.3,88.24L281.01,98.58L281.72,57.92L283.15,71.83L283.86,70.05L285.28,75.04L285.99,82L288.13,105.18L288.84,101.08L289.55,114.99L290.26,67.37L290.97,67.01L291.68,77.54L294.53,123.55L295.24,88.24L296.66,112.14L297.37,48.29L298.09,52.03L298.8,61.66L300.22,76.47L300.93,78.43L301.64,73.26L302.35,85.21L304.49,130.87L305.2,65.94L305.91,63.45L306.62,63.98L307.33,60.24L308.05,64.7L308.76,66.3L309.47,65.94L310.18,69.15L310.89,79.86L311.6,75.58L312.31,81.64L313.03,96.8L313.74,93.95L314.45,104.29L315.16,56.31L318.01,85.21L318.72,101.08L320.14,124.09L320.85,87.88L322.27,90.38L322.99,93.41L324.41,100.37L325.12,112.5L326.54,126.77L327.25,146.92L328.68,49L329.39,53.82L330.1,54.53L330.81,57.74L333.66,77.36L334.37,73.08L335.79,85.03L336.5,82.53L338.64,114.99L339.35,86.81L340.77,83.42L341.48,95.2L342.19,111.96L342.91,57.38L344.33,73.08L345.04,85.56L345.75,37.58L346.46,38.83L347.17,38.65L348.6,57.74L349.31,67.91L350.02,82L350.73,80.93L352.15,108.75L352.87,67.37L354.29,74.51L355,85.39L355.71,87.35L356.42,85.74L357.13,104.11L357.85,51.14L358.56,50.43L359.27,48.46L360.69,69.15L361.4,48.64L362.11,43.11L362.83,46.32L364.96,64.87L365.67,64.52L366.38,73.08L367.09,94.48L368.52,118.03L369.23,84.67L371.36,92.88L372.07,103.76L374.21,121.41L374.92,117.85L375.63,136.22L376.34,80.57L377.77,42.04L378.48,49.53L379.19,49.53L379.9,55.78L380.61,58.45L381.32,72.01L382.03,72.37L382.75,83.96L383.46,85.21L384.17,77.54L384.88,91.45L385.59,46.5L388.44,87.7L389.15,82.35L389.86,101.08L390.57,33.48L391.99,49.53L392.71,48.29L394.13,62.73L394.84,70.4L395.55,88.42L396.26,34.73L396.97,36.16L397.69,42.22L398.4,38.83L399.11,42.58L399.82,42.58L400.53,44.9L401.24,43.11L401.95,61.84L402.67,58.45L403.38,64.87L404.09,66.48L404.8,73.79L406.22,113.39L406.93,86.99L407.65,45.08L408.36,47.57L410.49,62.2L411.2,63.63L411.91,68.26L412.63,78.79L413.34,77.18L414.05,88.77L414.76,87.7L415.47,96.27L416.18,107.32L416.89,58.81L419.03,70.05L419.74,63.09L421.87,88.24L422.59,87.88L423.3,89.49L424.01,105.36L424.72,108.39L425.43,117.13L426.14,128.19L426.85,68.44L427.57,68.44L428.28,78.79L429.7,92.16L430.41,101.97L431.12,111.78L431.83,76.65L432.55,79.5L433.26,87.7L433.97,91.09L434.68,104.83L435.39,104.83L436.1,131.22L436.81,74.15L437.53,74.51L438.24,77.36L438.95,74.15L439.66,85.39L440.37,94.48L441.08,40.08L443.22,60.77L443.93,59.34L446.06,91.09L446.77,57.38L447.48,56.49L448.2,59.88L448.91,70.22L449.62,69.15L450.33,66.3L451.04,73.26L453.89,108.57L454.6,128.01L455.31,103.93L456.02,41.51L456.73,45.08L457.44,56.13L458.16,53.46L458.87,62.91L459.58,71.47L460.29,47.75L461,48.82L461.71,45.08L462.42,45.25L463.14,51.68L464.56,44.54L465.27,56.13L465.98,54.89L466.69,58.81L467.4,67.55L468.12,65.77L469.54,66.12L470.25,63.8L470.96,67.01L471.67,64.34L473.1,90.2L473.81,58.45L474.52,64.87L475.23,62.91L476.65,75.58L477.36,85.92L478.08,101.79L478.79,97.87L479.5,112.14L480.21,66.84L480.92,69.87L481.63,68.8L482.34,70.4L483.06,75.4L483.77,80.03L484.48,94.84L485.9,111.07L486.61,121.41L487.32,76.29L488.04,77.54L488.75,96.09L489.46,106.25L490.17,105.36L490.88,108.57L491.59,117.85L492.3,144.42L493.02,59.88L493.73,60.59L494.44,67.91L495.15,66.66L495.86,72.19L498,93.59L498.71,97.69L499.42,105.36L500.13,104.47L500.84,116.42L501.55,66.48L502.26,67.55L502.98,70.58L504.4,88.24L505.11,84.85L507.24,110.53L507.96,130.69L508.67,88.77L509.38,89.13L510.09,94.13L510.8,93.23L511.51,102.86L512.22,103.76L512.94,99.3L513.65,101.97L514.36,108.75L515.07,57.03L515.78,57.2L516.49,58.1L517.2,59.88L517.92,59.34L518.63,60.06L519.34,62.2L520.05,58.45L520.76,62.2L522.18,73.08L522.9,73.61L525.74,115.53L526.45,65.94L527.16,65.77L527.88,68.44L529.3,66.12L530.01,84.85L532.14,108.75L532.86,136.22L533.57,104.47L534.28,104.65L534.99,104.29L535.7,104.47L536.41,106.97L537.12,110.53L537.84,131.76L538.55,63.98L539.26,73.08L539.97,68.8L540.68,83.25L541.39,94.48L542.1,44.54L542.82,44.18L543.53,54.71L547.08,93.05L547.8,93.95L548.51,110L549.22,59.52L554.2,79.86L554.91,86.99L556.33,84.14L557.04,94.48L557.76,95.73L558.47,99.65L559.18,96.62L559.89,107.32L560.6,56.67L561.31,62.73L562.02,63.8L562.74,62.73L566.29,93.05L567,105.01L567.72,58.81L568.43,60.24L569.14,57.74L571.27,81.82L571.98,78.43L573.41,96.09L574.12,72.19L575.54,90.02L576.25,85.21L576.96,85.21L577.68,99.48L579.81,119.99L580.52,130.33L581.23,133.36L581.94,131.58L582.66,163.51L583.37,62.56L584.08,60.59L584.79,63.8L585.5,64.34L586.21,67.55L588.35,89.84L589.06,103.58L590.48,140.32L591.19,65.41L592.62,68.08L593.33,76.47L594.04,83.78L594.75,101.26L595.46,104.11L596.17,116.42L596.88,128.55L597.6,71.65L600.44,98.76L601.15,95.55L601.86,111.07L602.58,67.73L604.71,101.44L605.42,83.96L606.13,95.2L606.84,93.77L608.27,122.48L608.98,88.06L609.69,91.81L610.4,101.08L611.11,115.35L611.82,66.12L612.54,67.73L613.25,72.01L613.96,78.61L614.67,95.37L615.38,90.2L616.09,101.44L616.8,115.35L617.52,52.39L618.23,58.99L618.94,56.85L620.36,64.16L621.07,68.44L623.21,75.4L623.92,83.78L625.34,83.42L626.05,86.99L628.19,135.33L628.9,61.13L630.32,63.09L631.03,72.37L633.17,98.94L633.88,65.77L634.59,63.63L635.3,68.08L636.01,70.4L636.72,76.29L637.43,96.62L638.15,65.23L638.86,65.23L639.57,76.11L640.28,91.27L640.99,39.9L642.41,44.18L643.13,47.39L643.84,48.82L644.55,61.49L645.26,62.38L645.97,69.33L646.68,73.08L647.39,83.78L648.11,96.8L648.82,43.65L650.24,43.11L650.95,48.29L653.8,95.91L654.51,58.27L656.64,83.07L657.35,80.93L658.78,90.74L659.49,113.03L660.91,70.58L661.62,83.78L662.33,98.05L663.05,46.5L663.76,47.39L664.47,44.72L667.31,80.57L668.03,39.9L668.74,39.01L669.45,42.04L670.16,40.44L670.87,43.65L671.58,65.23L672.29,63.45L673.01,62.2L673.72,64.34L674.43,66.12L675.14,75.04L677.27,97.87L677.99,54.35L678.7,52.75L679.41,61.31L680.83,78.25L681.54,100.72L682.25,73.26L682.97,81.28L685.1,124.09L685.81,74.51L686.52,52.57L687.23,53.82L687.95,56.85L688.66,65.41L690.79,91.09L691.5,56.49L692.93,60.95L693.64,59.88L695.06,64.7L695.77,66.84L696.48,66.12L697.19,79.5L697.91,77.54L698.62,94.3L700.04,115.89L700.75,46.86L705.02,98.41L705.73,97.69L707.15,109.29L707.87,106.08L709.29,105.72L710,138.89" style="vector-effect: none; fill: none; stroke: rgb(227, 119, 194); stroke-opacity: 1; stroke-width: 2px; opacity: 1;"/></g><g class="points"/><g class="text"/></g><g class="trace scatter tracedb213b" style="stroke-miterlimit: 2; opacity: 1;"><g class="fills"/><g class="errorbars"/><g class="lines"><path class="js-line" d="M0,100.37L0.71,103.22L1.42,92.52L2.13,93.05L2.85,89.49L4.27,85.39L4.98,81.1L5.69,81.46L6.4,78.79L7.11,79.68L7.83,87.7L8.54,89.31L9.25,95.02L12.09,160.65L12.81,181.17L14.23,73.44L14.94,73.97L17.07,79.32L17.79,80.03L19.92,94.3L20.63,89.84L21.34,91.63L22.05,90.91L24.19,113.92L24.9,110.89L25.61,122.31L26.32,84.85L27.03,84.32L27.75,85.03L28.46,85.74L29.17,100.72L30.59,106.97L31.3,124.09L33.44,162.44L34.15,96.09L34.86,109.11L35.57,59.17L36.99,64.34L37.71,61.13L38.42,64.52L39.13,60.77L40.55,64.87L41.26,63.09L42.69,74.15L43.4,73.44L44.11,80.93L44.82,57.03L46.24,63.09L46.95,63.09L47.67,61.13L48.38,63.45L49.09,63.98L49.8,66.48L50.51,67.73L51.22,71.29L51.93,70.94L52.65,80.57L53.36,78.43L54.07,89.13L55.49,102.33L56.2,117.85L56.91,74.51L57.63,76.29L58.34,77.36L59.05,81.64L59.76,78.43L61.18,86.63L61.89,86.1L64.03,113.74L64.74,137.29L65.45,85.92L66.16,90.38L66.87,96.27L67.59,95.91L68.3,103.58L69.01,98.76L69.72,98.76L70.43,110.71L71.85,116.6L72.57,129.08L73.28,84.32L73.99,105.01L74.7,55.06L75.41,55.42L76.12,56.31L76.83,60.59L77.55,59.7L78.26,62.2L78.97,78.25L79.68,70.58L80.39,77.18L81.1,78.07L81.81,91.45L82.53,114.64L83.24,69.51L83.95,68.08L84.66,81.46L86.08,101.08L86.79,56.85L88.22,51.14L88.93,56.85L93.91,122.31L94.62,125.16L95.33,140.32L96.04,81.28L96.75,42.4L97.46,46.32L99.6,65.94L100.31,63.98L102.44,103.04L103.16,38.65L103.87,42.94L104.58,41.51L106.71,49.71L107.42,61.49L109.56,90.38L110.27,51.68L110.98,48.82L111.69,50.96L112.4,46.68L113.12,47.22L115.96,76.65L116.67,83.25L118.1,94.48L118.81,44.18L120.23,58.99L120.94,57.2L123.08,78.96L123.79,77.72L124.5,83.78L125.21,97.51L126.63,43.29L127.34,46.68L128.77,62.91L129.48,64.52L130.19,72.01L130.9,71.12L131.61,71.83L132.32,75.22L133.04,82.71L133.75,48.64L134.46,42.94L135.17,46.68L138.02,63.45L138.73,76.47L141.57,108.93L142.28,68.44L144.42,83.78L145.13,82.89L145.84,88.77L146.55,106.43L147.26,105.01L147.98,116.78L150.11,140.68L150.82,94.84L151.53,45.43L152.24,58.45L153.67,80.03L154.38,90.02L155.09,53.82L155.8,54.89L156.51,65.05L158.65,95.55L159.36,46.86L160.78,69.15L161.49,71.83L162.2,72.72L162.92,80.75L163.63,96.27L164.34,47.93L165.05,43.11L165.76,43.83L167.9,57.38L168.61,56.67L170.03,70.22L170.74,82.35L172.16,99.65L172.88,101.79L173.59,113.92L174.3,74.51L175.01,86.28L175.72,39.9L176.43,44.18L177.14,43.65L179.99,79.14L180.7,37.76L181.41,40.08L182.12,36.16L183.55,44.54L184.26,42.04L184.97,45.08L185.68,52.57L186.39,52.92L187.1,59.88L187.82,71.83L188.53,39.37L189.24,40.26L189.95,44.36L190.66,48.82L191.37,47.75L192.8,52.75L193.51,68.8L194.22,67.37L194.93,79.68L195.64,85.03L196.35,83.96L197.06,79.68L197.78,80.03L198.49,97.34L199.2,55.6L199.91,57.38L200.62,56.49L202.04,71.29L202.76,71.47L204.18,78.96L204.89,98.23L205.6,118.74L206.31,85.39L207.02,86.46L207.74,97.34L209.16,43.65L209.87,49.89L212,56.13L212.72,60.24L213.43,69.87L214.14,69.15L214.85,69.87L215.56,68.26L217.7,104.11L218.41,51.85L219.12,50.6L219.83,57.56L220.54,58.99L221.25,66.48L224.1,105.54L224.81,58.1L226.23,80.39L226.94,76.29L227.66,85.74L228.37,53.28L229.08,53.99L229.79,59.34L231.21,72.37L231.92,80.75L233.35,46.32L234.06,51.32L235.48,66.84L236.19,79.86L236.9,47.04L237.62,49.71L238.33,48.29L239.04,51.5L240.46,50.07L241.17,55.78L242.6,65.05L243.31,61.13L245.44,95.37L246.15,58.81L246.86,60.24L247.58,67.01L248.29,65.59L249,66.66L249.71,67.73L250.42,64.34L251.13,69.69L251.84,67.01L252.56,68.62L253.27,75.93L253.98,89.31L254.69,86.63L256.11,106.61L256.82,118.38L257.54,119.45L258.25,128.73L258.96,98.05L259.67,109.46L260.38,66.3L261.09,69.51L264.65,98.05L265.36,59.34L266.07,62.38L266.78,62.02L268.21,59.34L268.92,63.27L269.63,53.82L270.34,64.52L271.05,62.91L271.76,63.98L272.47,70.4L273.19,68.98L275.32,97.16L276.03,111.6L277.45,138.89L278.17,66.3L278.88,79.5L279.59,76.82L281.01,86.46L281.72,96.98L283.15,114.28L283.86,115.71L284.57,125.69L285.28,89.31L285.99,88.77L286.7,96.44L288.13,107.15L288.84,101.26L290.97,121.41L291.68,151.38L292.39,88.06L293.11,111.6L293.82,36.34L294.53,44.72L296.66,73.44L297.37,34.02L298.09,36.87L298.8,58.45L300.22,84.32L300.93,76.29L301.64,74.68L302.35,90.56L303.07,108.93L303.78,37.94L304.49,44.18L305.2,40.62L305.91,46.15L306.62,42.4L307.33,43.11L308.05,41.87L310.18,83.25L310.89,51.32L311.6,49.89L312.31,55.24L313.74,67.19L314.45,73.08L317.29,128.01L318.01,44.72L318.72,47.22L319.43,58.1L323.7,78.43L324.41,88.77L325.83,95.02L326.54,24.21L329.39,47.57L330.1,49L331.52,69.15L332.23,67.55L333.66,83.42L334.37,41.33L335.79,46.68L336.5,37.94L337.93,54.17L338.64,51.85L339.35,63.8L340.06,63.45L340.77,59.52L341.48,63.8L342.19,76.82L342.91,53.1L343.62,68.08L345.04,86.1L345.75,55.6L346.46,54.53L347.17,60.06L350.02,84.85L350.73,83.78L351.44,92.52L352.15,111.6L352.87,125.52L353.58,70.4L354.29,70.94L355,81.64L356.42,52.03L357.13,57.2L358.56,63.63L359.27,65.94L359.98,69.51L360.69,79.5L361.4,83.42L362.11,78.79L363.54,112.67L364.25,54.71L365.67,55.6L366.38,62.02L369.23,119.81L369.94,67.91L371.36,65.05L372.07,68.8L373.5,78.79L374.21,78.96L377.05,88.6L377.77,97.51L378.48,115.71L379.19,60.24L379.9,62.73L380.61,68.44L383.46,81.46L384.17,77L385.59,96.8L386.3,63.09L387.73,86.99L388.44,98.58L389.15,96.98L389.86,118.74L391.28,30.27L391.99,38.83L392.71,36.87L393.42,44.54L394.13,46.5L394.84,57.38L397.69,83.42L398.4,80.03L399.11,78.96L399.82,82.17L400.53,85.39L401.24,32.59L404.09,54.89L404.8,59.17L405.51,66.66L406.22,87.88L407.65,103.58L408.36,75.22L409.78,32.77L410.49,42.76L411.2,44.01L411.91,51.85L414.05,70.05L414.76,21.53L415.47,25.1L416.18,22.96L416.89,23.32L417.61,30.81L419.74,48.46L420.45,50.6L421.87,79.32L422.59,28.84L423.3,26.35L424.01,37.41L425.43,39.9L426.14,51.5L428.28,84.14L428.99,43.83L431.83,76.11L432.55,91.45L433.26,98.58L433.97,96.27L434.68,122.48L435.39,27.95L436.81,33.66L437.53,31.52L438.24,30.99L438.95,31.52L439.66,39.01L440.37,36.87L443.93,82.89L444.64,49.36L446.77,67.01L447.48,67.73L449.62,86.28L450.33,83.25L451.75,91.98L452.46,74.68L456.02,111.6L456.73,126.41L457.44,129.08L458.16,128.73L459.58,137.82L460.29,137.82L461.71,144.78L462.42,105.18L463.14,105.54L463.85,118.92L464.56,73.79L465.27,76.11L465.98,78.79L466.69,80.21L467.4,86.28L468.83,81.46L469.54,85.74L470.25,80.03L470.96,83.42L471.67,87.17L472.38,96.09L474.52,115.17L475.23,114.81L477.36,139.61L478.08,85.92L478.79,85.39L479.5,90.02L480.21,88.42L480.92,92.7L482.34,93.23L483.06,96.8L483.77,99.65L484.48,118.56L485.19,128.55L485.9,90.2L486.61,102.86L487.32,101.08L488.04,102.51L488.75,115.17L489.46,51.14L490.17,53.46L490.88,56.85L492.3,69.51L493.02,81.82L494.44,102.51L495.15,57.92L495.86,59.52L496.57,63.09L499.42,92.52L500.13,88.95L500.84,100.01L501.55,97.16L502.98,123.02L503.69,85.03L504.4,103.04L505.11,37.05L507.96,66.84L508.67,78.25L509.38,76.29L510.09,84.85L510.8,86.28L511.51,94.13L512.22,94.66L512.94,100.19L513.65,98.94L514.36,120.88L515.07,120.7L515.78,129.98L516.49,83.6L517.2,88.06L517.92,89.67L518.63,95.73L519.34,95.2L520.05,121.41L520.76,72.54L521.47,83.78L522.9,47.75L523.61,56.49L526.45,79.5L527.16,90.91L527.88,49.71L528.59,51.32L529.3,58.63L531.43,84.14L532.14,86.28L533.57,143.17L534.28,48.46L534.99,52.57L535.7,51.5L537.12,57.92L537.84,56.31L539.26,63.98L539.97,62.02L542.82,81.28L543.53,93.77L544.24,47.93L544.95,49.71L545.66,57.03L546.37,71.65L547.08,70.22L547.8,71.65L548.51,80.75L549.22,40.08L549.93,44.72L550.64,43.47L551.35,57.2L554.2,80.39L554.91,93.77L556.33,47.22L557.04,57.92L558.47,67.37L559.18,67.73L560.6,103.93L561.31,114.64L562.02,118.03L562.74,117.85L563.45,125.69L564.16,67.19L564.87,72.37L565.58,75.93L566.29,87.53L567.72,113.74L568.43,65.41L569.14,68.8L569.85,80.21L570.56,95.2L571.27,132.12L571.98,75.04L572.7,83.42L573.41,43.65L574.12,50.25L574.83,57.03L575.54,74.68L576.25,77.36L576.96,46.15L577.68,48.82L578.39,55.06L580.52,88.95L581.23,88.6L581.94,87.35L582.66,105.36L583.37,60.41L584.08,60.77L584.79,71.47L586.92,93.77L587.64,108.39L588.35,66.3L589.06,71.12L590.48,85.39L591.19,109.46L591.9,73.97L592.62,84.67L593.33,45.79L594.04,52.39L596.17,81.1L596.88,93.95L597.6,53.64L598.31,60.06L600.44,81.46L601.15,80.21L601.86,98.58L602.58,47.39L604.71,82.17L605.42,102.69L606.84,110.36L607.56,137.65L608.98,42.94L609.69,53.64L611.11,61.31L611.82,61.66L613.96,93.95L614.67,36.87L615.38,40.8L616.09,49.36L616.8,51.32L617.52,62.38L618.94,82.71L619.65,92.34L620.36,49L621.07,53.28L623.92,76.29L624.63,79.32L625.34,76.82L626.05,85.56L626.76,108.93L627.47,67.01L628.19,18.5L628.9,22.07L629.61,23.49L630.32,34.91L633.17,59.52L633.88,24.74L634.59,25.28L635.3,32.06L636.01,29.74L636.72,33.48L637.43,51.85L638.15,51.14L638.86,49.71L640.28,78.25L640.99,35.09L642.41,49.71L643.13,51.85L644.55,63.8L645.26,60.24L648.11,90.91L648.82,47.93L650.24,59.88L650.95,58.81L651.66,78.07L652.37,34.02L653.8,60.24L654.51,26.53L656.64,41.69L657.35,44.54L658.78,49.18L659.49,67.55L660.2,79.68L660.91,38.65L663.05,71.47L663.76,35.62L664.47,32.06L665.18,49L665.89,48.29L666.6,56.13L668.74,78.25L669.45,72.9L670.16,78.61L670.87,35.62L671.58,48.64L672.29,44.36L673.01,44.9L673.72,47.04L674.43,45.97L675.14,60.59L675.85,70.58L676.56,66.48L677.99,94.48L678.7,33.48L679.41,32.95L680.12,38.12L680.83,45.43L681.54,63.45L682.25,68.26L682.97,79.5L684.39,45.08L685.1,57.74L685.81,21.71L686.52,27.95L687.23,30.81L687.95,44.9L690.08,72.01L690.79,76.82L691.5,35.09L692.21,39.19L692.93,46.86L693.64,45.25L695.77,83.25L696.48,76.47L697.91,100.37L698.62,122.31L699.33,69.33L700.04,76.29L700.75,24.21L701.46,24.74L702.17,32.41L702.89,37.94L703.6,49.36L705.02,65.94L705.73,25.46L706.44,30.99L707.15,28.67L707.87,34.91L708.58,33.13L709.29,37.05L710,47.57" style="vector-effect: none; fill: none; stroke: rgb(127, 127, 127); stroke-opacity: 1; stroke-width: 2px; opacity: 1;"/></g><g class="points"/><g class="text"/></g></g></g><g class="overplot"/><path class="xlines-above crisp" d="M0,0" style="fill: none;"/><path class="ylines-above crisp" d="M0,0" style="fill: none;"/><g class="overlines-above"/><g class="xaxislayer-above"><g class="xtick"><text text-anchor="middle" x="0" y="533" transform="translate(80,0)" style="font-family: 'Open Sans', verdana, arial, sans-serif; font-size: 12px; fill: rgb(68, 68, 68); fill-opacity: 1; white-space: pre; opacity: 1;">0</text></g><g class="xtick"><text text-anchor="middle" x="0" y="533" style="font-family: 'Open Sans', verdana, arial, sans-serif; font-size: 12px; fill: rgb(68, 68, 68); fill-opacity: 1; white-space: pre; opacity: 1;" transform="translate(222.28,0)">200</text></g><g class="xtick"><text text-anchor="middle" x="0" y="533" style="font-family: 'Open Sans', verdana, arial, sans-serif; font-size: 12px; fill: rgb(68, 68, 68); fill-opacity: 1; white-space: pre; opacity: 1;" transform="translate(364.57,0)">400</text></g><g class="xtick"><text text-anchor="middle" x="0" y="533" style="font-family: 'Open Sans', verdana, arial, sans-serif; font-size: 12px; fill: rgb(68, 68, 68); fill-opacity: 1; white-space: pre; opacity: 1;" transform="translate(506.85,0)">600</text></g><g class="xtick"><text text-anchor="middle" x="0" y="533" style="font-family: 'Open Sans', verdana, arial, sans-serif; font-size: 12px; fill: rgb(68, 68, 68); fill-opacity: 1; white-space: pre; opacity: 1;" transform="translate(649.14,0)">800</text></g></g><g class="yaxislayer-above"><g class="ytick"><text text-anchor="end" x="79" y="4.199999999999999" transform="translate(0,477.78)" style="font-family: 'Open Sans', verdana, arial, sans-serif; font-size: 12px; fill: rgb(68, 68, 68); fill-opacity: 1; white-space: pre; opacity: 1;">0.55</text></g><g class="ytick"><text text-anchor="end" x="79" y="4.199999999999999" style="font-family: 'Open Sans', verdana, arial, sans-serif; font-size: 12px; fill: rgb(68, 68, 68); fill-opacity: 1; white-space: pre; opacity: 1;" transform="translate(0,424.27)">0.6</text></g><g class="ytick"><text text-anchor="end" x="79" y="4.199999999999999" style="font-family: 'Open Sans', verdana, arial, sans-serif; font-size: 12px; fill: rgb(68, 68, 68); fill-opacity: 1; white-space: pre; opacity: 1;" transform="translate(0,370.76)">0.65</text></g><g class="ytick"><text text-anchor="end" x="79" y="4.199999999999999" style="font-family: 'Open Sans', verdana, arial, sans-serif; font-size: 12px; fill: rgb(68, 68, 68); fill-opacity: 1; white-space: pre; opacity: 1;" transform="translate(0,317.25)">0.7</text></g><g class="ytick"><text text-anchor="end" x="79" y="4.199999999999999" style="font-family: 'Open Sans', verdana, arial, sans-serif; font-size: 12px; fill: rgb(68, 68, 68); fill-opacity: 1; white-space: pre; opacity: 1;" transform="translate(0,263.74)">0.75</text></g><g class="ytick"><text text-anchor="end" x="79" y="4.199999999999999" style="font-family: 'Open Sans', verdana, arial, sans-serif; font-size: 12px; fill: rgb(68, 68, 68); fill-opacity: 1; white-space: pre; opacity: 1;" transform="translate(0,210.24)">0.8</text></g><g class="ytick"><text text-anchor="end" x="79" y="4.199999999999999" style="font-family: 'Open Sans', verdana, arial, sans-serif; font-size: 12px; fill: rgb(68, 68, 68); fill-opacity: 1; white-space: pre; opacity: 1;" transform="translate(0,156.73)">0.85</text></g></g><g class="overaxes-above"/></g></g><g class="polarlayer"/><g class="smithlayer"/><g class="ternarylayer"/><g class="geolayer"/><g class="funnelarealayer"/><g class="pielayer"/><g class="iciclelayer"/><g class="treemaplayer"/><g class="sunburstlayer"/><g class="glimages"/><defs id="topdefs-e5b31d"><g class="clips"/><clipPath id="legende5b31d"><rect width="541" height="67" x="0" y="0"/></clipPath></defs><g class="layer-above"><g class="imagelayer"/><g class="shapelayer"/></g><g class="infolayer"><g class="legend" pointer-events="all" transform="translate(80,76.00000000000001)"><rect class="bg" shape-rendering="crispEdges" width="541" height="67" x="0" y="0" style="stroke: rgb(68, 68, 68); stroke-opacity: 1; fill: rgb(255, 255, 255); fill-opacity: 1; stroke-width: 0px;"/><g class="scrollbox" transform="" clip-path="url(#legende5b31d)"><g class="groups"><g class="traces" transform="translate(0,14.5)" style="opacity: 1;"><text class="legendtext" text-anchor="start" x="40" y="4.680000000000001" style="font-family: 'Open Sans', verdana, arial, sans-serif; font-size: 12px; fill: rgb(68, 68, 68); fill-opacity: 1; white-space: pre;">Fixed clip</text><g class="layers" style="opacity: 1;"><g class="legendfill"/><g class="legendlines"><path class="js-line" d="M5,0h30" style="fill: none; stroke: rgb(31, 119, 180); stroke-opacity: 1; stroke-width: 2px;"/></g><g class="legendsymbols"><g class="legendpoints"/></g></g><rect class="legendtoggle" x="0" y="-9.5" width="98.296875" height="19" style="fill: rgb(0, 0, 0); fill-opacity: 0;"/></g><g class="traces" transform="translate(180.328125,14.5)" style="opacity: 1;"><text class="legendtext" text-anchor="start" x="40" y="4.680000000000001" style="font-family: 'Open Sans', verdana, arial, sans-serif; font-size: 12px; fill: rgb(68, 68, 68); fill-opacity: 1; white-space: pre;">Median</text><g class="layers" style="opacity: 1;"><g class="legendfill"/><g class="legendlines"><path class="js-line" d="M5,0h30" style="fill: none; stroke: rgb(255, 127, 14); stroke-opacity: 1; stroke-width: 2px;"/></g><g class="legendsymbols"><g class="legendpoints"/></g></g><rect class="legendtoggle" x="0" y="-9.5" width="86.15625" height="19" style="fill: rgb(0, 0, 0); fill-opacity: 0;"/></g><g class="traces" transform="translate(360.65625,14.5)" style="opacity: 1;"><text class="legendtext" text-anchor="start" x="40" y="4.680000000000001" style="font-family: 'Open Sans', verdana, arial, sans-serif; font-size: 12px; fill: rgb(68, 68, 68); fill-opacity: 1; white-space: pre;">Performance weighted</text><g class="layers" style="opacity: 1;"><g class="legendfill"/><g class="legendlines"><path class="js-line" d="M5,0h30" style="fill: none; stroke: rgb(44, 160, 44); stroke-opacity: 1; stroke-width: 2px;"/></g><g class="legendsymbols"><g class="legendpoints"/></g></g><rect class="legendtoggle" x="0" y="-9.5" width="177.828125" height="19" style="fill: rgb(0, 0, 0); fill-opacity: 0;"/></g><g class="traces" transform="translate(0,33.5)" style="opacity: 1;"><text class="legendtext" text-anchor="start" x="40" y="4.680000000000001" style="font-family: 'Open Sans', verdana, arial, sans-serif; font-size: 12px; fill: rgb(68, 68, 68); fill-opacity: 1; white-space: pre;">Simple average</text><g class="layers" style="opacity: 1;"><g class="legendfill"/><g class="legendlines"><path class="js-line" d="M5,0h30" style="fill: none; stroke: rgb(214, 39, 40); stroke-opacity: 1; stroke-width: 2px;"/></g><g class="legendsymbols"><g class="legendpoints"/></g></g><rect class="legendtoggle" x="0" y="-9.5" width="136.421875" height="19" style="fill: rgb(0, 0, 0); fill-opacity: 0;"/></g><g class="traces" transform="translate(180.328125,33.5)" style="opacity: 1;"><text class="legendtext" text-anchor="start" x="40" y="4.680000000000001" style="font-family: 'Open Sans', verdana, arial, sans-serif; font-size: 12px; fill: rgb(68, 68, 68); fill-opacity: 1; white-space: pre;">Punish updates</text><g class="layers" style="opacity: 1;"><g class="legendfill"/><g class="legendlines"><path class="js-line" d="M5,0h30" style="fill: none; stroke: rgb(148, 103, 189); stroke-opacity: 1; stroke-width: 2px;"/></g><g class="legendsymbols"><g class="legendpoints"/></g></g><rect class="legendtoggle" x="0" y="-9.5" width="134.28125" height="19" style="fill: rgb(0, 0, 0); fill-opacity: 0;"/></g><g class="traces" transform="translate(360.65625,33.5)" style="opacity: 1;"><text class="legendtext" text-anchor="start" x="40" y="4.680000000000001" style="font-family: 'Open Sans', verdana, arial, sans-serif; font-size: 12px; fill: rgb(68, 68, 68); fill-opacity: 1; white-space: pre;">Dynamic clip</text><g class="layers" style="opacity: 1;"><g class="legendfill"/><g class="legendlines"><path class="js-line" d="M5,0h30" style="fill: none; stroke: rgb(140, 86, 75); stroke-opacity: 1; stroke-width: 2px;"/></g><g class="legendsymbols"><g class="legendpoints"/></g></g><rect class="legendtoggle" x="0" y="-9.5" width="120.125" height="19" style="fill: rgb(0, 0, 0); fill-opacity: 0;"/></g><g class="traces" transform="translate(0,52.5)" style="opacity: 1;"><text class="legendtext" text-anchor="start" x="40" y="4.680000000000001" style="font-family: 'Open Sans', verdana, arial, sans-serif; font-size: 12px; fill: rgb(68, 68, 68); fill-opacity: 1; white-space: pre;">Receny weighted</text><g class="layers" style="opacity: 1;"><g class="legendfill"/><g class="legendlines"><path class="js-line" d="M5,0h30" style="fill: none; stroke: rgb(227, 119, 194); stroke-opacity: 1; stroke-width: 2px;"/></g><g class="legendsymbols"><g class="legendpoints"/></g></g><rect class="legendtoggle" x="0" y="-9.5" width="145.65625" height="19" style="fill: rgb(0, 0, 0); fill-opacity: 0;"/></g><g class="traces" transform="translate(180.328125,52.5)" style="opacity: 1;"><text class="legendtext" text-anchor="start" x="40" y="4.680000000000001" style="font-family: 'Open Sans', verdana, arial, sans-serif; font-size: 12px; fill: rgb(68, 68, 68); fill-opacity: 1; white-space: pre;">No FL</text><g class="layers" style="opacity: 1;"><g class="legendfill"/><g class="legendlines"><path class="js-line" d="M5,0h30" style="fill: none; stroke: rgb(127, 127, 127); stroke-opacity: 1; stroke-width: 2px;"/></g><g class="legendsymbols"><g class="legendpoints"/></g></g><rect class="legendtoggle" x="0" y="-9.5" width="76.546875" height="19" style="fill: rgb(0, 0, 0); fill-opacity: 0;"/></g></g></g><rect class="scrollbar" rx="20" ry="3" width="0" height="0" x="0" y="0" style="fill: rgb(128, 139, 164); fill-opacity: 1;"/></g><g class="g-gtitle"><text class="gtitle" x="400" y="75" text-anchor="middle" dy="0em" style="font-family: 'Open Sans', verdana, arial, sans-serif; font-size: 17px; fill: rgb(68, 68, 68); opacity: 1; font-weight: normal; white-space: pre;">Accuracy score by FL method for 2 nodes</text></g><g class="g-xtitle"><text class="xtitle" x="435" y="572" text-anchor="middle" style="font-family: 'Open Sans', verdana, arial, sans-serif; font-size: 14px; fill: rgb(68, 68, 68); opacity: 1; font-weight: normal; white-space: pre;">Aggregation methods</text></g><g class="g-ytitle"><text class="ytitle" transform="rotate(-90,42,335)" x="42" y="335" text-anchor="middle" style="font-family: 'Open Sans', verdana, arial, sans-serif; font-size: 14px; fill: rgb(68, 68, 68); opacity: 1; font-weight: normal; white-space: pre;">Accuracy score</text></g></g></svg>